<?xml version="1.0" encoding="UTF-8"?>
<svg width="16px" height="16px" viewBox="0 0 16 16" version="1.1" xmlns="http://www.w3.org/2000/svg" xmlns:xlink="http://www.w3.org/1999/xlink">
    <title>流程平台</title>
    <g id="页面-1" stroke="none" stroke-width="1" fill="none" fill-rule="evenodd">
        <g id="关键应用图标（定稿）" transform="translate(-44.000000, -114.000000)">
            <g id="流程平台" transform="translate(44.000000, 112.000000)">
                <g transform="translate(0.000000, 1.772786)">
                    <polygon id="矩形" points="0 0.227036887 16 0.227036887 16 16.2270369 0 16.2270369"></polygon>
                    <g id="编组-41备份" transform="translate(0.774712, 0.000000)" stroke="#2987FE">
                        <path d="M6.40488777,1.00448659 C6.86489054,0.738903869 7.4310473,0.73640229 7.89337904,0.997909654 L7.89337904,0.997909654 L13.1759913,3.98589837 C13.4112792,4.11898359 13.6016564,4.31022811 13.7332116,4.53578095 C13.8647668,4.76133379 13.9375,5.02119495 13.9375,5.29151341 L13.9375,5.29151341 L13.9375,11.2084866 C13.9375,11.4788051 13.8647668,11.7386662 13.7332116,11.964219 C13.6016564,12.1897719 13.4112792,12.3810164 13.1759913,12.5141016 L13.1759913,12.5141016 L7.89337904,15.5020903 C7.4310473,15.7635977 6.86489054,15.7610961 6.40488777,15.4955134 L6.40488777,15.4955134 L1.25,12.5193376 C1.01794919,12.385363 0.830449192,12.194578 0.700961894,11.9702995 C0.571474596,11.7460209 0.5,11.4882487 0.5,11.2202995 L0.5,11.2202995 L0.5,5.27970054 C0.5,5.01175135 0.571474596,4.75397912 0.700961894,4.52970054 C0.830449192,4.30542196 1.01794919,4.11463703 1.25,3.98066243 L1.25,3.98066243 Z" id="多边形备份-2"></path>
                        <path d="M9.28123755,5.16155389 C9.28123755,5.44989091 9.00827353,5.68184203 8.66745846,5.68184203 L5.76936051,5.68184203 C5.6039532,5.67999057 5.44626717,5.6240456 5.33121408,5.52639334 C5.21616098,5.42874107 5.15323263,5.29743775 5.15636133,5.16155389 C5.15636133,4.87193537 5.42932534,4.640625 5.76936051,4.640625 L8.66745846,4.640625 C9.00827353,4.640625 9.28123755,4.87193537 9.28123755,5.16155389 Z" id="路径" stroke-width="0.2" fill="#2987FE" fill-rule="nonzero"></path>
                        <path d="M9.28123755,8.25466331 C9.28123755,8.54364118 9.00827352,8.77495162 8.66745843,8.77495162 L5.77014025,8.77495162 C5.60459686,8.77326929 5.4467103,8.71739854 5.33148887,8.61972763 C5.21626744,8.52205672 5.15323261,8.39065682 5.15636113,8.25466331 C5.15636113,7.96568544 5.42932516,7.734375 5.77014025,7.734375 L8.66745843,7.734375 C9.00905342,7.734375 9.28123755,7.9650447 9.28123755,8.25466331 Z" id="路径" stroke-width="0.2" fill="#2987FE" fill-rule="nonzero"></path>
                        <path d="M9.28125,11.3484131 C9.28125,11.6380317 9.00828617,11.869342 8.66747133,11.869342 L5.76937535,11.869342 C5.60383032,11.8674924 5.44602384,11.8114592 5.33094817,11.7136674 C5.2158725,11.6158756 5.1530376,11.4844069 5.15637658,11.3484131 C5.15637658,11.0600761 5.42934041,10.828125 5.76937535,10.828125 L8.66747133,10.828125 C9.00828617,10.828125 9.28125,11.0594354 9.28125,11.3484131 Z" id="路径" stroke-width="0.2" fill="#2987FE" fill-rule="nonzero"></path>
                        <path d="M3.59369113,7.71992454 C3.56858241,7.69439905 3.51893561,7.71992454 3.51893561,7.77097554 L3.51893561,7.97574674 C3.14458735,7.84811926 2.5208638,7.48962784 2.5208638,6.67054303 C2.5208638,5.51905952 3.74320218,5.31372109 3.79341962,5.28819559 C3.93151692,5.25499844 4.0192909,5.12013796 3.99314812,4.9813224 C3.99314812,4.82760219 3.86817515,4.72493297 3.74320218,4.7510257 C3.14458735,4.82703495 2.02268387,5.36533931 2.02268387,6.64501753 C2.02268387,7.79650103 2.92089144,8.33423816 3.51950626,8.51348386 L3.51950626,8.82092429 C3.51950626,8.87197528 3.56915306,8.87197528 3.59426179,8.87197528 L4.49246935,8.33423816 C4.54211615,8.30871266 4.54211615,8.25766167 4.49246935,8.23213617 L3.59369113,7.71992454 Z" id="路径" stroke-width="0.2" fill="#2987FE" fill-rule="nonzero" transform="translate(3.276194, 6.809475) rotate(9.000000) translate(-3.276194, -6.809475) "></path>
                        <path d="M10.9387423,10.8263023 C10.9636984,10.800932 11.0130434,10.8263023 11.0130434,10.877043 L11.0130434,11.0805695 C11.3851162,10.9537178 12.0050484,10.5974055 12.0050484,9.78329952 C12.0050484,8.63881536 10.7901401,8.43472508 10.7402279,8.40935475 C10.60271,8.37635416 10.5153937,8.24194891 10.5417135,8.10378311 C10.5666696,7.95156108 10.6908829,7.85007973 10.8150962,7.87488628 C11.4100723,7.97636764 12.5257234,8.48546576 12.5257234,9.78329952 C12.5257234,10.9277837 11.6329757,11.4622521 11.0379995,11.6404083 L11.0379995,11.9454161 C11.0379995,11.9961568 10.9886545,11.9961568 10.9636984,11.9961568 L10.0459946,11.4622521 C10.0216056,11.4368818 10.0216056,11.3861411 10.0459946,11.3607708 L10.9387423,10.8263023 Z" id="路径" stroke-width="0.2" fill="#2987FE" fill-rule="nonzero" transform="translate(11.276713, 9.933657) rotate(-5.000000) translate(-11.276713, -9.933657) "></path>
                    </g>
                </g>
            </g>
        </g>
    </g>
</svg>