<?xml version="1.0" encoding="UTF-8"?>
<svg width="16px" height="16px" viewBox="0 0 16 16" version="1.1" xmlns="http://www.w3.org/2000/svg" xmlns:xlink="http://www.w3.org/1999/xlink">
    <title>仓储报表</title>
    <g id="页面-1" stroke="none" stroke-width="1" fill="none" fill-rule="evenodd" opacity="0.849999964">
        <g id="04.3竖导航-通栏-搜索" transform="translate(-22.000000, -435.000000)">
            <g id="left" transform="translate(-31.333476, 0.000000)">
                <g id="编组-37" transform="translate(53.333476, 98.000000)">
                    <g id="icon" transform="translate(0.000000, 15.000000)">
                        <g id="仓储报表" transform="translate(0.000000, 322.000000)">
                            <rect id="矩形" stroke="#979797" stroke-width="0.9" fill="#D8D8D8" opacity="0" x="0.45" y="0.45" width="15.1" height="15.1"></rect>
                            <path d="M8.88822743,0.270171346 L9.00843319,0.359634399 L15.7974246,5.55485218 C16.0281501,5.74852225 16.0673353,6.09170557 15.886336,6.33353167 L15.8691461,6.35588886 C15.7076814,6.55456808 15.4319355,6.60205213 15.2175464,6.48103218 L14.8173254,6.20065161 L14.8173254,14.5996378 C14.8173254,15.5393033 14.3901257,15.9423311 13.6383418,15.9953229 L13.5023255,16 L2.87148091,16 C2.06379897,16 1.26098085,15.327919 1.18966615,14.4289067 L1.18453301,14.2996825 L1.18453301,6.20065161 L0.844750567,6.44011097 C0.614546422,6.61539626 0.28752902,6.56861871 0.11433707,6.33563036 C-0.0471424843,6.12061262 -0.034426045,5.8250877 0.132550941,5.62567792 L0.202359338,5.55574962 L6.93946901,0.359634399 C7.47968874,-0.0868973407 8.30855323,-0.117449649 8.88822743,0.270171346 Z M5.20621301,11.2913668 L5.00621301,11.2913668 C4.73007063,11.2913668 4.50621301,11.5152245 4.50621301,11.7913668 L4.50621301,11.7913668 L4.50621301,12.7913668 C4.50621301,13.0675092 4.73007063,13.2913668 5.00621301,13.2913668 L5.00621301,13.2913668 L5.20621301,13.2913668 C5.48235538,13.2913668 5.70621301,13.0675092 5.70621301,12.7913668 L5.70621301,12.7913668 L5.70621301,11.7913668 C5.70621301,11.5152245 5.48235538,11.2913668 5.20621301,11.2913668 L5.20621301,11.2913668 Z M8.20621301,9.29136684 L8.00621301,9.29136684 C7.73007063,9.29136684 7.50621301,9.51522446 7.50621301,9.79136684 L7.50621301,9.79136684 L7.50621301,12.7913668 C7.50621301,13.0675092 7.73007063,13.2913668 8.00621301,13.2913668 L8.00621301,13.2913668 L8.20621301,13.2913668 C8.48235538,13.2913668 8.70621301,13.0675092 8.70621301,12.7913668 L8.70621301,12.7913668 L8.70621301,9.79136684 C8.70621301,9.51522446 8.48235538,9.29136684 8.20621301,9.29136684 L8.20621301,9.29136684 Z M11.206213,10.2913668 L11.006213,10.2913668 C10.7300706,10.2913668 10.506213,10.5152245 10.506213,10.7913668 L10.506213,10.7913668 L10.506213,12.7913668 C10.506213,13.0675092 10.7300706,13.2913668 11.006213,13.2913668 L11.006213,13.2913668 L11.206213,13.2913668 C11.4823554,13.2913668 11.706213,13.0675092 11.706213,12.7913668 L11.706213,12.7913668 L11.706213,10.7913668 C11.706213,10.5152245 11.4823554,10.2913668 11.206213,10.2913668 L11.206213,10.2913668 Z M6.6914532,5.50218094 L4.24996021,8.14025497 L4.20227593,8.20002756 C4.06045292,8.40760866 4.0896043,8.69233694 4.28157853,8.86688069 L4.28157853,8.86688069 L4.34188385,8.91414374 C4.55131504,9.05471389 4.83858102,9.02582003 5.01468041,8.83554169 L5.01468041,8.83554169 L6.7962628,6.90954408 L9.38585316,8.98456055 L11.9630469,6.40820957 L12.0130363,6.3503168 C12.1628825,6.14834911 12.1449048,5.86271378 11.9599115,5.68091499 L11.9599115,5.68091499 L11.9015027,5.6313672 C11.6977349,5.4828447 11.4095539,5.50066362 11.2261348,5.68402274 L11.2261348,5.68402274 L9.30894443,7.60005019 L6.6914532,5.50218094 Z" id="路径" fill="#FFFFFF"></path>
                            <g id="编组-12" transform="translate(4.113454, 5.502181)"></g>
                        </g>
                    </g>
                </g>
            </g>
        </g>
    </g>
</svg>