<?xml version="1.0" encoding="UTF-8"?>
<svg width="18px" height="18px" viewBox="0 0 18 18" version="1.1" xmlns="http://www.w3.org/2000/svg" xmlns:xlink="http://www.w3.org/1999/xlink">
    <title>房子</title>
    <g id="竖型导航" stroke="none" stroke-width="1" fill="none" fill-rule="evenodd" opacity="0.69484282">
        <g id="垂直菜单视图4" transform="translate(-24.000000, -399.000000)">
            <g id="编组-6" transform="translate(24.000000, 63.000000)">
                <g id="房子" transform="translate(0.000000, 336.000000)">
                    <rect id="矩形" stroke="#979797" stroke-width="1.0125" fill="#D8D8D8" opacity="0" x="0.50625" y="0.50625" width="16.9875" height="16.9875"></rect>
                    <path d="M7.80690264,0.404588699 C8.41464983,-0.0977595083 9.34712238,-0.132130855 9.99925586,0.303942765 L10.1344873,0.404588699 L17.7721027,6.2492087 C18.0316689,6.46708753 18.0757522,6.85316877 17.872128,7.12522313 L17.8527893,7.15037497 C17.6711416,7.37388909 17.3609274,7.42730864 17.1197397,7.2911612 L16.669491,6.97573306 L16.669491,16.4245925 C16.669491,17.4817162 16.1888914,17.9351225 15.3431345,17.9947383 L15.1901162,18 L3.23041603,18 C2.32177385,18 1.41860346,17.2439088 1.33837442,16.23252 L1.33259964,16.0871429 L1.33259964,6.97573306 L0.950344388,7.24512484 C0.691364725,7.44232079 0.323470147,7.38969604 0.128629203,7.12758415 C-0.0530352948,6.8856892 -0.0387293007,6.55322366 0.149119809,6.32888766 L0.227654255,6.25021832 L7.80690264,0.404588699 Z M9.24071134,1.46812764 C9.15724431,1.39935727 8.98243869,1.38794397 8.85201584,1.44708252 L8.78017384,1.49113744 L2.8674,6.1245 L2.86800146,16.0871429 C2.86800146,16.2879036 3.08042574,16.5320385 3.21905816,16.5838122 L3.26702731,16.59375 L15.2368923,16.59375 L15.2424,16.4245925 L15.2419075,6.1356375 L9.24071134,1.46812764 Z" id="路径" fill="#FFFFFF"></path>
                    <path d="M12.0982427,10.0125556 C12.5511985,10.0125556 12.9183687,9.6452965 12.9183687,9.19234063 C12.9183687,8.739407 12.5511985,8.37223687 12.0982427,8.37223687 L11.0302813,8.37223687 L12.0799998,6.87783844 C12.2480785,6.63754491 12.2750868,6.32592639 12.1509911,6.06033763 C12.0268954,5.79468212 11.7705393,5.61547979 11.478454,5.59009557 C11.1864576,5.5647336 10.903071,5.69717202 10.7349923,5.93737657 L9.02915514,8.37223687 L8.97084486,8.37223687 L7.26500769,5.93737657 C7.09701802,5.69717202 6.81363138,5.5647336 6.52154603,5.59009557 C6.22946068,5.61547979 5.97310457,5.79468212 5.84900889,6.06033763 C5.72491322,6.32592639 5.75201049,6.63754491 5.92000016,6.87783844 L6.96971873,8.37223687 L5.90175734,8.37223687 C5.44882371,8.37223687 5.08165359,8.739407 5.08165359,9.19234063 C5.08165359,9.6452965 5.44882371,10.0125556 5.90175734,10.0125556 L8.17984063,10.0125556 L8.17984063,10.8144166 L5.90175734,10.8144166 C5.44882371,10.8144166 5.08165359,11.1815644 5.08165359,11.6345203 C5.08165359,12.0874539 5.44882371,12.4546241 5.90175734,12.4546241 L8.17984063,12.4546241 L8.17984063,14.3864942 C8.17984063,14.8394278 8.54709974,15.206598 9.00005562,15.206598 C9.45298925,15.206598 9.82015937,14.8394278 9.82015937,14.3864942 L9.82015937,12.4582726 L12.0982427,12.4582726 C12.5511985,12.4582726 12.9183687,12.0911025 12.9183687,11.6381689 C12.9183687,11.185213 12.5511985,10.8180651 12.0982427,10.8180651 L9.82015937,10.8180651 L9.82015937,10.0125556 L12.0982427,10.0125556 Z" id="Fill-3" fill="#FFFFFF"></path>
                </g>
            </g>
        </g>
    </g>
</svg>