<?xml version="1.0" encoding="UTF-8"?>
<svg width="14px" height="14px" viewBox="0 0 14 14" version="1.1" xmlns="http://www.w3.org/2000/svg" xmlns:xlink="http://www.w3.org/1999/xlink">
    <title>路径</title>
    <g id="竖型导航" stroke="none" stroke-width="1" fill="none" fill-rule="evenodd" opacity="0.600000024">
        <g id="垂直菜单视图4" transform="translate(-1294.000000, -13.000000)" fill="#FFFFFF" fill-rule="nonzero">
            <g id="框架头部" transform="translate(1130.000000, 11.000000)">
                <g id="开发工具-icon" transform="translate(164.000000, 2.000000)">
                    <path d="M10.9361552,9.01870855 C11.3034208,9.00377105 11.6655615,9.16141168 11.9008583,9.4524273 L13.7314365,11.7165679 C14.143999,12.2268492 14.0733427,12.9884742 13.5738271,13.4141304 L13.2154208,13.7193023 C13.0006708,13.9021617 12.7350146,13.9998961 12.4577021,13.9998961 C12.421124,13.9998961 12.3843896,13.9983336 12.3475146,13.9949117 C12.0308271,13.9654898 11.7457177,13.8123648 11.5448115,13.5638336 L9.71421772,11.2996773 C9.51688959,11.0558179 9.42351459,10.7430211 9.45074897,10.4277242 L7.37123041,7.98108864 L3.30938959,11.9383336 C2.95115522,12.2841304 2.56256147,12.8558804 2.33053022,13.1974742 C2.19048334,13.4033648 2.13181147,13.4888023 2.08449897,13.5345523 C1.95346772,13.6610836 1.61453022,13.7310992 1.35307709,13.7676773 C1.34281147,13.7690679 1.33253022,13.7698492 1.32226459,13.7698492 C1.25976169,13.7698353 1.2001356,13.7435824 1.15792084,13.6974898 L0.0587645936,12.4991929 C0.00990210928,12.4460276 -0.0101664457,12.3724798 0.00492084363,12.3018648 C0.0212645936,12.2256148 0.113077094,11.8346929 0.323327094,11.6314429 C0.398186469,11.5592398 0.550702094,11.4523336 0.761873969,11.3041773 C1.10362397,11.0645054 1.57173334,10.7363023 1.90024897,10.4191461 C2.11421778,10.212637 4.36108994,8.01114902 6.02579528,6.39813117 L4.18899897,4.23706793 C4.07335834,4.19116168 3.71792084,4.08003668 3.44760834,4.31020855 C3.26287397,4.46753668 3.25806147,4.6435523 3.25245209,4.84741168 C3.24824897,5.00303668 3.24373334,5.16394293 3.14087397,5.29684918 C3.12904584,5.31444293 3.11131147,5.3391773 3.08298334,5.3633023 L2.06801459,6.22778668 C1.99409272,6.29064605 1.90228022,6.32006793 1.80407709,6.31134918 C1.70790522,6.3024898 1.62137397,6.2561148 1.56037397,6.18078668 L0.0824208436,4.35284918 C-0.0400479064,4.2011148 -0.0192041564,3.97483355 0.129264594,3.84831793 L1.14423334,2.98383355 C1.14720209,2.98134918 1.15031147,2.97884918 1.15373334,2.9763648 C1.15513959,2.97495855 1.15653022,2.97356793 1.15809272,2.97231793 C1.26873334,2.8738023 1.40271772,2.88688043 1.52037397,2.8979273 C1.66976459,2.91208355 1.77481147,2.91566168 1.86865522,2.83583355 C1.99767084,2.72597418 2.07532709,2.45206793 2.09290522,2.33675543 C2.10083358,2.28359479 2.12775558,2.23510744 2.16868647,2.20027105 L4.12438959,0.534489802 C4.18042084,0.484849177 5.60623334,-0.732432073 8.67043647,0.680927302 C8.73963905,0.712749262 8.78777481,0.777735773 8.79804584,0.853208552 C8.80844995,0.928558467 8.7797018,1.00401058 8.72179584,1.05333355 L7.90929584,1.74553668 C7.87251784,1.77692492 7.82652589,1.795495 7.77826459,1.79844293 C7.66512397,1.80513043 7.53409272,1.78925543 7.38235834,1.77027105 C6.88793647,1.70895855 6.20988959,1.62477105 5.50585834,2.22469293 C5.47488959,2.25038043 5.40485834,2.32538043 5.39817084,2.40770855 C5.39349897,2.46513043 5.41979584,2.52581793 5.47846772,2.59320855 C5.58592727,2.71688067 6.4786428,3.75351088 7.53675535,4.99110139 C8.05221152,4.48539071 8.80898802,3.73969594 8.99303022,3.56584918 C9.15207709,3.41552105 9.29867084,3.27716168 9.44262397,3.13913043 C9.16920209,2.2773023 9.39640522,1.34153668 10.0411552,0.718896052 C10.4905927,0.285021052 11.1160302,0.0237241773 11.7570458,0.00194292729 C11.8202333,0.00270855229 11.8849677,0.0262085523 11.9290146,0.0741460523 L12.1724521,0.339646052 C12.253999,0.428661677 12.2499521,0.566239802 12.1635771,0.650427302 L11.0872958,1.69714605 L11.324624,2.73250543 L12.3059833,3.03472418 L13.3786865,1.9939273 C13.4219521,1.95191168 13.4809208,1.9310523 13.5405302,1.9310523 C13.6007684,1.93281463 13.6577356,1.95885531 13.6984833,2.00325543 L13.9414052,2.26813043 C13.9834763,2.31413874 14.0044074,2.37563464 13.9991396,2.43775543 C13.9432646,3.09650543 13.6545927,3.72178668 13.2073271,4.15364605 C12.5801708,4.7591773 11.6752333,4.9449898 10.8650615,4.64541168 C10.7184677,4.78609918 10.5773115,4.9189898 10.4235615,5.06388043 C10.2363757,5.24033274 9.40257474,6.06233104 8.88350257,6.57100284 C9.70920549,7.54311338 10.4834169,8.46238623 10.9361552,9.01870855 Z" id="路径"></path>
                </g>
            </g>
        </g>
    </g>
</svg>