<?xml version="1.0" encoding="UTF-8"?>
<svg width="16px" height="16px" viewBox="0 0 16 16" version="1.1" xmlns="http://www.w3.org/2000/svg" xmlns:xlink="http://www.w3.org/1999/xlink">
    <title>协同办公</title>
    <g id="页面-1" stroke="none" stroke-width="1" fill="none" fill-rule="evenodd">
        <g id="关键应用图标（定稿）" transform="translate(-532.000000, -413.000000)" fill="#2987FE" fill-rule="nonzero">
            <g id="编组-11" transform="translate(532.000000, 410.000000)">
                <g id="协同办公" transform="translate(0.000000, 3.000000)">
                    <path d="M13,15 C13.2761424,15 13.5,15.2238576 13.5,15.5 C13.5,15.7761424 13.2761424,16 13,16 L4,16 C3.72385763,16 3.5,15.7761424 3.5,15.5 C3.5,15.2238576 3.72385763,15 4,15 L13,15 Z" id="矩形备份-71"></path>
                    <path d="M11.84859,8.0707038 C11.8705426,7.90646356 11.8820285,7.74097917 11.8829774,7.57526407 C11.8829774,5.97777026 10.9276874,4.60281573 9.56296037,3.99107024 C9.56296037,3.98574907 9.56447191,3.98080797 9.56447191,3.97529675 C9.56363894,3.16093432 8.90755285,2.50094273 8.09790523,2.5 C7.31644171,2.5 6.68084131,3.11972726 6.63946305,3.89528903 C5.14833392,4.44641109 4.08005667,5.88616997 4.08005667,7.57526407 C4.08132231,7.75078286 4.09432567,7.9260172 4.1189787,8.09978024 C3.50427797,8.53669627 3.31936088,9.3713747 3.69147069,10.0294651 C4.0635805,10.6875556 4.87133248,10.9543845 5.55890458,10.6463443 C6.98206822,11.7893743 9.00380751,11.7840007 10.4209453,10.6334214 C10.612516,10.7242152 10.8215349,10.7716983 11.0333059,10.7725322 C11.6791912,10.7728732 12.2491811,10.3479527 12.4367292,9.72629733 C12.6242773,9.10464198 12.3851788,8.43277532 11.8480232,8.0720341 L11.84859,8.0707038 Z M8.07749951,3.41904352 C8.30119759,3.41904352 8.50286536,3.55459088 8.58845325,3.76247178 C8.67404114,3.97035269 8.62669136,4.20962201 8.46848591,4.36869436 C8.31028045,4.5277667 8.0723802,4.57531044 7.86573206,4.48915313 C7.65908392,4.40299582 7.52439027,4.2001074 7.52446666,3.97510671 C7.52446666,3.82759666 7.58273851,3.68613101 7.68645771,3.58184347 C7.79017692,3.47755594 7.93084346,3.41899314 8.07749951,3.41904352 Z M5.0132405,9.84968782 C4.70791329,9.84958284 4.46048128,9.60053981 4.4605856,9.29343464 C4.46068999,8.98632946 4.70829119,8.73745661 5.0136184,8.73756153 C5.31894561,8.73766652 5.56637764,8.98670953 5.56627334,9.2938147 C5.56606471,9.60087642 5.31852457,9.84968782 5.0132405,9.84968782 L5.0132405,9.84968782 Z M9.56673921,9.29609521 C9.56650518,9.58787706 9.65288794,9.87308474 9.81481987,10.1151766 C8.73284247,10.911971 7.26442985,10.9196363 6.1742882,10.1341808 C6.48618174,9.68373804 6.52307299,9.0961894 6.26999798,8.60985879 C6.01692298,8.12352818 5.5159022,7.81916578 4.97016175,7.82022833 C4.9355854,7.82022833 4.9030874,7.8282101 4.86907786,7.8304906 C4.86227596,7.74573183 4.85622982,7.66059297 4.85622982,7.57412382 C4.85622982,6.2578923 5.6650899,5.12980245 6.80856601,4.66210887 C7.05551301,5.12790203 7.53788157,5.44945325 8.09809417,5.44945325 C8.60539774,5.44829811 9.07585607,5.18274916 9.34114264,4.74781785 C10.3848574,5.2582709 11.1083158,6.33181867 11.1083158,7.57526407 C11.1083158,7.66040293 11.1022697,7.74402145 11.0954678,7.82763997 C11.0746842,7.82668976 11.0554121,7.82136858 11.0346285,7.82136858 C10.224833,7.82178702 9.56826327,8.48158483 9.56711709,9.29609521 L9.56673921,9.29609521 Z M11.0665597,9.83106369 C10.8428788,9.83106369 10.6412229,9.69553695 10.555624,9.48767938 C10.470025,9.2798218 10.5173401,9.04056738 10.6755064,8.88148008 C10.8336727,8.72239278 11.071542,8.67480212 11.2781962,8.76089955 C11.4848504,8.84699697 11.6195925,9.04982707 11.6195925,9.27481049 C11.6196426,9.42228761 11.5614448,9.56374448 11.4578019,9.66806219 C11.354159,9.7723799 11.2135609,9.8310133 11.0669375,9.83106369 L11.0665597,9.83106369 Z" id="形状"></path>
                    <path d="M14,0 C15.1045695,0 16,0.8954305 16,2 L16,12 C16,13.1045695 15.1045695,14 14,14 L2,14 C0.8954305,14 0,13.1045695 0,12 L0,2 C0,0.8954305 0.8954305,0 2,0 L14,0 Z M14,1 L2,1 C1.48716416,1 1.06449284,1.38604019 1.00672773,1.88337887 L1,2 L1,12 C1,12.5128358 1.38604019,12.9355072 1.88337887,12.9932723 L2,13 L14,13 C14.5128358,13 14.9355072,12.6139598 14.9932723,12.1166211 L15,12 L15,2 C15,1.48716416 14.6139598,1.06449284 14.1166211,1.00672773 L14,1 Z" id="矩形"></path>
                </g>
            </g>
        </g>
    </g>
</svg>