<?xml version="1.0" encoding="UTF-8"?>
<svg width="20px" height="20px" viewBox="0 0 20 20" version="1.1" xmlns="http://www.w3.org/2000/svg" xmlns:xlink="http://www.w3.org/1999/xlink">
    <title>对话流</title>
    <g id="页面-1" stroke="none" stroke-width="1" fill="none" fill-rule="evenodd">
        <g id="首页-新建" transform="translate(-1168, -208)" fill="#FF7D00" fill-rule="nonzero">
            <g id="编组-44备份" transform="translate(1142, 144)">
                <g id="对话流" transform="translate(26, 64)">
                    <path d="M9.74952909,1 C14.5817606,1 18.4990582,4.91729761 18.4990582,9.74952909 C18.4990582,14.5817606 14.5817606,18.4990582 9.74952909,18.4990582 C8.71272092,18.4990582 6.15296051,18.6660388 2.07024786,19 C2.92977326,16.909361 3.10997539,15.5126127 2.61085424,14.8097552 C1.59640436,13.3812168 1,11.6350218 1,9.74952909 C1,4.91729761 4.91729761,1 9.74952909,1 Z M9.74952909,2.28571429 C5.627378,2.28571429 2.28571429,5.627378 2.28571429,9.74952909 C2.28571429,11.3195956 2.77017538,12.8135059 3.65913881,14.0653355 C4.23534696,14.8767462 4.31331199,15.9516766 3.98186516,17.338548 L3.925,17.5612857 L4.2537547,17.536531 C6.91831745,17.3316498 8.69596314,17.2243665 9.61204132,17.2141504 L9.74952909,17.2133439 C13.8716802,17.2133439 17.2133439,13.8716802 17.2133439,9.74952909 C17.2133439,5.627378 13.8716802,2.28571429 9.74952909,2.28571429 Z M10.1285714,11.2857143 C10.4836116,11.2857143 10.7714286,11.5735312 10.7714286,11.9285714 C10.7714286,12.2836116 10.4836116,12.5714286 10.1285714,12.5714286 L6.27142857,12.5714286 C5.91638838,12.5714286 5.62857143,12.2836116 5.62857143,11.9285714 C5.62857143,11.5735312 5.91638838,11.2857143 6.27142857,11.2857143 L10.1285714,11.2857143 Z M13.3428571,7.42857143 C13.6978973,7.42857143 13.9857143,7.71638838 13.9857143,8.07142857 C13.9857143,8.42646877 13.6978973,8.71428571 13.3428571,8.71428571 L6.27142857,8.71428571 C5.91638838,8.71428571 5.62857143,8.42646877 5.62857143,8.07142857 C5.62857143,7.71638838 5.91638838,7.42857143 6.27142857,7.42857143 L13.3428571,7.42857143 Z" id="形状结合"></path>
                </g>
            </g>
        </g>
    </g>
</svg>