<?xml version="1.0" encoding="UTF-8"?>
<svg width="16px" height="16px" viewBox="0 0 16 16" version="1.1" xmlns="http://www.w3.org/2000/svg" xmlns:xlink="http://www.w3.org/1999/xlink">
    <title>删除</title>
    <g id="页面-1" stroke="none" stroke-width="1" fill="none" fill-rule="evenodd">
        <g id="首页" transform="translate(-850, -302)">
            <g id="编组-8" transform="translate(623, 207)">
                <g id="编组-10" transform="translate(163, 89)">
                    <g id="删除" transform="translate(64, 6)">
                        <rect id="矩形" fill="#359999" fill-rule="nonzero" opacity="0" x="0" y="0" width="16" height="16"></rect>
                        <path d="M10.7622157,13.500379 L5.0553413,13.500379 C4.61246632,13.4948505 4.25771493,13.1369459 4.26235875,12.7003478 L4.26235875,4.46225153 L11.5551982,4.46225153 L11.5551982,12.7003478 C11.559842,13.1369459 11.2050907,13.4948505 10.7622157,13.500379 Z M5.84739529,2.58375531 C5.84739529,2.4913032 5.91796517,2.41898917 6.00989171,2.41898917 L9.81787932,2.41898917 C9.90980587,2.41898917 9.98037574,2.4913032 9.98037574,2.58375531 L9.98037574,3.50843864 L5.84739529,3.50843864 L5.84739529,2.58375531 Z M10.9247121,3.50843864 L10.9247121,2.58375531 C10.9247121,1.96771301 10.4279373,1.46517627 9.81787932,1.46517627 L6.00989171,1.46517627 C5.39983372,1.46517627 4.90305894,1.96862838 4.90305894,2.58375531 L4.90305894,3.50843864 L1.88619678,3.50843864 C1.75813521,3.50988689 1.6359033,3.56143012 1.54639501,3.6517276 C1.45688671,3.74202507 1.40743541,3.86367876 1.40888901,3.98992192 C1.40888901,4.25720922 1.62248829,4.47232057 1.88619678,4.47232057 L3.30780834,4.47232057 L3.30780834,12.7003478 C3.30780834,13.6752142 4.08964827,14.4651763 5.0553413,14.4651763 L10.7622157,14.4651763 C11.7279087,14.4651763 12.5097486,13.6752142 12.5097486,12.7003478 L12.5097486,4.46225153 L13.9304316,4.46225153 C14.0588179,4.46104607 14.1814306,4.409483 14.271166,4.31896038 C14.3609015,4.22843776 14.4103696,4.10641053 14.4087214,3.97985288 C14.409885,3.8546115 14.3600323,3.73412791 14.2702808,3.64547857 C14.1805293,3.55682923 14.0584076,3.50745025 13.9313602,3.50843864 L10.9247121,3.50843864 Z M8.24891215,11.4575636 C8.33844718,11.3670674 8.38778831,11.2451781 8.38605369,11.1187774 L8.38605369,6.79000467 C8.38778831,6.66360398 8.33844718,6.54171464 8.24891215,6.45121847 C8.15937712,6.3607223 8.03700298,6.30905305 7.90877849,6.30760602 C7.78055399,6.30905305 7.65817985,6.3607223 7.56864482,6.45121847 C7.47910979,6.54171464 7.42976866,6.66360398 7.43150328,6.79000467 L7.43150328,11.1187774 C7.43150328,11.3860647 7.64507001,11.6011761 7.90877849,11.6011761 C8.03700298,11.599729 8.15937712,11.5480598 8.24891215,11.4575636 Z M6.02503253,11.4575636 C6.11456756,11.3670674 6.16390869,11.2451781 6.16217408,11.1187774 L6.16217408,6.79000467 C6.16390869,6.66360398 6.11456756,6.54171464 6.02503253,6.45121847 C5.9354975,6.3607223 5.81312336,6.30905305 5.68489887,6.30760602 C5.55667437,6.30905305 5.43430023,6.3607223 5.3447652,6.45121847 C5.25523017,6.54171464 5.20588905,6.66360398 5.20762366,6.79000467 L5.20762366,11.1187774 C5.21690917,11.3860647 5.4304759,11.6011761 5.68489887,11.6011761 C5.81312336,11.599729 5.9354975,11.5480598 6.02503253,11.4575636 Z M10.4727918,11.4575636 C10.5623268,11.3670674 10.6116679,11.2451781 10.6099333,11.1187774 L10.6099333,6.79000467 C10.6116679,6.66360398 10.5623268,6.54171464 10.4727918,6.45121847 C10.3832567,6.3607223 10.2608826,6.30905305 10.1326581,6.30760602 C10.0044336,6.30905305 9.88205947,6.3607223 9.79252444,6.45121847 C9.70298941,6.54171464 9.65364828,6.66360398 9.6553829,6.79000467 L9.6553829,11.1187774 C9.6553829,11.3860647 9.86894962,11.6011761 10.1326581,11.6011761 C10.2608826,11.599729 10.3832567,11.5480598 10.4727918,11.4575636 Z" id="形状" fill="#5A5E66"></path>
                    </g>
                </g>
            </g>
        </g>
    </g>
</svg>