<?xml version="1.0" encoding="UTF-8"?>
<svg width="16px" height="16px" viewBox="0 0 16 16" version="1.1" xmlns="http://www.w3.org/2000/svg" xmlns:xlink="http://www.w3.org/1999/xlink">
    <title>编辑</title>
    <g id="页面-1" stroke="none" stroke-width="1" fill="none" fill-rule="evenodd">
        <g id="首页" transform="translate(-786, -302)">
            <g id="编组-8" transform="translate(623, 207)">
                <g id="编组-10" transform="translate(163, 89)">
                    <g id="编辑" transform="translate(0, 6)">
                        <rect id="矩形" x="0" y="0" width="16" height="16"></rect>
                        <g id="编组" transform="translate(2, 1.5226)" fill="#67686F" fill-rule="nonzero">
                            <path d="M9.58044281,0 C10.014784,0 10.4300925,0.178254463 10.7292991,0.493100342 L12.0726107,1.88516323 C12.708517,2.54273691 12.708517,3.60763794 12.0726107,4.26629493 L3.80041168,12.8353358 C3.70061135,12.9399054 3.56255042,12.9993539 3.41800122,13 L0.541797934,13 C0.23750114,12.9940706 -0.00469188787,12.7431582 6.90034497e-05,12.4388416 L6.90034497e-05,9.45971866 C6.90034497e-05,9.31130417 0.0575557984,9.16830627 0.158304162,9.06322448 L8.43158647,0.494183659 C8.73079313,0.178254463 9.14610164,0 9.58044281,0 Z M9.58044281,1.12188481 C9.43569541,1.12188481 9.29727888,1.18123566 9.19749069,1.2860887 L7.95492754,2.5730698 L10.0652266,4.75920436 L11.3077898,3.47222326 C11.5190881,3.25012057 11.5190881,2.90133759 11.3077898,2.6792349 L9.96447824,1.2860887 C9.86360673,1.18123566 9.7251902,1.12188481 9.58044281,1.12188481 Z M7.18902331,3.36714147 L1.0834558,9.6926319 L1.0834558,11.8776831 L3.19375486,11.8776831 L9.29932237,5.55219271 L7.18902331,3.36714147 Z M9.363238,9.79554706 C9.35840605,10.0998637 9.60059908,10.3507761 9.90489587,10.3567055 L12.4582711,10.3567055 C12.7625679,10.3507761 13.0047609,10.0998637 12.9999289,9.79554706 C13.0041583,9.49165034 12.7621389,9.24140186 12.4582711,9.23547195 L9.90489587,9.23547195 C9.60102805,9.24140186 9.35900862,9.49165034 9.363238,9.79554706 Z M7.34502078,11.8776831 C7.04072398,11.8836125 6.79853096,12.1345249 6.80336291,12.4388416 C6.79853096,12.7431582 7.04072398,12.9940706 7.34502078,13 L12.4517712,13 C12.756068,12.9940706 12.998261,12.7431582 12.993429,12.4388416 C12.998261,12.1345249 12.756068,11.8836125 12.4517712,11.8776831 L7.34502078,11.8776831 Z" id="形状"></path>
                        </g>
                    </g>
                </g>
            </g>
        </g>
    </g>
</svg>