<?xml version="1.0" encoding="UTF-8"?>
<svg width="20px" height="20px" viewBox="0 0 20 20" version="1.1" xmlns="http://www.w3.org/2000/svg" xmlns:xlink="http://www.w3.org/1999/xlink">
    <title>事件驱动流</title>
    <g id="页面-1" stroke="none" stroke-width="1" fill="none" fill-rule="evenodd">
        <g id="首页-新建" transform="translate(-1168, -293)" fill="#16C9CA" fill-rule="nonzero">
            <g id="编组-44备份" transform="translate(1142, 144)">
                <g id="事件驱动流" transform="translate(26, 149)">
                    <path d="M12.7450308,4.72961306 C12.7450308,5.23204513 13.1647844,5.6393468 13.6825768,5.6393468 C14.2003692,5.6393468 14.6201228,5.23204513 14.6201228,4.72961306 C14.6201228,4.22718099 14.2003692,3.81987932 13.6825768,3.81987932 C13.1647844,3.81987932 12.7450308,4.22718099 12.7450308,4.72961306 Z M4.36962708,15.2703869 C4.36962708,15.772819 4.78938074,16.1801207 5.30717311,16.1801207 C5.82496548,16.1801207 6.24471913,15.772819 6.24471913,15.2703869 C6.24471913,14.7679549 5.82496548,14.3606532 5.30717311,14.3606532 C4.78938074,14.3606532 4.36962708,14.7679549 4.36962708,15.2703869 Z M5.32591663,7.45882562 C6.51567435,7.46214613 7.57586529,6.73081095 7.96353474,5.63934681 L10.9137058,5.63934681 C11.4314981,5.6393468 11.8512518,5.23204513 11.8512518,4.72961307 C11.8512518,4.227181 11.4314981,3.81987934 10.9137058,3.81987933 L7.97603042,3.81987933 C7.49917309,2.5111347 6.08587593,1.75820229 4.69192536,2.07027617 C3.29797478,2.38235005 2.36749981,3.65999984 2.52976326,5.03917489 C2.6920267,6.41834994 3.89532951,7.45962889 5.32590052,7.45882562 L5.32591663,7.45882562 Z M4.85715167,3.94117613 C5.29869185,3.70985492 5.84965513,3.8568803 6.1072023,4.27475401 C6.34559824,4.70319192 6.19408545,5.23780969 5.7634424,5.48772191 C5.32190633,5.71904583 4.77094427,5.57202767 4.51339176,5.15415964 C4.27499583,4.72572173 4.42650863,4.19110397 4.85715167,3.94119175 L4.85715167,3.94117613 Z M19.6391011,7.48914238 C19.1099356,6.59731084 18.1069321,6.07209951 17.0482131,6.13245354 C15.9894941,6.19280757 15.0567702,6.82836825 14.6388663,7.77418906 L10.6699274,7.77418906 L8.16981,10.2001405 L5.39467504,10.2001405 C5.3566682,10.1027314 5.31284293,10.0075544 5.26342215,9.91509381 C4.5950408,8.78593405 3.1989665,8.27052793 1.92610444,8.68301469 C0.653242375,9.09550145 -0.143472915,10.3215083 0.0215553407,11.6137859 C0.186583597,12.9060634 1.26759697,13.9062938 2.60571943,14.004838 C3.94384188,14.1033822 5.16804374,13.2729162 5.53217579,12.019608 L8.94484784,12.019608 L11.4449652,9.59365654 L14.5013656,9.59365654 C14.8058593,10.5978325 15.6765819,11.3437724 16.7412144,11.512514 C17.805847,11.6812556 18.8759253,11.2429279 19.4938866,10.3849588 C20.1118478,9.5269896 20.1682988,8.40125903 19.6391011,7.48912676 L19.6391011,7.48914238 Z M3.73208998,11.5162177 C3.66808272,11.7495076 3.51053689,11.9482471 3.29458031,12.0681235 C2.85304424,12.2994475 2.30208218,12.1524293 2.04452967,11.7345613 C1.80613373,11.3061234 1.95764653,10.7715056 2.38828958,10.5215934 C2.82982565,10.2902695 3.38078771,10.4372876 3.63834021,10.8551556 C3.75536071,11.0558345 3.78889944,11.2923277 3.73208998,11.5162177 L3.73208998,11.5162177 Z M17.6702754,9.64218775 C17.2287393,9.87351167 16.6777772,9.72649351 16.4202247,9.30862549 C16.1818183,8.88018389 16.3333323,8.34555491 16.7639846,8.09564197 C17.2055207,7.86431805 17.7564827,8.01133621 18.0140353,8.42920422 C18.2524417,8.85764582 18.1009277,9.3922748 17.6702754,9.64218775 L17.6702754,9.64218775 Z M14.7013769,12.5411687 C13.5099261,12.5371057 12.4475146,13.2682364 12.0574949,14.3606532 C11.9951467,14.3545726 11.9323274,14.3545726 11.8699792,14.3606532 L8.13855471,14.3606532 C7.62076233,14.3606532 7.20100867,14.7679549 7.20100867,15.2703869 C7.20100867,15.772819 7.62076233,16.1801207 8.13855471,16.1801207 L12.0637427,16.1801207 C12.5406,17.4888653 13.9538972,18.2417977 15.3478478,17.9297238 C16.7417983,17.6176499 17.6722733,16.3400002 17.5100099,14.9608251 C17.3477464,13.5816501 16.1444436,12.5403711 14.7138726,12.5411687 L14.7013769,12.5411687 Z M15.1701419,16.0588239 C14.7286017,16.2901451 14.1776384,16.1431197 13.9200912,15.725246 C13.6816953,15.2968081 13.8332081,14.7621903 14.2638511,14.5122781 C14.7053872,14.2809542 15.2563493,14.4279723 15.5139018,14.8458404 C15.7522977,15.2742783 15.6007849,15.808896 15.1701419,16.0588082 L15.1701419,16.0588239 Z" id="形状"></path>
                </g>
            </g>
        </g>
    </g>
</svg>