<?xml version="1.0" encoding="UTF-8"?>
<svg width="36px" height="36px" viewBox="0 0 36 36" version="1.1" xmlns="http://www.w3.org/2000/svg" xmlns:xlink="http://www.w3.org/1999/xlink">
    <title>占位图标6</title>
    <g id="页面-1" stroke="none" stroke-width="1" fill="none" fill-rule="evenodd">
        <g id="首页-新建" transform="translate(-962, -372)" fill-rule="nonzero">
            <g id="编组-8" transform="translate(944, 354)">
                <g id="占位图标6" transform="translate(18, 18)">
                    <path d="M28.6530612,36 L7.34693878,36 C3.30612244,36 0,32.6938776 0,28.6530612 L0,7.34693878 C0,3.30612244 3.30612244,0 7.34693878,0 L28.6530612,0 C32.6938776,0 36,3.30612244 36,7.34693878 L36,28.6530612 C36,32.6938776 32.6938776,36 28.6530612,36 Z" id="路径" fill="#A971E4"></path>
                    <path d="M26.8163265,28.6530612 C25.7877551,28.6530612 24.9795918,27.844898 24.9795918,26.8163265 L24.9795918,18.7346939 C24.9795918,17.7061224 25.7877551,16.8979592 26.8163265,16.8979592 C27.844898,16.8979592 28.6530612,17.7061224 28.6530612,18.7346939 L28.6530612,26.8163265 C28.6530612,27.844898 27.844898,28.6530612 26.8163265,28.6530612 L26.8163265,28.6530612 Z" id="路径" fill="#FFFFFF" opacity="0.6"></path>
                    <path d="M24.9795918,26.8163265 L24.9795918,9.55102039 C24.9795918,8.33877548 23.9877551,7.34693878 22.7755102,7.34693878 L9.55102039,7.34693878 C8.33877548,7.34693878 7.34693878,8.33877552 7.34693878,9.55102039 L7.34693878,26.4489796 C7.34693878,27.6612245 8.33877552,28.6530612 9.55102039,28.6530612 L26.8163265,28.6530612 C25.7877551,28.6530612 24.9795918,27.844898 24.9795918,26.8163265 L24.9795918,26.8163265 Z" id="路径" fill="#FFFFFF" opacity="0.88"></path>
                    <path d="M20.9387755,26.8163265 L11.3877551,26.8163265 C10.1755102,26.8163265 9.18367348,25.8244898 9.18367348,24.6122449 L9.18367348,11.3877551 C9.18367348,10.1755102 10.1755102,9.18367348 11.3877551,9.18367348 L20.9387755,9.18367348 C22.1510204,9.18367348 23.1428571,10.1755102 23.1428571,11.3877551 L23.1428571,24.6122449 C23.1428571,25.8244898 22.1510204,26.8163265 20.9387755,26.8163265 L20.9387755,26.8163265 Z" id="路径" fill="#FFFFFF"></path>
                    <path d="M19.4693877,15.7959184 L12.8571429,15.7959184 C12.2326531,15.7959184 11.755102,15.3183673 11.755102,14.6938776 C11.755102,14.0693878 12.232653,13.5918367 12.8571429,13.5918367 L19.4693877,13.5918367 C20.0938775,13.5918367 20.5714286,14.0693877 20.5714286,14.6938776 C20.5714286,15.3183674 20.0938776,15.7959184 19.4693877,15.7959184 Z M17.2653061,19.8367347 L12.8571429,19.8367347 C12.2326531,19.8367347 11.755102,19.3591837 11.755102,18.7346939 C11.755102,18.1102041 12.232653,17.632653 12.8571429,17.632653 L17.2653061,17.632653 C17.8897959,17.632653 18.367347,18.1102041 18.367347,18.7346939 C18.367347,19.3591837 17.8897959,19.8367347 17.2653061,19.8367347 Z" id="形状" fill="#903BEA"></path>
                </g>
            </g>
        </g>
    </g>
</svg>