<?xml version="1.0" encoding="UTF-8"?>
<svg width="26px" height="26px" viewBox="0 0 26 26" version="1.1" xmlns="http://www.w3.org/2000/svg" xmlns:xlink="http://www.w3.org/1999/xlink">
    <title>发布</title>
    <g id="页面-1" stroke="none" stroke-width="1" fill="none" fill-rule="evenodd">
        <g id="首页" transform="translate(-882, -296)">
            <g id="编组-8" transform="translate(623, 207)">
                <g id="编组-10" transform="translate(163, 89)">
                    <g id="发布" transform="translate(96, 0)">
                        <rect id="矩形备份-16" fill-opacity="0.100661058" fill="#308AFF" x="0" y="0" width="26" height="26" rx="13"></rect>
                        <path d="M5.12195825,12.288 C4.94057307,12.3775164 4.8200267,12.5562543 4.80499806,12.7579667 C4.78996943,12.9596792 4.8826981,13.1543071 5.04881539,13.2697143 L7.91395825,15.2502857 C8.16081539,15.3737143 8.40652968,15.3737143 8.65338683,15.1268571 L15.436244,9.33028572 L9.51624397,15.6194286 C9.39395825,15.7428572 9.39395825,15.8662857 9.39395825,15.9897143 L9.39395825,18.7028571 C9.39395825,18.9497143 9.51738683,19.1965714 9.76310111,19.32 C10.0099583,19.4434286 10.2568154,19.32 10.380244,19.1965714 L11.7368154,17.8148571 L14.7379583,19.8171429 C14.8952078,19.9219857 15.0941249,19.9422951 15.2693179,19.8713946 C15.4445108,19.800494 15.5733147,19.647556 15.6133868,19.4628571 L18.3345297,6.81714286 C18.3808624,6.60278419 18.3004267,6.38081994 18.1275248,6.24590777 C17.9546229,6.11099559 17.7197626,6.08694015 17.5231011,6.184 L5.12195825,12.288 Z" id="路径" fill="#2A87FF" fill-rule="nonzero"></path>
                    </g>
                </g>
            </g>
        </g>
    </g>
</svg>