<?xml version="1.0" encoding="UTF-8"?>
<svg width="20px" height="20px" viewBox="0 0 20 20" version="1.1" xmlns="http://www.w3.org/2000/svg" xmlns:xlink="http://www.w3.org/1999/xlink">
    <title>智能规则流</title>
    <g id="页面-1" stroke="none" stroke-width="1" fill="none" fill-rule="evenodd">
        <g id="首页-新建" transform="translate(-1168, -251)" fill="#A971E4" fill-rule="nonzero">
            <g id="智能规则流" transform="translate(1168, 251)">
                <path d="M10.2199471,4.93709608 L12.1369078,4.94743645 C12.5432201,4.94743645 12.8661863,5.2783283 12.8661863,5.67126238 L12.8453498,12.5786299 L14.8560749,12.5786299 L14.8560749,12.051271 C14.8560749,11.9271866 14.8873296,11.8031021 14.9498392,11.689358 C15.1582045,11.3377854 15.6061899,11.2240414 15.9499926,11.4205084 L19.9193515,13.6953899 L19.8672602,13.7470918 C19.8776784,13.7677725 19.8880967,13.7781129 19.898515,13.7987936 C20.1068803,14.1400259 19.9818611,14.5846618 19.6380584,14.7914692 L15.9499926,16.9112451 C15.8353917,16.9732874 15.7103726,17.0043085 15.5853534,17.0043085 C15.3874064,17.0043085 15.1998776,16.9215855 15.0644402,16.7871607 C14.9290027,16.6527359 14.8560749,16.4769496 14.8560749,16.2804825 L14.8560749,15.8668677 L12.8349315,15.8668677 L12.8349315,17.0560103 C12.8349315,17.4592848 12.5119653,17.7798363 12.105653,17.7798363 L6.34435258,17.7591555 C6.02138638,18.4209392 5.38587224,18.8862559 4.64617545,18.9793193 C4.55241106,18.9896596 4.44822842,19 4.35446403,19 C3.86480559,19 3.39598369,18.8448944 3.01050789,18.5450237 C2.54168597,18.1831107 2.23955629,17.6660922 2.16662843,17.0870314 C2.09370059,16.5079707 2.23955631,15.9289099 2.60419556,15.4635933 C2.96883482,14.9982766 3.48974805,14.6984059 4.07317088,14.6260233 C5.20876173,14.4812581 6.26100648,15.2257647 6.51104482,16.3115037 L11.3763744,16.3321844 L11.4076292,6.38474795 L10.2199471,6.38474795 C9.81363473,6.38474795 9.49066853,6.06419646 9.49066853,5.66092201 C9.49066853,5.25764756 9.81363473,4.93709608 10.2199471,4.93709608 Z M4.36488229,16.0736751 C4.14609874,16.0736751 3.92731516,16.1770788 3.78145946,16.3632055 C3.65644029,16.5183111 3.61476726,16.7044377 3.63560377,16.9009048 C3.65644027,17.0973718 3.76062292,17.2731581 3.9168969,17.3869022 C4.23986312,17.6350711 4.69826678,17.5730289 4.94830512,17.2524774 C5.0733243,17.0870314 5.12541561,16.9009048 5.09416082,16.7147781 C5.0733243,16.5183111 4.96914165,16.3425248 4.81286767,16.2287807 C4.67743023,16.125377 4.52115627,16.0736751 4.36488229,16.0736751 Z M15.3769881,1.01809564 C15.9604109,0.945713062 16.5438338,1.09047826 17.0126557,1.45239122 C17.4814776,1.81430418 17.7836072,2.3313227 17.8565351,2.91038345 C18.012809,4.10986644 17.1585113,5.21628607 15.9499926,5.37139163 C15.3665698,5.44377423 14.783147,5.29900906 14.3143251,4.93709608 C13.8975945,4.6165446 13.6163013,4.18224904 13.5017004,3.68591125 L8.63637083,3.67557088 L8.60511602,13.6230073 L9.7927982,13.6230073 C10.1991105,13.6230073 10.5220767,13.9435588 10.5220767,14.3468333 C10.5220767,14.7501077 10.1991105,15.0706592 9.7927982,15.0706592 L7.87583749,15.0706592 C7.46952517,15.0706592 7.14655897,14.7397673 7.14655897,14.3468333 L7.16739549,7.47048686 L5.15667042,7.47048686 L5.15667042,7.88410168 C5.1566704,8.28737613 4.82328593,8.60792761 4.42739187,8.60792761 C4.3023727,8.60792761 4.16693526,8.57690651 4.06275262,8.51486427 L0.36426865,6.4054287 C0.24966774,6.3330461 0.155903356,6.25032314 0.0933937602,6.13657906 C-0.000370623863,5.97113313 -0.0212071491,5.77466609 0.0204659014,5.58853941 C0.072557235,5.39207237 0.197576407,5.23696682 0.36426865,5.14390349 L4.05233435,3.01378716 C4.16693526,2.95174493 4.29195444,2.92072382 4.41697361,2.92072382 C4.82328595,2.92072382 5.14625215,3.24127531 5.14625215,3.64454976 L5.14625215,4.17190867 L7.18823204,4.17190867 L7.18823204,2.94140456 C7.18823204,2.53813011 7.51119824,2.21757863 7.91751056,2.21757863 L13.6788109,2.23825936 C14.0017772,1.57647566 14.6372913,1.11115898 15.3769881,1.01809564 Z M16.3042137,13.3024558 C16.3042137,13.7057303 15.9708292,14.0262818 15.5749351,14.0262818 L12.8349315,14.0262818 L12.8349315,14.4192159 L15.5853534,14.4192159 C15.9499927,14.4192159 16.2521223,14.6880655 16.3042137,15.0292977 L17.814862,14.1607066 Z M3.68769508,4.91641534 L2.18746498,5.77466609 L3.69811334,6.64325722 C3.75020466,6.302025 4.05233433,6.03317536 4.41697361,6.03317536 L7.16739549,6.03317536 L7.16739549,5.64024128 L4.41697361,5.64024128 C4.01066128,5.64024128 3.68769508,5.31968979 3.68769508,4.91641534 Z M15.6610317,2.47128997 L15.5436803,2.4760879 C15.3769881,2.49676864 15.2311324,2.56915123 15.1165315,2.68289531 L15.0540219,2.76561828 C14.9290027,2.92072382 14.8769114,3.1068505 14.9081662,3.29297717 C14.9290027,3.48944421 15.0331853,3.66523051 15.1894593,3.77897459 C15.3457333,3.90305903 15.5332621,3.9444205 15.7312091,3.92373977 C15.9291561,3.90305903 16.1062666,3.79965532 16.2208675,3.64454976 C16.3458867,3.48944421 16.3875598,3.30331754 16.3667232,3.1068505 C16.3458867,2.91038345 16.2417041,2.73459715 16.0854301,2.62085308 C15.9291561,2.49676864 15.7416273,2.45540716 15.5436803,2.4760879 Z" id="形状结合"></path>
            </g>
        </g>
    </g>
</svg>