<?xml version="1.0" encoding="UTF-8"?>
<svg width="22px" height="22px" viewBox="0 0 22 22" version="1.1" xmlns="http://www.w3.org/2000/svg" xmlns:xlink="http://www.w3.org/1999/xlink">
    <title>智能流程编排</title>
    <defs>
        <linearGradient x1="100%" y1="4.25330817%" x2="0%" y2="95.7466918%" id="linearGradient-1">
            <stop stop-color="#32C5FF" offset="0%"></stop>
            <stop stop-color="#B620E0" offset="51.2583893%"></stop>
            <stop stop-color="#F7B500" offset="100%"></stop>
        </linearGradient>
    </defs>
    <g id="页面-1" stroke="none" stroke-width="1" fill="none" fill-rule="evenodd">
        <g id="首页-新建" transform="translate(-30, -114)" fill="url(#linearGradient-1)">
            <path d="M48.173913,123.565217 L47.2173913,123.565217 C46.688913,123.565217 46.2608696,123.137174 46.2608696,122.608696 C46.2608696,122.080217 46.688913,121.652174 47.2173913,121.652174 L48.173913,121.652174 C49.2303913,121.652174 50.0869565,120.795609 50.0869565,119.73913 C50.0869565,118.682652 49.2303913,117.826087 48.173913,117.826087 L47.2173913,117.826087 C46.688913,117.826087 46.2608696,117.397565 46.2608696,116.869565 C46.2608696,116.341087 46.688913,115.913043 47.2173913,115.913043 L48.173913,115.913043 C50.2868695,115.913043 52,117.626174 52,119.73913 C52,121.852087 50.2868695,123.565217 48.173913,123.565217 Z M44.8260869,135.043478 L37.173913,135.043478 C36.6454348,135.043478 36.2173913,134.614957 36.2173913,134.086957 L36.2173913,130.26087 C36.2173913,129.732391 36.6454348,129.304348 37.173913,129.304348 L44.8260869,129.304348 C45.3545652,129.304348 45.7826087,129.732391 45.7826087,130.26087 L45.7826087,134.086957 C45.7826087,134.614957 45.3545652,135.043478 44.8260869,135.043478 Z M44.8260869,127.391304 L37.173913,127.391304 C36.6454348,127.391304 36.2173913,126.962783 36.2173913,126.434783 L36.2173913,122.608696 C36.2173913,122.080217 36.6454348,121.652174 37.173913,121.652174 L44.8260869,121.652174 C45.3545652,121.652174 45.7826087,122.080217 45.7826087,122.608696 L45.7826087,126.434783 C45.7826087,126.962783 45.3545652,127.391304 44.8260869,127.391304 Z M44.8260869,119.73913 L37.173913,119.73913 C36.6454348,119.73913 36.2173913,119.310609 36.2173913,118.782609 L36.2173913,114.956522 C36.2173913,114.428043 36.6454348,114 37.173913,114 L44.8260869,114 C45.3545652,114 45.7826087,114.428043 45.7826087,114.956522 L45.7826087,118.782609 C45.7826087,119.310609 45.3545652,119.73913 44.8260869,119.73913 Z M33.826087,130.26087 L34.7826087,130.26087 C35.3110869,130.26087 35.7391304,130.688913 35.7391304,131.217391 C35.7391304,131.745391 35.3110869,132.173913 34.7826087,132.173913 L33.826087,132.173913 C31.7131304,132.173913 30,130.460783 30,128.347826 C30,126.23487 31.7131304,124.521739 33.826087,124.521739 L34.7826087,124.521739 C35.3110869,124.521739 35.7391304,124.949783 35.7391304,125.478261 C35.7391304,126.006739 35.3110869,126.434783 34.7826087,126.434783 L33.826087,126.434783 C32.7696087,126.434783 31.9130435,127.291348 31.9130435,128.347826 C31.9130435,129.404304 32.7696087,130.26087 33.826087,130.26087 Z" id="智能流程编排"></path>
        </g>
    </g>
</svg>