<?xml version="1.0" encoding="UTF-8"?>
<svg width="20px" height="20px" viewBox="0 0 20 20" version="1.1" xmlns="http://www.w3.org/2000/svg" xmlns:xlink="http://www.w3.org/1999/xlink">
    <title>工作流</title>
    <g id="页面-1" stroke="none" stroke-width="1" fill="none" fill-rule="evenodd">
        <g id="首页-新建" transform="translate(-1168, -164)" fill="#2A87FF" fill-rule="nonzero">
            <g id="编组-44备份" transform="translate(1142, 144)">
                <g id="工作流" transform="translate(26, 20)">
                    <g id="编组" transform="translate(3.5714, 1)">
                        <path d="M11.25,0 C12.7411688,0 13.95,1.20883117 13.95,2.7 C13.95,3.8815395 13.1910581,4.88581863 12.1340743,5.25193742 C12.0257739,6.40204288 11.2945589,7.27075294 10.4676,7.91639999 C9.5712,8.61719999 8.41079999,9.17519998 7.34279999,9.65280001 L6.55559999,10.0008 C5.76,10.3488 5.05079999,10.6608 4.482,10.9848 C4.11119999,11.1948 3.86519999,11.3772 3.72119999,11.5308 C3.62519999,11.6316 3.60359999,11.6868 3.6,11.7024 L3.60115049,12.7540421 C4.64922261,13.1250195 5.4,14.124833 5.4,15.3 C5.4,16.7911688 4.19116882,18 2.7,18 C1.20883117,18 0,16.7911688 0,15.3 C0,14.124833 0.750777388,13.1250195 1.7988495,12.7540421 L1.7988495,5.24595792 C0.750777388,4.87498051 0,3.87516698 0,2.7 C0,1.20883117 1.20883117,0 2.7,0 C4.19116882,0 5.4,1.20883117 5.4,2.7 C5.4,3.87516698 4.64922261,4.87498051 3.60115049,5.24595792 L3.6,9.41400001 C4.2576,9.04080002 5.088,8.6772 5.9004,8.32200001 L6.60839999,8.01000001 C7.67639999,7.5312 8.6544,7.05000001 9.35999999,6.49800001 C9.93203156,6.05049232 10.2272344,5.63847549 10.3184988,5.233177 C9.28552872,4.85455137 8.54999999,3.86317166 8.54999999,2.7 C8.54999999,1.20883117 9.75883116,0 11.25,0 Z M2.7,14.4 C2.37842815,14.3999508 2.08126245,14.571479 1.92046231,14.8499602 C1.75966217,15.1284414 1.75966217,15.4715586 1.92046231,15.7500398 C2.08126245,16.028521 2.37842815,16.2000492 2.7,16.2 C3.19700246,16.1999239 3.59986222,15.7970025 3.59986222,15.3 C3.59986222,14.8029975 3.19700246,14.4000761 2.7,14.4 Z M2.7,1.8 C2.37842815,1.79995078 2.08126245,1.97147904 1.92046231,2.24996023 C1.75966217,2.52844142 1.75966217,2.8715586 1.92046231,3.15003979 C2.08126245,3.42852097 2.37842815,3.60004923 2.7,3.60000001 C3.19700246,3.59992392 3.59986222,3.19700248 3.59986222,2.70000001 C3.59986222,2.20299754 3.19700246,1.8000761 2.7,1.8 Z M11.25,1.8 C10.9284281,1.79995078 10.6312624,1.97147904 10.4704623,2.24996023 C10.3096622,2.52844142 10.3096622,2.8715586 10.4704623,3.15003979 C10.6312624,3.42852097 10.9284281,3.60004923 11.25,3.60000001 C11.7470024,3.59992392 12.1498622,3.19700248 12.1498622,2.70000001 C12.1498622,2.20299754 11.7470024,1.8000761 11.25,1.8 Z" id="形状结合"></path>
                    </g>
                </g>
            </g>
        </g>
    </g>
</svg>