<?xml version="1.0" encoding="UTF-8"?>
<svg width="13px" height="13px" viewBox="0 0 13 13" version="1.1" xmlns="http://www.w3.org/2000/svg" xmlns:xlink="http://www.w3.org/1999/xlink">
    <title>形状结合</title>
    <g id="页面-1" stroke="none" stroke-width="1" fill="none" fill-rule="evenodd">
        <g id="流程设计器" transform="translate(-948, -761)" fill="#FFFFFF">
            <g id="编组-14" transform="translate(608, 744)">
                <g id="新增会议室" transform="translate(326, 7)">
                    <path d="M20.1,10 C20.3982338,10 20.6456468,10.2175896 20.692147,10.5026769 L20.7,10.6 L20.7,15.5 L25.6,15.5 C25.9313708,15.5 26.2,15.7686292 26.2,16.1 C26.2,16.3982338 25.9824104,16.6456468 25.6973231,16.692147 L25.6,16.7 L20.7,16.7 L20.7,21.6 C20.7,21.9313708 20.4313708,22.2 20.1,22.2 C19.8017662,22.2 19.5543532,21.9824104 19.507853,21.6973231 L19.5,21.6 L19.5,16.7 L14.6,16.7 C14.2686292,16.7 14,16.4313708 14,16.1 C14,15.8017662 14.2175896,15.5543532 14.5026769,15.507853 L14.6,15.5 L19.5,15.5 L19.5,10.6 C19.5,10.2686292 19.7686292,10 20.1,10 Z" id="形状结合"></path>
                </g>
            </g>
        </g>
    </g>
</svg>