<svg xmlns="http://www.w3.org/2000/svg" viewBox="0 0 24 24" fill="none" stroke="currentColor" stroke-width="1.5" stroke-linecap="round" stroke-linejoin="round">
  <path d="M12 2a8 8 0 0 0-8 8v2l-1.5 3a1 1 0 0 0 .9 1.5H7a5 5 0 0 0 10 0h3.6a1 1 0 0 0 .9-1.5L20 12v-2a8 8 0 0 0-8-8z"/>
  <circle cx="9" cy="10" r="1" fill="currentColor" stroke="none"/>
  <circle cx="12" cy="8" r="1" fill="currentColor" stroke="none"/>
  <circle cx="15" cy="10" r="1" fill="currentColor" stroke="none"/>
  <path d="M10 17v2a2 2 0 0 0 2 2h0a2 2 0 0 0 2-2v-2"/>
</svg>
