<?xml version="1.0" standalone="no"?><!DOCTYPE svg PUBLIC "-//W3C//DTD SVG 1.1//EN" "http://www.w3.org/Graphics/SVG/1.1/DTD/svg11.dtd"><svg t="1777443954520" class="icon" viewBox="0 0 1024 1024" version="1.1" xmlns="http://www.w3.org/2000/svg" p-id="7235" width="64" height="64" xmlns:xlink="http://www.w3.org/1999/xlink"><path d="M523.377778 56.888889c255.943111 0 466.488889 198.940444 466.488889 448 0 244.337778-202.695111 440.490667-452.039111 447.772444l-14.449778 0.227556c-22.641778 0-45.226667-1.536-67.584-4.664889l-45.056-7.566222-8.817778 4.323555a1351.68 1351.68 0 0 0-14.506667 7.623111 318.691556 318.691556 0 0 1-130.275555 36.693334l-15.189334 0.568889a311.580444 311.580444 0 0 1-60.757333-5.233778l-65.877333-12.231111 42.268444-52.053334c16.384-20.195556 28.444444-43.918222 35.214222-69.518222l2.901334-12.913778c1.024-5.404444-1.024-14.791111-11.377778-25.372444C105.585778 732.558222 56.888889 624.298667 56.888889 504.888889 56.888889 255.829333 267.434667 56.888889 523.377778 56.888889zM423.367111 861.980444l15.246222 2.56 9.557334 1.706667c24.803556 4.721778 49.948444 7.054222 75.150222 6.997333 215.324444 0 386.901333-166.570667 386.901333-368.355555C910.222222 303.104 738.702222 136.533333 523.377778 136.533333c-215.324444 0-386.844444 166.570667-386.844445 368.355556 0 91.477333 34.986667 175.274667 93.297778 239.900444l11.264 11.946667c21.276444 21.617778 40.391111 56.092444 32.881778 95.914667-3.754667 19.683556-9.614222 38.741333-17.464889 56.888889 27.875556-2.218667 55.352889-9.272889 80.896-21.048889l13.312-6.542223 16.554667-8.704a274.204444 274.204444 0 0 1 6.997333-3.470222c6.257778-3.015111 14.791111-6.712889 24.348444-8.192a70.542222 70.542222 0 0 1 13.312-0.682666l6.030223 0.455111a136.533333 136.533333 0 0 1 5.404444 0.568889zM694.044444 466.488889a56.888889 56.888889 0 0 1 6.656 113.379555l-6.656 0.398223a56.888889 56.888889 0 1 1-6.997333-113.379556L694.044444 466.488889z m-170.496 0a56.888889 56.888889 0 0 1 6.656 113.379555l-6.656 0.398223a56.888889 56.888889 0 1 1-6.997333-113.379556l6.997333-0.398222z m-170.439111 0a56.888889 56.888889 0 0 1 6.599111 113.379555l-6.599111 0.398223a56.888889 56.888889 0 1 1-6.997333-113.379556l6.997333-0.398222z" p-id="7236"></path></svg>