<?xml version="1.0" encoding="UTF-8"?>
<svg width="20px" height="20px" viewBox="0 0 20 20" version="1.1" xmlns="http://www.w3.org/2000/svg" xmlns:xlink="http://www.w3.org/1999/xlink">
    <title>注释</title>
    <g id="页面-1" stroke="none" stroke-width="1" fill="none" fill-rule="evenodd">
        <g id="流程设计器" transform="translate(-791, -757)">
            <g id="编组-14" transform="translate(608, 744)">
                <g id="注释" transform="translate(183, 13)">
                    <rect id="矩形" x="0" y="0" width="20" height="20"></rect>
                    <path d="M10,1 C14.9757143,1 19,5.02428571 19,10 C19,14.9757143 14.9757143,19 10,19 C5.02428571,19 1,14.9757143 1,10 C1,5.02428571 5.02428571,1 10,1 Z M10,2.5 C5.85271284,2.5 2.5,5.85271284 2.5,10 C2.5,14.1472872 5.85271284,17.5 10,17.5 C14.1472872,17.5 17.5,14.1472872 17.5,10 C17.5,5.85271284 14.1472872,2.5 10,2.5 Z M10,8.71428571 C10.7071429,8.71428571 11.2857143,9.29285714 11.2857143,10 L11.2857143,13.8571429 C11.2857143,14.5642857 10.7071429,15.1428571 10,15.1428571 C9.29285714,15.1428571 8.71428571,14.5642857 8.71428571,13.8571429 L8.71428571,10 C8.71428571,9.29285714 9.29285714,8.71428571 10,8.71428571 Z M10,4.85714286 C10.7071429,4.85714286 11.2857143,5.43571429 11.2857143,6.14285714 C11.2857143,6.85 10.7071429,7.42857143 10,7.42857143 C9.29285714,7.42857143 8.71428571,6.85 8.71428571,6.14285714 C8.71428571,5.43571429 9.29285714,4.85714286 10,4.85714286 Z" id="形状结合" fill="#2D2F33" fill-rule="nonzero"></path>
                </g>
            </g>
        </g>
    </g>
</svg>