<?xml version="1.0" encoding="UTF-8"?>
<svg width="20px" height="20px" viewBox="0 0 20 20" version="1.1" xmlns="http://www.w3.org/2000/svg" xmlns:xlink="http://www.w3.org/1999/xlink">
    <title>优化布局</title>
    <g id="页面-1" stroke="none" stroke-width="1" fill="none" fill-rule="evenodd">
        <g id="流程设计器" transform="translate(-837, -757)">
            <g id="编组-14" transform="translate(608, 744)">
                <g id="优化布局" transform="translate(229, 13)">
                    <rect id="矩形" x="0" y="0" width="20" height="20"></rect>
                    <path d="M17,2 C18.1045695,2 19,2.8954305 19,4 L19,16 C19,17.1045695 18.1045695,18 17,18 L3,18 C1.8954305,18 1,17.1045695 1,16 L1,4 C1,2.8954305 1.8954305,2 3,2 L17,2 Z M9,13.5 L2.5,13.5 L2.5,16 C2.5,16.2761424 2.72385763,16.5 3,16.5 L9,16.5 L9,13.5 Z M17.5,7.5 L10.5,7.5 L10.5,16.5 L17,16.5 C17.2761424,16.5 17.5,16.2761424 17.5,16 L17.5,7.5 Z M9,3.5 L3,3.5 C2.72385763,3.5 2.5,3.72385763 2.5,4 L2.5,12 L9,12 L9,3.5 Z M17,3.5 L10.5,3.5 L10.5,6 L17.5,6 L17.5,4 C17.5,3.72385763 17.2761424,3.5 17,3.5 Z" id="形状结合" fill="#2D2F33" fill-rule="nonzero"></path>
                </g>
            </g>
        </g>
    </g>
</svg>