<?xml version="1.0" encoding="UTF-8"?>
<svg width="20px" height="20px" viewBox="0 0 20 20" version="1.1" xmlns="http://www.w3.org/2000/svg" xmlns:xlink="http://www.w3.org/1999/xlink">
    <title>鼠标友好</title>
    <g id="页面-1" stroke="none" stroke-width="1" fill="none" fill-rule="evenodd">
        <g id="流程设计器" transform="translate(-628, -757)">
            <g id="编组-14" transform="translate(608, 744)">
                <g id="鼠标友好" transform="translate(20, 13)">
                    <rect id="矩形" x="0" y="0" width="20" height="20"></rect>
                    <path d="M15,0.5 C16.6568542,0.5 18,1.84314575 18,3.5 L18,11.5 C18,15.918278 14.418278,19.5 10,19.5 C5.581722,19.5 2,15.918278 2,11.5 L2,3.5 C2,1.84314575 3.34314575,0.5 5,0.5 L15,0.5 Z M15,2 L5,2 C4.17157288,2 3.5,2.67157288 3.5,3.5 L3.5,11.5 C3.5,15.0898509 6.41014913,18 10,18 C13.5898509,18 16.5,15.0898509 16.5,11.5 L16.5,3.5 C16.5,2.67157288 15.8284271,2 15,2 Z M10,4 C10.6903559,4 11.25,4.55964406 11.25,5.25 L11.25,9.75 C11.25,10.4403559 10.6903559,11 10,11 C9.30964406,11 8.75,10.4403559 8.75,9.75 L8.75,5.25 C8.75,4.55964406 9.30964406,4 10,4 Z" id="形状结合" fill="#2D2F33" fill-rule="nonzero"></path>
                </g>
            </g>
        </g>
    </g>
</svg>