<?xml version="1.0" encoding="UTF-8"?>
<svg width="20px" height="20px" viewBox="0 0 20 20" version="1.1" xmlns="http://www.w3.org/2000/svg" xmlns:xlink="http://www.w3.org/1999/xlink">
    <title>触控板友好模式</title>
    <g id="页面-1" stroke="none" stroke-width="1" fill="none" fill-rule="evenodd">
        <g id="流程设计器" transform="translate(-628, -757)">
            <g id="编组-14" transform="translate(608, 744)">
                <g id="触控板友好模式" transform="translate(20, 13)">
                    <rect id="矩形" x="0" y="0" width="20" height="20"></rect>
                    <path d="M18,1 C19.1045695,1 20,1.8954305 20,3 L20,17 C20,18.1045695 19.1045695,19 18,19 L2,19 C0.8954305,19 0,18.1045695 0,17 L0,3 C0,1.8954305 0.8954305,1 2,1 L18,1 Z M18,2.5 L2,2.5 C1.72385763,2.5 1.5,2.72385763 1.5,3 L1.5,17 C1.5,17.2761424 1.72385763,17.5 2,17.5 L18,17.5 C18.2761424,17.5 18.5,17.2761424 18.5,17 L18.5,3 C18.5,2.72385763 18.2761424,2.5 18,2.5 Z M15,12 C15.5522847,12 16,12.4477153 16,13 C16,13.5522847 15.5522847,14 15,14 L5,14 C4.44771525,14 4,13.5522847 4,13 C4,12.4477153 4.44771525,12 5,12 L15,12 Z" id="形状结合" fill="#2D2F33" fill-rule="nonzero"></path>
                </g>
            </g>
        </g>
    </g>
</svg>