<?xml version="1.0" encoding="UTF-8"?>
<svg width="20px" height="20px" viewBox="0 0 20 20" version="1.1" xmlns="http://www.w3.org/2000/svg" xmlns:xlink="http://www.w3.org/1999/xlink">
    <title>缩略图</title>
    <g id="页面-1" stroke="none" stroke-width="1" fill="none" fill-rule="evenodd">
        <g id="流程设计器" transform="translate(-880, -757)">
            <g id="编组-14" transform="translate(608, 744)">
                <g id="缩略图" transform="translate(272, 13)">
                    <rect id="矩形" x="0" y="0" width="20" height="20"></rect>
                    <path d="M17.970106,7.82236422 C18.4565774,8.018896 18.6916199,8.57257946 18.4950881,9.05905085 L15.0912153,17.4845924 C14.9735146,17.7759348 14.7193684,17.9902305 14.4123308,18.0570268 C13.8996522,18.1685606 13.393628,17.8433685 13.2820942,17.3306899 L12.5827776,14.1172976 L9.81758152,13.4943951 C9.5812507,13.4411474 9.37575995,13.3000745 9.24109816,13.1022552 L9.17985481,12.9987606 C8.94174647,12.5312314 9.12772883,11.9591991 9.59525804,11.7210908 L17.1831204,7.85666205 C17.4281255,7.73188323 17.7151745,7.71937327 17.970106,7.82236422 Z M16,2 C17.1045695,2 18,2.8954305 18,4 L18.000468,7.30557152 C17.6533562,7.20963468 17.2806328,7.24589004 16.9562082,7.41111651 L16.5,7.643 L16.5,4 C16.5,3.72385763 16.2761424,3.5 16,3.5 L4,3.5 C3.72385763,3.5 3.5,3.72385763 3.5,4 L3.5,14 C3.5,14.2761424 3.72385763,14.5 4,14.5 L12.011,14.5 L12.1621888,14.5341981 L12.481,16 L4,16 C2.8954305,16 2,15.1045695 2,14 L2,4 C2,2.8954305 2.8954305,2 4,2 L16,2 Z M18,11.617 L18,14 C18,15.0247874 17.2292503,15.8695566 16.2358144,15.9862441 L18,11.617 Z M16.5527776,9.86129758 L11.6347776,12.3652976 L13.2547695,12.731225 C13.5750733,12.8033926 13.8323823,13.0347768 13.9407557,13.3387988 L13.9742465,13.4560429 L14.3677776,15.2672976 L16.5527776,9.86129758 Z" id="形状结合" fill="#000000" fill-rule="nonzero"></path>
                </g>
            </g>
        </g>
    </g>
</svg>