<?xml version="1.0" encoding="UTF-8"?>
<svg width="7px" height="60px" viewBox="0 0 7 60" version="1.1" xmlns="http://www.w3.org/2000/svg" xmlns:xlink="http://www.w3.org/1999/xlink">
    <!-- Generator: Sketch 64 (93537) - https://sketch.com -->
    <title>编组 22</title>
    <desc>Created with Sketch.</desc>
    <g id="新版" stroke="none" stroke-width="1" fill="none" fill-rule="evenodd">
        <g id="6.左树右主从" transform="translate(-455.000000, -418.000000)">
            <g id="编组-22" transform="translate(455.500000, 418.000000)">
                <path d="M3,0 C5,1.7752026 6,3.17871138 6,4.21052632 C6,12.1043276 6,53.7984153 6,55.7894737 C6,56.7133486 5,58.1168574 3,60 C1,58.1102904 0,56.7067816 0,55.7894737 C0,33.0727071 0,15.8943412 0,4.21052632 C0,3.35182164 1,1.94831287 3,0 Z" id="矩形" fill="#E9ECF3"></path>
                <path d="M3,45 C3.55228475,45 4,45.4477153 4,46 C4,46.5522847 3.55228475,47 3,47 C2.44771525,47 2,46.5522847 2,46 C2,45.4477153 2.44771525,45 3,45 Z M3,41 C3.55228475,41 4,41.4477153 4,42 C4,42.5522847 3.55228475,43 3,43 C2.44771525,43 2,42.5522847 2,42 C2,41.4477153 2.44771525,41 3,41 Z M3,37 C3.55228475,37 4,37.4477153 4,38 C4,38.5522847 3.55228475,39 3,39 C2.44771525,39 2,38.5522847 2,38 C2,37.4477153 2.44771525,37 3,37 Z M3,33 C3.55228475,33 4,33.4477153 4,34 C4,34.5522847 3.55228475,35 3,35 C2.44771525,35 2,34.5522847 2,34 C2,33.4477153 2.44771525,33 3,33 Z M3,29 C3.55228475,29 4,29.4477153 4,30 C4,30.5522847 3.55228475,31 3,31 C2.44771525,31 2,30.5522847 2,30 C2,29.4477153 2.44771525,29 3,29 Z M3,25 C3.55228475,25 4,25.4477153 4,26 C4,26.5522847 3.55228475,27 3,27 C2.44771525,27 2,26.5522847 2,26 C2,25.4477153 2.44771525,25 3,25 Z M3,21 C3.55228475,21 4,21.4477153 4,22 C4,22.5522847 3.55228475,23 3,23 C2.44771525,23 2,22.5522847 2,22 C2,21.4477153 2.44771525,21 3,21 Z M3,17 C3.55228475,17 4,17.4477153 4,18 C4,18.5522847 3.55228475,19 3,19 C2.44771525,19 2,18.5522847 2,18 C2,17.4477153 2.44771525,17 3,17 Z M3,13 C3.55228475,13 4,13.4477153 4,14 C4,14.5522847 3.55228475,15 3,15 C2.44771525,15 2,14.5522847 2,14 C2,13.4477153 2.44771525,13 3,13 Z" id="形状结合" fill="#FFFFFF"></path>
            </g>
        </g>
    </g>
</svg>