<?xml version="1.0" encoding="UTF-8"?>
<svg width="16px" height="15px" viewBox="0 0 16 15" version="1.1" xmlns="http://www.w3.org/2000/svg" xmlns:xlink="http://www.w3.org/1999/xlink">
    <title>形状 2</title>
    <defs>
        <linearGradient x1="50%" y1="100%" x2="50%" y2="0%" id="linearGradient-1">
            <stop stop-color="#F46160" offset="0%"></stop>
            <stop stop-color="#F7807F" offset="100%"></stop>
        </linearGradient>
    </defs>
    <g id="页面-1" stroke="none" stroke-width="1" fill="none" fill-rule="evenodd">
        <path d="M8.8418488,11.9579157 C8.60984464,12.1878998 8.32922083,12.3022744 8.00308151,12.3022744 C7.67690547,12.3022744 7.38952229,12.1878998 7.1562875,11.9579157 C6.91504432,11.7267695 6.79934532,11.4505743 6.79934532,11.1208324 C6.79934532,10.7983898 6.91504433,10.5130977 7.1562875,10.2837309 C7.38952229,10.0446499 7.67690547,9.92967599 8.00308151,9.92967599 C8.32922083,9.92967599 8.60923851,10.0446317 8.8418488,10.2837309 C9.08369812,10.5130977 9.19939711,10.7983898 9.19939711,11.1208324 C9.19939711,11.4505743 9.08369812,11.7267695 8.8418488,11.9579157 Z M7.14151976,4.06213996 C7.36614005,3.8242573 7.65477223,3.70138486 8.00308153,3.70138486 C8.35262147,3.70138486 8.64062915,3.81635875 8.86587394,4.06213996 C9.08369812,4.30000445 9.19939713,4.59993161 9.19939713,4.96128591 C9.19939713,5.26789505 8.73292754,7.54921528 8.57107016,9.20818395 L7.4442952,9.20818395 C7.31197329,7.54859793 6.7993637,5.2672777 6.7993637,4.96128591 C6.7993637,4.60781201 6.91568721,4.30790302 7.14151976,4.06213996 Z M15.6715249,11.8192098 L9.39387579,0.990546738 C8.62523692,-0.330182246 7.37352392,-0.330182246 6.60552791,0.990546738 L0.327860393,11.8192098 C-0.440153976,13.1393396 0.187548487,14.2222222 1.72603852,14.2222222 L14.280749,14.2222222 C15.8112491,14.2222222 16.4407699,13.1393577 15.6715249,11.8192098 Z" id="形状" fill="url(#linearGradient-1)" fill-rule="nonzero"></path>
    </g>
</svg>