<?xml version="1.0" encoding="UTF-8"?>
<svg width="18px" height="18px" viewBox="0 0 18 18" version="1.1" xmlns="http://www.w3.org/2000/svg" xmlns:xlink="http://www.w3.org/1999/xlink">
    <title>启动备份 2</title>
    <defs>
        <linearGradient x1="50%" y1="100%" x2="50%" y2="0%" id="linearGradient-1">
            <stop stop-color="#22C3AA" offset="0%"></stop>
            <stop stop-color="#31DFA2" offset="100%"></stop>
        </linearGradient>
        <path d="M8,0 C3.56666667,0 0,3.56666667 0,8 C0,12.4333333 3.56666667,16 8,16 C12.4333333,16 16,12.4333333 16,8 C16,3.56666667 12.4333333,0 8,0 Z" id="path-2"></path>
        <path d="M11.6666667,8.7 L7.06666667,11.6333333 C6.43333333,12 6,11.7333333 6,11 L6,5 C6,4.26666667 6.43333333,4 7.06666667,4.36666667 L11.7,7.3 C12.3333333,7.66666667 12.3,8.33333333 11.6666667,8.7 L11.6666667,8.7 Z" id="path-3"></path>
    </defs>
    <g id="页面-1" stroke="none" stroke-width="1" fill="none" fill-rule="evenodd">
        <g id="启动备份-2" transform="translate(1.000000, 1.000000)" fill-rule="nonzero">
            <g id="启动备份">
                <g id="路径">
                    <use fill="#FFFFFF" xlink:href="#path-2"></use>
                    <use stroke="#D5F7ED" stroke-width="1.4" fill="url(#linearGradient-1)" xlink:href="#path-2"></use>
                </g>
                <g id="路径">
                    <use fill="#FFFFFF" xlink:href="#path-3"></use>
                    <use fill="#D4F6EE" xlink:href="#path-3"></use>
                </g>
            </g>
        </g>
    </g>
</svg>