<?xml version="1.0" encoding="UTF-8"?>
<svg width="20px" height="20px" viewBox="0 0 20 20" version="1.1" xmlns="http://www.w3.org/2000/svg" xmlns:xlink="http://www.w3.org/1999/xlink">
    <title>形状结合 3</title>
    <defs>
        <linearGradient x1="50%" y1="99.3498689%" x2="50%" y2="0%" id="linearGradient-1">
            <stop stop-color="#44D964" offset="0%"></stop>
            <stop stop-color="#77EF8F" offset="100%"></stop>
        </linearGradient>
        <path d="M8,0 C3.56666667,0 0,3.56666667 0,8 C0,12.4333333 3.56666667,16 8,16 C12.4333333,16 16,12.4333333 16,8 C16,3.56666667 12.4333333,0 8,0 Z" id="path-2"></path>
    </defs>
    <g id="页面-1" stroke="none" stroke-width="1" fill="none" fill-rule="evenodd">
        <g id="形状结合-3" transform="translate(2.000000, 2.000000)" fill-rule="nonzero">
            <g id="形状结合">
                <use fill="#FFFFFF" xlink:href="#path-2"></use>
                <path stroke="#D5F7D6" stroke-width="1.4" d="M8,-0.7 C10.410625,-0.7 12.5852571,0.270307639 14.1574747,1.84252525 C15.7296924,3.41474287 16.7,5.589375 16.7,8 C16.7,10.410625 15.7296924,12.5852571 14.1574747,14.1574747 C12.5852571,15.7296924 10.410625,16.7 8,16.7 C5.589375,16.7 3.41474287,15.7296924 1.84252525,14.1574747 C0.270307639,12.5852571 -0.7,10.410625 -0.7,8 C-0.7,5.589375 0.270307639,3.41474287 1.84252525,1.84252525 C3.41474287,0.270307639 5.589375,-0.7 8,-0.7 L8,-0.7 Z" fill="url(#linearGradient-1)" fill-rule="evenodd"></path>
            </g>
            <g id="电源已启动" transform="translate(4.000000, 3.600000)" fill="#D5F7D6">
                <path d="M8,4.67128988 C8,5.20943135 7.89459085,5.73092926 7.68377254,6.22468793 C7.47295423,6.7184466 7.19001387,7.14008322 6.82940361,7.50069348 C6.46879334,7.86130374 6.04715673,8.14424411 5.55339806,8.35506241 C5.05963939,8.56588072 4.54368932,8.67128988 4,8.67128988 C3.45631068,8.67128988 2.94036061,8.56588072 2.44660194,8.35506241 C1.95284327,8.14424411 1.53120666,7.86130374 1.17059639,7.50069348 C0.80998613,7.14563107 0.52704577,6.7184466 0.316227462,6.22468793 C0.105409154,5.73092926 0,5.2149792 0,4.67128988 C0,4.03883495 0.138696255,3.44521498 0.421636616,2.88488211 C0.699029126,2.32454924 1.09292649,1.85852982 1.60332871,1.47572816 C1.75312067,1.36477115 1.91955617,1.32038835 2.10263523,1.3481276 C2.28571429,1.370319 2.42995839,1.4590846 2.53536755,1.60887656 C2.64632455,1.75312067 2.69070735,1.91955617 2.6629681,2.10263523 C2.63522885,2.28571429 2.5520111,2.42995839 2.40776699,2.5409154 C2.06934813,2.7961165 1.80305132,3.11234397 1.61997226,3.48404993 C1.43134535,3.85575589 1.34257975,4.24965326 1.34257975,4.67128988 C1.34257975,5.03190014 1.4147018,5.37586685 1.55339806,5.70319001 C1.69209431,6.03051318 1.88626907,6.31345354 2.12482663,6.55755895 C2.36338419,6.7961165 2.64632455,6.98474341 2.97919556,7.12898752 C3.30651872,7.26768377 3.65048544,7.33980583 4.0110957,7.33980583 C4.37170596,7.33980583 4.71567268,7.26768377 5.04854369,7.12898752 C5.37586685,6.99029126 5.65880721,6.7961165 5.90291262,6.55755895 C6.14147018,6.31900139 6.33009709,6.03606103 6.47434119,5.70319001 C6.61303745,5.37586685 6.6851595,5.03190014 6.6851595,4.67128988 C6.6851595,4.24965326 6.59084605,3.85575589 6.40776699,3.48404993 C6.21914008,3.11234397 5.95839112,2.7961165 5.61997226,2.5409154 C5.47572816,2.42995839 5.38696255,2.28571429 5.36477115,2.10263523 C5.3370319,1.91955617 5.3814147,1.75312067 5.49237171,1.60887656 C5.59778086,1.4590846 5.74757282,1.370319 5.93065187,1.3481276 C6.11373093,1.3259362 6.28016644,1.36477115 6.42441054,1.47572816 C6.92926491,1.85298197 7.32316227,2.32454924 7.60610264,2.88488211 C7.86130374,3.44521498 8,4.03883495 8,4.67128988 Z M4.66574202,0.671289875 L4.66574202,4.00554785 C4.66574202,4.18862691 4.59916782,4.34396671 4.46601942,4.47711512 C4.33287101,4.61026352 4.17753121,4.67683773 3.99445215,4.67683773 C3.81137309,4.67683773 3.65603329,4.61026352 3.52288488,4.47711512 C3.38973648,4.34396671 3.32316227,4.18862691 3.32316227,4.00554785 L3.32316227,0.671289875 C3.32316227,0.488210818 3.38973648,0.332871012 3.52288488,0.199722607 C3.65603329,0.0665742025 3.81137309,0 3.99445215,0 C4.17753121,0 4.33287101,0.0665742025 4.46601942,0.199722607 C4.59916782,0.332871012 4.66574202,0.488210818 4.66574202,0.671289875 Z" id="形状"></path>
            </g>
        </g>
    </g>
</svg>