<?xml version="1.0" encoding="UTF-8"?>
<svg width="14px" height="14px" viewBox="0 0 14 14" version="1.1" xmlns="http://www.w3.org/2000/svg" xmlns:xlink="http://www.w3.org/1999/xlink">
    <title>停用</title>
    <g id="页面-1" stroke="none" stroke-width="1" fill="none" fill-rule="evenodd">
        <g id="任务监控工作台2备份" transform="translate(-323.000000, -650.000000)" fill="#F15E5D" fill-rule="nonzero">
            <g id="停用" transform="translate(323.000000, 650.000000)">
                <path d="M0,6.99906834 L0,7.00093396 C0,10.8653811 3.13275302,13.9981341 6.99720013,13.9981341 C6.99844457,13.9981341 6.99968901,13.9981341 7.00093346,13.9981341 C10.8672178,13.9981341 14,10.8653509 14,6.99906654 C14,3.13278218 10.8653514,0 6.99906704,0 C3.13184947,0 0,3.13278218 0,6.99906654 L0,6.99906834 Z M11.1301413,7.92978329 L2.95596181,7.93214649 C2.84553109,7.93211121 2.75597304,7.84263499 2.75583681,7.73220435 L2.75492032,6.2659425 C2.75472631,6.15548565 2.84421337,6.06588665 2.9546703,6.06581761 C2.95471197,6.06581758 2.95475364,6.06581757 2.95479531,6.06594254 L11.1301413,6.06594254 C11.2405982,6.06594254 11.3301413,6.15548559 11.3301413,6.26594254 L11.3301413,7.72972547 C11.3300835,7.84015984 11.2405756,7.92969353 11.1301413,7.92978329 Z" id="形状"></path>
            </g>
        </g>
    </g>
</svg>