<?xml version="1.0" encoding="UTF-8"?>
<svg width="20px" height="20px" viewBox="0 0 20 20" version="1.1" xmlns="http://www.w3.org/2000/svg" xmlns:xlink="http://www.w3.org/1999/xlink">
    <title>形状结合 2</title>
    <defs>
        <linearGradient x1="50%" y1="0%" x2="50%" y2="100%" id="linearGradient-1">
            <stop stop-color="#FDD68A" offset="0%"></stop>
            <stop stop-color="#FBAC52" offset="100%"></stop>
        </linearGradient>
    </defs>
    <g id="页面-1" stroke="none" stroke-width="1" fill="none" fill-rule="evenodd">
        <g id="画板" transform="translate(-35.000000, -6.000000)" fill-rule="nonzero">
            <g id="形状结合-2" transform="translate(37.000000, 8.000000)">
                <path d="M8,-0.7 C10.6287053,-0.624042625 12.7295113,0.37929435 14.2474806,1.94531893 C15.7655501,3.51144702 16.7,5.64659073 16.7,8 C16.6240426,10.6287054 15.6207057,12.7295114 14.0546811,14.2474806 C12.4885531,15.7655501 10.3534094,16.7 8,16.7 C5.59755714,16.7 3.42255733,15.7262211 1.84816811,14.1518319 C0.273778889,12.5774427 -0.7,10.4024429 -0.7,8 C-0.7,5.59755714 0.273778889,3.42255733 1.84816811,1.84816811 C3.42255733,0.273778889 5.59755714,-0.7 8,-0.7 Z" id="形状结合" stroke="#FFEFDD" stroke-width="1.4" fill="url(#linearGradient-1)"></path>
                <g id="等待" transform="translate(3.000000, 3.000000)" fill="#FFEFDD">
                    <path d="M5,0 C2.25,0 0,2.25 0,5 C0,7.75 2.25,10 5,10 C7.75,10 10,7.75 10,5 C10,2.25 7.75,0 5,0 Z M5,8.75 C2.9375,8.75 1.25,7.0625 1.25,5 C1.25,2.9375 2.9375,1.25 5,1.25 C7.0625,1.25 8.75,2.9375 8.75,5 C8.75,7.0625 7.0625,8.75 5,8.75 Z" id="形状"></path>
                    <path d="M6.875,5 L5,5 L5,2.5 C5,2.1875 4.6875,1.875 4.375,1.875 C4.0625,1.875 3.75,2.1875 3.75,2.5 L3.75,5.625 C3.75,5.9375 4.0625,6.25 4.375,6.25 L6.875,6.25 C7.1875,6.25 7.5,5.9375 7.5,5.625 C7.5,5.3125 7.1875,5 6.875,5 Z" id="路径"></path>
                </g>
            </g>
        </g>
    </g>
</svg>