<?xml version="1.0" encoding="UTF-8"?>
<svg width="36px" height="36px" viewBox="0 0 36 36" version="1.1" xmlns="http://www.w3.org/2000/svg" xmlns:xlink="http://www.w3.org/1999/xlink">
    <!-- Generator: Sketch 64 (93537) - https://sketch.com -->
    <title>Api</title>
    <desc>Created with Sketch.</desc>
    <defs>
        <linearGradient x1="0%" y1="0%" x2="96.1897068%" y2="96.1897068%" id="linearGradient-1">
            <stop stop-color="#5B9CFE" offset="0%"></stop>
            <stop stop-color="#5B89FE" offset="100%"></stop>
        </linearGradient>
    </defs>
    <g id="风格7.0" stroke="none" stroke-width="1" fill="none" fill-rule="evenodd">
        <g id="icon" transform="translate(-80.000000, -449.000000)">
            <g id="Api" transform="translate(80.000000, 449.000000)">
                <g id="编组-7">
                    <rect id="矩形备份-21" fill="url(#linearGradient-1)" x="0" y="0" width="36" height="36" rx="7"></rect>
                    <g id="api-2" transform="translate(9.000000, 9.000000)" fill="#FFFFFF" fill-rule="nonzero">
                        <path d="M7.95007031,7.369875 C8.23434375,7.63441406 8.25035156,8.07932813 7.98578906,8.36360156 L6.68386245,9.76242159 L8.89886245,11.8234216 L10.2012656,10.4253047 C10.4658047,10.1410313 10.9106953,10.125 11.1949688,10.3896094 C11.4792422,10.6541484 11.49525,11.0990859 11.2306641,11.3833359 L9.92886245,12.7814216 L11.1169688,13.8878906 C11.3499557,14.1047228 11.4027423,14.4427014 11.2685414,14.7140849 C11.2362652,14.7814777 11.1944241,14.8450928 11.14125,14.9022188 L9.15907031,17.0321953 C8.43820313,17.8068516 7.29963281,18.2354297 5.99200781,18.2354297 C5.85499219,18.2354297 5.71621875,18.2307422 5.57575781,18.22125 C4.47444888,18.1467278 3.39760876,17.7842417 2.57437842,17.225656 L1.22071875,18.6805547 C1.08222656,18.8293594 0.894257813,18.9046646 0.70584375,18.9046646 C0.528105251,18.9048748 0.35693058,18.8375226 0.226992188,18.71625 C-0.05728125,18.4517109 -0.0732890625,18.0067969 0.191273438,17.7225469 L1.54507999,16.2677523 C0.928924934,15.4867771 0.490121362,14.4387858 0.33675,13.3457344 C0.130523438,11.8759453 0.469054688,10.5421172 1.26553125,9.68625 L3.24771094,7.55629688 C3.27900328,7.52267591 3.31281842,7.49280734 3.34859218,7.46671167 L3.26739844,7.5435 C3.5319375,7.25925 3.976875,7.24324219 4.261125,7.50778125 L5.65486245,8.80442159 L6.95634375,7.40559375 C7.22088281,7.12132031 7.66579688,7.10533594 7.95007031,7.369875 Z M3.81386245,9.01142159 L2.29497656,10.6442813 C1.78842188,11.1886172 1.58226563,12.1020234 1.72935938,13.1503594 C1.87282031,14.1727734 2.34457031,15.1639922 2.96050781,15.7371797 L3.00213281,15.7759219 C3.61807031,16.3491328 4.64060156,16.7485313 5.67065625,16.8182344 C6.72682031,16.8896719 7.62309375,16.6185 8.12964844,16.0741875 L9.64786245,14.4414216 L3.81386245,9.01142159 Z M17.4605625,0.197835938 C17.7448359,0.462375 17.7608438,0.907289063 17.4962578,1.1915625 L16.1424622,2.64635706 C16.7586298,3.42733228 17.1974333,4.47532358 17.3508047,5.568375 C17.5570313,7.03814063 17.2184766,8.37196875 16.4220234,9.22783594 L14.4397969,11.3577891 C14.4067227,11.39332 14.3708291,11.4246604 14.3327831,11.4517858 L14.4201328,11.3705391 C14.2816641,11.5193672 14.0936953,11.5946724 13.9052578,11.5946724 C13.7275193,11.5948826 13.5563446,11.5275304 13.4264063,11.4062578 L6.57060938,5.026125 C6.31476328,4.78801875 6.27623133,4.40384672 6.46393238,4.12215804 L6.47529387,4.10167366 C6.49615102,4.07037492 6.51980156,4.04034141 6.54625781,4.01191406 L8.52846094,1.8819375 C9.32491406,1.02607031 10.6309922,0.592640625 12.1117969,0.692859375 C13.2131058,0.767362594 14.2899459,1.12984505 15.1131638,1.68843008 L16.4668594,0.23353125 C16.7313984,-0.0506953125 17.1763125,-0.06675 17.4605625,0.197835938 Z M9.55790625,2.83994531 L8.03886245,4.47142159 L13.8728625,9.90142159 L15.3925547,8.26980469 C16.5205313,7.05771094 15.9649688,4.32897656 14.727,3.17690625 L14.685375,3.13816406 C14.0694609,2.56497656 13.0469297,2.16557813 12.016875,2.09589844 C10.9607109,2.0244375 10.0644141,2.29560938 9.55790625,2.83994531 Z" id="形状结合"></path>
                    </g>
                </g>
            </g>
        </g>
    </g>
</svg>