<?xml version="1.0" encoding="UTF-8"?>
<svg width="36px" height="36px" viewBox="0 0 36 36" version="1.1" xmlns="http://www.w3.org/2000/svg" xmlns:xlink="http://www.w3.org/1999/xlink">
    <title>编组 20</title>
    <defs>
        <linearGradient x1="-1.48956222%" y1="100%" x2="100%" y2="-1.11889664e-14%" id="linearGradient-1">
            <stop stop-color="#2E77FF" offset="0%"></stop>
            <stop stop-color="#2A87FF" offset="100%"></stop>
        </linearGradient>
    </defs>
    <g id="风格7.0" stroke="none" stroke-width="1" fill="none" fill-rule="evenodd">
        <g id="新建元数据-全部" transform="translate(-154.000000, -522.000000)">
            <g id="编组-20" transform="translate(154.000000, 522.000000)">
                <rect id="矩形备份-22" fill="url(#linearGradient-1)" x="0" y="0" width="36" height="36" rx="7"></rect>
                <g id="编组" transform="translate(11.000000, 10.000000)" fill="#FFFFFF" fill-rule="nonzero">
                    <path d="M11.9924497,1.25838926 L10.4509228,1.25838926 L10.4509228,2.51677852 L11.9924497,2.51677852 C12.8020134,2.51677852 13.4605705,3.17533557 13.4605705,3.98489933 L13.4605705,13.2508389 C13.4605705,14.0604027 12.8020134,14.7189597 11.9924497,14.7189597 L2.72651007,14.7189597 C1.91694631,14.7189597 1.25838926,14.0604027 1.25838926,13.2508389 L1.25838926,3.98489933 C1.25838926,3.17533557 1.91694631,2.51677852 2.72651007,2.51677852 L4.07508389,2.51677852 L4.07508389,1.25838926 L2.72651007,1.25838926 C1.2227349,1.25838926 0,2.48112416 0,3.98489933 L0,13.2508389 C0,14.7546141 1.2227349,15.977349 2.72651007,15.977349 L11.9924497,15.977349 C13.4962248,15.977349 14.7189597,14.7546141 14.7189597,13.2508389 L14.7189597,3.98489933 C14.7189597,2.48112416 13.4962248,1.25838926 11.9924497,1.25838926 Z" id="路径"></path>
                    <path d="M7.93833893,3.77307047 L6.5897651,3.77307047 C5.55159396,3.77307047 4.70427852,2.92785235 4.70427852,1.88758389 C4.70427852,0.847315436 5.54949664,0.00209731544 6.5897651,0.00209731544 L7.93833893,0.00209731544 C8.97651007,0.00209731544 9.8238255,0.847315436 9.8238255,1.88758389 C9.8238255,2.92785235 8.97651007,3.77307047 7.93833893,3.77307047 L7.93833893,3.77307047 Z M6.5897651,1.26048658 C6.24370805,1.26048658 5.96266779,1.54152685 5.96266779,1.88758389 C5.96266779,2.23364094 6.24370805,2.51468121 6.5897651,2.51468121 L7.93833893,2.51468121 C8.28439597,2.51468121 8.56543624,2.23364094 8.56543624,1.88758389 C8.56543624,1.54152685 8.28439597,1.26048658 7.93833893,1.26048658 L6.5897651,1.26048658 Z" id="形状"></path>
                    <path d="M5.95847315,6.47651007 L3.25713087,6.47651007 C2.90897651,6.47651007 2.62793624,6.1954698 2.62793624,5.84731544 C2.62793624,5.49916107 2.90897651,5.21812081 3.25713087,5.21812081 L5.95847315,5.21812081 C6.30662752,5.21812081 6.58766779,5.49916107 6.58766779,5.84731544 C6.58766779,6.1954698 6.30662752,6.47651007 5.95847315,6.47651007 Z M7.42449664,9.16107383 L3.25713087,9.16107383 C2.90897651,9.16107383 2.62793624,8.88003356 2.62793624,8.53187919 C2.62793624,8.18372483 2.90897651,7.90268456 3.25713087,7.90268456 L7.42449664,7.90268456 C7.77265101,7.90268456 8.05369128,8.18372483 8.05369128,8.53187919 C8.05369128,8.88003356 7.77265101,9.16107383 7.42449664,9.16107383 Z M10.3397651,11.8498322 L3.25713087,11.8498322 C2.90897651,11.8498322 2.62793624,11.5687919 2.62793624,11.2206376 C2.62793624,10.8724832 2.90897651,10.591443 3.25713087,10.591443 L10.3397651,10.591443 C10.6879195,10.591443 10.9689597,10.8724832 10.9689597,11.2206376 C10.9689597,11.5687919 10.6879195,11.8498322 10.3397651,11.8498322 Z" id="形状"></path>
                </g>
            </g>
        </g>
    </g>
</svg>