<?xml version="1.0" encoding="UTF-8"?>
<svg width="36px" height="36px" viewBox="0 0 36 36" version="1.1" xmlns="http://www.w3.org/2000/svg" xmlns:xlink="http://www.w3.org/1999/xlink">
    <title>编组 24</title>
    <defs>
        <linearGradient x1="0%" y1="0%" x2="100%" y2="100%" id="linearGradient-1">
            <stop stop-color="#FC8249" offset="0%"></stop>
            <stop stop-color="#FE9539" offset="100%"></stop>
        </linearGradient>
    </defs>
    <g id="风格7.0" stroke="none" stroke-width="1" fill="none" fill-rule="evenodd">
        <g id="新建元数据-全部" transform="translate(-414.000000, -668.000000)">
            <g id="编组-24" transform="translate(414.000000, 668.000000)">
                <g id="编组-21备份-2" fill="url(#linearGradient-1)">
                    <rect id="矩形备份-23" x="0" y="0" width="36" height="36" rx="7"></rect>
                </g>
                <g id="编组-22" transform="translate(9.000000, 8.000000)" fill="#FFFFFF" fill-rule="nonzero">
                    <polygon id="路径" fill-opacity="0" points="0 0 18 0 18 18 0 18"></polygon>
                    <path d="M15.5039062,1.96875 C15.7951582,1.96875 16.03125,2.2048418 16.03125,2.49609375 L16.03125,5.67773438 C15.4099336,5.67773438 14.90625,5.17405078 14.90625,4.55273438 L14.90625,3.09375 L3.09375,3.09375 L3.09375,14.90625 L5.09765625,14.90625 C5.71276758,14.90625 6.21256641,15.3999141 6.22249805,16.0126523 L6.22265625,16.03125 L2.49609375,16.03125 C2.2048418,16.03125 1.96875,15.7951582 1.96875,15.5039062 L1.96875,2.49609375 C1.96875,2.2048418 2.2048418,1.96875 2.49609375,1.96875 L15.5039062,1.96875 Z M11.0039062,7.11914062 C11.0039062,7.74045703 10.5002227,8.24414062 9.87890625,8.24414062 L4.60546875,8.24414062 C4.60546875,7.62282422 5.10915234,7.11914062 5.73046875,7.11914062 L11.0039062,7.11914062 Z M13.3945312,4.55273438 C13.3945312,5.17405078 12.8908477,5.67773438 12.2695312,5.67773438 L4.60546875,5.67773438 C4.60546875,5.05641797 5.10915234,4.55273438 5.73046875,4.55273438 L13.3945312,4.55273438 Z" id="形状"></path>
                    <path d="M17.7367259,9.48513302 L15.6898771,7.47730829 C15.5191734,7.30985915 15.2926321,7.21752739 15.0517325,7.21752739 C14.8108329,7.21752739 14.5842916,7.30985915 14.4119926,7.47730829 L12.909162,8.9514867 L11.8275069,10.0125196 L9.06274544,12.7245696 C8.95426085,12.8309859 8.87449278,12.9640063 8.83141802,13.1095462 L8.03373726,15.8716745 C7.94599238,16.1784038 8.0321419,16.5101721 8.2602786,16.7370892 C8.42938692,16.9045383 8.66390506,17 8.90320929,17 C8.98297736,17 9.06274544,16.9890454 9.13932279,16.9687011 L11.9838524,16.2143975 C12.1354117,16.1737089 12.2758035,16.0954617 12.3858835,15.9859155 L17.7351306,10.7386541 C17.9058343,10.571205 18.000019,10.3489828 18.000019,10.1111111 C18.0015559,9.87480438 17.9074296,9.65258216 17.7367259,9.48513302 Z M9.07391297,15.9499218 L9.71365293,13.7355243 L11.3552799,15.3458529 L9.07391297,15.9499218 Z M12.1976308,14.7558685 L10.3166996,12.9107981 L15.0501372,8.26760563 L16.9310684,10.1126761 L12.1976308,14.7558685 Z" id="形状"></path>
                </g>
            </g>
        </g>
    </g>
</svg>