<?xml version="1.0" encoding="UTF-8"?>
<svg width="36px" height="36px" viewBox="0 0 36 36" version="1.1" xmlns="http://www.w3.org/2000/svg" xmlns:xlink="http://www.w3.org/1999/xlink">
    <title>编组 7</title>
    <defs>
        <linearGradient x1="-1.48956222%" y1="100%" x2="100%" y2="-1.11889664e-14%" id="linearGradient-1">
            <stop stop-color="#2E77FF" offset="0%"></stop>
            <stop stop-color="#2A87FF" offset="100%"></stop>
        </linearGradient>
    </defs>
    <g id="风格7.0" stroke="none" stroke-width="1" fill="none" fill-rule="evenodd">
        <g id="icon" transform="translate(-80.000000, -314.000000)">
            <g id="编组-7" transform="translate(80.000000, 314.000000)">
                <rect id="矩形备份-23" fill="url(#linearGradient-1)" x="0" y="0" width="36" height="36" rx="7"></rect>
                <g id="编组" transform="translate(9.000000, 10.000000)" fill="#FFFFFF" fill-rule="nonzero" stroke="#2B81FF" stroke-width="0.3">
                    <path d="M10.1174214,9.16167665 C9.57428892,9.56586826 9.11746819,10.0816336 8.78485217,10.6795004 L8.78485217,10.6795004 L1.51571856,10.6795004 L1.51571856,15.3108626 L8.74064371,15.3108626 C9.05641841,15.9003088 9.49008234,16.4160741 10.0121632,16.8265812 L10.0121632,16.8265812 L1.37888286,16.8265812 C0.618918413,16.8265812 -5.83799675e-12,16.2076628 -5.83799675e-12,15.4476984 L-5.83799675e-12,15.4476984 L-5.83799675e-12,10.5405595 C-5.83799675e-12,9.78059506 0.618918413,9.16167665 1.37888286,9.16167665 L1.37888286,9.16167665 Z M17.1676179,13.4056886 C17.5865457,13.4056886 17.9254772,13.7446201 17.9254772,14.1635479 C17.9254772,14.5824757 17.5865457,14.9214072 17.1676179,14.9214072 L17.1676179,14.9214072 L12.6099364,14.9214072 L13.1088604,15.5992702 C13.3551647,15.9360966 13.2814839,16.4118638 12.9446576,16.658168 C12.809927,16.7571108 12.6541448,16.8055296 12.4983626,16.8055296 C12.2646894,16.8055296 12.0352264,16.6981662 11.8857597,16.4960704 L11.8857597,16.4960704 L10.5047717,14.611948 C10.3363585,14.3803799 10.3110966,14.075131 10.4395116,13.8204061 C10.5679266,13.5656811 10.8289671,13.4056886 11.1152695,13.4056886 L11.1152695,13.4056886 Z M9.01852545,12.2352171 L9.01852545,13.7509356 L2.8777601,13.7509356 L2.8777601,12.2352171 L9.01852545,12.2352171 Z M15.2877058,9.30693301 C15.6245322,9.06062874 16.1002994,9.13430951 16.3466037,9.47113585 L16.3466037,9.47113585 L17.7275917,11.3552582 C17.8960049,11.5868263 17.9212668,11.8920752 17.7928518,12.1468001 C17.6644368,12.4015251 17.4033963,12.5615176 17.1170939,12.5615176 L17.1170939,12.5615176 L11.0647455,12.5615176 C10.6458177,12.5615176 10.3068862,12.2225861 10.3068862,11.8036583 C10.3068862,11.3847305 10.6458177,11.045799 11.0647455,11.045799 L11.0647455,11.045799 L15.6203219,11.045799 L15.123503,10.3658308 C14.8771987,10.0290045 14.9508795,9.55323728 15.2877058,9.30693301 Z M15.4645397,0.00210516467 C16.2245041,0.00210516467 16.8434225,0.621023578 16.8434225,1.38098802 L16.8434225,1.38098802 L16.8434225,6.28602171 C16.8434225,7.04598615 16.2245041,7.66490457 15.4645397,7.66490457 L15.4645397,7.66490457 L1.37888286,7.66490457 C0.618918413,7.66490457 -1.74260606e-12,7.04598615 -1.74260606e-12,6.28812687 L-1.74260606e-12,6.28812687 L-1.74260606e-12,1.38098802 C-1.74260606e-12,0.621023578 0.618918413,0.00210516467 1.37888286,0.00210516467 L1.37888286,0.00210516467 Z M15.3255988,1.51782373 L1.51571856,1.51782373 L1.51571856,6.149186 L15.3255988,6.149186 L15.3255988,1.51782373 Z M10.4605632,3.07564558 L10.4605632,4.59136415 L2.8777601,4.59136415 L2.8777601,3.07564558 L10.4605632,3.07564558 Z M13.8940868,3.07564558 L13.8940868,4.59136415 L12.3783683,4.59136415 L12.3783683,3.07564558 L13.8940868,3.07564558 Z" id="形状结合"></path>
                </g>
            </g>
        </g>
    </g>
</svg>