<?xml version="1.0" encoding="UTF-8"?>
<svg width="16px" height="16px" viewBox="0 0 16 16" version="1.1" xmlns="http://www.w3.org/2000/svg" xmlns:xlink="http://www.w3.org/1999/xlink">
    <title>编组</title>
    <g id="页面-1备份" stroke="none" stroke-width="1" fill="none" fill-rule="evenodd">
        <g id="设计器首页" transform="translate(-1101.000000, -68.000000)">
            <g id="编组" transform="translate(1101.000000, 68.000000)">
                <polygon id="路径" fill-opacity="0" fill="#FFFFFF" fill-rule="nonzero" points="0.006159375 0.006159375 15.0064594 0.006159375 15.0064594 15.0064594 0.006159375 15.0064594"></polygon>
                <path d="M0.313059375,4.46205937 C0.353216998,4.46205937 0.392972631,4.47005774 0.430059375,4.48545938 L6.63465937,7.05585937 C6.74931051,7.10330095 6.82396374,7.2152808 6.82366145,7.33935937 L6.82366145,14.6995594 C6.82403672,14.8021105 6.77301805,14.8980324 6.6877734,14.9550432 C6.60252874,15.012054 6.49439328,15.0225727 6.39975937,14.9830594 L0.195159375,12.4126594 C0.0805082438,12.3652178 0.00585501107,12.2532379 0.00615844781,12.1291594 L0.00615844781,4.76895937 C0.00615844781,4.59996024 0.143160242,4.46295937 0.312159375,4.46295937 L0.313059375,4.46205937 Z M14.6986594,4.46205937 C14.8471594,4.46205937 14.9713594,4.56735937 14.9992594,4.70775937 L15.0055594,4.76895937 L15.0055594,7.67415937 C14.9870392,7.67846856 14.968961,7.68449462 14.9515594,7.69215937 L11.0653594,9.37875937 C10.9533772,9.42720548 10.8808772,9.53754695 10.8808594,9.65955937 L10.8808594,14.0425594 L8.61195937,14.9830594 C8.59339936,14.9909426 8.57410556,14.9969719 8.55435937,15.0010594 L8.49405937,15.0064594 C8.34854338,15.005968 8.22337656,14.9033537 8.19435938,14.7607594 L8.18805938,14.6995594 L8.18805938,7.33935937 C8.18805938,7.24035937 8.23575938,7.14855937 8.31405938,7.09185937 L8.37705938,7.05585937 L14.5816594,4.48545937 C14.6187461,4.47005774 14.6585018,4.46205937 14.6986594,4.46205937 L14.6986594,4.46205937 Z M7.62825937,0.025059375 L14.5222594,2.48925937 C14.6149594,2.51805937 14.6914594,2.57925937 14.7328594,2.66025937 C14.8192594,2.82225937 14.7391594,3.01755937 14.5546594,3.09405937 L7.66065937,6.04335937 C7.5611346,6.08392716 7.44968415,6.08392716 7.35015937,6.04335937 L0.423759375,3.09405937 C0.337056611,3.05985549 0.267900623,2.9919982 0.232059375,2.90595937 C0.163659375,2.73495937 0.264459375,2.54865937 0.457059375,2.48925937 L7.38345937,0.024159375 C7.46317664,-0.000630259249 7.54854211,-0.000630259249 7.62825937,0.024159375 L7.62825937,0.025059375 Z" id="形状" fill="#388FFF"></path>
                <path d="M14.5870594,9.16905938 L12.2011594,10.1014594 C12.0837293,10.1470272 12.0062195,10.2598986 12.0058585,10.3858594 L12.0058585,13.0561594 C12.005617,13.1576085 12.0556702,13.2525828 12.1394943,13.3097274 C12.2233184,13.366872 12.330015,13.3787573 12.4243594,13.3414594 L14.8102594,12.4099594 C14.9283024,12.3641537 15.0059421,12.2503776 15.0055637,12.1237594 L15.0055637,9.45435938 C15.0061014,9.35275119 14.956171,9.257501 14.8722986,9.20014308 C14.7884261,9.14278516 14.6815522,9.13080145 14.5870594,9.16815938 L14.5870594,9.16905938 Z" id="路径" fill="#A1CAFF"></path>
            </g>
        </g>
    </g>
</svg>