<?xml version="1.0" encoding="UTF-8"?>
<svg width="140px" height="140px" viewBox="0 0 140 140" version="1.1" xmlns="http://www.w3.org/2000/svg" xmlns:xlink="http://www.w3.org/1999/xlink">
    <title>空状态备份</title>
    <defs>
        <linearGradient x1="41.1005577%" y1="19.3096249%" x2="-249.007986%" y2="124.458005%" id="linearGradient-1">
            <stop stop-color="#5990FE" offset="0%"></stop>
            <stop stop-color="#26B7FF" offset="100%"></stop>
        </linearGradient>
        <linearGradient x1="215.071993%" y1="-54.1616096%" x2="21.5681674%" y2="62.2638858%" id="linearGradient-2">
            <stop stop-color="#5990FE" offset="0%"></stop>
            <stop stop-color="#26B7FF" offset="100%"></stop>
        </linearGradient>
        <linearGradient x1="76.0762445%" y1="92.211834%" x2="25.0269713%" y2="21.6941425%" id="linearGradient-3">
            <stop stop-color="#59E3FF" offset="0%"></stop>
            <stop stop-color="#80FFFF" offset="100%"></stop>
        </linearGradient>
        <filter x="-56.2%" y="-42.9%" width="212.5%" height="185.7%" filterUnits="objectBoundingBox" id="filter-4">
            <feGaussianBlur stdDeviation="6" in="SourceGraphic"></feGaussianBlur>
        </filter>
        <linearGradient x1="94.9204055%" y1="92.211834%" x2="6.98005598%" y2="21.6941425%" id="linearGradient-5">
            <stop stop-color="#5990FE" offset="0%"></stop>
            <stop stop-color="#26B7FF" offset="100%"></stop>
        </linearGradient>
    </defs>
    <g id="页面-1" stroke="none" stroke-width="1" fill="none" fill-rule="evenodd">
        <g id="3.1-元数据资源管理器空状态备份" transform="translate(-641.000000, -344.000000)">
            <g id="空状态备份" transform="translate(641.000000, 360.000000)">
                <g id="飘带" transform="translate(0.000000, 43.000000)">
                    <path d="M125.478423,0 C125.844111,0.139796235 127.064662,0.675259607 129.140078,1.60639012 C134.531139,4.02507915 138,9.38335608 138,15.2921294 L138,22.6182211 C138,18.0695689 135.452154,13.9041853 131.402676,11.832479 C129.551117,10.8852279 127.877505,10.147142 126.38184,9.61822115 L125.478423,0 Z" id="路径" fill="url(#linearGradient-1)"></path>
                    <path d="M21.6411032,15.408403 C7.81188296,24.4517258 0.897272827,34.5216652 0.897272827,45.6182211 L0.192456129,38.9224625 C-0.830040161,29.2087609 2.25298761,19.5096809 8.69647053,12.169175 C12.7881101,7.50792193 17.1029877,4.15760398 21.6411032,2.11822115 L21.6411032,15.408403 Z" id="路径" fill="url(#linearGradient-2)"></path>
                    <path d="M0.721,39.345 L0.779054442,39.4729144 C4.63471126,47.7223312 11.609286,54.134352 20.2016697,57.2712575 C22.6169904,58.1530423 25.2431891,58.95738 28.0803618,59.6839639 C33.79964,61.1486387 39.7766712,62.052425 46.011539,62.3947829 L46.011539,62.3947829 L46.011539,72.8964139 C38.4653163,72.207872 32.1744524,71.246036 27.1393186,70.0088574 C20.8811368,68.4711647 14.7216021,65.3804799 8.6575776,60.743656 C4.07286037,57.2379791 1.2766004,51.8814662 1.02133649,46.1156841 L1.02133649,46.1156841 L0.721,39.345 Z" id="路径-10" stroke="#27B6FF" fill="#FFFFFF"></path>
                    <path d="M137.499548,21.4279999 L137.499548,29.0710607 C137.499548,30.7030606 137.271259,32.3270382 136.821319,33.8957885 C135.747708,37.639016 133.569164,41.21032 130.296397,44.6156853 L130.296397,44.6156853 L130.296397,34.4844032 C133.647299,30.6731447 136.048785,26.3212241 137.499548,21.4279999 L137.499548,21.4279999 Z" id="路径-16" stroke="#5692FE" fill="#FFFFFF"></path>
                </g>
                <ellipse id="椭圆形" fill-opacity="0.8" fill="url(#linearGradient-3)" filter="url(#filter-4)" transform="translate(88.000000, 35.000000) rotate(-51.000000) translate(-88.000000, -35.000000) " cx="88" cy="35" rx="16" ry="21"></ellipse>
                <g id="箱子" transform="translate(25.000000, 0.000000)">
                    <polygon id="路径-5" fill-opacity="0.5" fill="#96C0FA" points="55 54 37 61 0 28 21 25"></polygon>
                    <polygon id="路径-6" fill-opacity="0.5" fill="#96C0FA" points="55 54 46 66.9973621 50 94 59 80"></polygon>
                    <polygon id="路径-3" fill-opacity="0.4" fill="#96C0FA" points="21 25 55 7.8874407e-13 90 25 55 54"></polygon>
                    <polygon id="路径-4" fill-opacity="0.5" fill="#96C0FA" points="90 25 94 49 59 80 55 54"></polygon>
                    <line x1="56.6203533" y1="52.6728769" x2="88.0610862" y2="26.7802198" id="路径-7" stroke="#F2F8FC"></line>
                    <line x1="21" y1="25" x2="53.8957123" y2="52.8665428" id="路径-8" stroke="#F2F8FC"></line>
                    <line x1="55.3497644" y1="55.6768844" x2="58.7374684" y2="78.7090143" id="路径-9" stroke="#F2F8FC"></line>
                    <line x1="19" y1="72.5950863" x2="9.763967" y2="81.000843" id="路径-17" stroke="#45D8E6" stroke-width="3" stroke-linecap="round"></line>
                    <line x1="28.2262278" y1="76.881586" x2="27.1655677" y2="86.3919937" id="路径-17备份" stroke="#45D8E6" stroke-width="3" stroke-linecap="round"></line>
                    <line x1="8.44163596" y1="58.2580563" x2="7.2881692" y2="68.6945127" id="路径-17备份-2" stroke="#45D8E6" stroke-width="3" stroke-linecap="round" transform="translate(8.073869, 63.658873) rotate(-96.363687) translate(-8.073869, -63.658873) "></line>
                </g>
                <g id="放大镜" transform="translate(63.000000, 68.000000)">
                    <circle id="椭圆形" fill-opacity="0.1" fill="#FFFFFF" cx="22.1241312" cy="22.1241312" r="22.1241312"></circle>
                    <path d="M22.1241312,0 C34.3429515,0 44.2482624,9.90531094 44.2482624,22.1241312 C44.2482624,27.4957662 42.3339071,32.4202795 39.1502214,36.2526463 L55.3999993,52.5029394 C56.2000002,53.3029404 56.2000002,54.5999983 55.3999993,55.3999993 C54.6347809,56.1652176 53.4147884,56.198488 52.6100245,55.4998103 L52.5029394,55.3999993 L36.2526463,39.1502214 C32.4202795,42.3339071 27.4957662,44.2482624 22.1241312,44.2482624 C9.90531094,44.2482624 0,34.3429515 0,22.1241312 C0,9.90531094 9.90531094,0 22.1241312,0 Z M22.1241312,4.09706133 C12.1680554,4.09706133 4.09706133,12.1680554 4.09706133,22.1241312 C4.09706133,32.080207 12.1680554,40.1512011 22.1241312,40.1512011 C32.080207,40.1512011 40.1512011,32.080207 40.1512011,22.1241312 C40.1512011,12.1680554 32.080207,4.09706133 22.1241312,4.09706133 Z" id="形状结合" fill="url(#linearGradient-5)"></path>
                </g>
            </g>
        </g>
    </g>
</svg>