<?xml version="1.0" encoding="UTF-8"?>
<svg width="16px" height="18px" viewBox="0 0 16 18" version="1.1" xmlns="http://www.w3.org/2000/svg" xmlns:xlink="http://www.w3.org/1999/xlink">
    <title>编组</title>
    <g id="页面-1" stroke="none" stroke-width="1" fill="none" fill-rule="evenodd">
        <g id="设计器首页" transform="translate(-1101.000000, -142.000000)">
            <g id="编组-44备份-2" transform="translate(1083.000000, 51.000000)">
                <g id="编组" transform="translate(18.000000, 91.000000)">
                    <path d="M1,5 L4.19795314,5.48186485 L4.28516739,6.4970318 C4.32960074,7.01423252 4.76239144,7.41143587 5.28149732,7.41143587 L8.87617538,7.41143587 C9.38571099,7.41143587 9.81376835,7.02831994 9.87005518,6.52190278 L10.0028739,5.32692188 L10.0028739,5.32692188 L15,5 L15,17 L1,17 L1,5 Z" id="矩形" fill="#388FFF"></path>
                    <path d="M14.9849443,4.63611172 L10.7545103,4.63611172 C10.3295359,4.63611172 9.98505957,4.98070387 9.98505957,5.40567827 C9.98505957,5.83065267 10.3295359,6.17518019 10.7545103,6.17524333 L14.4588574,6.17524333 L14.4588574,15.8691544 L1.54755564,15.8691544 L1.54755564,6.17524333 L3.44146829,6.17524333 C3.86644269,6.17518019 4.21091903,5.83065267 4.21091903,5.40567827 C4.21091903,4.98070387 3.86644269,4.63611172 3.44146829,4.63611172 L1.02581661,4.63611172 C0.756759614,4.63565161 0.498551768,4.74215109 0.308054973,4.93215859 C0.117558179,5.1221661 0.0103949965,5.38009919 0.0101646399,5.64915649 L0.0101646399,16.3961109 C0.0103946301,16.6650885 0.117585566,16.9229326 0.308107523,17.1128021 C0.498629481,17.3026715 0.756839738,17.4089773 1.02581661,17.4082879 L14.9849443,17.4082879 C15.5440932,17.4082879 15.9975076,16.9552596 15.9979875,16.3961109 L15.9979875,5.64915649 C15.9975081,5.08986686 15.5442339,4.63659267 14.9849443,4.63611172 Z" id="路径" fill="#388FFF" fill-rule="nonzero"></path>
                    <path d="M3.79103344,13.1021985 L11.8092927,13.1021985 C12.1861042,13.1021985 12.37451,13.2906042 12.37451,13.6674157 L12.37451,13.7143723 C12.37451,14.0911838 12.1861042,14.2795895 11.8092927,14.2795895 L3.79103344,14.2795895 C3.41422193,14.2795895 3.22581617,14.0911838 3.22581617,13.7143723 L3.22581617,13.6674157 C3.22581617,13.2906042 3.41422193,13.1021985 3.79103344,13.1021985 Z" id="路径" fill="#FFFFFF" fill-rule="nonzero"></path>
                    <path d="M3.83625083,10.8674163 L11.8545101,10.8674163 C12.2313216,10.8674163 12.4197274,11.0558221 12.4197274,11.4326336 L12.4197274,11.4795901 C12.4197274,11.8564016 12.2313216,12.0448074 11.8545101,12.0448074 L3.83625083,12.0448074 C3.45943932,12.0448074 3.27103354,11.8564016 3.27103354,11.4795901 L3.27103354,11.4326336 C3.27103354,11.0558221 3.45943931,10.8674163 3.83625083,10.8674163 Z" id="路径" fill="#FFFFFF" fill-rule="nonzero"></path>
                    <path d="M6.34233728,6.33872157 L6.34233728,0.886548743 C6.34233728,0.422780718 6.57422129,0.190896705 7.03798932,0.190896705 L7.03798932,0.190896705 C7.50175734,0.190896705 7.73364136,0.422780718 7.73364136,0.886548743 L7.73364136,6.33872157 C7.73364136,6.80248959 7.50175734,7.03437359 7.03798932,7.03437359 L7.03798932,7.03437359 C6.57422129,7.03437359 6.34233728,6.80248958 6.34233728,6.33872157 Z" id="路径" fill="#A1CAFF" fill-rule="nonzero"></path>
                    <path d="M4.71211607,2.10325746 L6.5610462,0.25432731 C6.88897971,-0.0736062047 7.21691322,-0.0736062047 7.54484674,0.25432731 L7.54484674,0.25432731 C7.87278025,0.582260824 7.87278025,0.910194339 7.54484674,1.23812785 L5.69591659,3.087058 C5.36798308,3.41499151 5.04004957,3.41499151 4.71211607,3.087058 L4.71211607,3.087058 C4.38418255,2.75912448 4.38418255,2.43119097 4.71211607,2.10325746 Z" id="路径" fill="#A1CAFF" fill-rule="nonzero"></path>
                    <path d="M7.52381542,0.262061328 L9.36475219,2.10299808 C9.69268571,2.4309316 9.69268571,2.75886511 9.36475219,3.08679862 L9.36475219,3.08679862 C9.03681868,3.41473214 8.70888516,3.41473214 8.38095165,3.08679862 L6.54001488,1.24586187 C6.21208136,0.917928357 6.21208136,0.589994843 6.54001488,0.262061328 L6.54001488,0.262061328 C6.86794839,-0.0658721864 7.19588191,-0.0658721864 7.52381542,0.262061328 L7.52381542,0.262061328 Z" id="路径" fill="#A1CAFF" fill-rule="nonzero"></path>
                    <path d="M3.83625083,8.63263415 L6.05711996,8.63263415 C6.43393147,8.63263415 6.62233723,8.82103991 6.62233723,9.19785143 L6.62233723,9.24480793 C6.62233723,9.62161945 6.43393147,9.81002522 6.05711996,9.81002522 L3.83625083,9.81002522 C3.45943932,9.81002522 3.27103354,9.62161946 3.27103354,9.24480793 L3.27103354,9.19785143 C3.27103354,8.82103991 3.45943931,8.63263415 3.83625083,8.63263415 Z" id="路径" fill="#FFFFFF" fill-rule="nonzero"></path>
                </g>
            </g>
        </g>
    </g>
</svg>