<?xml version="1.0" encoding="UTF-8"?>
<svg width="36px" height="36px" viewBox="0 0 36 36" version="1.1" xmlns="http://www.w3.org/2000/svg" xmlns:xlink="http://www.w3.org/1999/xlink">
    <title>编组 6</title>
    <defs>
        <linearGradient x1="0%" y1="0%" x2="100%" y2="100%" id="linearGradient-1">
            <stop stop-color="#8B82FF" offset="0%"></stop>
            <stop stop-color="#A082FF" offset="100%"></stop>
        </linearGradient>
    </defs>
    <g id="风格7.0" stroke="none" stroke-width="1" fill="none" fill-rule="evenodd">
        <g id="icon" transform="translate(-89.000000, -322.000000)">
            <g id="编组-6" transform="translate(89.000000, 322.000000)">
                <rect id="矩形备份-23" fill="url(#linearGradient-1)" x="0" y="0" width="36" height="36" rx="7"></rect>
                <g id="编组" transform="translate(10.000000, 10.000000)" fill="#FFFFFF" fill-rule="nonzero">
                    <path d="M12.6084845,0.00809585492 C13.7062824,0.00809585492 14.5984456,0.900259067 14.5984456,1.99805699 L14.5984456,9.95628238 C14.5984456,10.2570066 14.4000905,10.5100389 14.1266501,10.5921093 L14.0328914,10.6129286 L13.9345855,10.6201425 L3.32253886,10.6201425 C2.22474093,10.6201425 1.33257772,11.5123057 1.33257772,12.6101036 C1.33257772,13.7079016 2.22474093,14.6000648 3.32253886,14.6000648 L13.9345855,14.6000648 C14.3005181,14.6000648 14.5984456,14.8963731 14.5984456,15.2639249 C14.5984456,15.6314767 14.3005181,15.9245466 13.9345855,15.9245466 L3.32253886,15.9245466 C1.49449482,15.9245466 0.00647668393,14.4365285 0.00647668393,12.6084845 L0.00647668393,1.99805699 C0.00647668393,0.900259067 0.898639896,0.00809585492 1.99643782,0.00809585492 L12.6084845,0.00809585492 Z M12.9387953,11.9446244 C13.3031088,11.9446244 13.6026554,12.2425518 13.6026554,12.6084845 C13.6026554,12.9727979 13.304728,13.2723446 12.9404145,13.2723446 L3.65446891,13.2723446 C3.29015544,13.2723446 2.99060881,12.9744171 2.99060881,12.6084845 C2.99060881,12.244171 3.28853627,11.9446244 3.65446891,11.9446244 L12.9387953,11.9446244 Z M7.75447668,6.45909585 L7.72147668,6.48909585 L7.73247668,6.48009585 L7.72280854,6.48910209 L7.72280854,6.48910209 L7.71647668,6.49309585 L7.67213023,6.52682612 L7.67213023,6.52682612 C7.65793425,6.53616751 7.64312296,6.54537895 7.62794598,6.55400969 C7.61575269,6.56087738 7.60392416,6.56704491 7.59195303,6.57283276 C7.57169887,6.58300665 7.55012893,6.59223971 7.52802431,6.60032385 C7.51770748,6.60338144 7.50794147,6.60662528 7.4981175,6.60963743 C7.4364379,6.62974721 7.37058174,6.64022021 7.30246114,6.64022021 C7.26791724,6.64022021 7.23395564,6.63754164 7.20077649,6.63238051 C7.19019396,6.62980257 7.17945682,6.62790875 7.16876394,6.62575162 C7.14830992,6.62233857 7.12873292,6.61731008 7.10951633,6.61142796 C7.09162508,6.6056148 7.07334682,6.59928892 7.05532658,6.59214655 L7.01534291,6.57448042 L7.01534291,6.57448042 C6.99716017,6.56610715 6.9792788,6.55658387 6.9617859,6.54618718 L6.93570667,6.52893586 L6.93570667,6.52893586 C6.91822344,6.51827944 6.90178364,6.506281 6.88581763,6.49343197 C6.87448035,6.48304288 6.86314969,6.47323332 6.85216047,6.46305846 C6.84555825,6.45832499 6.83918078,6.45219891 6.83290155,6.44591969 L6.79047668,6.39709585 L6.80647668,6.41709585 L6.78926496,6.39777362 C6.77564972,6.38117597 6.76296477,6.36405329 6.7512101,6.34647731 C6.74538619,6.33654455 6.73929471,6.32700356 6.73344401,6.31730224 C6.70624457,6.27271909 6.68530436,6.22537793 6.67009441,6.17658108 C6.64954204,6.11374715 6.63860104,6.04629558 6.63860104,5.9763601 L6.63860104,1.33419689 L1.99643782,1.33419689 C1.63050518,1.33419689 1.33257772,1.63212435 1.33257772,1.99805699 L1.33276411,9.95757585 C1.88743744,9.54013076 2.57668631,9.29242228 3.32253886,9.29242228 L13.2704767,9.29209585 L13.2707254,1.99805699 C13.2707254,1.63212435 12.9727979,1.33419689 12.6068653,1.33419689 L11.7147021,1.33419689 L11.7147021,5.9763601 C11.7147021,6.01053651 11.7120659,6.04414295 11.7069875,6.07698558 C11.6984572,6.13032229 11.6839893,6.1833317 11.6629545,6.23418597 C11.6583769,6.2427737 11.6543549,6.25166526 11.6501448,6.26045232 C11.6195227,6.32873916 11.5759562,6.39198425 11.5204016,6.44753886 C11.3916775,6.57626295 11.2216645,6.640625 11.0516516,6.6404226 L11.050842,6.64022021 L11.0266545,6.63992739 C10.9494902,6.63696062 10.8727433,6.62067594 10.800281,6.59105438 C10.7882874,6.5858883 10.7764271,6.5805987 10.7647527,6.57497698 C10.7503316,6.56836143 10.7364784,6.56108996 10.7228487,6.5532951 L10.6767961,6.52400211 C10.6674797,6.51792978 10.6587604,6.51159799 10.6501685,6.50502681 C10.6296897,6.48917667 10.609994,6.47231193 10.5913352,6.45437234 C10.5885728,6.45157533 10.5857272,6.44876311 10.5829016,6.44591969 L9.17647668,5.04009585 L7.77040155,6.44591969 L7.75584871,6.45960118 L7.73547668,6.47709585 L7.75447668,6.45909585 Z M10.3869819,1.33419689 L7.96632124,1.33419689 L7.96547668,4.37509585 L8.69423202,3.64578739 L8.70628238,3.63341969 L8.70628238,3.63341969 C8.7634037,3.57629837 8.82865537,3.53185085 8.89842956,3.50007712 C9.14395505,3.38667163 9.44588933,3.43066912 9.64702073,3.63180052 L9.67347668,3.66309585 L10.3864767,4.37609585 L10.3869819,1.33419689 Z" id="形状结合"></path>
                </g>
            </g>
        </g>
    </g>
</svg>