<?xml version="1.0" encoding="UTF-8"?>
<svg width="348px" height="194px" viewBox="0 0 348 194" version="1.1" xmlns="http://www.w3.org/2000/svg" xmlns:xlink="http://www.w3.org/1999/xlink">
    <title>分组 11</title>
    <defs>
        <path d="M20,0 L328,0 C339.045695,-2.02906125e-15 348,8.954305 348,20 L348,173 C348,184.045695 339.045695,193 328,193 L20,193 C8.954305,193 1.3527075e-15,184.045695 0,173 L0,20 C-1.3527075e-15,8.954305 8.954305,2.02906125e-15 20,0 Z" id="path-1"></path>
        <linearGradient x1="13.1013599%" y1="0%" x2="83.5608438%" y2="100%" id="linearGradient-3">
            <stop stop-color="#A1C4FD" offset="0%"></stop>
            <stop stop-color="#C2E9FB" offset="100%"></stop>
        </linearGradient>
        <linearGradient x1="71.2169413%" y1="90.8163715%" x2="36.2411903%" y2="42.9220445%" id="linearGradient-4">
            <stop stop-color="#A1C4FD" offset="0%"></stop>
            <stop stop-color="#FFFFFF" offset="100%"></stop>
        </linearGradient>
        <linearGradient x1="50%" y1="12.4281629%" x2="50%" y2="100%" id="linearGradient-5">
            <stop stop-color="#ECF5FF" offset="0%"></stop>
            <stop stop-color="#EFF4FF" offset="100%"></stop>
        </linearGradient>
        <path d="M23.0361699,39.490577 L145.456959,39.490577 L145.456959,104.650029 C145.456959,108.285036 142.510203,111.231792 138.875196,111.231792 L29.6179328,111.231792 C25.9829255,111.231792 23.0361699,108.285036 23.0361699,104.650029 L23.0361699,39.490577 L23.0361699,39.490577 Z" id="path-6"></path>
        <filter x="-7.8%" y="-11.8%" width="115.5%" height="126.5%" filterUnits="objectBoundingBox" id="filter-7">
            <feOffset dx="0" dy="1" in="SourceAlpha" result="shadowOffsetOuter1"></feOffset>
            <feGaussianBlur stdDeviation="3" in="shadowOffsetOuter1" result="shadowBlurOuter1"></feGaussianBlur>
            <feColorMatrix values="0 0 0 0 0.273692255   0 0 0 0 0.171170571   0 0 0 0 0.077132402  0 0 0 0.0469296329 0" type="matrix" in="shadowBlurOuter1"></feColorMatrix>
        </filter>
        <rect id="path-8" x="0" y="0" width="28.9597565" height="34.2251667" rx="3.9490577"></rect>
        <filter x="-32.8%" y="-24.8%" width="165.6%" height="155.5%" filterUnits="objectBoundingBox" id="filter-9">
            <feOffset dx="0" dy="1" in="SourceAlpha" result="shadowOffsetOuter1"></feOffset>
            <feGaussianBlur stdDeviation="3" in="shadowOffsetOuter1" result="shadowBlurOuter1"></feGaussianBlur>
            <feColorMatrix values="0 0 0 0 0.273692255   0 0 0 0 0.171170571   0 0 0 0 0.077132402  0 0 0 0.0469296329 0" type="matrix" in="shadowBlurOuter1"></feColorMatrix>
        </filter>
        <rect id="path-10" x="0" y="0" width="28.9597565" height="34.2251667" rx="3.9490577"></rect>
        <filter x="-32.8%" y="-24.8%" width="165.6%" height="155.5%" filterUnits="objectBoundingBox" id="filter-11">
            <feOffset dx="0" dy="1" in="SourceAlpha" result="shadowOffsetOuter1"></feOffset>
            <feGaussianBlur stdDeviation="3" in="shadowOffsetOuter1" result="shadowBlurOuter1"></feGaussianBlur>
            <feColorMatrix values="0 0 0 0 0.273692255   0 0 0 0 0.171170571   0 0 0 0 0.077132402  0 0 0 0.0469296329 0" type="matrix" in="shadowBlurOuter1"></feColorMatrix>
        </filter>
        <linearGradient x1="100%" y1="49.4218985%" x2="-1.48956222%" y2="50.5781015%" id="linearGradient-12">
            <stop stop-color="#6AC1FF" offset="0%"></stop>
            <stop stop-color="#3B91FF" offset="100%"></stop>
        </linearGradient>
        <linearGradient x1="53.4124336%" y1="100%" x2="46.5875664%" y2="0%" id="linearGradient-13">
            <stop stop-color="#44D7B6" offset="0%"></stop>
            <stop stop-color="#1FC8DC" offset="100%"></stop>
        </linearGradient>
        <linearGradient x1="62.012758%" y1="-39.9737705%" x2="43.946315%" y2="98.5210915%" id="linearGradient-14">
            <stop stop-color="#13C2C2" offset="0%"></stop>
            <stop stop-color="#09B7B7" offset="100%"></stop>
        </linearGradient>
        <polygon id="path-15" points="0.197341184 0.0653747073 2.31849884 17.6096941 19.659362 17.6096941 21.8261992 0.0653747073"></polygon>
        <path d="M7.88396525,0.0771381474 C2.85009501,6.75367854 0.333159895,14.3716002 0.333159895,22.9309031 C0.333159895,31.490206 2.85009501,40.6350843 7.88396525,50.3655379 C13.404701,40.3046882 16.1650689,31.1598099 16.1650689,22.9309031 C16.1650689,14.7019963 13.404701,7.08407464 7.88396525,0.0771381474 Z" id="path-17"></path>
        <linearGradient x1="51.4853081%" y1="100%" x2="48.5146919%" y2="0%" id="linearGradient-19">
            <stop stop-color="#44D7B6" offset="0%"></stop>
            <stop stop-color="#1FC8DC" offset="100%"></stop>
        </linearGradient>
        <linearGradient x1="57.6155369%" y1="100%" x2="42.3844631%" y2="0%" id="linearGradient-20">
            <stop stop-color="#44D7B6" offset="0%"></stop>
            <stop stop-color="#1FC8DC" offset="100%"></stop>
        </linearGradient>
        <path d="M0.840965866,0.351394422 C-0.535242752,6.45442241 -0.222366619,12.5243611 1.77959427,18.5612106 C3.78155515,24.59806 7.9718356,30.0501673 14.3504356,34.9175323 C15.790807,28.1678001 15.1597541,21.3004271 12.4572769,14.3154131 C9.75479975,7.33039911 5.88269605,2.55859475 0.840965866,0" id="path-21"></path>
        <linearGradient x1="58.2279495%" y1="100%" x2="41.7720505%" y2="0%" id="linearGradient-23">
            <stop stop-color="#44D7B6" offset="0%"></stop>
            <stop stop-color="#1FC8DC" offset="100%"></stop>
        </linearGradient>
    </defs>
    <g id="风格7.0" stroke="none" stroke-width="1" fill="none" fill-rule="evenodd">
        <g id="设计器首页切换bo" transform="translate(-1004.000000, -66.000000)">
            <g id="分组-11" transform="translate(1004.000000, 66.920319)">
                <mask id="mask-2" fill="white">
                    <use xlink:href="#path-1"></use>
                </mask>
                <use id="蒙版" fill="#FFFFFF" xlink:href="#path-1"></use>
                <circle id="椭圆形备份-23" fill="url(#linearGradient-3)" opacity="0.370535714" mask="url(#mask-2)" cx="327.896414" cy="172.896414" r="76.9482072"></circle>
                <circle id="椭圆形备份-24" fill="url(#linearGradient-4)" opacity="0.0886114211" mask="url(#mask-2)" cx="8.3187251" cy="-6.64940239" r="76.9482072"></circle>
                <g id="编组-3" mask="url(#mask-2)">
                    <g transform="translate(-11.091633, 6.437098)">
                        <path d="M245.40239,7.93440091 C244.015936,18.9558924 235.003984,29.2706136 218.366534,38.8785645 C193.410359,53.2904908 180.932271,67.9189642 174.885797,94.4193709 C168.839322,120.919778 131.713147,118.778837 95.6653386,135.811601 C59.6175299,152.844365 59.9641434,180.904341 0,165.035539 C4.33589539,166.48177 9.78411528,194.704148 16.3446597,195.748748 C43.4694384,200.067681 126.939157,198.822265 266.753815,192.012502 C268.710544,181.499633 279.109362,174.375255 297.950269,170.639369 C326.211629,165.035539 336.128486,152.525882 340.981076,115.100852 C344.216135,90.1508323 352.085974,75.3226043 364.590592,70.6161681 L370.183267,7.10542736e-15 L245.40239,7.93440091 Z" id="路径-11" fill="url(#linearGradient-5)" opacity="0.398856027"></path>
                        <g id="编组-2" stroke-width="1" fill="none" transform="translate(185.091633, 35.642583)">
                            <g id="矩形" opacity="0.9">
                                <use fill="black" fill-opacity="1" filter="url(#filter-7)" xlink:href="#path-6"></use>
                                <use fill="#FFFFFF" fill-rule="evenodd" xlink:href="#path-6"></use>
                            </g>
                            <rect id="矩形" fill="#489EFF" opacity="0.220028832" x="32.2506379" y="46.7305161" width="14.4798782" height="14.4798782" rx="4.60723399"></rect>
                            <rect id="矩形备份-17" fill="#489EFF" opacity="0.220028832" x="54.6286315" y="46.7305161" width="14.4798782" height="14.4798782" rx="4.60723399"></rect>
                            <rect id="矩形备份-15" fill="#489EFF" opacity="0.102608817" x="32.2506379" y="67.7921572" width="59.2358655" height="34.2251667" rx="4.60723399"></rect>
                            <rect id="矩形备份-14" fill="#489EFF" opacity="0.220028832" x="77.0066252" y="46.7305161" width="14.4798782" height="14.4798782" rx="4.60723399"></rect>
                            <rect id="矩形备份-13" fill="#489EFF" x="98.0682663" y="46.7305161" width="38.1742245" height="14.4798782" rx="4.60723399"></rect>
                            <rect id="矩形备份-16" fill="#489EFF" opacity="0.220028832" x="98.0682663" y="67.7921572" width="38.1742245" height="34.2251667" rx="4.60723399"></rect>
                            <g id="编组-7" transform="translate(0.000000, 92.144680)">
                                <g id="矩形备份-6" opacity="0.9">
                                    <use fill="black" fill-opacity="1" filter="url(#filter-9)" xlink:href="#path-8"></use>
                                    <use fill="#FFFFFF" fill-rule="evenodd" xlink:href="#path-8"></use>
                                </g>
                                <rect id="矩形" fill="#489EFF" x="5.26541027" y="18.4289359" width="18.4289359" height="8.55629169" rx="2.63270513"></rect>
                                <rect id="矩形备份-7" fill="#489EFF" x="5.26541027" y="7.23993912" width="11.8471731" height="3.29088142" rx="1.64544071"></rect>
                                <rect id="矩形备份-12" fill="#489EFF" opacity="0.435895647" x="5.26541027" y="12.5053494" width="18.4289359" height="3.29088142" rx="1.64544071"></rect>
                            </g>
                            <g id="编组-7备份" transform="translate(138.875196, 0.000000)">
                                <g id="矩形备份-6" opacity="0.9">
                                    <use fill="black" fill-opacity="1" filter="url(#filter-11)" xlink:href="#path-10"></use>
                                    <use fill="#FFFFFF" fill-rule="evenodd" xlink:href="#path-10"></use>
                                </g>
                                <path d="M14.4200594,9.9923142 L14.4200591,9.9923142 C10.4545989,9.9923142 7.23993882,13.2069589 7.23993882,17.1724345 C7.23993882,21.1378946 10.4545835,24.3525548 14.4200591,24.3525548 C18.3855193,24.3525548 21.6001794,21.1379101 21.6001794,17.1724345 L14.4200591,17.1724345 L14.4200591,9.9923142 L14.4200594,9.9923142 Z" id="路径" fill="#489EFF" opacity="0.435895647"></path>
                                <path d="M23.0361883,15.7364104 L23.0361883,15.7364104 C23.0361883,11.7709503 19.8215436,8.55629014 15.856068,8.55629014 C15.856068,8.55629014 15.856068,8.55629014 15.856068,8.55629014 L15.856068,15.7364104 L23.0361883,15.7364104 Z" id="路径" fill="#489EFF"></path>
                            </g>
                            <path d="M29.6179328,27.6434039 L138.875196,27.6434039 C142.510203,27.6434039 145.456959,30.5901595 145.456959,34.2251667 L145.456959,40.8069296 L145.456959,40.8069296 L23.0361699,40.8069296 L23.0361699,34.2251667 C23.0361699,30.5901595 25.9829255,27.6434039 29.6179328,27.6434039 Z" id="矩形" fill="url(#linearGradient-12)"></path>
                        </g>
                        <g id="编组" stroke-width="1" fill="none" transform="translate(311.258964, 99.909515)">
                            <path d="M27.8407655,0 C23.9098748,6.02900105 21.5961636,11.2241495 20.8996317,15.5854454 C20.2030999,19.9467412 20.6024168,26.7384678 22.0975825,35.960625 C26.5119011,29.1333448 29.0486449,23.6560291 29.707814,19.5286781 C30.366983,15.4013271 29.7446335,8.89176775 27.8407655,0 Z" id="路径-5" fill="url(#linearGradient-13)"></path>
                            <path d="M26.1938697,29.5322471 C31.3476546,36.9611361 32.9874952,44.492044 31.1133917,52.1249707 C29.2392881,59.7578974 25.11564,66.3895855 18.7424475,72.0200349 C12.1778605,64.1318337 9.60865156,56.121746 11.0348207,47.9897718 C12.4609899,39.8577977 17.5140062,33.7052894 26.1938697,29.5322471 Z" id="路径-6" fill="url(#linearGradient-14)"></path>
                            <path d="M15.1016107,51.6204656 C15.0265458,56.4767807 15.1482622,59.8188055 15.4667599,61.6465399 C16.3192327,66.5385504 18.2365118,69.5189163 18.9752988,70.5899698" id="路径-3" stroke="#5AF0D5" stroke-width="0.702788845" stroke-linecap="round"></path>
                            <g id="矩形" transform="translate(7.730677, 75.901195)">
                                <mask id="mask-16" fill="white">
                                    <use xlink:href="#path-15"></use>
                                </mask>
                                <use id="蒙版" fill="#489EFF" xlink:href="#path-15"></use>
                                <polygon fill="#2D8CF6" mask="url(#mask-16)" points="0 0 7.73067729 0 9.95463778 17.6096941 2.22396049 17.6096941"></polygon>
                            </g>
                            <rect id="矩形" fill="#96D1FF" x="6.51578209" y="70.5899698" width="24.5976096" height="5.62231076"></rect>
                            <g id="路径-8" transform="translate(7.217645, 3.235419)">
                                <mask id="mask-18" fill="white">
                                    <use xlink:href="#path-17"></use>
                                </mask>
                                <use id="蒙版" fill="#C1FFD8" xlink:href="#path-17"></use>
                                <path d="M8.2491144,-0.702788845 C7.2331663,8.75928461 6.69770112,17.4006602 6.64271887,25.221338 C6.58773661,33.0420158 7.0014854,41.7135814 7.88396525,51.2360349 C2.10003267,40.4340926 -0.761910206,30.7625899 -0.701863374,22.2215269 C-0.641816541,13.6804638 2.34184272,6.03902521 8.2491144,-0.702788845 Z" fill="url(#linearGradient-19)" mask="url(#mask-18)"></path>
                            </g>
                            <path d="M32.3350244,21.244706 C28.0803269,24.2169595 25.0962235,28.2617519 23.3827144,33.379083 C21.6692052,38.4964142 21.6692052,44.2622345 23.3827144,50.676544 C27.6856891,46.6187791 30.6697925,42.0926066 32.3350244,37.0980267 C34.0002564,32.1034467 34.0002564,26.8190065 32.3350244,21.244706 Z" id="路径-4" fill="url(#linearGradient-20)"></path>
                            <g id="路径-7" transform="translate(0.000000, 30.531006)">
                                <mask id="mask-22" fill="white">
                                    <use xlink:href="#path-21"></use>
                                </mask>
                                <use id="蒙版" fill="#C1FFD8" xlink:href="#path-21"></use>
                                <path d="M0.840965866,0 C3.38374442,9.63592402 5.63532271,16.987352 7.59570074,22.0542839 C9.55607876,27.1212157 11.8076571,31.4089652 14.3504356,34.9175323 C7.71359652,29.7314454 3.52331607,24.2793382 1.77959427,18.5612106 C0.0358724639,12.8430829 -0.277003669,6.65601276 0.840965866,0 Z" fill="url(#linearGradient-23)" mask="url(#mask-22)"></path>
                            </g>
                            <path d="M23.9647066,48.6474217 C22.0312557,53.0978071 20.8988835,56.4951251 20.5675901,58.8393755 C20.2362966,61.1836259 20.2362966,65.1004907 20.5675901,70.5899698" id="路径-2" stroke="#5AF0D5" stroke-width="0.702788845" stroke-linecap="round"></path>
                            <path d="M13.9467416,64.7675062 C14.562108,65.9579887 15.1852035,67.044454 15.8160284,68.0269021 C16.4468532,69.0093503 17.0699488,69.8637062 17.6853151,70.5899698" id="路径-9" stroke="#5AF0D5" stroke-width="0.585657371" stroke-linecap="round"></path>
                        </g>
                    </g>
                </g>
            </g>
        </g>
    </g>
</svg>