<?xml version="1.0" encoding="UTF-8"?>
<svg width="18px" height="18px" viewBox="0 0 18 18" version="1.1" xmlns="http://www.w3.org/2000/svg" xmlns:xlink="http://www.w3.org/1999/xlink">
    <title>编组</title>
    <g id="风格7.0" stroke="none" stroke-width="1" fill="none" fill-rule="evenodd">
        <g id="设计器首页新建" transform="translate(-103.000000, -158.000000)" fill="#FFFFFF" fill-rule="nonzero">
            <g id="编组-6" transform="translate(76.000000, 135.000000)">
                <g id="编组-13" transform="translate(27.000000, 23.000000)">
                    <path d="M15.375,3.00000001 C15.9544664,3.00000001 16.4391212,3.44020994 16.49475,4.01700001 L16.5,4.12500001 L16.5,9.75000001 C16.4995598,10.14682 16.1900921,10.4746236 15.7939539,10.497879 C15.3978156,10.5211345 15.0521181,10.2317928 15.00525,9.83775001 L15,9.75000001 L15,4.50000001 L4.50000001,4.50000001 L4.50000001,15 L9.75000001,15 C10.1302311,15.0000502 10.450263,15.2846303 10.49475,15.66225 L10.5,15.75 C10.4999498,16.1302311 10.2153697,16.450263 9.83775001,16.49475 L9.75000001,16.5 L4.12500001,16.5 C3.54553357,16.5 3.06087877,16.0597901 3.00524999,15.483 L3.00000001,15.375 L3.00000001,4.12500001 C3.00000001,3.54553357 3.44020993,3.06087877 4.01700001,3.00524999 L4.12500001,3.00000001 L15.375,3.00000001 Z" id="路径"></path>
                    <path d="M12.375,0 C12.9544664,0 13.4391212,0.44020993 13.49475,1.017 L13.5,1.125 L13.5,3.5685 L12,3.5685 L12,1.5 L1.5,1.5 L1.5,12 L3.61499999,12 L3.61499999,13.5 L1.125,13.5 C0.545533569,13.5 0.0608787827,13.0597901 0.00525000586,12.483 L0,12.375 L0,1.125 C0,0.545533569 0.44020993,0.0608787827 1.017,0.00525000586 L1.125,0 L12.375,0 Z" id="路径"></path>
                    <path d="M12,7.50000001 C12.4583333,7.50000001 12.7065972,7.71006945 12.7447917,8.13020833 L12.75,8.24999999 C12.75,8.75 12.5,9.00000001 12,9.00000001 L7.50000001,9.00000001 C7.04166667,9.00000001 6.79340278,8.78993055 6.75520833,8.36979166 L6.75,8.24999999 C6.75,7.74999999 7,7.50000001 7.50000001,7.50000001 L12,7.50000001 Z" id="路径"></path>
                    <path d="M14.2751308,11.3882265 C14.5373531,11.456863 14.742137,11.6616469 14.8107735,11.9238692 C14.8794101,12.1860915 14.8012178,12.4649442 14.60625,12.65325 L13.7595,13.49925 L17.2065,13.5 C17.5867311,13.5000502 17.906763,13.7846303 17.95125,14.16225 L17.9565,14.25 C17.9565,14.6642136 17.6207136,15 17.2065,15 L13.77975,15 L14.60625,15.825 C14.7958241,16.0144401 14.8699326,16.2906265 14.8006597,16.5495225 C14.7313868,16.8084185 14.5292567,17.0106916 14.2704097,17.0801475 C14.0115628,17.1496034 13.7353241,17.0756901 13.54575,16.88625 L11.51325,14.85525 C11.4078306,14.7779707 11.3243433,14.6745808 11.271,14.55525 L11.2428954,14.4832488 L11.2245,14.41425 C11.2144236,14.3731631 11.2081472,14.3312365 11.20575,14.289 L11.20575,14.19 C11.2162952,14.0066819 11.2939905,13.8336697 11.424,13.704 L11.50125,13.6365 L13.54575,11.59275 C13.7340558,11.3977822 14.0129085,11.3195899 14.2751308,11.3882265 Z" id="路径"></path>
                </g>
            </g>
        </g>
    </g>
</svg>