<?xml version="1.0" encoding="UTF-8"?>
<svg width="36px" height="36px" viewBox="0 0 36 36" version="1.1" xmlns="http://www.w3.org/2000/svg" xmlns:xlink="http://www.w3.org/1999/xlink">
    <title>编组 22</title>
    <defs>
        <linearGradient x1="0%" y1="0%" x2="100%" y2="100%" id="linearGradient-1">
            <stop stop-color="#1FC8DC" offset="0%"></stop>
            <stop stop-color="#41D2BD" offset="100%"></stop>
        </linearGradient>
    </defs>
    <g id="风格7.0" stroke="none" stroke-width="1" fill="none" fill-rule="evenodd">
        <g id="新建元数据-全部" transform="translate(-154.000000, -685.000000)">
            <g id="编组-22" transform="translate(154.000000, 685.000000)">
                <rect id="矩形备份-21" fill="url(#linearGradient-1)" x="0" y="0" width="36" height="36" rx="7"></rect>
                <g id="编组" transform="translate(8.000000, 10.000000)" fill="#FFFFFF" fill-rule="nonzero">
                    <path d="M1.40025978,13.4843674 L0.743047066,13.4843674 C0.418352689,13.4843674 0.15625,13.2222647 0.15625,12.8975703 C0.15625,12.5728759 0.418352689,12.3107732 0.743047066,12.3107732 L1.40417176,12.3107732 C1.72886614,12.3107732 1.99096883,12.5728759 1.99096883,12.8975703 C1.99096883,13.2222647 1.72495416,13.4843674 1.40025978,13.4843674 Z M1.5762989,13.9068612 L1.11077323,14.3723869 C0.879966381,14.6031938 0.879966381,14.9748319 1.11077323,15.2017268 C1.22422066,15.3151742 1.3767879,15.3738539 1.52544315,15.3738539 C1.67409841,15.3738539 1.82666565,15.3151742 1.94011308,15.2017268 L2.40563875,14.7362011 C2.6364456,14.5053943 2.6364456,14.1337561 2.40563875,13.9068612 C2.17483191,13.6760544 1.80319377,13.6760544 1.5762989,13.9068612 Z M3.41101773,14.3215312 C3.08632335,14.3215312 2.82422066,14.5836339 2.82422066,14.9083282 L2.82422066,15.5694529 C2.82422066,15.8941473 3.08632335,16.15625 3.41101773,16.15625 C3.7357121,16.15625 3.99781479,15.8941473 3.99781479,15.5694529 L3.99781479,14.9083282 C3.99781479,14.5836339 3.7357121,14.3215312 3.41101773,14.3215312 Z M5.24964853,13.9068612 C5.01884169,13.6760544 4.64720355,13.6760544 4.42030868,13.9068612 C4.18950183,14.1376681 4.18950183,14.5093062 4.42030868,14.7362011 L4.88583435,15.2017268 C4.99928178,15.3151742 5.15184902,15.3738539 5.30050428,15.3738539 C5.44915954,15.3738539 5.60172677,15.3151742 5.71517421,15.2017268 C5.94598105,14.9709199 5.94598105,14.5992818 5.71517421,14.3723869 L5.24964853,13.9068612 Z M6.08290037,12.3107732 L5.42177567,12.3107732 C5.0970813,12.3107732 4.83497861,12.5728759 4.83497861,12.8975703 C4.83497861,13.2222647 5.0970813,13.4843674 5.42177567,13.4843674 L6.08290037,13.4843674 C6.40759474,13.4843674 6.66969743,13.2222647 6.66969743,12.8975703 C6.66969743,12.5728759 6.40759474,12.3107732 6.08290037,12.3107732 Z M18.5347341,2.99243582 L18.5347341,12.7802109 C18.5347341,13.8873013 17.6349786,14.7870568 16.5278881,14.7870568 L7.94109108,14.7870568 C7.6163967,14.7870568 7.35429401,14.5249542 7.35429401,14.2002598 C7.35429401,13.8755654 7.6163967,13.6134627 7.94109108,13.6134627 L16.5318001,13.6134627 C16.9895018,13.6134627 17.365052,13.2418246 17.365052,12.7802109 L17.365052,4.9171302 L5.48436736,4.9171302 L5.48436736,9.55282702 C5.48436736,9.70148227 5.42959963,9.84622555 5.32788814,9.95184902 L4.02911064,11.3406021 L4.02911064,12.8271546 C4.02911064,13.151849 3.76700795,13.4139517 3.44231357,13.4139517 C3.11761919,13.4139517 2.8555165,13.151849 2.8555165,12.8271546 L2.8555165,11.3406021 L1.556739,9.95184902 C1.45502751,9.84231357 1.40025978,9.70148227 1.40025978,9.55282702 L1.40025978,0.743047066 C1.40025978,0.418352689 1.66236247,0.15625 1.98705685,0.15625 L4.90539425,0.15625 C5.23008863,0.15625 5.49219132,0.418352689 5.49219132,0.743047066 L5.49219132,0.989501834 L16.5357121,0.989501834 C17.6349786,0.985589853 18.5347341,1.88534535 18.5347341,2.99243582 Z M4.31077323,1.32984413 L2.56994193,1.32984413 L2.56994193,9.32593215 L3.44231357,10.2569835 L4.31468521,9.32593215 L4.31468521,1.32984413 L4.31077323,1.32984413 Z M17.36114,3.74353606 L17.36114,2.99243582 C17.36114,2.53473411 16.9895018,2.15918399 16.5278881,2.15918399 L5.48436736,2.15918399 L5.48436736,3.74353606 L17.36114,3.74353606 Z M8.80563875,11.3445141 C8.95429401,11.3445141 9.10686125,11.2858344 9.22030868,11.1723869 C9.45111553,10.9415801 9.45111553,10.5699419 9.22030868,10.3430471 L8.12886614,9.25160452 L9.1968368,8.18363386 C9.42764364,7.95282702 9.42764364,7.58118888 9.1968368,7.35429401 C8.96602995,7.12348716 8.59439181,7.12348716 8.36749694,7.35429401 L6.88485636,8.8369346 C6.65404951,9.06774144 6.65404951,9.43937958 6.88485636,9.66627445 L8.39096883,11.1723869 C8.50441626,11.2897463 8.65307152,11.3445141 8.80563875,11.3445141 Z M13.4648075,11.1723869 C13.5782549,11.2858344 13.7308221,11.3445141 13.8794774,11.3445141 C14.0281326,11.3445141 14.1806999,11.2858344 14.2941473,11.1723869 L15.8002598,9.66627445 C16.0310666,9.4354676 16.0310666,9.06382946 15.8002598,8.8369346 L14.3176192,7.35429401 C14.0868123,7.12348716 13.7151742,7.12348716 13.4882793,7.35429401 C13.2574725,7.58510086 13.2574725,7.956739 13.4882793,8.18363386 L14.55625,9.25160452 L13.4648075,10.3430471 C13.2379126,10.5738539 13.2379126,10.9454921 13.4648075,11.1723869 L13.4648075,11.1723869 Z M10.1904798,12.2833894 C10.4134627,12.2833894 10.6286216,12.154294 10.7264211,11.9352231 L12.9679859,6.92788814 C13.1009933,6.63057763 12.9679859,6.28632335 12.6706754,6.15331601 C12.3733649,6.02030868 12.0291106,6.15331601 11.8961033,6.45062653 L9.65453851,11.4579615 C9.52153117,11.755272 9.65453851,12.0995263 9.95184902,12.2325336 C10.0261767,12.2677414 10.1083282,12.2833894 10.1904798,12.2833894 Z" id="形状"></path>
                </g>
            </g>
        </g>
    </g>
</svg>