<?xml version="1.0" encoding="UTF-8"?>
<svg width="20px" height="20px" viewBox="0 0 20 20" version="1.1" xmlns="http://www.w3.org/2000/svg" xmlns:xlink="http://www.w3.org/1999/xlink">
    <title>编组 5</title>
    <g id="风格7.0" stroke="none" stroke-width="1" fill="none" fill-rule="evenodd">
        <g id="点击文件管理器页签备份-3" transform="translate(-87.000000, -334.000000)">
            <g id="编组-5" transform="translate(87.000000, 334.000000)">
                <rect id="矩形" stroke="#E8E9EF" x="0.5" y="0.5" width="19" height="19" rx="4"></rect>
                <g id="2" transform="translate(5.000000, 5.000000)" stroke="#5B5B5B" stroke-linecap="round" stroke-linejoin="round">
                    <path d="M0.000957352941,9.58153309 C0.000957352941,9.69080515 0.0921503676,9.77941176 0.204649632,9.77941176 L9.57412132,9.77941176 C9.68661029,9.77941176 9.77781618,9.69083088 9.77781618,9.58158456 L9.77781618,9.34528309 C9.7825,9.27407353 9.79202206,8.91869485 9.55777941,8.52581985 C9.41005882,8.27809191 9.19568382,8.06407721 8.92057353,7.88974632 C8.58776471,7.67884559 8.16439338,7.52602941 7.6523125,7.43402574 C7.64852941,7.43353676 7.26883088,7.38319853 6.87984191,7.28386029 C6.20246324,7.11084191 6.14324632,6.95771691 6.14286029,6.95622426 C6.13887132,6.94109191 6.13310662,6.92655147 6.12572059,6.91288603 C6.1201875,6.88431985 6.10649632,6.77682353 6.13266912,6.48879412 C6.19911765,5.75724265 6.59152941,5.32488971 6.90683824,4.97751471 C7.00627941,4.86795956 7.1001875,4.76447794 7.17252941,4.66300368 C7.48451838,4.22524632 7.51347059,3.72747426 7.51478309,3.69661765 C7.51478309,3.63410662 7.50760294,3.58271324 7.49223897,3.53507721 C7.46161397,3.43975368 7.40399265,3.38035662 7.36191544,3.33699265 L7.36163235,3.33668382 C7.35102941,3.32577206 7.34101838,3.31542647 7.33283456,3.30593015 C7.32972059,3.30230147 7.32143382,3.29270221 7.32897426,3.24341912 C7.35666544,3.06201103 7.37329044,2.91012132 7.38126838,2.76541176 C7.39547426,2.50759559 7.40656618,2.12202941 7.34006618,1.74678309 C7.33185662,1.68270221 7.31775368,1.61501838 7.29580147,1.53438971 C7.22554412,1.27599191 7.11266912,1.05507243 6.95583824,0.872745588 C6.92886765,0.843402206 6.27313235,0.152558824 4.36954412,0.0108113971 C4.10632353,-0.00878602941 3.84611397,0.00177058824 3.58997059,0.0148621324 C3.52823162,0.0179143382 3.44369118,0.0221040441 3.36458088,0.0426022059 C3.16804044,0.0935143382 3.11559191,0.218088603 3.10182353,0.287808088 C3.07899632,0.403292647 3.11911765,0.493126838 3.14565074,0.552583088 L3.14565074,0.552588235 L3.14565074,0.552595956 C3.14951103,0.561214706 3.15427206,0.571871691 3.14595956,0.599624632 C3.10177206,0.668057353 3.03226103,0.729752574 2.96138603,0.788202574 C2.94090074,0.8056125 2.4635625,1.21719706 2.4373125,1.75486397 C2.36654044,2.16377206 2.37189338,2.800875 2.45558456,3.24120588 C2.46044853,3.26552574 2.46762868,3.30152941 2.45597059,3.32584926 L2.45597059,3.32584926 C2.36597426,3.40650368 2.26395956,3.49791544 2.26421691,3.7065 C2.26529779,3.72747426 2.29425,4.22524632 2.60626471,4.66300368 C2.67852941,4.76440074 2.77236029,4.86780515 2.87172426,4.97728309 L2.87195588,4.97751471 L2.87195588,4.97754044 C3.18726471,5.32491544 3.57965074,5.75724265 3.646125,6.48876838 C3.67227206,6.77679779 3.65858088,6.88431985 3.65304779,6.91286029 C3.64566176,6.92652574 3.63989706,6.94106618 3.63593382,6.95619853 C3.63552206,6.95769118 3.57653676,7.11032721 2.90222059,7.28298529 C2.51320588,7.38260662 2.13023897,7.43351103 2.1188125,7.43515809 C1.62116912,7.51915809 1.20039191,7.66816544 0.868182721,7.87795956 C0.594004044,8.05113235 0.379219853,8.26553309 0.229787868,8.51521691 C-0.00896360294,8.91416544 -0.00250919118,9.27749632 0.000957352941,9.34381618 L0.000957352941,9.58153309 Z" id="路径"></path>
                </g>
            </g>
        </g>
    </g>
</svg>