<?xml version="1.0" encoding="UTF-8"?>
<svg width="36px" height="36px" viewBox="0 0 36 36" version="1.1" xmlns="http://www.w3.org/2000/svg" xmlns:xlink="http://www.w3.org/1999/xlink">
    <title>编组 23</title>
    <defs>
        <linearGradient x1="-1.48956222%" y1="100%" x2="100%" y2="-1.11889664e-14%" id="linearGradient-1">
            <stop stop-color="#2E77FF" offset="0%"></stop>
            <stop stop-color="#2A87FF" offset="100%"></stop>
        </linearGradient>
    </defs>
    <g id="风格7.0" stroke="none" stroke-width="1" fill="none" fill-rule="evenodd">
        <g id="新建元数据-全部" transform="translate(-154.000000, -668.000000)">
            <g id="编组-23" transform="translate(154.000000, 668.000000)">
                <g id="编组-21备份" fill="url(#linearGradient-1)">
                    <rect id="矩形备份-23" x="0" y="0" width="36" height="36" rx="7"></rect>
                </g>
                <g id="编组" transform="translate(12.000000, 8.000000)" fill="#FFFFFF" fill-rule="nonzero">
                    <path d="M6.65607955,3.08034801 L3.73985795,3.08034801 C3.57438122,3.08849625 3.41786524,3.00485199 3.33268474,2.86274913 C3.24750423,2.72064626 3.24750423,2.54318186 3.33268474,2.401079 C3.41786524,2.25897614 3.57438122,2.17533188 3.73985795,2.18348011 L6.65607955,2.18348011 C6.89516969,2.19525315 7.08297549,2.39253424 7.08297549,2.63191406 C7.08297549,2.87129389 6.89516969,3.06857498 6.65607955,3.08034801" id="路径"></path>
                    <path d="M0.006328125,1.34109375 L0.006328125,18.2792898 C0.006328125,19.0094318 0.599169034,19.6022727 1.33039773,19.6022727 L10.6250071,19.6022727 C11.3551491,19.6022727 11.9479687,19.0094318 11.9479687,18.2792898 L11.9479687,1.34109375 C11.9479687,0.60984375 11.3551491,0.0170241477 10.6250071,0.0170241477 L1.32931108,0.0170241477 C0.599169034,0.0170241477 0.006328125,0.60984375 0.006328125,1.34109375 Z M3.75948153,1.00762074 L9.69434659,1.00762074 C10.3514489,1.00762074 10.8843537,1.53943892 10.8843537,2.19654119 L10.8843537,17.4227344 C10.8843537,18.0798793 10.3514702,18.6127628 9.69434659,18.6127628 L2.25997159,18.6127628 C1.60273705,18.6127628 1.06994318,18.0799689 1.06994318,17.4227344 L1.06994318,2.19764915 C1.06994318,1.54050426 1.60393466,1.00870739 2.25997159,1.00870739 L3.75948153,1.00870739 L3.75948153,1.00762074 Z" id="形状"></path>
                    <path d="M5.51698307,16.8820359 C5.80104398,17.050447 6.15436085,17.050447 6.43842176,16.8820359 C6.72248267,16.7136249 6.8920195,16.4036409 6.88056818,16.073608 C6.86385161,15.5870292 6.46455756,15.2012175 5.97769176,15.2012175 C5.49082597,15.2012175 5.09153192,15.5870292 5.07481534,16.073608 C5.06338533,16.4036409 5.23292216,16.7136249 5.51698307,16.8820359 Z M7.55806504,3.0123468 C7.69372088,3.09108929 7.86117258,3.09108929 7.99682843,3.0123468 C8.13248428,2.9336043 8.21553416,2.78819869 8.21443892,2.63134943 C8.21443892,2.38999943 8.01878608,2.19434659 7.77743608,2.19434659 C7.53608607,2.19434659 7.34043324,2.38999943 7.34043324,2.63134943 C7.33935931,2.78819869 7.42240919,2.9336043 7.55806504,3.0123468 Z" id="形状"></path>
                </g>
                <rect id="矩形" fill="#FFFFFF" x="14" y="13" width="8" height="2" rx="1"></rect>
                <rect id="矩形备份-28" fill="#FFFFFF" x="14" y="16" width="8" height="2" rx="1"></rect>
            </g>
        </g>
    </g>
</svg>