<?xml version="1.0" encoding="UTF-8"?>
<svg width="16px" height="16px" viewBox="0 0 16 16" version="1.1" xmlns="http://www.w3.org/2000/svg" xmlns:xlink="http://www.w3.org/1999/xlink">
    <title>编组 6</title>
    <g id="页面-1备份" stroke="none" stroke-width="1" fill="none" fill-rule="evenodd">
        <g id="设计器首页" transform="translate(-1101.000000, -106.000000)">
            <g id="编组-6" transform="translate(1101.000000, 106.000000)">
                <g id="编组" transform="translate(0.000000, 2.000000)">
                    <path d="M0,1.82340426 L14.7414894,1.82340426 C15.412766,1.82340426 15.9574468,2.36808511 15.9574468,3.0393617 L15.9574468,11.55 C15.9574468,12.2212766 15.412766,12.7659574 14.7414894,12.7659574 L1.21595745,12.7659574 C0.544402692,12.7659574 0,12.2215548 0,11.55 L0,1.82340426 Z M1.21595745,0 L5.4893617,0 C5.89361702,0 6.27234043,0.20212766 6.49787234,0.537234043 L7.36382979,1.82446809 L0,1.82446809 L0,1.21595745 C0,0.544680851 0.544680851,0 1.21595745,0 Z" id="形状" fill="#388FFF"></path>
                    <path d="M6.28085106,6.74361702 C6.63510638,7.09468085 6.66382979,7.65106383 6.36276596,8.03404255 L6.28085106,8.12659574 L4.80638298,9.58617021 C4.58161518,9.80881415 4.22359228,9.82166178 3.98344404,9.61570131 C3.7432958,9.40974084 3.70143926,9.05394106 3.88723404,8.79787234 L3.95106383,8.72340426 L5.25212766,7.43404255 L3.95106383,6.14680851 C3.74026579,5.93743501 3.71148415,5.60644612 3.88297872,5.36382979 L3.94680851,5.28829787 C4.1563357,5.0769126 4.48802228,5.04810942 4.73085106,5.22021277 L4.80638298,5.28404255 L6.28085106,6.74255319 L6.28085106,6.74361702 Z" id="路径" fill="#FFFFFF" fill-rule="nonzero"></path>
                    <path d="M8.58617021,8.53723404 L12.2808511,8.53723404 C12.6858156,8.53723404 12.8882979,8.73971631 12.8882979,9.14468085 L12.8882979,9.14574468 C12.8882979,9.55070922 12.6858156,9.75319149 12.2808511,9.75319149 L8.58617021,9.75319149 C8.18120567,9.75319149 7.9787234,9.55070922 7.9787234,9.14574468 L7.9787234,9.14468085 C7.9787234,8.73971631 8.18120567,8.53723404 8.58617021,8.53723404 L8.58617021,8.53723404 Z" id="路径" fill="#FFFFFF" fill-rule="nonzero"></path>
                </g>
                <rect id="矩形" x="0" y="0" width="16" height="16"></rect>
            </g>
        </g>
    </g>
</svg>