<?xml version="1.0" encoding="UTF-8"?>
<svg width="545px" height="372px" viewBox="0 0 545 372" version="1.1" xmlns="http://www.w3.org/2000/svg" xmlns:xlink="http://www.w3.org/1999/xlink">
    <!-- Generator: Sketch 64 (93537) - https://sketch.com -->
    <title>编组 2</title>
    <desc>Created with Sketch.</desc>
    <defs>
        <rect id="path-1" x="155.842431" y="44.5566758" width="114" height="64" rx="9"></rect>
        <mask id="mask-2" maskContentUnits="userSpaceOnUse" maskUnits="objectBoundingBox" x="0" y="0" width="114" height="64" fill="white">
            <use xlink:href="#path-1"></use>
        </mask>
    </defs>
    <g id="最新" stroke="none" stroke-width="1" fill="none" fill-rule="evenodd">
        <g id="画板" transform="translate(-575.000000, -228.000000)">
            <g id="编组-2" transform="translate(572.000000, 228.000000)">
                <g id="编组-68" transform="translate(433.057294, 223.845905)" fill-rule="nonzero">
                    <path d="M50.937463,14.9860397 C63.022663,20.4787897 103.945663,58.0396126 98.384563,69.0467376 C95.637763,74.4845241 79.921063,61.0454876 33.149863,61.4671751 C16.746463,61.614946 3.204163,48.8625033 9.057763,29.0720241 C14.643163,10.1870918 38.852263,9.49328973 50.937463,14.9860397 Z" id="Path" fill="#7C7DE5" transform="translate(53.285326, 41.172147) scale(-1, 1) rotate(-16.000000) translate(-53.285326, -41.172147) "></path>
                    <path d="M78.7601246,67.269113 C78.6854246,67.269113 78.6125246,67.2321703 78.5693246,67.1636911 C78.5207246,67.0862016 73.5851246,59.3399463 62.0003246,51.1837172 C51.3074246,43.6555141 32.6009246,34.2270141 4.20772464,32.0654151 C4.08352464,32.0564047 3.99082464,31.9482797 4,31.8239359 C4.01062464,31.6986911 4.11412464,31.5941703 4.24282464,31.6166963 C32.7521246,33.7864047 51.5405246,43.2626599 62.2820246,50.8305088 C73.9316246,59.0380974 78.9023246,66.8456234 78.9518246,66.9240141 C79.0175246,67.0294359 78.9860943,67.1681963 78.8807246,67.2348734 C78.8420246,67.2573995 78.8006246,67.269113 78.7601246,67.269113 Z" id="Path" fill="#F3F9FF" transform="translate(41.493047, 49.441368) scale(-1, 1) rotate(-16.000000) translate(-41.493047, -49.441368) "></path>
                </g>
                <g id="编组-63" transform="translate(423.732587, 149.679439)" fill-rule="nonzero">
                    <path d="M36.8454737,91.094989 C49.8216737,107.044328 104.721674,148.770666 112.787474,134.19902 C120.853274,119.627374 65.5608737,37.9731765 52.5855737,22.0238379 C39.6102737,6.0744994 23.2014737,7.77386398 18.8598737,24.9062702 C12.0162737,51.9122911 23.8692737,75.1447494 36.8454737,91.094989 Z" id="Path" fill="#8AA3E6" transform="translate(65.221881, 74.118461) scale(-1, 1) rotate(-16.000000) translate(-65.221881, -74.118461) "></path>
                    <path d="M93.9887446,132.914714 C93.9419446,132.914714 93.8951446,132.900297 93.8555446,132.870563 C93.3173446,132.475906 39.7205446,92.7336616 12.0257446,39.7911564 C11.9681446,39.6812293 12.0104446,39.545172 12.1202446,39.4866043 C12.2300446,39.4280366 12.3659446,39.4712866 12.4244446,39.5812137 C40.0688446,92.4300105 93.5837446,132.111886 94.1210446,132.507443 C94.2209446,132.580427 94.2425446,132.72099 94.1696446,132.821906 C94.1264446,132.883177 94.0580446,132.914714 93.9887446,132.914714 Z" id="Path" fill="#F3F9FF" transform="translate(53.106401, 86.187573) scale(-1, 1) rotate(-16.000000) translate(-53.106401, -86.187573) "></path>
                </g>
                <g id="编组-67" transform="translate(425.340790, 138.559975)" fill-rule="nonzero">
                    <path d="M22.2687338,74.404236 C27.3060338,91.9385068 53.7696338,143.9187 61.3377338,136.666215 C68.9058338,129.41283 55.7514338,42.9858141 50.7132338,25.4524443 C45.6750338,7.91907453 37.6227338,-3.67282651 25.1604338,10.0248089 C13.6323338,22.6961579 17.2314338,56.8699652 22.2687338,74.404236 Z" id="Path" fill="#928AE6" transform="translate(40.565912, 70.677720) scale(-1, 1) rotate(-16.000000) translate(-40.565912, -70.677720) "></path>
                    <path d="M45.3098734,136.263037 C45.2216734,136.263037 45.1388734,136.210777 45.1028734,136.125178 C44.8760734,135.585454 22.3265734,81.5562925 15.0023734,30.1365477 C14.9843734,30.013105 15.0707734,29.8995737 15.1931734,29.8824539 C15.3137734,29.8608289 15.4298734,29.9500321 15.4478734,30.0734748 C22.7630734,81.4355529 45.2909734,135.411553 45.5177734,135.951277 C45.5663734,136.065709 45.5123734,136.197261 45.3980734,136.245917 C45.3692734,136.257631 45.3386734,136.263037 45.3098734,136.263037 Z" id="Path" fill="#F3F9FF" transform="translate(30.267823, 83.071126) scale(-1, 1) rotate(-16.000000) translate(-30.267823, -83.071126) "></path>
                </g>
                <g id="plant_11_" transform="translate(71.339623, 214.156561) rotate(1.000000) translate(-71.339623, -214.156561) translate(2.000000, 134.911278)" fill-rule="nonzero">
                    <path d="M20.6067653,39.7582451 C20.5011405,39.7582451 20.398224,39.7100456 20.329613,39.6191032 C16.4747595,34.4317491 16.0820519,30.1192607 16.4305234,27.4146339 C16.8114949,24.4599155 18.108784,22.7602022 18.1638534,22.6892671 C18.2812143,22.5392122 18.4969777,22.5119294 18.6477413,22.6292451 C18.7976021,22.7465608 18.8246854,22.965732 18.7073245,23.1166964 C18.6946857,23.133066 17.4578825,24.765482 17.109411,27.545591 C16.78712,30.1138042 17.1798275,34.2216721 20.8821119,39.2025871 C20.9958617,39.3562797 20.9651673,39.573632 20.8125982,39.6891289 C20.7512094,39.7355095 20.6789873,39.7582451 20.6067653,39.7582451 Z" id="Path" fill="#D0E7FE"></path>
                    <path d="M84.861848,157.56957 C55.3943361,124.120048 25.456478,130.202275 25.4799364,119.631131 C25.4871724,116.393582 34.9672233,106.888283 48.7661547,110.943404 C62.5659888,114.997616 81.4123408,128.247014 84.861848,157.56957 Z" id="Path" fill="#DCEEFD"></path>
                    <path d="M4.3658248,17.1108606 C31.7894517,-28.2357454 138.623062,15.9522545 84.8627507,157.56957 C84.8627507,157.56957 79.7656774,100.511402 49.5795558,78.7907207 C19.3934343,57.0700393 -10.8712287,42.306451 4.3658248,17.1108606 Z" id="Path" fill="#F3F9FF"></path>
                    <path d="M84.861848,157.56957 C110.633395,143.016968 136.654108,139.784875 137.707647,118.472525 C138.423549,103.992677 134.545223,93.5661315 124.195799,93.5661315 C118.418032,93.5661315 94.5648846,109.953042 84.861848,157.56957 Z" id="Path" fill="#E7F4FE"></path>
                    <path d="M81.0819248,101.818244 C80.9257446,101.818244 80.7840087,101.710023 80.7469949,101.550874 C80.7289394,101.475392 78.8990124,93.9826477 73.6295088,93.9144409 C73.4390231,93.9117126 73.2864539,93.7543823 73.2891268,93.5624938 C73.2918706,93.3715148 73.4308981,93.2141844 73.6385366,93.219641 C79.4469974,93.2951232 81.3401187,101.060694 81.4186603,101.390815 C81.4619935,101.577247 81.347341,101.764588 81.1622719,101.808241 C81.1360914,101.814607 81.1090081,101.818244 81.0819248,101.818244 Z" id="Path" fill="#D0E7FE"></path>
                    <path d="M83.4553229,118.420688 C83.4354619,118.420688 83.4156008,118.418869 83.3948369,118.415231 C83.2070595,118.381583 83.0824764,118.201517 83.1149764,118.013266 C83.1556013,117.782272 84.1504605,112.337551 87.743509,110.980691 C87.9240642,110.913393 88.1208694,111.004336 88.1876748,111.184402 C88.2544802,111.364467 88.1642026,111.564541 87.985453,111.631838 C84.7625426,112.849557 83.8037945,118.082382 83.7938639,118.135129 C83.7649751,118.301553 83.6196282,118.420688 83.4553229,118.420688 Z" id="Path" fill="#D0E7FE"></path>
                    <path d="M70.9464585,66.1169886 C70.8047227,66.1169886 70.6711118,66.0278651 70.6214591,65.885995 C65.4449415,51.1987983 50.2467073,53.8397654 50.0950409,53.8706858 C49.9099719,53.9006968 49.7276111,53.7806529 49.6933056,53.5914927 C49.6580974,53.4023325 49.7817777,53.2213571 49.9695551,53.186799 C50.1284437,53.1586069 65.8963295,50.4003241 71.2723607,65.6531824 C71.335555,65.8341578 71.2416663,66.0324122 71.0629166,66.0969813 C71.0240972,66.1106227 70.9852779,66.1169886 70.9464585,66.1169886 Z" id="Path" fill="#D0E7FE"></path>
                    <path d="M75.5921439,78.9580547 C75.4395747,78.9580547 75.3005472,78.8561992 75.2590195,78.7006877 C73.3974954,71.7290438 75.0206867,66.8154262 76.7106834,63.9216392 C78.5469298,60.7768513 80.8020642,59.3063127 80.8968557,59.2444719 C81.0575499,59.141707 81.270605,59.1889971 81.3726187,59.3508745 C81.4755351,59.512752 81.4285908,59.727376 81.2678967,59.8301409 C81.1794246,59.8874346 72.492011,65.6659144 75.9252682,78.5206218 C75.9749209,78.7061443 75.865685,78.8962139 75.6815187,78.9462322 C75.6517271,78.9535076 75.6219355,78.9580547 75.5921439,78.9580547 Z" id="Path" fill="#D0E7FE"></path>
                    <path d="M84.861848,157.91697 C84.7300427,157.91697 84.6081679,157.841488 84.5503902,157.717806 C70.565487,128.01511 36.3719428,118.500717 36.0279851,118.407956 C35.8438188,118.357938 35.7345829,118.167868 35.7833328,117.982346 C35.8320827,117.796823 36.0171518,117.684054 36.205832,117.735892 C36.5479841,117.828653 70.1113907,127.165709 84.5792791,156.193611 C84.8085842,150.350562 85.3583748,126.433622 80.5231065,100.304054 C75.4188109,72.7194065 63.0968211,36.9544911 33.3855597,23.2176424 C33.2122267,23.1376131 33.1363935,22.9311739 33.2158378,22.7574739 C33.2943793,22.5828645 33.5029206,22.5055635 33.6726425,22.5865022 C50.2232351,30.2383953 71.9034011,49.9128728 81.2037996,100.190376 C86.7576776,130.212279 85.2220556,157.319478 85.2058056,157.589577 C85.1967779,157.747817 85.0821253,157.879683 84.9268478,157.909694 C84.906084,157.915151 84.8835146,157.91697 84.861848,157.91697 Z" id="Path" fill="#D0E7FE"></path>
                    <path d="M84.8627507,157.91697 C84.7607371,157.91697 84.6596261,157.871499 84.5919179,157.784194 C84.4736543,157.633229 84.498932,157.414968 84.6487928,157.295833 C118.231158,130.543309 124.769964,105.388643 124.832256,105.137642 C124.878298,104.95121 125.070589,104.839351 125.250241,104.884822 C125.43531,104.931203 125.548157,105.119453 125.501213,105.305885 C125.438921,105.558705 118.861295,130.927995 85.0758059,157.841488 C85.0126116,157.892415 84.9376812,157.91697 84.8627507,157.91697 Z" id="Path" fill="#D0E7FE"></path>
                    <path d="M55.1704477,126.860142 C55.1081561,126.860142 55.0449618,126.842863 54.9880869,126.806486 C49.70775,123.476176 51.6577462,118.005991 51.6776073,117.951425 C51.7435099,117.772269 51.9412179,117.679507 52.1208703,117.746805 C52.29962,117.813193 52.3898976,118.013266 52.3248977,118.193332 C52.2499673,118.396133 50.5590678,123.193345 55.354614,126.218089 C55.5162109,126.319944 55.5649608,126.534568 55.4638499,126.696446 C55.3979472,126.801939 55.286003,126.860142 55.1704477,126.860142 Z" id="Path" fill="#D0E7FE"></path>
                    <path d="M68.1406307,136.148998 C68.0548669,136.148998 67.9682004,136.116259 67.901395,136.05169 C62.573211,130.894347 55.2489892,130.98347 55.1776699,130.982561 C55.1758643,130.982561 55.173156,130.982561 55.1704477,130.982561 C54.9826703,130.982561 54.8301011,130.831596 54.8255237,130.641527 C54.8219761,130.449638 54.9727397,130.291399 55.1632255,130.286851 C55.4746832,130.27412 62.8359188,130.183177 68.3798663,135.549688 C68.5170883,135.682464 68.5216021,135.902544 68.3897968,136.040777 C68.3220886,136.113531 68.231811,136.148998 68.1406307,136.148998 Z" id="Path" fill="#D0E7FE"></path>
                    <path d="M113.666722,127.907798 C113.592695,127.907798 113.518667,127.884153 113.456375,127.835045 C113.305612,127.717729 113.278529,127.498558 113.394987,127.347593 C119.755044,119.078201 113.453667,110.247695 113.38957,110.159481 C113.276723,110.004879 113.310126,109.786617 113.463598,109.672939 C113.61707,109.559261 113.832833,109.59291 113.946583,109.747512 C114.014291,109.840273 120.616292,119.093662 113.941166,127.773204 C113.871652,127.861418 113.769639,127.907798 113.666722,127.907798 Z" id="Path" fill="#D0E7FE"></path>
                    <path d="M99.7720966,144.514789 C99.6800134,144.514789 99.5879303,144.477503 99.5202221,144.403839 C99.3902223,144.263788 99.3974446,144.043707 99.5373748,143.91275 C108.681593,135.312328 114.889081,135.444195 115.145469,135.454198 C115.335955,135.461474 115.48401,135.622442 115.476788,135.81433 C115.470469,136.005309 115.316094,136.152636 115.120192,136.148998 C115.065122,136.148089 108.916315,136.041686 100.007721,144.421118 C99.9409157,144.482959 99.8560548,144.514789 99.7720966,144.514789 Z" id="Path" fill="#D0E7FE"></path>
                </g>
                <g id="cog_3_" transform="translate(63.632147, 7.000000)" fill-rule="nonzero">
                    <path d="M166.090869,108.776007 C162.241217,106.09861 159.945461,101.704979 159.945461,97.0140623 C159.944549,92.3231458 162.238483,87.9258675 166.088135,85.2484703 C175.18549,78.9224811 179.367795,72.2235167 176.013931,64.1211073 C172.660067,56.0196099 164.969877,54.2413659 154.067997,56.2038178 C149.4537,57.0345769 144.726393,55.551795 141.410807,52.2351419 C138.095221,48.9184888 136.609678,44.1865358 137.439942,39.5694847 C139.402134,28.6592737 137.625862,20.9635806 129.528286,17.607715 C121.429799,14.2509374 114.734831,18.4366503 108.412616,27.5394359 C105.736816,31.392298 101.343983,33.6903364 96.6549539,33.6894245 C91.9659243,33.6885126 87.5758261,31.3895622 84.8991147,27.5367001 C78.5778108,18.4357384 71.883754,14.2527612 63.7861782,17.6086269 C55.6895137,20.9644926 53.9123305,28.6592737 55.8736117,39.566749 C56.7038752,44.1838 55.2219778,48.9148411 51.9073033,52.2314942 C48.5926288,55.5481473 43.8634987,57.0364007 39.2492019,56.2047297 C28.3454994,54.2413659 20.6543973,56.018698 17.2996222,64.1220193 C13.9457585,72.2244286 18.128063,78.9233931 27.2254183,85.2493822 C31.0759819,87.9267794 33.3726494,92.3222339 33.3717381,97.0140623 C33.3708267,101.705891 31.0732478,106.09861 27.2226841,108.776919 C18.1271516,115.101996 13.9457585,121.80096 17.2996222,129.902458 C20.6534859,138.004867 28.3454994,139.783111 39.2482906,137.818835 C43.8634987,136.987164 48.5926288,138.470858 51.9082147,141.789335 C55.2238006,145.107812 56.7029638,149.839765 55.8727003,154.457728 C53.9114191,165.366115 55.6886023,173.060896 63.7852668,176.416762 C71.8828426,179.772628 78.5778108,175.587827 84.9000261,166.484129 C87.5758261,162.631267 91.9686584,160.333229 96.657688,160.334141 C101.346718,160.335053 105.737727,162.634003 108.413527,166.486865 C114.734831,175.587827 121.429799,179.771716 129.526464,176.41585 C137.623128,173.059984 139.400311,165.365203 137.43903,154.456816 C136.608767,149.839765 138.090664,145.108724 141.405339,141.791159 C144.720013,138.473594 149.449143,136.986252 154.06344,137.817923 C164.967142,139.781287 172.658245,138.003955 176.01302,129.901546 C179.367795,121.800048 175.186402,115.101084 166.090869,108.776007 Z" id="Path" fill="#F3F9FF" transform="translate(96.656703, 97.012046) rotate(-13.000000) translate(-96.656703, -97.012046) "></path>
                    <g id="编组-69" transform="translate(53.709094, 54.038008)">
                        <ellipse id="Oval" fill="#DCEEFD" cx="42.9476829" cy="42.9733189" rx="42.9476829" ry="42.9733189"></ellipse>
                        <path d="M85.8953659,42.9733189 C85.8953659,66.6805035 66.640725,85.9466377 42.9476829,85.9466377 C30.2066464,85.9466377 18.6822968,80.3602157 10.8800068,71.4790266 C18.3961247,78.2828619 28.4167039,82.3655278 39.3687094,82.3655278 C63.0617514,82.3655278 82.3163923,63.0993936 82.3163923,39.392209 C82.3163923,28.4336661 78.2361619,18.4071055 71.4363855,10.8865012 C80.3122765,18.6934484 85.8953659,30.224677 85.8953659,42.9733189 Z" id="Path" fill="#FFFFFF"></path>
                        <path d="M75.0153591,14.4676111 C67.4992412,7.66377582 57.478662,3.5811099 46.5266565,3.5811099 C22.8336145,3.5811099 3.57897358,22.8472441 3.57897358,46.5544288 C3.57897358,57.5120597 7.65920396,67.5395322 14.4589803,75.0601366 C5.58308942,67.2531893 1.36424205e-12,55.7219607 1.36424205e-12,42.9733189 C1.36424205e-12,19.2661342 19.2546409,-2.84217094e-14 42.9476829,-2.84217094e-14 C55.6887195,-2.84217094e-14 67.2130691,5.58642202 75.0153591,14.4676111 Z" id="Path" fill="#D0E7FE"></path>
                    </g>
                </g>
                <g id="paperplane_1_" transform="translate(391.000000, 0.000000)" fill-rule="nonzero">
                    <polygon id="Path" fill="#9AEEC5" points="0.167137447 16.0179317 19.4619227 25.5100727 77.3462785 0.197696773"></polygon>
                    <polygon id="Path" fill="#7BE6B1" points="22.6777203 41.3303077 19.4619227 25.5100727 77.3462785 0.197696773"></polygon>
                    <polygon id="Path" fill="#60DFA0" points="22.6777203 41.3303077 29.1093153 28.6741197 45.1883031 25.5100727"></polygon>
                    <polygon id="Path" fill="#9AEEC5" points="29.1093153 28.6741197 45.1883031 35.0022137 77.3462785 0.197696773"></polygon>
                </g>
                <g id="board" transform="translate(154.000000, 82.000000)">
                    <path d="M301.657804,216.084862 L9.87899588,216.084862 C4.42254726,216.084862 -2.87612586e-14,211.681538 -2.87612586e-14,206.248806 L-2.87612586e-14,10.5162811 C-2.87612586e-14,5.08354943 4.42254726,0.680225169 9.87899588,0.680225169 L301.657804,0.680225169 C307.114252,0.680225169 311.5368,5.08354943 311.5368,10.5162811 L311.5368,206.248806 C311.5368,211.681538 307.114252,216.084862 301.657804,216.084862 Z" id="Path" fill="#224380" fill-rule="nonzero"></path>
                    <rect id="Rectangle" fill="#F3F9FF" fill-rule="nonzero" x="11.3865789" y="12.0173113" width="288.763642" height="192.730465"></rect>
                    <g id="Group" transform="translate(46.433885, 44.441378)" fill-rule="nonzero">
                        <path d="M90.9638639,82.5339872 L7.46198137,82.5339872 C5.36593992,82.5339872 3.66615142,84.2254804 3.66615142,86.3133182 L3.66615142,124.103908 C3.66615142,126.190838 5.36502899,127.883239 7.46198137,127.883239 L90.9638639,127.883239 C93.0599053,127.883239 94.7596938,126.190838 94.7596938,124.103908 L94.7596938,86.3133182 C94.7596938,84.2254804 93.0608162,82.5339872 90.9638639,82.5339872 Z" id="Path" fill="#DAE7FF"></path>
                        <path d="M90.9638639,78.9061196 L7.46198137,78.9061196 C5.36593992,78.9061196 3.66615142,80.5976128 3.66615142,82.6854506 L3.66615142,120.47604 C3.66615142,122.562971 5.36502899,124.255371 7.46198137,124.255371 L90.9638639,124.255371 C93.0599053,124.255371 94.7596938,122.562971 94.7596938,120.47604 L94.7596938,82.6854506 C94.7596938,80.5976128 93.0608162,78.9061196 90.9638639,78.9061196 Z" id="Path" fill="#FFFFFF"></path>
                        <path d="M87.3201586,3.62786757 L3.81827611,3.62786757 C1.72223466,3.62786757 0.0224461587,5.31936082 0.0224461587,7.40719861 L0.0224461587,45.1977881 C0.0224461587,47.2847189 1.72132374,48.9771191 3.81827611,48.9771191 L87.3201586,48.9771191 C89.4162001,48.9771191 91.1159886,47.2847189 91.1159886,45.1977881 L91.1159886,7.40719861 C91.1159886,5.31936082 89.417111,3.62786757 87.3201586,3.62786757 Z" id="Path" fill="#DAE7FF"></path>
                        <path d="M87.3201586,0 L3.81827611,0 C1.72223466,0 0.0224461587,1.69149325 0.0224461587,3.77933104 L0.0224461587,41.5699205 C0.0224461587,43.6568513 1.72132374,45.3492516 3.81827611,45.3492516 L87.3201586,45.3492516 C89.4162001,45.3492516 91.1159886,43.6568513 91.1159886,41.5699205 L91.1159886,3.77933104 C91.1159886,1.69149325 89.417111,0 87.3201586,0 Z" id="Path" fill="#FFFFFF"></path>
                        <polygon id="Rectangle" fill="#7266D5" transform="translate(62.650435, 12.282656) rotate(-90.000064) translate(-62.650435, -12.282656) " points="59.8161634 -8.59258656 65.4847065 -8.59258659 65.4847063 33.1578992 59.8161632 33.1578992"></polygon>
                        <polygon id="Rectangle" fill="#8484EF" transform="translate(68.342917, 12.282845) rotate(-90.000060) translate(-68.342917, -12.282845) " points="65.5086453 -2.89910794 71.1771884 -2.89910796 71.1771882 27.4647989 65.5086451 27.4647989"></polygon>
                        <polygon id="Rectangle" fill="#7266D5" transform="translate(62.650435, 23.619821) rotate(-90.000064) translate(-62.650435, -23.619821) " points="59.8161634 2.74457772 65.4847065 2.74457769 65.4847063 44.4950635 59.8161632 44.4950635"></polygon>
                        <polygon id="Rectangle" fill="#8484EF" transform="translate(72.138914, 23.619643) rotate(-90.000062) translate(-72.138914, -23.619643) " points="69.304643 12.2330641 74.9731861 12.2330641 74.973186 35.0062219 69.3046429 35.0062219"></polygon>
                        <polygon id="Rectangle" fill="#7266D5" transform="translate(62.650435, 34.956894) rotate(-90.000064) translate(-62.650435, -34.956894) " points="59.8161634 14.0816513 65.4847065 14.0816513 65.4847063 55.8321371 59.8161632 55.8321371"></polygon>
                        <polygon id="Rectangle" fill="#8484EF" transform="translate(79.729478, 34.957129) rotate(-90.000079) translate(-79.729478, -34.957129) " points="76.8952067 31.1617545 82.5637498 31.1617544 82.5637497 38.7525034 76.8952067 38.7525034"></polygon>
                    </g>
                    <path d="M66.3837552,79.3976956 C59.5818684,79.3976956 54.047991,73.8878718 54.047991,67.11555 C54.047991,60.3432282 59.5818684,54.8334043 66.3837552,54.8334043 L66.3837552,60.5019474 C62.7218314,60.5019474 59.7412805,63.4686361 59.7412805,67.11555 C59.7412805,70.7624639 62.7209205,73.7291526 66.3837552,73.7291526 C70.0465899,73.7291526 73.0262299,70.7624639 73.0262299,67.11555 L78.7195193,67.11555 C78.7195193,73.8878718 73.185642,79.3976956 66.3837552,79.3976956 Z" id="Path" fill="#FFF0C6" fill-rule="nonzero"></path>
                    <path d="M78.7195193,67.11555 L73.0262299,67.11555 C73.0262299,63.4695431 70.0465899,60.5019474 66.3837552,60.5019474 L66.3837552,54.8334043 C73.185642,54.8334043 78.7195193,60.3432282 78.7195193,67.11555 Z" id="Path" fill="#FFCB01" fill-rule="nonzero"></path>
                    <use id="矩形" stroke="#C3D3F3" mask="url(#mask-2)" stroke-width="4" stroke-dasharray="5,5" xlink:href="#path-1"></use>
                </g>
                <g id="check_1_" transform="translate(422.423448, 60.303759)" fill-rule="nonzero">
                    <circle id="Oval" fill="#FFE8AA" cx="25.2052427" cy="25.2052427" r="25.2052427"></circle>
                    <circle id="Oval" fill="#FFE18D" cx="25.2052427" cy="25.2052427" r="19.6041795"></circle>
                    <circle id="Oval" fill="#FFCB01" cx="25.2052427" cy="25.2052427" r="14.0031163"></circle>
                    <path d="M23.7460883,30.8063059 C23.7268406,30.8063059 23.7066764,30.8063059 23.6874288,30.8063059 C23.2988098,30.7898079 22.9349377,30.6119964 22.6838019,30.3168659 L18.4832336,25.4160502 C17.9782122,24.830372 18.0469538,23.9449806 18.6353816,23.4417923 C19.224726,22.9441033 20.1064512,23.0100952 20.608723,23.5948568 L23.8331609,27.355479 L31.2829141,20.0065468 C31.8310136,19.4648632 32.7219043,19.4731122 33.2626714,20.0202951 C33.8052715,20.5729774 33.7997722,21.4592853 33.248923,22.002802 L24.729551,30.4048551 C24.4664999,30.6614903 24.1136265,30.8063059 23.7460883,30.8063059 Z" id="Path" fill="#FFFFFF"></path>
                </g>
                <g id="man_3_" transform="translate(5.024629, 163.141149)" fill-rule="nonzero">
                    <path d="M54.1525817,70.1021316 C54.1525817,70.1021316 53.7761414,80.0716117 54.0137008,86.1937635 C54.2905489,93.3340055 56.987762,95.4881463 56.9155804,103.150137 C56.9155804,103.150137 29.8922836,107.04102 19.3711427,104.321576 C17.9384767,103.951361 17.5035602,83.5423736 17.5035602,83.5423736 L18.2600956,70.1021316 L11.2858995,70.1021316 L10.3109922,70.1021316 C9.92541499,70.1021316 9.55628421,69.9460608 9.28857302,69.6702146 C9.02086184,69.3943684 8.8774125,69.0214317 8.89203154,68.6385136 C9.01263863,65.5025781 9.62755203,57.8396803 12.7121696,50.722123 C17.6579739,39.3062653 27.2864396,37.5259686 35.7060934,37.302751 C62.7056343,36.588636 65.0099606,70.1012243 65.0099606,70.1012243 L54.1525817,70.1012243 L54.1525817,70.1021316 Z" id="Path" fill="#99CAFA"></path>
                    <path d="M52.8880347,76.6280714 C52.8880347,76.6280714 52.7025556,61.5926401 51.7011513,59.3994815 L48.6704415,81.349215 L52.8880347,76.6280714 Z" id="Path" fill="#1277D7"></path>
                    <path d="M20.9847193,70.1012243 C20.9847193,70.1012243 22.4292633,64.6378367 22.665909,62.8012819 C22.665909,62.8012819 24.6769408,69.0704306 24.6769408,75.648999 C24.6769408,82.2275673 19.8499163,79.8946709 19.8499163,79.8946709 L20.9847193,70.1012243 Z" id="Path" fill="#1277D7"></path>
                    <path d="M48.6695278,70.4705315 C48.6695278,70.4705315 58.8041778,100.294584 65.9172548,96.8392482 C70.6757526,94.5272217 64.0642914,70.1012243 64.0642914,70.1012243 L48.6695278,70.4705315 Z" id="Path" fill="#F1B282"></path>
                    <polygon id="Path" fill="#F1B282" points="13.1132796 175.179562 8.66360903 184.421316 16.581647 188.196054 22.3031741 179.52051"></polygon>
                    <polygon id="Path" fill="#F1B282" points="67.5637243 182.232695 67.8186438 190.032608 58.4195143 191.803831 57.5222706 182.232695"></polygon>
                    <path d="M32.6918299,119.010385 L51.0926338,149.652902 L56.1626998,181.757223 C56.3079766,182.680037 57.1092827,183.359672 58.0494698,183.359672 L69.5948572,183.359672 C70.1640861,183.359672 70.7049906,183.113769 71.0759488,182.685482 C71.4478206,182.257194 71.6122849,181.690076 71.5282254,181.131125 C70.314845,173.005459 66.1255761,144.965332 64.7084429,135.754429 C63.0446133,124.93654 62.237825,116.05139 54.7208969,102.02316 L33.3633921,104.990321 L32.6918299,119.010385 Z" id="Path" fill="#0B224E"></path>
                    <path d="M46.5159603,102.474132 C46.5159603,102.474132 43.6963128,130.570517 41.6542156,140.712401 C40.0269336,148.792698 26.0986425,174.980844 23.0533136,180.645672 C22.718903,181.268141 21.9724183,181.549431 21.3072519,181.303529 L10.641748,177.353666 C9.80846266,177.045153 9.37537358,176.131413 9.66775439,175.296615 L20.1295054,145.444433 C20.1295054,145.444433 21.1245139,124.172519 20.4940678,116.296385 C19.8133687,107.788708 25.8309313,100.331787 25.8309313,100.331787 L46.5159603,102.474132 Z" id="Path" fill="#102B5E"></path>
                    <path d="M82.7903689,111.056215 L4.61322105,111.056215 C2.09052283,111.056215 0.0447708123,109.024572 0.0447708123,106.519271 L0.0447708123,74.6381679 C0.0447708123,72.1328676 2.09052283,70.1012243 4.61322105,70.1012243 L82.7903689,70.1012243 C85.3130671,70.1012243 87.3588191,72.1328676 87.3588191,74.6381679 L87.3588191,106.519271 C87.3588191,109.025479 85.3139808,111.056215 82.7903689,111.056215 Z" id="Path" fill="#1B90FB"></path>
                    <path d="M51.7175978,68.6094772 C51.7175978,68.6094772 51.4096842,71.636526 53.4572636,72.4386576 C54.7656678,72.9513323 61.7782389,72.761688 65.4092431,71.8125594 C69.0402474,70.8634308 65.9391834,62.2994959 59.5086328,62.824874 C53.0789959,63.3511594 51.7175978,65.9054587 51.7175978,68.6094772 Z" id="Path" fill="#F1B282"></path>
                    <path d="M57.9142437,186.837693 C55.4838281,186.837693 55.1146974,193.585943 55.108276,194.871713 C55.0982509,197.077575 58.0631751,197.547602 59.4282281,197.677358 C60.793281,197.807115 65.9181685,197.511306 68.7241106,198.854242 C71.5300528,200.197177 82.1891608,198.263532 82.2558602,194.97697 C82.3225596,191.690408 76.7262081,192.484373 73.7000666,190.839277 C71.0942226,189.423751 69.8168839,185.044692 67.9803669,185.044692 C66.2014124,185.044692 63.9765771,189.556229 61.7005752,189.556229 C59.4245733,189.556229 59.0326003,186.837693 57.9142437,186.837693 Z" id="Path" fill="#0B224E"></path>
                    <path d="M10.8272271,179.820856 C8.6663501,178.715656 5.22722076,184.546536 4.62875378,185.687124 C3.60267986,187.643454 6.02121741,189.409232 7.17520794,190.145125 C8.32919847,190.881017 13.0209969,192.948956 14.8968025,195.418868 C16.7726082,197.88878 27.1393355,201.016549 28.7145371,198.125609 C30.2897388,195.233761 24.9483067,193.395391 23.0158523,190.557079 C21.3520227,188.113481 22.235561,183.639147 20.6027969,182.80435 C19.0211994,181.995866 14.9635019,184.994786 12.9396785,183.959456 C10.915855,182.923218 11.8204081,180.328993 10.8272271,179.820856 Z" id="Path" fill="#0B224E"></path>
                    <g id="Group" transform="translate(28.324391, 11.796054)">
                        <path d="M19.5739819,2.41365404 C21.0578145,5.29098372 19.9495085,6.73554659 20.2491988,7.92694801 C20.5488892,9.11925681 21.9751593,11.5782803 21.9002367,12.6952758 C21.8253142,13.8122714 20.0993537,13.855826 19.5365206,15.2876854 C18.9736875,16.7195449 19.6881931,18.6767824 18.2052742,20.1195305 C16.7223552,21.5622786 11.803048,20.8917183 11.8998992,22.3816506 C11.9958366,23.8715829 14.3970141,29.534596 14.3970141,29.534596 C14.3970141,29.534596 14.223413,33.3819242 7.29490134,33.3819242 C0.366389709,33.3819242 0.366389709,28.8640357 0.366389709,28.8640357 C0.366389709,28.8640357 2.24219538,20.9661242 1.64190102,17.6133228 C1.04160665,14.2605214 0.349943288,2.04071727 4.78499478,0.848408469 C9.22004627,-0.342992943 17.9987802,-0.640616448 19.5739819,2.41365404 Z" id="Path" fill="#F1B282"></path>
                        <path d="M11.8971581,22.3852801 C11.9154319,22.6801815 12.0232473,23.136598 12.1849705,23.6728648 C10.3210428,22.2600605 10.3667273,19.6676509 10.3667273,19.6676509 C13.742812,21.5631859 17.3080306,20.6512603 17.3080306,20.6512603 C17.3080306,20.6512603 17.3080306,20.6512603 17.2988937,20.6603341 C15.3180136,21.4107446 11.8249766,21.1249172 11.8971581,22.3852801 Z" id="Path" fill="#CD916A"></path>
                    </g>
                    <path d="M42.9196763,0.716837102 C42.9196763,0.716837102 50.8550744,4.72295838 50.8550744,9.21271785 C50.8550744,12.828662 49.7367177,16.0507994 42.1887243,16.0507994 C38.5549789,16.0507994 40.5221536,24.6846032 39.6029814,24.6846032 C37.9958006,24.6846032 36.0788789,20.0569206 34.221347,20.0569206 C31.5652501,20.0569206 33.6146568,34.7003601 30.8671909,34.7003601 C27.1502998,34.7003601 20.384425,29.6580009 20.384425,19.7801671 C20.384425,6.5177733 31.7763125,4.50609247 35.6202065,4.29920784 C39.4631868,4.09323059 42.9196763,0.716837102 42.9196763,0.716837102 Z" id="Path" fill="#0B224E"></path>
                    <rect id="Rectangle" fill="#FFFFFF" x="72.9965253" y="81.5706179" width="7.30952038" height="3.62955495"></rect>
                    <rect id="Rectangle" fill="#AFD9FF" x="72.9965253" y="85.2001728" width="7.30952038" height="14.5182198"></rect>
                    <rect id="Rectangle" fill="#FFFFFF" x="62.0322447" y="81.5706179" width="7.30952038" height="7.25910989"></rect>
                    <rect id="Rectangle" fill="#AFD9FF" x="62.0322447" y="88.8297278" width="7.30952038" height="10.8886648"></rect>
                    <rect id="Rectangle" fill="#FFFFFF" x="51.0679641" y="81.5706179" width="7.30952038" height="14.5182198"></rect>
                    <rect id="Rectangle" fill="#AFD9FF" x="51.0679641" y="96.0888377" width="7.30952038" height="3.62955495"></rect>
                    <path d="M28.682558,96.0888377 L7.66768688,96.0888377 C7.41642212,96.0888377 7.21084186,95.8846752 7.21084186,95.6351433 L7.21084186,92.9129771 C7.21084186,92.6634452 7.41642212,92.4592827 7.66768688,92.4592827 L28.682558,92.4592827 C28.9338227,92.4592827 29.139403,92.6634452 29.139403,92.9129771 L29.139403,95.6351433 C29.139403,95.8846752 28.9338227,96.0888377 28.682558,96.0888377 Z" id="Path" fill="#FFFFFF"></path>
                    <path d="M17.7182774,88.8297278 L7.66768688,88.8297278 C7.41642212,88.8297278 7.21084186,88.6255653 7.21084186,88.3760334 L7.21084186,85.6538672 C7.21084186,85.4043353 7.41642212,85.2001728 7.66768688,85.2001728 L17.7182774,85.2001728 C17.9695422,85.2001728 18.1751224,85.4043353 18.1751224,85.6538672 L18.1751224,88.3760334 C18.1751224,88.6255653 17.9695422,88.8297278 17.7182774,88.8297278 Z" id="Path" fill="#FFFFFF"></path>
                    <path d="M27.2617699,108.033703 C27.1292849,104.93497 23.2853909,102.068529 21.9989153,101.413395 C21.4634929,98.8482068 19.3903302,87.698214 19.5840325,84.2936915 C19.7430145,81.5080081 20.1103179,74.1109751 20.9838056,70.1021316 L10.4306856,70.1021316 C10.1584059,73.8478323 10.0469358,83.6585194 10.4069296,85.6847184 C10.8208312,88.0121705 14.158541,100.82087 14.7469574,102.907864 C14.0744815,104.969451 12.9908451,108.807706 13.4193657,111.039882 C14.0242285,114.194873 21.4379096,115.509679 23.5558431,115.734711 C25.6737766,115.958836 27.4134425,111.564353 27.2617699,108.033703 Z" id="Path" fill="#F1B282"></path>
                </g>
                <g id="woman_6_" transform="translate(177.428489, 146.001584)" fill-rule="nonzero">
                    <path d="M16.6643154,205.863563 L16.4151344,213.704438 C16.4151344,213.704438 26.589872,223.603259 24.0926258,219.511855 C21.5953797,215.420451 23.3360219,206.816803 23.3360219,206.816803 L16.6643154,205.863563 Z" id="Path" fill="#F1B282"></path>
                    <path d="M51.3457722,206.828593 L52.205673,214.625933 C52.205673,214.625933 63.6752453,222.98651 60.6252705,219.289644 C57.5752958,215.592778 58.0854371,206.828593 58.0854371,206.828593 L51.3457722,206.828593 Z" id="Path" fill="#F1B282"></path>
                    <path d="M41.5860342,26.0775992 C44.3052779,26.4757651 44.8996877,30.914544 45.9290315,32.0519017 C46.9574692,33.1892594 48.5839412,34.726597 48.6863319,35.7424189 C48.7887226,36.7582408 46.2117386,37.1818022 46.8523602,39.5961932 C47.4929817,42.0114912 48.0647387,45.0553289 44.4584109,46.4938053 C40.8520831,47.9322816 42.043621,51.1765628 42.4694939,54.3718668 C42.8962729,57.5671709 42.5863824,58.5666671 41.2915476,58.73718 C40.5666576,58.8333203 36.7800134,58.7807153 32.3382498,56.5821864 C28.8506227,54.8561962 32.9797775,47.237532 32.9417207,43.3030361 C32.8683256,35.7270002 25.6185193,30.8755437 31.2998448,28.1310106 C36.9802642,25.3864775 39.2881328,25.7411082 41.5860342,26.0775992 Z" id="Path" fill="#F1B282"></path>
                    <path d="M64.5695783,15.5103305 C64.5695783,15.5103305 61.9726598,12.6705642 62.4646789,9.41630616 C62.9557919,6.16114118 63.9425485,6.54479534 64.1491421,8.58550897 C64.3829191,10.8937828 67.6113981,8.49299662 65.6224811,2.00624824 C65.049818,0.138768527 68.0762338,0.209513266 68.5465062,4.66098992 C68.7802832,6.87675142 72.6638815,5.67681181 70.5345171,15.1647697 C68.786626,22.9566678 64.5695783,15.5103305 64.5695783,15.5103305 Z" id="Path" fill="#F1B282"></path>
                    <path d="M17.2605374,113.082744 C11.4197361,126.653943 16.8980924,154.626232 17.9926764,160.317555 C14.1380737,171.435363 16.1152112,208.353233 16.1152112,208.353233 L23.3478014,208.138278 C23.3478014,208.138278 32.0836322,168.03236 32.0836322,159.694458 C32.0836322,151.542487 35.6799928,113.893588 35.6799928,113.893588 C35.6799928,113.893588 21.3806311,103.508623 17.2605374,113.082744 Z" id="Path" fill="#0B224E"></path>
                    <path d="M29.5093665,111.816595 C29.5093665,111.816595 27.3655043,112.908603 28.3576975,126.418128 C29.3163645,139.464183 43.5242089,153.101592 45.1905498,161.678031 C44.644164,181.185439 51.4264162,208.382257 51.4264162,208.382257 L58.4089193,208.155511 C58.4089193,208.155511 60.7566568,175.970282 59.6185795,160.828187 C58.4252293,144.950528 50.3644523,110.747261 50.3644523,110.747261 C50.3644523,110.747261 33.6956064,108.947805 29.5093665,111.816595 Z" id="Path" fill="#102B5E"></path>
                    <path d="M34.3588807,51.4985421 C38.6655143,51.4985421 39.9496935,53.8939328 43.5386843,53.6920969 L43.5970326,53.6874515 C42.3191797,57.213552 44.1227874,59.5443348 46.336809,62.9737805 C48.5731322,66.4377706 50.228321,67.8000159 52.8148169,67.8964218 L52.9532158,68.1153929 C53.5503439,70.4018991 53.607429,73.0738735 52.2826925,75.5943816 C51.2687526,77.5226292 49.6205339,78.8377557 48.0611143,79.7175301 C47.7077304,82.0611763 47.5953724,84.6932434 47.8074028,87.7116856 C48.8575872,102.68871 54.7092619,113.124466 54.0749831,114.712594 C53.4397982,116.300723 26.9405375,123.447756 14.5639466,113.600632 C13.8834561,113.09 14.5213593,111.603454 15.654906,109.35232 C12.3457831,105.591058 -0.0135916878,91.054828 0.124137416,83.8996325 C0.282707107,75.6406377 15.6748405,55.7867616 19.6418011,54.5160773 C23.6087618,53.2453929 34.3588807,51.4985421 34.3588807,51.4985421 Z M20.1039185,70.0808268 C20.1039185,70.0808268 13.2500834,81.7083596 10.9014398,84.9118265 C12.0757616,89.6272354 16.3154621,98.4403973 18.6704485,103.144015 C20.1773136,99.6711744 21.5627597,95.5063046 21.8626829,90.887943 C22.6555314,78.6581729 20.1039185,70.0808268 20.1039185,70.0808268 Z" id="形状结合" fill="#99CAFA"></path>
                    <path d="M62.0715109,43.9984157 C65.109077,43.9984157 67.5715109,46.4608495 67.5715109,49.4984157 C67.611948,50.5494594 66.5943685,52.3819227 65.85554,53.4898136 C62.4638583,59.0996169 57.2542749,62.6328759 53.2833618,67.6876975 L53.118352,67.9019755 C48.2428059,68.6368891 44.6437425,67.2055459 42.321162,63.6079461 C40.1071404,60.1785003 40.5324306,56.8716688 43.5970326,53.6874515 C44.124849,53.6550261 44.7028443,53.5653858 45.3473073,53.4041151 C48.7868584,52.5432468 53.8654385,50.2611593 57.4250824,46.5572883 C57.7279129,46.0767778 59.0388313,44.744686 59.4721836,44.3809592 C60.3202931,44.1259302 61.1867355,43.9984157 62.0715109,43.9984157 Z" id="路径" fill="#99CAFA"></path>
                    <path d="M70.8942437,16.2377316 C71.3699528,16.8735272 71.6753127,38.4824171 67.8705462,49.2392453 C67.7496262,49.5810937 67.622246,49.9155066 67.4888017,50.2429499 C66.6252222,50.7241161 65.6303996,50.9984157 64.5715109,50.9984157 C61.3375043,50.9984157 58.7010962,48.4397925 58.5761443,45.2364039 C59.7263938,43.7780781 60.6291399,42.1327738 61.1354119,40.3009197 C63.1986301,32.8355357 63.0400604,17.5882305 64.9438028,16.4762683 C66.8475452,15.3643061 70.4185347,15.6028429 70.8942437,16.2377316 Z" id="路径" fill="#99CAFA"></path>
                    <path d="M65.9006576,223.769237 C65.8870659,225.062596 65.6097955,225.029038 64.6420673,225.126085 C64.2270678,225.167806 60.9070715,225.156923 58.5203711,225.143318 C57.1231456,225.135155 55.8998937,224.198241 55.5283876,222.850463 C55.1351347,221.419242 54.5588472,219.819323 53.929099,219.697787 C52.6705087,219.455622 52.6705087,225.16962 52.6705087,225.16962 L51.5079663,225.16962 C51.5079663,225.16962 50.3417995,220.255582 50.3454155,215.723384 C50.3481423,212.021983 51.9918304,211.263744 53.0574187,211.263744 C56.5921637,211.263744 55.6969245,215.571918 60.4422358,218.216682 C65.1875471,220.861447 65.919686,221.927153 65.9006576,223.769237 Z" id="Path" fill="#0B224E"></path>
                    <path d="M29.93977,224.109356 C29.9261783,225.402715 29.6489078,225.369157 28.6811797,225.466204 C28.2661801,225.507925 24.9461838,225.497042 22.5594835,225.483437 C21.162258,225.475274 19.939006,224.53836 19.5674999,223.190582 C19.1742471,221.759361 18.5979595,220.159442 17.9682113,220.037906 C16.709621,219.795741 16.709621,225.509739 16.709621,225.509739 L15.5470787,225.509739 C15.5470787,225.509739 14.3809118,220.595701 14.3845279,216.063503 C14.3872546,212.362102 16.0309427,211.603863 17.0965311,211.603863 C20.631276,211.603863 19.7360368,215.912036 24.4813481,218.556801 C29.2266594,221.201566 29.9597044,222.267272 29.93977,224.109356 Z" id="Path" fill="#0B224E"></path>
                    <path d="M40.2622038,33.4722384 C40.2622038,33.4722384 38.7834282,29.8851173 43.3049297,28.8130624 C47.8273373,27.7410075 45.1987048,18.5922616 32.8221139,20.0225751 C20.4455229,21.4519816 26.7131033,30.2161664 19.7315063,33.3924238 C10.6712872,37.5146653 16.717776,42.4640761 6.87830015,50.7049312 C-0.897051397,57.2170751 6.20415244,78.0232843 22.3492654,75.5617301 C38.4952844,73.100176 41.6286215,57.2170751 39.4865715,51.3797272 C37.3445215,45.5423792 40.0818874,45.5423792 41.1529124,42.803288 C42.2239374,40.0641969 42.9995697,35.9736998 40.2622038,33.4722384 Z" id="Path" fill="#0B224E" transform="translate(24.545793, 47.817089) rotate(-2.000000) translate(-24.545793, -47.817089) "></path>
                </g>
                <g id="编组-66" transform="translate(314.000000, 210.000000)" fill-rule="nonzero">
                    <path d="M4.6097561,41.6604306 L103.390244,41.6604306 C105.935751,41.6604306 108,39.5937927 108,37.0453392 L108,4.61509146 C108,2.06663796 105.935751,3.55271368e-14 103.390244,3.55271368e-14 L4.6097561,3.55271368e-14 C2.06424878,3.55271368e-14 6.9348971e-12,2.06663796 6.9348971e-12,4.61509146 L6.9348971e-12,37.0453392 C6.9348971e-12,39.5937927 2.06424878,41.6604306 4.6097561,41.6604306 Z" id="Path" fill="#1B90FB"></path>
                    <polygon id="Rectangle" fill="#FFFFFF" transform="translate(10.804531, 13.602059) rotate(-180.000000) translate(-10.804531, -13.602059) " points="7.11672586 11.6664897 14.4923356 11.6664897 14.4923356 15.5376284 7.11672586 15.5376284"></polygon>
                    <polygon id="Rectangle" fill="#AFD9FF" transform="translate(10.804531, 22.742525) rotate(-180.000000) translate(-10.804531, -22.742525) " points="7.11672586 15.3583783 14.4923356 15.3583783 14.4923356 30.1266709 7.11672586 30.1266709"></polygon>
                    <polygon id="Rectangle" fill="#FFFFFF" transform="translate(21.867945, 15.358378) rotate(-180.000000) translate(-21.867945, -15.358378) " points="18.1801405 11.6663051 25.5557502 11.6663051 25.5557502 19.0504514 18.1801405 19.0504514"></polygon>
                    <polygon id="Rectangle" fill="#AFD9FF" transform="translate(21.867945, 24.588561) rotate(-180.000000) translate(-21.867945, -24.588561) " points="18.1801405 19.0504514 25.5557503 19.0504514 25.5557503 30.1266709 18.1801405 30.1266709"></polygon>
                    <polygon id="Rectangle" fill="#FFFFFF" transform="translate(32.931360, 19.050451) rotate(-180.000000) translate(-32.931360, -19.050451) " points="29.2435551 11.6663051 36.6191649 11.6663051 36.6191649 26.4345978 29.2435551 26.4345978"></polygon>
                    <polygon id="Rectangle" fill="#AFD9FF" transform="translate(32.931360, 28.280634) rotate(-180.000000) translate(-32.931360, -28.280634) " points="29.2435551 26.4345978 36.6191649 26.4345978 36.6191649 30.1266709 29.2435551 30.1266709"></polygon>
                    <path d="M75.4609756,26.4352439 L96.6658537,26.4352439 C96.9193902,26.4352439 97.1268293,26.2275648 97.1268293,25.9737348 L97.1268293,23.2046799 C97.1268293,22.9508498 96.9193902,22.7431707 96.6658537,22.7431707 L75.4609756,22.7431707 C75.207439,22.7431707 75,22.9508498 75,23.2046799 L75,25.9737348 C75,26.2275648 75.207439,26.4352439 75.4609756,26.4352439 Z" id="Path" fill="#FFFFFF"></path>
                    <path d="M86.5243902,19.0510976 L96.6658537,19.0510976 C96.9193902,19.0510976 97.1268293,18.8434184 97.1268293,18.5895884 L97.1268293,15.8205335 C97.1268293,15.5667035 96.9193902,15.3590244 96.6658537,15.3590244 L86.5243902,15.3590244 C86.2708537,15.3590244 86.0634146,15.5667035 86.0634146,15.8205335 L86.0634146,18.5895884 C86.0634146,18.8434184 86.2708537,19.0510976 86.5243902,19.0510976 Z" id="Path" fill="#FFFFFF"></path>
                </g>
                <g id="Group" transform="translate(314.000000, 126.000000)" fill-rule="nonzero">
                    <path d="M109.082174,9.10278444 L109.082174,53.4082193 C109.082174,57.2537807 105.578057,60.3622181 101.260484,60.3622181 L7.87731663,60.3622181 C3.55974329,60.3622181 0.0556257901,57.2537807 0.0556257901,53.4082193 L0.0556257901,9.10278444 C0.0556257901,5.2572231 3.55974329,2.14878563 7.87731663,2.14878563 L101.260484,2.14878563 C105.578057,2.14878563 109.082174,5.2572231 109.082174,9.10278444 Z" id="Path" fill="#DAE7FF"></path>
                    <path d="M109.083565,58.5359803 L0.0570164349,58.5359803 L0.0570164349,7.33229634 C0.0570164349,3.4916028 3.55883767,0.378297535 7.87881951,0.378297535 L101.261762,0.378297535 C105.581744,0.378297535 109.083565,3.4916028 109.083565,7.33229634 L109.083565,58.5359803 Z" id="Path" fill="#FFFFFF"></path>
                    <path d="M14.1915297,42.6820812 C13.6352718,42.6820812 13.1819216,42.2467609 13.1819216,41.7126938 C13.1819216,41.1786267 13.6352718,40.7433064 14.1915297,40.7433064 C17.0903287,40.7433064 18.9197219,37.7600409 21.0335019,34.3066851 C24.0386852,29.3999435 27.7732617,23.2964188 36.4022124,23.2964188 C42.0259798,23.2964188 45.2515803,25.2692682 48.3749684,27.1774455 C51.6325537,29.1690707 54.7121365,31.0508228 60.6321113,31.0508228 C76.6752845,31.0508228 78.3468394,22.3458071 79.6881163,15.3528659 C80.4335019,11.4607128 81.1392541,7.78761062 84.8620101,7.78761062 C85.418268,7.78761062 85.8716182,8.22293094 85.8716182,8.75699805 C85.8716182,9.29106516 85.418268,9.72638549 84.8620101,9.72638549 C83.004804,9.72638549 82.4881795,11.4565404 81.6753477,15.7047383 C80.3542351,22.5885017 78.354488,32.9889023 60.6321113,32.9889023 C54.1252845,32.9889023 50.6507585,30.8644557 47.2909608,28.8123306 C44.278129,26.9723025 41.4349558,25.2344982 36.4022124,25.2344982 C28.9288875,25.2344982 25.6594817,30.5772555 22.7731985,35.2871989 C20.4459545,39.08895 18.2452592,42.6820812 14.1915297,42.6820812 Z" id="Path" fill="#DCEEFD"></path>
                    <path d="M14.1915297,42.6820812 C13.6352718,42.6820812 13.1819216,42.2467609 13.1819216,41.7126938 C13.1819216,41.1786267 13.6352718,40.7433064 14.1915297,40.7433064 C17.0347029,40.7433064 18.8689633,37.082026 20.9945638,32.8373051 C23.9914033,26.8589523 27.7183312,19.418869 36.4022124,19.418869 C42.136536,19.418869 45.3857775,22.3986575 48.5286346,25.2803946 C51.7660556,28.2490567 54.8226928,31.0508228 60.6314159,31.0508228 C68.8737674,31.0508228 72.6556258,23.7018369 75.9883059,17.2158422 C78.5908976,12.1575035 80.8353982,7.78830602 84.8613148,7.78830602 C85.4175727,7.78830602 85.8709229,8.22362634 85.8709229,8.75769345 C85.8709229,9.29176056 85.4175727,9.72708089 84.8613148,9.72708089 C82.0925411,9.72708089 80.1011378,13.5969812 77.7982301,18.0760519 C74.3828066,24.7212931 70.1316056,32.9902931 60.6314159,32.9902931 C54.0140329,32.9902931 50.3580278,29.6391611 47.1324273,26.6823208 C44.1474083,23.9445314 41.3237042,21.3590347 36.4015171,21.3590347 C28.9872946,21.3590347 25.7060683,27.9055292 22.8114412,33.6794344 C20.4932364,38.3087114 18.3043616,42.6820812 14.1915297,42.6820812 Z" id="Path" fill="#7266D5"></path>
                    <ellipse id="Oval" fill="#2CCD7F" cx="14.1915297" cy="41.7126938" rx="2.01921618" ry="1.93877487"></ellipse>
                    <ellipse id="Oval" fill="#2CCD7F" cx="60.6321113" cy="32.0195149" rx="2.01921618" ry="1.93877487"></ellipse>
                    <ellipse id="Oval" fill="#D0F4E3" cx="88.7286979" cy="8.74411097" rx="4.03843236" ry="3.87685433"></ellipse>
                    <ellipse id="Oval" fill="#99E9C2" cx="88.7286979" cy="8.74411097" rx="3.02882427" ry="2.9081623"></ellipse>
                    <ellipse id="Oval" fill="#2CCD7F" cx="88.7286979" cy="8.74411097" rx="2.01921618" ry="1.93877487"></ellipse>
                    <path d="M101.260371,60.8258678 L7.87742886,60.8258678 C3.55744703,60.8258678 0.0556257901,57.7125625 0.0556257901,53.871869 L0.0556257901,45.9196215 L109.082174,45.9196215 L109.082174,53.871869 C109.082174,57.7125625 105.580353,60.8258678 101.260371,60.8258678 Z" id="Path" fill="#7266D5"></path>
                    <path d="M20.7669406,54.8768543 L9.34766119,54.8768543 C9.15644753,54.8768543 9,54.7203894 9,54.5291544 L9,51.3476999 C9,51.156465 9.15644753,51 9.34766119,51 L20.7669406,51 C20.9581542,51 21.1146018,51.156465 21.1146018,51.3476999 L21.1146018,54.5291544 C21.1146018,54.7203894 20.9581542,54.8768543 20.7669406,54.8768543 Z" id="Path" fill="#FFFFFF"></path>
                    <path d="M47.8822377,54.8768543 L24.3476612,54.8768543 C24.1564475,54.8768543 24,54.7203894 24,54.5291544 L24,51.3476999 C24,51.156465 24.1564475,51 24.3476612,51 L47.8822377,51 C48.0734513,51 48.2298989,51.156465 48.2298989,51.3476999 L48.2298989,54.5291544 C48.2298989,54.7203894 48.0734513,54.8768543 47.8822377,54.8768543 Z" id="Path" fill="#FFFFFF"></path>
                </g>
            </g>
        </g>
    </g>
</svg>