<?xml version="1.0" encoding="UTF-8"?>
<svg width="19px" height="20px" viewBox="0 0 19 20" version="1.1" xmlns="http://www.w3.org/2000/svg" xmlns:xlink="http://www.w3.org/1999/xlink">
    <!-- Generator: Sketch 64 (93537) - https://sketch.com -->
    <title>编组</title>
    <desc>Created with Sketch.</desc>
    <defs>
        <linearGradient x1="82.713599%" y1="0%" x2="30.6977733%" y2="100%" id="linearGradient-1">
            <stop stop-color="#69BEFF" offset="0%"></stop>
            <stop stop-color="#388AFF" offset="100%"></stop>
        </linearGradient>
    </defs>
    <g id="最新" stroke="none" stroke-width="1" fill="none" fill-rule="evenodd">
        <g id="画板" transform="translate(-286.000000, -392.000000)" fill="url(#linearGradient-1)" fill-rule="nonzero">
            <g id="编组-65" transform="translate(203.000000, 94.000000)">
                <g id="编组-61" transform="translate(83.000000, 189.000000)">
                    <g id="编组" transform="translate(-0.000000, 109.000000)">
                        <path d="M17.3534047,13.8007369 C18.2765225,11.8003152 18.4100231,9.62571023 17.8797496,7.65112305 C17.2701083,5.3721369 15.7698642,3.34008789 13.5944158,2.10546875 L14.5594371,0.0200417259 L9.07270952,1.45867365 L11.5266335,6.57284268 L12.5362882,4.39093572 C14.0145819,5.29363459 15.0266113,6.70796342 15.454834,8.30042614 C15.8378462,9.73506303 15.7438965,11.295055 15.0743075,12.7507546 C14.221036,14.6007191 12.6260431,15.8603294 10.7995605,16.3517179 C10.5352142,16.4223473 10.2667238,16.4764368 9.99564986,16.5136719 L11.128307,18.8549805 C11.2360174,18.8299228 11.3428178,18.8047541 11.4489524,18.7757013 C13.9636452,18.1053578 16.1795765,16.3509632 17.3534047,13.8007369 L17.3534047,13.8007369 Z M5.70798562,15.6312589 C4.20774148,14.7302024 3.18033114,13.3037109 2.7479581,11.6967551 C2.36505682,10.2620961 2.45976119,8.70121626 3.12848455,7.24718129 C3.98180043,5.39646218 5.57677113,4.13680753 7.40327592,3.64544123 C7.70614347,3.56440874 8.01453746,3.5061701 8.32628285,3.46883878 L7.19688832,1.11538974 C7.04871715,1.14703924 6.90052379,1.18099698 6.75395064,1.22068093 C4.24005682,1.89255593 2.02337092,3.64692827 0.848632812,6.19717685 C-0.0726873224,8.19684393 -0.206343217,10.3722035 0.323974609,12.3459251 L0.325594815,12.3524281 C0.940074574,14.6467951 2.45811879,16.6893865 4.6578924,17.9207431 L3.74545011,19.9107333 L9.22651811,18.4526811 L6.75561523,13.3474343 L5.70798562,15.6312589 Z" id="形状"></path>
                    </g>
                </g>
            </g>
        </g>
    </g>
</svg>