<?xml version="1.0" encoding="UTF-8"?>
<svg width="9px" height="12px" viewBox="0 0 9 12" version="1.1" xmlns="http://www.w3.org/2000/svg" xmlns:xlink="http://www.w3.org/1999/xlink">
    <title>编组</title>
    <g id="风格7.0" stroke="none" stroke-width="1" fill="none" fill-rule="evenodd">
        <g id="点击文件管理器页签备份" transform="translate(-1162.000000, -99.000000)" fill="#5B89FE">
            <g id="编组" transform="translate(1166.500000, 105.000000) scale(1, -1) translate(-1166.500000, -105.000000) translate(1162.000000, 99.000000)">
                <path d="M8.75901803,4.0137162 L4.97918073,0.20368216 C4.85209798,0.0742676189 4.67907891,0.00139907882 4.49871467,0.00139907882 C4.31823385,0.00139907882 4.14533135,0.0741510378 4.01824861,0.20368216 L0.238411311,4.0137162 C0.0452222132,4.1807892 -0.0388389342,4.44311597 0.0206217934,4.69285106 C0.080082521,4.94258615 0.273155037,5.13764067 0.520325152,5.19768435 C0.767495266,5.25772803 1.02725707,5.17273417 1.19269782,4.97767964 L3.82202819,2.33680688 L3.82202819,11.2567332 C3.82202819,11.6342506 4.12504476,11.9402985 4.49883126,11.9402985 C4.87261776,11.9402985 5.17551775,11.6342506 5.17563433,11.2567332 L5.17563433,2.33680688 L7.8049647,4.97767964 C8.06892373,5.24280456 8.49529218,5.24280456 8.75925121,4.97767964 C9.02146139,4.71103905 9.02146139,4.28035679 8.75901803,4.0137162 Z" id="路径"></path>
            </g>
        </g>
    </g>
</svg>