<?xml version="1.0" encoding="UTF-8"?>
<svg width="36px" height="36px" viewBox="0 0 36 36" version="1.1" xmlns="http://www.w3.org/2000/svg" xmlns:xlink="http://www.w3.org/1999/xlink">
    <title>编组 18</title>
    <defs>
        <linearGradient x1="0%" y1="0%" x2="100%" y2="100%" id="linearGradient-1">
            <stop stop-color="#FC8249" offset="0%"></stop>
            <stop stop-color="#FE9539" offset="100%"></stop>
        </linearGradient>
    </defs>
    <g id="风格7.0" stroke="none" stroke-width="1" fill="none" fill-rule="evenodd">
        <g id="新建元数据-全部" transform="translate(-154.000000, -376.000000)">
            <g id="编组-18" transform="translate(154.000000, 376.000000)">
                <rect id="矩形备份-23" fill="url(#linearGradient-1)" x="0" y="0" width="36" height="36" rx="7"></rect>
                <g id="编组" transform="translate(10.000000, 10.000000)" fill="#FFFFFF" fill-rule="nonzero">
                    <path d="M14.8571429,0 L1.14285714,0 C0.512571429,0 0,0.512571429 0,1.14285714 L0,14.8571429 C0,15.4874286 0.512571429,16 1.14285714,16 L11.7142857,16 C12.029877,16 12.2857143,15.7441627 12.2857143,15.4285714 C12.2857143,15.1129801 12.029877,14.8571429 11.7142857,14.8571429 L1.14285714,14.8571429 L1.14285714,1.14285714 L14.8571429,1.14285714 L14.8571429,11.7142857 C14.8571429,12.029877 15.1129801,12.2857143 15.4285714,12.2857143 C15.7441627,12.2857143 16,12.029877 16,11.7142857 L16,1.14285714 C16,0.512571429 15.4874286,0 14.8571429,0 Z" id="路径"></path>
                    <path d="M12.9954286,12.1874286 C13.4620997,11.553558 13.7139718,10.7871301 13.7142857,10 C13.7142857,7.952 12.048,6.28571429 10,6.28571429 C7.952,6.28571429 6.28571429,7.952 6.28571429,10 C6.28571429,12.048 7.952,13.7142857 10,13.7142857 C10.7871301,13.7139718 11.553558,13.4620997 12.1874286,12.9954286 L14.1674286,14.9754286 C14.2743629,15.0829767 14.4197659,15.1434485 14.5714286,15.1434485 C14.7230912,15.1434485 14.8684942,15.0829767 14.9754286,14.9754286 C15.0826951,14.8683443 15.1429721,14.7229975 15.1429721,14.5714286 C15.1429721,14.4198597 15.0826951,14.2745128 14.9754286,14.1674286 L12.9954286,12.1874286 Z M7.42857143,10 C7.42857143,8.58228571 8.58228571,7.42857143 10,7.42857143 C11.4177143,7.42857143 12.5714286,8.58228571 12.5714286,10 C12.5714286,11.4177143 11.4177143,12.5714286 10,12.5714286 C8.58228571,12.5714286 7.42857143,11.4177143 7.42857143,10 Z M13.1428571,3.57142857 C13.1428571,3.25583729 12.8870199,3 12.5714286,3 L3.42857143,3 C3.11298014,3 2.85714286,3.25583729 2.85714286,3.57142857 C2.85714286,3.88701986 3.11298014,4.14285714 3.42857143,4.14285714 L12.5714286,4.14285714 C12.8870199,4.14285714 13.1428571,3.88701986 13.1428571,3.57142857 Z M3.42857143,6.40457143 C3.11298014,6.40457143 2.85714286,6.66040871 2.85714286,6.976 C2.85714286,7.29159129 3.11298014,7.54742857 3.42857143,7.54742857 L5.14285714,7.54742857 C5.45844843,7.54742857 5.71428571,7.29159129 5.71428571,6.976 C5.71428571,6.66040871 5.45844843,6.40457143 5.14285714,6.40457143 L3.42857143,6.40457143 Z" id="形状"></path>
                </g>
            </g>
        </g>
    </g>
</svg>