<?xml version="1.0" encoding="UTF-8"?>
<svg width="16px" height="16px" viewBox="0 0 16 16" version="1.1" xmlns="http://www.w3.org/2000/svg" xmlns:xlink="http://www.w3.org/1999/xlink">
    <!-- Generator: Sketch 54 (76480) - https://sketchapp.com -->
    <title>问号</title>
    <desc>Created with Sketch.</desc>
    <g id="页面1" stroke="none" stroke-width="1" fill="none" fill-rule="evenodd">
        <g id="工程首页-新建be" transform="translate(-1182.000000, -175.000000)" fill-rule="nonzero">
            <g id="问号" transform="translate(1182.000000, 175.000000)">
                <rect id="矩形" fill="#000000" opacity="0" x="0" y="0" width="16" height="16"></rect>
                <path d="M8.002,10.584 C7.7005,10.584 7.4005,10.708 7.187,10.921 C6.9735,11.134 6.8495,11.4335 6.8495,11.7345 C6.8495,12.0355 6.9735,12.3355 7.187,12.548 C7.4,12.761 7.7,12.885 8.002,12.885 C8.304,12.885 8.6035,12.761 8.817,12.548 C9.03,12.335 9.1545,12.0355 9.1545,11.7345 C9.1545,11.4335 9.0305,11.1335 8.817,10.921 C8.604,10.708 8.304,10.584 8.002,10.584 Z M7.99,3.333 C7.213,3.333 6.585,3.571 6.1065,4.046 C5.628,4.522 5.349,5.1775 5.3335,5.7815 C5.318,6.3855 6.5935,6.26 6.6405,5.962 C6.6905,5.646 6.8995,5.1355 7.143,4.9045 C7.3865,4.6735 7.69,4.5575 8.052,4.5575 C8.428,4.5575 8.727,4.6685 8.9485,4.8905 C9.17,5.1125 9.2815,5.3795 9.2815,5.6905 C9.2815,5.915 9.2185,6.1205 9.094,6.307 C9.013,6.425 8.764,6.674 8.349,7.0545 C7.934,7.435 7.656,7.7775 7.518,8.0815 C7.38,8.3855 7.31,8.7735 7.31,9.2455 C7.31,9.2905 7.3115,9.4185 7.315,9.6275 L8.6085,9.6275 C8.6015,9.1865 8.635,8.88 8.7075,8.709 C8.78,8.5375 8.9665,8.311 9.2665,8.03 C9.8465,7.4865 10.2255,7.056 10.403,6.741 C10.58,6.4255 10.668,6.09 10.668,5.7365 C10.668,5.0975 10.427,4.537 9.943,4.0555 C9.459,3.574 8.809,3.333 7.991,3.333 L7.99,3.333 Z M8,-1.13686838e-13 C3.5905,-1.11910481e-13 0,3.5885 0,8.0005 C0,12.4125 3.5895,16 8,16 C12.411,16 16,12.4125 16,8.0005 C16,3.5885 12.412,-1.13686838e-13 8,-1.13686838e-13 Z M7.995,14.983 C4.138,14.983 1.0015,11.846 1.0015,7.9915 C1.0015,4.1345 4.1385,0.9985 7.995,0.9985 C11.8515,0.9985 14.9895,4.134 14.9895,7.9915 C14.99,11.8465 11.852,14.983 7.995,14.983 Z" id="形状" fill="#6CA0F5"></path>
            </g>
        </g>
    </g>
</svg>