<?xml version="1.0" encoding="UTF-8"?>
<svg width="36px" height="36px" viewBox="0 0 36 36" version="1.1" xmlns="http://www.w3.org/2000/svg" xmlns:xlink="http://www.w3.org/1999/xlink">
    <!-- Generator: Sketch 64 (93537) - https://sketch.com -->
    <title>资源</title>
    <desc>Created with Sketch.</desc>
    <defs>
        <linearGradient x1="0%" y1="0%" x2="99.0207981%" y2="99.0207981%" id="linearGradient-1">
            <stop stop-color="#F1CA22" offset="0%"></stop>
            <stop stop-color="#EDA621" offset="100%"></stop>
        </linearGradient>
    </defs>
    <g id="风格7.0" stroke="none" stroke-width="1" fill="none" fill-rule="evenodd">
        <g id="icon" transform="translate(-80.000000, -605.000000)">
            <g id="资源" transform="translate(80.000000, 605.000000)">
                <rect id="矩形备份-21" fill="url(#linearGradient-1)" x="0" y="0" width="36" height="36" rx="7"></rect>
                <g id="shujuduixiang" transform="translate(10.000000, 9.000000)" fill="#FFFFFF" fill-rule="nonzero">
                    <path d="M7.89655172,17.6551724 C7.28415399,17.6288861 6.71687598,17.3257604 6.35466667,16.8312644 C5.8987813,16.2514452 5.54820559,15.5961076 5.31889655,14.8950805 C4.68255711,12.9368019 4.37628044,10.8863392 4.41259771,8.82758621 C4.37834771,6.77282266 4.68458968,4.72656949 5.31889655,2.77186207 C5.54678432,2.07202603 5.89751999,1.41838229 6.35466667,0.841563224 C6.71440143,0.341720644 7.28155817,0.0321656308 7.89655172,0 C8.50810814,0.0285898895 9.07340358,0.333979379 9.43255172,0.829793103 C9.89168034,1.40623904 10.2444124,2.05988947 10.4742069,2.76009195 C11.109801,4.71854591 11.416059,6.76888326 11.3805057,8.82758621 C11.4148646,10.8804302 11.108612,12.9247658 10.4742069,14.8774253 C10.2443565,15.5794001 9.89166148,16.2349745 9.43255172,16.8136092 C9.07703491,17.3152135 8.51065305,17.62553 7.89655172,17.6551724 Z M7.89655172,0.994574707 C7.57499863,1.03035946 7.28496285,1.20438093 7.10206897,1.47126436 C6.72359286,1.96398277 6.43110669,2.51711988 6.23696552,3.10731034 C5.64505491,4.95511084 5.36074752,6.88760582 5.39540229,8.82758621 C5.36074752,10.7675666 5.64505491,12.7000616 6.23696552,14.5478621 C6.42970151,15.1368449 6.72233805,15.6882757 7.10206897,16.178023 C7.28320017,16.4477257 7.57371685,16.6241877 7.89655172,16.6605977 C8.21778417,16.6240903 8.50644722,16.4474457 8.68514943,16.178023 C9.06587768,15.6889209 9.35861021,15.1373092 9.55025288,14.5478621 C10.1471047,12.7010828 10.4334744,10.7680877 10.3977012,8.82758621 C10.4334744,6.88708476 10.1471047,4.95408957 9.55025288,3.10731034 C9.36093454,2.5150808 9.06802593,1.9611448 8.68514943,1.47126436 C8.50410819,1.20525339 8.21622914,1.03123695 7.89655172,0.994574707 Z" id="形状"></path>
                    <path d="M2.56468966,14.2183206 C2.29070461,14.2191064 2.01711433,14.1974553 1.74666667,14.1535632 C1.13209527,14.0939335 0.57890116,13.7555089 0.245977017,13.2354943 C-0.0427611785,12.6865841 -0.0623024374,12.0352088 0.1930115,11.469977 C0.471191469,10.783028 0.869782307,10.1512615 1.37002298,9.60441379 C2.73725659,8.08567426 4.34590033,6.80313382 6.13103448,5.80855172 C7.8949364,4.75542971 9.81927036,3.9980214 11.8277701,3.56634483 C12.5592996,3.42233378 13.3106951,3.41037523 14.0464368,3.53103448 C14.6562355,3.58218705 15.2091012,3.90957025 15.5471264,4.41967816 C15.8358646,4.96858835 15.8554059,5.61996364 15.6000919,6.1851954 C15.3205763,6.87145871 14.9221271,7.50300065 14.4230805,8.05075862 C13.0570217,9.56914268 11.4480954,10.8499196 9.66206897,11.8407356 L9.41489655,11.4170115 L9.66206897,11.8407356 C7.90074156,12.8990892 5.9755151,13.6568488 3.96533333,14.0829425 C3.51107549,14.1677904 3.05031439,14.2130789 2.58822988,14.2183206 L2.56468966,14.2183206 Z M13.2342988,4.4137931 C12.8256368,4.41859474 12.418114,4.45796892 12.0160919,4.53149426 C10.1174394,4.93862922 8.29967953,5.6585735 6.63714943,6.66188505 C4.94002175,7.60193693 3.40908577,8.81475634 2.10565517,10.2517701 C1.69339731,10.7142525 1.36302242,11.2436484 1.12873564,11.8171954 C0.99296664,12.1122737 0.99296664,12.4519562 1.12873564,12.7470345 C1.32100572,13.0068496 1.61827251,13.1684076 1.94087357,13.1884138 C2.55216671,13.271022 3.17305387,13.2491317 3.7770115,13.1236782 C5.67276153,12.7160893 7.48819955,11.9982655 9.15006897,10.9991724 C10.8479911,10.0578789 12.3790364,8.84298451 13.6815632,7.40340229 C14.095362,6.94094835 14.4276813,6.41162549 14.6643678,5.83797702 C14.7970493,5.54223019 14.7970493,5.20388476 14.6643678,4.90813793 C14.471025,4.64955949 14.1743767,4.48833763 13.8522299,4.46675862 C13.6424457,4.42960853 13.4296833,4.41187833 13.2166437,4.4137931 L13.2342988,4.4137931 Z" id="形状"></path>
                    <path d="M13.2284138,14.2182988 C12.7643956,14.2128033 12.3017037,14.1675185 11.8454253,14.0829425 C9.82976221,13.6566168 7.89876414,12.8989337 6.13103448,11.8407356 C4.34299101,10.8430469 2.73228657,9.55647191 1.36413793,8.03310345 C0.866642523,7.48416569 0.468374845,6.85291142 0.187126431,6.16754022 C-0.0681875063,5.60230847 -0.0486462475,4.95093317 0.240091948,4.40202298 C0.583129754,3.89707894 1.13790564,3.57634914 1.74666667,3.53103448 C2.47646113,3.42288354 3.21964027,3.44480036 3.9417931,3.59577012 C5.95690104,4.01500205 7.88941217,4.7625578 9.66206897,5.80855172 C11.4595915,6.80485513 13.078567,8.09367103 14.4525057,9.62206897 C14.9507711,10.1704216 15.3491284,10.801818 15.6295172,11.4876322 C15.8813145,12.0535612 15.8618213,12.7033324 15.5765517,13.2531494 C15.2443334,13.7655127 14.700261,14.1023194 14.0935172,14.1712184 C13.8230415,14.2148769 13.5494703,14.2365264 13.2754943,14.2359651 L13.2284138,14.2182988 Z M2.5588046,4.4137931 C2.34576503,4.41187833 2.13300257,4.42960853 1.9232184,4.46675862 C1.60173875,4.49062218 1.30597734,4.65136207 1.11108047,4.90813793 C0.975311468,5.20321622 0.975311468,5.54289873 1.11108047,5.83797702 C1.34536725,6.41152403 1.67574214,6.94091994 2.088,7.40340229 C3.39140804,8.84204409 4.92228767,10.056807 6.61949426,10.9991724 C8.28894927,11.999983 10.1124131,12.7178351 12.0160919,13.1236782 C12.6238488,13.2505921 13.2488518,13.2724871 13.864,13.1884138 C14.1854796,13.1645502 14.4812411,13.0038103 14.6761379,12.7470345 C14.8088194,12.4512877 14.8088194,12.1129422 14.6761379,11.8171954 C14.4394514,11.2435469 14.1071321,10.7142241 13.6933333,10.2517701 C12.3924243,8.81206318 10.8610115,7.598866 9.16183909,6.66188505 C7.4977419,5.65747784 5.67786077,4.93748116 3.7770115,4.53149426 C3.37498945,4.45796892 2.96746662,4.41859474 2.5588046,4.4137931 L2.5588046,4.4137931 Z" id="形状"></path>
                </g>
            </g>
        </g>
    </g>
</svg>