<?xml version="1.0" encoding="UTF-8"?>
<svg width="16px" height="16px" viewBox="0 0 16 16" version="1.1" xmlns="http://www.w3.org/2000/svg" xmlns:xlink="http://www.w3.org/1999/xlink">
    <title>icon</title>
    <g id="风格7.0" stroke="none" stroke-width="1" fill="none" fill-rule="evenodd">
        <g id="icon" transform="translate(-302.000000, -34.000000)">
            <rect id="矩形" stroke-opacity="0.1" stroke="#8DA3CE" x="294.5" y="29.5" width="150" height="25" rx="6"></rect>
            <g id="编组" transform="translate(304.000000, 36.000000)" fill="#A5B9E1" fill-rule="nonzero">
                <path d="M11.8141911,10.8551563 L9.34275322,8.38045688 C11.0145696,6.19123345 10.6960425,3.0772867 8.6157164,1.27288535 C6.53539031,-0.53151601 3.41191148,-0.403043591 1.48638792,1.56612315 C-0.43913564,3.53528989 -0.501534024,6.66490456 1.34396385,8.70945665 C3.18946172,10.7540087 6.30533073,11.0072101 8.45592292,9.28738774 L10.9179082,11.752622 C11.0364797,11.8721659 11.1977871,11.9393939 11.3660497,11.9393939 C11.5343123,11.9393939 11.6956196,11.8721659 11.8141911,11.752622 C11.9331536,11.6336681 12,11.4722325 12,11.3038891 C12,11.1355458 11.9331536,10.9741102 11.8141911,10.8551563 M2.42341454,8.00185197 C1.68221871,7.26389124 1.2666507,6.25969667 1.2693192,5.2130826 C1.2693192,4.15901211 1.6792333,3.16861607 2.42341454,2.42431323 C3.16013857,1.68227037 4.16269319,1.26615688 5.20764918,1.26869612 C6.26033048,1.26869612 7.24942125,1.67914993 7.99360248,2.42431323 C8.73427099,3.16220588 9.14950467,4.16603043 9.14684325,5.21222213 C9.14996405,6.25900991 8.73469516,7.26353928 7.99360248,8.00185197 C7.25647256,8.74371025 6.25361906,9.15950952 5.20850851,9.15661215 C4.16339796,9.15950952 3.16054446,8.74371025 2.42341454,8.00185197" id="形状"></path>
            </g>
        </g>
    </g>
</svg>