<?xml version="1.0" encoding="UTF-8"?>
<svg width="36px" height="36px" viewBox="0 0 36 36" version="1.1" xmlns="http://www.w3.org/2000/svg" xmlns:xlink="http://www.w3.org/1999/xlink">
    <!-- Generator: Sketch 64 (93537) - https://sketch.com -->
    <title>状态机</title>
    <desc>Created with Sketch.</desc>
    <defs>
        <linearGradient x1="117.014304%" y1="116.376684%" x2="-19.1862763%" y2="-19.4325941%" id="linearGradient-1">
            <stop stop-color="#58C48A" offset="0%"></stop>
            <stop stop-color="#20E89F" offset="100%"></stop>
        </linearGradient>
    </defs>
    <g id="风格7.0" stroke="none" stroke-width="1" fill="none" fill-rule="evenodd">
        <g id="icon" transform="translate(-80.000000, -303.000000)">
            <g id="状态机" transform="translate(80.000000, 303.000000)">
                <g id="编组-4备份" fill="url(#linearGradient-1)">
                    <rect id="矩形备份-21" x="0" y="0" width="36" height="36" rx="7"></rect>
                </g>
                <g id="编组-3" transform="translate(10.000000, 10.000000)">
                    <path d="M8,2.5 C8,2.85587362 8.07435794,3.19438002 8.20838468,3.50083003 L0.75,3.5 C0.335786438,3.5 5.07265313e-17,3.16421356 0,2.75 C-5.07265313e-17,2.33578644 0.335786438,2 0.75,2 L8.04991252,2.00047581 C8.01718135,2.16188327 8,2.32893518 8,2.5 Z M15.25,2 C15.6642136,2 16,2.33578644 16,2.75 C16,3.16421356 15.6642136,3.5 15.25,3.5 L12.7916153,3.50083003 C12.9256421,3.19438002 13,2.85587362 13,2.5 C13,2.32893518 12.9828187,2.16188327 12.9500875,2.00047581 L15.25,2 Z" id="形状结合" fill="#FFFFFF"></path>
                    <path d="M2,8 C2,8.35587362 2.07435794,8.69438002 2.20838468,9.00083003 L0.75,9 C0.335786438,9 5.07265313e-17,8.66421356 0,8.25 C-5.07265313e-17,7.83578644 0.335786438,7.5 0.75,7.5 L2.04991252,7.50047581 C2.01718135,7.66188327 2,7.82893518 2,8 Z M15.25,7.5 C15.6642136,7.5 16,7.83578644 16,8.25 C16,8.66421356 15.6642136,9 15.25,9 L6.79161532,9.00083003 C6.92564206,8.69438002 7,8.35587362 7,8 C7,7.82893518 6.98281865,7.66188327 6.95008748,7.50047581 L15.25,7.5 Z" id="形状结合" fill="#FFFFFF"></path>
                    <path d="M8,13.5 C8,13.8558736 8.07435794,14.19438 8.20838468,14.50083 L0.75,14.5 C0.335786438,14.5 5.07265313e-17,14.1642136 0,13.75 C-5.07265313e-17,13.3357864 0.335786438,13 0.75,13 L8.04991252,13.0004758 C8.01718135,13.1618833 8,13.3289352 8,13.5 Z M15.25,13 C15.6642136,13 16,13.3357864 16,13.75 C16,14.1642136 15.6642136,14.5 15.25,14.5 L12.7916153,14.50083 C12.9256421,14.19438 13,13.8558736 13,13.5 C13,13.3289352 12.9828187,13.1618833 12.9500875,13.0004758 L15.25,13 Z" id="形状结合" fill="#FFFFFF"></path>
                    <circle id="椭圆形备份-5" stroke="#FFFFFF" stroke-width="1.5" cx="10.5" cy="2.5" r="1.75"></circle>
                    <circle id="椭圆形备份-2" stroke="#FFFFFF" stroke-width="1.5" cx="10.5" cy="13.5" r="1.75"></circle>
                    <circle id="椭圆形备份" stroke="#FFFFFF" stroke-width="1.5" cx="4.5" cy="8" r="1.75"></circle>
                </g>
            </g>
        </g>
    </g>
</svg>