<?xml version="1.0" encoding="UTF-8"?>
<svg width="36px" height="36px" viewBox="0 0 36 36" version="1.1" xmlns="http://www.w3.org/2000/svg" xmlns:xlink="http://www.w3.org/1999/xlink">
    <title>编组 21</title>
    <defs>
        <linearGradient x1="0%" y1="0%" x2="100%" y2="100%" id="linearGradient-1">
            <stop stop-color="#8B82FF" offset="0%"></stop>
            <stop stop-color="#A082FF" offset="100%"></stop>
        </linearGradient>
    </defs>
    <g id="风格7.0" stroke="none" stroke-width="1" fill="none" fill-rule="evenodd">
        <g id="新建元数据-全部" transform="translate(-154.000000, -595.000000)">
            <g id="编组-21" transform="translate(154.000000, 595.000000)">
                <rect id="矩形备份-23" fill="url(#linearGradient-1)" x="0" y="0" width="36" height="36" rx="7"></rect>
                <g id="编组" transform="translate(9.000000, 9.000000)" fill="#FFFFFF" fill-rule="nonzero">
                    <polygon id="路径" fill-opacity="0" points="0 0 18 0 18 18 0 18"></polygon>
                    <path d="M15.5039062,1.96875 C15.7951582,1.96875 16.03125,2.2048418 16.03125,2.49609375 L16.03125,8.82421875 C15.4099336,8.82421875 14.90625,8.32053516 14.90625,7.69921875 L14.90625,3.09375 L3.09375,3.09375 L3.09375,14.90625 L5.09765625,14.90625 C5.71276758,14.90625 6.21256641,15.3999141 6.22249805,16.0126523 L6.22265625,16.03125 L2.49609375,16.03125 C2.2048418,16.03125 1.96875,15.7951582 1.96875,15.5039062 L1.96875,2.49609375 C1.96875,2.2048418 2.2048418,1.96875 2.49609375,1.96875 L15.5039062,1.96875 Z M11.5664062,11.6367188 L11.5664062,12.0585938 C11.5664062,12.4430273 11.257875,12.7554082 10.8749004,12.7616309 L10.8632812,12.7617188 L10.8632812,14.90625 L14.90625,14.90625 L14.90625,12.7617188 C14.4596777,12.7617188 14.0976562,12.3996973 14.0976562,11.953125 L14.0976562,11.6367188 L15.46875,11.6367188 C15.7794082,11.6367188 16.03125,11.8885605 16.03125,12.1992188 L16.03125,15.46875 C16.03125,15.7794082 15.7794082,16.03125 15.46875,16.03125 L10.3007812,16.03125 C9.99012305,16.03125 9.73828125,15.7794082 9.73828125,15.46875 L9.73828125,12.1992188 C9.73828125,11.8885605 9.99012305,11.6367188 10.3007812,11.6367188 L11.5664062,11.6367188 Z M12.8320312,9.703125 C13.1426895,9.703125 13.3945312,9.9549668 13.3945312,10.265625 L13.3945312,13.5351562 C13.3945312,13.8458145 13.1426895,14.0976562 12.8320312,14.0976562 L11.5664062,14.0976562 L11.5664062,13.6757812 C11.5664062,13.2913477 11.8749375,12.9789668 12.2579121,12.9727441 L12.2695312,12.9726562 L12.2695312,10.828125 L8.2265625,10.828125 L8.2265625,12.9726562 C8.67313477,12.9726562 9.03515625,13.3346777 9.03515625,13.78125 L9.03515625,14.0976562 L7.6640625,14.0976562 C7.3534043,14.0976562 7.1015625,13.8458145 7.1015625,13.5351562 L7.1015625,10.265625 C7.1015625,9.9549668 7.3534043,9.703125 7.6640625,9.703125 L12.8320312,9.703125 Z M11.0039062,7.11914062 C11.0039062,7.74045703 10.5002227,8.24414062 9.87890625,8.24414062 L4.60546875,8.24414062 C4.60546875,7.62282422 5.10915234,7.11914062 5.73046875,7.11914062 L11.0039062,7.11914062 Z M13.3945312,4.55273438 C13.3945312,5.17405078 12.8908477,5.67773438 12.2695312,5.67773438 L4.60546875,5.67773438 C4.60546875,5.05641797 5.10915234,4.55273438 5.73046875,4.55273438 L13.3945312,4.55273438 Z" id="形状"></path>
                </g>
            </g>
        </g>
    </g>
</svg>