<?xml version="1.0" encoding="UTF-8"?>
<svg width="36px" height="36px" viewBox="0 0 36 36" version="1.1" xmlns="http://www.w3.org/2000/svg" xmlns:xlink="http://www.w3.org/1999/xlink">
    <title>编组 7</title>
    <defs>
        <linearGradient x1="0%" y1="0%" x2="100%" y2="100%" id="linearGradient-1">
            <stop stop-color="#FC8249" offset="0%"></stop>
            <stop stop-color="#FE9539" offset="100%"></stop>
        </linearGradient>
    </defs>
    <g id="页面-1" stroke="none" stroke-width="1" fill="none" fill-rule="evenodd">
        <g id="icon" transform="translate(-179.000000, -176.000000)">
            <g id="编组-7" transform="translate(179.000000, 176.000000)">
                <rect id="矩形备份-21" fill="url(#linearGradient-1)" x="0" y="0" width="36" height="36" rx="7"></rect>
                <path d="M23.0487958,20.3646523 L23.1620441,20.3677127 C23.1998708,20.3716126 23.2376705,20.3784213 23.2751308,20.3882265 C23.5373531,20.456863 23.742137,20.6616469 23.8107735,20.9238692 C23.8794101,21.1860915 23.8012178,21.4649442 23.60625,21.65325 L22.7595,22.49925 L26.2065,22.5 C26.5867311,22.5000502 26.906763,22.7846303 26.95125,23.16225 L26.9565,23.25 C26.9565,23.6642136 26.6207136,24 26.2065,24 L22.77975,24 L23.60625,24.825 C23.7958241,25.0144401 23.8699326,25.2906265 23.8006597,25.5495225 C23.7313868,25.8084185 23.5292567,26.0106916 23.2704097,26.0801475 L23.1587139,26.1012178 L23.0467087,26.1052197 C22.8607868,26.0979365 22.68116,26.0215643 22.54575,25.88625 L20.51325,23.85525 C20.4078306,23.7779707 20.3243433,23.6745808 20.271,23.55525 L20.2428954,23.4832488 L20.2245,23.41425 C20.2144236,23.3731631 20.2081472,23.3312365 20.20575,23.289 L20.20575,23.19 C20.2162952,23.0066819 20.2939905,22.8336697 20.424,22.704 L20.50125,22.6365 L22.54575,20.59275 C22.6533533,20.4813398 22.790523,20.4080605 22.9372609,20.3785195 L23.0487958,20.3646523 Z M21.375,9 C21.9544664,9 22.4391212,9.44020993 22.49475,10.017 L22.5,10.125 L22.5,12 L24.375,12 C24.9544664,12 25.4391212,12.4402099 25.49475,13.017 L25.5,13.125 L25.5,18.75 C25.4995598,19.14682 25.1900921,19.4746236 24.7939539,19.497879 C24.3978156,19.5211345 24.0521181,19.2317928 24.00525,18.83775 L24,18.75 L24,13.5 L13.5,13.5 L13.5,24 L18.75,24 C19.1302311,24.0000502 19.450263,24.2846303 19.49475,24.66225 L19.5,24.75 C19.4999498,25.1302311 19.2153697,25.450263 18.83775,25.49475 L18.75,25.5 L13.125,25.5 C12.5455336,25.5 12.0608788,25.0597901 12.00525,24.483 L12,24.375 L12,22.5 L10.125,22.5 C9.54553357,22.5 9.06087878,22.0597901 9.00525001,21.483 L9,21.375 L9,10.125 C9,9.54553357 9.44020993,9.06087878 10.017,9.00525001 L10.125,9 L21.375,9 Z M12,21 L12,13.125 C12,12.5455336 12.4402099,12.0608788 13.017,12.00525 L13.125,12 L21,12 L21.001,10.5 L10.5,10.498 L10.498,21 L12,21 Z M21,16.5 C21.4583333,16.5 21.7065972,16.7100694 21.7447917,17.1302083 L21.75,17.25 C21.75,17.75 21.5,18 21,18 L16.5,18 C16.0416667,18 15.7934028,17.7899306 15.7552083,17.3697917 L15.75,17.25 C15.75,16.75 16,16.5 16.5,16.5 L21,16.5 Z" id="形状结合" fill="#FFFFFF" fill-rule="nonzero"></path>
            </g>
        </g>
    </g>
</svg>