<?xml version="1.0" encoding="UTF-8"?>
<svg width="36px" height="36px" viewBox="0 0 36 36" version="1.1" xmlns="http://www.w3.org/2000/svg" xmlns:xlink="http://www.w3.org/1999/xlink">
    <title>编组 19</title>
    <defs>
        <linearGradient x1="0%" y1="0%" x2="100%" y2="100%" id="linearGradient-1">
            <stop stop-color="#1FC8DC" offset="0%"></stop>
            <stop stop-color="#41D2BD" offset="100%"></stop>
        </linearGradient>
    </defs>
    <g id="风格7.0" stroke="none" stroke-width="1" fill="none" fill-rule="evenodd">
        <g id="新建元数据-全部" transform="translate(-154.000000, -449.000000)">
            <g id="编组-19" transform="translate(154.000000, 449.000000)">
                <rect id="矩形备份-21" fill="url(#linearGradient-1)" x="0" y="0" width="36" height="36" rx="7"></rect>
                <g id="编组" transform="translate(10.000000, 11.000000)" fill="#FFFFFF" fill-rule="nonzero">
                    <path d="M14.1104294,10.7285276 L14.1104294,7.57924335 C14.1104294,7.25204498 13.8241309,6.96574641 13.4969325,6.96574641 L8.58895706,6.96574641 L8.58895706,4.51175868 L13.2924335,4.51175868 C13.7423313,4.51175868 14.1104294,4.14366053 14.1104294,3.69376279 L14.1104294,0.83077709 C14.1104294,0.380879333 13.7423313,0.0127811925 13.2924335,0.0127811925 L2.65848671,0.0127811925 C2.20858896,0.0127811925 1.8404908,0.380879352 1.8404908,0.83077709 L1.8404908,3.69376279 C1.8404908,4.14366054 2.20858896,4.5117587 2.65848671,4.51175868 L7.36196319,4.51175868 L7.36196319,6.96574641 L2.45398773,6.96574641 C2.12678936,6.96574641 1.8404908,7.25204498 1.8404908,7.57924335 L1.8404908,10.7285276 C0.777096108,11.0148262 0,11.9555215 0,13.1007157 C0,14.450409 1.10429448,15.5547035 2.45398773,15.5547035 C3.80368098,15.5547035 4.90797546,14.450409 4.90797546,13.1007157 C4.90797546,11.9555215 4.13087935,11.0148262 3.06748466,10.7285276 L3.06748466,8.19274028 L7.36196319,8.19274028 L7.36196319,10.7285276 C6.2985685,11.0148262 5.52147239,11.9555215 5.52147239,13.1007157 C5.52147239,14.450409 6.62576687,15.5547035 7.97546012,15.5547035 C9.32515337,15.5547035 10.4294479,14.450409 10.4294479,13.1007157 C10.4294479,11.9555215 9.65235174,11.0148262 8.58895706,10.7285276 L8.58895706,8.19274028 L12.8834356,8.19274028 L12.8834356,10.7285276 C11.8200409,11.0148262 11.0429448,11.9555215 11.0429448,13.1007157 C11.0429448,14.450409 12.1472393,15.5547035 13.4969325,15.5547035 C14.8466258,15.5547035 15.9509202,14.450409 15.9509202,13.1007157 C15.9509202,11.9555215 15.1738241,11.0148262 14.1104294,10.7285276 Z M3.06748466,1.23977506 L12.8834356,1.23977506 L12.8834356,3.28476482 L3.06748466,3.28476482 L3.06748466,1.23977506 Z M3.6809816,13.1007157 C3.6809816,13.7960123 3.14928426,14.3277096 2.45398773,14.3277096 C1.7586912,14.3277096 1.22699387,13.7960123 1.22699387,13.1007157 C1.22699387,12.4054192 1.7586912,11.8737219 2.45398773,11.8737219 C3.14928426,11.8737219 3.6809816,12.4054192 3.6809816,13.1007157 Z M9.20245399,13.1007157 C9.20245399,13.7960123 8.67075665,14.3277096 7.97546012,14.3277096 C7.28016359,14.3277096 6.74846626,13.7960123 6.74846626,13.1007157 C6.74846626,12.4054192 7.28016359,11.8737219 7.97546012,11.8737219 C8.67075665,11.8737219 9.20245399,12.4054192 9.20245399,13.1007157 Z M13.4969325,14.3277096 C12.801636,14.3277096 12.2699387,13.7960123 12.2699387,13.1007157 C12.2699387,12.4054192 12.801636,11.8737219 13.4969325,11.8737219 C14.192229,11.8737219 14.7239264,12.4054192 14.7239264,13.1007157 C14.7239264,13.7960123 14.192229,14.3277096 13.4969325,14.3277096 Z" id="形状"></path>
                </g>
            </g>
        </g>
    </g>
</svg>