<?xml version="1.0" encoding="UTF-8"?>
<svg width="18px" height="18px" viewBox="0 0 18 18" version="1.1" xmlns="http://www.w3.org/2000/svg" xmlns:xlink="http://www.w3.org/1999/xlink">
    <title>业务定制平台</title>
    <g id="竖型导航" stroke="none" stroke-width="1" fill="none" fill-rule="evenodd" opacity="0.69484282">
        <g id="垂直菜单视图4" transform="translate(-24.000000, -111.000000)" fill="#FFFFFF">
            <g id="编组-6" transform="translate(24.000000, 63.000000)">
                <g id="业务定制平台" transform="translate(0.000000, 48.000000)">
                    <path d="M17.5285798,4.188204 C17.8285379,4.311036 18,4.597812 18,4.92546 C18,5.212164 17.8285379,5.49894 17.5285798,5.662716 L9.38563895,9.758748 C9.25714286,9.799716 9.12854632,9.840684 8.99994978,9.840684 C8.87145368,9.840684 8.74285714,9.799716 8.6142606,9.758748 L0.471420201,5.662716 C0.171361607,5.49894 0,5.212164 0,4.92546 C0,4.63878 0.171361607,4.352004 0.471420201,4.188204 L8.6142606,0.092196 C8.87145368,-0.030732 9.17141183,-0.030732 9.42852958,0.092196 L17.5285798,4.188204 Z M8.99994978,8.079396 L15.3000251,4.92546 L8.99994978,1.771524 L2.69997489,4.92546 L8.99994978,8.079396 Z" id="Fill-1"></path>
                    <path d="M17.9088844,8.45791489 C17.6947129,8.04823489 17.1808014,7.88443489 16.7525335,8.13017089 L9.00105266,11.9804669 L1.2495718,8.08920289 C0.821303901,7.88443489 0.307392459,8.04823489 0.0933212426,8.41694689 C-0.120850347,8.82653089 0.0504869246,9.31807489 0.435895413,9.52281889 L8.57280985,13.6188509 C8.7013128,13.7007869 8.82981576,13.7007869 8.95821834,13.7007869 C9.08672129,13.7007869 9.21522425,13.6598189 9.34362683,13.6188509 L17.4806416,9.52281889 C17.9517188,9.35894689 18.1229808,8.82653089 17.9088844,8.45791489" id="Fill-3"></path>
                    <path d="M16.8048898,12.0892099 L9.02918343,15.9803779 L1.25347701,12.0892099 C0.823870648,11.8844419 0.308353088,12.0482179 0.0936128388,12.4168579 C-0.121228098,12.7854739 0.0506446515,13.3179859 0.43725765,13.5228259 L8.59960224,17.6187619 C8.7285068,17.7006979 8.85741136,17.7006979 8.98621524,17.7006979 C9.1151198,17.7006979 9.24402436,17.6597299 9.37282824,17.6187619 L17.5352735,13.5228259 C17.9648547,13.3179859 18.1366519,12.8264419 17.8789183,12.4168579 C17.7500138,12.0482179 17.2344962,11.8844419 16.8048898,12.0892099" id="Fill-4"></path>
                </g>
            </g>
        </g>
    </g>
</svg>