<?xml version="1.0" encoding="UTF-8"?>
<svg width="16px" height="16px" viewBox="0 0 16 16" version="1.1" xmlns="http://www.w3.org/2000/svg" xmlns:xlink="http://www.w3.org/1999/xlink">
    <title>仓储管理</title>
    <g id="页面-1" stroke="none" stroke-width="1" fill="none" fill-rule="evenodd" opacity="0.849999964">
        <g id="04.3竖导航-通栏-搜索" transform="translate(-22.000000, -389.000000)">
            <g id="left" transform="translate(-31.333476, 0.000000)">
                <g id="编组-37" transform="translate(53.333476, 98.000000)">
                    <g id="icon" transform="translate(0.000000, 15.000000)">
                        <g id="仓储管理" transform="translate(0.000000, 276.000000)">
                            <rect id="矩形" stroke="#979797" stroke-width="0.9" fill="#D8D8D8" opacity="0" x="0.45" y="0.45" width="15.1" height="15.1"></rect>
                            <path d="M8.88822743,0.270171346 L9.00843319,0.359634399 L15.7974246,5.55485218 C16.0281501,5.74852225 16.0673353,6.09170557 15.886336,6.33353167 L15.8691461,6.35588886 C15.7076814,6.55456808 15.4319355,6.60205213 15.2175464,6.48103218 L14.8173254,6.20065161 L14.8173254,14.5996378 C14.8173254,15.5393033 14.3901257,15.9423311 13.6383418,15.9953229 L13.5023255,16 L2.87148091,16 C2.06379897,16 1.26098085,15.327919 1.18966615,14.4289067 L1.18453301,14.2996825 L1.18453301,6.20065161 L0.844750567,6.44011097 C0.614546422,6.61539626 0.28752902,6.56861871 0.11433707,6.33563036 C-0.0471424843,6.12061262 -0.034426045,5.8250877 0.132550941,5.62567792 L0.202359338,5.55574962 L6.93946901,0.359634399 C7.47968874,-0.0868973407 8.30855323,-0.117449649 8.88822743,0.270171346 Z M8.58225087,5.5 L7.25108211,5.5 L7.25108211,6.03246751 C6.62987001,6.1212121 6.0974025,6.47619044 5.65367958,7.00865795 L5.65367958,7.00865795 L5.20995667,6.7424242 L4.5,7.71861462 L4.94372292,7.98484837 C4.85497834,8.3398267 4.76623375,8.60606045 4.76623375,8.9610388 C4.76623375,9.31601714 4.85497832,9.67099549 4.94372292,9.93722924 L4.94372292,9.93722924 L4.5,10.203463 L5.20995667,11.3571426 L5.65367958,11.0909088 C6.00865793,11.6233764 6.62987001,11.8896101 7.25108211,12.0670993 L7.25108211,12.0670993 L7.25108211,12.5995668 L8.58225087,12.5995668 L8.58225087,12.2445884 C9.20346297,12.0670993 9.73593048,11.7121209 10.1796534,11.268398 L10.1796534,11.268398 L10.6233763,11.5346318 L11.333333,10.3809522 L10.8896101,10.1147184 C10.9783547,9.75974008 11.0670992,9.49350632 11.0670992,9.13852798 C11.0670992,8.78354963 10.9783547,8.42857129 10.8896101,8.16233754 L10.8896101,8.16233754 L11.333333,7.89610378 L10.6233763,6.7424242 L10.1796534,7.00865795 C9.82467505,6.47619042 9.20346297,6.20995667 8.58225087,6.03246751 L8.58225087,6.03246751 L8.58225087,5.5 Z M7.9610388,7.2748917 C8.93722922,7.2748917 9.73593048,8.07359296 9.73593048,9.04978339 C9.73593048,10.0259738 8.93722922,10.8246751 7.9610388,10.8246751 C6.98484835,10.8246751 6.18614709,10.0259738 6.18614709,9.04978339 C6.18614709,8.07359296 6.98484837,7.2748917 7.9610388,7.2748917 Z M7.9610388,8.16233754 C7.42857129,8.16233754 7.07359294,8.51731588 7.07359294,9.04978339 C7.07359294,9.58225089 7.42857129,9.93722924 7.9610388,9.93722924 C8.40476171,9.93722924 8.84848463,9.58225089 8.84848463,9.04978339 C8.84848463,8.51731588 8.4935063,8.16233754 7.9610388,8.16233754 Z" id="形状结合" fill="#FFFFFF"></path>
                        </g>
                    </g>
                </g>
            </g>
        </g>
    </g>
</svg>