<?xml version="1.0" encoding="UTF-8"?>
<svg width="18px" height="18px" viewBox="0 0 18 18" version="1.1" xmlns="http://www.w3.org/2000/svg" xmlns:xlink="http://www.w3.org/1999/xlink">
    <title>应收应付备份 2</title>
    <g id="竖型导航" stroke="none" stroke-width="1" fill="none" fill-rule="evenodd" opacity="0.69484282">
        <g id="垂直菜单视图4" transform="translate(-25.000000, -495.000000)">
            <g id="编组-6" transform="translate(24.000000, 63.000000)">
                <g id="应收应付备份-2" transform="translate(1.000000, 432.000000)">
                    <rect id="矩形" fill="#D8D8D8" opacity="0" x="0" y="0" width="18" height="18"></rect>
                    <path d="M14.3333333,1.75 C14.8626062,1.75 15.3417729,1.96453022 15.6886213,2.31137867 C16.0354698,2.65822711 16.25,3.13739378 16.25,3.66666667 L16.25,3.66666667 L16.25,14.3333333 C16.25,14.8626062 16.0354698,15.3417729 15.6886213,15.6886213 C15.3417729,16.0354698 14.8626062,16.25 14.3333333,16.25 L14.3333333,16.25 L3.66666667,16.25 C3.13739378,16.25 2.65822711,16.0354698 2.31137867,15.6886213 C1.96453022,15.3417729 1.75,14.8626062 1.75,14.3333333 L1.75,14.3333333 L1.75,3.66666667 C1.75,3.13739378 1.96453022,2.65822711 2.31137867,2.31137867 C2.65822711,1.96453022 3.13739378,1.75 3.66666667,1.75 L3.66666667,1.75 Z" id="路径" stroke="#FFFFFF" stroke-width="1.5" fill-rule="nonzero"></path>
                    <path d="M3.43140199,7.76780797 L6.96050112,3.92057112 L10.744,6.98 L13.5152366,4.18576022 C13.780363,3.91835833 14.1969194,3.89237211 14.4914591,4.10896998 L14.5758871,4.18122803 C14.843289,4.44635441 14.8692752,4.86291086 14.6526773,5.15745056 L14.5804193,5.24187852 L10.8551691,8.99910151 L7.112,5.973 L4.5367803,8.78177976 C4.28223432,9.05927229 3.86700065,9.10140967 3.56427463,8.89640911 L3.47710525,8.82748302 C3.19961271,8.57293704 3.15747534,8.15770337 3.3624759,7.85497735 L3.43140199,7.76780797 Z" id="路径" fill="#FFFFFF"></path>
                    <path d="M4.6,10.4 C4.89823376,10.4 5.14564675,10.6175896 5.19214701,10.9026769 L5.2,11 L5.2,12.842606 C5.2,13.1739768 4.93137085,13.442606 4.6,13.442606 C4.30176624,13.442606 4.05435325,13.2250164 4.00785299,12.9399291 L4,12.842606 L4,11 C4,10.6686292 4.26862915,10.4 4.6,10.4 Z" id="路径" fill="#FFFFFF"></path>
                    <path d="M10.6,10.4 C10.8982338,10.4 11.1456468,10.6175896 11.192147,10.9026769 L11.2,11 L11.2,12.842606 C11.2,13.1739768 10.9313708,13.442606 10.6,13.442606 C10.3017662,13.442606 10.0543532,13.2250164 10.007853,12.9399291 L10,12.842606 L10,11 C10,10.6686292 10.2686292,10.4 10.6,10.4 Z" id="路径" fill="#FFFFFF"></path>
                    <path d="M7.6,8.4 C7.89823376,8.4 8.14564675,8.61758961 8.19214701,8.90267688 L8.2,9 L8.2,12.842606 C8.2,13.1739768 7.93137085,13.442606 7.6,13.442606 C7.30176624,13.442606 7.05435325,13.2250164 7.00785299,12.9399291 L7,12.842606 L7,9 C7,8.66862915 7.26862915,8.4 7.6,8.4 Z" id="路径" fill="#FFFFFF"></path>
                    <path d="M13.6,8.4 C13.8982338,8.4 14.1456468,8.61758961 14.192147,8.90267688 L14.2,9 L14.2,12.84 C14.2,13.1713708 13.9313708,13.44 13.6,13.44 C13.3017662,13.44 13.0543532,13.2224104 13.007853,12.9373231 L13,12.84 L13,9 C13,8.66862915 13.2686292,8.4 13.6,8.4 Z" id="路径" fill="#FFFFFF"></path>
                </g>
            </g>
        </g>
    </g>
</svg>