<?xml version="1.0" encoding="UTF-8"?>
<svg width="16px" height="16px" viewBox="0 0 16 16" version="1.1" xmlns="http://www.w3.org/2000/svg" xmlns:xlink="http://www.w3.org/1999/xlink">
    <title>计划管理</title>
    <g id="页面-1" stroke="none" stroke-width="1" fill="none" fill-rule="evenodd" opacity="0.849999964">
        <g id="04.3竖导航-通栏-搜索" transform="translate(-22.000000, -251.000000)">
            <g id="left" transform="translate(-31.333476, 0.000000)">
                <g id="编组-37" transform="translate(53.333476, 98.000000)">
                    <g id="icon" transform="translate(0.000000, 15.000000)">
                        <g id="计划管理" transform="translate(0.000000, 138.000000)">
                            <rect id="矩形" stroke="#979797" stroke-width="0.9" fill="#D8D8D8" opacity="0" x="0.45" y="0.45" width="15.1" height="15.1"></rect>
                            <path d="M13.2222222,0.666666667 C13.5290471,0.666666667 13.8068249,0.791032014 14.0078964,0.992103576 C14.1802435,1.16445063 14.2962349,1.39315327 14.3258581,1.64819875 L14.3333333,1.77777778 L14.3333333,13.2222222 C14.3333333,13.5290471 14.208968,13.8068249 14.0078964,14.0078964 C13.8355494,14.1802435 13.6068467,14.2962349 13.3518013,14.3258581 L13.2222222,14.3333333 L1.77777778,14.3333333 C1.47095292,14.3333333 1.19317514,14.208968 0.992103576,14.0078964 C0.819756523,13.8355494 0.703765056,13.6068467 0.674141924,13.3518013 L0.666666667,13.2222222 L0.666666667,1.77777778 C0.666666667,1.47095292 0.791032014,1.19317514 0.992103576,0.992103576 C1.16445063,0.819756523 1.39315327,0.703765056 1.64819875,0.674141924 L1.77777778,0.666666667 L13.2222222,0.666666667 Z M4.35831032,7.66992679 C3.90158202,7.66992679 3.48802713,7.85508275 3.1886628,8.15444708 C2.88929847,8.45381141 2.7041425,8.86736631 2.7041425,9.3240946 C2.7041425,9.7808229 2.88929847,10.1943778 3.1886628,10.4937421 C3.48802713,10.7931065 3.90158202,10.9782624 4.35831032,10.9782624 C4.81503862,10.9782624 5.22859351,10.7931065 5.52795784,10.4937421 C5.82732217,10.1943778 6.01247813,9.7808229 6.01247813,9.3240946 C6.01247813,8.86736631 5.82732217,8.45381141 5.52795784,8.15444708 C5.22859351,7.85508275 4.81503862,7.66992679 4.35831032,7.66992679 Z M11.0825597,8.09520726 L7.26693603,9.27958364 L7.66220114,10.552982 L11.4778248,9.36860557 L11.0825597,8.09520726 Z M6.89760073,1.87938045 L4.25983127,4.85972886 L0.810534032,5.46803133 L5.63056075,7.25206026 L6.89760073,1.87938045 Z M11.0693737,4.09945088 L7.51624456,5.28382726 L7.93788159,6.54873833 L11.4910107,5.36436195 L11.0693737,4.09945088 Z" id="形状结合" stroke="#FFFFFF" stroke-width="1.33333333" fill="#FFFFFF"></path>
                            <g id="编组-11" transform="translate(3.183016, 4.136839)"></g>
                        </g>
                    </g>
                </g>
            </g>
        </g>
    </g>
</svg>