<?xml version="1.0" encoding="UTF-8"?>
<svg width="16px" height="16px" viewBox="0 0 16 16" version="1.1" xmlns="http://www.w3.org/2000/svg" xmlns:xlink="http://www.w3.org/1999/xlink">
    <title>购销报表</title>
    <g id="页面-1" stroke="none" stroke-width="1" fill="none" fill-rule="evenodd" opacity="0.849999964">
        <g id="04.3竖导航-通栏-搜索" transform="translate(-22.000000, -297.000000)">
            <g id="left" transform="translate(-31.333476, 0.000000)">
                <g id="编组-37" transform="translate(53.333476, 98.000000)">
                    <g id="icon" transform="translate(0.000000, 15.000000)">
                        <g id="购销报表" transform="translate(0.000000, 184.000000)">
                            <rect id="矩形" fill="#D8D8D8" opacity="0" x="0" y="0" width="16" height="16"></rect>
                            <path d="M12.5,0 C13.8807119,0 15,1.11928813 15,2.5 L15,12.5 C15,13.8807119 13.8807119,15 12.5,15 L2.5,15 C1.11928813,15 0,13.8807119 0,12.5 L0,2.5 C0,1.11928813 1.11928813,0 2.5,0 L12.5,0 Z M4.8102413,9.47686356 L4.6102413,9.47686356 C4.33409893,9.47686356 4.1102413,9.70072118 4.1102413,9.97686356 L4.1102413,9.97686356 L4.1102413,10.9768636 C4.1102413,11.2530059 4.33409893,11.4768636 4.6102413,11.4768636 L4.6102413,11.4768636 L4.8102413,11.4768636 C5.08638368,11.4768636 5.3102413,11.2530059 5.3102413,10.9768636 L5.3102413,10.9768636 L5.3102413,9.97686356 C5.3102413,9.70072118 5.08638368,9.47686356 4.8102413,9.47686356 L4.8102413,9.47686356 Z M7.8102413,7.47686356 L7.6102413,7.47686356 C7.33409893,7.47686356 7.1102413,7.70072118 7.1102413,7.97686356 L7.1102413,7.97686356 L7.1102413,10.9768636 C7.1102413,11.2530059 7.33409893,11.4768636 7.6102413,11.4768636 L7.6102413,11.4768636 L7.8102413,11.4768636 C8.08638368,11.4768636 8.3102413,11.2530059 8.3102413,10.9768636 L8.3102413,10.9768636 L8.3102413,7.97686356 C8.3102413,7.70072118 8.08638368,7.47686356 7.8102413,7.47686356 L7.8102413,7.47686356 Z M10.8102413,8.47686356 L10.6102413,8.47686356 C10.3340989,8.47686356 10.1102413,8.70072118 10.1102413,8.97686356 L10.1102413,8.97686356 L10.1102413,10.9768636 C10.1102413,11.2530059 10.3340989,11.4768636 10.6102413,11.4768636 L10.6102413,11.4768636 L10.8102413,11.4768636 C11.0863837,11.4768636 11.3102413,11.2530059 11.3102413,10.9768636 L11.3102413,10.9768636 L11.3102413,8.97686356 C11.3102413,8.70072118 11.0863837,8.47686356 10.8102413,8.47686356 L10.8102413,8.47686356 Z M6.2954815,3.68767766 L3.85398851,6.3257517 L3.80630422,6.38552428 C3.66448122,6.59310538 3.6936326,6.87783367 3.88560683,7.05237741 L3.88560683,7.05237741 L3.94591214,7.09964046 C4.15534334,7.24021061 4.44260931,7.21131675 4.61870871,7.02103841 L4.61870871,7.02103841 L6.4002911,5.0950408 L8.98988145,7.17005727 L11.5670752,4.59370629 L11.6170646,4.53581352 C11.7669108,4.33384583 11.7489331,4.0482105 11.5639398,3.86641171 L11.5639398,3.86641171 L11.505531,3.81686392 C11.3017632,3.66834142 11.0135822,3.68616034 10.830163,3.86951946 L10.830163,3.86951946 L8.91297273,5.78554691 L6.2954815,3.68767766 Z" id="形状结合" fill="#FFFFFF" fill-rule="nonzero"></path>
                            <g id="编组-12" transform="translate(4.079573, 4.070292)"></g>
                        </g>
                    </g>
                </g>
            </g>
        </g>
    </g>
</svg>