<?xml version="1.0" encoding="UTF-8"?>
<svg width="30px" height="30px" viewBox="0 0 30 30" version="1.1" xmlns="http://www.w3.org/2000/svg" xmlns:xlink="http://www.w3.org/1999/xlink">
    <title>编组 34</title>
    <defs>
        <linearGradient x1="50%" y1="0%" x2="50%" y2="100%" id="linearGradient-1">
            <stop stop-color="#0D7FE6" offset="0%"></stop>
            <stop stop-color="#1EBBC6" offset="58.0673923%"></stop>
            <stop stop-color="#2AE7AF" offset="100%"></stop>
        </linearGradient>
        <linearGradient x1="50%" y1="0%" x2="50%" y2="100%" id="linearGradient-2">
            <stop stop-color="#CBE6FF" offset="0%"></stop>
            <stop stop-color="#8CFFDD" offset="100%"></stop>
        </linearGradient>
        <path d="M13.2285288,0 L24.0724647,5.96470036 L24.0724647,19.7310145 L23.3596888,20.4410787 L12.927,14.698 L12.9272469,26.1954685 L11.263118,26.1954685 L1.4308841,20.7701275 L0,18.0656059 L0,6.71818084 L1.94530801,5.50874069 L10.792,10.777 L10.7922955,0.084689855 L13.2285288,0 Z M10.8978561,14.7658453 L3.0519573,19.2837036 L10.8978561,23.6059285 L10.8978561,14.7658453 Z M21.9464612,8.35369045 L14.0550972,12.9408111 L21.9464612,17.3036293 L21.9464612,8.35369045 Z M2.1323396,8.11691434 L2.1323396,17.3036293 L10.0531605,12.8286599 L2.1323396,8.11691434 Z M12.9272469,2.27079243 L12.9272469,11.1655692 L20.93319,6.55062689 L12.9272469,2.27079243 Z" id="path-3"></path>
        <linearGradient x1="81.0966666%" y1="38.5783419%" x2="28.8545509%" y2="61.941884%" id="linearGradient-5">
            <stop stop-color="#FFFFFF" offset="0%"></stop>
            <stop stop-color="#FFFFFF" stop-opacity="0" offset="100%"></stop>
        </linearGradient>
        <filter x="0.0%" y="0.0%" width="100.0%" height="100.0%" filterUnits="objectBoundingBox" id="filter-6">
            <feGaussianBlur stdDeviation="0" in="SourceGraphic"></feGaussianBlur>
        </filter>
        <linearGradient x1="44.8152906%" y1="77.6521765%" x2="44.8152906%" y2="3.26462903%" id="linearGradient-7">
            <stop stop-color="#FFFFFF" offset="0%"></stop>
            <stop stop-color="#FFFFFF" stop-opacity="0" offset="100%"></stop>
        </linearGradient>
        <filter x="0.0%" y="0.0%" width="100.0%" height="100.0%" filterUnits="objectBoundingBox" id="filter-8">
            <feGaussianBlur stdDeviation="0" in="SourceGraphic"></feGaussianBlur>
        </filter>
        <linearGradient x1="3.93796935%" y1="32.6380472%" x2="78.9687461%" y2="60.0288256%" id="linearGradient-9">
            <stop stop-color="#FFFFFF" offset="0%"></stop>
            <stop stop-color="#FFFFFF" stop-opacity="0" offset="100%"></stop>
        </linearGradient>
        <filter x="0.0%" y="0.0%" width="100.0%" height="100.0%" filterUnits="objectBoundingBox" id="filter-10">
            <feGaussianBlur stdDeviation="0" in="SourceGraphic"></feGaussianBlur>
        </filter>
        <linearGradient x1="50%" y1="0%" x2="50%" y2="100%" id="linearGradient-11">
            <stop stop-color="#CBE6FF" offset="0%"></stop>
            <stop stop-color="#8CFFDD" offset="100%"></stop>
        </linearGradient>
        <linearGradient x1="10.434388%" y1="68.032268%" x2="86.6988821%" y2="30.8983557%" id="linearGradient-12">
            <stop stop-color="#21C6C1" offset="0%"></stop>
            <stop stop-color="#FFFFFF" stop-opacity="0" offset="100%"></stop>
        </linearGradient>
        <linearGradient x1="50%" y1="0%" x2="50%" y2="100%" id="linearGradient-13">
            <stop stop-color="#F2FBFE" offset="0%"></stop>
            <stop stop-color="#5AC8FF" offset="100%"></stop>
        </linearGradient>
    </defs>
    <g id="页面-1" stroke="none" stroke-width="1" fill="none" fill-rule="evenodd">
        <g id="提示集" transform="translate(-361, -1623)">
            <g id="编组-6备份-2" transform="translate(351, 1614)">
                <g id="编组-22" transform="translate(0.9, 0)">
                    <g id="编组-34" transform="translate(9.9, 9.9)">
                        <rect id="矩形" x="0" y="0" width="28.8" height="28.8"></rect>
                        <g id="编组-19备份-17" transform="translate(0.9, 0)">
                            <path d="M14.6552813,1.45918889 L25.4992172,7.42388925 L25.4992172,21.1902034 L24.7864413,21.9002676 L14.3537525,16.1571889 L14.3539994,27.6546574 L12.6898706,27.6546574 L2.85763661,22.2293164 L1.42675251,19.5247948 L1.42675251,8.17736972 L3.37206053,6.96792958 L12.2187525,12.2361889 L12.219048,1.54387874 L14.6552813,1.45918889 Z M12.3246087,16.2250342 L4.47870981,20.7428925 L12.3246087,25.0651173 L12.3246087,16.2250342 Z M23.3732137,9.81287934 L15.4818497,14.4 L23.3732137,18.7628182 L23.3732137,9.81287934 Z M3.55909211,9.57610322 L3.55909211,18.7628182 L11.479913,14.2878488 L3.55909211,9.57610322 Z M14.3539994,3.72998132 L14.3539994,12.6247581 L22.3599425,8.00981577 L14.3539994,3.72998132 Z" id="形状结合" fill="url(#linearGradient-1)"></path>
                            <g id="路径-2-+-路径-3-+-路径-4蒙版" transform="translate(1.4268, 1.4592)">
                                <mask id="mask-4" fill="white">
                                    <use xlink:href="#path-3"></use>
                                </mask>
                                <use id="蒙版" fill="url(#linearGradient-2)" xlink:href="#path-3"></use>
                                <polygon id="路径-2" fill="url(#linearGradient-5)" filter="url(#filter-6)" mask="url(#mask-4)" points="7.44302792 12.2026008 11.8543351 12.2026008 12.2964811 14.4751529 5.00197839 19.3965944 1.95587637 15.2543958"></polygon>
                                <polygon id="路径-3" fill="url(#linearGradient-7)" filter="url(#filter-8)" mask="url(#mask-4)" points="12.2964811 11.756338 14.2359986 7.92540067 14.597233 3.3343413 9.52909737 3.08751799 9.89192906 8.84937896 11.8543351 11.756338"></polygon>
                                <polygon id="路径-4" fill="url(#linearGradient-9)" filter="url(#filter-10)" mask="url(#mask-4)" points="17.6138168 12.9408111 12.8116054 13.1127474 12.8116054 14.4401292 14.948506 17.4955808 19.128671 19.0585426 21.8909577 14.8905014"></polygon>
                            </g>
                            <path d="M14.6552813,1.45918889 L25.4992172,7.42388925 L25.4992172,21.1902034 L24.7864413,21.9002676 L12.219048,14.9824589 L12.219048,1.54387874 L14.6552813,1.45918889 Z M14.3539994,3.72998132 L14.3539994,12.6247581 L14.860048,12.3321889 L14.8607542,13.4866516 L15.805048,14.2111889 L15.4818497,14.4 L23.3732137,18.7628182 L23.373048,9.81818889 L23.8533782,9.01133335 L22.3599425,8.00981577 L14.3539994,3.72998132 Z" id="形状结合" fill="url(#linearGradient-11)"></path>
                            <polygon id="路径" fill="url(#linearGradient-12)" fill-rule="nonzero" points="11.8612039 14.0808875 12.4065376 16.1577244 4.47870981 20.7428925 3.83521289 18.6003922"></polygon>
                            <g id="编组-21" fill="url(#linearGradient-13)">
                                <path d="M13.3513887,17.3833069 C15.1499476,17.3833069 16.6079676,15.9265542 16.6079676,14.1295586 C16.6079676,12.332563 15.1499476,10.8758102 13.3513887,10.8758102 C11.5528298,10.8758102 10.0948097,12.332563 10.0948097,14.1295586 C10.0948097,15.9265542 11.5528298,17.3833069 13.3513887,17.3833069 Z M24.462406,10.5452041 C25.8638805,10.5452041 27,9.41007208 27,8.00981577 C27,6.60955947 25.8638805,5.47442745 24.462406,5.47442745 C23.0609316,5.47442745 21.924812,6.60955947 21.924812,8.00981577 C21.924812,9.41007208 23.0609316,10.5452041 24.462406,10.5452041 Z M13.3513887,28.8 C14.7528631,28.8 15.8889826,27.664868 15.8889826,26.2646117 C15.8889826,24.8643554 14.7528631,23.7292234 13.3513887,23.7292234 C11.9499142,23.7292234 10.8137947,24.8643554 10.8137947,26.2646117 C10.8137947,27.664868 11.9499142,28.8 13.3513887,28.8 Z M2.53759398,22.7979998 C3.93906844,22.7979998 5.07518797,21.6628678 5.07518797,20.2626115 C5.07518797,18.8623552 3.93906844,17.7272232 2.53759398,17.7272232 C1.13611953,17.7272232 0,18.8623552 0,20.2626115 C0,21.6628678 1.13611953,22.7979998 2.53759398,22.7979998 Z M13.3513887,4.39467309 C14.5659999,4.39467309 15.5506368,3.41089201 15.5506368,2.19733654 C15.5506368,0.983781081 14.5659999,0 13.3513887,0 C12.1367775,0 11.1521405,0.983781081 11.1521405,2.19733654 C11.1521405,3.41089201 12.1367775,4.39467309 13.3513887,4.39467309 Z M24.462406,22.715068 C25.6770172,22.715068 26.6616541,21.731287 26.6616541,20.5177315 C26.6616541,19.304176 25.6770172,18.3203949 24.462406,18.3203949 C23.2477948,18.3203949 22.2631579,19.304176 22.2631579,20.5177315 C22.2631579,21.731287 23.2477948,22.715068 24.462406,22.715068 Z M2.53759398,9.6212258 C3.75220518,9.6212258 4.73684211,8.63744472 4.73684211,7.42388925 C4.73684211,6.21033379 3.75220518,5.22655271 2.53759398,5.22655271 C1.32298279,5.22655271 0.338345865,6.21033379 0.338345865,7.42388925 C0.338345865,8.63744472 1.32298279,9.6212258 2.53759398,9.6212258 Z" id="形状结合"></path>
                            </g>
                        </g>
                    </g>
                </g>
            </g>
        </g>
    </g>
</svg>