<?xml version="1.0" encoding="UTF-8"?>
<svg width="18px" height="16px" viewBox="0 0 18 16" version="1.1" xmlns="http://www.w3.org/2000/svg" xmlns:xlink="http://www.w3.org/1999/xlink">
    <!-- Generator: Sketch 64 (93537) - https://sketch.com -->
    <title>(红色主题)轻拟物主页icon-选中</title>
    <desc>Created with Sketch.</desc>
    <defs>
        <linearGradient x1="16.6719775%" y1="89.5061728%" x2="100%" y2="-1.33041915%" id="linearGradient-1">
            <stop stop-color="#F9564C" offset="0%"></stop>
            <stop stop-color="#FF938C" offset="100%"></stop>
        </linearGradient>
    </defs>
    <g id="页面-1" stroke="none" stroke-width="1" fill="none" fill-rule="evenodd">
        <g id="轻拟物主页icon-选中" transform="translate(-26.000000, -1.000000)" fill="url(#linearGradient-1)">
            <path d="M35,1 L43.8032197,8.09546401 C44.0306784,8.27879749 44.0661384,8.61142579 43.8824217,8.83841011 C43.7191181,9.04017394 43.4376065,9.09055145 43.217313,8.97049457 L43.137923,8.91744693 L41.741,7.792 L41.741163,15.9433868 C41.741163,16.4880347 41.3282124,16.936434 40.7977119,16.9937999 L40.6823416,17 L29.3176584,17 C28.7718722,17 28.3225358,16.5879106 28.26505,16.0585165 L28.258837,15.9433868 L28.258,7.792 L26.862077,8.91744693 C26.6598915,9.08041002 26.3740598,9.07055773 26.1840077,8.90693811 L26.1175783,8.83841011 C25.9542746,8.63664627 25.9641475,8.35141065 26.128109,8.1617549 L26.1967803,8.09546401 L35,1 Z M32.1676527,8.90714153 L31.1617724,8.90714153 L31.1670846,9.12394997 C31.2693641,11.2061098 32.8362172,12.8790002 34.7959152,12.9882128 L34.7959152,12.9882128 L35,12.9938853 L35.2040848,12.9882128 C37.2313585,12.8752343 38.8382276,11.0888787 38.8382276,8.90714153 L38.8382276,8.90714153 L37.8323473,8.90714153 L37.8271677,9.09239933 C37.7378195,10.6855462 36.5037709,11.9439108 35,11.9439108 L35,11.9439108 L34.8277347,11.9383788 C33.346006,11.8429478 32.1676527,10.5246746 32.1676527,8.90714153 L32.1676527,8.90714153 Z" id="形状结合备份"></path>
        </g>
    </g>
</svg>