<?xml version="1.0" encoding="UTF-8"?>
<svg width="18px" height="16px" viewBox="0 0 18 16" version="1.1" xmlns="http://www.w3.org/2000/svg" xmlns:xlink="http://www.w3.org/1999/xlink">
    <!-- Generator: Sketch 64 (93537) - https://sketch.com -->
    <title>(红色主题)轻拟物主页icon-未选中</title>
    <desc>Created with Sketch.</desc>
    <defs>
        <linearGradient x1="0%" y1="10.4938272%" x2="100%" y2="89.5061728%" id="linearGradient-1">
            <stop stop-color="#F9564C" offset="0%"></stop>
            <stop stop-color="#FF5D52" offset="100%"></stop>
        </linearGradient>
    </defs>
    <g id="页面-1" stroke="none" stroke-width="1" fill="none" fill-rule="evenodd">
        <path d="M15.2117523,7.54709444 C15.4716505,7.54709444 15.6878073,7.73398307 15.7326335,7.98043726 L15.741163,8.07540103 L15.741163,14.9433868 C15.741163,15.4880347 15.3282124,15.936434 14.7977119,15.9937999 L14.6823416,16 L3.31765839,16 C2.7718722,16 2.3225358,15.5879106 2.26504999,15.0585165 L2.25883697,14.9433868 L2.25883697,8.07540103 C2.25883697,7.78362536 2.49586222,7.54709444 2.78824768,7.54709444 C3.04814587,7.54709444 3.26430265,7.73398307 3.30912888,7.98043726 L3.31765839,8.07540103 L3.31765839,14.9433868 L14.6823416,14.9433868 L14.6823416,8.07540103 C14.6823416,7.78362536 14.9193669,7.54709444 15.2117523,7.54709444 Z M6.16765271,7.90714153 C6.16765271,9.5246746 7.34600603,10.8429478 8.82773474,10.9383788 L9,10.9439108 C10.5037709,10.9439108 11.7378195,9.68554617 11.8271677,8.09239933 L11.8323473,7.90714153 L12.8382276,7.90714153 C12.8382276,10.0888787 11.2313585,11.8752343 9.20408478,11.9882128 L9,11.9938853 L8.79591522,11.9882128 C6.83621725,11.8790002 5.26936408,10.2061098 5.16708465,8.12394997 L5.16177236,7.90714153 L6.16765271,7.90714153 Z M9,-1.77635684e-15 L17.8032197,7.09546401 C18.0306784,7.27879749 18.0661384,7.61142579 17.8824217,7.83841011 C17.7191181,8.04017394 17.4376065,8.09055145 17.217313,7.97049457 L17.137923,7.91744693 L9,1.35821733 L0.86207705,7.91744693 C0.634618359,8.10078041 0.3012949,8.06539442 0.117578265,7.83841011 C-0.0457254104,7.63664627 -0.0358525308,7.35141065 0.128109045,7.1617549 L0.196780263,7.09546401 L9,-1.77635684e-15 Z" id="首页备份-4" fill="url(#linearGradient-1)"></path>
    </g>
</svg>