<?xml version="1.0" encoding="UTF-8"?>
<svg width="1232px" height="98px" viewBox="0 0 1232 98" version="1.1" xmlns="http://www.w3.org/2000/svg" xmlns:xlink="http://www.w3.org/1999/xlink">
    <title>背景@1x</title>
    <defs>
        <linearGradient x1="91.5654118%" y1="50.0729636%" x2="8.58818326%" y2="50.1592357%" id="linearGradient-1">
            <stop stop-color="#65AFFF" stop-opacity="0.08203125" offset="0%"></stop>
            <stop stop-color="#6CB3FF" offset="27.520587%"></stop>
            <stop stop-color="#76B9FF" stop-opacity="0.886227054" offset="45.8086993%"></stop>
            <stop stop-color="#A7D6FF" stop-opacity="0" offset="100%"></stop>
        </linearGradient>
    </defs>
    <g id="页面-1" stroke="none" stroke-width="1" fill="none" fill-rule="evenodd">
        <g id="01.1-竖导航" transform="translate(-208.000000, 1.000000)">
            <g id="背景" transform="translate(-136.000000, -235.000000)">
                <rect id="矩形" x="346" y="234.776976" width="1230" height="97"></rect>
                <g id="飞机" transform="translate(905.035468, 257.937917) rotate(21.000000) translate(-905.035468, -257.937917) translate(890.035468, 243.687917)" fill="#C5DFFF" fill-rule="nonzero">
                    <polygon id="路径" points="12 28.5 12 19.5 18 21.3207831"></polygon>
                    <path d="M0,15.2979275 L9.37173535,18.8989637 L25.3119559,5.39723661 L13.1239118,18.8989637 L25.3119559,22.5 L30,0 L0,15.2979275 Z M24.2542078,20.6217617 L16.9457342,18.462867 L17.159025,17.7504318 L23.6839814,19.6761658 L26.2608822,7.30569948 L26.9965177,7.45682211 L24.2542078,20.6217617 Z" id="形状"></path>
                </g>
                <g id="前景" transform="translate(1020.054898, 281.000000) scale(-1, 1) translate(-1020.054898, -281.000000) translate(344.554898, 235.000000)">
                    <path d="M99.3620833,38.3609578 C343.527504,60.3924204 504.57638,56.7910197 582.508711,27.5567557 C631.415677,9.21059398 677.156976,14.0595648 729.999897,32.3931528 C777.178595,48.7615668 826,26.4259388 882,32.1150584 C923.006615,36.2809786 958.608118,52.7984769 988.804511,81.6675531 L119.200634,73.3074758 L99.3620833,38.3609578 Z" id="Path-132" fill="url(#linearGradient-1)" opacity="0.0625232515"></path>
                    <path d="M0,48.3609578 C244.165421,70.3924204 405.214297,66.7910197 483.146628,37.5567557 C532.053594,19.210594 577.794892,24.0595648 630.637813,42.3931528 C677.816511,58.7615668 726.637917,36.4259388 782.637917,42.1150584 C823.644531,46.2809786 859.246035,62.7984769 889.442428,91.6675531 L19.8385511,83.3074758 L0,48.3609578 Z" id="Path-132备份" fill="url(#linearGradient-1)" opacity="0.0661039807"></path>
                    <path d="M500.204241,16.7176667 C500.237092,16.7391427 500.26514,16.7671901 500.286616,16.8000418 L507.051132,27.1477 C507.13702,27.2790823 507.100139,27.4552147 506.968757,27.5411025 C506.922522,27.5713275 506.868481,27.5874242 506.813243,27.5874242 L504.603,27.5873125 L507.051132,31.3316592 C507.13702,31.4630416 507.100139,31.6391739 506.968757,31.7250618 C506.922522,31.7552868 506.868481,31.7713835 506.813243,31.7713835 L504.355,31.7713125 L507.051132,35.8959784 C507.13702,36.0273608 507.100139,36.2034931 506.968757,36.289381 C506.922522,36.319606 506.868481,36.3357027 506.813243,36.3357027 L501.054,36.3353125 L501.054521,41.9202596 L498.684333,41.9202596 L498.684,36.3353125 L493.284211,36.3357027 C493.127245,36.3357027 493,36.2084573 493,36.0514922 C493,35.9962543 493.016097,35.9422134 493.046322,35.8959784 L495.742,31.7713125 L493.284211,31.7713835 C493.127245,31.7713835 493,31.6441381 493,31.487173 C493,31.4319351 493.016097,31.3778942 493.046322,31.3316592 L495.493,27.5873125 L493.284211,27.5874242 C493.127245,27.5874242 493,27.4601788 493,27.3032137 C493,27.2479758 493.016097,27.193935 493.046322,27.1477 L499.810838,16.8000418 C499.896726,16.6686594 500.072858,16.6317788 500.204241,16.7176667 Z" id="Combined-Shape" fill="#95CAFF" opacity="0.139462426"></path>
                    <path d="M695.284211,29.4538795 C695.127245,29.4538795 695,29.3266341 695,29.169669 C695,29.112175 695.017437,29.0560329 695.050009,29.0086555 L696.806,26.4533125 L695.284211,26.4538795 C695.127245,26.4538795 695,26.3266341 695,26.169669 C695,26.112175 695.017437,26.0560329 695.050009,26.0086555 L696.806,23.4533125 L695.284211,23.4538795 C695.127245,23.4538795 695,23.3266341 695,23.169669 C695,23.112175 695.017437,23.0560329 695.050009,23.0086555 L700.009716,15.794536 C700.098642,15.6651902 700.275585,15.6324228 700.404931,15.7213481 C700.433601,15.7410588 700.458408,15.765866 700.478119,15.794536 L705.437826,23.0086555 C705.526751,23.1380014 705.493984,23.3149451 705.364638,23.4038703 C705.317261,23.4364423 705.261119,23.4538795 705.203625,23.4538795 L703.681,23.4533125 L705.437826,26.0086555 C705.526751,26.1380014 705.493984,26.3149451 705.364638,26.4038703 C705.317261,26.4364423 705.261119,26.4538795 705.203625,26.4538795 L703.681,26.4533125 L705.437826,29.0086555 C705.526751,29.1380014 705.493984,29.3149451 705.364638,29.4038703 C705.317261,29.4364423 705.261119,29.4538795 705.203625,29.4538795 L700.743918,29.4538795 L700.743918,33.4538795 L698.743918,33.4538795 L698.743918,29.4538795 L695.284211,29.4538795 Z" id="Combined-Shape-Copy" fill="#62B0FF" opacity="0.0787527902"></path>
                    <path d="M611.709949,16.7093472 C611.753276,16.7343255 611.789244,16.7702942 611.814222,16.813621 L619.098011,29.4479581 C619.176408,29.5839436 619.129723,29.7577345 618.993737,29.8361311 C618.950569,29.861018 618.901616,29.8741183 618.851788,29.8741183 L616.396,29.8733125 L619.098011,34.5613121 C619.176408,34.6972975 619.129723,34.8710884 618.993737,34.949485 C618.950569,34.9743719 618.901616,34.9874722 618.851788,34.9874722 L616.15,34.9873125 L619.098011,40.1007789 C619.176408,40.2367643 619.129723,40.4105552 618.993737,40.4889518 C618.950569,40.5138387 618.901616,40.526939 618.851788,40.526939 L612.559,40.5263125 L612.559898,46.2144241 L610.221873,46.2144241 L610.221,40.5263125 L604.284211,40.526939 C604.127245,40.526939 604,40.3996936 604,40.2427284 C604,40.1929 604.0131,40.1439473 604.037987,40.1007789 L606.985,34.9873125 L604.284211,34.9874722 C604.127245,34.9874722 604,34.8602268 604,34.7032617 C604,34.6534333 604.0131,34.6044805 604.037987,34.5613121 L606.739,29.8733125 L604.284211,29.8741183 C604.127245,29.8741183 604,29.7468729 604,29.5899077 C604,29.5400793 604.0131,29.4911266 604.037987,29.4479581 L611.321776,16.813621 C611.400172,16.6776356 611.573963,16.6309507 611.709949,16.7093472 Z" id="Combined-Shape-Copy" fill="#46A2FF" opacity="0.0787527902"></path>
                </g>
                <path d="M346.170349,303.277274 C413.500766,297.1163 491.248064,280.346737 529.842487,281.592434 C570.562578,282.906739 598.87116,291.213341 641.590258,295.930485 C719.65556,304.550639 754.496447,293.692356 760.294532,287.573393 C771.962702,275.259485 725.496329,268.195349 732.939299,283.207609 C740.382268,298.219869 787.265488,316.051295 896.981411,283.763399" id="路径-3" stroke-opacity="0.6" stroke="#C5DFFF" stroke-dasharray="4,2" transform="translate(621.575880, 288.994922) rotate(-3.000000) translate(-621.575880, -288.994922) "></path>
            </g>
        </g>
    </g>
</svg>