<?xml version="1.0" encoding="UTF-8"?>
<svg width="18px" height="16px" viewBox="0 0 18 16" version="1.1" xmlns="http://www.w3.org/2000/svg" xmlns:xlink="http://www.w3.org/1999/xlink">
    <!-- Generator: Sketch 64 (93537) - https://sketch.com -->
    <title>(绿色主题)轻拟物主页icon-选中</title>
    <desc>Created with Sketch.</desc>
    <defs>
        <linearGradient x1="100%" y1="89.5061728%" x2="0%" y2="10.4938272%" id="linearGradient-1">
            <stop stop-color="#44D7B6" offset="0%"></stop>
            <stop stop-color="#1FC8DC" offset="100%"></stop>
        </linearGradient>
        <path d="M9,-1.77635684e-15 L17.8032197,7.09546401 C18.0306784,7.27879749 18.0661384,7.61142579 17.8824217,7.83841011 C17.7191181,8.04017394 17.4376065,8.09055145 17.217313,7.97049457 L17.137923,7.91744693 L15.741,6.792 L15.741163,14.9433868 C15.741163,15.4880347 15.3282124,15.936434 14.7977119,15.9937999 L14.6823416,16 L3.31765839,16 C2.7718722,16 2.3225358,15.5879106 2.26504999,15.0585165 L2.25883697,14.9433868 L2.258,6.792 L0.86207705,7.91744693 C0.659891547,8.08041002 0.374059807,8.07055773 0.184007695,7.90693811 L0.117578265,7.83841011 C-0.0457254104,7.63664627 -0.0358525308,7.35141065 0.128109045,7.1617549 L0.196780263,7.09546401 L9,-1.77635684e-15 Z M6.16765271,7.90714153 L5.16177236,7.90714153 L5.16708465,8.12394997 C5.26936408,10.2061098 6.83621725,11.8790002 8.79591522,11.9882128 L8.79591522,11.9882128 L9,11.9938853 L9.20408478,11.9882128 C11.2313585,11.8752343 12.8382276,10.0888787 12.8382276,7.90714153 L12.8382276,7.90714153 L11.8323473,7.90714153 L11.8271677,8.09239933 C11.7378195,9.68554617 10.5037709,10.9439108 9,10.9439108 L9,10.9439108 L8.82773474,10.9383788 C7.34600603,10.8429478 6.16765271,9.5246746 6.16765271,7.90714153 L6.16765271,7.90714153 Z" id="path-2"></path>
        <filter x="-83.3%" y="-93.8%" width="266.7%" height="287.5%" filterUnits="objectBoundingBox" id="filter-3">
            <feOffset dx="0" dy="0" in="SourceAlpha" result="shadowOffsetOuter1"></feOffset>
            <feGaussianBlur stdDeviation="5" in="shadowOffsetOuter1" result="shadowBlurOuter1"></feGaussianBlur>
            <feColorMatrix values="0 0 0 0 0.223529412   0 0 0 0 0.258823529   0 0 0 0 0.392156863  0 0 0 0.1 0" type="matrix" in="shadowBlurOuter1"></feColorMatrix>
        </filter>
    </defs>
    <g id="页面-1" stroke="none" stroke-width="1" fill="none" fill-rule="evenodd">
        <g id="(绿色主题)轻拟物主页icon-选中">
            <g id="形状结合备份-3">
                <use fill="black" fill-opacity="1" filter="url(#filter-3)" xlink:href="#path-2"></use>
                <use fill="url(#linearGradient-1)" fill-rule="evenodd" xlink:href="#path-2"></use>
            </g>
        </g>
    </g>
</svg>