<?xml version="1.0" encoding="UTF-8"?>
<svg width="16px" height="16px" viewBox="0 0 16 16" version="1.1" xmlns="http://www.w3.org/2000/svg" xmlns:xlink="http://www.w3.org/1999/xlink">
    <title>icon_导航收起</title>
    <defs>
        <linearGradient x1="100%" y1="50%" x2="23.0322652%" y2="50%" id="linearGradient-1">
            <stop stop-color="#3F65FF" offset="0%"></stop>
            <stop stop-color="#4D9AFF" offset="100%"></stop>
        </linearGradient>
    </defs>
    <g id="最新稿" stroke="none" stroke-width="1" fill="none" fill-rule="evenodd">
        <g id="横向视图-展开" transform="translate(-170.000000, -57.000000)">
            <g id="编组-6" transform="translate(0.000000, 30.000000)">
                <g id="icon_导航收起" transform="translate(170.000000, 27.000000)">
                    <rect id="矩形" x="0" y="0" width="16" height="16"></rect>
                    <path d="M14.1706485,12.5490247 C14.549358,12.5490247 14.8563627,12.8560295 14.8563627,13.234739 C14.8563627,13.6134486 14.549358,13.9204533 14.1706485,13.9204533 L5.25694783,13.9204533 C4.87823829,13.9204533 4.57123354,13.6134486 4.57123354,13.234739 C4.57123354,12.8560295 4.87823829,12.5490247 5.25694783,12.5490247 L14.1706485,12.5490247 Z M3.61235077,5.23973427 C3.83513913,5.03280335 4.21500132,5.17944145 4.21500132,5.47122894 L4.21500132,5.47122894 L4.21500132,10.5283825 C4.21500132,10.8209143 3.83513913,10.9668081 3.61235077,10.7606215 L3.61235077,10.7606215 L0.89000513,8.23204473 C0.752164844,8.10401553 0.752164844,7.89634025 0.89000513,7.76831105 L0.89000513,7.76831105 Z M14.1714286,8.9966354 C14.5501381,8.9966354 14.8571429,9.30364014 14.8571429,9.68234969 C14.8571429,10.0610592 14.5501381,10.368064 14.1714286,10.368064 L6.97113603,10.368064 C6.59242649,10.368064 6.28542174,10.0610592 6.28542174,9.68234969 C6.28542174,9.30364014 6.59242649,8.9966354 6.97113603,8.9966354 L14.1714286,8.9966354 Z M14.1714286,5.44424607 C14.5501381,5.44424607 14.8571429,5.75125081 14.8571429,6.12996036 C14.8571429,6.5086699 14.5501381,6.81567464 14.1714286,6.81567464 L6.97113603,6.81567464 C6.59242649,6.81567464 6.28542174,6.5086699 6.28542174,6.12996036 C6.28542174,5.75125081 6.59242649,5.44424607 6.97113603,5.44424607 L14.1714286,5.44424607 Z M14.1706485,1.89185674 C14.549358,1.89185674 14.8563627,2.19886149 14.8563627,2.57757103 C14.8563627,2.95628057 14.549358,3.26328531 14.1706485,3.26328531 L5.25694783,3.26328531 C4.87823829,3.26328531 4.57123354,2.95628057 4.57123354,2.57757103 C4.57123354,2.19886149 4.87823829,1.89185674 5.25694783,1.89185674 L14.1706485,1.89185674 Z" id="形状结合" fill="url(#linearGradient-1)"></path>
                </g>
            </g>
        </g>
    </g>
</svg>