<?xml version="1.0" encoding="UTF-8"?>
<svg width="16px" height="16px" viewBox="0 0 16 16" version="1.1" xmlns="http://www.w3.org/2000/svg" xmlns:xlink="http://www.w3.org/1999/xlink">
    <title>icon_应用</title>
    <defs>
        <rect id="path-1" x="0" y="0" width="16" height="16"></rect>
    </defs>
    <g id="框架" stroke="none" stroke-width="1" fill="none" fill-rule="evenodd">
        <g id="1.0-首页-左侧导航240px" transform="translate(-24.000000, -170.000000)">
            <g id="功能" transform="translate(12.000000, 120.000000)">
                <g id="应用全景" transform="translate(12.000000, 48.000000)">
                    <g id="icon_应用" transform="translate(0.000000, 2.000000)">
                        <mask id="mask-2" fill="white">
                            <use xlink:href="#path-1"></use>
                        </mask>
                        <g id="矩形"></g>
                        <path d="M8,0.809401077 C8.2589746,0.809401077 8.51794919,0.876388375 8.75,1.01036297 L8.75,1.01036297 L8.75,1.01036297 L13.6782032,3.85566243 C13.910254,3.98963703 14.097754,4.18042196 14.2272413,4.40470054 C14.3567286,4.62897912 14.4282032,4.88675135 14.4282032,5.15470054 L14.4282032,5.15470054 L14.4282032,10.8452995 C14.4282032,11.3811978 14.1423048,11.8763884 13.6782032,12.1443376 L13.6782032,12.1443376 L8.75,14.989637 C8.28589838,15.2575862 7.71410162,15.2575862 7.25,14.989637 L7.25,14.989637 L2.32179677,12.1443376 C2.08974596,12.010363 1.90224596,11.819578 1.77275866,11.5952995 C1.64327137,11.3710209 1.57179677,11.1132487 1.57179677,10.8452995 L1.57179677,10.8452995 L1.57179677,5.15470054 C1.57179677,4.61880215 1.85769515,4.12361163 2.32179677,3.85566243 L2.32179677,3.85566243 L7.25,1.01036297 C7.48205081,0.876388375 7.7410254,0.809401077 8,0.809401077 Z" id="多边形" stroke="#1A1A1A" fill-rule="nonzero" mask="url(#mask-2)"></path>
                        <g id="编组-11" mask="url(#mask-2)" stroke="#1A1A1A" stroke-linecap="round">
                            <g transform="translate(4.500000, 6.000000)" id="形状结合">
                                <path d="M0,0 L3.5,2 L7,0 M3.5,2 L3.5,6"></path>
                            </g>
                        </g>
                    </g>
                </g>
            </g>
        </g>
    </g>
</svg>