<?xml version="1.0" encoding="UTF-8"?>
<svg width="20px" height="20px" viewBox="0 0 20 20" version="1.1" xmlns="http://www.w3.org/2000/svg" xmlns:xlink="http://www.w3.org/1999/xlink">
    <title>icon_联系我们</title>
    <g id="框架" stroke="none" stroke-width="1" fill="none" fill-rule="evenodd">
        <g id="1.7-个人中心" transform="translate(-260.000000, -589.000000)">
            <g id="个人信息弹窗" transform="translate(240.000000, 290.000000)">
                <g id="icon_联系我们" transform="translate(20.000000, 299.000000)">
                    <rect id="矩形" x="0" y="0" width="20" height="20"></rect>
                    <path d="M6.3472153,13.3991106 C8.26424127,15.4362582 10.3295984,16.9163842 12.5432867,17.8394885 C13.6648128,18.3083537 14.9557982,18.0863363 15.8575804,17.2712042 L17.1224517,16.1273664 C17.766157,15.5452562 17.8160897,14.5515364 17.2339796,13.9078311 C17.1754994,13.843163 17.1117387,13.7834741 17.0433576,13.7293824 L14.8244636,11.9741657 C14.2863814,11.5485253 13.5152328,11.5915481 13.0278359,12.0744006 L12.4482753,12.6485576 C12.2661932,12.8302046 12.0064926,12.910447 11.7535232,12.864021 C10.7493182,12.6764498 9.77123074,12.1111173 8.8192609,11.1680234 C7.87258566,10.2301748 7.33915635,9.29289212 7.21897297,8.35617536 C7.18810117,8.11266805 7.27304359,7.86880869 7.44837707,7.6970327 L8.0158825,7.14079408 C8.49257945,6.6735611 8.56705701,5.93232906 8.19284405,5.3795983 L6.57297365,2.98697088 C6.08642089,2.26830878 5.1094012,2.08014697 4.39073909,2.56669973 C4.33302046,2.60577673 4.27796574,2.6486507 4.2259397,2.69503757 L3.04966448,3.74381465 C2.04569499,4.63983691 1.7232702,6.07553519 2.25006312,7.31380212 C3.14168381,9.41557687 4.50740121,11.444013 6.3472153,13.3991106 Z" id="路径-2" stroke="#1A1A1A" stroke-width="1.1"></path>
                </g>
            </g>
        </g>
    </g>
</svg>