<?xml version="1.0" encoding="UTF-8"?>
<svg width="20px" height="20px" viewBox="0 0 20 20" version="1.1" xmlns="http://www.w3.org/2000/svg" xmlns:xlink="http://www.w3.org/1999/xlink">
    <title>icon_帮助与反馈@1x</title>
    <g id="框架" stroke="none" stroke-width="1" fill="none" fill-rule="evenodd">
        <g id="1.7-个人中心" transform="translate(-260.000000, -545.000000)">
            <g id="个人信息弹窗" transform="translate(240.000000, 290.000000)">
                <g id="icon_帮助与反馈" transform="translate(20.000000, 255.000000)">
                    <rect id="矩形" fill-rule="nonzero" x="0" y="0" width="20" height="20"></rect>
                    <path d="M15.8333333,3.05 C16.371811,3.05 16.859311,3.26826118 17.2121916,3.62114178 C17.5650721,3.97402237 17.7833333,4.46152237 17.7833333,5 L17.7833333,5 L17.7833333,14.1666667 C17.7833333,14.7051443 17.5650721,15.1926443 17.2121916,15.5455249 C16.859311,15.8984055 16.371811,16.1166667 15.8333333,16.1166667 L15.8333333,16.1166667 L12.2721825,16.1166667 L10.2003469,18.1885023 L7.72781746,16.1166667 L4.16666667,16.1166667 C3.62818904,16.1166667 3.14068904,15.8984055 2.78780844,15.5455249 C2.43492785,15.1926443 2.21666667,14.7051443 2.21666667,14.1666667 L2.21666667,14.1666667 L2.21666667,5 C2.21666667,4.46152237 2.43492785,3.97402237 2.78780844,3.62114178 C3.14068904,3.26826118 3.62818904,3.05 4.16666667,3.05 L4.16666667,3.05 Z" id="矩形" stroke="#1A1A1A" stroke-width="1.1"></path>
                    <path d="M5.83333333,8.75 C6.40507519,8.75 6.875,9.21914758 6.875,9.79166667 C6.875,10.3641858 6.41290727,10.8333333 5.83333333,10.8333333 C5.2537594,10.8333333 4.79166667,10.3641858 4.79166667,9.79166667 C4.79166667,9.21914758 5.26159148,8.75 5.83333333,8.75 Z M9.99995175,8.75 C10.5794988,8.75 11.0415702,9.21914758 11.0415702,9.79166667 C11.0494019,10.3641858 10.5794988,10.8333333 9.99995175,10.8333333 C9.42040466,10.8333333 8.95833333,10.3641858 8.95833333,9.79166667 C8.95833333,9.21914758 9.42823638,8.75 9.99995175,8.75 Z M14.1666667,8.75 C14.7384085,8.75 15.2083333,9.21914758 15.2083333,9.79166667 C15.2083333,10.3641858 14.7462406,10.8333333 14.1666667,10.8333333 C13.5870927,10.8333333 13.125,10.3641858 13.125,9.79166667 C13.125,9.21914758 13.5949248,8.75 14.1666667,8.75 Z" id="形状结合" fill="#1A1A1A" fill-rule="nonzero"></path>
                </g>
            </g>
        </g>
    </g>
</svg>