<?xml version="1.0" encoding="UTF-8"?>
<svg width="20px" height="20px" viewBox="0 0 20 20" version="1.1" xmlns="http://www.w3.org/2000/svg" xmlns:xlink="http://www.w3.org/1999/xlink">
    <title>icon_语言</title>
    <g id="框架" stroke="none" stroke-width="1" fill="none" fill-rule="evenodd">
        <g id="1.7-个人中心" transform="translate(-260.000000, -455.000000)">
            <g id="个人信息弹窗" transform="translate(240.000000, 290.000000)">
                <g id="icon_语言" transform="translate(20.000000, 165.000000)">
                    <rect id="矩形" x="0" y="0" width="20" height="20"></rect>
                    <path d="M13.25,2.5 L16.5,2.5 C17.0522847,2.5 17.5,2.94771525 17.5,3.5 L17.5,6.75 L17.5,6.75 M6.75,17.5 L3.5,17.5 C2.94771525,17.5 2.5,17.0522847 2.5,16.5 L2.5,13.25 L2.5,13.25" id="形状" stroke="#1A1A1A" stroke-width="1.1" stroke-linecap="round" stroke-linejoin="round"></path>
                    <path d="M5.8,1 C5.96568542,1 6.1,1.13431458 6.1,1.3 L6.1,3 L9,3 C9.55228475,3 10,3.44771525 10,4 L10,8 C10,8.55228475 9.55228475,9 9,9 L6.1,9 L6.1,11.7 C6.1,11.8656854 5.96568542,12 5.8,12 L5.2,12 C5.03431458,12 4.9,11.8656854 4.9,11.7 L4.9,9 L2,9 C1.44771525,9 1,8.55228475 1,8 L1,4 C1,3.44771525 1.44771525,3 2,3 L4.9,3 L4.9,1.3 C4.9,1.13431458 5.03431458,1 5.2,1 L5.8,1 Z M4.9,4.1 L2.1,4.1 L2.1,7.9 L4.9,7.9 L4.9,4.1 Z M8.9,4.1 L6.1,4.1 L6.1,7.9 L8.9,7.9 L8.9,4.1 Z" id="形状结合" fill="#1A1A1A" fill-rule="nonzero"></path>
                    <path d="M15.5492061,10.0000638 C15.6757463,10.0000255 15.7887042,10.0793909 15.8315644,10.1984515 L15.8315644,10.1984515 L18.9277126,18.7991938 C18.9335791,18.8154903 18.9365788,18.8326797 18.9365788,18.85 C18.9365788,18.9328427 18.8694215,19 18.7865788,19 L18.7865788,19 L17.9416681,19 C17.8567908,19 17.7811578,18.9464261 17.7529969,18.8663566 L17.7529969,18.8663566 L16.7795231,16.0990638 L13.2215231,16.0990638 L12.2470625,18.8664906 C12.2245022,18.9304908 12.1716072,18.9775367 12.1079211,18.993795 L12.0584386,19 L11.2135639,19 C11.196212,19 11.1789916,18.9969893 11.162669,18.9911018 C11.0847406,18.9629932 11.0443537,18.8770334 11.0724622,18.799105 L11.0724622,18.799105 L14.1746352,10.1986046 C14.2175241,10.0796987 14.3303435,10.0004328 14.4567479,10.0003945 L14.4567479,10.0003945 Z M15.0560748,11.1982206 L14.9501558,11.1982206 L13.6095231,14.9990638 L16.3925231,14.9990638 L15.0560748,11.1982206 Z" id="形状结合" fill="#1A1A1A"></path>
                </g>
            </g>
        </g>
    </g>
</svg>