<?xml version="1.0" encoding="UTF-8"?>
<svg width="16px" height="16px" viewBox="0 0 16 16" version="1.1" xmlns="http://www.w3.org/2000/svg" xmlns:xlink="http://www.w3.org/1999/xlink">
    <title>icon_个人中心</title>
    <defs>
        <rect id="path-1" x="0" y="0" width="16" height="16"></rect>
    </defs>
    <g id="框架" stroke="none" stroke-width="1" fill="none" fill-rule="evenodd">
        <g id="1.0-首页-左侧导航240px" transform="translate(-24.000000, -330.000000)">
            <g id="功能" transform="translate(12.000000, 120.000000)">
                <g id="个人中心" transform="translate(12.000000, 208.000000)">
                    <g id="icon_个人中心" transform="translate(0.000000, 2.000000)">
                        <mask id="mask-2" fill="white">
                            <use xlink:href="#path-1"></use>
                        </mask>
                        <g id="矩形"></g>
                        <path d="M12,9.75 C12.6903559,9.75 13.3153559,10.029822 13.767767,10.482233 C14.220178,10.9346441 14.5,11.5596441 14.5,12.25 L14.5,12.25 L14.5,14.25 L2,14.75 L1.5,12.25 C1.5,11.5596441 1.77982203,10.9346441 2.23223305,10.482233 C2.68464406,10.029822 3.30964406,9.75 4,9.75 L4,9.75 Z M8,1.25 C8.89746272,1.25 9.70996272,1.61376864 10.298097,2.20190296 C10.8862314,2.79003728 11.25,3.60253728 11.25,4.5 C11.25,5.39746272 10.8862314,6.20996272 10.298097,6.79809704 C9.70996272,7.38623136 8.89746272,7.75 8,7.75 C7.10253728,7.75 6.29003728,7.38623136 5.70190296,6.79809704 C5.11376864,6.20996272 4.75,5.39746272 4.75,4.5 C4.75,3.60253728 5.11376864,2.79003728 5.70190296,2.20190296 C6.29003728,1.61376864 7.10253728,1.25 8,1.25 L8,1.25 Z" id="形状结合" stroke="#1A1A1A" mask="url(#mask-2)"></path>
                    </g>
                </g>
            </g>
        </g>
    </g>
</svg>