<?xml version="1.0" encoding="UTF-8"?>
<svg width="22px" height="22px" viewBox="0 0 22 22" version="1.1" xmlns="http://www.w3.org/2000/svg" xmlns:xlink="http://www.w3.org/1999/xlink">
    <title>发送</title>
    <defs>
        <linearGradient x1="-1.48956222%" y1="100%" x2="100%" y2="-1.11889664e-14%" id="linearGradient-1">
            <stop stop-color="#2A87FF" offset="0%"></stop>
            <stop stop-color="#328BFF" offset="100%"></stop>
        </linearGradient>
    </defs>
    <g id="页面-1" stroke="none" stroke-width="1" fill="none" fill-rule="evenodd">
        <g id="欢迎" transform="translate(-889, -1666)" fill-rule="nonzero">
            <g id="编组-6" transform="translate(628, 1186)">
                <g id="编组-38" transform="translate(10.5355, 436.4689)">
                    <g id="发送" transform="translate(251.3459, 44.3994)">
                        <rect id="矩形" fill="url(#linearGradient-1)" x="0" y="0" width="21.0709117" height="21.0709117" rx="6.02026049"></rect>
                        <g id="编组" transform="translate(5.2677, 4.8915)" fill="#FFFFFF">
                            <path d="M1.90051217,0.139777044 L10.9537581,4.73985279 C11.5899127,5.06308905 11.8444216,5.84248937 11.5222142,6.48070166 C11.3977536,6.72742714 11.1975361,6.92779913 10.9509067,7.05245003 L1.87812726,11.6344033 C1.241179,11.9560815 0.464924023,11.6988389 0.144274602,11.0598329 C-0.00526571833,10.7616954 -0.0344099888,10.4174636 0.062877623,10.0984285 L1.3273234,5.95217981 C1.34091896,5.90757168 1.34102184,5.85992108 1.32758796,5.81525416 L0.0809707399,1.66946115 C-0.124976257,0.984538938 0.261519763,0.261813721 0.944222594,0.0551906205 C1.26197176,-0.0409725037 1.60458589,-0.0106730803 1.90052686,0.139762346 L1.90051217,0.139777044 Z M1.204008,0.955701655 C1.01759452,1.01199462 0.912063585,1.20885831 0.968297757,1.39543348 L2.17793506,5.40882779 L5.21948942,5.40882779 C5.47936302,5.40882779 5.69004274,5.61934583 5.69004274,5.87904305 C5.69004274,6.13875497 5.47936302,6.34925832 5.21948942,6.34925832 L2.175554,6.34925832 L0.949087599,10.3614915 C0.922527692,10.4483968 0.93049257,10.542196 0.971325525,10.6233787 C1.05886623,10.797446 1.27083936,10.8675109 1.44474493,10.7799114 L10.5283568,6.20336695 C10.5934373,6.17056919 10.6467603,6.11841688 10.6809945,6.05408036 L10.6843603,6.04761329 L10.6869471,6.04239553 C10.7709309,5.86953351 10.7011012,5.66057344 10.5291358,5.57338549 L1.46513092,0.978733267 C1.38429292,0.937753369 1.29077117,0.929504546 1.204008,0.955701655 Z" id="形状"></path>
                        </g>
                    </g>
                </g>
            </g>
        </g>
    </g>
</svg>