<?xml version="1.0" encoding="UTF-8"?>
<svg width="20px" height="20px" viewBox="0 0 20 20" version="1.1" xmlns="http://www.w3.org/2000/svg" xmlns:xlink="http://www.w3.org/1999/xlink">
    <title>icon_设置@1x</title>
    <g id="框架" stroke="none" stroke-width="1" fill="none" fill-rule="evenodd">
        <g id="1.7-个人中心" transform="translate(-260.000000, -411.000000)">
            <g id="个人信息弹窗" transform="translate(240.000000, 290.000000)">
                <g id="icon_设置" transform="translate(20.000000, 121.000000)">
                    <rect id="矩形" x="0" y="0" width="20" height="20"></rect>
                    <g id="编组-2" transform="translate(1.000000, 1.500000)" stroke="#1A1A1A" stroke-width="1.1">
                        <path d="M6.19690036,0.550047723 L6.21231107,0.551957881 C6.22204321,0.55470056 6.23099133,0.560320559 6.23766734,0.568552167 C6.24010117,0.571553106 6.24213304,0.574777858 6.24390687,0.57828678 L6.24390687,0.57828678 L6.27310411,0.608168654 C7.05976552,1.40638885 7.9939545,1.80371329 8.89689774,1.85176709 C9.86285337,1.90317435 10.7998694,1.55676683 11.5097542,0.848678524 C11.5153869,0.843060148 11.5209968,0.837427414 11.5264596,0.831765763 C11.5303273,0.827229912 11.5342423,0.82266065 11.5382043,0.818057187 C12.9178651,0.972998855 13.7568383,1.466354 14.4914859,2.09488226 C14.4992675,2.1015244 14.5045988,2.11021788 14.5070048,2.11968156 C14.5093557,2.12892873 14.5088959,2.13888293 14.5053071,2.14821518 C14.5039455,2.15175578 14.5021896,2.15506107 14.5000567,2.15828441 L14.5000567,2.15828441 L14.4887153,2.19844898 C14.18912,3.2771918 14.3117134,4.28331951 14.7220387,5.08782543 C15.1606132,5.94771815 15.9298,6.5842703 16.8997042,6.84351205 L16.8997042,6.84351205 L16.9219225,6.84932818 C16.9279915,6.85043701 16.9341171,6.85157186 16.9402997,6.8527319 C17.1069044,6.8839918 17.2282696,6.91727838 17.3082208,6.97153417 C17.3093432,6.97229582 17.3104647,6.97306658 17.3116145,6.97389996 C17.496946,7.98745917 17.4961246,9.02621191 17.3091968,10.0392929 C17.3073405,10.049327 17.3023565,10.0581932 17.2953774,10.0649786 C17.2880621,10.0720907 17.2785652,10.0769327 17.2680033,10.0785989 C17.2641748,10.0792028 17.2603509,10.0793667 17.2563981,10.0791492 L17.2563981,10.0791492 L17.2162055,10.0893457 C16.1285184,10.3701886 15.3165498,10.9783454 14.823703,11.7340265 C14.2962028,12.5428418 14.1287861,13.525922 14.3892361,14.4955344 L14.3892361,14.4955344 L14.395321,14.5177201 L14.395321,14.5177201 L14.401554,14.5353147 C14.4572629,14.6937319 14.4889199,14.8143994 14.4910219,14.9055405 C13.7033192,15.5794682 12.7973301,16.1020877 11.8189024,16.4470039 C11.7950694,16.4499952 11.7751503,16.4472394 11.7623862,16.431498 C11.7600131,16.4285715 11.7581303,16.4254957 11.756546,16.42217 C11.7467356,16.4120399 11.7368611,16.401932 11.7269221,16.3918468 C10.9402593,15.5936039 10.006063,15.1962691 9.10311558,15.1482151 C8.13715342,15.0968075 7.20013368,15.4432274 6.4902575,16.1513411 C6.48462493,16.1569596 6.47901511,16.1625926 6.47354915,16.1682569 C6.4696757,16.1727998 6.46575502,16.1773765 6.4617872,16.1819875 C6.351228,16.3104675 6.26155255,16.3987819 6.18115229,16.4469859 C5.20271066,16.1020647 4.2967329,15.5794508 3.50854902,14.9051238 C3.50076703,14.8984815 3.49543555,14.8897877 3.49302957,14.8803238 C3.49067865,14.8710763 3.49113864,14.8611218 3.49472778,14.8517893 C3.49599923,14.8484833 3.49761447,14.8453825 3.49953511,14.8422943 C3.50306754,14.8302574 3.50657455,14.8181714 3.51005604,14.8060362 C3.86880367,13.5555758 3.72082109,12.6047225 3.25667991,11.8078895 C2.78740035,10.9919752 2.01045865,10.3971014 1.09885426,10.1561281 C1.09173235,10.1542455 1.08460692,10.1523857 1.07747207,10.1505852 C1.07159972,10.1495116 1.06567451,10.1484137 1.05969595,10.1472923 C0.893109816,10.116044 0.771750194,10.0827634 0.691800077,10.0285078 C0.690672851,10.0277428 0.689546458,10.0269687 0.6883876,10.0261092 C0.503053254,9.01254469 0.503874694,7.97378613 0.690797929,6.96073972 C0.692655047,6.9507057 0.697639717,6.94183988 0.704619442,6.93505497 C0.711935287,6.92794332 0.721432615,6.92310202 0.731994692,6.92143667 C0.735531285,6.92087904 0.739063858,6.92069695 0.74277238,6.92081812 C0.754917142,6.9178696 0.767091471,6.91487517 0.779295504,6.91183466 C2.04480737,6.59654478 2.79576747,5.99350683 3.25521128,5.19468548 C3.72927422,4.38078179 3.85715305,3.41152624 3.61042857,2.50298 C3.60847092,2.49577108 3.60649099,2.48857079 3.60448,2.48152614 C3.60248942,2.47594731 3.60049298,2.47031114 3.59849025,2.46461748 C3.54278107,2.30623906 3.51112049,2.18559345 3.50903767,2.09445022 C4.29673836,1.42052112 5.20272703,0.897901785 6.1812888,0.55295202 C6.19152395,0.549341719 6.20234371,0.54914891 6.21231107,0.551957881 Z" id="Shape"></path>
                        <path d="M9,6.05 C9.67547266,6.05 10.2878379,6.32499128 10.7314233,6.7685767 C11.1750087,7.21216211 11.45,7.82452734 11.45,8.5 C11.45,9.17547266 11.1750087,9.78783789 10.7314233,10.2314233 C10.2878379,10.6750087 9.67547266,10.95 9,10.95 C8.32452734,10.95 7.71216211,10.6750087 7.2685767,10.2314233 C6.82499128,9.78783789 6.55,9.17547266 6.55,8.5 C6.55,7.82452734 6.82499128,7.21216211 7.2685767,6.7685767 C7.71216211,6.32499128 8.32452734,6.05 9,6.05 Z" id="Shape"></path>
                    </g>
                </g>
            </g>
        </g>
    </g>
</svg>