<?xml version="1.0" encoding="UTF-8"?>
<svg width="36px" height="36px" viewBox="0 0 36 36" version="1.1" xmlns="http://www.w3.org/2000/svg" xmlns:xlink="http://www.w3.org/1999/xlink">
    <title>编组 5</title>
    <defs>
        <linearGradient x1="-1.48956222%" y1="100%" x2="100%" y2="-1.11889664e-14%" id="linearGradient-1">
            <stop stop-color="#2E77FF" offset="0%"></stop>
            <stop stop-color="#2A87FF" offset="100%"></stop>
        </linearGradient>
    </defs>
    <g id="风格7.0" stroke="none" stroke-width="1" fill="none" fill-rule="evenodd">
        <g id="icon" transform="translate(-89.000000, -249.000000)">
            <g id="编组-5" transform="translate(89.000000, 249.000000)">
                <rect id="矩形备份-22" fill="url(#linearGradient-1)" x="0" y="0" width="36" height="36" rx="7"></rect>
                <g id="编组" transform="translate(10.000000, 10.000000)" fill="#FFFFFF" stroke="#FFFFFF" stroke-width="0.1">
                    <path d="M2.45398773,-0.05 L13.4969325,-0.05 C14.1855291,-0.05 14.8115579,0.231644786 15.2654167,0.685503557 C15.6738896,1.09397645 15.9428691,1.64190705 15.9925803,2.24939538 L16.0009202,2.45398773 L16.0009202,13.4969325 C16.0009202,14.1855291 15.7192755,14.8115579 15.2654167,15.2654167 C14.8569438,15.6738896 14.3090132,15.9428691 13.7015249,15.9925803 L13.4969325,16.0009202 L2.45398773,16.0009202 C1.7653911,16.0009202 1.13936233,15.7192755 0.685503557,15.2654167 C0.277030663,14.8569438 0.00805109713,14.3090132 -0.0416600872,13.7015249 L-0.05,13.4969325 L-0.05,2.45398773 C-0.05,1.7653911 0.231644786,1.13936233 0.685503557,0.685503557 C1.09397645,0.277030663 1.64190705,0.00805109713 2.24939538,-0.0416600872 L2.45398773,-0.05 L2.45398773,-0.05 Z M13.4969325,1.27699387 L2.45398773,1.27699387 L2.31722404,1.28495353 C2.04790349,1.31649126 1.80562363,1.43993367 1.62277865,1.62277865 C1.40945951,1.8360978 1.27699387,2.13031442 1.27699387,2.45398773 L1.27699387,2.45398773 L1.27699387,13.4969325 L1.28495353,13.6336962 C1.31649126,13.9030168 1.43993367,14.1452966 1.62277865,14.3281416 C1.8360978,14.5414607 2.13031442,14.6739264 2.45398773,14.6739264 L2.45398773,14.6739264 L13.4969325,14.6739264 L13.6336962,14.6659667 C13.9030168,14.634429 14.1452966,14.5109866 14.3281416,14.3281416 C14.5414607,14.1148224 14.6739264,13.8206058 14.6739264,13.4969325 L14.6739264,13.4969325 L14.6739264,2.45398773 L14.6659667,2.31722404 C14.634429,2.04790349 14.5109866,1.80562363 14.3281416,1.62277865 C14.1148224,1.40945951 13.8206058,1.27699387 13.4969325,1.27699387 L13.4969325,1.27699387 Z M10.4294479,10.9929448 C10.615227,10.9929448 10.7809932,11.0661108 10.900386,11.1855036 C10.9959002,11.2810178 11.0618293,11.406211 11.0843019,11.5495901 L11.0927914,11.6603546 L11.0844214,11.7649633 C11.0589035,11.9252928 10.9776836,12.0648474 10.8606765,12.1639322 C10.7684894,12.2419987 10.6540445,12.2950029 10.5269707,12.313082 L10.4294479,12.3199387 L4.29447853,12.3199387 C4.10869939,12.3199387 3.94293314,12.2467727 3.82354037,12.1273799 C3.72802615,12.0318657 3.66209707,11.9066724 3.63962451,11.7632934 L3.63113494,11.6525288 L3.63950494,11.5479201 L10.4294479,10.9929448 Z M9.20245399,7.31196319 C9.38823313,7.31196319 9.55399938,7.38512919 9.67339215,7.50452196 C9.79278492,7.62391473 9.86595092,7.78968098 9.86595092,7.97546012 C9.86595092,8.16123926 9.79278492,8.32700551 9.67339215,8.44639828 C9.57787793,8.5419125 9.45268469,8.60784158 9.31130904,8.63039265 L9.20245399,8.63895706 L4.29447853,8.63895706 C4.10869939,8.63895706 3.94293314,8.56579106 3.82354037,8.44639828 C3.70414759,8.32700551 3.6309816,8.16123926 3.6309816,7.97546012 C3.6309816,7.82094658 3.68159301,7.68027664 3.76731719,7.56861605 L3.83795181,7.49054682 L9.20245399,7.31196319 Z M11.6564417,3.6309816 C11.8422209,3.6309816 12.0079871,3.70414759 12.1273799,3.82354037 C12.2467727,3.94293314 12.3199387,4.10869939 12.3199387,4.29447853 C12.3199387,4.48025767 12.2467727,4.64602392 12.1273799,4.76541669 C12.0318657,4.86093091 11.9066724,4.92685999 11.7652968,4.94941105 L11.6564417,4.95797546 L4.29447853,4.95797546 C4.10869939,4.95797546 3.94293314,4.88480946 3.82354037,4.76541669 C3.70414759,4.64602392 3.6309816,4.48025767 3.6309816,4.29447853 C3.6309816,4.13987512 3.6816519,3.99913142 3.76746681,3.88743965 L3.83817501,3.80935544 L11.6564417,3.6309816 Z" id="形状"></path>
                </g>
            </g>
        </g>
    </g>
</svg>