<?xml version="1.0" encoding="UTF-8"?>
<svg width="60px" height="60px" viewBox="0 0 60 60" version="1.1" xmlns="http://www.w3.org/2000/svg" xmlns:xlink="http://www.w3.org/1999/xlink">
    <title>智能logo60px</title>
    <defs>
        <linearGradient x1="50%" y1="0%" x2="50%" y2="100%" id="linearGradient-1">
            <stop stop-color="#0D7FE6" offset="0%"></stop>
            <stop stop-color="#1EBBC6" offset="58.0673923%"></stop>
            <stop stop-color="#2AE7AF" offset="100%"></stop>
        </linearGradient>
        <path d="M25.1971977,0 L45.8523137,11.3712178 L45.8523137,37.6155801 L44.4946453,38.9692599 L24.623,28.022 L24.6233274,49.9395377 L21.4535582,49.9395377 L2.72549351,39.5965647 L0,34.4406135 L0,12.8076673 L3.70534859,10.5019677 L20.556,20.546 L20.5567534,0.161454345 L25.1971977,0 Z M20.7578212,28.1498874 L5.81325199,36.7628182 L20.7578212,45.0027895 L20.7578212,28.1498874 Z M41.8027832,15.9256338 L26.7716137,24.6706076 L41.8027832,32.9879669 L41.8027832,15.9256338 Z M4.06159924,15.4742393 L4.06159924,32.9879669 L19.1488772,24.4568004 L4.06159924,15.4742393 Z M24.6233274,4.32908173 L24.6233274,21.2862528 L39.8727429,12.4882393 L24.6233274,4.32908173 Z" id="path-2"></path>
        <linearGradient x1="81.0966666%" y1="38.5584607%" x2="28.8545509%" y2="61.9626707%" id="linearGradient-4">
            <stop stop-color="#FFFFFF" offset="0%"></stop>
            <stop stop-color="#FFFFFF" stop-opacity="0" offset="100%"></stop>
        </linearGradient>
        <filter x="0.0%" y="0.0%" width="100.0%" height="100.0%" filterUnits="objectBoundingBox" id="filter-5">
            <feGaussianBlur stdDeviation="0" in="SourceGraphic"></feGaussianBlur>
        </filter>
        <linearGradient x1="44.8152906%" y1="77.6521765%" x2="44.8152906%" y2="3.26462903%" id="linearGradient-6">
            <stop stop-color="#FFFFFF" offset="0%"></stop>
            <stop stop-color="#FFFFFF" stop-opacity="0" offset="100%"></stop>
        </linearGradient>
        <filter x="0.0%" y="0.0%" width="100.0%" height="100.0%" filterUnits="objectBoundingBox" id="filter-7">
            <feGaussianBlur stdDeviation="0" in="SourceGraphic"></feGaussianBlur>
        </filter>
        <linearGradient x1="3.93796935%" y1="32.607826%" x2="78.9687461%" y2="60.0462823%" id="linearGradient-8">
            <stop stop-color="#FFFFFF" offset="0%"></stop>
            <stop stop-color="#FFFFFF" stop-opacity="0" offset="100%"></stop>
        </linearGradient>
        <filter x="0.0%" y="0.0%" width="100.0%" height="100.0%" filterUnits="objectBoundingBox" id="filter-9">
            <feGaussianBlur stdDeviation="0" in="SourceGraphic"></feGaussianBlur>
        </filter>
        <linearGradient x1="56.0769337%" y1="45.0797149%" x2="24.9463054%" y2="71.1433818%" id="linearGradient-10">
            <stop stop-color="#159BD7" offset="0%"></stop>
            <stop stop-color="#FFFFFF" stop-opacity="0" offset="100%"></stop>
        </linearGradient>
        <linearGradient x1="10.434388%" y1="68.063656%" x2="86.6988821%" y2="30.8651063%" id="linearGradient-11">
            <stop stop-color="#21C6C1" offset="0%"></stop>
            <stop stop-color="#FFFFFF" stop-opacity="0" offset="100%"></stop>
        </linearGradient>
        <linearGradient x1="50%" y1="0%" x2="50%" y2="100%" id="linearGradient-12">
            <stop stop-color="#0D7FE6" offset="0%"></stop>
            <stop stop-color="#2AE7AF" offset="100%"></stop>
        </linearGradient>
    </defs>
    <g id="页面-1" stroke="none" stroke-width="1" fill="none" fill-rule="evenodd">
        <g id="生成过程" transform="translate(-766, -1268)">
            <g id="编组-7" transform="translate(321, 699)">
                <g id="编组-5" transform="translate(247, 488)">
                    <g id="智能logo60px" transform="translate(198, 81)">
                        <rect id="矩形" x="0" y="0" width="60" height="60"></rect>
                        <g id="编组-35" transform="translate(0.8571, 0.8571)">
                            <rect id="矩形" x="0" y="0" width="58.2857143" height="58.2857143"></rect>
                            <g id="编组-19备份-17" transform="translate(3.4286, 1.7143)">
                                <path d="M27.9148216,2.78182535 L48.5699376,14.1530432 L48.5699376,40.3974054 L47.2122691,41.7510852 L27.3406238,30.8038254 L27.3409512,52.7213631 L24.171182,52.7213631 L5.44311735,42.3783901 L2.71762384,37.2224388 L2.71762384,15.5894926 L6.42297243,13.283793 L23.2736238,23.3278254 L23.2743772,2.9432797 L27.9148216,2.78182535 Z M23.4754451,30.9317128 L8.53087583,39.5446435 L23.4754451,47.7846148 L23.4754451,30.9317128 Z M44.520407,18.7074592 L29.4892375,27.452433 L44.520407,35.7697922 L44.520407,18.7074592 Z M6.77922307,18.2560647 L6.77922307,35.7697922 L21.866501,27.2386257 L6.77922307,18.2560647 Z M27.3409512,7.11090709 L27.3409512,24.0680782 L42.5903667,15.2700646 L27.3409512,7.11090709 Z" id="形状结合" fill="url(#linearGradient-1)"></path>
                                <g id="路径-2-+-路径-3-+-路径-4蒙版" transform="translate(2.7176, 2.7818)">
                                    <mask id="mask-3" fill="white">
                                        <use xlink:href="#path-2"></use>
                                    </mask>
                                    <use id="蒙版" fill="url(#linearGradient-1)" xlink:href="#path-2"></use>
                                    <polygon id="路径-2" fill="url(#linearGradient-4)" filter="url(#filter-5)" mask="url(#mask-3)" points="14.177196 23.2632694 22.5796859 23.2632694 23.4218687 27.5957059 9.52757789 36.9780352 3.7254788 29.0812693"></polygon>
                                    <polygon id="路径-3" fill="url(#linearGradient-6)" filter="url(#filter-7)" mask="url(#mask-3)" points="23.4218687 22.4125055 27.1161878 15.1091341 27.8042533 6.35665145 18.1506617 5.88610282 18.8417696 16.8706238 22.5796859 22.4125055"></polygon>
                                    <polygon id="路径-4" fill="url(#linearGradient-8)" filter="url(#filter-9)" mask="url(#mask-3)" points="33.5501273 24.6706076 24.403058 24.9983902 24.403058 27.5289361 28.4733448 33.3539069 36.4355638 36.3335669 41.6970622 28.387534"></polygon>
                                </g>
                                <path d="M27.9148216,2.78182535 L48.5699376,14.1530432 L48.5699376,40.3974054 L47.2122691,41.7510852 L23.2743772,28.5628437 L23.2743772,2.9432797 L27.9148216,2.78182535 Z M27.3409512,7.11090709 L27.3409512,24.0680782 L28.3053772,23.5108254 L28.3061985,25.7112082 L30.1053772,27.0928254 L29.4892375,27.452433 L44.520407,35.7697922 L44.5203772,18.7198254 L45.4350062,17.1793767 L42.5903667,15.2700646 L27.3409512,7.11090709 Z" id="形状结合" fill="url(#linearGradient-10)" fill-rule="nonzero"></path>
                                <polygon id="路径" fill="url(#linearGradient-11)" fill-rule="nonzero" points="22.5927693 26.8440709 23.6315003 30.8033921 8.53087583 39.5446435 7.30516741 35.4601402"></polygon>
                                <g id="编组-21" fill="url(#linearGradient-12)">
                                    <path d="M25.4312165,33.1398658 C28.857043,33.1398658 31.634224,30.3626848 31.634224,26.9368583 C31.634224,23.5110318 28.857043,20.7338508 25.4312165,20.7338508 C22.00539,20.7338508 19.228209,23.5110318 19.228209,26.9368583 C19.228209,30.3626848 22.00539,33.1398658 25.4312165,33.1398658 Z M46.5950591,20.103577 C49.2645342,20.103577 51.4285714,17.9395398 51.4285714,15.2700646 C51.4285714,12.6005895 49.2645342,10.4365523 46.5950591,10.4365523 C43.9255839,10.4365523 41.7615467,12.6005895 41.7615467,15.2700646 C41.7615467,17.9395398 43.9255839,20.103577 46.5950591,20.103577 Z M25.4312165,54.9048659 C28.1006917,54.9048659 30.2647289,52.7408287 30.2647289,50.0713536 C30.2647289,47.4018784 28.1006917,45.2378412 25.4312165,45.2378412 C22.7617413,45.2378412 20.5977042,47.4018784 20.5977042,50.0713536 C20.5977042,52.7408287 22.7617413,54.9048659 25.4312165,54.9048659 Z M4.83351235,43.462539 C7.50298751,43.462539 9.6670247,41.2985018 9.6670247,38.6290267 C9.6670247,35.9595515 7.50298751,33.7955143 4.83351235,33.7955143 C2.16403719,33.7955143 0,35.9595515 0,38.6290267 C0,41.2985018 2.16403719,43.462539 4.83351235,43.462539 Z M25.4312165,8.37808808 C27.7447616,8.37808808 29.6202605,6.50258918 29.6202605,4.18904404 C29.6202605,1.8754989 27.7447616,0 25.4312165,0 C23.1176714,0 21.2421725,1.8754989 21.2421725,4.18904404 C21.2421725,6.50258918 23.1176714,8.37808808 25.4312165,8.37808808 Z M46.5950591,43.3044363 C48.9086042,43.3044363 50.7841031,41.4289374 50.7841031,39.1153922 C50.7841031,36.8018471 48.9086042,34.9263482 46.5950591,34.9263482 C44.2815139,34.9263482 42.406015,36.8018471 42.406015,39.1153922 C42.406015,41.4289374 44.2815139,43.3044363 46.5950591,43.3044363 Z M4.83351235,18.3420872 C7.14705749,18.3420872 9.02255639,16.4665883 9.02255639,14.1530432 C9.02255639,11.8394981 7.14705749,9.96399915 4.83351235,9.96399915 C2.51996721,9.96399915 0.644468314,11.8394981 0.644468314,14.1530432 C0.644468314,16.4665883 2.51996721,18.3420872 4.83351235,18.3420872 Z" id="形状结合"></path>
                                </g>
                            </g>
                        </g>
                    </g>
                </g>
            </g>
        </g>
    </g>
</svg>