<?xml version="1.0" encoding="UTF-8"?>
<svg width="14px" height="14px" viewBox="0 0 14 14" version="1.1" xmlns="http://www.w3.org/2000/svg" xmlns:xlink="http://www.w3.org/1999/xlink">
    <title>编组 27</title>
    <defs>
        <linearGradient x1="87.1897065%" y1="0%" x2="18.2404492%" y2="100%" id="linearGradient-1">
            <stop stop-color="#3F65FF" offset="0%"></stop>
            <stop stop-color="#4D9AFF" offset="100%"></stop>
        </linearGradient>
    </defs>
    <g id="新版" stroke="none" stroke-width="1" fill="none" fill-rule="evenodd">
        <g id="编组-27">
            <rect id="矩形备份-14" fill="url(#linearGradient-1)" x="0" y="0" width="14" height="14" rx="3"></rect>
            <path d="M10.6909164,4.13606664 L11.3533769,4.75409492 C11.4341433,4.82944424 11.4385347,4.95600107 11.3631854,5.03676751 C11.3630666,5.03689486 11.3629476,5.03702206 11.3628285,5.03714911 L6.61639859,10.0982425 C6.54083852,10.1788118 6.41427065,10.1828726 6.33370134,10.1073125 C6.33178221,10.1055127 6.32989878,10.1036752 6.32805215,10.101801 L3.14074016,6.86701892 C3.06321475,6.78833888 3.06415075,6.66170934 3.14283079,6.58418393 C3.14295511,6.58406143 3.1430796,6.58393909 3.14320424,6.58381692 L3.79012518,5.94971888 C3.86886935,5.87253554 3.99522663,5.87364336 4.0726054,5.95219549 L6.45014624,8.36578882 L6.45014624,8.36578882 L10.4086102,4.14548353 C10.4840326,4.06507216 10.610303,4.06086016 10.6909164,4.13606664 Z" id="路径-13备份" fill="#FFFFFF" fill-rule="nonzero"></path>
        </g>
    </g>
</svg>