<?xml version="1.0" encoding="UTF-8"?>
<svg width="16px" height="16px" viewBox="0 0 16 16" version="1.1" xmlns="http://www.w3.org/2000/svg" xmlns:xlink="http://www.w3.org/1999/xlink">
    <title>内容管理</title>
    <g id="页面-1" stroke="none" stroke-width="1" fill="none" fill-rule="evenodd">
        <g id="关键应用图标（定稿）" transform="translate(-44.000000, -228.000000)">
            <g id="内容管理" transform="translate(44.000000, 224.000000)">
                <g transform="translate(0.000000, 4.000000)">
                    <polygon id="矩形" points="0 0 16 0 16 16 0 16"></polygon>
                    <g id="编组-36备份" transform="translate(0.000000, 0.503839)" fill="#2987FE">
                        <rect id="矩形备份-47" x="3" y="11" width="6" height="1" rx="0.495"></rect>
                        <rect id="矩形备份-48" x="3" y="5" width="4" height="1" rx="0.495"></rect>
                        <rect id="矩形备份-49" x="3" y="8" width="4" height="1" rx="0.495"></rect>
                        <path d="M15.8185159,3.13378426 C16.0426983,3.31533037 16.0616798,3.61754803 15.861556,3.81905523 L12.6046637,6.83075869 C12.5414003,6.88700305 12.4633077,6.92911691 12.3770929,6.95348338 C12.304367,6.98298292 12.2252538,6.99883542 12.1449478,7 C11.9937244,6.99988346 11.8488157,6.94750942 11.7424105,6.85451186 L10.1745737,5.50157113 C10.0259342,5.37732502 9.96632204,5.19333526 10.0186493,5.02031847 C10.0709765,4.84730168 10.2270998,4.7121833 10.4270129,4.66689619 C10.6269261,4.62160908 10.8395181,4.67320096 10.9830789,4.80184246 L12.1449478,5.80541371 L15.0267487,3.14307972 C15.2446447,2.95590114 15.5943336,2.95223815 15.8185159,3.13378426 Z" id="路径" fill-rule="nonzero"></path>
                        <path d="M12.3846154,0 C13.2752308,0 14,0.673 14,1.5 L14,2 L12.9230769,2 L12.9230769,1.5 C12.9230769,1.224 12.6818462,1 12.3846154,1 L5,0.999 L5,4 L1.076,4 L1.07692308,13.5 C1.07692308,13.776 1.31815385,14 1.61538462,14 L12.3846154,14 C12.6818462,14 12.9230769,13.776 12.9230769,13.5 L12.9230769,8.5 L14,8.5 L14,13.5 C14,14.327 13.2752308,15 12.3846154,15 L1.61538462,15 C0.724769231,15 0,14.327 0,13.5 L0,3.293 L3.54630769,0 L12.3846154,0 Z M4,0.999 L3.99215385,1 L1.837,3 L4,3 L4,0.999 Z" id="Icon-69"></path>
                    </g>
                </g>
            </g>
        </g>
    </g>
</svg>