<?xml version="1.0" encoding="UTF-8"?>
<svg width="138px" height="109px" viewBox="0 0 138 109" version="1.1" xmlns="http://www.w3.org/2000/svg" xmlns:xlink="http://www.w3.org/1999/xlink">
    <title>弹窗</title>
    <defs>
        <rect id="path-1" x="0" y="0" width="138" height="109" rx="4.24615385"></rect>
        <path d="M1.59230769,0 L123.669231,0 C124.548638,-1.61544492e-16 125.261538,0.712900437 125.261538,1.59230769 L125.261538,5.30769231 C125.261538,6.18709956 124.548638,6.9 123.669231,6.9 L1.59230769,6.9 C0.712900437,6.9 4.98231601e-16,6.18709956 0,5.30769231 L0,1.59230769 C-1.07696328e-16,0.712900437 0.712900437,3.83589097e-16 1.59230769,0 Z" id="path-3"></path>
        <filter x="-2.8%" y="-36.2%" width="105.6%" height="201.4%" filterUnits="objectBoundingBox" id="filter-4">
            <feOffset dx="0" dy="1" in="SourceAlpha" result="shadowOffsetOuter1"></feOffset>
            <feGaussianBlur stdDeviation="1" in="shadowOffsetOuter1" result="shadowBlurOuter1"></feGaussianBlur>
            <feComposite in="shadowBlurOuter1" in2="SourceAlpha" operator="out" result="shadowBlurOuter1"></feComposite>
            <feColorMatrix values="0 0 0 0 0.121568627   0 0 0 0 0.137254902   0 0 0 0 0.160784314  0 0 0 0.06 0" type="matrix" in="shadowBlurOuter1"></feColorMatrix>
        </filter>
        <rect id="path-5" x="-8.52651283e-14" y="0" width="125.261538" height="64" rx="2.12307692"></rect>
        <rect id="path-7" x="0" y="0" width="6.9" height="6.9" rx="1.59230769"></rect>
        <filter x="-50.7%" y="-36.2%" width="201.4%" height="201.4%" filterUnits="objectBoundingBox" id="filter-8">
            <feOffset dx="0" dy="1" in="SourceAlpha" result="shadowOffsetOuter1"></feOffset>
            <feGaussianBlur stdDeviation="1" in="shadowOffsetOuter1" result="shadowBlurOuter1"></feGaussianBlur>
            <feComposite in="shadowBlurOuter1" in2="SourceAlpha" operator="out" result="shadowBlurOuter1"></feComposite>
            <feColorMatrix values="0 0 0 0 0.121568627   0 0 0 0 0.137254902   0 0 0 0 0.160784314  0 0 0 0.06 0" type="matrix" in="shadowBlurOuter1"></feColorMatrix>
        </filter>
        <rect id="path-9" x="0" y="0" width="6.9" height="6.9" rx="1.59230769"></rect>
        <filter x="-50.7%" y="-36.2%" width="201.4%" height="201.4%" filterUnits="objectBoundingBox" id="filter-10">
            <feOffset dx="0" dy="1" in="SourceAlpha" result="shadowOffsetOuter1"></feOffset>
            <feGaussianBlur stdDeviation="1" in="shadowOffsetOuter1" result="shadowBlurOuter1"></feGaussianBlur>
            <feComposite in="shadowBlurOuter1" in2="SourceAlpha" operator="out" result="shadowBlurOuter1"></feComposite>
            <feColorMatrix values="0 0 0 0 0.121568627   0 0 0 0 0.137254902   0 0 0 0 0.160784314  0 0 0 0.06 0" type="matrix" in="shadowBlurOuter1"></feColorMatrix>
        </filter>
        <rect id="path-11" x="0" y="0" width="6.9" height="6.9" rx="1.59230769"></rect>
        <filter x="-50.7%" y="-36.2%" width="201.4%" height="201.4%" filterUnits="objectBoundingBox" id="filter-12">
            <feOffset dx="0" dy="1" in="SourceAlpha" result="shadowOffsetOuter1"></feOffset>
            <feGaussianBlur stdDeviation="1" in="shadowOffsetOuter1" result="shadowBlurOuter1"></feGaussianBlur>
            <feComposite in="shadowBlurOuter1" in2="SourceAlpha" operator="out" result="shadowBlurOuter1"></feComposite>
            <feColorMatrix values="0 0 0 0 0.121568627   0 0 0 0 0.137254902   0 0 0 0 0.160784314  0 0 0 0.06 0" type="matrix" in="shadowBlurOuter1"></feColorMatrix>
        </filter>
        <rect id="path-13" x="0" y="0" width="6.9" height="6.9" rx="1.59230769"></rect>
        <filter x="-50.7%" y="-36.2%" width="201.4%" height="201.4%" filterUnits="objectBoundingBox" id="filter-14">
            <feOffset dx="0" dy="1" in="SourceAlpha" result="shadowOffsetOuter1"></feOffset>
            <feGaussianBlur stdDeviation="1" in="shadowOffsetOuter1" result="shadowBlurOuter1"></feGaussianBlur>
            <feComposite in="shadowBlurOuter1" in2="SourceAlpha" operator="out" result="shadowBlurOuter1"></feComposite>
            <feColorMatrix values="0 0 0 0 0.121568627   0 0 0 0 0.137254902   0 0 0 0 0.160784314  0 0 0 0.06 0" type="matrix" in="shadowBlurOuter1"></feColorMatrix>
        </filter>
        <rect id="path-15" x="8.49230769" y="0" width="6.9" height="6.9" rx="1.59230769"></rect>
        <filter x="-50.7%" y="-36.2%" width="201.4%" height="201.4%" filterUnits="objectBoundingBox" id="filter-16">
            <feOffset dx="0" dy="1" in="SourceAlpha" result="shadowOffsetOuter1"></feOffset>
            <feGaussianBlur stdDeviation="1" in="shadowOffsetOuter1" result="shadowBlurOuter1"></feGaussianBlur>
            <feComposite in="shadowBlurOuter1" in2="SourceAlpha" operator="out" result="shadowBlurOuter1"></feComposite>
            <feColorMatrix values="0 0 0 0 0.121568627   0 0 0 0 0.137254902   0 0 0 0 0.160784314  0 0 0 0.06 0" type="matrix" in="shadowBlurOuter1"></feColorMatrix>
        </filter>
        <rect id="path-17" x="0" y="0" width="6.9" height="6.9" rx="1.59230769"></rect>
        <filter x="-50.7%" y="-36.2%" width="201.4%" height="201.4%" filterUnits="objectBoundingBox" id="filter-18">
            <feOffset dx="0" dy="1" in="SourceAlpha" result="shadowOffsetOuter1"></feOffset>
            <feGaussianBlur stdDeviation="1" in="shadowOffsetOuter1" result="shadowBlurOuter1"></feGaussianBlur>
            <feColorMatrix values="0 0 0 0 0.121568627   0 0 0 0 0.137254902   0 0 0 0 0.160784314  0 0 0 0.08 0" type="matrix" in="shadowBlurOuter1"></feColorMatrix>
        </filter>
        <path d="M5.35111171e-15,1.6003418 C2.39577432e-15,0.716497428 0.712432587,0 1.6003418,0 L5.2996582,0 C6.18350257,0 6.9,0.712432587 6.9,1.6003418 L6.9,5.2996582 C6.9,6.18350257 6.18756741,6.9 5.2996582,6.9 L1.6003418,6.9 C0.716497428,6.9 2.0689558e-14,6.18756741 1.77206289e-14,5.2996582 L5.35111171e-15,1.6003418 Z" id="path-19"></path>
        <filter x="-50.7%" y="-36.2%" width="201.4%" height="201.4%" filterUnits="objectBoundingBox" id="filter-20">
            <feOffset dx="0" dy="1" in="SourceAlpha" result="shadowOffsetOuter1"></feOffset>
            <feGaussianBlur stdDeviation="1" in="shadowOffsetOuter1" result="shadowBlurOuter1"></feGaussianBlur>
            <feComposite in="shadowBlurOuter1" in2="SourceAlpha" operator="out" result="shadowBlurOuter1"></feComposite>
            <feColorMatrix values="0 0 0 0 0.121568627   0 0 0 0 0.137254902   0 0 0 0 0.160784314  0 0 0 0.06 0" type="matrix" in="shadowBlurOuter1"></feColorMatrix>
        </filter>
        <linearGradient x1="100%" y1="54.3373355%" x2="2.71507784%" y2="46.469798%" id="linearGradient-21">
            <stop stop-color="#328BFF" offset="0%"></stop>
            <stop stop-color="#2A87FF" offset="100%"></stop>
        </linearGradient>
        <rect id="path-22" x="0" y="0" width="26.5384615" height="8.49230769" rx="1.59230769"></rect>
        <filter x="-18.8%" y="-47.1%" width="137.7%" height="217.8%" filterUnits="objectBoundingBox" id="filter-23">
            <feOffset dx="0" dy="1" in="SourceAlpha" result="shadowOffsetOuter1"></feOffset>
            <feGaussianBlur stdDeviation="1.5" in="shadowOffsetOuter1" result="shadowBlurOuter1"></feGaussianBlur>
            <feColorMatrix values="0 0 0 0 0.270588235   0 0 0 0 0.564705882   0 0 0 0 1  0 0 0 0.25 0" type="matrix" in="shadowBlurOuter1"></feColorMatrix>
        </filter>
        <rect id="path-24" x="0" y="0" width="18.5769231" height="8.49230769" rx="1.59230769"></rect>
        <filter x="-18.8%" y="-29.4%" width="137.7%" height="182.4%" filterUnits="objectBoundingBox" id="filter-25">
            <feOffset dx="0" dy="1" in="SourceAlpha" result="shadowOffsetOuter1"></feOffset>
            <feGaussianBlur stdDeviation="1" in="shadowOffsetOuter1" result="shadowBlurOuter1"></feGaussianBlur>
            <feComposite in="shadowBlurOuter1" in2="SourceAlpha" operator="out" result="shadowBlurOuter1"></feComposite>
            <feColorMatrix values="0 0 0 0 0.121568627   0 0 0 0 0.137254902   0 0 0 0 0.160784314  0 0 0 0.06 0" type="matrix" in="shadowBlurOuter1"></feColorMatrix>
        </filter>
    </defs>
    <g id="表单设计器" stroke="none" stroke-width="1" fill="none" fill-rule="evenodd">
        <g id="弹窗">
            <g id="矩形">
                <mask id="mask-2" fill="white">
                    <use xlink:href="#path-1"></use>
                </mask>
                <use id="蒙版" fill="#FFFFFF" xlink:href="#path-1"></use>
                <path d="M130.516444,6.95278635 C130.579788,7.01612998 130.586122,7.11489461 130.535448,7.18532244 L130.516444,7.20766141 L129.098861,8.625 L130.516444,10.0423386 C130.586826,10.1127204 130.586826,10.2268318 130.516444,10.2972136 C130.453101,10.3605573 130.354336,10.3668916 130.283908,10.3162167 L130.261569,10.2972136 L128.844231,8.8796306 L127.426892,10.2972136 C127.35651,10.3675955 127.242399,10.3675955 127.172017,10.2972136 C127.108673,10.23387 127.102339,10.1351054 127.153014,10.0646776 L127.172017,10.0423386 L128.5896,8.625 L127.172017,7.20766141 C127.101635,7.13727961 127.101635,7.02316816 127.172017,6.95278635 C127.235361,6.88944273 127.334125,6.88310837 127.404553,6.93378327 L127.426892,6.95278635 L128.844231,8.3703694 L130.261569,6.95278635 C130.331951,6.88240455 130.446063,6.88240455 130.516444,6.95278635 Z" id="形状结合" fill="#848C9A" mask="url(#mask-2)"></path>
                <g id="编组-23" mask="url(#mask-2)">
                    <g transform="translate(6.369231, 15.923077)">
                        <g id="Rectangle-11备份" stroke="none">
                            <use fill="black" fill-opacity="1" filter="url(#filter-4)" xlink:href="#path-3"></use>
                            <path stroke="#D9DEE7" stroke-width="0.3" d="M123.669231,0.15 C124.067513,0.15 124.42809,0.311435787 124.689096,0.572442143 C124.950103,0.833448498 125.111538,1.19402542 125.111538,1.59230769 L125.111538,1.59230769 L125.111538,5.30769231 C125.111538,5.70597458 124.950103,6.0665515 124.689096,6.32755786 C124.42809,6.58856421 124.067513,6.75 123.669231,6.75 L123.669231,6.75 L1.59230769,6.75 C1.19402542,6.75 0.833448498,6.58856421 0.572442143,6.32755786 C0.311435787,6.0665515 0.15,5.70597458 0.15,5.30769231 L0.15,5.30769231 L0.15,1.59230769 C0.15,1.19402542 0.311435787,0.833448498 0.572442143,0.572442143 C0.833448498,0.311435787 1.19402542,0.15 1.59230769,0.15 L1.59230769,0.15 L123.669231,0.15 Z" stroke-linejoin="square" fill="#FFFFFF" fill-rule="evenodd"></path>
                        </g>
                        <path d="M121.353383,4.50415065 C122.053042,4.50415065 122.620228,3.93548412 122.620228,3.2339984 C122.620228,2.53251269 122.053042,1.96384615 121.353383,1.96384615 C120.653724,1.96384615 120.086538,2.53251269 120.086538,3.2339984 C120.086538,3.93548412 120.653724,4.50415065 121.353383,4.50415065 Z M122.262258,4.12310498 L123.085385,4.96269231" id="形状结合" stroke="#B4BCCC" stroke-width="0.5"></path>
                        <text id="请输入编号或名称进行搜索" stroke="none" font-family="PingFangSC-Regular, PingFang SC" font-size="3.45" font-weight="normal">
                            <tspan x="2.12307692" y="5.06153846" fill="#B4BCCC">请输入编号或名称进行搜索</tspan>
                        </text>
                    </g>
                </g>
                <g id="编组-4" mask="url(#mask-2)">
                    <g transform="translate(6.369231, 26.007692)">
                        <mask id="mask-6" fill="white">
                            <use xlink:href="#path-5"></use>
                        </mask>
                        <rect stroke="#E9ECF3" stroke-width="0.5" x="0.25" y="0.25" width="124.761538" height="63.5" rx="2.12307692"></rect>
                        <g id="Pagination分页/常规分页" stroke="none" stroke-width="1" fill="none" fill-rule="evenodd" mask="url(#mask-6)">
                            <g transform="translate(6.900000, 50.992308)">
                                <g id="按钮" transform="translate(46.176923, 0.000000)">
                                    <g id="上一页">
                                        <g id="background">
                                            <use fill="black" fill-opacity="1" filter="url(#filter-8)" xlink:href="#path-7"></use>
                                            <rect stroke="#E8EBF2" stroke-width="0.5" stroke-linejoin="square" fill="#FFFFFF" fill-rule="evenodd" x="0.25" y="0.25" width="6.4" height="6.4" rx="1.59230769"></rect>
                                        </g>
                                        <g id="Drop-down" transform="translate(3.073077, 3.826923) rotate(90.000000) translate(-3.073077, -3.826923) translate(0.573077, 1.326923)">
                                            <rect id="矩形" x="0" y="0" width="4.24615385" height="4.24615385"></rect>
                                            <path d="M3.29603433,1.32383772 C3.36161131,1.2571823 3.4679326,1.2571823 3.53350957,1.32383772 C3.59252885,1.38382759 3.59843078,1.47736311 3.55121536,1.54406211 L3.53350957,1.56521834 L2.12307692,2.99884615 L0.712644271,1.56521834 C0.647067294,1.49856292 0.647067294,1.39049314 0.712644271,1.32383772 C0.771663551,1.26384784 0.863685722,1.25784885 0.92930558,1.30584075 L0.950119513,1.32383772 L2.12307692,2.51614762 L3.29603433,1.32383772 Z" id="形状" fill="#2D2F33" transform="translate(2.123077, 2.136346) rotate(360.000000) translate(-2.123077, -2.136346) "></path>
                                        </g>
                                    </g>
                                    <g id="1" transform="translate(8.492308, 0.000000)">
                                        <g id="background">
                                            <use fill="black" fill-opacity="1" filter="url(#filter-10)" xlink:href="#path-9"></use>
                                            <rect stroke="#E8EBF2" stroke-width="0.5" stroke-linejoin="square" fill="#FFFFFF" fill-rule="evenodd" x="0.25" y="0.25" width="6.4" height="6.4" rx="1.59230769"></rect>
                                        </g>
                                        <text font-family="PingFangSC-Regular, PingFang SC" font-size="3.45" font-weight="normal" fill="#2D2F33">
                                            <tspan x="2.65384615" y="5.06153846">1</tspan>
                                        </text>
                                    </g>
                                    <g id="2" transform="translate(22.292308, 0.000000)">
                                        <g id="选中背景色">
                                            <use fill="black" fill-opacity="1" filter="url(#filter-12)" xlink:href="#path-11"></use>
                                            <rect stroke="#E8EBF2" stroke-width="0.5" stroke-linejoin="square" fill="#FFFFFF" fill-rule="evenodd" x="0.25" y="0.25" width="6.4" height="6.4" rx="1.59230769"></rect>
                                        </g>
                                        <text id="10" font-family="PingFangSC-Regular, PingFang SC" font-size="3.45" font-weight="normal" fill="#2D2F33">
                                            <tspan x="1.59230769" y="5.06153846">10</tspan>
                                        </text>
                                    </g>
                                    <g id="3" transform="translate(30.784615, 0.000000)">
                                        <g id="background">
                                            <use fill="black" fill-opacity="1" filter="url(#filter-14)" xlink:href="#path-13"></use>
                                            <rect stroke="#E8EBF2" stroke-width="0.5" stroke-linejoin="square" fill="#FFFFFF" fill-rule="evenodd" x="0.25" y="0.25" width="6.4" height="6.4" rx="1.59230769"></rect>
                                        </g>
                                        <g id="background">
                                            <use fill="black" fill-opacity="1" filter="url(#filter-16)" xlink:href="#path-15"></use>
                                            <rect stroke="#E8EBF2" stroke-width="0.5" stroke-linejoin="square" fill="#FFFFFF" fill-rule="evenodd" x="8.74230769" y="0.25" width="6.4" height="6.4" rx="1.59230769"></rect>
                                        </g>
                                        <text id="11" font-family="PingFangSC-Regular, PingFang SC" font-size="3.45" font-weight="normal" fill="#2D2F33">
                                            <tspan x="2.12307692" y="5.06153846">11</tspan>
                                        </text>
                                    </g>
                                    <text id="12" font-family="PingFangSC-Regular, PingFang SC" font-size="3.45" font-weight="normal" fill="#2D2F33">
                                        <tspan x="40.8692308" y="5.06153846">12</tspan>
                                    </text>
                                    <g id="5" transform="translate(53.076923, 0.000000)">
                                        <g id="background">
                                            <use fill="black" fill-opacity="1" filter="url(#filter-18)" xlink:href="#path-17"></use>
                                            <use fill="#E9F3FF" fill-rule="evenodd" xlink:href="#path-17"></use>
                                        </g>
                                        <text id="50" font-family="PingFangSC-Medium, PingFang SC" font-size="3.45" font-weight="400" fill="#2A87FF">
                                            <tspan x="1.59230769" y="5.06153846">50</tspan>
                                        </text>
                                    </g>
                                    <g id="下一页" transform="translate(61.569231, 0.000000)">
                                        <g id="background">
                                            <use fill="black" fill-opacity="1" filter="url(#filter-20)" xlink:href="#path-19"></use>
                                            <path stroke="#E8EBF2" stroke-width="0.5" d="M5.2996582,0.25 C5.67299271,0.25 6.01102052,0.400507239 6.25549024,0.644976964 C6.49938112,0.888867843 6.65,1.22619023 6.65,1.6003418 L6.65,1.6003418 L6.65,5.2996582 C6.65,5.67299271 6.49949276,6.01102052 6.25502304,6.25549024 C6.01113216,6.49938112 5.67380977,6.65 5.2996582,6.65 L5.2996582,6.65 L1.6003418,6.65 C1.22700729,6.65 0.888979482,6.49949276 0.644509758,6.25502304 C0.400618878,6.01113216 0.25,5.67380977 0.25,5.2996582 L0.25,5.2996582 L0.25,1.6003418 C0.25,1.22700729 0.400507239,0.888979482 0.644976964,0.644509758 C0.888867843,0.400618878 1.22619023,0.25 1.6003418,0.25 L1.6003418,0.25 Z" stroke-linejoin="square" fill="#FFFFFF" fill-rule="evenodd"></path>
                                        </g>
                                        <g id="Drop-down" transform="translate(4.092308, 3.073077) rotate(-90.000000) translate(-4.092308, -3.073077) translate(1.592308, 0.573077)">
                                            <rect id="矩形" x="0" y="0" width="4.24615385" height="4.24615385"></rect>
                                            <path d="M3.29603433,1.32383772 C3.36161131,1.2571823 3.4679326,1.2571823 3.53350957,1.32383772 C3.59252885,1.38382759 3.59843078,1.47736311 3.55121536,1.54406211 L3.53350957,1.56521834 L2.12307692,2.99884615 L0.712644271,1.56521834 C0.647067294,1.49856292 0.647067294,1.39049314 0.712644271,1.32383772 C0.771663551,1.26384784 0.863685722,1.25784885 0.92930558,1.30584075 L0.950119513,1.32383772 L2.12307692,2.51614762 L3.29603433,1.32383772 Z" id="形状" fill="#2D2F33" transform="translate(2.123077, 2.136346) rotate(360.000000) translate(-2.123077, -2.136346) "></path>
                                        </g>
                                    </g>
                                    <g id="编组" transform="translate(16.984615, 1.592308)">
                                        <rect id="矩形" x="0" y="0" width="3.71538462" height="3.71538462"></rect>
                                        <path d="M0.998509615,1.57903846 C1.0113343,1.57903846 1.02173077,1.58943493 1.02173077,1.60225962 L1.02173077,2.113125 C1.02173077,2.12594969 1.0113343,2.13634615 0.998509615,2.13634615 L0.487644231,2.13634615 C0.474819542,2.13634615 0.464423077,2.12594969 0.464423077,2.113125 L0.464423077,1.60225962 C0.464423077,1.58943493 0.474819542,1.57903846 0.487644231,1.57903846 L0.998509615,1.57903846 Z M2.113125,1.57903846 C2.12594969,1.57903846 2.13634615,1.58943493 2.13634615,1.60225962 L2.13634615,2.113125 C2.13634615,2.12594969 2.12594969,2.13634615 2.113125,2.13634615 L1.60225962,2.13634615 C1.58943493,2.13634615 1.57903846,2.12594969 1.57903846,2.113125 L1.57903846,1.60225962 C1.57903846,1.58943493 1.58943493,1.57903846 1.60225962,1.57903846 L2.113125,1.57903846 Z M3.22774038,1.57903846 C3.24056507,1.57903846 3.25096154,1.58943493 3.25096154,1.60225962 L3.25096154,2.113125 C3.25096154,2.12594969 3.24056507,2.13634615 3.22774038,2.13634615 L2.716875,2.13634615 C2.70405031,2.13634615 2.69365385,2.12594969 2.69365385,2.113125 L2.69365385,1.60225962 C2.69365385,1.58943493 2.70405031,1.57903846 2.716875,1.57903846 L3.22774038,1.57903846 Z" id="形状" fill="#2D2F33"></path>
                                    </g>
                                    <g id="编组" transform="translate(47.769231, 1.592308)">
                                        <rect id="矩形" x="0" y="0" width="3.71538462" height="3.71538462"></rect>
                                        <path d="M0.998509615,1.57903846 C1.0113343,1.57903846 1.02173077,1.58943493 1.02173077,1.60225962 L1.02173077,2.113125 C1.02173077,2.12594969 1.0113343,2.13634615 0.998509615,2.13634615 L0.487644231,2.13634615 C0.474819542,2.13634615 0.464423077,2.12594969 0.464423077,2.113125 L0.464423077,1.60225962 C0.464423077,1.58943493 0.474819542,1.57903846 0.487644231,1.57903846 L0.998509615,1.57903846 Z M2.113125,1.57903846 C2.12594969,1.57903846 2.13634615,1.58943493 2.13634615,1.60225962 L2.13634615,2.113125 C2.13634615,2.12594969 2.12594969,2.13634615 2.113125,2.13634615 L1.60225962,2.13634615 C1.58943493,2.13634615 1.57903846,2.12594969 1.57903846,2.113125 L1.57903846,1.60225962 C1.57903846,1.58943493 1.58943493,1.57903846 1.60225962,1.57903846 L2.113125,1.57903846 Z M3.22774038,1.57903846 C3.24056507,1.57903846 3.25096154,1.58943493 3.25096154,1.60225962 L3.25096154,2.113125 C3.25096154,2.12594969 3.24056507,2.13634615 3.22774038,2.13634615 L2.716875,2.13634615 C2.70405031,2.13634615 2.69365385,2.12594969 2.69365385,2.113125 L2.69365385,1.60225962 C2.69365385,1.58943493 2.70405031,1.57903846 2.716875,1.57903846 L3.22774038,1.57903846 Z" id="形状" fill="#2D2F33"></path>
                                    </g>
                                </g>
                                <g id="显示/条" transform="translate(20.434615, 0.530769)">
                                    <text id="10" font-family="PingFangSC-Semibold, PingFang SC" font-size="3.98076923" font-weight="500" line-spacing="5.83846154" fill="#2D2F33">
                                        <tspan x="7.96153846" y="4">10</tspan>
                                    </text>
                                    <text id="显示" font-family="PingFangSC-Regular, PingFang SC" font-size="3.45" font-weight="normal" fill="#2D2F33">
                                        <tspan x="0" y="4.53076923">显示</tspan>
                                    </text>
                                    <text id="条" font-family="PingFangSC-Regular, PingFang SC" font-size="3.45" font-weight="normal" fill="#2D2F33">
                                        <tspan x="13.2692308" y="4.53076923">条</tspan>
                                    </text>
                                    <g id="Drop-down" transform="translate(17.250000, 0.796154)">
                                        <rect id="矩形" x="0" y="0" width="4.24615385" height="4.24615385"></rect>
                                        <path d="M3.29603433,1.32383772 C3.36161131,1.2571823 3.4679326,1.2571823 3.53350957,1.32383772 C3.59252885,1.38382759 3.59843078,1.47736311 3.55121536,1.54406211 L3.53350957,1.56521834 L2.12307692,2.99884615 L0.712644271,1.56521834 C0.647067294,1.49856292 0.647067294,1.39049314 0.712644271,1.32383772 C0.771663551,1.26384784 0.863685722,1.25784885 0.92930558,1.30584075 L0.950119513,1.32383772 L2.12307692,2.51614762 L3.29603433,1.32383772 Z" id="形状" fill="#2D2F33" transform="translate(2.123077, 2.136346) rotate(360.000000) translate(-2.123077, -2.136346) "></path>
                                    </g>
                                </g>
                                <g id="共*条" transform="translate(0.000000, 0.530769)">
                                    <text id="共" font-family="PingFangSC-Regular, PingFang SC" font-size="3.45" font-weight="normal" fill="#2D2F33">
                                        <tspan x="0" y="4.53076923">共</tspan>
                                    </text>
                                    <text id="条" font-family="PingFangSC-Regular, PingFang SC" font-size="3.45" font-weight="normal" fill="#2D2F33">
                                        <tspan x="12.7384615" y="4.53076923">条</tspan>
                                    </text>
                                    <text id="243" font-family="PingFangSC-Semibold, PingFang SC" font-size="3.98076923" font-weight="500" line-spacing="5.83846154" fill="#2D2F33">
                                        <tspan x="4.51153846" y="4">243</tspan>
                                    </text>
                                </g>
                            </g>
                        </g>
                        <g id="编组-4" stroke="none" stroke-width="1" fill="none" fill-rule="evenodd" mask="url(#mask-6)">
                            <g transform="translate(0.000000, 0.265385)" id="Table">
                                <g id="bg" transform="translate(0.000000, 8.757692)">
                                    <polygon id="Rectangle-2" fill="#F7F8FB" points="0.264823549 8.49230769 124.997275 8.49230769 124.997275 16.4538462 0.264823549 16.4538462"></polygon>
                                    <polygon id="line" fill="#E9ECF3" points="0 16.4538462 124.996715 16.4538462 124.996715 16.7192308 0 16.7192308"></polygon>
                                    <polygon id="Rectangle-2" fill="#F7F8FB" points="0.264823549 24.9461538 124.997275 24.9461538 124.997275 32.9076923 0.264823549 32.9076923"></polygon>
                                    <polygon id="line" fill="#E9ECF3" points="0 32.9076923 124.996715 32.9076923 124.996715 33.1730769 0 33.1730769"></polygon>
                                    <polygon id="line" fill="#E9ECF3" points="0 24.6807692 124.996715 24.6807692 124.996715 24.9461538 0 24.9461538"></polygon>
                                    <polygon id="line" fill="#E9ECF3" points="0 8.22692308 124.996715 8.22692308 124.996715 8.49230769 0 8.49230769"></polygon>
                                </g>
                                <g id="设置" transform="translate(117.830769, 2.123077)" fill="#2D2F33">
                                    <rect id="矩形" fill-rule="nonzero" opacity="0" x="0" y="0" width="4.24615385" height="4.24615385"></rect>
                                    <path d="M3.83480769,2.59454928 L3.56320313,2.36233774 C3.57605769,2.28355168 3.58269231,2.20310697 3.58269231,2.12266226 C3.58269231,2.04221755 3.57605769,1.96177284 3.56320313,1.88298678 L3.83480769,1.65077524 C3.8766887,1.61511418 3.89203125,1.5570613 3.87337139,1.5048137 L3.86963942,1.49403245 C3.79458534,1.2846274 3.68345553,1.09222356 3.53915264,0.922211538 L3.5316887,0.913503606 C3.49602764,0.871622596 3.43838942,0.855865385 3.38614183,0.874110577 L3.04902043,0.993948317 C2.92462139,0.891941106 2.78570913,0.811496394 2.63560096,0.755102163 L2.5704988,0.402638221 C2.56054688,0.348317308 2.51783654,0.306021635 2.46351563,0.296069712 L2.45231971,0.293996394 C2.23628005,0.255018029 2.00904447,0.255018029 1.79300481,0.293996394 L1.78180889,0.296069712 C1.72748798,0.306021635 1.68477764,0.348317308 1.67482572,0.402638221 L1.60930889,0.756760817 C1.46044471,0.813155048 1.32236178,0.893185096 1.19879207,0.994777644 L0.859182692,0.874110577 C0.80734976,0.855865385 0.749296875,0.871207933 0.713635817,0.913503606 L0.706171875,0.922211538 C0.56186899,1.09263822 0.450739183,1.28504207 0.375685096,1.49403245 L0.371953125,1.5048137 C0.353293269,1.55664663 0.368635817,1.61469952 0.410516827,1.65077524 L0.685438702,1.88547476 C0.672584135,1.96343149 0.666364183,2.04304687 0.666364183,2.1222476 C0.666364183,2.20186298 0.672584135,2.28147837 0.685438702,2.35902043 L0.410516827,2.59371995 C0.368635817,2.62938101 0.353293269,2.68743389 0.371953125,2.73968149 L0.375685096,2.75046274 C0.450739183,2.95945312 0.56186899,3.15227163 0.706171875,3.32228365 L0.713635817,3.33099159 C0.749296875,3.3728726 0.806935096,3.38862981 0.859182692,3.37038462 L1.19879207,3.24971755 C1.32236178,3.3513101 1.46044471,3.43175481 1.60930889,3.48773437 L1.67482572,3.84185697 C1.68477764,3.89617788 1.72748798,3.93847356 1.78180889,3.94842548 L1.79300481,3.9504988 C1.90123197,3.96998798 2.01194712,3.9799399 2.12266226,3.9799399 C2.2333774,3.9799399 2.34450721,3.96998798 2.45231971,3.9504988 L2.46351563,3.94842548 C2.51783654,3.93847356 2.56054688,3.89617788 2.5704988,3.84185697 L2.63560096,3.48939303 C2.78570913,3.4329988 2.92462139,3.35296875 3.04902043,3.25054687 L3.38614183,3.37038462 C3.43797476,3.38862981 3.49602764,3.37328726 3.5316887,3.33099159 L3.53915264,3.32228365 C3.68345553,3.15185697 3.79458534,2.95945312 3.86963942,2.75046274 L3.87337139,2.73968149 C3.89203125,2.68867788 3.8766887,2.630625 3.83480769,2.59454928 L3.83480769,2.59454928 Z M3.26879207,1.93191707 C3.27915865,1.99453125 3.28454928,2.05880409 3.28454928,2.12307692 C3.28454928,2.18734976 3.27915865,2.2516226 3.26879207,2.31423678 L3.24142428,2.48051683 L3.55117788,2.74548678 C3.50432091,2.85371394 3.44502404,2.95572115 3.37453125,3.05067909 L2.98972356,2.91425481 L2.85951923,3.02123798 C2.76041466,3.10251202 2.65011418,3.16637019 2.53069111,3.21115385 L2.37270433,3.27045072 L2.29847957,3.67267428 C2.18195913,3.68594351 2.06295072,3.68594351 1.94601563,3.67267428 L1.87179087,3.26962139 L1.71504808,3.20949519 C1.59686899,3.16471154 1.48698317,3.10085337 1.38870793,3.01999399 L1.25850361,2.91259615 L0.871207933,3.05026442 C0.800715144,2.95530649 0.741832933,2.85288462 0.694561298,2.74507212 L1.00763221,2.47761418 L0.980679087,2.3117488 C0.970727163,2.24996394 0.965336538,2.18610577 0.965336538,2.12307692 C0.965336538,2.05963341 0.9703125,1.9961899 0.980679087,1.93440505 L1.00763221,1.76853966 L0.694561298,1.50108173 C0.741418269,1.39285457 0.800715144,1.29084736 0.871207933,1.19588942 L1.25850361,1.33355769 L1.38870793,1.22615986 C1.48698317,1.14530048 1.59686899,1.08144231 1.71504808,1.03665865 L1.87220553,0.977361779 L1.94643029,0.574308894 C2.06295072,0.561039663 2.18195913,0.561039663 2.29889423,0.574308894 L2.37311899,0.976532452 L2.53110577,1.03582933 C2.65011418,1.08061298 2.76082933,1.14447115 2.85993389,1.22574519 L2.99013822,1.33272837 L3.37494591,1.19630409 C3.4454387,1.29126202 3.50432091,1.39368389 3.55159255,1.50149639 L3.24183894,1.76646635 L3.26879207,1.93191707 Z M2.12307692,1.35180288 C1.72002404,1.35180288 1.39326923,1.67855769 1.39326923,2.08161058 C1.39326923,2.48466346 1.72002404,2.81141827 2.12307692,2.81141827 C2.52612981,2.81141827 2.85288462,2.48466346 2.85288462,2.08161058 C2.85288462,1.67855769 2.52612981,1.35180288 2.12307692,1.35180288 Z M2.45149038,2.41002404 C2.36358173,2.49751803 2.2470613,2.54603365 2.12307692,2.54603365 C1.99909255,2.54603365 1.88257212,2.49751803 1.79466346,2.41002404 C1.70716947,2.32211538 1.65865385,2.20559495 1.65865385,2.08161058 C1.65865385,1.9576262 1.70716947,1.84110577 1.79466346,1.75319712 C1.88257212,1.66528846 1.99909255,1.6171875 2.12307692,1.6171875 C2.2470613,1.6171875 2.36358173,1.66528846 2.45149038,1.75319712 C2.53898438,1.84110577 2.5875,1.9576262 2.5875,2.08161058 C2.5875,2.20559495 2.53898438,2.32211538 2.45149038,2.41002404 Z" id="形状"></path>
                                </g>
                                <path d="M2.12307692,0 L123.138462,0 C124.164437,-7.25641574e-15 124.996154,0.831717176 124.996154,1.85769231 L124.996154,9.02307692 L124.996154,9.02307692 L0.265384615,9.02307692 L0.265384615,1.85769231 C0.265384615,0.831717176 1.09710179,4.10513179e-16 2.12307692,0 Z" id="Rectangle-10" fill="#F1F3F7"></path>
                                <g id="1" transform="translate(13.269231, 2.123077)" font-family="PingFangSC-Medium, PingFang SC" font-size="3.45" font-weight="400">
                                    <text id="编号" fill="#5A5E66">
                                        <tspan x="0" y="4">编号</tspan>
                                    </text>
                                    <text id="*********" fill="#2A87FF">
                                        <tspan x="0" y="28.9461538">*********</tspan>
                                    </text>
                                    <text id="*********" fill="#2A87FF">
                                        <tspan x="0" y="20.7192308">*********</tspan>
                                    </text>
                                    <text id="*********" fill="#2A87FF">
                                        <tspan x="0" y="12.6038462">*********</tspan>
                                    </text>
                                    <text id="*********" fill="#2A87FF">
                                        <tspan x="0" y="37.1730769">*********</tspan>
                                    </text>
                                </g>
                                <g id="2" transform="translate(48.565385, 2.123077)" font-size="3.45">
                                    <text id="*****" font-family="PingFangSC-Regular, PingFang SC" font-weight="normal" fill="#2D2F33">
                                        <tspan x="0" y="28.9461538">*****</tspan>
                                    </text>
                                    <text id="*******" font-family="PingFangSC-Regular, PingFang SC" font-weight="normal" fill="#2D2F33">
                                        <tspan x="0" y="20.7192308">*******</tspan>
                                    </text>
                                    <text id="*****" font-family="PingFangSC-Regular, PingFang SC" font-weight="normal" fill="#2D2F33">
                                        <tspan x="0" y="12.4923077">*****</tspan>
                                    </text>
                                    <text id="名称" font-family="PingFangSC-Medium, PingFang SC" font-weight="400" fill="#5A5E66">
                                        <tspan x="0" y="4">名称</tspan>
                                    </text>
                                    <text id="*****" font-family="PingFangSC-Regular, PingFang SC" font-weight="normal" fill="#2D2F33">
                                        <tspan x="0" y="37.1730769">*****</tspan>
                                    </text>
                                </g>
                                <g id="3" transform="translate(82.269231, 2.123077)" font-size="3.45">
                                    <text id="*************" font-family="PingFangSC-Regular, PingFang SC" font-weight="normal" fill="#2D2F33">
                                        <tspan x="0" y="28.9461538">*************</tspan>
                                    </text>
                                    <text id="*************" font-family="PingFangSC-Regular, PingFang SC" font-weight="normal" fill="#2D2F33">
                                        <tspan x="0" y="20.7192308">*************</tspan>
                                    </text>
                                    <text id="发票代码" font-family="PingFangSC-Medium, PingFang SC" font-weight="400" fill="#5A5E66">
                                        <tspan x="0" y="4">发票代码</tspan>
                                    </text>
                                    <text id="*************" font-family="PingFangSC-Regular, PingFang SC" font-weight="normal" fill="#2D2F33">
                                        <tspan x="0" y="12.2269231">*************</tspan>
                                    </text>
                                    <text id="*************" font-family="PingFangSC-Regular, PingFang SC" font-weight="normal" fill="#2D2F33">
                                        <tspan x="0" y="37.1730769">*************</tspan>
                                    </text>
                                </g>
                                <g id="分割线" transform="translate(45.115385, 2.123077)" fill="#E6E9F0">
                                    <rect id="Rectangle" x="33.7038462" y="0" width="1" height="4.77692308"></rect>
                                    <rect id="Rectangle" x="0" y="0" width="1" height="4.77692308"></rect>
                                </g>
                                <g id="checkbox" transform="translate(3.184615, 2.653846)" fill="#FFFFFF" stroke="#D8DCE6" stroke-width="0.5">
                                    <rect id="矩形备份-10" x="0.25" y="33.4230769" width="3.21538462" height="3.21538462" rx="0.796153846"></rect>
                                    <rect id="矩形备份-10" x="0.25" y="25.1961538" width="3.21538462" height="3.21538462" rx="0.796153846"></rect>
                                    <rect id="矩形备份-10" x="0.25" y="16.9692308" width="3.21538462" height="3.21538462" rx="0.796153846"></rect>
                                    <rect id="矩形备份-10" x="0.25" y="8.74230769" width="3.21538462" height="3.21538462" rx="0.796153846"></rect>
                                    <rect id="矩形备份-10" x="0.25" y="0.25" width="3.21538462" height="3.21538462" rx="0.796153846"></rect>
                                </g>
                            </g>
                        </g>
                    </g>
                </g>
                <g id="编组-7" mask="url(#mask-2)">
                    <g transform="translate(83.861538, 94.000000)">
                        <g id="矩形" transform="translate(21.230769, 0.000000)">
                            <use fill="black" fill-opacity="1" filter="url(#filter-23)" xlink:href="#path-22"></use>
                            <use fill="url(#linearGradient-21)" fill-rule="evenodd" xlink:href="#path-22"></use>
                        </g>
                        <g id="矩形备份-15">
                            <use fill="black" fill-opacity="1" filter="url(#filter-25)" xlink:href="#path-24"></use>
                            <rect stroke="#E8EBF2" stroke-width="0.5" stroke-linejoin="square" fill="#FFFFFF" fill-rule="evenodd" x="0.25" y="0.25" width="18.0769231" height="7.99230769" rx="1.59230769"></rect>
                        </g>
                    </g>
                </g>
            </g>
            <text id="******" font-family="PingFangSC-Medium, PingFang SC" font-size="4.51153846" font-weight="400" fill="#2D2F33">
                <tspan x="7.43076923" y="10.3076923">******</tspan>
            </text>
        </g>
    </g>
</svg>