<?xml version="1.0" encoding="UTF-8"?>
<svg width="450px" height="75px" viewBox="0 0 450 75" version="1.1" xmlns="http://www.w3.org/2000/svg" xmlns:xlink="http://www.w3.org/1999/xlink">
    <title>画板</title>
    <g id="画板" stroke="none" stroke-width="1" fill="none" fill-rule="evenodd">
        <g id="about-logo" transform="translate(124.000000, 13.845000)"></g>
        <g id="about-logo_en" transform="translate(3.000000, 12.000000)" fill="#0D48CE" fill-rule="nonzero">
            <g transform="translate(0.000000, 14.000000)">
                <polygon id="路径" points="12.321243 0.410847951 12.321243 2.17809413 1.99269485 2.17809413 1.99269485 8.27588953 11.727998 8.27588953 11.727998 10.1386625 1.99269485 10.1386625 1.99269485 16.82554 12.7319511 16.82554 12.7319511 18.6246285 0 18.6246285 0 0.410847951"></polygon>
                <path d="M25.8593989,10.4889276 L25.8593989,18.5927862 L23.8971268,18.5927862 L23.8971268,10.6322178 C23.8971268,8.05299362 22.7866938,6.77930267 20.5962506,6.77930267 C19.7395067,6.76465593 18.916584,7.12883748 18.3297504,7.78233429 C17.6269465,8.5513381 17.225278,9.56827433 17.204106,10.6322178 L17.204106,18.5927862 L15.2114111,18.5927862 L15.2114111,5.3623215 L17.1584717,5.3623215 L17.1584717,7.30470019 C18.0082834,5.87288702 19.5029884,5.00040861 21.1134386,4.99613535 C24.3382578,5.0598199 25.8593989,6.95443518 25.8593989,10.4889276 Z" id="路径"></path>
                <path d="M32.2177687,5.3623215 L35.336108,5.3623215 L35.336108,7.06588314 L32.2177687,7.06588314 L32.2177687,15.4563222 C32.1757843,15.8255189 32.274122,16.1971955 32.4915741,16.4911961 C32.7402824,16.737573 33.0785662,16.8594651 33.4194702,16.82554 L34.9862455,16.82554 L34.9862455,18.5291017 L33.1304534,18.5291017 C32.308746,18.6179164 31.4926502,18.3136904 30.9095874,17.7012025 C30.460637,17.0511948 30.2451735,16.2562492 30.3011309,15.4563222 L30.3011309,7.12956768 L27.7760367,7.12956768 L27.7760367,5.3623215 L30.3011309,5.3623215 L30.3011309,2.00296163 L32.2177687,1.17506252 L32.2177687,5.3623215 Z" id="路径"></path>
                <path d="M47.2618543,7.20917337 C48.2993802,8.78968936 48.8318972,10.6735763 48.7829954,12.5905176 L38.7890983,12.5905176 C38.8065895,13.8379793 39.2124857,15.0454029 39.9451655,16.0294832 C40.6588367,16.8610026 41.6926835,17.3113832 42.7592766,17.2554107 C43.6536371,17.3195547 44.5413345,17.0548977 45.2691594,16.5071173 C45.8638496,15.958312 46.3009876,15.2472053 46.5317066,14.4532906 L48.4787672,14.4532906 C48.2462483,15.6763168 47.649881,16.7909461 46.7750891,17.637518 C45.6644561,18.6464817 44.2288842,19.1757897 42.7592766,19.1181837 C41.1245399,19.184294 39.5428395,18.5046684 38.4240244,17.2554107 C37.2722059,15.8406462 36.6840355,14.016608 36.781192,12.1606469 C36.6954655,10.3957227 37.237373,8.66011672 38.3023332,7.28877905 C39.3475227,5.92119188 40.9503272,5.15328216 42.6223739,5.21903126 C44.3884061,5.0367264 46.126007,5.78208415 47.2618543,7.20917337 L47.2618543,7.20917337 Z M40.036434,7.92562452 C39.3196039,8.78577582 38.9014941,9.87420991 38.849944,11.0143251 L46.7142435,11.0143251 C46.4708609,8.18036271 45.1931024,6.77930267 42.7440652,6.77930267 C41.7257093,6.73422524 40.7384659,7.15219151 40.036434,7.92562452 Z" id="形状"></path>
                <path d="M58.2749159,5.3623215 L58.2749159,7.40022701 C57.6635059,7.20605052 57.0276251,7.10943851 56.3887009,7.11364655 C55.4069203,7.1052177 54.4867873,7.61366758 53.9396638,8.46694318 C53.2483508,9.36648577 52.8917063,10.4976516 52.9357106,11.6511705 L52.9357106,18.6246285 L51.0190728,18.6246285 L51.0190728,5.3623215 L52.9357106,5.3623215 L52.9357106,7.6549652 C53.2294048,6.95074848 53.6775888,6.32892466 54.243892,5.8399556 C54.8909903,5.28488341 55.7042191,4.98612769 56.5408151,4.99613535 C57.136136,4.9986395 57.7252367,5.12303856 58.2749159,5.3623215 L58.2749159,5.3623215 Z" id="路径"></path>
                <path d="M70.2006622,7.17733109 C72.0952473,10.1051583 72.0952473,13.9454763 70.2006622,16.8733034 C69.2049759,18.2459011 67.6324881,19.0242664 65.9871014,18.9589724 C64.2082751,18.966461 62.5874143,17.8913984 61.8343861,16.2046157 L61.8343861,23.6397866 L59.9025369,23.6397866 L59.9025369,5.3623215 L61.7279062,5.3623215 L61.7279062,7.59128065 C62.5263639,5.96090481 64.1627022,4.97066107 65.9110443,5.0598199 C67.5846051,4.99471708 69.1841434,5.78430729 70.2006622,7.17733109 Z M62.716648,8.30773181 C62.0486705,9.37944522 61.7188086,10.6435147 61.7735405,11.9218299 L61.7735405,12.1765681 C61.7035586,13.5004102 62.0804648,14.8078682 62.8383393,15.8702718 C63.4794523,16.783609 64.5093432,17.3076919 65.5916047,17.2713319 C66.7756703,17.3263346 67.9110201,16.7737646 68.6338869,15.7906661 C69.3263353,14.6823748 69.6621202,13.3714042 69.5922058,12.049199 C69.6459097,10.7423886 69.333996,9.44758869 68.6947325,8.32365294 C68.0119407,7.27798825 66.8613667,6.67585983 65.6524503,6.73153926 C64.4778667,6.68358091 63.3646605,7.28124628 62.716648,8.30773181 Z" id="形状"></path>
                <path d="M81.4114722,5.3623215 L81.4114722,7.40022701 C80.8052421,7.20620568 80.1743951,7.10957925 79.5404686,7.11364655 C78.554646,7.10560263 77.6300969,7.61333923 77.07622,8.46694318 C76.390357,9.36871716 76.0391844,10.499663 76.0874783,11.6511705 L76.0874783,18.6246285 L74.1556291,18.6246285 L74.1556291,5.3623215 L76.0570555,5.3623215 L76.0570555,7.6549652 C76.3507497,6.95074848 76.7989337,6.32892466 77.3652369,5.8399556 C78.0063598,5.28478857 78.814912,4.98577061 79.6469485,4.99613535 C80.2528697,4.99050331 80.8534436,5.11513857 81.4114722,5.3623215 L81.4114722,5.3623215 Z" id="路径"></path>
                <path d="M85.7010901,0.888482056 C85.9939446,1.15529373 86.1513931,1.54962381 86.1270097,1.95519822 C86.1355752,2.3671384 85.9814952,2.76455113 85.7010901,3.05375666 C85.4167242,3.33242744 85.0410483,3.48628986 84.6515028,3.48362735 C84.2619572,3.48628986 83.8862813,3.33242744 83.6019154,3.05375666 C83.3255358,2.76292439 83.1768124,2.36512057 83.1912073,1.95519822 C83.1606626,1.55188127 83.312724,1.15693833 83.6019154,0.888482056 C83.879783,0.599207245 84.2598538,0.443544881 84.6515028,0.458611362 C85.0428407,0.445449651 85.4222158,0.600827106 85.7010901,0.888482056 L85.7010901,0.888482056 Z M85.6250331,5.3623215 L85.6250331,18.5291017 L83.6627611,18.5291017 L83.6627611,5.3623215 L85.6250331,5.3623215 Z" id="形状"></path>
                <path d="M98.8741722,9.1674732 L96.9879572,9.1674732 C96.8878745,8.46659008 96.5405357,7.83038705 96.0144269,7.38430587 C95.3214852,6.93860057 94.5141053,6.72733802 93.7022924,6.77930267 C92.9887481,6.72295271 92.2761876,6.90105581 91.6639633,7.28877905 C91.1638408,7.54242158 90.8494362,8.07639064 90.8577585,8.65799682 C90.8577585,9.21523661 91.1924095,9.70879185 91.9225573,10.0908991 C92.7738067,10.4429113 93.6481938,10.7302364 94.53892,10.9506405 C95.6664433,11.1879733 96.7535105,11.6012262 97.7637391,12.1765681 C98.7061953,12.7190101 99.289804,13.7574356 99.2849417,14.8831613 C99.2849417,17.5738335 97.5051452,18.9589724 93.945675,18.9589724 C90.6295873,18.9589724 88.8295704,17.4358502 88.545624,14.3896061 L90.4470504,14.3896061 C90.5055967,15.2486135 90.8756401,16.0517097 91.4814264,16.6344864 C92.2060187,17.1004358 93.0516929,17.3175434 93.9000407,17.2554107 C96.1361182,17.2554107 97.353031,16.5071173 97.353031,15.0105304 C97.3017114,14.2306023 96.801588,13.5620899 96.0904839,13.3228899 C95.2175441,12.9821509 94.3229732,12.7055141 93.4132756,12.4949908 C92.3469766,12.2696526 91.3206279,11.8721854 90.3709933,11.3168267 C89.4605837,10.8159399 88.9048197,9.81344535 88.9411207,8.7376025 C88.9237103,7.65840536 89.4570063,6.65125784 90.3405705,6.09469379 C91.3661258,5.38470217 92.5804298,5.03351581 93.8087723,5.09166217 C96.8510545,5.0598199 98.5547325,6.41311653 98.8741722,9.1674732 Z" id="路径"></path>
                <path d="M111.332318,7.20917337 C112.355903,8.79660768 112.887068,10.6757107 112.853459,12.5905176 L102.859562,12.5905176 C102.865936,13.8373643 103.26716,15.0468027 104.000418,16.0294832 C104.716648,16.8572164 105.748699,17.306815 106.814529,17.2554107 C107.708889,17.3195547 108.596587,17.0548977 109.324412,16.5071173 C109.919327,15.9554876 110.3608,15.2458772 110.60217,14.4532906 L112.564442,14.4532906 C112.325131,15.6736819 111.72986,16.7862616 110.860764,17.637518 C109.742388,18.643335 108.30338,19.1719077 106.82974,19.1181837 C105.199149,19.1860138 103.621459,18.5057243 102.509699,17.2554107 C100.348625,14.3182008 100.348625,10.225989 102.509699,7.28877905 C103.561185,5.92070355 105.168598,5.15328803 106.844952,5.21903126 C108.557959,5.09804634 110.223854,5.8368687 111.332318,7.20917337 L111.332318,7.20917337 Z M104.091686,7.92562452 C103.374856,8.78577582 102.956746,9.87420991 102.905196,11.0143251 L110.769496,11.0143251 C110.526113,8.18036271 109.248355,6.77930267 106.799317,6.77930267 C105.780961,6.73422524 104.793718,7.15219151 104.091686,7.92562452 L104.091686,7.92562452 Z" id="形状"></path>
                <path d="M129.646857,0.410847951 C131.978259,0.226135652 134.266291,1.14316335 135.883535,2.91046643 C137.285269,4.78201502 137.9785,7.12879906 137.830596,9.50181707 C137.963834,11.9041626 137.212623,14.2686415 135.731421,16.1090889 C134.078737,17.8484715 131.787765,18.7542017 129.449108,18.5927862 L123.364544,18.5927862 L123.364544,0.410847951 L129.646857,0.410847951 Z M125.418085,16.7936977 L129.114457,16.7936977 C130.994457,16.9452979 132.84888,16.2636562 134.225492,14.9150036 C135.402483,13.3971304 135.984304,11.4677841 135.853113,9.51773821 C135.998329,7.57413459 135.45707,5.64232667 134.331971,4.08863055 C133.000862,2.7125622 131.161384,2.01456681 129.296994,2.17809413 L125.418085,2.17809413 L125.418085,16.7936977 Z" id="形状"></path>
                <path d="M142.987264,0.888482056 C143.280119,1.15529373 143.437567,1.54962381 143.413184,1.95519822 C143.421749,2.3671384 143.267669,2.76455113 142.987264,3.05375666 C142.702898,3.33242744 142.327223,3.48628986 141.937677,3.48362735 C141.548131,3.48628986 141.172456,3.33242744 140.88809,3.05375666 C140.61171,2.76292439 140.462987,2.36512057 140.477382,1.95519822 C140.446837,1.55188127 140.598898,1.15693833 140.88809,0.888482056 C141.163855,0.595850676 141.545395,0.439586423 141.937677,0.458611362 C142.329015,0.445449651 142.70839,0.600827106 142.987264,0.888482056 Z M142.987264,5.3623215 L142.987264,18.5291017 L140.994569,18.5291017 L140.994569,5.3623215 L142.987264,5.3623215 Z" id="形状"></path>
                <path d="M156.008232,7.68680747 L156.008232,5.3623215 L157.955293,5.3623215 L157.955293,17.6215969 C157.955293,21.824777 156.038655,23.9900516 152.205379,23.9900516 C150.82637,24.0688566 149.460091,23.677834 148.311258,22.875572 C147.374438,22.086381 146.773112,20.9420496 146.638003,19.6913446 L148.585064,19.6913446 C148.667912,20.4694899 149.052984,21.1776855 149.649862,21.6496445 C150.41442,22.1455573 151.307802,22.3793237 152.205379,22.3183322 C154.745685,22.3183322 156.008232,20.8376665 156.008232,17.9240985 L156.008232,15.6473759 C155.212856,17.3172443 153.561262,18.3494614 151.77946,18.2902846 C150.168139,18.382215 148.606854,17.6885909 147.550688,16.4115905 C145.522266,13.6166644 145.522266,9.7493612 147.550688,6.95443518 C148.56851,5.65376182 150.114054,4.93349168 151.718614,5.01205649 C153.529035,4.93320062 155.212525,5.98292493 156.008232,7.68680747 L156.008232,7.68680747 Z M149.071829,8.18036271 C148.357269,9.20654943 148.012432,10.4641525 148.098298,11.7307762 C148.066327,12.9363458 148.407841,14.1203913 149.071829,15.1060572 C149.784378,16.1025532 150.926907,16.6586169 152.114111,16.586723 C153.278601,16.6630491 154.408261,16.1546313 155.156393,15.2175052 C155.877645,14.2101975 156.243168,12.9724482 156.190769,11.7148551 C156.255539,10.4458143 155.889115,9.19372952 155.156393,8.18036271 C154.425161,7.2717641 153.348015,6.74735051 152.212985,6.74735051 C151.077956,6.74735051 150.00081,7.2717641 149.269577,8.18036271 L149.071829,8.18036271 Z" id="形状"></path>
                <path d="M163.629149,0.888482056 C163.925729,1.15364313 164.088563,1.54739488 164.07028,1.95519822 C164.074869,2.36951025 163.915145,2.7672729 163.629149,3.05375666 C163.041535,3.64005918 162.117588,3.64005918 161.529974,3.05375666 C161.253595,2.76292439 161.104872,2.36512057 161.119266,1.95519822 C161.088722,1.55188127 161.240783,1.15693833 161.529974,0.888482056 C162.117588,0.302179542 163.041535,0.302179542 163.629149,0.888482056 L163.629149,0.888482056 Z M163.629149,5.42600604 L163.629149,18.5927862 L161.682089,18.5927862 L161.682089,5.3623215 L163.629149,5.42600604 Z" id="形状"></path>
                <path d="M170.565553,5.3623215 L173.683892,5.3623215 L173.683892,7.06588314 L170.565553,7.06588314 L170.565553,15.4563222 C170.519261,15.8233933 170.612081,16.1948479 170.824147,16.4911961 C171.074898,16.734021 171.411617,16.8553495 171.752043,16.82554 L173.410087,16.82554 L173.410087,18.5291017 L171.50866,18.5291017 C170.687487,18.6133136 169.873222,18.3097705 169.287794,17.7012025 C168.838843,17.0511948 168.623381,16.2562492 168.679338,15.4563222 L168.679338,7.12956768 L166.108609,7.12956768 L166.108609,5.3623215 L168.633703,5.3623215 L168.633703,2.00296163 L170.565553,1.17506252 L170.565553,5.3623215 Z" id="路径"></path>
                <path d="M185.30541,6.54048562 C186.092237,7.55325849 186.493195,8.83493941 186.431054,10.1386625 L186.431054,18.5927862 L184.605685,18.5927862 L184.605685,16.3797482 C184.093115,17.0912248 183.439204,17.6778719 182.689047,18.099231 C181.721457,18.6428894 180.638429,18.9221721 179.540285,18.9112089 C178.442873,18.9796071 177.359839,18.6225337 176.498003,17.9081773 C175.734649,17.267012 175.30137,16.2893502 175.326724,15.2652686 C175.256327,13.8891231 175.917491,12.5847112 177.045614,11.8740665 C178.373978,11.0715784 179.894411,10.6847865 181.4265,10.7595869 L184.468782,10.7595869 L184.468782,10.1386625 C184.468782,7.92562452 183.373561,6.82706608 181.183118,6.82706608 C180.388189,6.78016662 179.598242,6.98548004 178.916617,7.41614815 C178.267735,7.83500681 177.811374,8.51407918 177.65407,9.29484229 L175.722221,9.15155206 C175.924265,7.8799343 176.631804,6.75753757 177.669282,6.06285152 C178.774182,5.40369806 180.034148,5.08366591 181.304809,5.13942558 C182.768208,4.98804163 184.223742,5.49778805 185.30541,6.54048562 L185.30541,6.54048562 Z M181.593826,12.3357794 C178.764503,12.3357794 177.349842,13.3547322 177.349842,15.2652686 C177.332375,15.8545249 177.594299,16.4147315 178.049567,16.7618555 C178.605739,17.1684737 179.272969,17.3751888 179.950993,17.3509375 C181.11376,17.3631804 182.240102,16.9267622 183.114967,16.12501 C183.951655,15.4903253 184.457848,14.4836864 184.483994,13.4024956 L184.483994,12.2720949 L181.593826,12.3357794 Z" id="形状"></path>
                <polygon id="路径" points="191.755048 0.0446618049 191.755048 18.5927862 189.838411 18.5927862 189.838411 0.0446618049"></polygon>
                <path d="M197.824401,0.888482056 C198.117256,1.15529373 198.274705,1.54962381 198.250321,1.95519822 C198.258886,2.3671384 198.104807,2.76455113 197.824401,3.05375666 C197.540035,3.33242744 197.16436,3.48628986 196.774814,3.48362735 C196.385268,3.48628986 196.009593,3.33242744 195.725227,3.05375666 C195.448847,2.76292439 195.300124,2.36512057 195.314519,1.95519822 C195.283974,1.55188127 195.436035,1.15693833 195.725227,0.888482056 C196.003095,0.599207245 196.383164,0.443544881 196.774814,0.458611362 C197.166152,0.445449651 197.545528,0.600827106 197.824401,0.888482056 L197.824401,0.888482056 Z M197.748344,5.3623215 L197.748344,18.5291017 L195.801284,18.5291017 L195.801284,5.3623215 L197.748344,5.3623215 Z" id="形状"></path>
                <polygon id="路径" points="210.738889 5.3623215 210.738889 6.79522381 203.026704 16.82554 211.134386 16.82554 211.134386 18.5291017 200.486398 18.5291017 200.486398 17.0643571 208.168161 7.06588314 200.790627 7.06588314 200.790627 5.3623215"></polygon>
                <path d="M222.725481,6.54048562 C223.506857,7.55553876 223.902324,8.83699063 223.835914,10.1386625 L223.835914,18.5927862 L222.086602,18.5927862 L222.086602,16.3797482 C221.55216,17.1002228 220.871551,17.6875148 220.093907,18.099231 C219.126317,18.6428894 218.043289,18.9221721 216.945145,18.9112089 C215.847733,18.9796071 214.764699,18.6225337 213.902863,17.9081773 C213.145131,17.2624198 212.713212,16.2878235 212.731584,15.2652686 C212.681174,13.8984669 213.353463,12.6135274 214.480897,11.9218299 C215.807967,11.1159667 217.329363,10.7289298 218.861783,10.8073503 L221.904065,10.8073503 L221.904065,10.1386625 C221.904065,7.92562452 220.808844,6.82706608 218.6184,6.82706608 C217.82365,6.78214461 217.034252,6.98731564 216.3519,7.41614815 C215.703018,7.83500681 215.246657,8.51407918 215.089353,9.29484229 L213.172715,9.15155206 C213.363539,7.87535743 214.073863,6.74854144 215.119776,6.06285152 C216.218388,5.40173632 217.474052,5.08145699 218.740092,5.13942558 C220.197943,4.99677256 221.645491,5.50565704 222.725481,6.54048562 L222.725481,6.54048562 Z M219.04432,12.3357794 C216.214997,12.3357794 214.800336,13.3547322 214.800336,15.2652686 C214.789023,15.8568283 215.056334,16.416392 215.515272,16.7618555 C216.064269,17.1715638 216.727753,17.3787753 217.401487,17.3509375 C218.56825,17.3596954 219.698223,16.9239653 220.580672,16.12501 C221.408019,15.4837683 221.907336,14.4796447 221.934488,13.4024956 L221.934488,12.2720949 L219.04432,12.3357794 Z" id="形状"></path>
                <path d="M230.209496,5.3623215 L233.251778,5.3623215 L233.251778,7.06588314 L230.209496,7.06588314 L230.209496,15.4563222 C230.167511,15.8255189 230.265849,16.1971955 230.483301,16.4911961 C230.732009,16.737573 231.070293,16.8594651 231.411197,16.82554 L233.008395,16.82554 L233.008395,18.5291017 L231.12218,18.5291017 C230.300474,18.6179164 229.484377,18.3136904 228.901314,17.7012025 C228.452363,17.0511948 228.236901,16.2562492 228.292858,15.4563222 L228.292858,7.12956768 L225.752552,7.12956768 L225.752552,5.3623215 L228.292858,5.3623215 L228.292858,2.00296163 L230.209496,1.17506252 L230.209496,5.3623215 Z" id="路径"></path>
                <path d="M238.149852,0.888482056 C238.446432,1.15364313 238.609266,1.54739488 238.590983,1.95519822 C238.595572,2.36951025 238.435848,2.7672729 238.149852,3.05375666 C237.562238,3.64005918 236.638291,3.64005918 236.050677,3.05375666 C235.774298,2.76292439 235.625575,2.36512057 235.639969,1.95519822 C235.609425,1.55188127 235.761486,1.15693833 236.050677,0.888482056 C236.638291,0.302179542 237.562238,0.302179542 238.149852,0.888482056 L238.149852,0.888482056 Z M238.073795,5.3623215 L238.073795,18.5291017 L236.126735,18.5291017 L236.126735,5.3623215 L238.073795,5.3623215 Z" id="形状"></path>
                <path d="M251.855334,7.11364655 C253.991969,9.98847531 253.991969,14.0143958 251.855334,16.8892246 C250.719519,18.2773488 249.0363,19.0407753 247.29191,18.9589724 C245.544089,19.0605884 243.852837,18.2935188 242.728487,16.8892246 C241.624175,15.5356508 241.04837,13.7958666 241.116077,12.0173567 C241.049643,10.2293942 241.624828,8.48012615 242.728487,7.11364655 C243.854413,5.71320353 245.546247,4.9517719 247.29191,5.0598199 C249.035871,4.96185327 250.723586,5.72143137 251.855334,7.11364655 Z M244.249628,8.38733749 C242.911698,10.6047695 242.911698,13.4299439 244.249628,15.6473759 C244.962591,16.6987911 246.137423,17.2986185 247.367967,17.2394896 C248.59919,17.2809801 249.771052,16.6855733 250.501518,15.6473759 C251.189316,14.5763906 251.540311,13.3072863 251.505471,12.0173567 C251.547592,10.7264673 251.19596,9.4550636 250.501518,8.38733749 C249.774562,7.34473527 248.600326,6.74812251 247.367967,6.79522381 C246.130951,6.72445961 244.946492,7.32626728 244.234417,8.38733749 L244.249628,8.38733749 Z" id="形状"></path>
                <path d="M266.57998,10.4889276 L266.57998,18.5927862 L264.678553,18.5927862 L264.678553,10.6322178 C264.678553,8.05299362 263.552909,6.77930267 261.362466,6.77930267 C260.505722,6.76465593 259.682799,7.12883748 259.095965,7.78233429 C258.390957,8.54851896 257.993524,9.56851248 257.985532,10.6322178 L257.985532,18.5927862 L256.038472,18.5927862 L256.038472,5.3623215 L257.985532,5.3623215 L257.985532,7.30470019 C258.383054,6.59070214 258.962368,6.00640787 259.658787,5.61705968 C260.347294,5.20078072 261.130218,4.9862929 261.925288,4.99613535 C264.997993,5.0598199 266.57998,6.95443518 266.57998,10.4889276 Z" id="路径"></path>
                <path d="M290.309781,1.65269662 C291.613767,2.70685564 292.453546,4.26945437 292.637127,5.98324583 L290.720489,5.98324583 C290.509292,4.74881081 289.842721,3.65083388 288.864697,2.92638756 C287.843027,2.21897816 286.635959,1.86278121 285.411706,1.90743481 C283.60437,1.80924196 281.863695,2.63413714 280.741803,4.12047282 C279.661816,5.70963312 279.125849,7.63377445 279.220662,9.58142275 C279.117748,11.5102962 279.65515,13.417092 280.741803,14.9786881 C281.880948,16.4224641 283.610789,17.2094032 285.396495,17.0961993 C288.152453,17.2289988 290.563233,15.1719929 290.994294,12.3198583 L292.910932,12.3198583 C292.288437,15.3827365 290.07392,17.8193871 287.182322,18.6230943 C284.290724,19.4268016 281.212975,18.4611138 279.220662,16.12501 C277.849665,14.2428776 277.159864,11.9133425 277.273602,9.54958048 C277.173164,7.15549911 277.87834,4.80040449 279.266296,2.89454529 C280.78222,0.941165644 283.102508,-0.130948435 285.502975,0.0128195313 C287.235243,-0.017672156 288.927412,0.559623723 290.309781,1.65269662 L290.309781,1.65269662 Z" id="路径"></path>
                <polygon id="路径" points="297.732949 0.0446618049 297.732949 18.5927862 295.8011 18.5927862 295.8011 0.0446618049"></polygon>
                <path d="M311.255894,7.11364655 C313.39253,9.98847531 313.39253,14.0143958 311.255894,16.8892246 C310.120079,18.2773488 308.43686,19.0407753 306.692471,18.9589724 C304.945083,19.0580533 303.254868,18.2914543 302.129047,16.8892246 C301.029983,15.5325112 300.45491,13.7949356 300.516638,12.0173567 C300.457534,10.230533 301.031835,8.48394985 302.129047,7.11364655 C303.282221,5.78573306 304.917141,5.02865822 306.631625,5.02865822 C308.346109,5.02865822 309.981029,5.78573306 311.134203,7.11364655 L311.255894,7.11364655 Z M303.650188,8.38733749 C302.330512,10.6102595 302.330512,13.4244539 303.650188,15.6473759 C304.348134,16.6746923 305.488486,17.2714715 306.692471,17.2394896 C307.927878,17.280746 309.104228,16.6859464 309.841233,15.6473759 C310.524595,14.5749794 310.87032,13.3056998 310.829974,12.0173567 C310.876565,10.7282174 310.530302,9.45696379 309.841233,8.38733749 C309.107688,7.34439685 307.928997,6.74841368 306.692471,6.79522381 C305.481953,6.75208501 304.332267,7.35075505 303.634977,8.38733749 L303.650188,8.38733749 Z" id="形状"></path>
                <path d="M317.340458,5.3623215 L317.340458,13.4821013 C317.264021,14.4814552 317.534019,15.476194 318.101029,16.2842214 C319.425193,17.5903515 321.492402,17.5903515 322.816566,16.2842214 C323.515284,15.5381896 323.954521,14.5682686 324.063902,13.5298647 L324.063902,5.3623215 L326.010963,5.3623215 L326.010963,18.5291017 L324.003056,18.5291017 L324.003056,16.5071173 C323.141689,18.0099255 321.585513,18.9242238 319.911187,18.9112089 C316.868905,18.9112089 315.347764,17.0961993 315.347764,13.5298647 L315.347764,5.3623215 L317.340458,5.3623215 Z" id="路径"></path>
                <path d="M340.279266,0.0446618049 L340.279266,18.5927862 L338.453897,18.5927862 L338.453897,16.5071173 C337.653141,18.1429453 336.009273,19.1341416 334.255548,19.038578 C332.582633,19.1137296 330.978476,18.3365231 329.950718,16.9529091 C328.964199,15.5321453 328.465648,13.8039902 328.536057,12.049199 C328.477718,10.3354174 328.976436,8.6515916 329.950718,7.27285791 C330.927619,5.87277013 332.509522,5.07778961 334.164279,5.15534672 C335.955651,5.14734096 337.585811,6.23707956 338.332206,7.94154566 L338.332206,0.140188626 L340.279266,0.0446618049 Z M331.456648,8.27588953 C330.779412,9.37227676 330.454327,10.6663496 330.528752,11.9695933 C330.462407,13.2898957 330.780676,14.6001612 331.441436,15.7269816 C332.122228,16.7750425 333.274171,17.3778872 334.483719,17.3190953 C335.663925,17.3567062 336.779305,16.7549427 337.434732,15.7269816 C338.091497,14.6566031 338.415628,13.3996951 338.362629,12.1288046 L338.362629,11.8899876 C338.418106,10.5605568 338.048794,9.24967512 337.313041,8.16444158 C336.676848,7.24125334 335.647019,6.70529168 334.559776,6.73153926 C333.34134,6.65812563 332.171321,7.24041529 331.456648,8.27588953 L331.456648,8.27588953 Z" id="形状"></path>
                <path d="M358.745919,0.410847951 C362.731309,0.410847951 364.739215,2.19401527 364.739215,5.76034992 C364.739215,9.32668456 362.716098,11.1576153 358.654651,11.1576153 L353.57404,11.1576153 L353.57404,18.5927862 L351.581345,18.5927862 L351.581345,0.410847951 L358.745919,0.410847951 Z M353.634885,9.3426057 L358.624228,9.3426057 C359.730845,9.43111638 360.832631,9.11609788 361.742567,8.45102204 C362.447405,7.75920956 362.811568,6.76821113 362.731309,5.76034992 C362.813195,4.75513217 362.435108,3.7687681 361.712145,3.10152007 C360.827812,2.44341454 359.752124,2.12816908 358.669862,2.20993641 L353.680519,2.20993641 L353.634885,9.3426057 Z" id="形状"></path>
                <polygon id="路径" points="369.333062 0.0446618049 369.333062 18.5927862 367.401212 18.5927862 367.401212 0.0446618049"></polygon>
                <path d="M382.201915,6.54048562 C382.988742,7.55325849 383.3897,8.83493941 383.32756,10.1386625 L383.32756,18.5927862 L381.50219,18.5927862 L381.50219,16.3797482 C380.987413,17.0951476 380.327672,17.6823643 379.570341,18.099231 C378.608962,18.6448515 377.530337,18.9243487 376.436791,18.9112089 C375.340437,18.9707663 374.260317,18.6146536 373.394508,17.9081773 C372.640608,17.260754 372.214069,16.2856342 372.238441,15.2652686 C372.161109,13.8875316 372.824061,12.5795935 373.95733,11.8740665 C375.285694,11.0715784 376.806128,10.6847865 378.338217,10.7595869 L381.380499,10.7595869 L381.380499,10.1386625 C381.380499,7.92562452 380.285278,6.82706608 378.094834,6.82706608 C377.299906,6.78016662 376.509959,6.98548004 375.828334,7.41614815 C375.179452,7.83500681 374.723091,8.51407918 374.565787,9.29484229 L372.679572,9.07194637 C372.881616,7.80032862 373.589155,6.67793189 374.626633,5.98324583 C375.731533,5.32409238 376.991499,5.00406022 378.26216,5.0598199 C379.716356,4.94818655 381.147731,5.48613588 382.201915,6.54048562 L382.201915,6.54048562 Z M378.47512,12.3357794 C375.661009,12.3357794 374.246347,13.3547322 374.246347,15.2652686 C374.22888,15.8545249 374.490804,16.4147315 374.946072,16.7618555 C375.499235,17.1749703 376.168619,17.3823525 376.847499,17.3509375 C378.009769,17.3602095 379.135137,16.9241697 380.011472,16.12501 C380.842786,15.4854665 381.347484,14.4818001 381.380499,13.4024956 L381.380499,12.2720949 L378.47512,12.3357794 Z" id="形状"></path>
                <path d="M389.701141,5.3623215 L392.81948,5.3623215 L392.81948,7.06588314 L389.701141,7.06588314 L389.701141,15.4563222 C389.659156,15.8255189 389.757495,16.1971955 389.974946,16.4911961 C390.218972,16.7350171 390.551596,16.8568668 390.887631,16.82554 L392.454406,16.82554 L392.454406,18.5291017 L390.55298,18.5291017 C389.735837,18.617641 388.924477,18.313095 388.347325,17.7012025 C387.885598,17.0571524 387.663883,16.25909 387.723658,15.4563222 L387.723658,7.12956768 L385.198563,7.12956768 L385.198563,5.3623215 L387.723658,5.3623215 L387.723658,2.00296163 L389.655507,1.17506252 L389.701141,5.3623215 Z" id="路径"></path>
                <path d="M402.433092,0.410847951 L402.433092,2.17809413 L400.25786,2.17809413 C399.821676,2.13589253 399.389283,2.29255071 399.07137,2.60796483 C398.794305,3.00860949 398.664675,3.50044378 398.706296,3.99310373 L398.706296,5.3623215 L402.265767,5.3623215 L402.265767,7.06588314 L398.706296,7.06588314 L398.706296,18.5291017 L396.759236,18.5291017 L396.759236,7.06588314 L393.595262,7.06588314 L393.595262,5.3623215 L396.759236,5.3623215 L396.759236,3.8498135 C396.696813,2.91783581 396.986295,1.99743438 397.565441,1.28651048 C398.215841,0.621171548 399.107341,0.279229582 400.014478,0.347163404 L402.433092,0.410847951 Z" id="路径"></path>
                <path d="M414.191513,7.11364655 C416.328149,9.98847531 416.328149,14.0143958 414.191513,16.8892246 C413.055698,18.2773488 411.372479,19.0407753 409.62809,18.9589724 C407.881564,19.0530341 406.193397,18.2873631 405.064666,16.8892246 C403.971081,15.5301785 403.401513,13.792848 403.467468,12.0173567 C403.404122,10.2325982 403.972928,8.4862536 405.064666,7.11364655 C406.230122,5.80266562 407.86396,5.05799522 409.57485,5.05799522 C411.285739,5.05799522 412.919577,5.80266562 414.085033,7.11364655 L414.191513,7.11364655 Z M406.585807,8.38733749 C405.247877,10.6047695 405.247877,13.4299439 406.585807,15.6473759 C407.298771,16.6987911 408.473603,17.2986185 409.704147,17.2394896 C410.935369,17.2809801 412.107232,16.6855733 412.837697,15.6473759 C413.525495,14.5763906 413.876491,13.3072863 413.84165,12.0173567 C413.883771,10.7264673 413.532139,9.4550636 412.837697,8.38733749 C412.110741,7.34473527 410.936505,6.74812251 409.704147,6.79522381 C408.46713,6.72445961 407.282671,7.32626728 406.570596,8.38733749 L406.585807,8.38733749 Z" id="形状"></path>
                <path d="M425.569648,5.3623215 L425.569648,7.40022701 C424.963681,7.20498832 424.332653,7.10833439 423.698645,7.11364655 C422.716696,7.12205076 421.799003,7.62602239 421.234396,8.46694318 C420.548533,9.36871716 420.19736,10.499663 420.245654,11.6511705 L420.245654,18.6246285 L418.313805,18.6246285 L418.313805,5.3623215 L420.245654,5.3623215 L420.245654,7.6549652 C420.539349,6.95074848 420.987533,6.32892466 421.553836,5.8399556 C422.200934,5.28488341 423.014163,4.98612769 423.850759,4.99613535 C424.441534,4.99477661 425.026383,5.11937092 425.569648,5.3623215 L425.569648,5.3623215 Z" id="路径"></path>
                <path d="M436.643556,7.55943838 C437.060067,6.77887443 437.669539,6.12996659 438.408079,5.68074423 C439.068954,5.25123385 439.836172,5.03525062 440.613734,5.0598199 C441.805332,5.0131517 442.962043,5.48589364 443.80813,6.36535312 C444.628781,7.36175571 445.053396,8.64944723 444.99462,9.96353004 L444.99462,18.5927862 L443.04756,18.5927862 L443.04756,10.2978739 C443.11222,9.36875972 442.86472,8.44519463 442.347835,7.68680747 C441.735848,7.03433978 440.874739,6.70659969 440.005277,6.79522381 C439.210531,6.77316195 438.449314,7.13051981 437.936526,7.76641316 C437.345675,8.47916266 437.040516,9.40313248 437.084687,10.3456373 L437.084687,18.5927862 L435.137626,18.5927862 L435.137626,10.2978739 C435.137626,7.94154566 434.164096,6.79522381 432.247458,6.79522381 C431.376538,6.7761642 430.550047,7.19684085 430.026592,7.92562452 C429.436432,8.6657051 429.122938,9.6048081 429.14433,10.5685332 L429.14433,18.5291017 L427.197269,18.5291017 L427.197269,5.3623215 L429.14433,5.3623215 L429.14433,7.11364655 C429.905582,5.81585536 431.248956,5.01668836 432.7038,4.99613535 C434.413062,4.84931769 436.012872,5.89019444 436.643556,7.55943838 Z" id="路径"></path>
            </g>
        </g>
        <g id="about-logo_cht" transform="translate(60.000000, 14.000000)"></g>
    </g>
</svg>