<?xml version="1.0" encoding="UTF-8"?>
<svg width="450px" height="75px" viewBox="0 0 450 75" version="1.1" xmlns="http://www.w3.org/2000/svg" xmlns:xlink="http://www.w3.org/1999/xlink">
    <title>画板</title>
    <g id="画板" stroke="none" stroke-width="1" fill="none" fill-rule="evenodd">
        <g id="about-logo" transform="translate(124.000000, 13.845000)"></g>
        <g id="about-logo_en" transform="translate(79.000000, 12.000000)"></g>
        <g id="about-logo_cht" transform="translate(60.000000, 14.000000)" fill="#0D48CE" fill-rule="nonzero">
            <g id="编组" transform="translate(0.000000, 5.860465)">
                <path d="M19.3970054,0.412330264 C24.2281485,5.75132836 30.0659648,10.1094239 36.5842253,13.2430779 L35.0619287,15.9110972 C28.6775841,12.7162072 23.0016893,8.29664861 18.3657722,2.91056657 C13.6611701,8.30820414 7.9302606,12.741613 1.49774345,15.9596067 L0,13.2673326 C6.55590921,10.1147361 12.4400469,5.7511586 17.334539,0.412330264 L19.3970054,0.412330264 Z M20.9438552,10.6720774 L20.9438552,19.4037771 L31.673591,19.4037771 L31.673591,22.0960512 L20.9438552,22.0960512 L20.9438552,31.6281567 L34.4972057,31.6281567 L34.4972057,34.3446855 L1.79238151,34.3446855 L1.79238151,31.6281567 L7.73424897,31.6281567 L7.73424897,16.2749181 L10.5087573,16.2749181 L10.5087573,31.6281567 L18.0711341,31.6281567 L18.0711341,10.6720774 L20.9438552,10.6720774 Z" id="形状"></path>
                <path d="M58.9030581,0.3395661 L58.9030581,6.35473701 L63.1262035,6.35473701 L63.1262035,0.3395661 L65.7288397,0.3395661 L65.7288397,6.35473701 L77.8581063,6.35473701 L77.8581063,8.78020915 L69.1662837,8.78020915 L67.349349,12.9762759 L77.0232985,12.9762759 L77.0232985,15.4017481 L62.7333528,15.4017481 L62.7333528,18.3123147 L76.2867034,18.3123147 L76.2867034,20.7377868 L62.7333528,20.7377868 L62.7333528,23.6240986 L78.2755102,23.6240986 L78.2755102,26.0495708 L65.9989246,26.0495708 C69.6270102,29.3740747 74.0699947,31.7065036 78.8893395,32.8166381 L77.7107873,35.2421102 C70.8113462,32.8166381 65.9252651,29.857562 62.9788845,26.0495708 L62.6351401,26.0495708 L62.6351401,35.9212424 L59.9833976,35.9212424 L59.9833976,25.9282972 L59.6642064,25.9282972 C57.2088892,29.4694865 52.298255,32.5255814 45.2269416,35.1208366 L43.7291982,32.6953644 C50.1130227,30.730732 54.458934,28.4750429 56.8160385,25.9040425 L44.416687,25.9040425 L44.416687,23.4785703 L59.9833976,23.4785703 L59.9833976,20.6407679 L46.4054938,20.6407679 L46.4054938,18.2152958 L59.9833976,18.2152958 L59.9833976,15.4017481 L45.5952392,15.4017481 L45.5952392,12.9762759 L54.9745506,12.9762759 L52.8138716,8.78020915 L44.8095377,8.78020915 L44.8095377,6.35473701 L56.3249751,6.35473701 L56.3249751,0.3395661 L58.9030581,0.3395661 Z M53.5259135,5.19051038 L51.2915749,6.13644451 C50.5316533,4.45164785 49.6367086,2.82950758 48.6152793,1.28550023 L50.8250647,0.436584985 C51.8848574,1.92749444 52.7897198,3.52019689 53.5259135,5.19051038 L53.5259135,5.19051038 Z M66.4163285,8.80446387 L55.5638268,8.80446387 L57.6999527,12.9762759 L64.6485001,12.9762759 L66.4163285,8.80446387 Z M73.7822799,1.52804745 C72.873264,3.30275843 71.7069805,4.93695298 70.3202827,6.37899173 L68.4051354,5.02072733 C69.6969018,3.66218599 70.7955057,2.13630808 71.6707072,0.485094428 L73.7822799,1.52804745 Z" id="形状"></path>
                <path d="M94.1368589,2.32845325 L94.1368589,0.3395661 L96.5921761,0.3395661 L96.5921761,2.32845325 L102.976001,2.32845325 L102.976001,6.74281255 L104.571957,6.74281255 L104.571957,9.16828469 L102.976001,9.16828469 L102.976001,13.6068987 L96.5921761,13.6068987 L96.5921761,15.4017481 L103.51617,15.4017481 L103.51617,21.7322304 L96.150219,21.7322304 C95.7082619,22.5083815 95.3154112,23.2117684 94.9225604,23.8666459 L103.565277,23.8666459 L103.565277,25.6372405 C102.30165,27.6987655 100.63175,29.4885832 98.6546425,30.9005151 C100.56979,31.6766661 102.558597,32.5983456 104.59651,33.6170439 L103.04966,35.5816763 C100.766215,34.3446855 98.5318766,33.3017325 96.297538,32.3557983 C93.5409621,33.8784302 90.6162963,35.0829066 87.5811622,35.9454971 L86.0343124,33.9081005 C88.5638339,33.2330931 91.0285851,32.3403362 93.4002638,31.2400812 C91.706095,30.6094584 90.0610325,30.0273451 88.4896295,29.5665054 C89.3244373,28.4022788 90.1101388,27.1410332 90.9449467,26.0253161 L86.0343124,26.0253161 L86.0343124,23.8666459 L92.3935838,23.8666459 C92.8355408,23.1147495 93.2529448,22.4356173 93.6457955,21.7322304 L87.40929,21.7322304 L87.40929,15.4017481 L94.284178,15.4017481 L94.284178,13.4613704 L87.9494598,13.4613704 L87.9494598,9.0712658 L86.3289504,9.0712658 L86.3289504,6.64579366 L87.9494598,6.64579366 L87.9494598,2.32845325 L94.1368589,2.32845325 Z M94.1368589,17.3421258 L89.6927349,17.3421258 L89.6927349,19.7675979 L94.1368589,19.7675979 L94.1368589,17.3421258 Z M94.1368589,6.98535976 L94.1368589,4.34159513 L90.2329047,4.34159513 L90.2329047,6.98535976 L94.1368589,6.98535976 Z M94.1368589,8.85297331 L90.2329047,8.85297331 L90.2329047,11.5209927 L94.1368589,11.5209927 L94.1368589,8.85297331 Z M100.618896,26.0738255 L93.6949018,26.0738255 C93.0810726,27.0197596 92.5163496,27.8686749 92.0498394,28.6205713 C93.3757106,28.9601373 94.726135,29.3967223 96.1011126,29.8818168 C97.7985593,28.852589 99.3228573,27.5677747 100.618896,26.0738255 L100.618896,26.0738255 Z M100.618896,6.98535976 L100.618896,4.34159513 L96.6903888,4.34159513 L96.6903888,6.98535976 L100.618896,6.98535976 Z M100.618896,8.85297331 L96.6903888,8.85297331 L96.6903888,11.5209927 L100.618896,11.5209927 L100.618896,8.85297331 Z M101.183619,17.3421258 L96.6903888,17.3421258 L96.6903888,19.7675979 L101.183619,19.7675979 L101.183619,17.3421258 Z M107.346465,16.4932106 C106.897574,17.4170881 106.39757,18.3158709 105.848722,19.1854846 L104.080893,17.0025597 C106.729661,11.690271 108.329589,5.92809993 108.795102,0.0242547214 L111.594164,0.485094428 C111.324079,2.54674575 111.004888,4.48712346 110.612037,6.35473701 L121.071688,6.35473701 L121.071688,9.02275636 L118.346286,9.02275636 C118.370102,15.1282596 116.984573,21.1587783 114.295013,26.6559388 C116.298144,29.4903691 118.791657,31.9535726 121.660964,33.9323552 L119.966795,36.1395349 C117.165583,34.2459959 114.722345,31.8817114 112.748163,29.1541751 C110.974551,31.8020483 108.747902,34.124743 106.167913,36.0182613 L104.645616,33.5927891 C107.27063,31.780212 109.479335,29.441327 111.127654,26.728703 C109.309756,23.5461614 108.04023,20.0871566 107.371018,16.4932106 L107.346465,16.4932106 Z M109.114293,12.0788513 C109.587704,16.1941572 110.819267,20.1891866 112.748163,23.8666459 C114.72656,19.1270581 115.752307,14.052425 115.768203,8.92573747 L110.047314,8.92573747 C109.728123,10.0171999 109.458038,11.060153 109.138847,12.0788513 L109.114293,12.0788513 Z" id="形状"></path>
                <path d="M156.673786,11.1814266 L156.673786,13.7766818 C153.917176,15.6700207 151.056434,17.4109467 148.10473,18.9914469 L148.10473,21.586702 L163.597781,21.586702 L163.597781,24.3032308 L148.10473,24.3032308 L148.10473,32.5255814 C148.10473,34.6599969 146.95073,35.7514593 144.691839,35.7514593 L139.781204,35.7514593 L139.118269,33.1804589 C140.493246,33.1804589 141.966437,33.1804589 143.636052,33.1804589 C144.642732,33.1804589 145.158349,32.5983456 145.158349,31.4583737 L145.158349,24.1819572 L128.805937,24.1819572 L128.805937,21.586702 L145.232008,21.586702 L145.232008,17.8272202 C148.423921,16.2021539 150.805578,14.8438895 152.426088,13.8251912 L135.680825,13.8251912 L135.680825,11.1814266 L156.673786,11.1814266 Z M162.836632,12.9520212 L160.013018,12.9520212 L160.013018,6.98535976 L132.341594,6.98535976 L132.341594,12.9762759 L129.517979,12.9762759 L129.517979,4.31734041 L144.961924,4.31734041 C144.444857,3.02438005 143.854651,1.76114327 143.194095,0.533603871 L146.410561,0 C146.95073,1.28550023 147.515453,2.7165288 148.03107,4.31734041 L162.762973,4.31734041 L162.836632,12.9520212 Z" id="形状"></path>
                <path d="M185.523763,1.23699079 C184.142436,4.49103334 182.370074,7.56921689 180.244831,10.4052755 L180.244831,35.9940066 L177.421216,35.9940066 L177.421216,13.8251912 C175.618833,15.7575544 173.691455,17.572384 171.651221,19.2582488 L170.742754,16.3476822 C176.108428,11.9648847 180.320537,6.3643005 183.019339,0.0242547214 L185.523763,1.23699079 Z M193.503543,35.1936007 C192.36122,35.3416799 191.214567,34.9531678 190.404732,34.1436532 C189.594897,33.3341382 189.215202,32.1969047 189.378611,31.0702981 L189.378611,19.331013 C187.733548,20.2526924 186.039379,21.1258623 184.296104,21.9262681 L183.043892,19.2825035 C185.21445,18.3242126 187.329297,17.2472524 189.378611,16.0566256 L189.378611,0.509349149 L192.202225,0.509349149 L192.202225,14.3587951 C196.168035,11.7305395 199.781464,8.6174083 202.956514,5.09349149 L204.920768,7.30067114 C201.118201,11.2841415 196.810242,14.7652503 192.104013,17.6574372 L192.104013,30.7792415 C192.104013,31.9919775 192.742395,32.5983456 194.068266,32.5983456 L200.501197,32.5983456 C201.377431,32.6649173 202.230912,32.3022907 202.784642,31.6281567 C203.464691,29.4634301 203.755542,27.1977425 203.644003,24.9338536 L206.295746,25.7827688 C206.358292,28.5488741 205.874583,31.300513 204.871662,33.8838458 C203.879551,34.9369662 202.438487,35.4595341 200.992261,35.2906196 L193.503543,35.1936007 Z" id="形状"></path>
                <path d="M247.08394,24.1577025 L247.08394,26.5831747 L238.318457,26.5831747 C241.105153,28.8982376 243.684604,31.4463343 246.028154,34.1991572 L244.113006,36.1395349 C243.351378,35.13934 242.531557,34.1837103 241.657689,33.2774778 C233.735199,34.1991572 225.550808,34.8297799 217.104517,35.169346 L216.367922,32.8894022 C217.047184,32.7818464 217.693297,32.5248846 218.258516,32.1375059 C220.216874,30.4654739 222.001704,28.6048389 223.586554,26.5831747 L213.446095,26.5831747 L213.446095,24.1577025 L247.08394,24.1577025 Z M245.487983,1.74633994 L245.487983,4.17181208 L231.615441,4.17181208 L231.615441,6.59728422 L246.740196,6.59728422 L246.740196,14.7711253 L243.99024,14.7711253 L243.99024,8.68319026 L231.713654,8.68319026 L231.713654,17.1965975 L228.963699,17.1965975 L228.963699,8.68319026 L216.687113,8.68319026 L216.687113,14.625597 L213.838945,14.625597 L213.838945,6.45175589 L228.865486,6.45175589 L228.865486,4.02628375 L214.943838,4.02628375 L214.943838,1.60081161 L245.487983,1.74633994 Z M243.99024,19.0884657 L243.99024,21.5139379 L216.466135,21.5139379 L216.466135,19.0884657 L243.99024,19.0884657 Z M226.80302,10.9388794 L226.80302,12.7579835 L218.528601,12.7579835 L218.528601,10.9388794 L226.80302,10.9388794 Z M226.80302,14.8196348 L226.80302,16.6872483 L218.528601,16.6872483 L218.528601,14.8196348 L226.80302,14.8196348 Z M221.082131,32.646855 C228.104338,32.3072889 234.308106,31.8302793 239.693435,31.2158264 C238.514883,30.0758545 237.238118,29.0086468 236.010459,27.9171843 L237.385437,26.5831747 L226.680254,26.5831747 C225.093832,28.8400275 223.211374,30.8790365 221.082131,32.646855 L221.082131,32.646855 Z M241.90322,10.8176057 L241.90322,12.6367098 L233.604248,12.6367098 L233.604248,10.8176057 L241.90322,10.8176057 Z M241.90322,14.6983612 L241.90322,16.5659747 L233.604248,16.5659747 L233.604248,14.6983612 L241.90322,14.6983612 Z" id="形状"></path>
                <path d="M287.57212,2.06165132 L287.57212,4.77818012 L272.840217,4.77818012 L272.840217,19.4522866 L288.971651,19.4522866 L288.971651,22.1203059 L272.93843,22.1203059 L272.93843,35.8727329 L270.041156,35.8727329 L270.041156,22.1203059 L254.228913,22.1203059 L254.228913,19.4522866 L270.041156,19.4522866 L270.041156,4.77818012 L255.800316,4.77818012 L255.800316,2.06165132 L287.57212,2.06165132 Z M264.860436,16.1536445 L262.208694,17.4391447 C261.009728,14.3796396 259.598667,11.4054274 257.985548,8.53766193 L260.612738,7.2521617 C262.18747,10.142793 263.605374,13.114155 264.860436,16.1536445 L264.860436,16.1536445 Z M285.4851,8.27086 C284.251583,11.4226838 282.688062,14.4385589 280.819998,17.2693616 L278.364681,15.9838614 C280.189011,13.1652577 281.726962,10.1754891 282.956124,7.05812393 L285.4851,8.27086 Z" id="形状"></path>
                <path d="M329.263405,22.1688154 L326.562556,22.1688154 L326.562556,22.9692212 L321.651922,22.9692212 C323.059803,24.1175163 324.388621,25.3572561 325.629536,26.6801935 L323.665282,28.0384579 L322.020219,26.2678633 C319.417583,26.4376463 316.814947,26.5589199 314.236864,26.6316841 L314.236864,28.7660996 L326.51345,28.7660996 L326.51345,30.7792415 L314.236864,30.7792415 L314.236864,32.9864211 L330,32.9864211 L330,35.169346 L296.116624,35.169346 L296.116624,32.9864211 L311.634228,32.9864211 L311.634228,30.7792415 L299.18577,30.7792415 L299.18577,28.7660996 L311.634228,28.7660996 L311.634228,26.7044483 L300.978151,26.9469955 L300.462535,25.2249103 C302.135362,24.9819607 303.67573,24.1869437 304.832999,22.9692212 L299.308536,22.9692212 L299.308536,21.0288435 L326.538003,21.0288435 L326.538003,19.1854846 L298.989345,19.1854846 L298.989345,22.0475418 L296.288496,22.0475418 L296.288496,17.1965975 L329.263405,17.1965975 L329.263405,22.1688154 Z M311.33959,2.06165132 L311.33959,0.145528328 L314.163204,0.145528328 L314.163204,2.06165132 L328.895107,2.06165132 L328.895107,4.14755736 L314.163204,4.14755736 L314.163204,6.16069924 L327.053619,6.16069924 L327.053619,8.12533167 L298.252749,8.12533167 L298.252749,6.06368035 L311.33959,6.06368035 L311.33959,4.05053847 L296.607687,4.05053847 L296.607687,2.06165132 L311.33959,2.06165132 Z M325.138472,10.0414547 L325.138472,15.6442953 L300.585301,15.6442953 L300.585301,10.0414547 L325.138472,10.0414547 Z M322.48673,11.8848135 L303.089724,11.8848135 L303.089724,13.7766818 L322.48673,13.7766818 L322.48673,11.8848135 Z M307.754827,22.9692212 C306.993642,23.7573505 306.172832,24.4871003 305.29951,25.1521461 C310.504782,25.1521461 315.538182,24.8853442 320.375157,24.6427969 C319.761328,24.0606836 319.073839,23.5270798 318.410903,22.9692212 L307.754827,22.9692212 Z" id="形状"></path>
            </g>
        </g>
    </g>
</svg>