<?xml version="1.0" encoding="UTF-8"?>
<svg width="450px" height="75px" viewBox="0 0 450 75" version="1.1" xmlns="http://www.w3.org/2000/svg" xmlns:xlink="http://www.w3.org/1999/xlink">
    <title>画板</title>
    <g id="画板" stroke="none" stroke-width="1" fill="none" fill-rule="evenodd">
        <g id="about-logo" transform="translate(60.000000, 13.845000)" fill="#0D48CE" fill-rule="nonzero">
            <g id="企业数字化云平台" transform="translate(0.000000, 5.000000)">
                <path d="M17.273646,0.436695281 C12.6516727,5.67703864 6.89379069,10.083691 0,13.5772532 L1.48843208,16.3165236 C8.46056129,12.584764 14.0617662,8.13841204 18.2920469,2.97746783 C22.9140202,8.4560086 28.4368866,12.9023606 34.9389845,16.2768241 L36.4665859,13.5375537 C30.0036572,10.361588 24.2849444,5.9946352 19.3104478,0.436695281 L17.273646,0.436695281 Z M17.9786927,10.917382 L17.9786927,32.3551503 L10.4581938,32.3551503 L10.4581938,16.6341202 L7.67717598,16.6341202 L7.67717598,32.3551503 L1.76261694,32.3551503 L1.76261694,35.1341203 L34.3514455,35.1341203 L34.3514455,32.3551503 L20.8380491,32.3551503 L20.8380491,22.5890559 L31.5312586,22.5890559 L31.5312586,19.8497855 L20.8380491,19.8497855 L20.8380491,10.917382 L17.9786927,10.917382 Z" id="企"></path>
                <path d="M55.1221959,0.714592277 L55.1221959,32.2757511 L43.4497548,32.2757511 L43.4497548,35.0547211 L78.1537238,35.0547211 L78.1537238,32.2757511 L66.4029443,32.2757511 L66.4029443,0.714592277 L63.543588,0.714592277 L63.543588,32.2757511 L57.9815522,32.2757511 L57.9815522,0.714592277 L55.1221959,0.714592277 Z M74.5893206,7.9399142 C72.9050422,15.2049357 70.9074099,21.1995709 68.6355925,25.8841202 L71.1815947,26.7972104 C73.5709198,21.5965666 75.529383,15.5622318 77.0961538,8.65450647 L74.5893206,7.9399142 Z M46.8183116,7.86051504 L44.4289864,8.65450647 C46.5441268,14.530043 48.3067438,20.6437769 49.7168374,26.9957083 L52.3020087,26.3208155 C50.6960689,19.3733906 48.8551133,13.2199571 46.8183116,7.86051504 Z" id="业"></path>
                <path d="M109.26516,9.13090131 L115.062211,9.13090131 C114.905534,14.4903434 114.08298,19.1748928 112.555379,23.1845494 C110.988608,19.8497855 109.735191,15.8401288 108.75596,11.195279 L109.26516,9.13090131 Z M111.262793,26.0429186 C109.461007,29.4173822 107.071681,32.1566524 104.016479,34.3004293 L105.465741,36.6824036 C108.403436,34.5386267 110.831931,31.8787555 112.712056,28.7027899 C114.670519,32.0375537 117.020675,34.7371246 119.762523,36.7221031 L121.290125,34.3798285 C118.469937,32.4345495 116.080612,29.6952791 114.04381,26.1223176 C116.237289,21.4377683 117.451537,15.7607297 117.647383,9.13090131 L120.193385,9.13090131 L120.193385,6.39163091 L109.852699,6.39163091 C110.166053,4.64484981 110.479407,2.7392704 110.714423,0.714592277 L107.972574,0.238197426 C107.189189,7.78111589 105.622418,13.7757511 103.311432,18.2221031 L105.074049,20.4055795 C105.896603,18.9763949 106.679989,17.3487125 107.385035,15.5225322 C108.442606,19.4924893 109.735191,22.9860516 111.262793,26.0429186 Z M92.696561,18.777897 C92.4223762,19.5718885 92.109022,20.4055795 91.7564986,21.27897 L86.0377859,21.27897 L86.0377859,23.780043 L90.6597592,23.780043 C89.8763738,25.3680258 88.9754808,26.9957083 87.9570798,28.7424893 C89.8763738,29.4570816 91.67816,30.2113734 93.4016078,30.9656652 C91.1297904,32.2757511 88.3487724,33.3476395 85.1368926,34.22103 L86.4686479,36.6030044 C90.3855742,35.4914164 93.6366234,34.0225323 96.2217947,32.1963521 C98.5327815,33.2285408 100.530414,34.3004293 102.253862,35.3326182 L103.781463,33.1094421 C102.058015,32.1566524 100.256229,31.2832619 98.3761045,30.4098714 C100.412906,28.5042919 101.862169,26.2414163 102.723893,23.6212447 L102.723893,21.27897 L94.5375163,21.27897 C94.7725319,20.5643777 95.046717,19.8497855 95.3209017,19.0954936 L92.696561,18.777897 Z M95.7909329,29.2982834 C94.3808393,28.7027899 92.8924074,28.1469958 91.3256366,27.5912019 C92.109022,26.4002148 92.8140688,25.1298284 93.4407769,23.780043 L100.177891,23.780043 C99.2378283,25.8444207 97.7493961,27.7103004 95.7909329,29.2982834 Z M89.1321578,1.07188842 L86.8995096,1.82618026 C87.839572,3.33476395 88.7012958,5.04184552 89.5238504,6.98712449 L91.5606522,6.03433479 C90.8556054,4.28755366 90.0722202,2.62017168 89.1321578,1.07188842 Z M101.039614,0.952789702 C100.334568,2.62017168 99.3161667,4.28755366 98.0627503,5.9946352 L100.060383,7.02682406 C101.313799,5.35944208 102.293031,3.65236051 103.076416,1.9055794 L101.039614,0.952789702 Z M86.1161245,7.9399142 L86.1161245,10.4409872 L91.67816,10.4409872 C90.503082,12.6244636 88.3879418,14.6094421 85.3719082,16.3959228 L86.7428326,18.6984979 C90.1113894,16.3959228 92.4615454,13.696352 93.7541312,10.5600859 L93.7541312,18.1030043 L96.3784719,18.1030043 L96.3784719,12.9420601 C97.7885655,13.8948498 99.4728439,15.1652361 101.431307,16.7532189 L102.88057,14.530043 C100.687091,13.1802576 98.4936123,11.9495709 96.3784719,10.8776824 L96.3784719,10.4409872 L103.507278,10.4409872 L103.507278,7.9399142 L96.3784719,7.9399142 L96.3784719,0.357296139 L93.7541312,0.357296139 L93.7541312,7.9399142 L86.1161245,7.9399142 Z" id="数"></path>
                <path d="M162.193877,4.40665237 L147.427064,4.40665237 C146.917864,2.77896996 146.369494,1.31008584 145.821124,0 L142.609244,0.555793992 C143.235953,1.70708155 143.823492,2.97746783 144.371861,4.40665237 L128.97834,4.40665237 L128.97834,13.2596567 L131.798527,13.2596567 L131.798527,7.14592277 L159.37369,7.14592277 L159.37369,13.2596567 L162.193877,13.2596567 L162.193877,4.40665237 Z M135.010407,11.4334764 L135.010407,14.0933477 L151.814022,14.0933477 C150.208082,15.1255365 147.818757,16.5150215 144.646046,18.1824035 L144.646046,22.0729614 L128.273293,22.0729614 L128.273293,24.8519314 L144.646046,24.8519314 L144.646046,32.2757511 C144.646046,33.4270388 144.136846,34.0225323 143.118445,34.0225323 C141.473336,34.0225323 139.984904,33.9828326 138.61398,33.9431331 L139.279857,36.5633049 L144.097677,36.5633049 C146.369494,36.5633049 147.505403,35.4517169 147.505403,33.2682406 L147.505403,24.8519314 L162.938093,24.8519314 L162.938093,22.0729614 L147.505403,22.0729614 L147.505403,19.4130902 C150.638944,17.6663091 153.4983,15.9195279 156.044303,14.0933477 L156.044303,11.4334764 L135.010407,11.4334764 Z" id="字"></path>
                <path d="M182.024565,0.039699571 C179.517732,6.31223178 175.483298,11.8701717 169.921262,16.7135194 L170.822155,19.6909872 C172.898126,17.9442061 174.81742,16.0783262 176.580037,14.1330472 L176.580037,36.8015023 L179.400224,36.8015023 L179.400224,10.639485 C181.515365,7.70171676 183.277982,4.60515022 184.648906,1.27038627 L182.024565,0.039699571 Z M200.081596,36.08691 C201.961721,36.08691 203.254307,35.6105151 203.959354,34.6577254 C204.625231,33.7049357 205.095262,30.9259657 205.369447,26.360515 L202.745106,25.4871245 C202.588429,29.4173822 202.314245,31.7199572 201.883383,32.3551503 C201.413351,32.9903434 200.629966,33.3476395 199.611565,33.3476395 L193.266144,33.3476395 C191.934389,33.3476395 191.307681,32.7124465 191.307681,31.4817598 L191.307681,18.0633048 C196.16467,14.9667383 200.43412,11.4334764 204.076862,7.46351933 L202.118398,5.2006438 C199.024026,8.7339056 195.420454,11.9098713 191.307681,14.6888413 L191.307681,0.516094421 L188.487494,0.516094421 L188.487494,16.4356224 C186.489861,17.6266095 184.374721,18.6984979 182.181242,19.7306868 L183.434659,22.4302576 C185.158106,21.5965666 186.842385,20.723176 188.487494,19.7703863 L188.487494,31.8787555 C188.487494,34.6577254 189.858418,36.08691 192.600267,36.08691 L200.081596,36.08691 Z" id="化"></path>
                <path d="M216.112866,2.62017168 L216.112866,5.39914164 L244.001382,5.39914164 L244.001382,2.62017168 L216.112866,2.62017168 Z M212.352616,13.696352 L212.352616,16.5547211 L225.552658,16.5547211 C221.439886,25.0107297 218.110498,30.1716739 215.603665,32.0772534 C215.446988,32.1566524 215.251142,32.2757511 214.937788,32.3551503 L215.682003,35.253219 C225.082627,34.6180259 233.739035,33.8240344 241.690396,32.7918457 C242.434612,34.22103 243.100489,35.6105151 243.727198,37 L246.23403,35.2135195 C244.275567,31.1641632 241.494549,26.360515 237.890977,20.8819743 L235.61916,22.3111589 C237.342607,25.0107297 238.909378,27.6309014 240.319471,30.1716739 C233.308173,31.1244637 226.296874,31.7993562 219.246407,32.196352 C221.909917,29.2585837 225.082627,24.05794 228.6862,16.5547211 L247.487447,16.5547211 L247.487447,13.696352 L212.352616,13.696352 Z" id="云"></path>
                <path d="M256.037386,2.10407726 L256.037386,4.88304721 L270.216661,4.88304721 L270.216661,19.889485 L254.470616,19.889485 L254.470616,22.6287554 L270.216661,22.6287554 L270.216661,36.6824036 L273.115185,36.6824036 L273.115185,22.6287554 L289.174585,22.6287554 L289.174585,19.889485 L273.115185,19.889485 L273.115185,4.88304721 L287.686152,4.88304721 L287.686152,2.10407726 L256.037386,2.10407726 Z M260.816037,7.42381977 L258.191696,8.7339056 C259.680129,11.3937769 261.090222,14.4109443 262.421976,17.8251073 L265.046318,16.5150215 C263.714563,13.2199571 262.30447,10.2027897 260.816037,7.42381977 Z M283.02501,7.2253219 C281.889101,10.2424893 280.361501,13.2596567 278.442207,16.3562232 L280.949039,17.6663091 C282.868333,14.6491417 284.435103,11.5922747 285.610181,8.4560086 L283.02501,7.2253219 Z" id="平"></path>
                <path d="M325.65221,20.2070816 L299.487142,20.2070816 L299.487142,36.7618026 L302.346499,36.7618026 L302.346499,34.7768241 L322.792853,34.7768241 L322.792853,36.7618026 L325.65221,36.7618026 L325.65221,20.2070816 Z M302.346499,32.0375537 L302.346499,22.946352 L322.792853,22.946352 L322.792853,32.0375537 L302.346499,32.0375537 Z M296.706124,16.1180258 C306.890132,15.7210301 316.09491,15.1652361 324.359626,14.4109443 C325.299688,15.9195279 326.278918,17.4678112 327.25815,19.1351932 L330,17.7854078 C327.101473,12.9817597 323.967931,8.57510732 320.599376,4.60515022 L318.053374,5.83583692 C319.620144,7.6620172 321.147744,9.6866953 322.636177,11.8304721 C315.899064,12.4656653 308.770257,12.9817597 301.249758,13.2993563 C304.774992,10.361588 308.339395,6.31223178 311.864629,1.2306867 L308.966103,0.238197426 C303.874099,7.82081548 299.604648,12.2274679 296.157754,13.418455 L296.706124,16.1180258 Z" id="台"></path>
            </g>
        </g>
        <g id="about-logo_en" transform="translate(3.000000, 12.000000)"></g>
        <g id="about-logo_cht" transform="translate(60.000000, 14.000000)"></g>
    </g>
</svg>