<?xml version="1.0" encoding="UTF-8"?>
<svg width="16px" height="16px" viewBox="0 0 16 16" version="1.1" xmlns="http://www.w3.org/2000/svg" xmlns:xlink="http://www.w3.org/1999/xlink">
    <!-- Generator: Sketch 52.5 (67469) - http://www.bohemiancoding.com/sketch -->
    <title>密码域组合</title>
    <desc>Created with Sketch.</desc>
    <g id="icon" stroke="none" stroke-width="1" fill="none" fill-rule="evenodd">
        <g id="画板" transform="translate(-117.000000, -64.000000)" fill-rule="nonzero">
            <g id="密码域组合" transform="translate(117.000000, 64.000000)">
                <rect id="矩形" x="0" y="0" width="16" height="16"></rect>
                <path d="M6.08865913,15.4913632 C5.11993646,15.4895911 4.33440568,14.7068375 4.33024714,13.739168 L4.33024714,12.3745502 L5.29429354,12.3745502 L5.29429354,13.739168 C5.29429354,14.1710091 5.64986671,14.5261984 6.08217451,14.5261984 L13.7480726,14.5261984 C14.1803804,14.5261984 14.5348728,14.1710091 14.5348728,13.739168 L14.5348728,6.0847848 C14.5348728,5.65294372 14.1803804,5.29775443 13.7405072,5.29775443 L12.3895454,5.29775443 L12.3895454,4.32611199 L13.7405072,4.32611199 C14.7131998,4.32611199 15.5,5.11314236 15.5,6.0847848 L15.5,13.7413272 C15.5,14.7054124 14.7131998,15.5 13.7405072,15.5 L6.08865913,15.5 L6.08865913,15.4924428 L6.08865913,15.4913632 Z M2.25949276,11.6663308 C1.28831702,11.6639547 0.501782342,10.8777865 0.5,9.90765798 L0.5,2.25867281 C0.507565387,1.28703037 1.29436559,0.5 2.25949276,0.5 L9.92539088,0.5 C10.890518,0.5 11.6859644,1.28703037 11.6859644,2.25867281 L11.6859644,9.9162948 C11.6859644,10.8793004 10.8980834,11.673888 9.92539088,11.673888 L2.25949276,11.673888 L2.25949276,11.6663308 Z M2.25949276,1.46408522 C1.82718496,1.46408522 1.47269256,1.81927451 1.47269256,2.25111559 L1.47269256,9.90657838 C1.47269256,10.3384195 1.82718496,10.6936088 2.25949276,10.6936088 L9.92539088,10.6936088 C10.3576987,10.6936088 10.7132718,10.3384195 10.7132718,9.90657838 L10.7132718,2.25867281 C10.7132718,1.82683173 10.3576987,1.47164244 9.92539088,1.47164244 L2.25949276,1.47164244 L2.25949276,1.46408522 Z M4.33673175,9.9540809 L4.33673175,6.0847848 C4.33673175,5.11314236 5.12353195,4.32611199 6.08865913,4.32611199 L9.93295626,4.32611199 L9.93295626,5.29019721 L6.08865913,5.29019721 C5.65635132,5.29019721 5.30185892,5.6443069 5.30185892,6.0847848 L5.30185892,9.94760328 L4.33673175,9.94760328 L4.33673175,9.9551605 L4.33673175,9.9540809 Z" id="形状" fill="#BFC4CA"></path>
            </g>
        </g>
    </g>
</svg>