<?xml version="1.0" encoding="UTF-8"?>
<svg width="78px" height="20px" viewBox="0 0 78 20" version="1.1" xmlns="http://www.w3.org/2000/svg" xmlns:xlink="http://www.w3.org/1999/xlink">
    <!-- Generator: Sketch 64 (93537) - https://sketch.com -->
    <title>大写锁定已打开</title>
    <desc>Created with Sketch.</desc>
    <g id="登陆设计-1366分辨率" stroke="none" stroke-width="1" fill="none" fill-rule="evenodd">
        <g id="1366分辨率-4个" transform="translate(-1099.000000, -353.000000)">
            <g id="大写锁定已打开" transform="translate(1099.000000, 353.000000)">
                <path d="M2,0 L5,0 L5,0 L11,0 L17,0 L76,0 C77.1045695,-2.02906125e-16 78,0.8954305 78,2 L78,18 C78,19.1045695 77.1045695,20 76,20 L2,20 C0.8954305,20 1.3527075e-16,19.1045695 0,18 L0,2 C-1.3527075e-16,0.8954305 0.8954305,2.02906125e-16 2,0 Z" id="矩形" fill="#FFF7E0"></path>
                <path d="M4.86,15.03 C6.99,13.92 8.37,12.15 8.99,9.72 C9.74,11.98 11.12,13.72 13.13,14.96 L13.58,14.38 C11.53,13.16 10.15,11.42 9.45,9.16 L13.39,9.16 L13.39,8.46 L9.24,8.46 C9.32,7.84 9.37,7.19 9.37,6.49 L9.37,5.84 L8.63,5.84 L8.63,6.65 C8.62,7.28 8.58,7.88 8.5,8.46 L4.61,8.46 L4.61,9.16 L8.38,9.16 C7.86,11.62 6.54,13.38 4.41,14.43 L4.86,15.03 Z M22.99,8.42 L22.99,6.25 L15.01,6.25 L15.01,8.41 L15.72,8.41 L15.72,6.93 L22.28,6.93 L22.28,8.42 L22.99,8.42 Z M20.33,14.94 C21.16,14.93 21.7,14.79 21.95,14.52 C22.25,14.2 22.41,12.82 22.44,10.38 L17.07,10.38 C17.2,9.97 17.33,9.53 17.45,9.06 L21.69,9.06 L21.69,8.38 L17.61,8.38 C17.68,8.07 17.75,7.75 17.82,7.41 L17.11,7.34 C16.9,8.41 16.58,9.65 16.16,11.05 L21.72,11.05 C21.69,12.81 21.58,13.79 21.4,14 C21.24,14.18 20.9,14.28 20.36,14.29 C20.02,14.29 19.66,14.28 19.26,14.27 L19.46,14.94 L20.33,14.94 Z M20.73,12.94 L20.73,12.25 L14.73,12.25 L14.73,12.94 L20.73,12.94 Z M29.28,12.86 L29.28,9.16 L32.45,9.16 L32.45,12.82 L33.15,12.82 L33.15,8.52 L31.23,8.52 L31.23,5.8 L30.52,5.8 L30.52,8.52 L28.58,8.52 L28.58,12.86 L29.28,12.86 Z M24.97,9.51 C25.3,8.95 25.59,8.33 25.84,7.65 L27.85,7.65 L27.85,6.97 L26.07,6.97 C26.16,6.65 26.25,6.33 26.33,5.99 L25.64,5.85 C25.38,7.05 24.96,8.15 24.38,9.14 L24.97,9.51 Z M32.45,8.12 C32.85,7.54 33.17,6.93 33.41,6.31 L32.8,6.02 C32.56,6.61 32.25,7.2 31.85,7.8 L32.45,8.12 Z M29.3,8.1 L29.89,7.8 C29.61,7.2 29.31,6.64 28.99,6.13 L28.37,6.43 C28.69,6.92 29,7.48 29.3,8.1 Z M25.99,14.74 C26.79,14.5 27.5,14.2 28.11,13.84 L27.99,13.2 C27.54,13.48 27.1,13.71 26.67,13.87 L26.67,11.54 L27.97,11.54 L27.97,10.87 L26.67,10.87 L26.67,9.63 L27.65,9.63 L27.65,8.98 L25.38,8.98 L25.38,9.63 L25.98,9.63 L25.98,10.87 L24.67,10.87 L24.67,11.54 L25.98,11.54 L25.98,13.79 C25.98,13.93 25.88,14.04 25.7,14.12 L25.99,14.74 Z M28.45,14.98 C29.4,14.64 30.08,14.15 30.5,13.52 C30.92,12.85 31.15,11.95 31.18,10.83 L31.18,9.73 L30.47,9.73 L30.47,10.83 C30.45,11.74 30.27,12.48 29.94,13.05 C29.58,13.6 28.96,14.04 28.06,14.37 L28.45,14.98 Z M33.26,15.04 L33.66,14.42 C32.99,13.78 32.26,13.23 31.46,12.79 L31.1,13.33 C31.84,13.75 32.56,14.32 33.26,15.04 Z M35.61,9.03 L35.61,7.51 L42.39,7.51 L42.39,8.98 L43.09,8.98 L43.09,6.85 L39.46,6.85 C39.32,6.44 39.16,6.07 39,5.74 L38.23,5.86 C38.41,6.16 38.58,6.49 38.73,6.85 L34.91,6.85 L34.91,9.03 L35.61,9.03 Z M34.88,14.98 C35.45,14.4 35.93,13.68 36.32,12.82 C36.73,13.47 37.27,13.95 37.93,14.26 C38.81,14.63 40.25,14.82 42.27,14.82 L43.39,14.82 L43.52,14.1 C42.98,14.14 42.46,14.16 41.95,14.16 C40.95,14.15 40.11,14.09 39.41,13.99 L39.41,11.92 L42.39,11.92 L42.39,11.24 L39.41,11.24 L39.41,9.48 L41.95,9.48 L41.95,8.8 L36.07,8.8 L36.07,9.48 L38.69,9.48 L38.69,13.84 C38.59,13.82 38.49,13.79 38.4,13.76 C37.68,13.53 37.08,12.99 36.6,12.13 C36.78,11.61 36.94,11.04 37.06,10.42 L36.36,10.3 C36.02,12.02 35.38,13.39 34.42,14.41 L34.88,14.98 Z M51.98,14.68 C52.4,14.66 52.73,14.55 52.95,14.34 C53.19,14.08 53.36,13.34 53.46,12.1 L52.76,11.88 C52.7,12.98 52.57,13.62 52.37,13.8 C52.22,13.92 52.02,13.98 51.78,13.98 L46.76,13.98 C46.3,13.98 46.07,13.75 46.07,13.31 L46.07,10.36 L52.35,10.36 L52.35,6.36 L44.95,6.36 L44.95,7.06 L51.62,7.06 L51.62,9.67 L46.07,9.67 L46.07,8.19 L45.35,8.19 L45.35,13.44 C45.35,14.26 45.75,14.68 46.56,14.68 L51.98,14.68 Z M55.95,14.91 C56.53,14.91 56.83,14.62 56.83,14.06 L56.83,11.09 C57.31,10.91 57.79,10.72 58.26,10.51 L58.26,9.79 C57.79,10.01 57.31,10.22 56.83,10.41 L56.83,8.36 L58.13,8.36 L58.13,7.67 L56.83,7.67 L56.83,5.86 L56.09,5.86 L56.09,7.67 L54.52,7.67 L54.52,8.36 L56.09,8.36 L56.09,10.67 C55.52,10.85 54.94,11 54.36,11.13 L54.54,11.81 C55.06,11.67 55.57,11.51 56.09,11.35 L56.09,13.87 C56.09,14.12 55.96,14.25 55.7,14.25 C55.4,14.25 55.08,14.23 54.74,14.21 L54.9,14.91 L55.95,14.91 Z M60.94,14.89 C61.54,14.89 61.84,14.58 61.84,13.96 L61.84,7.31 L63.46,7.31 L63.46,6.61 L58.44,6.61 L58.44,7.31 L61.1,7.31 L61.1,13.78 C61.1,14.08 60.96,14.24 60.69,14.24 C60.2,14.24 59.69,14.22 59.15,14.2 L59.3,14.89 L60.94,14.89 Z M65.15,14.98 C66.03,14.52 66.66,13.87 67.04,13.03 C67.34,12.35 67.53,11.5 67.62,10.47 L70.51,10.47 L70.51,14.9 L71.24,14.9 L71.24,10.47 L73.43,10.47 L73.43,9.78 L71.24,9.78 L71.24,7.13 L72.91,7.13 L72.91,6.43 L65.12,6.43 L65.12,7.13 L66.94,7.13 L66.94,9.43 C66.94,9.53 66.93,9.65 66.93,9.78 L64.58,9.78 L64.58,10.47 L66.89,10.47 C66.81,11.27 66.67,11.95 66.46,12.53 C66.14,13.29 65.57,13.9 64.76,14.36 L65.15,14.98 Z M70.51,9.78 L67.67,9.78 C67.67,9.67 67.68,9.55 67.68,9.43 L67.68,7.13 L70.51,7.13 L70.51,9.78 Z" fill="#F79B00" fill-rule="nonzero"></path>
            </g>
        </g>
    </g>
</svg>