<?xml version="1.0" encoding="UTF-8"?>
<svg width="75px" height="20px" viewBox="0 0 75 20" version="1.1" xmlns="http://www.w3.org/2000/svg" xmlns:xlink="http://www.w3.org/1999/xlink">
    <!-- Generator: Sketch 64 (93537) - https://sketch.com -->
    <title>capslock_CHT</title>
    <desc>Created with Sketch.</desc>
    <g id="页面-1" stroke="none" stroke-width="1" fill="none" fill-rule="evenodd">
        <g id="capslock_CHT" fill-rule="nonzero">
            <path d="M1.76470588,0 L4.80769231,0 L4.80769231,0 L10.5769231,0 L16.3461538,0 L73.2352941,0 C74.2099143,0 75,0.8954305 75,2 L75,18 C75,19.1045695 74.2099143,20 73.2352941,20 L1.76470588,20 C0.790085735,20 0,19.1045695 0,18 L0,2 C0,0.8954305 0.790085735,0 1.76470588,0 Z" id="矩形" fill="#FFF7E0"></path>
            <path d="M4.43892852,14.5 C6.51652351,13.4246502 7.86257097,11.7099031 8.46731693,9.35575888 C9.19886446,11.5452099 10.5449119,13.2308934 12.5054593,14.4321851 L12.9443878,13.8702906 C10.9448246,12.6883746 9.59877711,11.0026911 8.91599942,8.81324004 L12.7590625,8.81324004 L12.7590625,8.1350915 L8.71116611,8.1350915 C8.78919785,7.53444564 8.83796768,6.90473628 8.83796768,6.22658773 L8.83796768,5.59687836 L8.11617412,5.59687836 L8.11617412,6.38159311 C8.10642015,6.9919268 8.06740428,7.57319699 7.98937254,8.1350915 L4.19507934,8.1350915 L4.19507934,8.81324004 L7.87232494,8.81324004 C7.36511865,11.1964478 6.07759499,12.901507 4,13.9187298 L4.43892852,14.5 Z M14.8561654,8.10602799 L14.8561654,6.97255113 L21.6156646,6.97255113 L21.6156646,8.09634015 L22.2789343,8.09634015 L22.2789343,6.3525296 L18.5626729,6.3525296 C18.4456253,6.06189451 18.3188237,5.79063509 18.1920221,5.55812702 L17.4702286,5.67438105 C17.6067841,5.87782562 17.7433396,6.10064586 17.8603872,6.3525296 L14.1928956,6.3525296 L14.1928956,8.10602799 L14.8561654,8.10602799 Z M20.5427282,14.441873 C20.9719028,14.4224973 21.2840297,14.3256189 21.479109,14.1415501 C21.6741884,13.9477933 21.8107439,13.5990312 21.8985296,13.1146394 C21.9765614,12.6108719 22.0253312,11.9617869 22.0545931,11.1673843 L16.5631096,11.1673843 C16.738681,10.9833154 16.9142524,10.7895587 17.0800699,10.5764263 L21.196244,10.5764263 L21.196244,7.62163617 L18.6309506,7.62163617 L18.6309506,8.18353068 L20.5524822,8.18353068 L20.5524822,8.83261572 L18.7577522,8.83261572 L18.7577522,9.36544672 L20.5524822,9.36544672 L20.5524822,10.0048439 L15.9095938,10.0048439 L15.9095938,9.36544672 L17.8018634,9.36544672 L17.8018634,8.82292788 L15.9095938,8.82292788 L15.9095938,8.18353068 C16.7679429,8.07696448 17.4507206,7.93164693 17.9579269,7.74757804 L17.6458,7.23412271 C16.9825302,7.45694295 16.2022128,7.59257266 15.2853399,7.65069968 L15.2853399,10.5764263 L16.2997525,10.5764263 C15.6852526,11.2158235 14.9341971,11.7486545 14.0465861,12.1749193 L14.4855146,12.6980624 C15.0122289,12.4171152 15.4901732,12.0974166 15.9291018,11.7486545 L21.3718154,11.7486545 C21.3327995,12.6302476 21.2352599,13.2018299 21.0987043,13.4730893 C20.9621488,13.7249731 20.6695298,13.8606028 20.2306013,13.8606028 C19.9379822,13.8606028 19.6356093,13.850915 19.3137283,13.8315393 L19.4795458,14.441873 L20.5427282,14.441873 Z M20.1330616,13.4440258 L20.6695298,13.2115178 C20.5134663,12.8046286 20.3378949,12.4171152 20.1428155,12.0489774 L19.6063474,12.2621098 C19.7916727,12.5914962 19.9672441,12.9886975 20.1330616,13.4440258 Z M18.5919348,13.7637244 L19.2064347,13.6184069 C19.0698792,13.1146394 18.9040617,12.6399354 18.7284903,12.2136706 L18.1530063,12.3299247 C18.3285777,12.7465016 18.4748872,13.2212056 18.5919348,13.7637244 Z M15.4023875,14.3062433 C15.6559907,13.7540366 15.870578,13.1146394 16.0461494,12.3977395 L15.4511574,12.2427341 C15.256078,12.9790097 15.0317368,13.5990312 14.7683797,14.083423 L15.4023875,14.3062433 Z M17.041054,14.1415501 L17.6750619,13.9962325 C17.5677682,13.3858988 17.4507206,12.8240043 17.3141651,12.310549 L16.7289271,12.4364909 C16.8557286,12.9208827 16.9630223,13.492465 17.041054,14.1415501 Z M32.1011792,14.4806243 L32.462076,13.9381055 C31.9353618,13.434338 31.3501237,12.9983854 30.7063619,12.6302476 L31.9938856,12.6302476 L31.9938856,7.74757804 L30.1991556,7.74757804 L30.1991556,5.58719053 L29.5553938,5.58719053 L29.5553938,7.74757804 L27.7996797,7.74757804 L27.7996797,12.6302476 L30.6088222,12.6302476 L30.2966953,13.1049516 C30.9111952,13.434338 31.5159412,13.8993541 32.1011792,14.4806243 Z M23.8005532,14.2384284 C25.0100451,14.025296 26.1317513,13.7734123 27.1754258,13.4634015 L27.1754258,12.8046286 C26.7267433,12.9402583 26.2780609,13.0565124 25.8196244,13.1727664 L25.8196244,10.2857912 L27.1461639,10.2857912 L27.1461639,9.6270183 L25.8196244,9.6270183 L25.8196244,8.55166846 L26.7267433,8.55166846 L26.7267433,7.9219591 L24.463823,7.9219591 C24.8344737,7.43756728 25.1856165,6.91442411 25.5172514,6.3525296 C25.936672,6.7787944 26.4243704,7.36975242 26.9901005,8.10602799 L27.4387829,7.631324 C26.8730528,6.95317546 26.2878148,6.30409042 25.6830689,5.68406889 L25.2148784,5.68406889 C24.6881642,6.63347686 24.1029262,7.45694295 23.4591644,8.15446717 L23.8395691,8.67761033 C23.9761246,8.52260495 24.1126802,8.35791173 24.2589897,8.18353068 L24.2589897,8.55166846 L25.1563546,8.55166846 L25.1563546,9.6270183 L23.8298151,9.6270183 L23.8298151,10.2857912 L25.1563546,10.2857912 L25.1563546,13.318084 C24.6589023,13.4149623 24.151696,13.5021529 23.6347358,13.5796555 L23.8005532,14.2384284 Z M31.272092,7.53444564 C31.6232348,7.10818084 31.9353618,6.60441335 32.1987189,6.02314316 L31.6427428,5.75188375 C31.3891396,6.29440258 31.0965206,6.76910657 30.7453778,7.16630786 L31.272092,7.53444564 Z M28.5019654,7.54413348 L29.0384335,7.17599569 C28.8140923,6.78848224 28.4922114,6.34284177 28.0825448,5.83907427 L27.5363226,6.17814855 C27.9459892,6.68191604 28.2678701,7.13724435 28.5019654,7.54413348 Z M31.3403698,9.22012917 L28.4434415,9.22012917 L28.4434415,8.36759957 L31.3403698,8.36759957 L31.3403698,9.22012917 Z M31.3403698,10.6151776 L28.4434415,10.6151776 L28.4434415,9.77233584 L31.3403698,9.77233584 L31.3403698,10.6151776 Z M26.6974814,12.6108719 C26.8828068,12.1071044 27.0388703,11.5355221 27.1559179,10.8767492 L26.5999418,10.7217438 C26.4828942,11.4095802 26.3365847,11.9714747 26.1805212,12.4171152 L26.6974814,12.6108719 Z M24.2297278,12.9208827 L24.7759499,12.7755651 C24.6491483,12.0489774 24.5028388,11.4095802 24.3370214,10.8476857 L23.7907992,11.0220667 C23.9663707,11.6227126 24.1126802,12.2621098 24.2297278,12.9208827 Z M31.3403698,12.0199139 L28.4434415,12.0199139 L28.4434415,11.1673843 L31.3403698,11.1673843 L31.3403698,12.0199139 Z M27.6338623,14.4806243 C28.3654098,14.0737352 28.9799097,13.6087191 29.487116,13.0662002 L29.0286796,12.6593111 C28.5409812,13.1533907 27.9362353,13.5893434 27.2241957,13.9574812 L27.6338623,14.4806243 Z M34.4323773,8.68729817 L34.4323773,7.21474704 L41.045567,7.21474704 L41.045567,8.63885899 L41.7283447,8.63885899 L41.7283447,6.57534984 L38.1876547,6.57534984 C38.0510991,6.17814855 37.8950357,5.8196986 37.7389722,5.5 L36.9879167,5.61625404 C37.1634881,5.90688913 37.3293056,6.22658773 37.4756151,6.57534984 L33.7495997,6.57534984 L33.7495997,8.68729817 L34.4323773,8.68729817 Z M33.7203377,14.4515608 C34.2763139,13.8896663 34.7445043,13.1921421 35.124909,12.3589882 C35.5248217,12.9886975 36.0515359,13.4537137 36.6952977,13.7540366 C37.5536468,14.1124865 38.9582181,14.2965554 40.9285194,14.2965554 L42.0209638,14.2965554 L42.1477653,13.5990312 C41.6210511,13.6377826 41.1138448,13.6571582 40.6163925,13.6571582 C39.6409958,13.6474704 38.8216625,13.5893434 38.1388848,13.492465 L38.1388848,11.4870829 L41.045567,11.4870829 L41.045567,10.82831 L38.1388848,10.82831 L38.1388848,9.12325081 L40.6163925,9.12325081 L40.6163925,8.46447793 L34.8810598,8.46447793 L34.8810598,9.12325081 L37.4365992,9.12325081 L37.4365992,13.3471475 C37.3390595,13.3277718 37.2415199,13.2987083 37.1537342,13.2696448 C36.4514485,13.0468245 35.8662105,12.5236814 35.3980201,11.6905274 C35.5735915,11.18676 35.729655,10.6345533 35.8467026,10.0339074 L35.1639249,9.91765339 C34.83229,11.5839612 34.2080361,12.9111948 33.2716553,13.8993541 L33.7203377,14.4515608 Z M50.3996215,14.1609257 C50.8092881,14.1415501 51.131169,14.0349839 51.3457563,13.8315393 C51.5798515,13.5796555 51.7456689,12.8627557 51.8432086,11.6614639 L51.1604309,11.4483315 C51.1019071,12.5139935 50.9751055,13.1340151 50.7800262,13.3083961 C50.6337167,13.4246502 50.4386374,13.4827772 50.2045421,13.4827772 L45.3080507,13.4827772 C44.8593682,13.4827772 44.6350269,13.2599569 44.6350269,12.8336921 L44.6350269,9.97578041 L50.7605183,9.97578041 L50.7605183,6.10064586 L43.5425826,6.10064586 L43.5425826,6.7787944 L50.0484787,6.7787944 L50.0484787,9.3073197 L44.6350269,9.3073197 L44.6350269,7.87351991 L43.9327413,7.87351991 L43.9327413,12.959634 C43.9327413,13.7540366 44.3229,14.1609257 45.1129713,14.1609257 L50.3996215,14.1609257 Z M54.2719464,14.383746 C54.8376765,14.383746 55.1302955,14.1027987 55.1302955,13.5602799 L55.1302955,10.6829925 C55.598486,10.5086114 56.0666764,10.3245425 56.5251128,10.121098 L56.5251128,9.42357374 C56.0666764,9.63670614 55.598486,9.8401507 55.1302955,10.0242196 L55.1302955,8.03821313 L56.3983113,8.03821313 L56.3983113,7.36975242 L55.1302955,7.36975242 L55.1302955,5.61625404 L54.408502,5.61625404 L54.408502,7.36975242 L52.8771291,7.36975242 L52.8771291,8.03821313 L54.408502,8.03821313 L54.408502,10.2761033 C53.8525258,10.4504844 53.2867957,10.5958019 52.7210657,10.7217438 L52.8966371,11.3805167 C53.4038434,11.244887 53.9012957,11.0898816 54.408502,10.9348762 L54.408502,13.376211 C54.408502,13.6184069 54.2817004,13.7443488 54.0280972,13.7443488 C53.7354782,13.7443488 53.4233513,13.7249731 53.0917164,13.7055974 L53.2477799,14.383746 L54.2719464,14.383746 Z M59.139176,14.3643703 C59.724414,14.3643703 60.017033,14.0640474 60.017033,13.4634015 L60.017033,7.02099031 L61.5971757,7.02099031 L61.5971757,6.34284177 L56.7006842,6.34284177 L56.7006842,7.02099031 L59.2952395,7.02099031 L59.2952395,13.2890205 C59.2952395,13.5796555 59.1586839,13.7346609 58.8953268,13.7346609 C58.4173824,13.7346609 57.9199301,13.7152853 57.3932159,13.6959096 L57.5395254,14.3643703 L59.139176,14.3643703 Z M63.6747707,14.383746 L63.6747707,8.92949408 L66.552191,8.92949408 L66.552191,5.86813778 L62.9724851,5.86813778 L62.9724851,14.383746 L63.6747707,14.383746 Z M70.122143,14.3449946 C70.707381,14.3449946 71,14.025296 71,13.3858988 L71,5.87782562 L67.3715242,5.87782562 L67.3715242,8.90043057 L70.3074683,8.90043057 L70.3074683,13.1727664 C70.3074683,13.5409042 70.1611588,13.7346609 69.8685398,13.7346609 C69.5759208,13.7346609 69.2540399,13.7152853 68.9028971,13.6959096 L69.0687145,14.3159311 C69.4198573,14.3353068 69.7710001,14.3449946 70.122143,14.3449946 Z M65.8694133,7.16630786 L63.6747707,7.16630786 L63.6747707,6.42034446 L65.8694133,6.42034446 L65.8694133,7.16630786 Z M70.3074683,7.16630786 L68.0543019,7.16630786 L68.0543019,6.43972013 L70.3074683,6.43972013 L70.3074683,7.16630786 Z M65.8694133,8.36759957 L63.6747707,8.36759957 L63.6747707,7.66038751 L65.8694133,7.66038751 L65.8694133,8.36759957 Z M70.3074683,8.3482239 L68.0543019,8.3482239 L68.0543019,7.66038751 L70.3074683,7.66038751 L70.3074683,8.3482239 Z M64.6696754,14.3353068 C65.2158975,14.083423 65.6158102,13.7249731 65.8499054,13.2696448 C66.0254768,12.9208827 66.1425244,12.48493 66.2010482,11.9714747 L67.7226671,11.9714747 L67.7226671,14.1996771 L68.3664289,14.1996771 L68.3664289,11.9714747 L69.6246906,11.9714747 L69.6246906,11.3514532 L68.3664289,11.3514532 L68.3664289,10.237352 L69.3125637,10.237352 L69.3125637,9.63670614 L64.5818896,9.63670614 L64.5818896,10.237352 L65.6158102,10.237352 L65.6158102,11.3514532 L64.3185325,11.3514532 L64.3185325,11.9714747 L65.5670403,11.9714747 C65.5182705,12.3008611 65.4402388,12.6011841 65.3329451,12.8530678 C65.1378658,13.2405813 64.7964769,13.550592 64.3185325,13.7831001 L64.6696754,14.3353068 Z M67.7226671,11.3514532 L66.249818,11.3514532 L66.249818,10.237352 L67.7226671,10.237352 L67.7226671,11.3514532 Z" id="大寫鎖定已打開" fill="#F79B00"></path>
        </g>
    </g>
</svg>