<?xml version="1.0" encoding="UTF-8"?>
<svg width="81px" height="20px" viewBox="0 0 81 20" version="1.1" xmlns="http://www.w3.org/2000/svg" xmlns:xlink="http://www.w3.org/1999/xlink">
    <!-- Generator: Sketch 64 (93537) - https://sketch.com -->
    <title>大写锁定已打开-英文</title>
    <desc>Created with Sketch.</desc>
    <g id="登陆设计-1366分辨率" stroke="none" stroke-width="1" fill="none" fill-rule="evenodd">
        <g id="大写锁定已打开-英文">
            <path d="M2,0 L5.19230769,0 L5.19230769,0 L11.4230769,0 L17.6538462,0 L79,0 C80.1045695,-2.02906125e-16 81,0.8954305 81,2 L81,18 C81,19.1045695 80.1045695,20 79,20 L2,20 C0.8954305,20 1.3527075e-16,19.1045695 0,18 L0,2 C-1.3527075e-16,0.8954305 0.8954305,2.02906125e-16 2,0 Z" id="矩形" fill="#FFF7E0"></path>
            <path d="M8.147,14.154 C8.983,14.154 9.709,13.912 10.314,13.439 C10.963,12.933 11.37,12.218 11.546,11.305 L10.677,11.305 C10.523,11.987 10.204,12.504 9.742,12.856 C9.302,13.186 8.774,13.351 8.147,13.351 C7.223,13.351 6.53,13.043 6.046,12.438 C5.584,11.866 5.364,11.085 5.364,10.106 C5.364,9.127 5.595,8.346 6.057,7.752 C6.552,7.114 7.256,6.795 8.169,6.795 C8.785,6.795 9.302,6.938 9.731,7.235 C10.171,7.543 10.457,7.983 10.567,8.555 L11.436,8.555 C11.326,7.774 10.974,7.147 10.38,6.685 C9.786,6.223 9.049,5.992 8.18,5.992 C6.97,5.992 6.024,6.399 5.364,7.235 C4.759,7.983 4.462,8.94 4.462,10.106 C4.462,11.272 4.748,12.218 5.342,12.944 C5.991,13.747 6.926,14.154 8.147,14.154 Z M14.362,14.154 C14.89,14.154 15.363,14.033 15.781,13.802 C16.133,13.604 16.43,13.351 16.65,13.043 L16.65,14 L17.475,14 L17.475,10.348 C17.475,9.688 17.299,9.171 16.969,8.797 C16.573,8.368 15.979,8.159 15.165,8.159 C14.483,8.159 13.944,8.291 13.526,8.555 C13.064,8.841 12.767,9.292 12.646,9.886 L13.515,9.952 C13.603,9.589 13.79,9.314 14.087,9.138 C14.351,8.962 14.692,8.885 15.11,8.885 C16.1,8.885 16.595,9.358 16.595,10.315 L16.595,10.612 L15.231,10.634 C14.373,10.645 13.713,10.81 13.251,11.118 C12.723,11.448 12.47,11.932 12.47,12.581 C12.47,13.043 12.646,13.428 12.998,13.725 C13.339,14.011 13.79,14.154 14.362,14.154 Z M14.549,13.461 C14.197,13.461 13.911,13.373 13.691,13.208 C13.471,13.032 13.372,12.823 13.372,12.559 C13.372,11.734 14.01,11.316 15.286,11.294 L16.595,11.272 L16.595,11.756 C16.595,12.196 16.386,12.592 15.979,12.933 C15.561,13.285 15.088,13.461 14.549,13.461 Z M19.719,16.178 L19.719,12.966 C20.159,13.758 20.786,14.154 21.6,14.154 C22.414,14.154 23.041,13.846 23.503,13.252 C23.921,12.702 24.141,12.009 24.141,11.173 C24.141,10.315 23.921,9.622 23.492,9.072 C23.019,8.456 22.37,8.159 21.556,8.159 C20.698,8.159 20.071,8.522 19.664,9.248 L19.664,8.313 L18.839,8.313 L18.839,16.178 L19.719,16.178 Z M21.413,13.428 C20.885,13.428 20.478,13.219 20.17,12.823 C19.84,12.416 19.686,11.888 19.686,11.228 L19.686,11.118 C19.686,10.48 19.829,9.952 20.115,9.556 C20.423,9.105 20.874,8.885 21.446,8.885 C22.051,8.885 22.513,9.105 22.832,9.567 C23.096,9.963 23.239,10.502 23.239,11.173 C23.239,11.855 23.096,12.394 22.81,12.79 C22.491,13.208 22.029,13.428 21.413,13.428 Z M27.397,14.154 C29.003,14.154 29.806,13.56 29.806,12.394 C29.806,11.899 29.575,11.514 29.124,11.228 C28.827,11.041 28.343,10.865 27.661,10.7 C27.089,10.546 26.693,10.425 26.484,10.326 C26.154,10.161 26,9.952 26,9.71 C26,9.457 26.121,9.259 26.363,9.116 C26.583,8.962 26.891,8.896 27.287,8.896 C27.738,8.896 28.09,8.984 28.332,9.16 C28.552,9.314 28.695,9.578 28.772,9.93 L29.63,9.93 C29.476,8.742 28.706,8.159 27.298,8.159 C26.66,8.159 26.132,8.302 25.736,8.588 C25.307,8.874 25.098,9.248 25.098,9.732 C25.098,10.216 25.307,10.579 25.747,10.843 C26.011,11.019 26.484,11.184 27.155,11.349 C27.771,11.503 28.178,11.624 28.365,11.712 C28.717,11.888 28.904,12.13 28.904,12.449 C28.904,13.087 28.387,13.417 27.375,13.417 C26.891,13.417 26.528,13.329 26.286,13.153 C26.044,12.955 25.879,12.636 25.813,12.185 L24.955,12.185 C25.087,13.494 25.901,14.154 27.397,14.154 Z M40.047,14 L40.047,13.219 L35.504,13.219 L35.504,6.146 L34.613,6.146 L34.613,14 L40.047,14 Z M43.512,14.154 C44.359,14.154 45.041,13.857 45.558,13.263 C46.031,12.713 46.273,12.009 46.273,11.162 C46.273,10.304 46.031,9.6 45.547,9.039 C45.041,8.445 44.359,8.159 43.512,8.159 C42.654,8.159 41.983,8.445 41.477,9.039 C40.993,9.6 40.751,10.304 40.751,11.162 C40.751,12.009 40.993,12.713 41.477,13.263 C41.983,13.857 42.654,14.154 43.512,14.154 Z M43.512,13.417 C42.907,13.417 42.434,13.186 42.104,12.724 C41.796,12.306 41.653,11.789 41.653,11.162 C41.653,10.524 41.796,10.007 42.104,9.589 C42.434,9.127 42.907,8.896 43.512,8.896 C44.106,8.896 44.579,9.127 44.931,9.589 C45.228,10.007 45.382,10.524 45.382,11.162 C45.382,11.778 45.228,12.306 44.931,12.724 C44.579,13.186 44.106,13.417 43.512,13.417 Z M49.859,14.154 C50.563,14.154 51.124,13.967 51.553,13.604 C51.993,13.23 52.268,12.669 52.4,11.943 L51.52,11.943 C51.388,12.922 50.827,13.417 49.859,13.417 C49.287,13.417 48.847,13.208 48.55,12.812 C48.242,12.416 48.099,11.866 48.099,11.173 C48.099,10.48 48.253,9.93 48.561,9.523 C48.88,9.105 49.32,8.896 49.87,8.896 C50.321,8.896 50.684,8.995 50.97,9.215 C51.245,9.435 51.421,9.765 51.498,10.205 L52.367,10.205 C52.268,9.512 52.004,8.995 51.564,8.654 C51.135,8.324 50.574,8.159 49.87,8.159 C49.023,8.159 48.352,8.456 47.868,9.061 C47.417,9.611 47.197,10.315 47.197,11.184 C47.197,12.053 47.417,12.757 47.868,13.296 C48.341,13.868 49.001,14.154 49.859,14.154 Z M54.314,14 L54.314,11.987 L55.216,11.173 L57.438,14 L58.571,14 L55.821,10.601 L58.329,8.313 L57.163,8.313 L54.314,10.953 L54.314,5.992 L53.434,5.992 L53.434,14 L54.314,14 Z M66.447,14.154 C67.624,14.154 68.559,13.758 69.241,12.977 C69.879,12.229 70.209,11.272 70.209,10.084 C70.209,8.885 69.879,7.917 69.241,7.169 C68.559,6.377 67.624,5.992 66.458,5.992 C65.27,5.992 64.346,6.388 63.664,7.18 C63.015,7.928 62.696,8.896 62.696,10.084 C62.696,11.261 63.015,12.229 63.664,12.977 C64.346,13.758 65.27,14.154 66.447,14.154 Z M66.447,13.351 C65.545,13.351 64.83,13.043 64.324,12.427 C63.84,11.833 63.598,11.052 63.598,10.084 C63.598,9.105 63.84,8.324 64.324,7.73 C64.841,7.103 65.556,6.795 66.458,6.795 C67.36,6.795 68.064,7.092 68.57,7.697 C69.054,8.291 69.307,9.083 69.307,10.084 C69.307,11.074 69.054,11.855 68.57,12.449 C68.064,13.043 67.349,13.351 66.447,13.351 Z M72.233,14 L72.233,10.568 C72.266,10.051 72.431,9.644 72.739,9.336 C73.025,9.05 73.366,8.907 73.762,8.907 C74.752,8.907 75.258,9.457 75.258,10.568 L75.258,14 L76.138,14 L76.138,10.502 C76.138,8.94 75.423,8.159 74.015,8.159 C73.641,8.159 73.3,8.247 72.992,8.423 C72.684,8.588 72.431,8.83 72.233,9.149 L72.233,8.313 L71.353,8.313 L71.353,14 L72.233,14 Z" id="CapsLockOn" fill="#F79B00" fill-rule="nonzero"></path>
        </g>
    </g>
</svg>