<?xml version="1.0" encoding="UTF-8"?>
<svg width="14px" height="16px" viewBox="0 0 14 16" version="1.1" xmlns="http://www.w3.org/2000/svg" xmlns:xlink="http://www.w3.org/1999/xlink">
    <!-- Generator: Sketch 52.5 (67469) - http://www.bohemiancoding.com/sketch -->
    <title>证书</title>
    <desc>Created with Sketch.</desc>
    <g id="icon" stroke="none" stroke-width="1" fill="none" fill-rule="evenodd">
        <g id="画板" transform="translate(-300.000000, -64.000000)" fill-rule="nonzero">
            <g id="证书" transform="translate(299.000000, 64.000000)">
                <rect id="矩形" x="0" y="0" width="16" height="16"></rect>
                <path d="M2.49998377,1.46774358 L2.49998377,14.5322564 L13.5000162,14.5322564 L13.5000162,1.46774358 L2.49998377,1.46774358 Z M2.50000135,0.5 L13.5000162,0.5 C14.0522949,0.500009395 14.5,0.933280203 14.5,1.46774358 L14.5,14.5322564 C14.5,14.7889209 14.3946406,15.0350729 14.2071002,15.2165605 C14.0195597,15.3980481 13.765201,15.5000045 13.4999811,15.5 L2.50001893,15.5 C2.23479904,15.5000045 1.98044026,15.3980481 1.79289983,15.2165605 C1.6053594,15.0350729 1.5,14.7889209 1.5,14.5322564 L1.5,1.46774358 C1.5,1.21107908 1.6053594,0.964927134 1.79289983,0.783439518 C1.98044026,0.601951903 2.23479904,0.499995488 2.50001893,0.5 L2.50000135,0.5 Z M11.1269884,7.95936052 C11.3144029,8.14026633 11.5682897,8.24188152 11.8329957,8.24193164 L11.9595054,8.24193164 C12.1028075,8.24205804 12.240285,8.18705642 12.3416611,8.08903986 C12.4430371,7.9910233 12.4999974,7.85803066 12.4999973,7.71935113 L12.4999973,1.46774358 L11.4999959,1.46774358 L11.4999959,6.95628492 L10.2070026,5.70500058 C9.81650229,5.32721148 9.18350176,5.32721148 8.79300148,5.70500058 L7.50000811,6.95628492 L7.50000811,1.46774358 L6.49998918,1.46774358 L6.49998918,7.71741187 C6.49998918,8.00726373 6.74249685,8.24193164 7.04199276,8.24193164 L7.16999659,8.24193164 C7.43511675,8.24200297 7.6894157,8.14018709 7.87698836,7.9588672 L9.14700712,6.73080299 C9.34219776,6.54222664 9.65831606,6.54222664 9.8535067,6.73080299 L11.1270059,7.95985384 L11.1269884,7.95936052 Z" id="形状" fill="#BFC4CA"></path>
            </g>
        </g>
    </g>
</svg>