<?xml version="1.0" encoding="UTF-8"?>
<svg width="16px" height="16px" viewBox="0 0 16 16" version="1.1" xmlns="http://www.w3.org/2000/svg" xmlns:xlink="http://www.w3.org/1999/xlink">
    <title>电话</title>
    <g id="页面-1" stroke="none" stroke-width="1" fill="none" fill-rule="evenodd" opacity="0.802121185">
        <g id="GS7-登录后" transform="translate(-1018.000000, -8.000000)" fill-rule="nonzero">
            <g id="编组-24" transform="translate(1018.000000, 7.000000)">
                <g id="电话" transform="translate(0.000000, 1.000000)">
                    <rect id="矩形" fill="#000000" opacity="0" x="0" y="0" width="16" height="16"></rect>
                    <path d="M4.44506667,2.00853333 C2.3096,3.60186666 2.04506667,7.09786666 3.94453333,10.6218667 C5.8008,14.0650667 8.7424,15.8944 11.784,14.9552 C12.5746667,14.7112 13.3333333,14.0354667 13.3333333,13.2744 C13.3336,11.9514667 11.8197333,9.31706667 10.6858667,9.11253333 C10.3677333,9.05546666 9.9832,9.17013333 9.4112,9.41706667 C9.352,9.44266667 9.2912,9.4696 9.2288,9.49786667 L9.0864,9.56346667 C8.9472,9.62826667 8.83013333,9.68506667 8.6312,9.78346667 L8.5456,9.8256 L8.5416,9.82186667 C8.50560563,9.78697754 8.47100097,9.75068268 8.43786667,9.71306667 C8.27386667,9.528 8.08053334,9.25546667 7.8856,8.93493333 L7.82906667,8.84053333 C7.5672,8.39786666 7.33466667,7.9216 7.18346667,7.5248 L7.16933333,7.48666667 L7.53066667,7.332 C7.60533334,7.3 7.67653334,7.26826667 7.7512,7.23493333 L7.96186667,7.13973333 L8.124,7.06426667 C8.53466667,6.86986667 8.7784,6.72906667 8.91546667,6.58 C9.69866667,5.72746667 8.14613333,1.61066667 6.87226667,1.37333333 C6.1144,1.232 5.19866667,1.47813333 4.51946667,1.95466667 L4.4448,2.00853333 L4.44506667,2.00853333 Z M6.6768,2.42186667 C6.83946667,2.45226667 7.3136,3.18453334 7.6696,4.12853333 C7.84746667,4.59973333 7.98213333,5.0752 8.04506667,5.4504 L8.05573333,5.51546667 C8.07281,5.62130923 8.08207945,5.72826436 8.08346667,5.83546667 L8.08186667,5.88453333 L8.01466667,5.9232 L7.97786667,5.94373333 C7.86,6.00773333 7.704,6.08426666 7.516,6.17066667 L7.20666667,6.3096 C7.09733334,6.3576 6.98693334,6.4056 6.85173333,6.46293333 L6.36106667,6.67173333 L6.288,6.70586667 L6.26346667,6.71893333 L6.2496,6.70506667 C6.22026667,6.68506667 6.19493333,6.75653334 5.99973333,7.31093333 C6.32373333,8.69866666 7.69253333,10.9506667 8.53306667,10.952 L8.6368,10.9405333 C8.65893333,10.9378667 8.67146667,10.9354667 8.68293333,10.9322667 L8.75386667,10.9069333 L8.81493333,10.8805333 L9.03493333,10.7738667 L9.40906667,10.5906667 C9.46666667,10.5632 9.52106667,10.5373333 9.58186667,10.5093333 L9.75253333,10.432 L9.83413333,10.3962667 C9.99685551,10.3239314 10.1635189,10.2608094 10.3333333,10.2072 L10.3928,10.1906667 C10.4648,10.1714667 10.5074667,10.1642667 10.4968,10.1624 C11.0301333,10.2584 12.2669333,12.4104 12.2666667,13.2744 C12.2666667,13.4557333 11.8645333,13.8141333 11.4693333,13.9362667 C9,14.6986667 6.52426666,13.1592 4.88346667,10.1154667 C3.2104,7.01226667 3.43146667,4.09573334 5.08293333,2.86346667 C5.54266666,2.52026667 6.2032,2.3336 6.6768,2.42186667 L6.6768,2.42186667 Z" id="形状" fill="#FFFFFF"></path>
                    <path d="M10.4704,1.18666667 C11.9232,2.37066667 12.3477333,4.17626667 11.7189333,5.95813333 L11.6842667,6.0536 L10.6853333,5.67973333 C11.1984,4.30826666 10.9173333,2.9736 9.86453333,2.0704 L9.79626667,2.01333333 L10.4704,1.18666667 Z" id="路径" fill="#FFFFFF"></path>
                </g>
            </g>
        </g>
    </g>
</svg>