<?xml version="1.0" encoding="UTF-8"?>
<svg width="126px" height="50px" viewBox="0 0 126 50" version="1.1" xmlns="http://www.w3.org/2000/svg" xmlns:xlink="http://www.w3.org/1999/xlink">
    <!-- Generator: Sketch 64 (93537) - https://sketch.com -->
    <title>logo</title>
    <desc>Created with Sketch.</desc>
    <g id="系统设置" stroke="none" stroke-width="1" fill="none" fill-rule="evenodd">
        <g id="Farris系统设置页面选择横向导航时" transform="translate(-415.000000, -660.000000)">
            <g id="logo" transform="translate(415.000000, 660.000000)">
                <rect id="矩形" fill="#F6F7F9" x="0" y="0" width="126" height="50" rx="4"></rect>
                <g id="标准产品框架logo-2" transform="translate(19.000000, 17.000000)" fill="#0091FF" fill-rule="nonzero" opacity="0.9">
                    <g id="编组">
                        <path d="M8.47058824,15.2752941 C4.38588235,15.2752941 0,13.3929412 0,8.03764706 C0,1.23294118 6.48470588,0.705882353 8.47058824,0.705882353 C9.79498342,0.674101724 11.1153106,0.864992395 12.3764706,1.27058824 C12.3891179,1.28297998 12.3962449,1.29994088 12.3962449,1.31764706 C12.3962449,1.33535324 12.3891179,1.35231414 12.3764706,1.36470588 L11.7835294,3.69882353 C10.6161712,3.37624268 9.4167295,3.18370072 8.20705882,3.12470588 L7.92470588,3.12470588 C6.62108179,3.08421791 5.35540444,3.56675115 4.40960132,4.46482214 C3.46379821,5.36289314 2.9164263,6.60190947 2.88941176,7.90588235 C2.88941176,10.8705882 5.13882353,12.9411765 8.35764706,12.9411765 L8.53647059,12.9411765 C8.90842295,12.9360333 9.27954546,12.9045822 9.64705882,12.8470588 C9.96031152,12.8040361 10.1912608,12.5325694 10.1835294,12.2164706 L10.1835294,10.1647059 C10.1835294,9.89441123 9.9644123,9.67529412 9.69411765,9.67529412 L7.46352941,9.67529412 L7.38823529,9.58117647 L7.95294118,7.43529412 L12.3482353,7.37882353 C12.5249664,7.37882353 12.6682558,7.52209241 12.6682558,7.69882353 L12.6682558,14.3905882 C12.6700878,14.5757343 12.5460557,14.7385263 12.3670588,14.7858824 C11.0926018,15.1049019 9.78435277,15.269223 8.47058824,15.2752941 Z" id="路径"></path>
                        <path d="M23.5294118,3.87764706 C23.5150487,3.92491756 23.4807666,3.96356317 23.435546,3.98346024 C23.3903254,4.00335731 23.3386723,4.00252322 23.2941176,3.98117647 C22.3996231,3.49284576 21.3955586,3.24021018 20.3764706,3.24705882 C18.9647059,3.24705882 18.08,3.71764706 18.08,4.78117647 C18.08,5.58117647 18.5694118,5.92 19.7552941,6.40941176 L21.4964706,7.13411765 C23.3317647,7.90588235 24.6211765,8.96 24.6211765,11.1152941 C24.6211765,13.8258824 22.6729412,15.3788235 19.5670588,15.3788235 C18.1639934,15.4043942 16.7765552,15.080982 15.5294118,14.4376471 C15.4741716,14.4083205 15.4410828,14.349496 15.4447059,14.2870588 L15.4447059,11.8964706 C15.4419039,11.8393813 15.4716644,11.7856269 15.5215351,11.7576993 C15.5714059,11.7297717 15.6327887,11.7324858 15.68,11.7647059 C16.9176326,12.4960122 18.3271826,12.8857495 19.7647059,12.8941176 C21.1294118,12.8941176 21.8541176,12.3952941 21.8541176,11.2376471 C21.8541176,10.4941176 21.2329412,10.0988235 19.9717647,9.54352941 L18.0894118,8.73411765 C16.40327,8.24542545 15.278711,6.65620493 15.3788235,4.90352941 C15.3129412,2.35294118 17.28,0.715294118 20.7058824,0.715294118 C21.8557966,0.704082802 22.9948719,0.938315184 24.0470588,1.40235294 C24.1174041,1.43606099 24.1531893,1.51558373 24.1317647,1.59058824 L23.5294118,3.87764706 Z" id="路径"></path>
                        <path d="M39.5294118,15.3317647 C37.4942393,15.363053 35.5183493,14.6463742 33.9764706,13.3176471 C32.4761479,11.9905371 31.6247218,10.0782615 31.6423529,8.07529412 C31.6329412,2.97411765 35.84,0.658823529 39.7458824,0.658823529 L40.16,0.658823529 C41.182158,0.688100707 42.1968345,0.842989028 43.1811765,1.12 C43.2584632,1.14677265 43.300248,1.23034235 43.2752941,1.30823529 L42.6917647,3.56705882 C42.6750544,3.63190946 42.6175253,3.67793275 42.5505882,3.68 C41.6359106,3.39113619 40.6858081,3.22961876 39.7270588,3.2 L39.5294118,3.2 C36.886376,3.16816977 34.707097,5.26363032 34.6352941,7.90588235 C34.5936546,9.17141334 35.0773925,10.3977913 35.9717647,11.2941176 C37.0624594,12.3425844 38.5250351,12.9147494 40.0376471,12.8847059 C41.0461997,12.8599751 42.0403262,12.6394132 42.9647059,12.2352941 L42.9647059,12.2352941 C43.0776471,12.2352941 43.1435294,12.2917647 43.1435294,12.3764706 L43.1435294,14.5788235 C43.1457954,14.6385179 43.1125614,14.6939079 43.0588235,14.72 C42.0374285,15.1097421 40.952002,15.3044804 39.8588235,15.2941176 L39.5294118,15.3317647 Z" id="路径"></path>
                        <path d="M62.5223529,9.92941176 C62.6096281,11.4322099 62.0466759,12.9000097 60.9768572,13.959022 C59.9070386,15.0180344 58.4335993,15.5660565 56.9317647,15.4635294 C55.4299301,15.5660565 53.9564908,15.0180344 52.8866722,13.959022 C51.8168536,12.9000097 51.2539013,11.4322099 51.3411765,9.92941176 C51.2623143,8.43137972 51.8289795,6.97133182 52.897781,5.91872428 C53.9665825,4.86611675 55.4351112,4.32180704 56.9317647,4.42352941 C58.4292204,4.31869562 59.8995885,4.86198885 60.9691127,5.91530819 C62.038637,6.96862752 62.6043139,8.43053014 62.5223529,9.92941176 Z M54.0517647,9.92941176 C54.0517647,11.6517647 55.0494118,13.1388235 56.9505882,13.1388235 C58.8517647,13.1388235 59.8494118,11.6517647 59.8494118,9.92941176 C59.9374319,8.83799652 59.4049719,7.78964617 58.471735,7.21693012 C57.5384981,6.64421407 56.3626784,6.64421407 55.4294415,7.21693012 C54.4962046,7.78964617 53.9637446,8.83799652 54.0517647,9.92941176 L54.0517647,9.92941176 Z" id="形状"></path>
                        <path d="M73.5341176,15.1529412 L71.3694118,15.1529412 C71.3153203,15.1530025 71.2635673,15.1308921 71.2262184,15.0917647 C71.1888696,15.0526374 71.1691889,14.9999125 71.1717647,14.9458824 L71.1717647,13.92 C70.5009753,14.9163855 69.3361638,15.4626169 68.1411765,15.3411765 C65.9482353,15.3411765 64.6682351,13.8447059 64.6682351,11.5764706 L64.6682351,4.92235294 C64.6681097,4.82196075 64.7467921,4.73913718 64.8470588,4.73411765 L67.1529412,4.73411765 C67.2569007,4.73411765 67.3411765,4.81839346 67.3411765,4.92235294 L67.3411765,10.9458824 C67.3411765,12.1505882 67.9152941,12.9411765 69.1011765,12.9411765 C70.2870588,12.9411765 71.0682353,12.1694118 71.0682353,10.5505882 L71.0682353,4.90352941 C71.0656508,4.85449382 71.0833439,4.80655298 71.117164,4.77095287 C71.1509841,4.73535275 71.1979552,4.71529395 71.2470588,4.71529395 L73.5529412,4.71529395 C73.6020448,4.71529395 73.6490159,4.73535275 73.682836,4.77095287 C73.7166561,4.80655298 73.7343492,4.85449382 73.7317647,4.90352941 L73.7317647,14.9647059 C73.7348337,15.0171952 73.714647,15.0683752 73.6765726,15.1046366 C73.6384982,15.1408979 73.5863949,15.1585654 73.5341176,15.1529412 Z" id="路径"></path>
                        <path d="M46.1176471,0.941172554 L48.6305882,0.941172554 C48.7154051,0.941029609 48.7855991,1.00709462 48.7905882,1.09176471 L48.7905882,15.0023529 C48.7855991,15.087023 48.7154051,15.153088 48.6305882,15.1529414 L46.1176471,15.1529414 C46.0328302,15.153088 45.9626362,15.087023 45.9576471,15.0023529 L45.9576471,1.08235294 C45.9672345,1.00140903 46.0361393,0.940610657 46.1176471,0.941172554 L46.1176471,0.941172554 Z" id="路径"></path>
                        <path d="M87.5858824,-3.59955121e-16 L85.0823529,-3.59955121e-16 C84.9975361,-0.000292858714 84.927342,0.0659181469 84.9223529,0.150588235 L84.9223529,5.11058824 C84.015234,4.64272878 83.0064085,4.40668947 81.9858824,4.42352941 C80.4892288,4.32180704 79.0207002,4.86611675 77.9518987,5.91872428 C76.8830972,6.97133182 76.3164319,8.43137972 76.3952941,9.92941176 C76.3080189,11.4322099 76.8709712,12.9000097 77.9407898,13.959022 C79.0106085,15.0180344 80.4840477,15.5660565 81.9858824,15.4635294 C83.0064085,15.4803694 84.015234,15.24433 84.9223529,14.7764706 L84.9223529,14.9647059 C84.927342,15.049376 84.9975361,15.115441 85.0823529,15.1152941 L87.5858824,15.1152941 C87.6283351,15.1178651 87.6700647,15.103428 87.7018524,15.0751722 C87.7336402,15.0469164 87.7528701,15.0071673 87.7552941,14.9647059 L87.7552941,0.150588235 C87.7528701,0.1081268 87.7336402,0.0683776871 87.7018524,0.0401219144 C87.6700647,0.0118661417 87.6283351,-0.00257093276 87.5858824,-3.59955121e-16 Z M81.9388235,13.1764706 C80.0564706,13.1764706 79.04,11.6894118 79.04,9.96705882 C78.9519799,8.87564358 79.4844399,7.82729323 80.4176768,7.25457718 C81.3509137,6.68186113 82.5267334,6.68186113 83.4599703,7.25457718 C84.3932072,7.82729323 84.9256672,8.87564358 84.8376471,9.96705882 C84.8847059,11.6517647 83.8964706,13.1764706 81.9858824,13.1764706 L81.9388235,13.1764706 Z" id="形状"></path>
                    </g>
                </g>
            </g>
        </g>
    </g>
</svg>