<?xml version="1.0" encoding="UTF-8"?>
<svg width="280px" height="150px" viewBox="0 0 280 150" version="1.1" xmlns="http://www.w3.org/2000/svg" xmlns:xlink="http://www.w3.org/1999/xlink">
    <!-- Generator: Sketch 61.2 (89653) - https://sketch.com -->
    <title>Group 2</title>
    <desc>Created with Sketch.</desc>
    <g id="Page-1" stroke="none" stroke-width="1" fill="none" fill-rule="evenodd">
        <g id="浏览器错误提醒备份-2" transform="translate(-543.000000, -120.000000)">
            <g id="Group-2" transform="translate(543.000000, 120.000000)">
                <g id="diannao" transform="translate(56.730769, 0.000000)" fill-rule="nonzero">
                    <path d="M39.2371836,134.536315 L125.241514,134.536315 C126.662694,134.536315 127.854652,133.505903 127.854652,132.246512 L127.854652,128.582826 C127.854652,127.323435 126.685617,128.124866 125.241514,128.124866 L39.2371836,128.124866 C37.8160033,128.124866 36.6240456,124.255098 36.6240456,130.414669 L36.6240456,132.246512 C36.6240456,133.528801 37.8160033,134.536315 39.2371836,134.536315 Z" id="Shape" fill="#27A1FF"></path>
                    <polygon id="Shape" fill="#91CDFF" points="66.996044 111.08873 97.4826536 111.08873 97.4826536 128.834705 66.996044 128.834705"></polygon>
                    <polygon id="Shape" fill="#3D9EE9" points="66.996044 111.08873 97.4826536 111.08873 97.4826536 114.248658 66.996044 114.248658"></polygon>
                    <path d="M4.53287749,0.216457961 L159.94582,0.216457961 C162.37558,0.216457961 164.392739,2.30017889 164.392739,4.8647585 L164.392739,106.463327 C164.392739,109.027907 162.398502,111.111628 159.94582,111.111628 L4.53287749,111.111628 C2.10311762,111.111628 0.085958486,109.027907 0.085958486,106.463327 L0.085958486,4.84186047 C0.085958486,2.30017889 2.08019536,0.216457961 4.53287749,0.216457961 Z" id="Shape" fill="#B7DEFF"></path>
                    <path d="M4.53287749,0.216457961 L159.94582,0.216457961 C162.37558,0.216457961 164.392739,2.30017889 164.392739,4.8647585 L164.392739,93.1595707 C164.392739,95.7241503 162.398502,97.8078712 159.94582,97.8078712 L4.53287749,97.8078712 C2.10311762,97.8078712 0.085958486,95.7241503 0.085958486,93.1595707 L0.085958486,4.8647585 C0.085958486,2.30017889 2.08019536,0.216457961 4.53287749,0.216457961 Z" id="Shape" fill="#27A1FF"></path>
                    <path d="M159.94582,0.216457961 L155.819813,0.216457961 C158.249573,0.216457961 160.266732,2.59785331 160.266732,5.48300537 L160.266732,105.822182 C160.266732,108.730233 158.272495,111.08873 155.819813,111.08873 L159.94582,111.08873 C162.37558,111.08873 164.392739,109.073703 164.392739,106.165653 L164.415661,5.46010733 C164.392739,2.57495528 162.398502,0.216457961 159.94582,0.216457961 Z" id="Shape" fill="#1C89DC"></path>
                    <path d="M160.266732,97.8078712 L160.266732,105.822182 C160.266732,108.730233 158.272495,111.08873 155.819813,111.08873 L159.94582,111.08873 C160.9544,111.08873 161.87129,110.745259 162.627725,110.127013 C163.682149,109.256887 164.392739,107.860107 164.392739,106.142755 L164.392739,97.7620751 L160.266732,97.8078712 L160.266732,97.8078712 Z" id="Shape" fill="#A1D4FF"></path>
                    <polygon id="Shape" fill="#F6FCFF" points="106.628637 5.75778175 5.63314611 5.75778175 5.63314611 92.2665474 158.822629 92.2665474 158.822629 5.75778175"></polygon>
                    <path d="M39.2371836,130.574955 L125.241514,130.574955 C126.662694,130.574955 127.854652,129.544544 127.854652,128.285152 L127.854652,126.453309 C127.854652,125.193918 126.685617,124.163506 125.241514,124.163506 L39.2371836,124.163506 C37.8160033,124.163506 36.6240456,125.193918 36.6240456,126.453309 L36.6240456,128.285152 C36.6240456,129.544544 37.8160033,130.574955 39.2371836,130.574955 Z" id="Shape" fill="#91CDFF"></path>
                    <path d="M145.092194,106.623614 L153.481742,106.623614 C154.6737,106.623614 155.636435,105.661896 155.636435,104.471199 L155.636435,104.127728 C155.636435,102.93703 154.6737,101.975313 153.481742,101.975313 L145.092194,101.975313 C143.900236,101.975313 142.937501,102.93703 142.937501,104.127728 L142.937501,104.471199 C142.914579,105.661896 143.900236,106.623614 145.092194,106.623614 Z" id="Shape" fill="#E7F5FD"></path>
                </g>
                <g id="Group" transform="translate(0.000000, 146.153846)" fill="#27A1FF">
                    <rect id="Rectangle-2" x="0.603439183" y="0" width="27.8846154" height="3.84615385" rx="1.92307692"></rect>
                    <path d="M35.2188238,0 L40.9880546,0 C42.0501406,-1.30532507e-15 42.9111315,0.860990866 42.9111315,1.92307692 C42.9111315,2.98516298 42.0501406,3.84615385 40.9880546,3.84615385 L35.2188238,3.84615385 C34.1567377,3.84615385 33.2957469,2.98516298 33.2957469,1.92307692 C33.2957469,0.860990866 34.1567377,1.95102044e-16 35.2188238,0 Z" id="Rectangle-2-Copy"></path>
                    <path d="M46.7572853,0 L230.769231,0 C231.831317,1.24121794e-14 232.692308,0.860990866 232.692308,1.92307692 C232.692308,2.98516298 231.831317,3.84615385 230.769231,3.84615385 L46.7572853,3.84615385 C45.6951993,3.84615385 44.8342084,2.98516298 44.8342084,1.92307692 C44.8342084,0.860990866 45.6951993,1.95102044e-16 46.7572853,0 Z" id="Rectangle-2-Copy-2"></path>
                    <path d="M239.423077,0 L250,0 C251.062086,-1.95102044e-16 251.923077,0.860990866 251.923077,1.92307692 C251.923077,2.98516298 251.062086,3.84615385 250,3.84615385 L239.423077,3.84615385 C238.360991,3.84615385 237.5,2.98516298 237.5,1.92307692 C237.5,0.860990866 238.360991,1.95102044e-16 239.423077,0 Z" id="Rectangle-2-Copy-3"></path>
                    <path d="M256.730769,0 L277.884615,0 C278.946701,2.69425613e-17 279.807692,0.860990866 279.807692,1.92307692 C279.807692,2.98516298 278.946701,3.84615385 277.884615,3.84615385 L256.730769,3.84615385 C255.668683,3.84615385 254.807692,2.98516298 254.807692,1.92307692 C254.807692,0.860990866 255.668683,1.95102044e-16 256.730769,0 Z" id="Rectangle-2-Copy-4"></path>
                </g>
                <g id="liulanqi" opacity="0.800000012" transform="translate(105.769231, 15.384615)" fill-rule="nonzero">
                    <path d="M23.7861121,33.7602014 C23.7861121,39.0475777 28.1717717,43.4233374 33.4711103,43.4233374 C38.770449,43.4233374 43.1561086,39.0475777 43.1561086,33.7602014 C43.1561086,28.4728251 38.770449,24.0970655 33.4711103,24.0970655 C28.1717717,24.0970655 23.7861121,28.4728251 23.7861121,33.7602014 Z" id="Shape" fill="#BBBBBB"></path>
                    <path d="M33.4711103,18.9920125 L63.9879916,18.9920125 C58.5059172,7.68796666 46.9935607,0.03038722 33.6538462,0.03038722 C23.9688479,0.03038722 15.1975287,4.04150026 9.16724678,10.6051398 L19.5831883,28.8374718 C21.5932823,23.1854489 27.0753568,18.9920125 33.4711103,18.9920125 Z" id="Shape" fill="#F75B60"></path>
                    <path d="M36.3948834,48.1637437 C35.4812043,48.346067 34.3847894,48.5283903 33.4711103,48.5283903 C28.1717717,48.5283903 23.6033763,45.7935405 21.0450748,41.7824275 L5.69526627,14.9808995 C2.04054995,20.2682757 0.0304559694,26.6495919 0.0304559694,33.5778781 C0.0304559694,49.8046536 11.5428124,63.2965793 26.892621,66.3960757 L26.1616777,66.0314291 L36.3948834,48.1637437 Z" id="Shape" fill="#00D19C"></path>
                    <path d="M65.8153498,24.0970655 L44.6179951,24.0970655 C46.8108249,26.6495919 48.2727115,30.113735 48.2727115,33.7602014 C48.2727115,36.6773745 47.5417682,39.229901 46.0798817,41.6001042 L31.2782805,67.125369 C32.0092238,67.125369 32.9229029,67.3076923 33.6538462,67.3076923 C52.2928994,67.3076923 67.2772363,52.3571801 67.2772363,33.7602014 C67.2772363,30.2960583 66.7290289,27.0142386 65.8153498,24.0970655 L65.8153498,24.0970655 Z" id="Shape" fill="#FCA253"></path>
                </g>
                <path d="M254.873425,124.055137 C254.096583,124.558117 254.092813,125.399417 254.837131,125.961414 L269.230769,125.961538 C271.885984,125.961538 274.038462,128.114016 274.038462,130.769231 C274.038462,133.424446 271.885984,135.576923 269.230769,135.576923 L250,135.576923 C247.344785,135.576923 245.192308,133.424446 245.192308,130.769231 C245.192308,128.114016 247.344785,125.961538 250,125.961538 L250.023231,125.961077 L250.120285,125.88597 C251.170443,125.000869 250.15779,124.14119 250.007768,124.059768 L249.998231,124.055077 L254.873425,124.055137 L254.873425,124.055137 Z M254.807692,114.423077 C257.462907,114.423077 259.615385,116.575554 259.615385,119.230769 C259.615385,121.885984 257.462907,124.038462 254.807692,124.038462 L235.576923,124.038462 C232.921708,124.038462 230.769231,121.885984 230.769231,119.230769 C230.769231,116.575554 232.921708,114.423077 235.576923,114.423077 L254.807692,114.423077 Z" id="Combined-Shape" fill="#C8EBFF"></path>
                <circle id="Oval-Copy" stroke="#27A1FF" stroke-width="3" cx="227.884615" cy="140.384615" r="2.88461538"></circle>
                <circle id="Oval-Copy-2" fill="#BCE2FF" cx="49.0384615" cy="140.384615" r="2.88461538"></circle>
                <path d="M26.9230769,129.807692 L36.5384615,129.807692 C39.1936767,129.807692 41.3461538,131.960169 41.3461538,134.615385 C41.3461538,137.2706 39.1936767,139.423077 36.5384615,139.423077 L26.9230769,139.423077 C24.2678618,139.423077 22.1153846,137.2706 22.1153846,134.615385 C22.1153846,131.960169 24.2678618,129.807692 26.9230769,129.807692 Z" id="Rectangle-5" fill="#27A1FF" opacity="0.5"></path>
            </g>
        </g>
    </g>
</svg>