<?xml version="1.0" encoding="UTF-8"?>
<svg width="32px" height="32px" viewBox="0 0 32 32" version="1.1" xmlns="http://www.w3.org/2000/svg" xmlns:xlink="http://www.w3.org/1999/xlink">
    <!-- Generator: Sketch 53.2 (72643) - https://sketchapp.com -->
    <title>分组 10</title>
    <desc>Created with Sketch.</desc>
    <g id="Page-1" stroke="none" stroke-width="1" fill="none" fill-rule="evenodd">
        <g id="启动台" transform="translate(-20.000000, -84.000000)">
            <g id="分组-10" transform="translate(20.000000, 84.000000)">
                <g id="分组-11" fill="#F7962A">
                    <rect id="Rectangle-2" x="0" y="0" width="32" height="32" rx="4"></rect>
                </g>
                <g id="应用" transform="translate(5.000000, 4.000000)" fill="#FFFFFF" fill-rule="nonzero">
                    <path d="M1.13531981,5.17926005 L9.66670755,0.300882329 C10.3681974,-0.10029411 11.2326135,-0.10029411 11.9341034,0.300882329 L20.4663021,5.17926005 C21.1677367,5.58034103 21.5998672,6.32136079 21.6,7.12333158 L21.6,16.8766078 C21.6000344,17.678623 21.1678591,18.4197196 20.4663021,18.8206794 L11.9341034,23.6993247 C11.2325388,24.1002251 10.3682721,24.1002251 9.66670755,23.6993247 L1.13531981,18.8206794 C0.433138452,18.4201279 0.000299951282,17.6789544 0,16.8766078 L0,7.12199343 C0.000949916984,6.32016961 0.43367878,5.57969384 1.13531981,5.17926005 Z M10.8552793,21.8473182 L19.4401892,16.8768755 L19.3861264,7.030196 L10.7466129,2.15262116 L2.16062172,7.12199343 L2.21468457,16.9686729 L10.7466129,21.8459801 C10.7630131,21.8555079 10.7816611,21.8605852 10.8006758,21.8606998 L10.8552793,21.8473182 Z" id="形状"></path>
                    <path d="M9.69194651,10.6571482 L6.50789456,8.72494881 C5.83070181,8.31386532 5.83070181,7.28642386 6.50789456,6.87534036 L9.69194651,4.94314101 C10.006244,4.75228633 10.3935653,4.75228633 10.7078628,4.94314101 L13.8919147,6.87534036 C14.5693618,7.28642386 14.5693618,8.31386532 13.8919147,8.72494881 L10.7078628,10.6571482 C10.3934671,10.8476173 10.0063422,10.8476173 9.69194651,10.6571482 L9.69194651,10.6571482 Z" id="路径"></path>
                    <path d="M10.8557395,8.57043168 L12,7.88547787 L10.8557395,7.2 L9.71147909,7.88547787 L10.8557395,8.57043168 Z M9.98301993,13.163081 L9.98301993,16.9512896 C9.98301993,17.7573026 9.14187482,18.2614537 8.46921134,17.8579232 L5.30519225,15.9636879 C4.99274804,15.7769335 4.8001477,15.4313869 4.8,15.0573163 L4.8,11.2688457 C4.8,10.4628327 5.6411451,9.95868159 6.31380859,10.3622121 L9.47782767,12.2564474 C9.79035006,12.4432485 9.98296251,12.7889168 9.98301993,13.163081 Z" id="形状"></path>
                    <path d="M7.22456948,13.4300495 L6.00027032,12.6898654 L6,14.1699505 L7.22483981,14.9095687 L7.22456948,13.4300495 L7.22456948,13.4300495 Z M11.7952143,11.7983058 L15.1799459,9.75317964 C15.9000901,9.31801028 16.8,9.86183051 16.8,10.7321692 L16.8,14.8227046 C16.7999536,15.2266602 16.5938058,15.5998382 16.2593512,15.8014112 L12.8748899,17.8468204 C12.1547457,18.2819897 11.2548358,17.7381695 11.2548358,16.8678308 L11.2548358,12.7772954 C11.2547857,12.3733129 11.4608209,12.0000442 11.7952143,11.7983058 Z" id="形状"></path>
                    <polygon id="路径" points="13.2002649 14.0003059 13.2 15.6 14.4 14.8003059 14.4 13.2 13.2002649 14.0003059"></polygon>
                </g>
            </g>
        </g>
    </g>
</svg>