<?xml version="1.0" encoding="UTF-8"?>
<svg width="16px" height="16px" viewBox="0 0 16 16" version="1.1" xmlns="http://www.w3.org/2000/svg" xmlns:xlink="http://www.w3.org/1999/xlink">
    <!-- Generator: Sketch 64 (93537) - https://sketch.com -->
    <title>执行完成</title>
    <desc>Created with Sketch.</desc>
    <g id="页面-1" stroke="none" stroke-width="1" fill="none" fill-rule="evenodd">
        <g id="单任务列表展示页面" transform="translate(-732.000000, -441.000000)" fill="#51BD78" fill-rule="nonzero">
            <g id="列表" transform="translate(226.000000, 266.000000)">
                <g id="编组-18" transform="translate(14.000000, 12.000000)">
                    <g id="编组-16备份" transform="translate(24.000000, 161.000000)">
                        <g id="执行完成" transform="translate(468.000000, 2.000000)">
                            <path d="M8,0 C12.418278,-8.11624501e-16 16,3.581722 16,8 C16,12.418278 12.418278,16 8,16 C3.581722,16 5.41083001e-16,12.418278 0,8 C-5.41083001e-16,3.581722 3.581722,8.11624501e-16 8,0 Z M12.3200143,5.2000061 C12.0549171,4.84654319 11.5534759,4.77490873 11.200013,5.04000591 L11.200013,5.04000591 L6.88000806,9.36001096 L5.36000629,7.84000919 C5.02863559,7.53072914 4.50928499,7.54863854 4.20000494,7.88000924 C3.89072489,8.21137993 3.90863429,8.73073054 4.24000499,9.04001059 L4.24000499,9.04001059 L6.32000738,11.0400129 C6.63108275,11.3449273 7.12893333,11.3449273 7.44000869,11.0400129 L7.44000869,11.0400129 L12.3200144,6.16000721 C12.5333473,5.87556313 12.5333473,5.48445018 12.3200143,5.2000061 Z" id="形状结合"></path>
                        </g>
                    </g>
                </g>
            </g>
        </g>
    </g>
</svg>