<?xml version="1.0" encoding="UTF-8"?>
<svg width="26px" height="30px" viewBox="0 0 26 30" version="1.1" xmlns="http://www.w3.org/2000/svg" xmlns:xlink="http://www.w3.org/1999/xlink">
    <!-- Generator: Sketch 49.3 (51167) - http://www.bohemiancoding.com/sketch -->
    <title>Group 12 Copy</title>
    <desc>Created with Sketch.</desc>
    <defs></defs>
    <g id="Page-1" stroke="none" stroke-width="1" fill="none" fill-rule="evenodd">
        <g id="首页" transform="translate(-267.000000, -292.000000)">
            <g id="处理请购单" transform="translate(143.000000, 272.000000)">
                <g id="Group-12-Copy" transform="translate(124.000000, 20.000000)">
                    <g id="Group-7">
                        <g id="Group-2">
                            <path d="M21,16.1500272 C20.5153351,16.0516454 20.0136988,16 19.5,16 C15.3578644,16 12,19.3578644 12,23.5 C12,24.7640917 12.3127315,25.9551411 12.8650466,27 L2.1,27 C0.940202025,27 0,26.0329351 0,24.84 L0,2.16 C0,0.96706494 0,0 2.1,0 L15.3017263,-1.33226763e-15 C15.4417463,-1.35798888e-15 15.5758116,0.0566409728 15.6734165,0.157034561 L20.8532902,5.48490463 C20.9473679,5.58167031 21,5.71131001 21,5.84627007 L21,16.1500272 Z" id="Combined-Shape" fill="#69C0FF"></path>
                            <g id="Group-8" transform="translate(12.071068, 11.571068) rotate(-45.000000) translate(-12.071068, -11.571068) translate(6.571068, 8.571068)" fill="#FFFFFF" fill-rule="nonzero">
                                <rect id="Rectangle-6" x="0" y="0" width="2" height="6" rx="1"></rect>
                                <rect id="Rectangle-6" x="0" y="4" width="11" height="2" rx="1"></rect>
                            </g>
                            <path d="M15.6842855,0.16204834 L20.8835042,5.49914551 L17.9422702,4.58513735 C17.2783211,4.37881071 16.7619626,3.85346786 16.5671184,3.18605878 L15.6842855,0.16204834 Z" id="Polygon-3-Copy" fill="#ADDDFF" fill-rule="nonzero"></path>
                        </g>
                        <rect id="Rectangle-7" fill="#FFFFFF" fill-rule="nonzero" x="6" y="5" width="5" height="1" rx="0.5"></rect>
                        <rect id="Rectangle-7-Copy" fill="#FFFFFF" fill-rule="nonzero" x="6" y="10" width="7" height="1" rx="0.5"></rect>
                        <rect id="Rectangle-7-Copy-5" fill="#FFFFFF" fill-rule="nonzero" x="3" y="20" width="8" height="1" rx="0.5"></rect>
                        <g id="Group-4" transform="translate(13.000000, 17.000000)" fill="#ADDDFF" fill-rule="nonzero">
                            <circle id="Oval-2" cx="6.5" cy="6.5" r="6.5"></circle>
                        </g>
                        <rect id="Rectangle-2-Copy-9" fill="#FFFFFF" fill-rule="nonzero" x="19" y="23" width="4" height="1.3" rx="0.65"></rect>
                        <rect id="Rectangle-2-Copy-9" fill="#FFFFFF" fill-rule="nonzero" x="19" y="19" width="1.3" height="5" rx="0.65"></rect>
                    </g>
                    <circle id="Oval-3" fill="#FFFFFF" opacity="0.6" cx="4" cy="5.5" r="1"></circle>
                    <circle id="Oval-3" fill="#FFFFFF" opacity="0.6" cx="4" cy="10.5" r="1"></circle>
                    <circle id="Oval-3" fill="#FFFFFF" opacity="0.6" cx="4" cy="15.5" r="1"></circle>
                </g>
            </g>
        </g>
    </g>
</svg>