<?xml version="1.0" encoding="UTF-8"?>
<svg width="64px" height="50px" viewBox="0 0 64 50" version="1.1" xmlns="http://www.w3.org/2000/svg" xmlns:xlink="http://www.w3.org/1999/xlink">
    <!-- Generator: Sketch 64 (93537) - https://sketch.com -->
    <title>分组平铺视图</title>
    <desc>Created with Sketch.</desc>
    <g id="系统设置" stroke="none" stroke-width="1" fill="none" fill-rule="evenodd">
        <g id="Farris系统设置页面选择横向导航时" transform="translate(-415.000000, -255.000000)">
            <g id="分组平铺视图" transform="translate(415.000000, 255.000000)">
                <rect id="矩形" fill="#F6F7F9" x="0" y="0" width="64" height="50" rx="4"></rect>
                <rect id="矩形" fill="#B1B8CA" x="7" y="5" width="10" height="4" rx="2"></rect>
                <rect id="矩形备份-21" fill="#BEC4D4" opacity="0.355166481" x="20" y="5" width="10" height="4" rx="2"></rect>
                <rect id="矩形备份-22" fill="#BEC4D4" opacity="0.355166481" x="46" y="5" width="10" height="4" rx="2"></rect>
                <rect id="矩形备份-24" fill="#BEC4D4" opacity="0.355166481" x="33" y="5" width="10" height="4" rx="2"></rect>
                <rect id="矩形备份-2" fill="#BEC4D4" opacity="0.355166481" x="8" y="14" width="14" height="8"></rect>
                <rect id="矩形备份-13" fill="#BEC4D4" opacity="0.355166481" x="8" y="25" width="14" height="8"></rect>
                <rect id="矩形备份-19" fill="#BEC4D4" opacity="0.355166481" x="8" y="36" width="14" height="8"></rect>
                <rect id="矩形备份-3" fill="#BEC4D4" opacity="0.355166481" x="25" y="14" width="14" height="8"></rect>
                <rect id="矩形备份-14" fill="#BEC4D4" opacity="0.355166481" x="25" y="25" width="14" height="8"></rect>
                <rect id="矩形备份-20" fill="#BEC4D4" opacity="0.355166481" x="25" y="36" width="14" height="8"></rect>
                <rect id="矩形备份-7" fill="#BEC4D4" opacity="0.355166481" x="42" y="14" width="14" height="8"></rect>
                <rect id="矩形备份-18" fill="#BEC4D4" opacity="0.355166481" x="42" y="25" width="14" height="8"></rect>
            </g>
        </g>
    </g>
</svg>