<?xml version="1.0" encoding="utf-8"?>
<!-- Generator: Adobe Illustrator 22.1.0, SVG Export Plug-In . SVG Version: 6.00 Build 0)  -->
<svg version="1.1" id="图层_1" xmlns="http://www.w3.org/2000/svg" xmlns:xlink="http://www.w3.org/1999/xlink" width="85px" height="14px"
	 viewBox="0 0 84.1 13.9" style="enable-background:new 0 0 84.1 13.9;" xml:space="preserve">
<style type="text/css">
	.st0{enable-background:new    ;}
	.st1{fill:#FFFFFF;}
</style>
<title>GS Cloud</title>
<desc>Created with Sketch.</desc>
<g class="st0">
	<g>
		<path class="st1" d="M8.5,13.5C7.8,13.8,7,14,6.2,14c-1,0-1.9-0.2-2.7-0.6c-0.8-0.4-1.5-0.9-2-1.5c-0.6-0.6-1-1.3-1.3-2.2
			C0,9-0.2,8.1-0.2,7.3c0-1,0.1-1.9,0.4-2.8c0.3-0.9,0.7-1.7,1.2-2.3C2,1.5,2.6,1,3.4,0.6C4.2,0.2,5.1,0,6.2,0
			c0.7,0,1.4,0.1,2.1,0.3C8.9,0.4,9.5,0.7,10,1c0.5,0.4,0.9,0.8,1.3,1.4c0.3,0.6,0.6,1.2,0.7,2h-1.8c-0.1-0.5-0.3-1-0.5-1.3
			C9.4,2.8,9.2,2.4,8.8,2.2C8.5,2,8.1,1.8,7.6,1.7S6.7,1.5,6.2,1.5C5.4,1.5,4.7,1.7,4.1,2C3.5,2.3,3.1,2.7,2.7,3.3
			C2.3,3.8,2,4.4,1.9,5.1C1.7,5.8,1.6,6.5,1.6,7.2c0,0.7,0.1,1.4,0.3,2s0.5,1.2,0.9,1.7c0.4,0.5,0.9,0.9,1.4,1.2
			c0.6,0.3,1.2,0.4,2,0.4c0.7,0,1.3-0.1,1.9-0.3s1-0.5,1.4-0.9s0.6-0.9,0.8-1.4c0.2-0.5,0.3-1.1,0.2-1.7H6.2V6.7h5.9v7H11L10.5,12
			C10,12.7,9.3,13.2,8.5,13.5z"/>
		<path class="st1" d="M22.1,2.1c-0.6-0.4-1.4-0.6-2.3-0.6c-0.4,0-0.7,0-1.1,0.1c-0.4,0.1-0.7,0.2-1,0.4c-0.3,0.2-0.5,0.4-0.7,0.7
			c-0.2,0.3-0.3,0.7-0.3,1.1c0,0.4,0.1,0.7,0.4,1c0.2,0.3,0.6,0.5,1,0.6c0.4,0.2,0.9,0.3,1.4,0.4c0.5,0.1,1,0.2,1.6,0.3
			c0.5,0.1,1.1,0.3,1.6,0.4c0.5,0.2,1,0.4,1.4,0.7c0.4,0.3,0.7,0.6,1,1.1c0.2,0.4,0.4,1,0.4,1.6c0,0.7-0.2,1.3-0.5,1.8
			c-0.3,0.5-0.7,0.9-1.2,1.2c-0.5,0.3-1.1,0.6-1.7,0.7c-0.6,0.1-1.2,0.2-1.8,0.2c-0.7,0-1.5-0.1-2.1-0.3c-0.7-0.2-1.3-0.5-1.8-0.9
			c-0.5-0.4-0.9-0.9-1.2-1.5c-0.3-0.6-0.4-1.3-0.4-2.1h1.7c0,0.6,0.1,1,0.3,1.5c0.2,0.4,0.5,0.7,0.9,1c0.4,0.3,0.8,0.5,1.2,0.6
			c0.5,0.1,1,0.2,1.5,0.2c0.4,0,0.8,0,1.2-0.1c0.4-0.1,0.8-0.2,1.1-0.4c0.3-0.2,0.6-0.4,0.8-0.7c0.2-0.3,0.3-0.7,0.3-1.2
			c0-0.5-0.1-0.8-0.4-1.1c-0.2-0.3-0.6-0.5-1-0.7c-0.4-0.2-0.9-0.3-1.4-0.4c-0.5-0.1-1-0.2-1.6-0.3c-0.5-0.1-1.1-0.3-1.6-0.4
			c-0.5-0.2-1-0.4-1.4-0.6c-0.4-0.3-0.7-0.6-1-1C15.2,5,15,4.5,15,3.9c0-0.7,0.1-1.3,0.4-1.8c0.3-0.5,0.6-0.9,1.1-1.2
			c0.5-0.3,1-0.6,1.6-0.7C18.7,0.1,19.3,0,19.9,0c0.7,0,1.3,0.1,1.9,0.2c0.6,0.2,1.1,0.4,1.5,0.8c0.4,0.3,0.8,0.8,1,1.3
			c0.3,0.5,0.4,1.2,0.4,1.9h-1.7C23,3.3,22.7,2.6,22.1,2.1z"/>
		<path class="st1" d="M42.2,2.2c-0.7-0.5-1.5-0.7-2.4-0.7c-0.8,0-1.5,0.1-2.1,0.4c-0.6,0.3-1,0.7-1.4,1.2c-0.4,0.5-0.6,1.1-0.8,1.7
			s-0.3,1.3-0.3,2c0,0.8,0.1,1.5,0.3,2.2c0.2,0.7,0.4,1.3,0.8,1.8c0.4,0.5,0.8,0.9,1.4,1.2c0.6,0.3,1.3,0.5,2.1,0.5
			c0.6,0,1.1-0.1,1.6-0.3c0.5-0.2,0.8-0.5,1.2-0.8c0.3-0.3,0.6-0.8,0.8-1.2c0.2-0.5,0.3-1,0.3-1.5h1.8c-0.2,1.7-0.8,3-1.7,3.9
			c-1,0.9-2.3,1.4-4,1.4c-1,0-1.9-0.2-2.7-0.5c-0.8-0.4-1.4-0.8-1.9-1.5c-0.5-0.6-0.9-1.4-1.2-2.2C33.6,8.9,33.5,8,33.5,7
			c0-1,0.1-1.9,0.4-2.7c0.3-0.9,0.7-1.6,1.2-2.2c0.5-0.6,1.2-1.1,2-1.5C37.9,0.2,38.8,0,39.8,0c0.7,0,1.4,0.1,2,0.3
			c0.6,0.2,1.2,0.5,1.7,0.8c0.5,0.4,0.9,0.8,1.2,1.4C45,3,45.2,3.6,45.3,4.3h-1.8C43.3,3.4,42.9,2.7,42.2,2.2z"/>
		<path class="st1" d="M49.8,0.3v13.4h-1.6V0.3H49.8z"/>
		<path class="st1" d="M52.7,6.9c0.2-0.6,0.5-1.2,0.9-1.6c0.4-0.5,0.9-0.8,1.5-1.1c0.6-0.3,1.3-0.4,2-0.4c0.8,0,1.5,0.1,2,0.4
			c0.6,0.3,1.1,0.6,1.5,1.1c0.4,0.5,0.7,1,0.9,1.6c0.2,0.6,0.3,1.3,0.3,2c0,0.7-0.1,1.4-0.3,2c-0.2,0.6-0.5,1.1-0.9,1.6
			c-0.4,0.5-0.9,0.8-1.5,1.1c-0.6,0.3-1.3,0.4-2,0.4c-0.8,0-1.4-0.1-2-0.4c-0.6-0.3-1.1-0.6-1.5-1.1c-0.4-0.5-0.7-1-0.9-1.6
			c-0.2-0.6-0.3-1.3-0.3-2C52.4,8.2,52.5,7.5,52.7,6.9z M54.4,10.4c0.2,0.5,0.4,0.8,0.6,1.1c0.3,0.3,0.6,0.5,1,0.7
			c0.4,0.2,0.8,0.2,1.2,0.2c0.4,0,0.8-0.1,1.2-0.2c0.4-0.2,0.7-0.4,1-0.7c0.3-0.3,0.5-0.7,0.6-1.1c0.2-0.5,0.2-1,0.2-1.6
			c0-0.6-0.1-1.1-0.2-1.6c-0.2-0.5-0.4-0.8-0.6-1.2c-0.3-0.3-0.6-0.6-1-0.7c-0.4-0.2-0.8-0.2-1.2-0.2c-0.4,0-0.8,0.1-1.2,0.2
			c-0.4,0.2-0.7,0.4-1,0.7s-0.5,0.7-0.6,1.2c-0.2,0.5-0.2,1-0.2,1.6C54.1,9.5,54.2,10,54.4,10.4z"/>
		<path class="st1" d="M70.9,13.7v-1.5h0c-0.3,0.6-0.8,1-1.3,1.3c-0.5,0.3-1.1,0.4-1.9,0.4c-0.6,0-1.2-0.1-1.6-0.3s-0.8-0.4-1-0.7
			c-0.3-0.3-0.4-0.7-0.6-1.1c-0.1-0.4-0.2-0.9-0.2-1.4V4H66v6.6c0,0.6,0.2,1.1,0.5,1.4s0.8,0.5,1.4,0.5c0.5,0,0.9-0.1,1.3-0.2
			c0.4-0.2,0.7-0.4,0.9-0.6c0.2-0.3,0.4-0.6,0.5-1c0.1-0.4,0.2-0.8,0.2-1.2V4h1.6v9.7H70.9z"/>
		<path class="st1" d="M82.6,13.7v-1.3h0c-0.3,0.5-0.7,0.9-1.2,1.2c-0.6,0.2-1.2,0.4-1.9,0.4c-0.7,0-1.4-0.1-2-0.4
			c-0.6-0.3-1-0.6-1.4-1.1c-0.4-0.5-0.6-1-0.8-1.6C75.1,10.2,75,9.5,75,8.8c0-0.7,0.1-1.3,0.3-1.9c0.2-0.6,0.5-1.1,0.8-1.6
			c0.4-0.5,0.8-0.8,1.4-1.1c0.6-0.3,1.2-0.4,1.9-0.4c0.3,0,0.5,0,0.8,0.1c0.3,0,0.6,0.1,0.9,0.3c0.3,0.1,0.6,0.3,0.8,0.5
			c0.3,0.2,0.5,0.4,0.6,0.7h0v-5h1.6v13.4H82.6z M76.9,10.3c0.1,0.4,0.3,0.8,0.5,1.2c0.2,0.3,0.6,0.6,0.9,0.8s0.8,0.3,1.3,0.3
			c0.5,0,1-0.1,1.4-0.3c0.4-0.2,0.7-0.5,0.9-0.8c0.2-0.3,0.4-0.7,0.5-1.2c0.1-0.4,0.2-0.9,0.2-1.3c0-0.5-0.1-0.9-0.2-1.4
			c-0.1-0.4-0.3-0.8-0.5-1.2C81.7,6,81.4,5.7,81,5.5c-0.4-0.2-0.9-0.3-1.4-0.3c-0.5,0-1,0.1-1.4,0.3c-0.4,0.2-0.7,0.5-0.9,0.8
			c-0.2,0.3-0.4,0.7-0.5,1.2c-0.1,0.5-0.1,0.9-0.1,1.4C76.7,9.4,76.7,9.8,76.9,10.3z"/>
	</g>
</g>
</svg>
