<?xml version="1.0" encoding="UTF-8"?>
<svg width="12px" height="16px" viewBox="0 0 12 16" version="1.1" xmlns="http://www.w3.org/2000/svg" xmlns:xlink="http://www.w3.org/1999/xlink">
    <!-- Generator: Sketch 52.5 (67469) - http://www.bohemiancoding.com/sketch -->
    <title>域密码</title>
    <desc>Created with Sketch.</desc>
    <g id="icon" stroke="none" stroke-width="1" fill="none" fill-rule="evenodd">
        <g id="画板" transform="translate(-212.000000, -65.000000)" fill-rule="nonzero">
            <g id="域密码" transform="translate(210.000000, 65.000000)">
                <rect id="矩形" x="0" y="0" width="16" height="16"></rect>
                <path d="M12.9999126,5.9548869 L11.9998252,5.9548869 L11.9998252,4.5907627 C11.9998252,2.33528905 10.2057512,0.5 8,0.5 C5.79424875,0.5 4.00017481,2.33528905 4.00017481,4.5907627 L4.00017481,5.9548869 L3.0000874,5.9548869 C2.73489597,5.95474452 2.48051847,6.06244326 2.29295061,6.25427556 C2.10538275,6.44610786 1.99999996,6.70634872 2,6.97771173 L2,14.477175 C2,15.0417142 2.44786295,15.4999999 3.0000874,15.4999999 L12.9999126,15.4999999 C13.265104,15.5001422 13.5194815,15.3924435 13.7070494,15.2006112 C13.8946173,15.0087789 14,14.748538 14,14.477175 L14,6.97771173 C14,6.70634872 13.8946173,6.44610786 13.7070494,6.25427556 C13.5194815,6.06244326 13.265104,5.95474452 12.9999126,5.9548869 Z M5.00026221,4.5907627 C5.00257494,2.89674018 6.34450324,1.52430268 8,1.52282483 C9.65549676,1.52430268 10.9974251,2.89674018 10.9997378,4.5907627 L10.9997378,5.9548869 L5.00026221,5.9548869 L5.00026221,4.5907627 Z M3.0000874,14.477175 L3.0000874,6.97771173 L12.9999126,6.97771173 L12.9999126,14.477175 L3.0000874,14.477175 Z M8,12.602175 C8.27581702,12.6021752 8.49949207,12.3735349 8.49978149,12.0912993 L8.49978149,9.36412413 C8.49978149,9.08167885 8.27602169,8.85271171 8,8.85271171 C7.72397831,8.85271171 7.50021851,9.08167885 7.50021851,9.36412413 L7.50021851,12.0912993 C7.50021851,12.3735689 7.72414999,12.602175 8,12.602175 Z" id="形状" fill="#BFC4CA"></path>
            </g>
        </g>
    </g>
</svg>