<?xml version="1.0" encoding="UTF-8"?>
<svg width="14px" height="18px" viewBox="0 0 14 18" version="1.1" xmlns="http://www.w3.org/2000/svg" xmlns:xlink="http://www.w3.org/1999/xlink">
    <!-- Generator: Sketch 52.5 (67469) - http://www.bohemiancoding.com/sketch -->
    <title>域名</title>
    <desc>Created with Sketch.</desc>
    <g id="icon" stroke="none" stroke-width="1" fill="none" fill-rule="evenodd">
        <g id="画板" transform="translate(-149.000000, -64.000000)" fill-rule="nonzero">
            <g id="域名" transform="translate(148.000000, 65.000000)">
                <rect id="矩形" x="0" y="0" width="16" height="16"></rect>
                <path d="M8.00426636,16 C6.83101617,16 5.24858285,15.1515304 3.87287427,13.7887391 C2.36684766,12.3001889 1.5,10.5452072 1.5,8.98813452 L1.5,2.65786622 C1.5,2.40231766 1.69780417,2.19030103 1.94059908,2.19030105 L2.54021719,2.18143343 C2.67247448,2.18143343 3.00253594,2.15402444 3.36827973,2.09477263 C3.96052868,1.99924423 4.55665612,1.838821 5.11942837,1.59939538 C6.13947731,1.17455597 7.23050303,0.517546276 7.38254072,0.360347648 L7.73975177,0.0914976682 C7.81809774,0.0310366545 7.90652784,0 8.00426636,0 C8.10200489,0 8.19082284,0.0306335763 8.2683931,0.09109459 L8.6267677,0.361153787 C8.71752491,0.431288572 8.96264694,0.598160973 9.26129244,0.778334797 C9.78168168,1.09148879 10.3228008,1.36586495 10.8805716,1.59939538 C11.442956,1.838821 12.0390835,1.99924422 12.6313324,2.09517571 C12.9970762,2.15402443 13.3271377,2.18143343 13.4597828,2.18143343 L14.0586252,2.19070411 C14.3021959,2.19070411 14.5,2.40231766 14.5,2.6582693 L14.5,8.98813452 C14.5,10.5508502 13.6362551,12.2965613 12.1271257,13.7887391 C10.7774032,15.1519335 9.19419416,16 8.00426636,16 Z M2.33155319,8.99780827 C2.33155319,10.3166646 3.10337728,11.839476 4.44534281,13.1760675 C5.6329435,14.3526389 7.06295125,15.1458874 8.00426636,15.1458874 C8.94596933,15.1458874 10.3759771,14.3526389 11.5635778,13.1760675 C12.9074825,11.8459252 13.6769795,10.3235168 13.6769795,8.99740521 L13.6769795,3.08431792 L13.6381944,3.04401057 L13.4415538,3.04401057 C13.2972731,3.04401057 12.921833,3.01257084 12.5130378,2.94606373 C11.8517513,2.8388462 11.1889134,2.66109081 10.5675756,2.39788386 C9.98060625,2.15131975 9.41111784,1.86200004 8.863357,1.53208212 C8.6162717,1.38551504 8.37604849,1.22679275 8.14350498,1.05645547 L8.02792529,0.963748567 L7.98060744,0.963748567 L7.86425204,1.05685853 C7.76651351,1.1330394 7.50355033,1.31281017 7.1820216,1.50749465 C6.62259446,1.84646724 6.04078642,2.14387212 5.44095709,2.39748078 C4.8172922,2.66028465 4.15484216,2.83602467 3.48890148,2.94243607 C3.09639596,3.00531552 2.46885255,3.06053659 2.56077332,3.04481671 L2.37033833,3.04441365 L2.33155319,3.08472098 L2.33155319,8.99780827 Z M7.44005304,10.7742745 C7.33142983,10.7742745 7.22280663,10.7321098 7.13964199,10.6460235 L4.92474696,8.35331765 C4.75841768,8.1811451 4.75841768,7.90356078 4.92474696,7.73138824 C5.09107624,7.55921569 5.35923978,7.55921569 5.52556906,7.73138824 L7.44005304,9.71312941 L10.9024177,6.12912941 C11.068747,5.95695686 11.3369105,5.95695686 11.5032398,6.12912941 C11.6695691,6.30130196 11.6695691,6.57888627 11.5032398,6.75105882 L7.74046409,10.6460235 C7.65729945,10.7321098 7.54867624,10.7742745 7.44005304,10.7742745 Z" id="合并形状" stroke="#BEC4CB" stroke-width="0.1" fill="#BFC4CA"></path>
            </g>
        </g>
    </g>
</svg>