<?xml version="1.0" encoding="UTF-8"?>
<svg width="16px" height="14px" viewBox="0 0 16 14" version="1.1" xmlns="http://www.w3.org/2000/svg" xmlns:xlink="http://www.w3.org/1999/xlink">
    <!-- Generator: Sketch 52.5 (67469) - http://www.bohemiancoding.com/sketch -->
    <title>域用户名</title>
    <desc>Created with Sketch.</desc>
    <g id="icon" stroke="none" stroke-width="1" fill="none" fill-rule="evenodd">
        <g id="画板" transform="translate(-179.000000, -66.000000)" fill-rule="nonzero">
            <g id="域用户名" transform="translate(179.000000, 65.000000)">
                <rect id="矩形" x="0" y="0" width="16" height="16"></rect>
                <path d="M15.3065952,6.90665939 L8.76702124,1.2920003 C8.32186429,0.910545757 7.67020509,0.901250302 7.21587774,1.27338667 L0.687783568,6.62059121 C0.469779084,6.79734121 0.437671461,7.12065939 0.612043658,7.33927303 C0.786438277,7.5602503 1.10538447,7.59279576 1.32107953,7.41604576 L7.85148312,2.06884121 C7.92951003,2.00604576 8.03962213,2.00604576 8.11536204,2.07115939 L14.654936,7.68584121 C14.7489943,7.7672503 14.8660347,7.80677303 14.9807656,7.80677303 C15.1230302,7.80677303 15.2652948,7.74631848 15.3662589,7.62536394 C15.5452275,7.41370485 15.5176939,7.09040939 15.3065952,6.90665939 Z M13.3539046,8.23240939 C13.2198992,8.23201554 13.0912702,8.28580063 12.9965136,8.38184936 C12.901757,8.47789808 12.8486955,8.6082811 12.849084,8.74411394 L12.849084,13.7447503 C12.8493117,13.8003354 12.8276284,13.8537104 12.7888522,13.8930154 C12.7500761,13.9323203 12.6974191,13.9542993 12.6425818,13.9540685 L10.5544876,13.9540685 C10.4996503,13.9542993 10.4469933,13.9323203 10.4082171,13.8930154 C10.369441,13.8537104 10.3477577,13.8003354 10.3479854,13.7447503 L10.3479854,10.3024548 C10.3479854,9.62329576 9.80186429,9.06972758 9.13184186,9.06972758 L6.63076563,9.06972758 C5.96076563,9.06972758 5.41464455,9.62329576 5.41464455,10.3024548 L5.41464455,13.7447276 C5.41487822,13.8003166 5.39319756,13.8536975 5.35442076,13.8930074 C5.31564396,13.9323172 5.26298349,13.9542993 5.20814231,13.9540685 L3.05121406,13.9540685 C2.99637678,13.9542993 2.94371975,13.9323203 2.9049436,13.8930154 C2.86616746,13.8537104 2.84448415,13.8003354 2.84471182,13.7447503 L2.84471182,8.74409121 C2.84471182,8.46034121 2.61982393,8.23238667 2.33989119,8.23238667 C2.05995846,8.23238667 1.83509299,8.46034121 1.83509299,8.74409121 L1.83509299,13.7447276 C1.83509299,14.4238867 2.38119164,14.9774548 3.05123648,14.9774548 L5.20814231,14.9774548 C5.87814231,14.9774548 6.42426339,14.4238867 6.42426339,13.7447276 L6.42426339,10.3024548 C6.42403572,10.2468698 6.44571903,10.1934947 6.48449517,10.1541898 C6.52327132,10.1148849 6.57592835,10.0929059 6.63076563,10.0931367 L9.13188671,10.0931367 C9.18672398,10.0929059 9.23938102,10.1148849 9.27815717,10.1541898 C9.31693331,10.1934947 9.33861662,10.2468698 9.33838895,10.3024548 L9.33838895,13.7447276 C9.33838895,14.4239094 9.88451003,14.9774548 10.5545324,14.9774548 L12.6426042,14.9774548 C13.3126042,14.9774548 13.8587477,14.4239094 13.8587477,13.7447276 L13.8587477,8.74413667 C13.8591362,8.60830383 13.8060747,8.47792081 13.7113181,8.38187208 C13.6165615,8.28582336 13.4879326,8.23203827 13.3539271,8.23243212 L13.3539046,8.23240939 Z" id="形状" fill="#BFC4CA"></path>
            </g>
        </g>
    </g>
</svg>