<?xml version="1.0" encoding="UTF-8"?>
<svg width="170px" height="168px" viewBox="0 0 170 168" version="1.1" xmlns="http://www.w3.org/2000/svg" xmlns:xlink="http://www.w3.org/1999/xlink">
    <!-- Generator: Sketch 58 (84663) - https://sketch.com -->
    <title>ide hover</title>
    <desc>Created with Sketch.</desc>
    <g id="页面-1" stroke="none" stroke-width="1" fill="none" fill-rule="evenodd">
        <g id="ide-hover" fill="#FFFFFF" fill-rule="nonzero">
            <path d="M39.7346245,54.0085211 L33.7550313,60.0302204 L0,26.0336976 L24.1237783,1.75724056 L57.7646953,35.7537634 L51.7851022,41.8702926 L76.9359099,67.806273 L64.8854321,80.0393314 L39.7346245,54.0085211 Z M117.880147,93.2443964 L154.807558,128.971565 C161.449014,135.680781 161.449014,146.538806 154.807558,153.248022 L145.176305,162.968088 C138.534848,169.677304 127.693983,169.677304 121.052526,162.968088 C121.052526,162.968088 83.9425323,123.921872 83.0067945,123.732213 C97.3167368,98.886776 117.880147,93.2443964 117.880147,93.2443964 Z M134.609314,156.258872 C136.206915,154.504518 136.206915,151.801866 134.609314,150.237172 L103.661496,119.061839 C102.063895,117.402316 99.370795,117.402316 97.6819027,119.061839 C95.99301,120.721363 95.99301,123.424015 97.6819027,125.083539 L128.629721,156.258872 C130.227322,157.918395 132.920421,157.918395 134.609314,156.258872 Z M148.166101,142.55595 C149.854994,140.825304 149.854994,138.098944 148.07481,136.557958 L117.126992,105.382625 C115.529391,103.723101 112.836291,103.723101 111.147399,105.382625 C109.458506,107.042148 109.458506,109.744801 111.147399,111.404324 L142.186508,142.55595 C143.784109,144.215473 146.477208,144.215473 148.166101,142.55595 Z M169.961946,36.7257699 C170.418404,47.2993049 166.766744,58.0862072 159.098258,65.9570898 C152.639384,72.7611358 144.240567,76.4357948 135.727634,77.2181416 C131.16306,77.5974612 126.301787,77.0996042 121.805681,75.6534481 C120.869943,75.2741284 120.116788,74.9659312 119.181051,74.6814415 C117.788855,74.4917817 116.008671,74.7762714 114.319778,76.5306247 C111.033284,79.920794 35.6036842,162.849551 35.6036842,162.849551 C29.8066741,169.748426 19.3309747,169.345399 13.0775071,162.94438 C6.91533097,156.448532 6.4360506,145.471969 13.0775071,139.5451 C13.0775071,139.5451 93.2086194,60.5043699 95.9245414,57.8017175 C98.001423,55.5732146 97.8873086,53.4395416 97.4308511,51.6851883 C97.4308511,51.4955285 97.3395596,51.4006985 97.3395596,51.3058686 C95.6506669,46.2561759 95.1029179,40.898286 95.4680839,35.5641035 C96.1299473,26.7212144 99.758784,18.0916926 106.308949,11.2876465 C114.068727,3.32193408 124.361843,-0.35272494 134.358262,0.0265947 C134.723428,0.0265947 135.294,0.12142461 135.659166,0.12142461 L135.659166,17.4041757 L129.017709,24.3030517 L123.973854,29.5424042 L118.838707,34.8765867 L122.581659,49.2433181 L136.412321,53.0365145 L141.547467,47.702332 L146.591323,42.4629795 L153.232779,35.5641035 L169.870655,35.5641035 C169.961946,35.9434232 169.961946,36.3464503 169.961946,36.7257699 Z M28.3231872,155.002375 C30.2859544,152.773873 30.2859544,149.359996 28.3231872,147.131493 C26.177837,144.90299 22.8913431,144.90299 20.7459929,147.131493 C18.6006427,149.359996 18.6006427,152.773873 20.7459929,155.002375 C22.8913431,157.230878 26.177837,157.230878 28.3231872,155.002375 Z" id="Combined-Shape"></path>
        </g>
    </g>
</svg>