<?xml version="1.0" encoding="UTF-8"?>
<svg width="172px" height="172px" viewBox="0 0 172 172" version="1.1" xmlns="http://www.w3.org/2000/svg" xmlns:xlink="http://www.w3.org/1999/xlink">
    <!-- Generator: Sketch 52.4 (67378) - http://www.bohemiancoding.com/sketch -->
    <title>工具</title>
    <desc>Created with Sketch.</desc>
    <g id="工具" stroke="none" stroke-width="1" fill="none" fill-rule="evenodd">
        <path d="M67.2564103,0 L162,0 C167.522847,-1.01453063e-15 172,4.4771525 172,10 L172,71.3170732 L67.2564103,71.3170732 L67.2564103,-1.47171991e-14 Z M50.7179487,-1.37045104e-14 L50.7179487,71.3170732 L50.7179487,87.0487805 L50.7179487,172 L10,172 C4.4771525,172 6.76353751e-16,167.522847 0,162 L0,10 C-6.76353751e-16,4.4771525 4.4771525,1.01453063e-15 10,0 L50.7179487,0 Z M67.2564103,172 L67.2564103,87.0487805 L172,87.0487805 L172,162 C172,167.522847 167.522847,172 162,172 L67.2564103,172 Z" id="Combined-Shape" fill="#FFFFFF"></path>
    </g>
</svg>