<?xml version="1.0" encoding="UTF-8"?>
<svg width="172px" height="166px" viewBox="0 0 172 166" version="1.1" xmlns="http://www.w3.org/2000/svg" xmlns:xlink="http://www.w3.org/1999/xlink">
    <!-- Generator: Sketch 58 (84663) - https://sketch.com -->
    <title>im</title>
    <desc>Created with Sketch.</desc>
    <g id="页面-1" stroke="none" stroke-width="1" fill="none" fill-rule="evenodd" fill-opacity="0.6">
        <g id="im" fill="#FFFFFF" fill-rule="nonzero">
            <path d="M35.5133929,56.967631 C40.6772321,56.967631 44.8620536,61.293422 44.8620536,66.6312099 C44.8620536,71.9689979 40.6772321,76.2947889 35.5133929,76.2947889 C30.3495536,76.2947889 26.1647321,71.9689979 26.1647321,66.6312099 C26.1647321,61.293422 30.3495536,56.967631 35.5133929,56.967631 Z M72.9080357,56.967631 C78.071875,56.967631 82.2566964,61.293422 82.2566964,66.6312099 C82.2566964,71.9689979 78.071875,76.2947889 72.9080357,76.2947889 C67.7441964,76.2947889 63.559375,71.9689979 63.559375,66.6312099 C63.559375,61.293422 67.7441964,56.967631 72.9080357,56.967631 Z M43.4223214,131.043687 C45.4955357,130.686511 47.3575893,130.626982 48.8165179,131.103216 C56.8982143,133.821718 65.6517857,135.290106 74.7892857,135.290106 C116.1,135.290106 149.578571,105.009569 149.578571,67.6450528 C149.578571,30.280537 116.1,0 74.7892857,0 C33.4785714,0 0,30.30038 0,67.6648958 C0,83.241712 5.83571429,97.6081005 15.6258929,109.037713 C19.484375,113.561935 13.70625,131.797724 18.6973214,135.290106 C23.38125,138.584056 34.8607143,132.631133 43.0575893,131.103216 L43.4223214,131.043687 Z M172,97.8863651 C172,113.344123 166.241071,127.611296 156.546875,138.961536 C152.726786,143.446072 158.447321,161.562802 153.513839,165.035341 C147.620536,169.182544 130.88125,158.467282 123.759375,160.868295 C115.773661,163.566953 107.135268,165.035341 98.1129464,165.035341 C91.4901786,165.035341 85.1169643,164.182089 79.0125,162.693858 L88.5723214,152.812005 C91.6821429,153.248553 94.86875,153.526356 98.1129464,153.526356 C106.405804,153.526356 114.314732,152.097654 121.551786,149.518054 C127.310714,147.454374 141.3625,156.919522 146.123214,153.526356 C149.712946,150.966599 144.280357,135.82633 147.159821,132.631595 C155.759821,123.106917 160.904464,111.022483 160.904464,97.8863651 C160.904464,92.012814 159.887054,86.3773798 157.986607,81.079278 L166.433036,72.3483237 C170.003571,80.2260257 172,88.8379215 172,97.8863651 Z M110.302679,56.967631 C115.466518,56.967631 119.651339,61.293422 119.651339,66.6312099 C119.651339,71.9689979 115.466518,76.2947889 110.302679,76.2947889 C105.138839,76.2947889 100.954018,71.9689979 100.954018,66.6312099 C100.954018,61.293422 105.138839,56.967631 110.302679,56.967631 Z" id="Shape"></path>
        </g>
    </g>
</svg>