<?xml version="1.0" encoding="UTF-8"?>
<svg width="28px" height="20px" viewBox="0 0 28 20" version="1.1" xmlns="http://www.w3.org/2000/svg" xmlns:xlink="http://www.w3.org/1999/xlink">
    <!-- Generator: Sketch 64 (93537) - https://sketch.com -->
    <title>中国</title>
    <desc>Created with Sketch.</desc>
    <g id="系统设置" stroke="none" stroke-width="1" fill="none" fill-rule="evenodd">
        <g id="多页签-多语言" transform="translate(-1010.000000, -62.000000)" fill-rule="nonzero">
            <g id="中国" transform="translate(1010.000000, 62.000000)">
                <polygon id="路径" fill="#DE2910" points="0 0 28 0 28 20 0 20"></polygon>
                <path d="M4.39041505,2.72546999 L5.0056675,4.61539929 L6.9965613,4.61539929 L5.38743953,5.7859565 L5.99953683,7.67904095 L4.39041505,6.51163887 L2.78129327,7.67904095 L3.39339058,5.7859565 L1.7842688,4.61855443 L3.77831775,4.61855443 L4.39041505,2.72546999 L4.39041505,2.72546999 Z M9.57746643,1.73791093 L9.5364496,2.39102507 L10.1453918,2.6339709 L9.50805333,2.79803822 L9.4670365,3.45115236 L9.11997102,2.89584759 L8.48578773,3.0599149 L8.90542145,2.55824753 L8.55835597,2.00294276 L9.16414299,2.24273345 L9.57746643,1.73791093 L9.57746643,1.73791093 Z M11.8081509,3.85501037 L11.5115677,4.43871141 L11.9753734,4.9025171 L11.3285695,4.79839745 L11.0288312,5.38525363 L10.9278667,4.73529464 L10.2810628,4.63433013 L10.867919,4.3377469 L10.7637993,3.69094305 L11.2244499,4.1515936 L11.8081509,3.85501037 L11.8081509,3.85501037 Z M11.1392611,6.50848373 L11.338035,7.1332016 L11.9943042,7.1332016 L11.4642406,7.51812877 L11.6630145,8.1396915 L11.1329508,7.75160919 L10.6060423,8.13653636 L10.8079713,7.51812877 L10.2779077,7.1332016 L10.9341769,7.1332016 L11.1392611,6.50848373 L11.1392611,6.50848373 Z M9.57431129,8.50884296 L9.53013932,9.1619571 L10.1390815,9.40490293 L9.50805333,9.56897025 L9.46388136,10.2252395 L9.11366074,9.66993476 L8.47947745,9.83084693 L8.89595603,9.32917956 L8.54889055,8.77387479 L9.16098785,9.01682062 L9.57431129,8.50884296 L9.57431129,8.50884296 Z" id="形状" fill="#FFDE00"></path>
            </g>
        </g>
    </g>
</svg>