<?xml version="1.0" encoding="UTF-8"?>
<svg width="28px" height="20px" viewBox="0 0 28 20" version="1.1" xmlns="http://www.w3.org/2000/svg" xmlns:xlink="http://www.w3.org/1999/xlink">
    <!-- Generator: Sketch 64 (93537) - https://sketch.com -->
    <title>美国</title>
    <desc>Created with Sketch.</desc>
    <g id="系统设置" stroke="none" stroke-width="1" fill="none" fill-rule="evenodd">
        <g id="多页签-多语言" transform="translate(-1010.000000, -102.000000)" fill-rule="nonzero">
            <g id="美国" transform="translate(1010.000000, 102.000000)">
                <polygon id="路径" fill="#FFFFFF" points="-3.10857985e-14 1.04360964e-14 28 1.04360964e-14 28 20 -3.24185123e-14 20"></polygon>
                <path d="M-3.24185123e-14,1.04360964e-14 L28,1.04360964e-14 L28,1.32813768 L-3.24185123e-14,1.32813768 L-3.24185123e-14,1.04360964e-14 Z M-3.24185123e-14,2.67251177 L28,2.67251177 L28,4.00064946 L-3.24185123e-14,4.00064946 L-3.24185123e-14,2.67251177 Z M-3.24185123e-14,5.32553986 L28,5.32553986 L28,6.65367755 L-3.24185123e-14,6.65367755 L-3.24185123e-14,5.32553986 Z M-3.24185123e-14,7.99805163 L28,7.99805163 L28,9.32618932 L-3.24185123e-14,9.32618932 L-3.24185123e-14,7.99805163 Z M-3.24185123e-14,10.6705634 L28,10.6705634 L28,11.9987011 L-3.24185123e-14,11.9987011 L-3.24185123e-14,10.6705634 Z M-3.24185123e-14,13.3268388 L28,13.3268388 L28,14.6549765 L-3.24185123e-14,14.6549765 L-3.24185123e-14,13.3268388 Z M-3.24185123e-14,15.9993505 L28,15.9993505 L28,17.3274882 L-3.24185123e-14,17.3274882 L-3.24185123e-14,15.9993505 Z M-3.24185123e-14,18.6718623 L28,18.6718623 L28,20 L-3.24185123e-14,20 L-3.24185123e-14,18.6718623 Z" id="形状" fill="#D02F44"></path>
                <polygon id="路径" fill="#46467F" points="-3.10862447e-14 1.04360964e-14 12.0281948 1.04360964e-14 12.0281948 8.8147424 -3.06500851e-14 8.8147424"></polygon>
            </g>
        </g>
    </g>
</svg>