<?xml version="1.0" encoding="UTF-8"?>
<svg width="510px" height="329px" viewBox="0 0 510 329" version="1.1" xmlns="http://www.w3.org/2000/svg" xmlns:xlink="http://www.w3.org/1999/xlink">
    <!-- Generator: Sketch 61.2 (89653) - https://sketch.com -->
    <title>编组</title>
    <desc>Created with Sketch.</desc>
    <defs>
        <radialGradient cx="47.4723716%" cy="100%" fx="47.4723716%" fy="100%" r="109.858706%" gradientTransform="translate(0.474724,1.000000),scale(0.420755,1.000000),rotate(90.000000),scale(1.000000,1.054434),translate(-0.474724,-1.000000)" id="radialGradient-1">
            <stop stop-color="#C4C7CF" offset="0%"></stop>
            <stop stop-color="#FFFFFF" stop-opacity="0" offset="100%"></stop>
        </radialGradient>
        <linearGradient x1="50%" y1="0%" x2="50%" y2="107.413719%" id="linearGradient-2">
            <stop stop-color="#BFC9CE" offset="0%"></stop>
            <stop stop-color="#DFE5E8" offset="100%"></stop>
        </linearGradient>
        <polygon id="path-3" points="122.618852 176.393443 158.889344 176.393443 164.934426 210.819672 116.57377 210.819672"></polygon>
        <filter x="-2.1%" y="-2.9%" width="104.1%" height="111.6%" filterUnits="objectBoundingBox" id="filter-4">
            <feOffset dx="0" dy="2" in="SourceAlpha" result="shadowOffsetOuter1"></feOffset>
            <feColorMatrix values="0 0 0 0 0.788235294   0 0 0 0 0.819607843   0 0 0 0 0.854901961  0 0 0 1 0" type="matrix" in="shadowOffsetOuter1"></feColorMatrix>
        </filter>
        <linearGradient x1="26.6519399%" y1="49.82463%" x2="100%" y2="50.216735%" id="linearGradient-5">
            <stop stop-color="#DCE3E6" offset="0%"></stop>
            <stop stop-color="#F9FDFF" offset="100%"></stop>
        </linearGradient>
        <rect id="path-6" x="98.5409836" y="210.819672" width="84.4262295" height="5" rx="1"></rect>
        <filter x="-1.2%" y="-20.0%" width="102.4%" height="180.0%" filterUnits="objectBoundingBox" id="filter-7">
            <feOffset dx="0" dy="2" in="SourceAlpha" result="shadowOffsetOuter1"></feOffset>
            <feColorMatrix values="0 0 0 0 0.788235294   0 0 0 0 0.819607843   0 0 0 0 0.854901961  0 0 0 1 0" type="matrix" in="shadowOffsetOuter1"></feColorMatrix>
        </filter>
        <linearGradient x1="58.0202456%" y1="28.5735254%" x2="96.2924498%" y2="65.880849%" id="linearGradient-8">
            <stop stop-color="#C7D0D9" offset="0.0897381757%"></stop>
            <stop stop-color="#ECF0F3" offset="62.2621163%"></stop>
            <stop stop-color="#E2E8EE" offset="100%"></stop>
        </linearGradient>
        <path d="M0.508196721,4.00668907 C0.508196721,1.7938558 2.28983582,0 4.50583108,0 L275.510562,0 C277.718395,0 279.508197,1.79926232 279.508197,4.00668907 L279.508197,171.993311 C279.508197,174.206144 277.726558,176 275.510562,176 L4.50583108,176 C2.29799859,176 0.508196721,174.200738 0.508196721,171.993311 L0.508196721,4.00668907 Z" id="path-9"></path>
        <filter x="-0.4%" y="-0.6%" width="100.7%" height="102.3%" filterUnits="objectBoundingBox" id="filter-10">
            <feOffset dx="0" dy="2" in="SourceAlpha" result="shadowOffsetOuter1"></feOffset>
            <feColorMatrix values="0 0 0 0 0.788235294   0 0 0 0 0.819607843   0 0 0 0 0.854901961  0 0 0 1 0" type="matrix" in="shadowOffsetOuter1"></feColorMatrix>
        </filter>
        <linearGradient x1="50%" y1="35.0495869%" x2="15.7925287%" y2="53.3507377%" id="linearGradient-11">
            <stop stop-color="#F4F5F6" offset="0%"></stop>
            <stop stop-color="#F0F2F4" offset="100%"></stop>
        </linearGradient>
        <path d="M6.50819672,8.0083403 C6.50819672,6.89916458 7.3969985,6 8.50383569,6 L271.512558,6 C272.614719,6 273.508197,6.89448569 273.508197,8.0083403 L273.508197,152 L6.50819672,152 L6.50819672,8.0083403 Z" id="path-12"></path>
        <filter x="-0.3%" y="-0.6%" width="100.7%" height="101.9%" filterUnits="objectBoundingBox" id="filter-13">
            <feMorphology radius="0.409836066" operator="dilate" in="SourceAlpha" result="shadowSpreadOuter1"></feMorphology>
            <feOffset dx="0" dy="1" in="shadowSpreadOuter1" result="shadowOffsetOuter1"></feOffset>
            <feComposite in="shadowOffsetOuter1" in2="SourceAlpha" operator="out" result="shadowOffsetOuter1"></feComposite>
            <feColorMatrix values="0 0 0 0 0.820951572   0 0 0 0 0.850722391   0 0 0 0 0.887935915  0 0 0 1 0" type="matrix" in="shadowOffsetOuter1"></feColorMatrix>
        </filter>
        <linearGradient x1="60.2200343%" y1="52.7398028%" x2="57.0553303%" y2="48.9886392%" id="linearGradient-14">
            <stop stop-color="#CAD2DB" offset="0%"></stop>
            <stop stop-color="#C8D0D9" offset="100%"></stop>
        </linearGradient>
        <linearGradient x1="50%" y1="31.1026266%" x2="15.7925287%" y2="54.235344%" id="linearGradient-15">
            <stop stop-color="#EAEDF2" offset="0%"></stop>
            <stop stop-color="#D4D9DF" offset="100%"></stop>
        </linearGradient>
        <linearGradient x1="79.0881077%" y1="58.9886873%" x2="43.8222653%" y2="41.0113127%" id="linearGradient-16">
            <stop stop-color="#E3E8EE" offset="0%"></stop>
            <stop stop-color="#CCD1D7" offset="100%"></stop>
        </linearGradient>
        <linearGradient x1="60.2200343%" y1="52.7548904%" x2="57.0553303%" y2="48.9830698%" id="linearGradient-17">
            <stop stop-color="#CAD2DB" offset="0%"></stop>
            <stop stop-color="#C8D0D9" offset="100%"></stop>
        </linearGradient>
        <linearGradient x1="50%" y1="41.0113127%" x2="15.7925287%" y2="52.0145754%" id="linearGradient-18">
            <stop stop-color="#EAEDF2" offset="0%"></stop>
            <stop stop-color="#D4D9DF" offset="100%"></stop>
        </linearGradient>
        <linearGradient x1="37.7623645%" y1="58.538216%" x2="81.4365718%" y2="33.6202124%" id="linearGradient-19">
            <stop stop-color="#FFFFFF" stop-opacity="0" offset="0%"></stop>
            <stop stop-color="#AEB6C1" stop-opacity="0.40349104" offset="100%"></stop>
        </linearGradient>
        <linearGradient x1="37.7623645%" y1="52.1581888%" x2="88.1787146%" y2="46.101475%" id="linearGradient-20">
            <stop stop-color="#FFFFFF" stop-opacity="0" offset="0%"></stop>
            <stop stop-color="#AEB6C1" stop-opacity="0.40349104" offset="100%"></stop>
        </linearGradient>
        <linearGradient x1="37.7623645%" y1="52.1678783%" x2="88.1787146%" y2="46.0839721%" id="linearGradient-21">
            <stop stop-color="#FFFFFF" stop-opacity="0" offset="0%"></stop>
            <stop stop-color="#AEB6C1" stop-opacity="0.40349104" offset="100%"></stop>
        </linearGradient>
        <linearGradient x1="57.1560837%" y1="78.1089221%" x2="36.4974766%" y2="24.5151137%" id="linearGradient-22">
            <stop stop-color="#CFD5DD" offset="0%"></stop>
            <stop stop-color="#FFFFFF" offset="100%"></stop>
        </linearGradient>
        <linearGradient x1="4.45361515%" y1="50.6605915%" x2="90.1767981%" y2="48.1208378%" id="linearGradient-23">
            <stop stop-color="#8BB27F" offset="0%"></stop>
            <stop stop-color="#376B2C" offset="100%"></stop>
        </linearGradient>
        <linearGradient x1="6.74356498%" y1="51.1487142%" x2="92.8359374%" y2="48.8512858%" id="linearGradient-24">
            <stop stop-color="#A2D095" offset="0%"></stop>
            <stop stop-color="#5E9252" offset="100%"></stop>
        </linearGradient>
        <linearGradient x1="60.2200343%" y1="105.493661%" x2="57.0553303%" y2="29.5152723%" id="linearGradient-25">
            <stop stop-color="#97B3CF" offset="0%"></stop>
            <stop stop-color="#A0BEDE" offset="100%"></stop>
        </linearGradient>
    </defs>
    <g id="Page-1" stroke="none" stroke-width="1" fill="none" fill-rule="evenodd">
        <g id="系统维护" transform="translate(-123.000000, -197.000000)">
            <g id="编组" transform="translate(64.000000, 197.000000)">
                <rect id="矩形" fill="url(#radialGradient-1)" x="59" y="0" width="530" height="223"></rect>
                <g id="Group-3" transform="translate(272.491803, 27.000000)">
                    <g id="Group-2">
                        <g id="矩形">
                            <use fill="black" fill-opacity="1" filter="url(#filter-4)" xlink:href="#path-3"></use>
                            <use fill="url(#linearGradient-2)" fill-rule="evenodd" xlink:href="#path-3"></use>
                        </g>
                        <g id="Rectangle-8">
                            <use fill="black" fill-opacity="1" filter="url(#filter-7)" xlink:href="#path-6"></use>
                            <use fill="url(#linearGradient-5)" fill-rule="evenodd" xlink:href="#path-6"></use>
                        </g>
                        <g id="Rectangle-2">
                            <use fill="black" fill-opacity="1" filter="url(#filter-10)" xlink:href="#path-9"></use>
                            <use fill="url(#linearGradient-8)" fill-rule="evenodd" xlink:href="#path-9"></use>
                        </g>
                        <g id="Rectangle-2">
                            <use fill="black" fill-opacity="1" filter="url(#filter-13)" xlink:href="#path-12"></use>
                            <use stroke="#EBEEF2" stroke-width="0.819672131" fill="url(#linearGradient-11)" fill-rule="evenodd" xlink:href="#path-12"></use>
                        </g>
                    </g>
                </g>
                <g id="编组-2" transform="translate(127.000000, 172.245902)">
                    <g id="Group" transform="translate(112.360656, 56.000000) scale(-1, 1) translate(-112.360656, -56.000000) translate(0.360656, 0.000000)">
                        <g id="Box" transform="translate(98.566894, 71.592025) rotate(-4.000000) translate(-98.566894, -71.592025) translate(2.066894, 38.592025)">
                            <polygon id="Path-27" fill="url(#linearGradient-14)" points="0.877162176 0.474413141 103.309405 9.43607313 192.348077 34.1583892 105.674479 28.0975808"></polygon>
                            <polygon id="Path-26" fill="url(#linearGradient-15)" points="1.63310606 0.819672131 1.49018778e-12 33.3951059 102.426517 65.3886895 105.028813 28.1741198"></polygon>
                            <polygon id="Path-26-Copy" fill="url(#linearGradient-16)" transform="translate(146.500298, 46.916253) scale(-1, 1) translate(-146.500298, -46.916253) " points="102.296878 34.1728393 104.346258 63.4803505 190.703719 65.6583855 188.082564 28.1741198"></polygon>
                            <ellipse id="Oval-3" fill="#FFFFFF" opacity="0.600000024" cx="92.4540615" cy="43.7333901" rx="5.32786885" ry="8.60655738"></ellipse>
                            <polygon id="Rectangle-3" fill="#FFFFFF" opacity="0.600000024" transform="translate(44.844048, 30.945089) rotate(16.000000) translate(-44.844048, -30.945089) " points="5.6719042 27.4359399 81.5605736 25.8324193 84.0161913 36.0577591 7.27542486 33.6524781"></polygon>
                        </g>
                        <g id="Box-Copy" transform="translate(126.280154, 39.193790) rotate(-4.000000) translate(-126.280154, -39.193790) translate(30.780154, 6.693790)">
                            <polygon id="Path-27" fill="url(#linearGradient-17)" points="1.63310606 1.10890087e-13 103.309405 8.616401 190.703719 33.3531672 104.456636 27.1927488"></polygon>
                            <polygon id="Path-26" fill="url(#linearGradient-15)" points="1.63310606 -4.65929663e-14 3.35390643e-12 32.5754338 102.426517 64.5690173 105.028813 27.3544477"></polygon>
                            <polygon id="Path-26-Copy" fill="url(#linearGradient-18)" transform="translate(146.500298, 46.096581) scale(-1, 1) translate(-146.500298, -46.096581) " points="102.296878 33.3531672 104.346258 62.6606784 190.703719 64.8387134 188.082564 27.3544477"></polygon>
                            <ellipse id="Oval-3" fill="#FFFFFF" opacity="0.600000024" cx="89.2405371" cy="41.8673328" rx="5.32786885" ry="8.60655738"></ellipse>
                            <polygon id="Rectangle-3" fill="#FFFFFF" opacity="0.600000024" transform="translate(40.052350, 28.147002) rotate(16.000000) translate(-40.052350, -28.147002) " points="0.880206373 24.6378523 76.7688757 23.0343316 79.2244935 33.2596715 2.48372703 30.8543905"></polygon>
                        </g>
                    </g>
                </g>
                <polygon id="路径" fill="url(#linearGradient-19)" points="358.665921 267.524449 318.298187 267.524449 177.879468 296.93206 273.491803 328.530961"></polygon>
                <polygon id="路径备份" fill="url(#linearGradient-20)" points="455.579548 244 371.153319 244 178 260.590023 353.978952 291.093279"></polygon>
                <polygon id="路径备份-2" fill="url(#linearGradient-21)" points="244.732871 276.012388 163.032787 267 -9.9475983e-14 287.806858 124.009997 308.613716"></polygon>
                <g id="Group-4" transform="translate(306.131148, 118.000000)">
                    <path d="M3.787985,62.0650513 L61.6106431,62.0650513 L52.534773,149.524449 C52.534773,149.524449 47.7272727,153.08973 32.6993141,153.08973 C17.6713554,153.08973 12.1670399,149.524449 12.1670399,149.524449 L3.787985,62.0650513 Z" id="Rectangle-10" fill="url(#linearGradient-22)"></path>
                    <path d="M5.25192357,47.6943946 C5.45098806,46.4573601 6.63169747,45.4545455 7.89194605,45.4545455 L58.0048247,45.4545455 C59.2638044,45.4545455 60.4604152,46.4606388 60.6762487,47.6943946 L62.2677258,56.7916609 L3.787985,56.7916609 L5.25192357,47.6943946 Z" id="Rectangle" fill="url(#linearGradient-23)"></path>
                    <path d="M0.336081831,57.8745217 C0.359673596,57.2523208 0.884343376,56.7479272 1.50965675,56.7479272 L64.4012822,56.7479272 C65.025838,56.7479272 65.5514459,57.2570824 65.5748572,57.8745217 L65.910939,66.7382265 L1.23243523e-14,66.7382265 L0.336081831,57.8745217 Z" id="Rectangle-9" fill="url(#linearGradient-24)"></path>
                    <path d="M47.0542532,1.13636364 C49.7289343,12.2596035 46.1747412,18.8891531 43.9007658,24.1499646 C41.6267904,29.4107761 45.4739216,39.9854303 45.4739216,39.9854303 C45.4739216,39.9854303 43.4797856,26.5239057 48.4090652,18.8214352 C50.9424929,12.1714664 48.8327621,6.01632722 47.0542532,1.13636364 Z" id="Path-2" fill="#C8D1DA" transform="translate(46.380425, 20.560897) rotate(-5.000000) translate(-46.380425, -20.560897) "></path>
                    <path d="M50.7753828,21.5409547 C49.3397596,26.5265982 48.1963975,29.6009978 48.9772687,35.9465804 C49.7581399,42.292163 47.7272727,45.8158926 47.7272727,45.8158926 C47.7272727,45.8158926 50.7753827,39.0209805 50.1858373,34.0313542 C48.6259317,30.1256146 52.2110059,16.5553112 50.7753828,21.5409547 Z" id="Path-3" fill="#C8D1DA"></path>
                </g>
                <g id="齿轮" transform="translate(372.000000, 76.000000)" fill="url(#linearGradient-25)" opacity="0.800595238">
                    <path d="M46.3417961,36.2454224 L43.8966129,36.2454224 C42.8833925,36.2454224 41.8112448,35.454586 41.5099997,34.4882794 L40.2414902,31.4078846 C39.7654741,30.5166014 39.9613987,29.201617 40.673726,28.486333 L42.4091115,26.7538225 C42.6983424,26.4637215 42.878426,26.0632552 42.878426,25.6210125 C42.878426,25.1779838 42.7014759,24.7777786 42.4091115,24.4868075 L39.4641438,21.5465435 C39.1749129,21.2574002 38.775839,21.078361 38.3343788,21.078361 C37.8926558,21.078361 37.491145,21.2582703 37.2014752,21.5465435 L35.4663534,23.2815802 C34.754026,23.9964312 33.4344265,24.1928772 32.5426244,23.7139027 L29.464407,22.4471369 C28.5018464,22.1483321 27.7076979,21.0740078 27.7076979,20.061655 L27.7076979,17.613078 C27.7076979,17.2042557 27.5516368,16.7940411 27.2385577,16.4815693 C26.9256521,16.1684902 26.5168307,16.0119936 26.1079251,16.0119936 L21.9488502,16.0119936 C21.5383745,16.0119936 21.1294655,16.1684894 20.816559,16.4815693 C20.5039146,16.7940394 20.347071,17.204254 20.347071,17.613078 L20.347071,20.061655 C20.347071,21.0740078 19.5600647,22.1483244 18.5933218,22.4471369 L15.513012,23.7139027 C14.6185137,24.192878 13.3057918,23.9986945 12.5939016,23.2815802 L10.851465,21.5478533 C10.5618862,21.2582745 10.1603754,21.0808889 9.71900362,21.0808889 C9.27762847,21.0808889 8.87794555,21.2607982 8.58827745,21.549159 L5.65070974,24.4867267 C5.3610442,24.7763922 5.18331066,25.1756405 5.18113406,25.6183204 C5.18113406,26.0596956 5.36104334,26.4603354 5.65070974,26.7498291 L7.38313521,28.4856483 C8.10016282,29.2027627 8.29652461,30.5167928 7.81537102,31.4077187 L6.54730386,34.490206 C6.24806349,35.4570365 5.17643723,36.2476976 4.16313177,36.2476976 L1.71542235,36.2451735 C1.30433758,36.2451735 0.895602074,36.4017568 0.582961024,36.7146616 C0.269968691,37.0277406 0.113472949,37.437433 0.113472949,37.8476502 L0.113472949,42.0057639 C0.113472949,42.4153696 0.269969541,42.825062 0.582961024,43.138574 C0.895605476,43.4502607 1.30442774,43.6068441 1.71542235,43.6068441 L4.16269798,43.6068441 C5.17635217,43.608933 6.24588859,44.3992472 6.5449563,45.363987 L7.81537952,48.4443818 C8.29183119,49.3379275 8.09799557,50.6558719 7.38314371,51.3681959 L5.64592956,53.1009701 C5.35626401,53.3906356 5.17635387,53.7912763 5.17635387,54.2346562 C5.17635387,54.6760314 5.3561764,55.0778901 5.64592956,55.3675599 L8.59098225,58.3073901 C8.88012555,58.5974911 9.27946059,58.7760948 9.72074728,58.7760948 C10.1625571,58.7760948 10.5639811,58.5974911 10.853736,58.3073901 L12.5912989,56.5736632 C13.303713,55.8600302 14.615996,55.6641099 15.5056291,56.14752 L18.5932537,57.4143709 C19.5599992,57.7143946 20.3470029,58.7866239 20.3470029,59.7993255 L20.3470029,62.239635 C20.3470029,62.6484573 20.5034119,63.0594553 20.816491,63.3720963 C21.1293966,63.6829997 21.5383056,63.8394086 21.949301,63.8394086 L26.1060198,63.8394086 C26.51667,63.8394086 26.9254922,63.6829997 27.2383961,63.3720963 C27.5514752,63.0594519 27.7079718,62.6485415 27.7079718,62.239635 L27.7079718,59.7993255 C27.7079718,58.7865389 28.5017673,57.7143912 29.4638133,57.4143709 L32.5467344,56.14752 C33.4389702,55.6641056 34.756047,55.8605525 35.4731597,56.5736632 L37.1990528,58.3060887 C37.4881961,58.5969731 37.8875311,58.7778401 38.3319564,58.7778401 C38.7728093,58.7790587 39.174668,58.60089 39.4638989,58.3095701 L42.4088665,55.3671286 C42.7011433,55.0761575 42.8781811,54.676039 42.8781811,54.2334425 C42.8781811,53.790675 42.6986197,53.3905565 42.4088665,53.1004538 L40.6739149,51.3681134 C39.9612396,50.6554381 39.7656629,49.3374027 40.2415923,48.4438656 L41.509753,45.3634707 C41.8109948,44.3992514 42.887926,43.608939 43.8968,43.608939 L46.3415495,43.608939 C46.7503717,43.608939 47.1592808,43.451921 47.4717483,43.1390155 C47.7848274,42.8259364 47.9414107,42.4167654 47.9414107,42.0069879 L47.9414107,37.8476579 C47.9414107,37.4374432 47.7848274,37.0277509 47.4717483,36.7146692 C47.1595393,36.401938 46.7507171,36.2454414 46.3418046,36.2454414 L46.3418046,36.2454414 L46.3418046,36.2454414 L46.3417961,36.2454224 Z M24.0343272,49.1190024 C18.9532552,49.1190024 14.8358751,45.0043186 14.8358751,39.9236124 C14.8358751,34.8442756 18.9532552,30.7268615 24.0343272,30.7268615 C29.1141829,30.7268615 33.2312482,34.8442415 33.2312482,39.9236124 C33.2312482,45.0042506 29.1142169,49.1190024 24.0343272,49.1190024 L24.0343272,49.1190024 L24.0343272,49.1190024 Z M79.410293,15.7875104 C79.1836434,15.5602518 78.8874497,15.4471009 78.590995,15.4471009 L76.8199283,15.4471009 C76.085493,15.4471009 75.3085821,14.8743838 75.0905478,14.1741515 L74.171332,11.9422988 C73.8266578,11.2968175 73.9684438,10.344348 74.4844111,9.82577453 L75.7421269,8.57015116 C75.9514556,8.36038699 76.0820141,8.07028595 76.0820141,7.749983 C76.0820141,7.42915695 75.9532834,7.13905591 75.7421269,6.92833485 L73.6081064,4.79797182 C73.3983422,4.58812089 73.109199,4.45852006 72.7896785,4.45852006 C72.4696358,4.45852006 72.1787514,4.58907863 71.9689005,4.79797182 L70.7112698,6.0552538 C70.1953893,6.57287458 69.2393559,6.71474823 68.5930018,6.36789825 L66.3633266,5.44998383 C65.6660568,5.23369155 65.0908195,4.45547589 65.0908195,3.72147947 L65.0908195,1.94780153 C65.0908195,1.65169464 64.9776687,1.35480439 64.7509323,1.12763337 C64.5242827,0.900896989 64.2276535,0.787746119 63.9315466,0.787746119 L60.9184316,0.787746119 C60.6205845,0.787746119 60.3245643,0.901419407 60.0977412,1.12763354 C59.8710916,1.35480541 59.7578539,1.65169566 59.7578539,1.9478017 L59.7578539,3.72147964 C59.7578539,4.45547946 59.1876613,5.23369343 58.4871756,5.449984 L56.2552379,6.36789842 C55.6070585,6.71474925 54.6563343,6.57461586 54.1399299,6.05525397 L52.8778677,4.79884808 C52.6680168,4.58899714 52.3771324,4.46017969 52.0571773,4.46017969 C51.7371346,4.46017969 51.4480781,4.59073825 51.2382271,4.79928357 L49.109948,6.92834523 C48.8997492,7.13828292 48.7713664,7.42733946 48.7700608,7.74781763 C48.7700608,8.0677727 48.9001838,8.35778698 49.109948,8.56763791 L50.3651376,9.82578746 C50.8844995,10.3450626 51.0270689,11.2964 50.6782167,11.941878 L49.7598685,14.1759081 C49.5431415,14.8760494 48.766143,15.4488575 48.0322317,15.4488575 L46.2589875,15.4471167 C45.9611404,15.4471167 45.6651203,15.5607898 45.4387318,15.7875262 C45.2119954,16.0142626 45.0979744,16.3107173 45.0979744,16.6081299 L45.0979744,19.6203773 C45.0979744,19.9174411 45.2119954,20.2143313 45.4387318,20.4410677 C45.6651203,20.666934 45.9611395,20.7800848 46.2589875,20.7800848 L48.0323167,20.7800847 C48.7662298,20.7819125 49.5414004,21.3545421 49.757691,22.0539017 L50.6782167,24.2852355 C51.0236743,24.9325447 50.8831939,25.8877114 50.3651376,26.4040223 L49.1064692,27.6589482 C48.896705,27.8687992 48.7661464,28.1592481 48.7661464,28.4805096 C48.7661464,28.8006391 48.896705,29.0914367 49.1064692,29.3012 L51.2400559,31.4318268 C51.44982,31.6410687 51.7389633,31.7707563 52.0593539,31.7707563 C52.3789611,31.7707563 52.6698455,31.6411554 52.8796964,31.4318268 L54.1387135,30.1751572 C54.6546808,29.6580586 55.6058388,29.5158371 56.2500154,29.8660817 L58.4866567,30.784515 C59.1873211,31.0016774 59.7574287,31.7779767 59.7574287,32.5120667 L59.7574287,34.2805222 C59.7574287,34.5765414 59.8711018,34.8743894 60.0977514,35.1006903 C60.3244878,35.3261211 60.6201592,35.4397942 60.9184418,35.4397942 L63.9299067,35.4397942 C64.2281894,35.4397942 64.5238608,35.3261211 64.7505972,35.1006903 C64.9773335,34.8743886 65.0909199,34.5766282 65.0909199,34.2805222 L65.0909199,32.5120667 C65.0909199,31.7779801 65.6661606,31.0016816 66.363427,30.784515 L68.5969382,29.8660817 C69.2433773,29.5158371 70.1971516,29.657971 70.7169499,30.1751572 L71.9668319,31.4303468 C72.1771183,31.6410678 72.4662616,31.7720619 72.7880446,31.7720619 C73.1079129,31.7732804 73.3989717,31.6433312 73.6082127,31.432958 L75.7417994,29.3012851 C75.9533915,29.090564 76.0821222,28.8007241 76.0821222,28.4798113 C76.0821222,28.159334 75.9515636,27.8693197 75.7417994,27.6594688 L74.4849597,26.4041091 C73.9689925,25.8877063 73.8267709,24.932629 74.1718807,24.2853223 L75.0906626,22.0539885 C75.3086952,21.3550652 76.0890832,20.7820002 76.8196093,20.7820002 L78.5911183,20.7820002 C78.8875731,20.7820002 79.1832445,20.6687626 79.4099808,20.4420262 C79.6371527,20.2157245 79.7503036,19.9183128 79.7503036,19.6218581 L79.7503036,16.6082157 C79.7503036,16.3110643 79.6371536,16.0142616 79.4103296,15.7875253 L79.4103296,15.7875253 L79.4103296,15.7875253 L79.410293,15.7875104 Z M62.429242,24.7742564 C58.7472329,24.7742564 55.7644916,21.7932588 55.7644916,18.112466 C55.7644916,14.432107 58.7473179,11.4493658 62.429242,11.4493658 C66.1092522,11.4493658 69.0924273,14.4321921 69.0924273,18.112466 C69.0924273,21.7932588 66.1093373,24.7742564 62.429242,24.7742564 L62.429242,24.7742564 L62.429242,24.7742564 Z" id="形状"></path>
                </g>
            </g>
        </g>
    </g>
</svg>