<?xml version="1.0" encoding="UTF-8"?>
<svg width="220px" height="40px" viewBox="0 0 220 40" version="1.1" xmlns="http://www.w3.org/2000/svg" xmlns:xlink="http://www.w3.org/1999/xlink">
    <title>画板备份 4</title>
    <defs>
        <linearGradient x1="33.6395795%" y1="49.8498337%" x2="86.4133565%" y2="50.8149871%" id="linearGradient-1">
            <stop stop-color="#1875F0" offset="0%"></stop>
            <stop stop-color="#1EA4F8" offset="100%"></stop>
        </linearGradient>
        <linearGradient x1="71.0064018%" y1="95.8289622%" x2="0%" y2="-5.78519902%" id="linearGradient-2">
            <stop stop-color="#F6D266" offset="0%"></stop>
            <stop stop-color="#F7CE68" offset="6%"></stop>
            <stop stop-color="#FBAE7C" offset="67%"></stop>
            <stop stop-color="#FDA284" offset="100%"></stop>
        </linearGradient>
    </defs>
    <g id="logo" stroke="none" stroke-width="1" fill="none" fill-rule="evenodd">
        <g id="画板备份-4" transform="translate(-364.000000, -333.000000)">
            <g id="编组-5备份-4" transform="translate(364.000000, 333.000000)">
                <g id="编组-6备份-4" transform="translate(0.000000, 11.000000)">
                    <path d="M210.474,5.185 L213.099,13.417 L215.745,5.185 L218.79,5.185 L214.443,17.722 C214.205,18.352 213.918,18.961 213.582,19.549 C213.33,19.969 213.029,20.347 212.679,20.683 C212.329,20.991 211.93,21.222 211.482,21.376 C211.048,21.488 210.614,21.544 210.18,21.544 C209.606,21.516 209.046,21.411 208.5,21.229 C208.038,21.089 207.618,20.886 207.24,20.62 L207.24,20.62 L207.681,19.402 C208.129,19.514 208.591,19.584 209.067,19.612 C209.333,19.612 209.599,19.577 209.865,19.507 C210.145,19.423 210.39,19.29 210.6,19.108 C210.866,18.828 211.083,18.52 211.251,18.184 C211.433,17.82 211.587,17.449 211.713,17.071 L211.713,17.071 L207.198,5.185 L210.474,5.185 Z M111.837,0.46 C112.593,0.474 113.335,0.579 114.063,0.775 C114.777,0.985 115.435,1.3 116.037,1.72 C117.143,2.56 117.892,3.652 118.284,4.996 L118.284,4.996 L115.47,5.647 C115.288,5.255 115.092,4.87 114.882,4.492 C114.644,4.114 114.357,3.771 114.021,3.463 C113.727,3.211 113.398,3.022 113.034,2.896 C112.642,2.784 112.243,2.728 111.837,2.728 C111.277,2.756 110.745,2.868 110.241,3.064 C109.611,3.372 109.086,3.806 108.666,4.366 C108.246,4.982 107.931,5.647 107.721,6.361 C107.511,7.145 107.406,7.943 107.406,8.755 C107.406,9.581 107.511,10.386 107.721,11.17 C107.917,11.884 108.232,12.549 108.666,13.165 C109.086,13.725 109.611,14.159 110.241,14.467 C110.745,14.677 111.277,14.782 111.837,14.782 C112.845,14.796 113.79,14.558 114.672,14.068 C115.512,13.564 116.191,12.885 116.709,12.031 L116.709,12.031 L118.326,12.535 C118.144,13.137 117.864,13.69 117.486,14.194 C117.038,14.782 116.513,15.3 115.911,15.748 C114.693,16.616 113.335,17.064 111.837,17.092 C110.913,17.078 110.01,16.938 109.128,16.672 C108.12,16.322 107.245,15.769 106.503,15.013 C105.803,14.215 105.292,13.305 104.97,12.283 C104.62,11.135 104.452,9.959 104.466,8.755 C104.466,7.579 104.662,6.431 105.054,5.311 C105.432,4.289 105.985,3.379 106.713,2.581 C107.455,1.825 108.33,1.258 109.338,0.88 C110.15,0.628 110.983,0.488 111.837,0.46 Z M98.4871423,4.85714286 L97.4752564,7.28571429 L96.8815161,7.28571429 C95.5990371,7.28571429 94.7836338,7.5225 94.4353062,7.99607143 C94.1256816,8.41702381 93.953668,8.9163301 93.9192653,9.4939903 L93.9128147,9.71428571 L93.9128147,17 L90.9441134,17 L90.9441134,9.71428571 C90.9441134,8.37047619 91.4072308,7.225 92.3334656,6.27785714 C93.208243,5.38333333 94.6090913,4.91122354 96.5360106,4.86152778 L96.8815161,4.85714286 L98.4871423,4.85714286 Z M11.4968487,4.85714286 C13.6026475,4.85714286 15.1186643,5.33071429 16.0448991,6.27785714 C16.909385,7.16185714 17.3704441,8.21862751 17.4280765,9.44816825 L17.4342514,9.71428571 L17.4342514,17 L14.46555,17 L14.46555,9.71428571 C14.46555,9.04238095 14.2913862,8.46964286 13.9430586,7.99607143 C13.5947309,7.5225 12.7793276,7.28571429 11.4968487,7.28571429 C10.2143697,7.28571429 9.39896638,7.5225 9.05063875,7.99607143 C8.7410142,8.41702381 8.56900055,8.9163301 8.53459783,9.4939903 L8.52814731,9.71428571 L8.52814731,17 L5.55944597,17 L5.55944597,9.71428571 C5.55944597,8.37047619 6.02256338,7.225 6.9487982,6.27785714 C7.87503302,5.33071429 9.39104984,4.85714286 11.4968487,4.85714286 Z M2.96870135,4.85714286 L2.96870135,17 L2.04858353e-12,17 L2.04858353e-12,4.85714286 L2.96870135,4.85714286 Z M73.8878188,-1.81188398e-13 L73.8878188,12.1428571 C73.8878188,13.4866667 73.4247014,14.6321429 72.4984665,15.5792857 C71.5722317,16.5264286 70.0562149,17 67.9504161,17 C65.8446172,17 64.3286004,16.5264286 63.4023656,15.5792857 C62.5378798,14.6952857 62.0768207,13.6385153 62.0191883,12.4089746 L62.0130134,12.1428571 L62.0130134,9.71428571 C62.0130134,8.37047619 62.4761308,7.225 63.4023656,6.27785714 C64.3286004,5.33071429 65.8446172,4.85714286 67.9504161,4.85714286 C68.9918805,4.85714286 69.8894789,4.97227513 70.6432114,5.20253968 L70.9191174,5.29428571 L70.9191174,0.607142857 L73.8878188,-1.81188398e-13 Z M59.4222688,-1.81188398e-13 L59.4222688,17 L56.4535674,17 L56.4535674,0.607142857 L59.4222688,-1.81188398e-13 Z M39.3972728,4.85714286 L39.3972728,12.1428571 C39.3972728,12.8147619 39.5714366,13.3875 39.9197642,13.8610714 C40.2680918,14.3346429 41.0834951,14.5714286 42.3659741,14.5714286 C43.6484531,14.5714286 44.4638564,14.3346429 44.812184,13.8610714 C45.1218086,13.440119 45.2938222,12.9408128 45.328225,12.3631526 L45.3346755,12.1428571 L45.3346755,4.85714286 L48.3033768,4.85714286 L48.3033768,12.1428571 C48.3033768,13.4866667 47.8402594,14.6321429 46.9140246,15.5792857 C45.9877898,16.5264286 44.4717729,17 42.3659741,17 C40.2601753,17 38.7441585,16.5264286 37.8179237,15.5792857 C36.9534378,14.6952857 36.4923787,13.6385153 36.4347463,12.4089746 L36.4285714,12.1428571 L36.4285714,4.85714286 L39.3972728,4.85714286 Z M53.8628228,4.85714286 L53.8628228,17 L50.8941214,17 L50.8941214,4.85714286 L53.8628228,4.85714286 Z M82.4159661,4.85714286 C84.5217649,4.85714286 86.0377817,5.33071429 86.9640165,6.27785714 C87.8285024,7.16185714 88.2895615,8.21862751 88.3471939,9.44816825 L88.3533688,9.71428571 L88.3533688,12.1428571 L79.4472647,12.1428571 C79.4472647,12.8147619 79.6214285,13.3875 79.9697562,13.8610714 C80.3180838,14.3346429 81.1334871,14.5714286 82.4159661,14.5714286 C83.6984451,14.5714286 84.5138484,14.4155952 84.862176,14.1039286 C85.1669627,13.8312202 85.3384052,13.5755562 85.3765035,13.3369364 L85.3846674,13.2357143 L87.9971246,13.9642857 C87.8387939,14.7738095 87.3954678,15.4821429 86.6671464,16.0892857 C85.938825,16.6964286 84.5217649,17 82.4159661,17 C80.3101673,17 78.7941504,16.5264286 77.8679156,15.5792857 C77.0034298,14.6952857 76.5423707,13.6385153 76.4847383,12.4089746 L76.4785634,12.1428571 L76.4785634,9.71428571 C76.4785634,8.37047619 76.9416808,7.225 77.8679156,6.27785714 C78.7941504,5.33071429 80.3101673,4.85714286 82.4159661,4.85714286 Z M27.8071429,0.518071685 L28.0299012,0.520749531 C31.2745818,0.599111974 33.522381,2.3890602 33.522381,4.80045264 C33.522381,6.31400161 32.7056639,7.55137462 31.4858505,7.97626697 L31.3170526,8.02912044 L29.8320936,8.44296148 L31.3288123,8.81201542 L31.4916588,8.85659156 C32.9943225,9.3094231 34.0080952,10.7841561 34.0080952,12.5961669 C34.0080952,15.0866147 31.8625777,16.82967 28.5884831,16.9882157 L28.3205628,16.997582 L28.0942049,17 L19.8333333,17 L19.8333333,0.518071685 L27.8071429,0.518071685 Z M125.424,4.786 C126.082,4.8 126.726,4.912 127.356,5.122 C128.112,5.388 128.763,5.815 129.309,6.403 C129.827,6.991 130.219,7.663 130.485,8.419 C130.737,9.231 130.87,10.064 130.884,10.918 C130.87,11.772 130.751,12.612 130.527,13.438 C130.289,14.18 129.911,14.845 129.393,15.433 C128.861,15.993 128.217,16.406 127.461,16.672 C126.789,16.868 126.11,16.973 125.424,16.987 C124.738,16.973 124.073,16.861 123.429,16.651 C122.673,16.385 122.029,15.965 121.497,15.391 C120.979,14.789 120.601,14.117 120.363,13.375 C120.111,12.577 119.992,11.758 120.006,10.918 C120.006,10.078 120.139,9.252 120.405,8.44 C120.671,7.684 121.07,7.005 121.602,6.403 C122.134,5.829 122.771,5.402 123.513,5.122 C124.129,4.912 124.766,4.8 125.424,4.786 Z M172.968,5.185 L172.968,12.745 C172.954,13.319 173.122,13.823 173.472,14.257 C173.808,14.593 174.221,14.761 174.711,14.761 C175.201,14.775 175.663,14.642 176.097,14.362 C176.559,14.026 176.93,13.592 177.21,13.06 L177.21,13.06 L177.21,5.185 L180.087,5.185 L180.087,16.672 L177.21,16.672 L177.21,15.202 C176.804,15.762 176.293,16.21 175.677,16.546 C175.173,16.826 174.641,16.973 174.081,16.987 C173.577,16.973 173.087,16.917 172.611,16.819 C172.093,16.707 171.624,16.49 171.204,16.168 C170.812,15.846 170.532,15.454 170.364,14.992 C170.168,14.432 170.077,13.858 170.091,13.27 L170.091,13.27 L170.091,5.185 L172.968,5.185 Z M204.762,1.93 L204.762,5.185 L207.03,5.185 L207.03,7.579 L204.762,7.579 L204.762,13.9 C204.748,14.124 204.762,14.348 204.804,14.572 C204.832,14.726 204.902,14.859 205.014,14.971 C205.112,15.041 205.224,15.09 205.35,15.118 C205.588,15.174 205.833,15.195 206.085,15.181 C206.393,15.181 206.708,15.139 207.03,15.055 L207.03,15.055 L207.198,16.189 C206.54,16.651 205.812,16.917 205.014,16.987 C204.524,16.987 204.048,16.945 203.586,16.861 C203.222,16.777 202.886,16.623 202.578,16.399 C202.298,16.161 202.109,15.874 202.011,15.538 C201.913,15.202 201.871,14.859 201.885,14.509 L201.885,14.509 L201.885,7.579 L200.604,7.579 L200.604,5.185 L201.885,5.185 L201.885,2.77 L204.762,1.93 Z M188.97,4.786 C189.446,4.8 189.922,4.863 190.398,4.975 C190.916,5.115 191.385,5.36 191.805,5.71 C192.169,6.06 192.442,6.48 192.624,6.97 C192.806,7.53 192.897,8.104 192.897,8.692 L192.897,8.692 L192.897,16.672 L190.02,16.672 L190.02,9.238 C190.006,8.944 189.978,8.65 189.936,8.356 C189.88,8.076 189.775,7.81 189.621,7.558 C189.467,7.362 189.278,7.222 189.054,7.138 C188.802,7.04 188.543,6.991 188.277,6.991 C187.815,7.019 187.395,7.152 187.017,7.39 C186.499,7.74 186.086,8.174 185.778,8.692 L185.778,8.692 L185.778,16.672 L182.901,16.672 L182.901,5.185 L185.778,5.185 L185.778,6.613 C186.226,6.067 186.758,5.612 187.374,5.248 C187.864,4.968 188.396,4.814 188.97,4.786 Z M163.518,4.786 C164.484,4.8 165.303,5.164 165.975,5.878 C166.311,6.27 166.57,6.704 166.752,7.18 C166.92,7.684 167.011,8.202 167.025,8.734 L167.025,8.734 L167.025,16.672 L164.148,16.672 L164.148,9.952 C164.148,9.49 164.113,9.028 164.043,8.566 C163.987,8.23 163.882,7.922 163.728,7.642 C163.476,7.222 163.105,7.005 162.615,6.991 C162.335,7.005 162.076,7.082 161.838,7.222 C161.586,7.39 161.383,7.607 161.229,7.873 C161.047,8.195 160.921,8.545 160.851,8.923 C160.795,9.259 160.767,9.602 160.767,9.952 L160.767,9.952 L160.767,16.672 L157.89,16.672 L157.89,9.952 C157.876,9.532 157.848,9.105 157.806,8.671 C157.764,8.293 157.659,7.936 157.491,7.6 C157.365,7.39 157.19,7.229 156.966,7.117 C156.742,7.033 156.518,6.991 156.294,6.991 C155.888,7.019 155.531,7.18 155.223,7.474 C154.873,7.81 154.635,8.216 154.509,8.692 L154.509,8.692 L154.509,16.672 L151.632,16.672 L151.632,5.185 L154.509,5.185 L154.509,6.676 C154.845,6.102 155.307,5.64 155.895,5.29 C156.413,4.982 156.973,4.814 157.575,4.786 C158.625,4.828 159.437,5.297 160.011,6.193 C160.991,5.269 162.16,4.8 163.518,4.786 Z M145.185,4.786 C146.151,4.8 146.97,5.164 147.642,5.878 C147.978,6.27 148.237,6.704 148.419,7.18 C148.587,7.684 148.678,8.202 148.692,8.734 L148.692,8.734 L148.692,16.672 L145.815,16.672 L145.815,9.952 C145.815,9.49 145.78,9.028 145.71,8.566 C145.654,8.23 145.549,7.922 145.395,7.642 C145.143,7.222 144.772,7.005 144.282,6.991 C144.002,7.005 143.743,7.082 143.505,7.222 C143.253,7.39 143.05,7.607 142.896,7.873 C142.714,8.195 142.588,8.545 142.518,8.923 C142.462,9.259 142.434,9.602 142.434,9.952 L142.434,9.952 L142.434,16.672 L139.557,16.672 L139.557,9.952 C139.543,9.532 139.515,9.105 139.473,8.671 C139.431,8.293 139.326,7.936 139.158,7.6 C139.032,7.39 138.857,7.229 138.633,7.117 C138.409,7.033 138.185,6.991 137.961,6.991 C137.555,7.019 137.198,7.18 136.89,7.474 C136.54,7.81 136.302,8.216 136.176,8.692 L136.176,8.692 L136.176,16.672 L133.299,16.672 L133.299,5.185 L136.176,5.185 L136.176,6.676 C136.512,6.102 136.974,5.64 137.562,5.29 C138.08,4.982 138.64,4.814 139.242,4.786 C140.292,4.828 141.104,5.297 141.678,6.193 C142.658,5.269 143.827,4.8 145.185,4.786 Z M198.714,5.185 L198.714,16.672 L195.837,16.672 L195.837,5.185 L198.714,5.185 Z M125.424,6.991 C124.668,6.991 124.066,7.285 123.618,7.873 C123.366,8.251 123.184,8.671 123.072,9.133 C122.932,9.721 122.869,10.316 122.883,10.918 C122.869,11.52 122.939,12.101 123.093,12.661 C123.205,13.109 123.387,13.515 123.639,13.879 C124.087,14.453 124.682,14.74 125.424,14.74 C125.774,14.74 126.103,14.663 126.411,14.509 C126.789,14.285 127.097,13.984 127.335,13.606 C127.573,13.2 127.741,12.766 127.839,12.304 C127.937,11.856 127.993,11.394 128.007,10.918 C127.993,10.442 127.944,9.966 127.86,9.49 C127.762,9.028 127.601,8.587 127.377,8.167 C126.943,7.411 126.292,7.019 125.424,6.991 Z M27.2728571,9.42283359 L23.1038095,9.42283359 L23.1038095,14.7252145 L27.2728571,14.7252145 L27.4577749,14.7218811 C29.2911392,14.6554168 30.6404762,13.601176 30.6404762,12.1104526 C30.6404762,10.5270288 29.2041922,9.42283359 27.2728571,9.42283359 Z M67.9504161,7.28571429 C66.6679371,7.28571429 65.8525338,7.5225 65.5042062,7.99607143 C65.1945816,8.41702381 65.022568,8.9163301 64.9881652,9.4939903 L64.9817147,9.71428571 L64.9817147,12.1428571 C64.9817147,12.8147619 65.1558785,13.3875 65.5042062,13.8610714 C65.8525338,14.3346429 66.6679371,14.5714286 67.9504161,14.5714286 C69.2328951,14.5714286 70.0482984,14.3346429 70.396626,13.8610714 C70.7062505,13.440119 70.8782642,12.9408128 70.9126669,12.3631526 L70.9191174,12.1428571 L70.9191174,9.71428571 C70.9191174,9.04238095 70.7449536,8.46964286 70.396626,7.99607143 C70.0482984,7.5225 69.2328951,7.28571429 67.9504161,7.28571429 Z M82.4159661,7.28571429 C81.1334871,7.28571429 80.3180838,7.5225 79.9697562,7.99607143 C79.6601316,8.41702381 79.488118,8.9163301 79.4537152,9.4939903 L79.4472647,9.71428571 L85.3846674,9.71428571 C85.3846674,9.04238095 85.2105036,8.46964286 84.862176,7.99607143 C84.5138484,7.5225 83.6984451,7.28571429 82.4159661,7.28571429 Z M27.0785714,2.79283359 L23.1038095,2.79283359 L23.1038095,7.46378597 L27.0785714,7.46378597 L27.2536684,7.46069718 C28.9309412,7.40114962 30.1547619,6.48551856 30.1547619,5.14045264 C30.1547619,3.7460424 28.8388276,2.79283359 27.0785714,2.79283359 Z M197.265,0.334 C197.741,0.348 198.147,0.53 198.483,0.88 C198.763,1.202 198.91,1.573 198.924,1.993 C198.91,2.427 198.763,2.798 198.483,3.106 C198.147,3.456 197.741,3.631 197.265,3.631 C196.775,3.631 196.362,3.456 196.026,3.106 C195.76,2.784 195.627,2.413 195.627,1.993 C195.627,1.517 195.802,1.111 196.152,0.775 C196.46,0.495 196.831,0.348 197.265,0.334 Z M2.96870135,0.607142857 L2.96870135,3.03571429 L2.04858353e-12,3.03571429 L2.04858353e-12,0.607142857 L2.96870135,0.607142857 Z" id="形状结合" fill="url(#linearGradient-1)" fill-rule="nonzero"></path>
                    <g id="编组-7" fill="url(#linearGradient-2)">
                        <polygon id="路径备份-35" points="53.8628228 3.03571429 53.8628228 0.607142857 50.8941214 0.607142857 50.8941214 3.03571429"></polygon>
                    </g>
                </g>
            </g>
        </g>
    </g>
</svg>