<?xml version="1.0" encoding="UTF-8"?>
<svg width="220px" height="40px" viewBox="0 0 220 40" version="1.1" xmlns="http://www.w3.org/2000/svg" xmlns:xlink="http://www.w3.org/1999/xlink">
    <title>画板备份 5</title>
    <defs>
        <linearGradient x1="33.6395795%" y1="49.8087992%" x2="86.4133565%" y2="51.0376908%" id="linearGradient-1">
            <stop stop-color="#1875F0" offset="0%"></stop>
            <stop stop-color="#1EA4F8" offset="100%"></stop>
        </linearGradient>
    </defs>
    <g id="logo" stroke="none" stroke-width="1" fill="none" fill-rule="evenodd">
        <g id="画板备份-4" transform="translate(-591.000000, -287.000000)" fill="url(#linearGradient-1)" fill-rule="nonzero">
            <g id="编组-8" transform="translate(591.000000, 287.000000)">
                <path d="M158.88958,11.2869471 L158.88958,16.7184466 L159.607994,16.7184466 L159.607994,18.6450917 L155.359084,18.6450917 L155.359084,20.6947141 L158.745897,20.6947141 L158.745897,27.5199569 C159.347997,26.3175117 159.779046,25.0535778 160.039043,23.7281553 C160.189568,22.9219705 160.292199,22.1021215 160.346935,21.2686084 C160.415356,20.2984538 160.449566,19.3214671 160.449566,18.3376483 L160.449566,18.3376483 L160.449566,12.7626753 C163.528486,12.5713772 166.580039,12.1546206 169.604223,11.5124056 L169.604223,11.5124056 L170.076324,13.5210356 C168.803703,13.835311 167.524241,14.0539374 166.237936,14.1769148 C165.115841,14.286228 164.00743,14.2520676 162.912702,14.0744337 L162.912702,14.0744337 L162.912702,16.7594391 L170.09685,16.7594391 L170.09685,18.7270766 C169.809484,20.0115067 169.412645,21.2617763 168.906334,22.4778857 C168.468443,23.4480403 167.927922,24.3498741 167.284769,25.1833873 C167.72266,25.7846099 168.215288,26.3311758 168.762651,26.8230852 C169.46054,27.437972 170.206323,28.0050342 171,28.5242718 L171,28.5242718 L170.527899,29.7540453 C169.583697,29.2894642 168.680547,28.7633945 167.818449,28.175836 C167.147928,27.7249191 166.532144,27.2056814 165.971097,26.618123 C165.218472,27.2740022 164.404268,27.8615606 163.528486,28.3807983 C162.639021,28.9137001 161.722186,29.3919453 160.777984,29.815534 L160.777984,29.815534 L160.203252,28.6882416 C161.024298,28.1826681 161.811133,27.62927 162.563758,27.0280475 C163.330067,26.4131607 164.027956,25.7299533 164.657424,24.978425 C163.80901,23.693995 163.20691,22.3070838 162.851124,20.8176915 C162.796388,21.6921971 162.680073,22.5530385 162.50218,23.4002157 C162.337971,24.1654081 162.091657,24.9032722 161.763239,25.613808 C161.407452,26.3243438 160.976403,26.987055 160.470092,27.6019417 C160.032201,28.1075153 159.566942,28.5925926 159.074315,29.0571737 L159.074315,29.0571737 L158.704844,28.6882416 C158.650108,28.9888529 158.499583,29.2348076 158.253269,29.4261057 C158.006956,29.5900755 157.746958,29.6720604 157.473276,29.6720604 L157.473276,29.6720604 L156.28276,29.6720604 L156.28276,22.6213592 L155.297506,22.6213592 C155.256454,23.427544 155.160665,24.2200647 155.01014,24.9989213 C154.873299,25.6957929 154.661196,26.3721683 154.37383,27.0280475 C154.059096,27.6429342 153.669099,28.2236606 153.20384,28.7702265 C152.793317,29.2074793 152.355426,29.6174038 151.890167,30 L151.890167,30 L151.048596,29.2006472 C151.7328,28.080187 152.191217,26.8640777 152.423847,25.5523193 C152.574372,24.6778137 152.67016,23.7964761 152.711213,22.9083064 C152.765949,21.7605178 152.793317,20.6058972 152.793317,19.4444444 L152.793317,19.4444444 L152.793317,11.635383 L155.359084,11.635383 L155.359084,16.7184466 L156.364865,16.7184466 L156.364865,11.2869471 L158.88958,11.2869471 Z M115.292066,11 L116.564687,14.5048544 L115.846272,14.832794 L118.083621,14.832794 L118.083621,16.8209277 C117.604678,17.7500899 117.070998,18.6382596 116.482582,19.4854369 C117.590994,20.5785689 118.713089,21.6512046 119.848869,22.7033441 L119.848869,22.7033441 L119.253611,23.7691478 C118.665195,23.6461704 118.110989,23.4343761 117.590994,23.1337648 C117.029946,22.8058252 116.50995,22.4232291 116.031007,21.9859763 L116.031007,21.9859763 L116.031007,28.1348436 C116.031007,28.5447681 115.887324,28.8932039 115.599958,29.180151 C115.326276,29.4124416 115.018384,29.5285868 114.676282,29.5285868 L114.676282,29.5285868 L113.342083,29.5285868 L113.342083,22.9288026 C112.479986,23.6120101 111.556309,24.1790723 110.571055,24.6299892 L110.571055,24.6299892 L110.160532,23.236246 C111.145787,22.3207479 112.048937,21.323265 112.869982,20.2437972 C113.663659,19.1506652 114.395758,18.0097087 115.066279,16.8209277 L115.066279,16.8209277 L111.166313,16.8209277 L111.166313,14.832794 L115.476801,14.832794 C114.861017,14.559511 114.327338,14.1700827 113.875763,13.6645092 C113.643133,13.3912262 113.444714,13.0906149 113.280505,12.7626753 C113.102612,12.366415 112.945245,11.9633225 112.808404,11.5533981 L112.808404,11.5533981 L115.292066,11 Z M3.17176603,16.1818182 L3.17176603,29.1363636 L3.83026943e-13,29.1363636 L3.83026943e-13,16.1818182 L3.17176603,16.1818182 Z M12.2832544,16.1818182 C14.5330938,16.1818182 16.152809,16.6870455 17.1424,17.6975 C18.0660183,18.6405909 18.5586147,19.768001 18.6201892,21.0797303 L18.6267865,21.3636364 L18.6267865,29.1363636 L15.4550205,29.1363636 L15.4550205,21.3636364 C15.4550205,20.6468182 15.2689435,20.0357955 14.8967897,19.5305682 C14.5246358,19.0253409 13.6534574,18.7727273 12.2832544,18.7727273 C10.9130515,18.7727273 10.0418731,19.0253409 9.66971924,19.5305682 C9.33891579,19.9796591 9.15513609,20.5123415 9.11838016,21.1286153 L9.11148842,21.3636364 L9.11148842,29.1363636 L5.93972239,29.1363636 L5.93972239,21.3636364 C5.93972239,19.93 6.43451789,18.7079545 7.42410889,17.6975 C8.41369989,16.6870455 10.0334151,16.1818182 12.2832544,16.1818182 Z M42.0921193,16.1818182 L42.0921193,23.9545455 C42.0921193,24.6713636 42.2781963,25.2823864 42.6503502,25.7876136 C43.0225041,26.2928409 43.8936825,26.5454545 45.2638854,26.5454545 C46.6340883,26.5454545 47.5052667,26.2928409 47.8774206,25.7876136 C48.208224,25.3385227 48.3920037,24.8058403 48.4287597,24.1895665 L48.4356514,23.9545455 L48.4356514,16.1818182 L51.6074174,16.1818182 L51.6074174,23.9545455 C51.6074174,25.3881818 51.1126219,26.6102273 50.1230309,27.6206818 C49.1334399,28.6311364 47.5137247,29.1363636 45.2638854,29.1363636 C43.014046,29.1363636 41.3943308,28.6311364 40.4047398,27.6206818 C39.4811216,26.6775909 38.9885251,25.5501808 38.9269506,24.2384515 L38.9203533,23.9545455 L38.9203533,16.1818182 L42.0921193,16.1818182 Z M57.5471398,16.1818182 L57.5471398,29.1363636 L54.3753738,29.1363636 L54.3753738,16.1818182 L57.5471398,16.1818182 Z M63.4868622,11 L63.4868622,29.1363636 L60.3150962,29.1363636 L60.3150962,11.6477273 L63.4868622,11 Z M78.9418827,11 L78.9418827,23.9545455 C78.9418827,25.3881818 78.4470872,26.6102273 77.4574962,27.6206818 C76.4679052,28.6311364 74.84819,29.1363636 72.5983506,29.1363636 C70.3485113,29.1363636 68.7287961,28.6311364 67.7392051,27.6206818 C66.8155868,26.6775909 66.3229904,25.5501808 66.2614158,24.2384515 L66.2548186,23.9545455 L66.2548186,21.3636364 C66.2548186,19.93 66.7496141,18.7079545 67.7392051,17.6975 C68.7287961,16.6870455 70.3485113,16.1818182 72.5983506,16.1818182 C73.7110531,16.1818182 74.670049,16.3046465 75.4753382,16.550303 L75.7701167,16.6481818 L75.7701167,11.6477273 L78.9418827,11 Z M88.0533711,16.1818182 C90.3032105,16.1818182 91.9229257,16.6870455 92.9125167,17.6975 C93.8361349,18.6405909 94.3287313,19.768001 94.3903059,21.0797303 L94.3969032,21.3636364 L94.3969032,23.9545455 L84.8816051,23.9545455 C84.8816051,24.6713636 85.067682,25.2823864 85.4398359,25.7876136 C85.8119898,26.2928409 86.6831682,26.5454545 88.0533711,26.5454545 C89.423574,26.5454545 90.2947524,26.3792045 90.6669063,26.0467045 C90.992541,25.755767 91.1757104,25.4830131 91.2164148,25.2284428 L91.2251371,25.1204545 L94.0162912,25.8977273 C93.8471304,26.7613636 93.37348,27.5170455 92.5953401,28.1647727 C91.8172001,28.8125 90.3032105,29.1363636 88.0533711,29.1363636 C85.8035317,29.1363636 84.1838166,28.6311364 83.1942255,27.6206818 C82.2706073,26.6775909 81.7780109,25.5501808 81.7164363,24.2384515 L81.709839,23.9545455 L81.709839,21.3636364 C81.709839,19.93 82.2046345,18.7079545 83.1942255,17.6975 C84.1838166,16.6870455 85.8035317,16.1818182 88.0533711,16.1818182 Z M29.709203,11.5527021 L29.9471984,11.555559 C33.4138212,11.6391596 35.815374,13.5487567 35.815374,16.1213385 C35.815374,17.7391187 34.9394836,19.0611449 33.6321316,19.5120061 L33.4591971,19.5658263 L31.8726641,20.0073306 L33.4717612,20.4010539 L33.6457467,20.4486097 C35.2511954,20.9317107 36.3343121,22.5050221 36.3343121,24.4381567 C36.3343121,27.0986687 34.0358377,28.9596724 30.5298005,29.1244681 L30.2577419,29.133784 L30.0159007,29.1363636 L21.1899701,29.1363636 L21.1899701,11.5527021 L29.709203,11.5527021 Z M105.223846,16.1818182 L104.142745,18.7727273 L103.508392,18.7727273 C102.138189,18.7727273 101.26701,19.0253409 100.894856,19.5305682 C100.564053,19.9796591 100.380273,20.5123415 100.343517,21.1286153 L100.336626,21.3636364 L100.336626,29.1363636 L97.1648595,29.1363636 L97.1648595,21.3636364 C97.1648595,19.93 97.659655,18.7079545 98.649246,17.6975 C99.5867533,16.7402273 101.089801,16.2363995 103.15839,16.1860167 L103.508392,16.1818182 L105.223846,16.1818182 Z M149.221769,11.8813376 L149.221769,13.8079827 L134.77137,13.8079827 L134.77137,27.0895361 L149.570714,27.0895361 L149.570714,29.0161812 L132.144024,29.0161812 L132.144024,11.8813376 L149.221769,11.8813376 Z M125.267768,11.1229773 L125.267768,16.9644013 L128.81879,16.9644013 L128.81879,19.0140237 L125.267768,19.0140237 L125.267768,26.7615965 L129.414048,26.7615965 L129.414048,28.811219 L117.775729,28.811219 L117.775729,26.7615965 L122.435162,26.7615965 L122.435162,19.0140237 L119.068875,19.0140237 L119.068875,16.9644013 L122.435162,16.9644013 L122.435162,11.1229773 L125.267768,11.1229773 Z M29.1383712,21.0527021 L24.684153,21.0527021 L24.684153,26.7095203 L29.1383712,26.7095203 L29.3359377,26.7059641 C31.2947075,26.635057 32.7363416,25.5103455 32.7363416,23.9199749 C32.7363416,22.2307072 31.2018132,21.0527021 29.1383712,21.0527021 Z M72.5983506,18.7727273 C71.2281477,18.7727273 70.3569693,19.0253409 69.9848154,19.5305682 C69.654012,19.9796591 69.4702323,20.5123415 69.4334763,21.1286153 L69.4265846,21.3636364 L69.4265846,23.9545455 C69.4265846,24.6713636 69.6126615,25.2823864 69.9848154,25.7876136 C70.3569693,26.2928409 71.2281477,26.5454545 72.5983506,26.5454545 C73.9685536,26.5454545 74.839732,26.2928409 75.2118858,25.7876136 C75.5426893,25.3385227 75.726469,24.8058403 75.7632249,24.1895665 L75.7701167,23.9545455 L75.7701167,21.3636364 C75.7701167,20.6468182 75.5840397,20.0357955 75.2118858,19.5305682 C74.839732,19.0253409 73.9685536,18.7727273 72.5983506,18.7727273 Z M148.811247,20.592233 L148.811247,24.3020496 C148.811247,24.7666307 148.640196,25.1492269 148.298093,25.4498382 C148.079148,25.613808 147.839676,25.7299533 147.579679,25.798274 C147.237576,25.8802589 146.895474,25.9144193 146.553372,25.9007551 L146.553372,25.9007551 L142.550775,25.9007551 L142.550775,20.592233 L148.811247,20.592233 Z M141.770782,20.592233 L141.770782,24.3020496 C141.770782,24.7666307 141.613415,25.1492269 141.298681,25.4498382 C141.09342,25.613808 140.86079,25.7299533 140.600792,25.798274 C140.286058,25.8802589 139.964482,25.9144193 139.636064,25.9007551 L139.636064,25.9007551 L135.736098,25.9007551 L135.736098,20.592233 L141.770782,20.592233 Z M139.636064,22.1499461 L137.952921,22.1499461 L137.952921,24.3020496 L139.636064,24.3020496 L139.636064,22.1499461 Z M146.553372,22.1499461 L144.767598,22.1499461 L144.767598,24.3020496 L146.553372,24.3020496 L146.553372,22.1499461 Z M167.510557,18.6450917 L162.912702,18.6450917 C162.912702,18.945703 162.90586,19.2326501 162.892176,19.5059331 L162.892176,19.5059331 L164.719002,19.0755124 C165.006368,20.4282632 165.430575,21.7331895 165.991623,22.9902913 C166.689511,21.6238763 167.195823,20.1754764 167.510557,18.6450917 L167.510557,18.6450917 Z M88.0533711,18.7727273 C86.6831682,18.7727273 85.8119898,19.0253409 85.4398359,19.5305682 C85.1090324,19.9796591 84.9252528,20.5123415 84.8884968,21.1286153 L84.8816051,21.3636364 L91.2251371,21.3636364 C91.2251371,20.6468182 91.0390602,20.0357955 90.6669063,19.5305682 C90.2947524,19.0253409 89.423574,18.7727273 88.0533711,18.7727273 Z M147.641257,14.7918015 L147.641257,17.9482201 C147.641257,18.4401294 147.442838,18.8227256 147.045999,19.0960086 C146.772317,19.2599784 146.484951,19.3761237 146.183901,19.4444444 C145.759694,19.5264293 145.34233,19.5605897 144.931807,19.5469256 L144.931807,19.5469256 L136.762405,19.5469256 L136.762405,14.7918015 L147.641257,14.7918015 Z M28.930796,13.9795203 L24.684153,13.9795203 L24.684153,18.9627021 L28.930796,18.9627021 L29.1178699,18.9594069 C30.9098712,18.8958789 32.2174036,17.9190425 32.2174036,16.4840658 C32.2174036,14.9964463 30.8114569,13.9795203 28.930796,13.9795203 Z M144.931807,16.390507 L139.471855,16.390507 L139.471855,17.9482201 L144.931807,17.9482201 L144.931807,16.390507 Z M3.17176603,11.6477273 L3.17176603,14.2386364 L3.83026943e-13,14.2386364 L3.83026943e-13,11.6477273 L3.17176603,11.6477273 Z" id="形状结合"></path>
            </g>
        </g>
    </g>
</svg>