<?xml version="1.0" encoding="UTF-8"?>
<svg width="220px" height="40px" viewBox="0 0 220 40" version="1.1" xmlns="http://www.w3.org/2000/svg" xmlns:xlink="http://www.w3.org/1999/xlink">
    <title>画板备份 4</title>
    <defs>
        <linearGradient x1="33.6395795%" y1="49.8087992%" x2="86.4133565%" y2="51.0376908%" id="linearGradient-1">
            <stop stop-color="#1875F0" offset="0%"></stop>
            <stop stop-color="#1EA4F8" offset="100%"></stop>
        </linearGradient>
        <linearGradient x1="71.0064018%" y1="95.8289622%" x2="0%" y2="-5.78519902%" id="linearGradient-2">
            <stop stop-color="#F6D266" offset="0%"></stop>
            <stop stop-color="#F7CE68" offset="6%"></stop>
            <stop stop-color="#FBAE7C" offset="67%"></stop>
            <stop stop-color="#FDA284" offset="100%"></stop>
        </linearGradient>
    </defs>
    <g id="logo" stroke="none" stroke-width="1" fill="none" fill-rule="evenodd">
        <g id="画板备份-4" transform="translate(-364.000000, -287.000000)">
            <g id="编组-9" transform="translate(364.000000, 287.000000)">
                <g id="编组-10备份-2" transform="translate(0.000000, 11.000000)">
                    <path d="M158.794289,0.286947141 L158.794289,5.7184466 L159.518357,5.7184466 L159.518357,7.64509169 L155.236014,7.64509169 L155.236014,9.69471413 L158.649476,9.69471413 L158.649476,16.5199569 C159.256313,15.3175117 159.690754,14.0535778 159.952797,12.7281553 C160.104507,11.9219705 160.207945,11.1021215 160.263112,10.2686084 C160.332071,9.29845379 160.36655,8.3214671 160.36655,7.33764833 L160.36655,7.33764833 L160.36655,1.7626753 C163.469697,1.5713772 166.54526,1.15462064 169.59324,0.512405609 L169.59324,0.512405609 L170.069056,2.5210356 C168.786422,2.83531104 167.496892,3.05393743 166.200466,3.17691478 C165.069542,3.28622798 163.952409,3.2520676 162.849068,3.07443366 L162.849068,3.07443366 L162.849068,5.75943905 L170.089744,5.75943905 L170.089744,7.72707659 C169.800117,9.01150665 169.400155,10.2617763 168.88986,11.4778857 C168.448524,12.4480403 167.903749,13.3498741 167.255536,14.1833873 C167.696873,14.7846099 168.193376,15.3311758 168.745047,15.8230852 C169.448427,16.437972 170.200078,17.0050342 171,17.5242718 L171,17.5242718 L170.524184,18.7540453 C169.572552,18.2894642 168.662296,17.7633945 167.793415,17.175836 C167.117618,16.7249191 166.496989,16.2056814 165.931527,15.618123 C165.17298,16.2740022 164.35237,16.8615606 163.469697,17.3807983 C162.573232,17.9137001 161.649184,18.3919453 160.697552,18.815534 L160.697552,18.815534 L160.118298,17.6882416 C160.945804,17.1826681 161.738831,16.62927 162.497378,16.0280475 C163.269716,15.4131607 163.973096,14.7299533 164.607517,13.978425 C163.752428,12.693995 163.145591,11.3070838 162.787005,9.81769148 C162.731838,10.6921971 162.614608,11.5530385 162.435315,12.4002157 C162.269814,13.1654081 162.021562,13.9032722 161.690559,14.613808 C161.331974,15.3243438 160.897533,15.987055 160.387238,16.6019417 C159.945901,17.1075153 159.476981,17.5925926 158.980478,18.0571737 L158.980478,18.0571737 L158.6081,17.6882416 C158.552933,17.9888529 158.401224,18.2348076 158.152972,18.4261057 C157.90472,18.5900755 157.642677,18.6720604 157.366841,18.6720604 L157.366841,18.6720604 L156.166958,18.6720604 L156.166958,11.6213592 L155.173951,11.6213592 C155.132576,12.427544 155.036033,13.2200647 154.884324,13.9989213 C154.746406,14.6957929 154.532634,15.3721683 154.243007,16.0280475 C153.925796,16.6429342 153.532731,17.2236606 153.063811,17.7702265 C152.650058,18.2074793 152.208722,18.6174038 151.739802,19 L151.739802,19 L150.891608,18.2006472 C151.581197,17.080187 152.043221,15.8640777 152.277681,14.5523193 C152.42939,13.6778137 152.525932,12.7964761 152.567308,11.9083064 C152.622475,10.7605178 152.650058,9.60589716 152.650058,8.44444444 L152.650058,8.44444444 L152.650058,0.635382956 L155.236014,0.635382956 L155.236014,5.7184466 L156.249709,5.7184466 L156.249709,0.286947141 L158.794289,0.286947141 Z M114.85373,0 L116.136364,3.50485437 L115.412296,3.83279396 L117.667249,3.83279396 L117.667249,5.82092772 C117.184538,6.7500899 116.646659,7.63825962 116.053613,8.48543689 C117.170746,9.57856886 118.301671,10.6512046 119.446387,11.7033441 L119.446387,11.7033441 L118.846445,12.7691478 C118.253399,12.6461704 117.694833,12.4343761 117.170746,12.1337648 C116.605284,11.8058252 116.081197,11.4232291 115.598485,10.9859763 L115.598485,10.9859763 L115.598485,17.1348436 C115.598485,17.5447681 115.453671,17.8932039 115.164044,18.180151 C114.888209,18.4124416 114.577894,18.5285868 114.2331,18.5285868 L114.2331,18.5285868 L112.888403,18.5285868 L112.888403,11.9288026 C112.019522,12.6120101 111.088578,13.1790723 110.095571,13.6299892 L110.095571,13.6299892 L109.681818,12.236246 C110.674825,11.3207479 111.585082,10.323265 112.412587,9.2437972 C113.21251,8.15066523 113.950369,7.00970874 114.626166,5.82092772 L114.626166,5.82092772 L110.695513,5.82092772 L110.695513,3.83279396 L115.039918,3.83279396 C114.419289,3.55951097 113.88141,3.1700827 113.426282,2.66450917 C113.191822,2.39122618 112.991841,2.09061489 112.82634,1.7626753 C112.647047,1.36641496 112.488442,0.963322546 112.350524,0.553398058 L112.350524,0.553398058 L114.85373,0 Z M3.16714395,5.18181818 L3.16714395,18.1363636 L2.95452551e-12,18.1363636 L2.95452551e-12,5.18181818 L3.16714395,5.18181818 Z M12.2653546,5.18181818 C14.5119154,5.18181818 16.1292702,5.68704545 17.1174191,6.6975 C18.0396914,7.64059091 18.53157,8.76800101 18.5930548,10.0797303 L18.5996425,10.3636364 L18.5996425,18.1363636 L15.4324985,18.1363636 L15.4324985,10.3636364 C15.4324985,9.64681818 15.2466928,9.03579545 14.8750812,8.53056818 C14.5034696,8.02534091 13.6335608,7.77272727 12.2653546,7.77272727 C10.8971484,7.77272727 10.0272395,8.02534091 9.65562797,8.53056818 C9.32530659,8.97965909 9.14179471,9.51234147 9.10509233,10.1286153 L9.09821064,10.3636364 L9.09821064,18.1363636 L5.93106669,18.1363636 L5.93106669,10.3636364 C5.93106669,8.93 6.42514114,7.70795455 7.41329006,6.6975 C8.40143897,5.68704545 10.0187938,5.18181818 12.2653546,5.18181818 Z M42.0307803,5.18181818 L42.0307803,12.9545455 C42.0307803,13.6713636 42.2165861,14.2823864 42.5881977,14.7876136 C42.9598092,15.2928409 43.8297181,15.5454545 45.1979243,15.5454545 C46.5661305,15.5454545 47.4360393,15.2928409 47.8076509,14.7876136 C48.1379723,14.3385227 48.3214841,13.8058403 48.3581865,13.1895665 L48.3650682,12.9545455 L48.3650682,5.18181818 L51.5322122,5.18181818 L51.5322122,12.9545455 C51.5322122,14.3881818 51.0381377,15.6102273 50.0499888,16.6206818 C49.0618399,17.6311364 47.444485,18.1363636 45.1979243,18.1363636 C42.9513635,18.1363636 41.3340086,17.6311364 40.3458597,16.6206818 C39.4235874,15.6775909 38.9317088,14.5501808 38.870224,13.2384515 L38.8636364,12.9545455 L38.8636364,5.18181818 L42.0307803,5.18181818 Z M57.4632789,5.18181818 L57.4632789,18.1363636 L54.2961349,18.1363636 L54.2961349,5.18181818 L57.4632789,5.18181818 Z M63.3943455,0 L63.3943455,18.1363636 L60.2272016,18.1363636 L60.2272016,0.647727273 L63.3943455,0 Z M78.8268441,0 L78.8268441,12.9545455 C78.8268441,14.3881818 78.3327696,15.6102273 77.3446207,16.6206818 C76.3564718,17.6311364 74.739117,18.1363636 72.4925562,18.1363636 C70.2459954,18.1363636 68.6286406,17.6311364 67.6404916,16.6206818 C66.7182193,15.6775909 66.2263408,14.5501808 66.1648559,13.2384515 L66.1582683,12.9545455 L66.1582683,10.3636364 C66.1582683,8.93 66.6523427,7.70795455 67.6404916,6.6975 C68.6286406,5.68704545 70.2459954,5.18181818 72.4925562,5.18181818 C73.6036372,5.18181818 74.5612356,5.30464646 75.3653512,5.55030303 L75.6597001,5.64818182 L75.6597001,0.647727273 L78.8268441,0 Z M87.9250547,5.18181818 C90.1716155,5.18181818 91.7889703,5.68704545 92.7771193,6.6975 C93.6993916,7.64059091 94.1912701,8.76800101 94.252755,10.0797303 L94.2593426,10.3636364 L94.2593426,12.9545455 L84.7579108,12.9545455 C84.7579108,13.6713636 84.9437165,14.2823864 85.3153281,14.7876136 C85.6869397,15.2928409 86.5568485,15.5454545 87.9250547,15.5454545 C89.2932609,15.5454545 90.1631698,15.3792045 90.5347813,15.0467045 C90.8599414,14.755767 91.042844,14.4830131 91.083489,14.2284428 L91.0921987,14.1204545 L93.8792853,14.8977273 C93.710371,15.7613636 93.2374108,16.5170455 92.4604049,17.1647727 C91.6833989,17.8125 90.1716155,18.1363636 87.9250547,18.1363636 C85.6784939,18.1363636 84.0611391,17.6311364 83.0729902,16.6206818 C82.1507179,15.6775909 81.6588393,14.5501808 81.5973545,13.2384515 L81.5907668,12.9545455 L81.5907668,10.3636364 C81.5907668,8.93 82.0848413,7.70795455 83.0729902,6.6975 C84.0611391,5.68704545 85.6784939,5.18181818 87.9250547,5.18181818 Z M29.6659091,0.552702145 L29.9035576,0.555558991 C33.3651287,0.639159566 35.7631818,2.54875674 35.7631818,5.12133851 C35.7631818,6.73911873 34.8885678,8.06114491 33.583121,8.5120061 L33.4104385,8.56582635 L31.8262175,9.00733057 L33.4229843,9.40105389 L33.5967162,9.44860972 C35.1998254,9.93171075 36.2813636,11.5050221 36.2813636,13.4381567 C36.2813636,16.0986687 33.9862387,17.9596724 30.4853107,18.1244681 L30.2136486,18.133784 L29.9721598,18.1363636 L21.1590909,18.1363636 L21.1590909,0.552702145 L29.6659091,0.552702145 Z M105.070507,5.18181818 L103.990982,7.77272727 L103.357553,7.77272727 C101.989347,7.77272727 101.119438,8.02534091 100.747827,8.53056818 C100.417505,8.97965909 100.233993,9.51234147 100.197291,10.1286153 L100.190409,10.3636364 L100.190409,18.1363636 L97.0232654,18.1363636 L97.0232654,10.3636364 C97.0232654,8.93 97.5173398,7.70795455 98.5054887,6.6975 C99.4416298,5.74022727 100.942488,5.23639952 103.008062,5.18601675 L103.357553,5.18181818 L105.070507,5.18181818 Z M149.257284,1.06580367 L149.257284,3.11542611 L134.941434,3.11542611 L134.941434,15.8845739 L149.65035,15.8845739 L149.65035,17.9341963 L132.065851,17.9341963 L132.065851,1.06580367 L149.257284,1.06580367 Z M124.907925,0.122977346 L124.907925,5.96440129 L128.486888,5.96440129 L128.486888,8.01402373 L124.907925,8.01402373 L124.907925,15.7615965 L129.08683,15.7615965 L129.08683,17.811219 L117.356935,17.811219 L117.356935,15.7615965 L122.05303,15.7615965 L122.05303,8.01402373 L118.660256,8.01402373 L118.660256,5.96440129 L122.05303,5.96440129 L122.05303,0.122977346 L124.907925,0.122977346 Z M29.0959091,10.0527021 L24.6481818,10.0527021 L24.6481818,15.7095203 L29.0959091,15.7095203 L29.2931877,15.7059641 C31.2491031,15.635057 32.6886364,14.5103455 32.6886364,12.9199749 C32.6886364,11.2307072 31.1563441,10.0527021 29.0959091,10.0527021 Z M72.4925562,7.77272727 C71.12435,7.77272727 70.2544411,8.02534091 69.8828296,8.53056818 C69.5525082,8.97965909 69.3689963,9.51234147 69.3322939,10.1286153 L69.3254122,10.3636364 L69.3254122,12.9545455 C69.3254122,13.6713636 69.511218,14.2823864 69.8828296,14.7876136 C70.2544411,15.2928409 71.12435,15.5454545 72.4925562,15.5454545 C73.8607624,15.5454545 74.7306712,15.2928409 75.1022828,14.7876136 C75.4326042,14.3385227 75.6161161,13.8058403 75.6528184,13.1895665 L75.6597001,12.9545455 L75.6597001,10.3636364 C75.6597001,9.64681818 75.4738944,9.03579545 75.1022828,8.53056818 C74.7306712,8.02534091 73.8607624,7.77272727 72.4925562,7.77272727 Z M145.450758,3.38187702 L147.726399,4.67313916 C146.512723,6.34016541 145.209402,7.91154261 143.816434,9.38727077 L143.816434,9.38727077 L148.491841,14.2243797 L147.726399,15.3721683 C146.829934,14.8256023 145.967949,14.2243797 145.140443,13.5685005 C144.119852,12.7486516 143.126845,11.8878101 142.161422,10.9859763 C141.154623,11.9151384 140.085761,12.7691478 138.954837,13.5480043 C137.96183,14.2312118 136.927448,14.8256023 135.85169,15.3311758 L135.85169,15.3311758 L135.231061,14.0809061 C137.10674,12.6871629 138.851399,11.1294498 140.465035,9.40776699 C138.989316,7.98669543 137.534285,6.53829558 136.099942,5.06256742 L136.099942,5.06256742 L137.96183,3.56634304 C139.354798,4.9054297 140.727078,6.25818051 142.078671,7.62459547 C143.250971,6.25818051 144.375,4.84394103 145.450758,3.38187702 L145.450758,3.38187702 Z M167.4831,7.64509169 L162.849068,7.64509169 C162.849068,7.94570298 162.842172,8.23265013 162.82838,8.50593312 L162.82838,8.50593312 L164.66958,8.07551241 C164.959207,9.42826321 165.386752,10.7331895 165.952214,11.9902913 C166.655594,10.6238763 167.16589,9.17547645 167.4831,7.64509169 L167.4831,7.64509169 Z M87.9250547,7.77272727 C86.5568485,7.77272727 85.6869397,8.02534091 85.3153281,8.53056818 C84.9850067,8.97965909 84.8014948,9.51234147 84.7647925,10.1286153 L84.7579108,10.3636364 L91.0921987,10.3636364 C91.0921987,9.64681818 90.9063929,9.03579545 90.5347813,8.53056818 C90.1631698,8.02534091 89.2932609,7.77272727 87.9250547,7.77272727 Z M28.8886364,2.97952033 L24.6481818,2.97952033 L24.6481818,7.96270215 L28.8886364,7.96270215 L29.0754376,7.95940688 C30.8648276,7.89587888 32.1704545,6.91904253 32.1704545,5.48406578 C32.1704545,3.99644631 30.7665567,2.97952033 28.8886364,2.97952033 Z M3.16714395,0.647727273 L3.16714395,3.23863636 L2.95452551e-12,3.23863636 L2.95452551e-12,0.647727273 L3.16714395,0.647727273 Z" id="形状结合" fill="url(#linearGradient-1)" fill-rule="nonzero"></path>
                    <polygon id="路径备份-35" fill="url(#linearGradient-2)" points="57.4632789 3.23863636 57.4632789 0.647727273 54.2961349 0.647727273 54.2961349 3.23863636"></polygon>
                </g>
            </g>
        </g>
    </g>
</svg>