<?xml version="1.0" encoding="UTF-8"?>
<svg width="11px" height="16px" viewBox="0 0 11 16" version="1.1" xmlns="http://www.w3.org/2000/svg" xmlns:xlink="http://www.w3.org/1999/xlink">
    <title>数码手机</title>
    <g id="页面-1" stroke="none" stroke-width="1" fill="none" fill-rule="evenodd">
        <g id="错误提示-发送验证码" transform="translate(-890.000000, -282.000000)" fill="#C5C8CF" fill-rule="nonzero">
            <g id="分组-4" transform="translate(840.000000, 209.000000)">
                <g id="分组-2" transform="translate(37.000000, 65.000000)">
                    <g id="数码手机" transform="translate(13.000000, 8.000000)">
                        <path d="M9.37962989,12.4138046 L1.37940161,12.4138046 L1.37940161,1.37929513 L9.37962989,1.37929513 L9.37962989,12.4138046 Z M2.20701642,11.5862317 L8.55201506,11.5862317 L8.55201506,2.20687124 L2.20701642,2.20687124 L2.20701642,11.5862317 L2.20701642,11.5862317 L2.20701642,11.5862317 Z M6.11121276,13.7764264 C6.11121276,14.1503196 5.80798308,14.4531395 5.4342077,14.4531395 C5.06041618,14.4531395 4.75718489,14.150318 4.75718489,13.7764264 C4.75718489,13.4025171 5.06039844,13.0991519 5.4342077,13.0991519 C5.80798308,13.0991354 6.11121276,13.4025026 6.11121276,13.7764264 M9.35197819,16 L1.40698877,16 C0.631223282,16 0,15.3685041 0,14.5929338 L0,1.40690004 C0,0.63118295 0.631224911,0 1.40698878,0 L9.35197821,0 C10.1277437,0 10.7589847,0.631199083 10.7589847,1.40690004 L10.7589847,14.5929338 C10.7589847,15.3685025 10.1277453,16 9.35197821,16 L9.35197819,16 Z M1.40698877,0.827577723 C1.0874633,0.827577723 0.827635801,1.08739393 0.827635801,1.40688874 L0.827635801,14.5929225 C0.827635801,14.9124189 1.08747943,15.1723819 1.40698877,15.1723819 L9.35197819,15.1723819 C9.67150366,15.1723819 9.93136343,14.9124351 9.93136343,14.5929225 L9.93136343,1.40688874 C9.93136343,1.08739231 9.67151978,0.827577723 9.35197818,0.827577723 L1.40698875,0.827577723 L1.40698877,0.827577723 Z" id="形状"></path>
                    </g>
                </g>
            </g>
        </g>
    </g>
</svg>