<?xml version="1.0" encoding="UTF-8"?>
<svg width="14px" height="16px" viewBox="0 0 14 16" version="1.1" xmlns="http://www.w3.org/2000/svg" xmlns:xlink="http://www.w3.org/1999/xlink">
    <title>验证码</title>
    <g id="页面-1" stroke="none" stroke-width="1" fill="none" fill-rule="evenodd">
        <g id="错误提示-发送验证码" transform="translate(-888.000000, -326.000000)" fill="#C5C8CF" fill-rule="nonzero">
            <g id="分组-4" transform="translate(840.000000, 209.000000)">
                <g id="分组-2" transform="translate(37.000000, 65.000000)">
                    <g id="分组-10" transform="translate(0.000000, 44.000000)">
                        <g id="验证码" transform="translate(11.000000, 8.000000)">
                            <path d="M6.87999479,16 C4.47199897,16 0,12.4159971 0,9.0239963 L0,2.55200013 C0,2.39199941 0.127999947,2.27200083 0.29600078,2.26400009 L0.688001049,2.25600008 C0.704001121,2.25600008 2.23200147,2.2240001 3.808008,1.60000043 C5.41600808,0.960000701 6.45601039,0.223999907 6.47201188,0.216000735 L6.70401143,0.056000016 C6.75201149,0.0240000293 6.81601146,0 6.88001206,0 C6.94401204,0 7.00801201,0.0160000719 7.0560127,0.056000016 L7.28801225,0.223999907 C7.29601225,0.231999912 8.34401291,0.967999873 9.96000902,1.60799961 C11.5360061,2.23199943 13.0640145,2.26399926 13.080016,2.26399926 L13.4640155,2.27199925 C13.6240162,2.27199925 13.7600163,2.39999919 13.7600163,2.55999928 L13.7600163,9.03199546 C13.7600163,12.4160034 9.2880173,16 6.88002148,16 L6.87999479,16 Z M12.7040015,3.30400712 C12.1120015,3.25600706 10.8640034,3.1040074 9.57600164,2.59200698 C8.24800085,2.07200739 7.28000051,1.48800657 6.87999479,1.22400719 C6.47999535,1.4800074 5.511995,2.07200739 4.18398794,2.59200698 C2.89598773,3.1040074 1.65598883,3.25600737 1.0559881,3.30400712 L1.0559881,9.024012 C1.0559881,11.6800073 4.95198071,14.936019 6.87999479,14.936019 C7.62399475,14.936019 9.08000271,14.3280191 10.5039936,13.000012 C11.8799941,11.7200126 12.7040015,10.2320064 12.7040015,9.024012 L12.7040015,3.30400712 Z M6.32799851,10.1120031 C6.23199855,10.2160031 6.09599896,10.2720038 5.95199816,10.2720038 C5.80799814,10.2720038 5.67999803,10.2160038 5.5759978,10.1120031 L3.98399921,8.51199589 L3.98399922,8.51199589 C3.77633951,8.30476174 3.77599561,7.96842434 3.98322906,7.76076621 C3.98348551,7.76050923 3.98374223,7.76025252 3.9839992,7.75999607 C4.19199967,7.5519956 4.5199987,7.5519956 4.72799917,7.75199606 L4.73599917,7.75999607 L5.95199898,8.98399662 L9.01599288,5.89599264 C9.2159926,5.68799218 9.55199238,5.68799218 9.75999285,5.88799264 L9.76799285,5.89599264 C9.97599331,6.1039931 9.97599331,6.43999289 9.76799285,6.64799335 L6.32798761,10.111993 L6.32799851,10.1120031 Z" id="形状"></path>
                        </g>
                    </g>
                </g>
            </g>
        </g>
    </g>
</svg>