<?xml version="1.0" encoding="UTF-8"?>
<svg width="120px" height="11px" viewBox="0 0 120 11" version="1.1" xmlns="http://www.w3.org/2000/svg" xmlns:xlink="http://www.w3.org/1999/xlink">
    <!-- Generator: Sketch 64 (93537) - https://sketch.com -->
    <title>最大化下拉hover</title>
    <desc>Created with Sketch.</desc>
    <g id="页面-1" stroke="none" stroke-width="1" fill="none" fill-rule="evenodd">
        <g id="最大化下拉按钮" transform="translate(-765.000000, 0.000000)">
            <g id="最大化下拉hover" transform="translate(765.000000, -3.000000)">
                <path d="M0,3.75008695 C0,3.75008695 120,3.75008695 120,3.75008695 C118.572599,4.93958754 117.314988,6.97803512 116.227166,9.8654297 C115.346584,12.2027586 113.110131,13.7500869 110.612425,13.7500869 L9.62928762,13.7500869 C7.06836257,13.7500883 4.78972364,12.1246696 3.95608253,9.70322795 C2.99154263,6.90157015 1.67284845,4.91718982 0,3.75008695 Z" id="矩形" fill="#1070E8"></path>
                <path d="M56.4006857,2.00669158 C56.7770378,1.95641263 57.1254322,2.19452935 57.2231327,2.55080494 L57.2433954,2.65077266 L57.992,8.25708695 L63.5993143,9.00669158 C63.9756664,9.05697053 64.2493357,9.37819218 64.2500854,9.74762026 L64.2433954,9.84940123 C64.1931164,10.2257533 63.8718948,10.4994226 63.5024667,10.5001724 L63.4006857,10.4934823 L56.6574682,9.59261872 L55.7566046,2.84940123 C55.7017549,2.43883531 55.9901198,2.06154135 56.4006857,2.00669158 Z" id="路径" fill-opacity="0.7" fill="#FFFFFF" fill-rule="nonzero" transform="translate(59.999999, 6.250086) rotate(-45.000000) translate(-59.999999, -6.250086) "></path>
            </g>
        </g>
    </g>
</svg>