<?xml version="1.0" encoding="UTF-8"?>
<svg width="16px" height="16px" viewBox="0 0 16 16" version="1.1" xmlns="http://www.w3.org/2000/svg" xmlns:xlink="http://www.w3.org/1999/xlink">
    <title>编组 17</title>
    <g id="忘记密码" stroke="none" stroke-width="1" fill="none" fill-rule="evenodd">
        <g id="密码重置2" transform="translate(-845.000000, -298.000000)">
            <g id="编组" transform="translate(845.000000, 298.000000)">
                <circle id="椭圆形" fill="#2A87FF" cx="8" cy="8" r="8"></circle>
                <g id="信息" transform="translate(7.100000, 4.000000)" fill="#FFFFFF" fill-rule="nonzero">
                    <path d="M1.51247111,7.7934657 C1.51247111,8.13411544 1.23801489,8.410256 0.899461984,8.410256 C0.560909076,8.410256 0.286452861,8.13411544 0.286452861,7.7934657 L0.286452861,3.03445245 C0.286452861,2.69380271 0.560909076,2.41766215 0.899461984,2.41766215 C1.23801489,2.41766215 1.51247111,2.69380271 1.51247111,3.03445245 L1.51247111,7.7934657 Z M0.893732926,1.79892397 C0.400140273,1.79892397 0,1.39621708 0,0.899461984 C0,0.40270689 0.400140273,0 0.893732926,0 C1.38732558,0 1.78746585,0.40270689 1.78746585,0.899461984 C1.78746585,1.39621708 1.38732558,1.79892397 0.893732926,1.79892397 Z" id="形状"></path>
                </g>
            </g>
        </g>
    </g>
</svg>