<?xml version="1.0" encoding="UTF-8"?>
<svg width="151px" height="172px" viewBox="0 0 151 172" version="1.1" xmlns="http://www.w3.org/2000/svg" xmlns:xlink="http://www.w3.org/1999/xlink">
    <!-- Generator: Sketch 58 (84663) - https://sketch.com -->
    <title>person hover</title>
    <desc>Created with Sketch.</desc>
    <g id="页面-1" stroke="none" stroke-width="1" fill="none" fill-rule="evenodd">
        <g id="person-hover" fill="#FFFFFF" fill-rule="nonzero">
            <path d="M99.836741,105.139534 C98.752053,104.787134 91.852391,101.762721 96.165563,89.010859 L96.098939,89.010859 C107.324755,77.7518269 115.911774,59.6358935 115.911774,41.801727 C115.911774,14.3783219 97.178473,0.000190899001 75.4110233,0.000190899001 C53.6298291,0.000190899001 35.0003774,14.3718313 35.0003774,41.801727 C35.0003774,59.7122531 43.5324173,77.8992009 54.8292475,89.1311254 C59.2317603,100.379658 51.3592764,104.553092 49.7104817,105.126744 C26.915232,113.173709 0.1641731,127.799627 0.1641731,142.243427 C0.1641731,146.143303 0.1641731,143.782646 0.1641731,147.655605 C0.1641731,167.336337 39.3568835,171.809674 75.6246393,171.809674 C111.945274,171.809674 150.646038,167.336337 150.646038,147.655605 C150.646038,143.782646 150.646038,146.143303 150.646038,142.243427 C150.646038,127.363614 123.760968,112.84689 99.836741,105.139725 L99.836741,105.139534 Z" id="Path"></path>
        </g>
    </g>
</svg>