<?xml version="1.0" encoding="UTF-8"?>
<svg width="16px" height="16px" viewBox="0 0 16 16" version="1.1" xmlns="http://www.w3.org/2000/svg" xmlns:xlink="http://www.w3.org/1999/xlink">
    <!-- Generator: Sketch 64 (93537) - https://sketch.com -->
    <title>密码隐藏</title>
    <desc>Created with Sketch.</desc>
    <g id="登陆设计-1366分辨率" stroke="none" stroke-width="1" fill="none" fill-rule="evenodd">
        <g id="密码隐藏" transform="translate(-1159.000000, -355.000000)">
            <g id="编组" transform="translate(1159.000000, 355.000000)">
                <g id="密码隐藏">
                    <rect id="矩形" fill-rule="nonzero" x="0" y="0" width="16" height="16"></rect>
                    <g id="闭眼" transform="translate(2.000000, 5.000000)" fill="#000000" fill-opacity="0.45">
                        <path d="M1.30455047,0.39932298 C1.32485323,0.416403078 1.37561012,0.469093569 1.44795884,0.557716719 C2.98629559,2.44442302 4.65257194,2.8403268 5.77953615,2.8403268 C7.72425032,2.8403268 9.93789548,0.832448484 10.1562307,0.513405144 C10.3025395,0.300387318 10.5969294,0.231583527 10.8152647,0.370963572 C11.0331165,0.510021351 11.1075599,0.786847845 10.9759143,1.00921138 C10.8855547,1.16165296 10.434698,1.63616838 9.76811836,2.1515925 L10.912589,3.29987811 C11.076139,3.46385108 11.0964594,3.71640188 10.9736581,3.90230342 L10.9122667,3.97744237 C10.8224997,4.06723341 10.7006927,4.11761423 10.5737263,4.11746727 C10.4511041,4.11746727 10.3284819,4.07073838 10.2350247,3.97712011 L8.97044211,2.71145037 C8.52595031,2.99279415 8.03136947,3.2556455 7.51123364,3.45235698 L8.43291326,4.98871309 C8.55379882,5.19052322 8.50892029,5.44516906 8.33811312,5.59500639 L8.26823535,5.64597458 C8.19399381,5.69045293 8.10905303,5.71390213 8.02250753,5.71381184 C7.85976318,5.71381184 7.70104717,5.63082809 7.61129609,5.48129667 L6.65448834,3.88495204 C6.62226433,3.83115626 6.60181911,3.77360611 6.59239814,3.71528761 C6.32389725,3.76922394 6.05162241,3.79826248 5.77953615,3.79826248 C5.44177783,3.79826248 5.06374368,3.76897942 4.65866042,3.68992667 C4.65362073,3.75682483 4.63218142,3.82326342 4.59536973,3.8847909 L3.63856198,5.48113553 C3.54881089,5.63082809 3.39009489,5.71381159 3.22735056,5.71381159 C3.1435614,5.71381159 3.05864431,5.69205863 2.98162273,5.64549119 C2.75458634,5.50949494 2.68110969,5.21558835 2.81694481,4.98855195 L3.74871828,3.43492385 C3.28369604,3.26351033 2.79881425,3.01911508 2.30999767,2.67707251 L2.2910067,2.69997995 L2.2910067,2.69997995 L1.0151556,3.97712011 C0.92153733,4.07073838 0.798915117,4.11746695 0.676292904,4.11746695 C0.553831824,4.11746695 0.431370744,4.07073838 0.337913604,3.97744238 C0.150838191,3.79036696 0.150677058,3.48727579 0.337591338,3.29987811 L1.56206874,2.07512308 C1.27404796,1.81113266 0.987478044,1.50885966 0.70561911,1.16325453 C0.685155219,1.13795665 0.669364185,1.11829843 0.657762609,1.10492439 C0.482127639,0.930578481 0.46714227,0.647790066 0.629725467,0.45571953 C0.800526447,0.253658748 1.10265082,0.228683133 1.30455047,0.39932298 Z" id="形状结合"></path>
                    </g>
                </g>
            </g>
        </g>
    </g>
</svg>