<?xml version="1.0" encoding="UTF-8"?>
<svg width="16px" height="16px" viewBox="0 0 16 16" version="1.1" xmlns="http://www.w3.org/2000/svg" xmlns:xlink="http://www.w3.org/1999/xlink">
    <!-- Generator: Sketch 64 (93537) - https://sketch.com -->
    <title>密码显现</title>
    <desc>Created with Sketch.</desc>
    <g id="登陆设计-1366分辨率" stroke="none" stroke-width="1" fill="none" fill-rule="evenodd">
        <g id="密码显现" transform="translate(-1159.000000, -355.000000)">
            <g transform="translate(1159.000000, 355.000000)" id="编组">
                <g>
                    <g id="分组-8" fill-rule="nonzero">
                        <rect id="矩形" x="0" y="0" width="16" height="16"></rect>
                    </g>
                    <g id="显示-睁眼-眼" transform="translate(1.000000, 3.000000)" fill="#000000" fill-opacity="0.45">
                        <path d="M7.14286629,0.0588426789 C9.67434245,0.0588426789 11.9656844,1.70049637 14.0178743,4.98429484 C11.9656844,8.26907545 9.67434245,9.91072914 7.14286629,9.91072914 C4.61139013,9.91072914 2.32004817,8.26858437 0.267858286,4.98478591 C2.32004817,1.7000053 4.61139013,0.0588426789 7.14286629,0.0588426789 Z M7.2057235,1.16375468 L7.14286629,1.16375468 C5.2414355,1.16375468 3.4367459,2.33152389 1.72143141,4.78786604 L1.58589553,4.98429484 L1.59915448,5.00393772 C3.33214757,7.55358354 5.15648005,8.77929925 7.08000907,8.80532607 L7.14286629,8.80581714 C9.04429707,8.80581714 10.8489867,7.63755685 12.5643012,5.18170578 L12.699837,4.98478591 L12.6865781,4.96514303 C10.953585,2.41549721 9.12925253,1.18978149 7.2057235,1.16424575 L7.2057235,1.16375468 Z M7.15072344,2.46804191 L7.15072341,2.46804191 C8.53634291,2.44062536 9.68183127,3.54166649 9.70925457,4.92728445 C9.73667112,6.31290395 8.63562999,7.45839231 7.25001203,7.48581561 C7.21692053,7.48647037 7.18381951,7.48647037 7.15072801,7.48581561 L7.15072799,7.48581561 C5.76510849,7.45839906 4.66406215,6.31290702 4.69148545,4.92728445 C4.71813807,3.58027549 5.80372056,2.49469791 7.15072799,2.46804191 L7.15072344,2.46804191 Z M7.15072344,3.57295391 L7.15072348,3.57295391 C6.37519342,3.55845041 5.73474499,4.17538416 5.72024149,4.95091269 C5.70573798,5.72644275 6.32267174,6.36689118 7.09820026,6.38139468 C7.11570606,6.38172206 7.13321631,6.38172206 7.15072195,6.38139468 L7.15072187,6.38139468 C7.92638697,6.38139472 8.55518779,5.75259387 8.55518779,4.97692876 C8.55518779,4.20126366 7.92638697,3.57246284 7.15072187,3.57246284 L7.15072344,3.57295391 Z" id="形状"></path>
                    </g>
                </g>
            </g>
        </g>
    </g>
</svg>