<?xml version="1.0" encoding="UTF-8"?>
<svg width="30px" height="30px" viewBox="0 0 30 30" version="1.1" xmlns="http://www.w3.org/2000/svg" xmlns:xlink="http://www.w3.org/1999/xlink">
    <title>编组 4</title>
    <g id="忘记密码" stroke="none" stroke-width="1" fill="none" fill-rule="evenodd">
        <g id="账号验证1" transform="translate(-720.000000, -171.000000)" fill-rule="nonzero">
            <g id="编组-41" transform="translate(232.000000, 147.000000)">
                <g id="编组" transform="translate(187.000000, 24.000000)">
                    <g id="编组-4" transform="translate(301.000000, 0.000000)">
                        <circle id="椭圆形-copy-9" fill="#DEE4ED" cx="15" cy="15" r="15"></circle>
                        <g id="3" transform="translate(11.714000, 9.808000)" fill="#FFFFFF">
                            <path d="M3.584,0 C2.632,0 1.862,0.266 1.274,0.812 C0.658,1.358 0.294,2.114 0.21,3.08 L1.344,3.08 C1.414,2.408 1.638,1.89 2.03,1.526 C2.408,1.162 2.926,0.994 3.598,0.994 C4.242,0.994 4.76,1.148 5.124,1.484 C5.46,1.792 5.642,2.226 5.642,2.786 C5.642,3.346 5.46,3.78 5.11,4.088 C4.76,4.382 4.256,4.536 3.584,4.536 L2.814,4.536 L2.814,5.432 L3.626,5.432 C4.326,5.432 4.858,5.586 5.25,5.922 C5.642,6.258 5.838,6.72 5.838,7.322 C5.838,7.91 5.628,8.4 5.236,8.792 C4.802,9.198 4.228,9.408 3.514,9.408 C2.884,9.408 2.366,9.226 1.946,8.89 C1.456,8.484 1.19,7.882 1.162,7.098 L0,7.098 C0.084,8.218 0.476,9.072 1.19,9.66 C1.792,10.136 2.562,10.388 3.514,10.388 C4.55,10.388 5.39,10.094 6.034,9.506 C6.664,8.932 6.986,8.19 6.986,7.28 C6.986,6.692 6.818,6.202 6.482,5.81 C6.174,5.418 5.726,5.138 5.138,4.956 C6.23,4.592 6.776,3.836 6.776,2.716 C6.776,1.876 6.482,1.218 5.908,0.728 C5.32,0.238 4.536,0 3.584,0 Z"></path>
                        </g>
                    </g>
                </g>
            </g>
        </g>
    </g>
</svg>