<?xml version="1.0" encoding="UTF-8"?>
<svg width="44px" height="9px" viewBox="0 0 44 9" version="1.1" xmlns="http://www.w3.org/2000/svg" xmlns:xlink="http://www.w3.org/1999/xlink">
    <title>形状结合</title>
    <g id="忘记密码" stroke="none" stroke-width="1" fill="none" fill-rule="evenodd">
        <g id="账号验证1" transform="translate(-826.000000, -181.000000)" fill="#DEE4ED">
            <g id="编组-41" transform="translate(232.000000, 147.000000)">
                <g id="编组" transform="translate(187.000000, 24.000000)">
                    <path d="M446.869398,10.1491549 L450.787737,14.0674937 C450.911361,14.1911176 451.196233,14.5566142 450.787737,14.9704854 L446.869398,18.8888242 C446.670525,19.0876974 446.342653,19.0876974 446.149155,18.8888242 C445.950282,18.689951 445.950282,18.3620791 446.149155,18.1632059 L449.793371,14.5189895 L446.149155,10.8693982 C445.950282,10.6705251 445.950282,10.348028 446.149155,10.1491549 C446.348028,9.95028171 446.670525,9.95028171 446.869398,10.1491549 Z M434.462957,13.392042 C435.057666,13.392042 435.539773,13.8741491 435.539773,14.4688582 C435.539773,15.0635674 435.057666,15.5456745 434.462957,15.5456745 C433.868248,15.5456745 433.386141,15.0635674 433.386141,14.4688582 C433.386141,13.8741491 433.868248,13.392042 434.462957,13.392042 Z M416.998611,13.392042 C417.59332,13.392042 418.075427,13.8741491 418.075427,14.4688582 C418.075427,15.0635674 417.59332,15.5456745 416.998611,15.5456745 C416.403902,15.5456745 415.921795,15.0635674 415.921795,14.4688582 C415.921795,13.8741491 416.403902,13.392042 416.998611,13.392042 Z M425.848427,13.392042 C426.443136,13.392042 426.925243,13.8741491 426.925243,14.4688582 C426.925243,15.0635674 426.443136,15.5456745 425.848427,15.5456745 C425.253718,15.5456745 424.771611,15.0635674 424.771611,14.4688582 C424.771611,13.8741491 425.253718,13.392042 425.848427,13.392042 Z M408.384081,13.392042 C408.97879,13.392042 409.460897,13.8741491 409.460897,14.4688582 C409.460897,15.0635674 408.97879,15.5456745 408.384081,15.5456745 C407.789372,15.5456745 407.307265,15.0635674 407.307265,14.4688582 C407.307265,13.8741491 407.789372,13.392042 408.384081,13.392042 Z M438.770222,13.392042 C439.364931,13.392042 439.847038,13.8741491 439.847038,14.4688582 C439.847038,15.0635674 439.364931,15.5456745 438.770222,15.5456745 C438.175513,15.5456745 437.693406,15.0635674 437.693406,14.4688582 C437.693406,13.8741491 438.175513,13.392042 438.770222,13.392042 Z M430.155692,13.392042 C430.750401,13.392042 431.232508,13.8741491 431.232508,14.4688582 C431.232508,15.0635674 430.750401,15.5456745 430.155692,15.5456745 C429.560983,15.5456745 429.078876,15.0635674 429.078876,14.4688582 C429.078876,13.8741491 429.560983,13.392042 430.155692,13.392042 Z M412.691346,13.392042 C413.286055,13.392042 413.768162,13.8741491 413.768162,14.4688582 C413.768162,15.0635674 413.286055,15.5456745 412.691346,15.5456745 C412.096637,15.5456745 411.61453,15.0635674 411.61453,14.4688582 C411.61453,13.8741491 412.096637,13.392042 412.691346,13.392042 Z M421.541162,13.392042 C422.135871,13.392042 422.617978,13.8741491 422.617978,14.4688582 C422.617978,15.0635674 422.135871,15.5456745 421.541162,15.5456745 C420.946453,15.5456745 420.464346,15.0635674 420.464346,14.4688582 C420.464346,13.8741491 420.946453,13.392042 421.541162,13.392042 Z M443.077487,13.392042 C443.672196,13.392042 444.154303,13.8741491 444.154303,14.4688582 C444.154303,15.0635674 443.672196,15.5456745 443.077487,15.5456745 C442.482778,15.5456745 442.000671,15.0635674 442.000671,14.4688582 C442.000671,13.8741491 442.482778,13.392042 443.077487,13.392042 Z" id="形状结合"></path>
                </g>
            </g>
        </g>
    </g>
</svg>