<?xml version="1.0" encoding="UTF-8"?>
<svg width="36px" height="9px" viewBox="0 0 36 9" version="1.1" xmlns="http://www.w3.org/2000/svg" xmlns:xlink="http://www.w3.org/1999/xlink">
    <title>形状结合</title>
    <g id="忘记密码" stroke="none" stroke-width="1" fill="none" fill-rule="evenodd">
        <g id="安全验证1" transform="translate(-519.000000, -181.000000)" fill="#2A83FF">
            <g id="编组-41" transform="translate(232.000000, 147.000000)">
                <g id="编组" transform="translate(187.000000, 24.000000)">
                    <path d="M131.869398,10.1491549 L135.787737,14.0674937 C135.911361,14.1911176 136.196233,14.5566142 135.787737,14.9704854 L131.869398,18.8888242 C131.670525,19.0876974 131.342653,19.0876974 131.149155,18.8888242 C130.950282,18.689951 130.950282,18.3620791 131.149155,18.1632059 L134.793371,14.5189895 L131.149155,10.8693982 C130.950282,10.6705251 130.950282,10.348028 131.149155,10.1491549 C131.348028,9.95028171 131.670525,9.95028171 131.869398,10.1491549 Z M101.462957,13.392042 C102.057666,13.392042 102.539773,13.8741491 102.539773,14.4688582 C102.539773,15.0635674 102.057666,15.5456745 101.462957,15.5456745 C100.868248,15.5456745 100.386141,15.0635674 100.386141,14.4688582 C100.386141,13.8741491 100.868248,13.392042 101.462957,13.392042 Z M118.692017,13.392042 C119.286726,13.392042 119.768833,13.8741491 119.768833,14.4688582 C119.768833,15.0635674 119.286726,15.5456745 118.692017,15.5456745 C118.097308,15.5456745 117.615201,15.0635674 117.615201,14.4688582 C117.615201,13.8741491 118.097308,13.392042 118.692017,13.392042 Z M105.770222,13.392042 C106.364931,13.392042 106.847038,13.8741491 106.847038,14.4688582 C106.847038,15.0635674 106.364931,15.5456745 105.770222,15.5456745 C105.175513,15.5456745 104.693406,15.0635674 104.693406,14.4688582 C104.693406,13.8741491 105.175513,13.392042 105.770222,13.392042 Z M122.999282,13.392042 C123.593991,13.392042 124.076098,13.8741491 124.076098,14.4688582 C124.076098,15.0635674 123.593991,15.5456745 122.999282,15.5456745 C122.404573,15.5456745 121.922466,15.0635674 121.922466,14.4688582 C121.922466,13.8741491 122.404573,13.392042 122.999282,13.392042 Z M114.384752,13.392042 C114.979461,13.392042 115.461568,13.8741491 115.461568,14.4688582 C115.461568,15.0635674 114.979461,15.5456745 114.384752,15.5456745 C113.790043,15.5456745 113.307936,15.0635674 113.307936,14.4688582 C113.307936,13.8741491 113.790043,13.392042 114.384752,13.392042 Z M110.077487,13.392042 C110.672196,13.392042 111.154303,13.8741491 111.154303,14.4688582 C111.154303,15.0635674 110.672196,15.5456745 110.077487,15.5456745 C109.482778,15.5456745 109.000671,15.0635674 109.000671,14.4688582 C109.000671,13.8741491 109.482778,13.392042 110.077487,13.392042 Z M127.306547,13.392042 C127.901256,13.392042 128.383363,13.8741491 128.383363,14.4688582 C128.383363,15.0635674 127.901256,15.5456745 127.306547,15.5456745 C126.711838,15.5456745 126.229731,15.0635674 126.229731,14.4688582 C126.229731,13.8741491 126.711838,13.392042 127.306547,13.392042 Z" id="形状结合"></path>
                </g>
            </g>
        </g>
    </g>
</svg>