<?xml version="1.0" encoding="UTF-8"?>
<svg width="30px" height="30px" viewBox="0 0 30 30" version="1.1" xmlns="http://www.w3.org/2000/svg" xmlns:xlink="http://www.w3.org/1999/xlink">
    <title>编组 2</title>
    <defs>
        <linearGradient x1="0%" y1="0%" x2="100%" y2="100%" id="linearGradient-1">
            <stop stop-color="#529DFF" offset="0%"></stop>
            <stop stop-color="#559FFF" offset="100%"></stop>
        </linearGradient>
    </defs>
    <g id="忘记密码" stroke="none" stroke-width="1" fill="none" fill-rule="evenodd">
        <g id="账号验证1" transform="translate(-419.000000, -171.000000)">
            <g id="编组-41" transform="translate(232.000000, 147.000000)">
                <g id="编组-2" transform="translate(187.000000, 24.000000)">
                    <path d="M15,0 C6.71552228,0 0,6.71552228 0,15 C0,23.2844777 6.71552228,30 15,30 C23.2844777,30 30,23.2844777 30,15 C30,6.71552228 23.2844777,0 15,0 L15,0 Z" id="iconfont-checkcircle" fill="url(#linearGradient-1)"></path>
                    <g id="1" transform="translate(12.616000, 10.004000)" fill="#FFFFFF" fill-rule="nonzero">
                        <path d="M2.604,0 C2.268,0.378 1.876,0.714 1.4,1.022 C0.924,1.302 0.448,1.498 0,1.624 L0,2.772 C0.938,2.492 1.722,2.044 2.352,1.4 L2.352,9.996 L3.5,9.996 L3.5,0 L2.604,0 Z"></path>
                    </g>
                </g>
            </g>
        </g>
    </g>
</svg>