<?xml version="1.0" encoding="UTF-8"?>
<svg width="30px" height="30px" viewBox="0 0 30 30" version="1.1" xmlns="http://www.w3.org/2000/svg" xmlns:xlink="http://www.w3.org/1999/xlink">
    <title>编组 3</title>
    <g id="忘记密码" stroke="none" stroke-width="1" fill="none" fill-rule="evenodd">
        <g id="账号验证1" transform="translate(-563.000000, -171.000000)" fill-rule="nonzero">
            <g id="编组-41" transform="translate(232.000000, 147.000000)">
                <g id="编组" transform="translate(187.000000, 24.000000)">
                    <g id="编组-3" transform="translate(144.000000, 0.000000)">
                        <circle id="椭圆形-copy-6" fill="#DEE4ED" cx="15" cy="15" r="15"></circle>
                        <g id="2" transform="translate(11.868000, 9.808000)" fill="#FFFFFF">
                            <path d="M3.472,0 C2.464,0 1.638,0.336 1.022,1.008 C0.406,1.666 0.084,2.562 0.084,3.682 L1.232,3.682 C1.246,2.8 1.456,2.128 1.848,1.68 C2.212,1.204 2.744,0.98 3.43,0.98 C4.074,0.98 4.592,1.148 4.956,1.484 C5.32,1.82 5.502,2.282 5.502,2.898 C5.502,3.542 5.236,4.144 4.732,4.69 C4.466,4.97 3.948,5.376 3.164,5.936 C2.1,6.664 1.386,7.266 0.994,7.714 C0.322,8.456 0,9.282 0,10.192 L6.664,10.192 L6.664,9.17 L1.414,9.17 C1.596,8.498 2.324,7.728 3.598,6.874 C4.634,6.174 5.32,5.628 5.67,5.264 C6.314,4.564 6.65,3.78 6.65,2.912 C6.65,2.044 6.342,1.33 5.754,0.798 C5.152,0.266 4.396,0 3.472,0 Z"></path>
                        </g>
                    </g>
                </g>
            </g>
        </g>
    </g>
</svg>