<?xml version="1.0" encoding="UTF-8"?>
<svg width="30px" height="30px" viewBox="0 0 30 30" version="1.1" xmlns="http://www.w3.org/2000/svg" xmlns:xlink="http://www.w3.org/1999/xlink">
    <title>编组 3</title>
    <defs>
        <linearGradient x1="0%" y1="0%" x2="100%" y2="100%" id="linearGradient-1">
            <stop stop-color="#529DFF" offset="0%"></stop>
            <stop stop-color="#559FFF" offset="100%"></stop>
        </linearGradient>
    </defs>
    <g id="忘记密码" stroke="none" stroke-width="1" fill="none" fill-rule="evenodd">
        <g id="安全验证1" transform="translate(-419.000000, -171.000000)">
            <g id="编组-41" transform="translate(232.000000, 147.000000)">
                <g id="编组-3" transform="translate(187.000000, 24.000000)">
                    <path d="M15,0 C6.71552228,0 0,6.71552228 0,15 C0,23.2844777 6.71552228,30 15,30 C23.2844777,30 30,23.2844777 30,15 C30,6.71552228 23.2844777,0 15,0 L15,0 Z" id="iconfont-checkcircle" fill="url(#linearGradient-1)"></path>
                    <path d="M20.9550837,11.0623062 L13.0569378,18.9178446 C12.8192716,19.1607185 12.4333493,19.1607185 12.1956831,18.9178446 L9.17824963,15.970351 C8.94058346,15.727477 8.94058346,15.3330012 9.17824963,15.0901273 C9.4159158,14.8472534 9.80193319,14.8472534 10.0395994,15.0901273 L12.6272849,17.5985534 L20.0938053,10.1821554 C20.3314714,9.93928152 20.7174175,9.93928152 20.9550837,10.1821554 C21.1927499,10.4250294 21.1927499,10.8194323 20.9550837,11.0623062 L20.9550837,11.0623062 Z" id="Path" fill="#FFFFFF"></path>
                </g>
            </g>
        </g>
    </g>
</svg>