<?xml version="1.0" encoding="UTF-8"?>
<svg width="28px" height="28px" viewBox="0 0 28 28" version="1.1" xmlns="http://www.w3.org/2000/svg" xmlns:xlink="http://www.w3.org/1999/xlink">
    <title>编组 6</title>
    <defs>
        <path d="M8,0 C3.58214286,0 0,3.58214286 0,8 C0,12.4178571 3.58214286,16 8,16 C12.4178571,16 16,12.4178571 16,8 C16,3.58214286 12.4178571,0 8,0 Z" id="path-1"></path>
        <filter x="-62.5%" y="-50.0%" width="225.0%" height="225.0%" filterUnits="objectBoundingBox" id="filter-2">
            <feOffset dx="0" dy="2" in="SourceAlpha" result="shadowOffsetOuter1"></feOffset>
            <feGaussianBlur stdDeviation="3" in="shadowOffsetOuter1" result="shadowBlurOuter1"></feGaussianBlur>
            <feColorMatrix values="0 0 0 0 0.360784314   0 0 0 0 0.756862745   0 0 0 0 0.443137255  0 0 0 0.199191434 0" type="matrix" in="shadowBlurOuter1"></feColorMatrix>
        </filter>
        <path d="M11.4553571,5.56011905 L7.69464286,10.7744048 C7.46785714,11.0904762 6.99821429,11.0904762 6.77142857,10.7744048 L4.54464286,7.68869048 C4.47678571,7.59404762 4.54464286,7.46190476 4.66071429,7.46190476 L5.49821429,7.46190476 C5.68035714,7.46190476 5.85357143,7.54940476 5.96071429,7.69940476 L7.23214286,9.46369048 L10.0392857,5.57083333 C10.1464286,5.42261905 10.3178571,5.33333333 10.5017857,5.33333333 L11.3392857,5.33333333 C11.4553571,5.33333333 11.5232143,5.46547619 11.4553571,5.56011905 Z" id="path-3"></path>
        <filter x="-100.5%" y="-88.1%" width="301.0%" height="346.6%" filterUnits="objectBoundingBox" id="filter-4">
            <feOffset dx="0" dy="2" in="SourceAlpha" result="shadowOffsetOuter1"></feOffset>
            <feGaussianBlur stdDeviation="2" in="shadowOffsetOuter1" result="shadowBlurOuter1"></feGaussianBlur>
            <feColorMatrix values="0 0 0 0 0.360784314   0 0 0 0 0.756862745   0 0 0 0 0.443137255  0 0 0 0.3 0" type="matrix" in="shadowBlurOuter1"></feColorMatrix>
        </filter>
    </defs>
    <g id="忘记密码" stroke="none" stroke-width="1" fill="none" fill-rule="evenodd">
        <g id="安全验证2" transform="translate(-531.000000, -429.000000)">
            <g id="编组-41" transform="translate(232.000000, 147.000000)">
                <g id="编组-6" transform="translate(305.000000, 286.000000)">
                    <g id="形状备份-2">
                        <use fill="black" fill-opacity="1" filter="url(#filter-2)" xlink:href="#path-1"></use>
                        <use fill="#5CC171" fill-rule="evenodd" xlink:href="#path-1"></use>
                    </g>
                    <g id="路径">
                        <use fill="black" fill-opacity="1" filter="url(#filter-4)" xlink:href="#path-3"></use>
                        <use fill="#FFFFFF" fill-rule="evenodd" xlink:href="#path-3"></use>
                    </g>
                </g>
            </g>
        </g>
    </g>
</svg>