<?xml version="1.0" encoding="UTF-8"?>
<svg width="16px" height="16px" viewBox="0 0 16 16" version="1.1" xmlns="http://www.w3.org/2000/svg" xmlns:xlink="http://www.w3.org/1999/xlink">
    <!-- Generator: Sketch 64 (93537) - https://sketch.com -->
    <title>执行中</title>
    <desc>Created with Sketch.</desc>
    <g id="页面-1" stroke="none" stroke-width="1" fill="none" fill-rule="evenodd">
        <g id="单任务列表展示页面" transform="translate(-732.000000, -410.000000)" fill="#51BD78" fill-rule="nonzero">
            <g id="列表" transform="translate(226.000000, 266.000000)">
                <g id="编组-18" transform="translate(14.000000, 12.000000)">
                    <g id="编组-17" transform="translate(24.000000, 130.000000)">
                        <g id="执行中" transform="translate(468.000000, 2.000000)">
                            <path d="M8,0 C12.418278,-8.11624501e-16 16,3.581722 16,8 C16,12.418278 12.418278,16 8,16 C3.581722,16 5.41083001e-16,12.418278 0,8 C-5.41083001e-16,3.581722 3.581722,8.11624501e-16 8,0 Z M5.58314234,4.1640625 L5.58373027,4.75494113 C5.58595824,6.09972927 5.59375613,8.42868651 5.59375613,11.8495227 C5.5945282,11.9874878 5.65597534,12.4666595 6.23581756,12.2619612 C8.92853889,10.5392076 10.9584603,9.24116718 12.3255819,8.36783997 C12.4665024,8.30021238 12.7153678,7.88441193 12.2974998,7.58762152 C9.20624634,5.61375907 7.19904287,4.33209659 6.2758894,3.7426341 C6.19009399,3.65884399 5.60728455,3.6565094 5.58314234,4.1640625 Z" id="形状结合"></path>
                        </g>
                    </g>
                </g>
            </g>
        </g>
    </g>
</svg>