<?xml version="1.0" encoding="UTF-8"?>
<svg width="64px" height="50px" viewBox="0 0 64 50" version="1.1" xmlns="http://www.w3.org/2000/svg" xmlns:xlink="http://www.w3.org/1999/xlink">
    <!-- Generator: Sketch 64 (93537) - https://sketch.com -->
    <title>左右布局备份</title>
    <desc>Created with Sketch.</desc>
    <defs>
        <linearGradient x1="50%" y1="0%" x2="50%" y2="72.03778%" id="linearGradient-1">
            <stop stop-color="#D6E8FF" offset="0%"></stop>
            <stop stop-color="#F5F7FB" offset="100%"></stop>
        </linearGradient>
        <rect id="path-2" x="1" y="6" width="62" height="6" rx="1"></rect>
        <filter x="-2.4%" y="-25.0%" width="104.8%" height="150.0%" filterUnits="objectBoundingBox" id="filter-3">
            <feOffset dx="0" dy="0" in="SourceAlpha" result="shadowOffsetOuter1"></feOffset>
            <feGaussianBlur stdDeviation="0.5" in="shadowOffsetOuter1" result="shadowBlurOuter1"></feGaussianBlur>
            <feColorMatrix values="0 0 0 0 0.0538469279   0 0 0 0 0.283535998   0 0 0 0 0.631906703  0 0 0 0.269968313 0" type="matrix" in="shadowBlurOuter1"></feColorMatrix>
        </filter>
    </defs>
    <g id="系统设置" stroke="none" stroke-width="1" fill="none" fill-rule="evenodd">
        <g id="系统设置1备份" transform="translate(-521.000000, -157.000000)">
            <g id="编组-12" transform="translate(331.000000, 157.000000)">
                <g id="编组-6" transform="translate(186.000000, 0.000000)">
                    <g id="左右布局备份" transform="translate(4.000000, 0.000000)">
                        <rect id="矩形" fill="#F6F7F8" x="0" y="0" width="64" height="50" rx="4"></rect>
                        <rect id="矩形备份-2" fill="#FFFFFF" x="3" y="16" width="17" height="9" rx="2"></rect>
                        <rect id="矩形备份-8" fill="#FFFFFF" x="23" y="16" width="16" height="9" rx="2"></rect>
                        <rect id="矩形备份-13" fill="#FFFFFF" x="3" y="28" width="36" height="19" rx="2"></rect>
                        <rect id="矩形备份-7" fill="#FFFFFF" x="42" y="16" width="19" height="9" rx="2"></rect>
                        <rect id="矩形备份-18" fill="#FFFFFF" x="42" y="28" width="19" height="19" rx="2"></rect>
                        <path d="M4,0 L60,0 C62.209139,-4.05812251e-16 64,1.790861 64,4 L64,8 L64,8 L0,8 L0,4 C-2.705415e-16,1.790861 1.790861,4.05812251e-16 4,0 Z" id="矩形备份-6" fill="#1576F7"></path>
                        <g id="矩形">
                            <use fill="black" fill-opacity="1" filter="url(#filter-3)" xlink:href="#path-2"></use>
                            <use fill="url(#linearGradient-1)" fill-rule="evenodd" xlink:href="#path-2"></use>
                        </g>
                    </g>
                </g>
            </g>
        </g>
    </g>
</svg>