<?xml version="1.0" encoding="UTF-8"?>
<svg width="172px" height="172px" viewBox="0 0 172 172" version="1.1" xmlns="http://www.w3.org/2000/svg" xmlns:xlink="http://www.w3.org/1999/xlink">
    <!-- Generator: Sketch 58 (84663) - https://sketch.com -->
    <title>search hover</title>
    <desc>Created with Sketch.</desc>
    <g id="页面-1" stroke="none" stroke-width="1" fill="none" fill-rule="evenodd">
        <g id="search-hover" fill="#FFFFFF" fill-rule="nonzero">
            <path d="M144.126912,127.263749 L168.507525,151.644361 C173.164158,156.300996 173.164158,163.850891 168.507525,168.507524 C163.85089,173.164159 156.300996,173.164159 151.644362,168.507524 L127.263749,144.126911 C114.005099,153.923029 97.6074312,159.714286 79.8571425,159.714286 C35.7532604,159.714286 0,123.961025 0,79.8571425 C0,35.7532607 35.7532604,0 79.8571425,0 C123.961025,0 159.714285,35.7532607 159.714285,79.8571425 C159.714285,97.6074312 153.923028,114.005099 144.126912,127.263749 Z M79.8571427,136.897959 C111.359916,136.897959 136.897958,111.359916 136.897958,79.8571427 C136.897958,48.3543698 111.359916,22.8163265 79.8571427,22.8163265 C48.3543698,22.8163265 22.8163265,48.3543698 22.8163265,79.8571427 C22.8163265,111.359916 48.3543698,136.897959 79.8571427,136.897959 Z" id="合并形状-copy"></path>
        </g>
    </g>
</svg>