<?xml version="1.0" encoding="UTF-8"?>
<svg width="64px" height="50px" viewBox="0 0 64 50" version="1.1" xmlns="http://www.w3.org/2000/svg" xmlns:xlink="http://www.w3.org/1999/xlink">
    <!-- Generator: Sketch 64 (93537) - https://sketch.com -->
    <title>居中布局备份</title>
    <desc>Created with Sketch.</desc>
    <g id="系统设置" stroke="none" stroke-width="1" fill="none" fill-rule="evenodd">
        <g id="系统设置1备份" transform="translate(-411.000000, -157.000000)">
            <g id="编组-12" transform="translate(331.000000, 157.000000)">
                <g id="编组-8" transform="translate(80.000000, 0.000000)">
                    <g id="居中布局备份">
                        <rect id="矩形" fill="#F6F7F8" x="0" y="0" width="64" height="50" rx="4"></rect>
                        <rect id="矩形备份-2" fill="#FFFFFF" x="22" y="15" width="16" height="9" rx="1"></rect>
                        <rect id="矩形备份-8" fill="#FFFFFF" x="3" y="15" width="17" height="9" rx="1"></rect>
                        <rect id="矩形备份-13" fill="#FFFFFF" x="3" y="26" width="35" height="21" rx="1"></rect>
                        <rect id="矩形备份-7" fill="#FFFFFF" x="40" y="15" width="21" height="9" rx="1"></rect>
                        <rect id="矩形备份-18" fill="#FFFFFF" x="40" y="26" width="21" height="21" rx="1"></rect>
                        <path d="M4,0 L60,0 C62.209139,-4.05812251e-16 64,1.790861 64,4 L64,8 L64,8 L0,8 L0,4 C-2.705415e-16,1.790861 1.790861,4.05812251e-16 4,0 Z" id="矩形备份-6" fill="#1576F7"></path>
                        <rect id="矩形" fill="#D9DEE6" x="0" y="6" width="64" height="6"></rect>
                    </g>
                </g>
            </g>
        </g>
    </g>
</svg>