<?xml version="1.0" encoding="UTF-8"?>
<svg width="18px" height="18px" viewBox="0 0 18 18" version="1.1" xmlns="http://www.w3.org/2000/svg" xmlns:xlink="http://www.w3.org/1999/xlink">
    <title>形状结合</title>
    <g id="系统设置" stroke="none" stroke-width="1" fill="none" fill-rule="evenodd">
        <g id="系统设置1备份" transform="translate(-532.000000, -859.000000)">
            <g id="编组-11" transform="translate(320.000000, 511.000000)">
                <g id="编组-10" transform="translate(11.000000, 307.000000)">
                    <g id="编组-20备份-11" transform="translate(201.000000, 41.000000)">
                        <circle id="椭圆形" stroke="#FFFFFF" fill="#FF6060" cx="9" cy="9" r="8.5"></circle>
                        <path d="M5.90761867,6.06202112 C5.74362832,6.29874283 5.76705551,6.6260339 5.97790025,6.83687864 L8.141,9 L5.97790441,11.1631172 C5.74069992,11.4003217 5.74069992,11.7848994 5.97790025,12.0220998 L6.06202112,12.0923813 C6.29874283,12.2563717 6.6260339,12.2329445 6.83687864,12.0220998 L9,9.859 L11.1631172,12.0220956 C11.4003217,12.2593001 11.7848994,12.2593001 12.0220998,12.0220998 L12.0923813,11.9379789 C12.2563717,11.7012572 12.2329445,11.3739661 12.0220998,11.1631214 L9.859,9 L12.0220956,6.8368828 C12.2593001,6.59967831 12.2593001,6.21510058 12.0220998,5.97790025 L11.9379789,5.90761867 C11.7012572,5.74362832 11.3739661,5.76705551 11.1631214,5.97790025 L9,8.141 L6.8368828,5.97790441 C6.59967831,5.74069992 6.21510058,5.74069992 5.97790025,5.97790025 L5.90761867,6.06202112 Z" id="形状结合" fill="#FFFFFF" fill-rule="nonzero"></path>
                    </g>
                </g>
            </g>
        </g>
    </g>
</svg>