<?xml version="1.0" encoding="UTF-8"?>
<svg width="168px" height="168px" viewBox="0 0 168 168" version="1.1" xmlns="http://www.w3.org/2000/svg" xmlns:xlink="http://www.w3.org/1999/xlink">
    <!-- Generator: Sketch 58 (84663) - https://sketch.com -->
    <title>task hover</title>
    <desc>Created with Sketch.</desc>
    <g id="页面-1" stroke="none" stroke-width="1" fill="none" fill-rule="evenodd">
        <g id="task-hover" fill="#FFFFFF" fill-rule="nonzero">
            <path d="M84,168 C37.608081,168 0,130.391919 0,84 C0,37.608081 37.608081,0 84,0 C130.391919,0 168,37.608081 168,84 C168,130.391919 130.391919,168 84,168 Z M120.763303,48.5602757 L79.621635,102.541645 L46.8770891,72.7157044 C44.2231626,70.2983291 40.1120602,70.4900918 37.6946849,73.1440183 C35.2773097,75.7979449 35.4690723,79.9090473 38.1229989,82.3264226 L81.3588702,121.70857 L131.102715,56.4404136 C133.278755,53.585264 132.728227,49.506679 129.873078,47.330639 C127.017928,45.154599 122.939343,45.7051261 120.763303,48.5602757 Z" id="Combined-Shape"></path>
        </g>
    </g>
</svg>