<?xml version="1.0" encoding="UTF-8"?>
<svg width="16px" height="16px" viewBox="0 0 16 16" version="1.1" xmlns="http://www.w3.org/2000/svg" xmlns:xlink="http://www.w3.org/1999/xlink">
    <!-- Generator: Sketch 52.5 (67469) - http://www.bohemiancoding.com/sketch -->
    <title>浪潮集团</title>
    <desc>Created with Sketch.</desc>
    <g id="icon" stroke="none" stroke-width="1" fill="none" fill-rule="evenodd">
        <g id="画板" transform="translate(-86.000000, -65.000000)" fill-rule="nonzero">
            <g id="浪潮集团" transform="translate(86.000000, 65.000000)">
                <rect id="矩形" x="0" y="0" width="16" height="16"></rect>
                <path d="M13.625,0.5 L4.25,0.5 C3.21446609,0.5 2.375,1.33946609 2.375,2.375 C1.33946609,2.375 0.5,3.21446609 0.5,4.25 L0.5,13.625 C0.5,14.6605339 1.33946609,15.5 2.375,15.5 L11.75,15.5 C12.7855339,15.5 13.625,14.6605339 13.625,13.625 C14.6605339,13.625 15.5,12.7855339 15.5,11.75 L15.5,2.375 C15.5,1.33946609 14.6605339,0.5 13.625,0.5 Z M11.75,2.375 L3.3125,2.375 C3.3131886,1.85751854 3.73251854,1.4381886 4.25,1.4375 L13.625,1.4375 C14.1424815,1.4381886 14.5618114,1.85751854 14.5625,2.375 L14.5625,11.75 C14.5618114,12.2674815 14.1424815,12.6868114 13.625,12.6875 L13.625,4.25 C13.625,3.21446609 12.7855339,2.375 11.75,2.375 Z M1.4375,6.125 L1.4375,4.25 C1.4381886,3.73251854 1.85751854,3.3131886 2.375,3.3125 L11.75,3.3125 C12.2674815,3.3131886 12.6868114,3.73251854 12.6875,4.25 L12.6875,6.125 L1.4375,6.125 Z M1.4375,7.0625 L12.6875,7.0625 L12.6875,13.625 C12.6868114,14.1424815 12.2674815,14.5618114 11.75,14.5625 L2.375,14.5625 C1.85751854,14.5618114 1.4381886,14.1424815 1.4375,13.625 L1.4375,7.06125 L1.4375,7.0625 Z M11.27875,4.25 C11.020034,4.25138075 10.811357,4.4621084 10.8125063,4.72082554 C10.8136555,4.97954267 11.0241964,5.18840811 11.2829144,5.18749038 C11.5416325,5.18657264 11.7506862,4.97621878 11.75,4.7175 C11.7496697,4.59296218 11.6997942,4.47367499 11.6113813,4.38596562 C11.5229683,4.29825624 11.4032865,4.24933536 11.27875,4.25 Z M8.4675,4.25 L2.8425,4.25 C2.58361653,4.25 2.37375,4.45986652 2.37375,4.71875 C2.37375,4.97763348 2.58361653,5.1875 2.8425,5.1875 L8.4675,5.1875 C8.72638348,5.1875 8.93625,4.97763348 8.93625,4.71875 C8.93625,4.45986652 8.72638348,4.25 8.4675,4.25 Z" id="形状" fill="#BFC4CA"></path>
            </g>
        </g>
    </g>
</svg>