<?xml version="1.0" encoding="UTF-8"?>
<svg width="13px" height="14px" viewBox="0 0 13 14" version="1.1" xmlns="http://www.w3.org/2000/svg" xmlns:xlink="http://www.w3.org/1999/xlink">
    <title>形状结合</title>
    <defs>
        <linearGradient x1="87.1897065%" y1="0.0029992114%" x2="18.2404492%" y2="99.9970008%" id="linearGradient-1">
            <stop stop-color="#3F65FF" offset="0%"></stop>
            <stop stop-color="#4D9AFF" offset="100%"></stop>
        </linearGradient>
    </defs>
    <g id="页面-1" stroke="none" stroke-width="1" fill="none" fill-rule="evenodd">
        <g id="系统设置-登录-左右布局-4.4" transform="translate(-869.000000, -1443.000000)" fill="url(#linearGradient-1)">
            <g id="编组-46" transform="translate(426.000000, 1438.000000)">
                <path d="M449.74013,5.800125 C450.110505,5.800125 450.410755,6.100375 450.410755,6.47075 L450.410755,6.47075 C450.411755,6.84475 450.111755,7.146625 449.74063,7.147625 L449.74063,7.147625 L444.34763,7.145125 L444.34763,17.252625 L454.453005,17.252625 L454.453005,11.85975 C454.453005,11.489375 454.753255,11.189125 455.12363,11.189125 L455.12363,11.189125 C455.49763,11.188375 455.79913,11.488625 455.80001,11.85975 L455.80001,11.85975 L455.80001,17.929125 C455.800715,18.1063714 455.730922,18.276627 455.606005,18.402375 C455.479689,18.527999 455.309027,18.5988948 455.13088,18.5997556 L455.13088,18.5997556 L443.67013,18.5997556 C443.493027,18.6004786 443.32292,18.5306726 443.19738,18.40575 C443.071756,18.2794339 443.00086,18.1087722 443,17.930625 L443,17.930625 L443,6.47025 C442.999336,6.29319548 443.069135,6.1231492 443.194005,5.997625 C443.319896,5.87127388 443.490892,5.800125 443.669255,5.800125 L443.669255,5.800125 Z M454.628713,6.22911688 L455.307535,6.90793939 C455.588713,7.18911688 455.588713,7.64499567 455.307535,7.92617316 L449.876955,13.3567532 L447.681777,14.2461833 C447.53436,14.3059129 447.366434,14.2348281 447.306704,14.087411 C447.278933,14.01887 447.278593,13.9422726 447.305754,13.8734875 L448.125011,11.7987031 C448.161217,11.7070096 448.215868,11.6237282 448.285576,11.5540195 L453.610479,6.22911688 C453.891657,5.94793939 454.347535,5.94793939 454.628713,6.22911688 Z" id="形状结合"></path>
            </g>
        </g>
    </g>
</svg>