<?xml version="1.0" encoding="UTF-8"?>
<svg width="16px" height="17px" viewBox="0 0 16 17" version="1.1" xmlns="http://www.w3.org/2000/svg" xmlns:xlink="http://www.w3.org/1999/xlink">
    <title>新增</title>
    <g id="页面-1" stroke="none" stroke-width="1" fill="none" fill-rule="evenodd">
        <g id="参数编辑器" transform="translate(-740.000000, -150.000000)" fill="#2A87FF" fill-rule="nonzero">
            <g id="新增" transform="translate(740.000000, 150.000000)">
                <path d="M8.00021993,16.0844528 C3.58096435,16.0844528 -2.33388544e-16,12.4838205 -2.33388544e-16,8.04222639 C-2.33388544e-16,3.59973687 3.58098006,-1.98665656e-16 8.00021993,-1.98665656e-16 C12.4181245,-1.98665656e-16 16,3.59973687 16,8.04222639 C16,12.4847159 12.4194755,16.0844528 8.00021993,16.0844528 Z M8.00021993,1.07107049 C4.17079852,1.07107049 1.06660907,4.19180175 1.06660907,8.04133096 C1.06660907,11.8895249 4.17081423,15.0111359 8.00021993,15.0111359 C11.8291858,15.0111359 14.9324955,11.8908445 14.9333909,8.04133096 C14.9333909,4.19180175 11.8291858,1.07107049 8.00021993,1.07107049 Z M11.6821789,8.51095816 L8.54313065,8.51095816 L8.52927861,12.1040029 C8.52927861,12.2371612 8.5578763,12.8077761 7.94123686,12.8077761 C7.35587667,12.8077761 7.41441238,12.4310893 7.41441238,12.1469001 L7.41575291,8.51184888 L3.9670445,8.51184888 C3.74183709,8.51184888 3.47418022,8.51318939 3.47418022,7.8246081 C3.47418022,7.31297601 4.10020373,7.37106558 4.10020373,7.37106558 L7.41576076,7.37106558 L7.41576076,3.90404022 C7.41576076,3.6770451 7.59047559,3.4750732 7.97877929,3.49786256 C8.36708299,3.52020453 8.54179782,3.67793895 8.54179782,3.90404022 L8.54179782,7.37106558 L11.6813016,7.37106558 C11.6813016,7.37106558 12.3966933,7.27767598 12.3895957,7.91442244 C12.3819462,8.55161677 11.8260778,8.51095345 11.6821939,8.51095345 L11.6821789,8.51095816 Z" id="形状"></path>
            </g>
        </g>
    </g>
</svg>