<?xml version="1.0" encoding="UTF-8"?>
<svg width="16px" height="15px" viewBox="0 0 16 15" version="1.1" xmlns="http://www.w3.org/2000/svg" xmlns:xlink="http://www.w3.org/1999/xlink">
    <title>编组备份 5</title>
    <g id="页面-1" stroke="none" stroke-width="1" fill="none" fill-rule="evenodd">
        <g id="参数编辑器" transform="translate(-889.000000, -203.000000)" fill="#2A87FF" fill-rule="nonzero">
            <g id="编组-41" transform="translate(423.000000, 86.000000)">
                <g id="编组备份-5" transform="translate(465.999850, 117.000000)">
                    <path d="M11.5121504,13.7954286 L4.48815041,13.7954286 C3.94306152,13.7885262 3.50643482,13.3416741 3.51209494,12.7965714 L3.51209494,3.18971429 L12.4882059,3.18971429 L12.4882059,12.7965714 C12.493866,13.3416741 12.0572393,13.7885262 11.5121504,13.7954286 Z M5.46300756,1.39657143 C5.46300756,1.28114286 5.5498647,1.19085714 5.66300756,1.19085714 L10.3498647,1.19085714 C10.4630076,1.19085714 10.5498647,1.28114286 10.5498647,1.39657143 L10.5498647,1.99885714 L5.46300756,1.99885714 L5.46300756,1.39657143 Z M11.7121504,1.99885714 L11.7121504,1.39657143 C11.7121504,0.627428571 11.1007218,0 10.3498647,0 L5.66300756,0 C4.91215041,0 4.30072184,0.628571429 4.30072184,1.39657143 L4.30072184,1.99885714 L0.587578986,1.99885714 C0.429961278,2.00066532 0.279518693,2.06501822 0.169352218,2.17775668 C0.0591857424,2.29049513 -0.00167874192,2.44238253 3.52428958e-05,2.6 C3.52428958e-05,2.93371429 0.263007558,3.20228571 0.587578986,3.20228571 L2.33729327,3.20228571 L2.33729327,12.7965714 C2.33729327,14.0137143 3.29957899,15 4.48815041,15 L11.5121504,15 C12.7007218,15 13.6630076,14.0137143 13.6630076,12.7965714 L13.6630076,3.18971429 L15.411579,3.18971429 C15.5695963,3.18820923 15.7205076,3.12383157 15.8309536,3.01081202 C15.9413997,2.89779246 16.0022848,2.74543868 16.0003054,2.58742857 C16.0016884,2.43106185 15.9403298,2.28063534 15.829864,2.16995462 C15.7193982,2.0592739 15.5690913,1.99762311 15.4127218,1.99885714 L11.7121504,1.99885714 Z M8.41878568,11.8104109 C8.52898506,11.6974243 8.58971394,11.5452427 8.58757899,11.3874286 L8.58757899,5.98285714 C8.58971394,5.825043 8.52898506,5.67286138 8.41878568,5.55987485 C8.30858629,5.44688832 8.15796865,5.38237809 8.00015041,5.38057143 C7.84233218,5.38237809 7.69171454,5.44688832 7.58151515,5.55987485 C7.47131576,5.67286138 7.41058689,5.825043 7.41272184,5.98285714 L7.41272184,11.3874286 C7.41272184,11.7211429 7.67557899,11.9897143 8.00015041,11.9897143 C8.15796865,11.9879076 8.30858629,11.9233974 8.41878568,11.8104109 Z M5.68164282,11.8104109 C5.79184221,11.6974243 5.85257109,11.5452427 5.85043613,11.3874286 L5.85043613,5.98285714 C5.85257109,5.825043 5.79184221,5.67286138 5.68164282,5.55987485 C5.57144344,5.44688832 5.4208258,5.38237809 5.26300756,5.38057143 C5.10518932,5.38237809 4.95457168,5.44688832 4.84437229,5.55987485 C4.73417291,5.67286138 4.67344403,5.825043 4.67557899,5.98285714 L4.67557899,11.3874286 C4.68700756,11.7211429 4.9498647,11.9897143 5.26300756,11.9897143 C5.4208258,11.9879076 5.57144344,11.9233974 5.68164282,11.8104109 Z M11.1559285,11.8104109 C11.2661279,11.6974243 11.3268568,11.5452427 11.3247218,11.3874286 L11.3247218,5.98285714 C11.3268568,5.825043 11.2661279,5.67286138 11.1559285,5.55987485 C11.0457292,5.44688832 10.8951115,5.38237809 10.7372933,5.38057143 C10.579475,5.38237809 10.4288574,5.44688832 10.318658,5.55987485 C10.2084586,5.67286138 10.1477297,5.825043 10.1498647,5.98285714 L10.1498647,11.3874286 C10.1498647,11.7211429 10.4127218,11.9897143 10.7372933,11.9897143 C10.8951115,11.9879076 11.0457292,11.9233974 11.1559285,11.8104109 Z" id="形状"></path>
                </g>
            </g>
        </g>
    </g>
</svg>