<?xml version="1.0" encoding="UTF-8"?>
<svg width="24px" height="25px" viewBox="0 0 24 25" version="1.1" xmlns="http://www.w3.org/2000/svg" xmlns:xlink="http://www.w3.org/1999/xlink">
    <title>电话</title>
    <g id="页面-1" stroke="none" stroke-width="1" fill="none" fill-rule="evenodd">
        <g id="GS7-登录前" transform="translate(-1321.000000, -224.000000)" fill-rule="nonzero">
            <g id="编组-4" transform="translate(1311.000000, 207.000000)">
                <g id="编组-9" transform="translate(0.000000, 0.000000)">
                    <g id="电话" transform="translate(10.000000, 17.264583)">
                        <rect id="矩形" fill="#000000" opacity="0" x="0" y="0" width="24" height="24"></rect>
                        <path d="M6.66760001,3.01279999 C3.4644,5.40279998 3.06760001,10.6468 5.91679999,15.9328 C8.7012,21.0976 13.1136,23.8416 17.676,22.4328 C18.862,22.0668 20,21.0532 20,19.9116 C20.0004,17.9272 17.7296,13.9756 16.0288,13.6688 C15.5516,13.5832 14.9748,13.7552 14.1168,14.1256 C14.028,14.164 13.9368,14.2044 13.8432,14.2468 L13.6296,14.3452 C13.4208,14.4424 13.2452,14.5276 12.9468,14.6752 L12.8184,14.7384 L12.8124,14.7328 C12.7584084,14.6804663 12.7065015,14.626024 12.6568,14.5696 C12.4108,14.292 12.1208,13.8832 11.8284,13.4024 L11.7436,13.2608 C11.3508,12.5968 11.002,11.8824 10.7752,11.2872 L10.754,11.23 L11.296,10.998 C11.408,10.95 11.5148,10.9024 11.6268,10.8524 L11.9428,10.7096 L12.186,10.5964 C12.802,10.3048 13.1676,10.0936 13.3732,9.87 C14.548,8.59120001 12.2192,2.41600001 10.3084,2.05999999 C9.1716,1.848 7.79800001,2.21719999 6.77920001,2.93200001 L6.6672,3.01279999 L6.66760001,3.01279999 Z M10.0152,3.63280001 C10.2592,3.67840001 10.9704,4.77680002 11.5044,6.19279999 C11.7712,6.89959999 11.9732,7.6128 12.0676,8.1756 L12.0836,8.27320001 C12.109215,8.43196384 12.1231192,8.59239654 12.1252,8.75320001 L12.1228,8.82679999 L12.022,8.8848 L11.9668,8.91559999 C11.79,9.01159999 11.556,9.12639998 11.274,9.25600001 L10.81,9.4644 C10.646,9.5364 10.4804,9.6084 10.2776,9.69439999 L9.54160001,10.0076 L9.432,10.0588 L9.39520001,10.0784 L9.3744,10.0576 C9.33040001,10.0276 9.29239999,10.1348 8.99959999,10.9664 C9.48559999,13.048 11.5388,16.426 12.7996,16.428 L12.9552,16.4108 C12.9884,16.4068 13.0072,16.4032 13.0244,16.3984 L13.1308,16.3604 L13.2224,16.3208 L13.5524,16.1608 L14.1136,15.886 C14.2,15.8448 14.2816,15.806 14.3728,15.764 L14.6288,15.648 L14.7512,15.5944 C14.9952833,15.4858971 15.2452784,15.3912141 15.5,15.3108 L15.5892,15.286 C15.6972,15.2572 15.7612,15.2464 15.7452,15.2436 C16.5452,15.3876 18.4004,18.6156 18.4000001,19.9116 C18.4000001,20.1836 17.7968,20.7212 17.204,20.9044 C13.5,22.048 9.78639998,19.7388 7.32520001,15.1732 C4.8156,10.5184 5.14720001,6.14360002 7.62439999,4.29520001 C8.31399998,3.78040001 9.3048,3.5004 10.0152,3.63280001 L10.0152,3.63280001 Z" id="形状" fill="#FFFFFF"></path>
                        <path d="M15.7056,1.78000001 C17.8848,3.55600001 18.5216,6.26440001 17.5784,8.93719999 L17.5264,9.0804 L16.028,8.51959999 C16.7976,6.46239998 16.376,4.4604 14.7968,3.1056 L14.6944,3.01999999 L15.7056,1.78000001 Z" id="路径" fill="#FFFFFF"></path>
                    </g>
                </g>
            </g>
        </g>
    </g>
</svg>