<?xml version="1.0" encoding="UTF-8"?>
<svg width="16px" height="16px" viewBox="0 0 16 16" version="1.1" xmlns="http://www.w3.org/2000/svg" xmlns:xlink="http://www.w3.org/1999/xlink">
    <!-- Generator: Sketch 64 (93537) - https://sketch.com -->
    <title>关于备份</title>
    <desc>Created with Sketch.</desc>
    <g id="框架多主题色" stroke="none" stroke-width="1" fill="none" fill-rule="evenodd">
        <g id="关于备份">
            <rect id="矩形" x="0" y="0" width="16" height="16"></rect>
            <path d="M12.0845702,1.60506187 C14.3866161,3.74460945 14.6476165,7.29819057 12.6830632,9.75147777 C12.2706762,10.2651481 11.2671884,11.0459421 11.0444419,12 L4.95602131,12 C4.73326913,11.0452904 3.72817416,10.2641762 3.31579347,9.74986238 C1.35188678,7.29626126 1.61417417,3.74268015 3.91685724,1.60377608 C6.21954658,-0.535127977 9.78285393,-0.534484457 12.0845702,1.60506187 Z M11.4037367,2.3375001 C9.48568228,0.554584295 6.51627383,0.554095941 4.59742765,2.33645877 C2.67846636,4.11893338 2.4599367,7.08032894 4.09597393,9.12430787 L4.30053835,9.34822289 C4.49540703,9.55523666 4.75944254,9.82927856 4.80573705,9.87967211 C5.13498448,10.238072 5.39642,10.5728107 5.59095652,10.9160794 L5.634,10.9999999 L10.365,10.9999999 L10.4094232,10.916287 C10.5649575,10.6417699 10.7632439,10.3727132 11.0047284,10.0926956 L11.1939484,9.88037065 L11.7890039,9.25283071 C11.8433438,9.19428732 11.8846943,9.14857944 11.902493,9.12640961 C13.4885374,7.14579533 13.3339376,4.30468978 11.5786478,2.50808852 L11.4037367,2.3375001 Z" id="路径" fill="#262626" fill-rule="nonzero"></path>
            <rect id="矩形" fill="#262626" fill-rule="nonzero" x="7.5" y="6" width="1" height="4" rx="0.5"></rect>
            <circle id="椭圆形" fill="#262626" fill-rule="nonzero" cx="8" cy="4" r="1"></circle>
            <path d="M11,13.3332854 C11,13.701446 10.8641924,13.9999205 10.0358022,14 L6.49983829,14 L5.96906875,14 C5.14067856,13.9999211 5,13.701446 5,13.3332854 L5,13 L11,13 L11,13.3332854 Z" id="路径" fill="#262626" fill-rule="nonzero"></path>
            <path d="M10,15 L10,15.3332854 C10,15.701446 9.82753513,15.9999205 9.00285448,16 L7,16 C6.17531935,15.9999211 6.0003772,15.701446 6.0003772,15.3332854 L6.0003772,15 L10,15 Z" id="路径备份" fill="#262626" fill-rule="nonzero"></path>
        </g>
    </g>
</svg>