<?xml version="1.0" encoding="UTF-8"?>
<svg width="16px" height="16px" viewBox="0 0 16 16" version="1.1" xmlns="http://www.w3.org/2000/svg" xmlns:xlink="http://www.w3.org/1999/xlink">
    <!-- Generator: Sketch 64 (93537) - https://sketch.com -->
    <title>验证码</title>
    <desc>Created with Sketch.</desc>
    <g id="登陆设计-1920分辨率" stroke="none" stroke-width="1" fill="none" fill-rule="evenodd">
        <g id="域名备份" fill-rule="nonzero">
            <rect id="矩形" x="0" y="0" width="16" height="16"></rect>
            <path d="M8.00426636,0 C8.10200489,0 8.19082284,0.0306335763 8.2683931,0.09109459 L8.6267677,0.361153787 C8.71752491,0.431288572 8.96264694,0.598160973 9.26129244,0.778334797 C9.78168168,1.09148879 10.3228008,1.36586495 10.8805716,1.59939538 C11.442956,1.838821 12.0390835,1.99924422 12.6313324,2.09517571 L12.9323163,2.13801196 C13.122117,2.16156179 13.2851774,2.17522163 13.3913197,2.17974358 L14.0586252,2.19070411 C14.3021959,2.19070411 14.5,2.40231766 14.5,2.6582693 L14.5,8.98813452 C14.5,10.5508502 13.6362551,12.2965613 12.1271257,13.7887391 C10.7774032,15.1519335 9.19419416,16 8.00426636,16 C6.83101617,16 5.24858285,15.1515304 3.87287427,13.7887391 C2.36684766,12.3001889 1.5,10.5452072 1.5,8.98813452 L1.5,2.65786622 C1.5,2.40231766 1.69780417,2.19030103 1.94059908,2.19030105 L2.54021719,2.18143343 C2.67247448,2.18143343 3.00253594,2.15402444 3.36827973,2.09477263 C3.96052868,1.99924423 4.55665612,1.838821 5.11942837,1.59939538 C6.13947731,1.17455597 7.23050303,0.517546276 7.38254072,0.360347648 L7.73975177,0.0914976682 C7.81809774,0.0310366545 7.90652784,0 8.00426636,0 Z M8.004,1.144 L7.94031629,1.1950813 C7.50402781,1.53176969 6.53409505,2.07252614 5.7005437,2.43842009 L5.51091164,2.5195806 C4.89185157,2.78295329 4.22290816,2.96984797 3.52819838,3.08190283 L3.20728088,3.12814657 C2.99653746,3.15489084 2.79877985,3.17292788 2.65350389,3.17903293 L2.5,3.182 L2.5,8.98813452 C2.5,10.1781678 3.16169747,11.5871165 4.3480766,12.8444267 L4.57663785,13.0783049 C5.78370947,14.2740426 7.13938237,15 8.00426636,15 C8.88632394,15 10.2382898,14.2751391 11.4240239,13.0776499 C12.6787364,11.8370312 13.4105641,10.4331546 13.4923199,9.21439712 L13.5,8.98813452 L13.5,3.182 L13.4597828,3.18143343 C13.3038223,3.18143343 13.0579735,3.16168411 12.7933853,3.12838169 L12.4714381,3.08230984 C11.7756102,2.96960081 11.1070512,2.78266784 10.4943703,2.52180987 C9.89188282,2.26955725 9.30751748,1.97325297 8.74471846,1.63457736 L8.49670151,1.48092425 C8.33680843,1.37928556 8.19249569,1.28244251 8.09182646,1.20960825 L8.004,1.144 Z" id="路径" fill="#BEC4CB"></path>
            <path d="M10.8664574,6.09438956 L7.40409275,9.67838956 L5.56152935,7.69664838 C5.37554375,7.50412897 5.07477227,7.50412897 4.88878667,7.69664838 C4.70373778,7.88819818 4.70373778,8.19650771 4.88878667,8.3880575 L7.1036817,10.6807634 C7.19385281,10.7741023 7.31427695,10.8242745 7.44005304,10.8242745 C7.56582912,10.8242745 7.68625326,10.7741023 7.77642438,10.6807634 L11.5392001,6.78579868 C11.724249,6.59424888 11.724249,6.28593935 11.5392001,6.09438956 C11.3532145,5.90187015 11.052443,5.90187015 10.8664574,6.09438956 Z" id="路径" fill="#BEC4CB"></path>
        </g>
    </g>
</svg>