<?xml version="1.0" encoding="UTF-8"?>
<svg width="46px" height="46px" viewBox="0 0 46 46" version="1.1" xmlns="http://www.w3.org/2000/svg" xmlns:xlink="http://www.w3.org/1999/xlink">
    <title>椭圆形</title>
    <defs>
        <path d="M15,0 C6.71651786,0 0,6.71651786 0,15 C0,23.2834821 6.71651786,30 15,30 C23.2834821,30 30,23.2834821 30,15 C30,6.71651786 23.2834821,0 15,0 Z" id="path-1"></path>
        <filter x="-45.0%" y="-35.0%" width="190.0%" height="190.0%" filterUnits="objectBoundingBox" id="filter-3">
            <feOffset dx="0" dy="3" in="SourceAlpha" result="shadowOffsetOuter1"></feOffset>
            <feGaussianBlur stdDeviation="4" in="shadowOffsetOuter1" result="shadowBlurOuter1"></feGaussianBlur>
            <feColorMatrix values="0 0 0 0 1   0 0 0 0 0.696829698   0 0 0 0 0.362404726  0 0 0 0.3 0" type="matrix" in="shadowBlurOuter1"></feColorMatrix>
        </filter>
        <path d="M13.9285714,7.76785714 C13.9285714,7.62053571 14.0491071,7.5 14.1964286,7.5 L15.8035714,7.5 C15.9508929,7.5 16.0714286,7.62053571 16.0714286,7.76785714 L16.0714286,16.875 C16.0714286,17.0223214 15.9508929,17.1428571 15.8035714,17.1428571 L14.1964286,17.1428571 C14.0491071,17.1428571 13.9285714,17.0223214 13.9285714,16.875 L13.9285714,7.76785714 Z" id="path-4"></path>
        <filter x="-326.7%" y="-51.9%" width="753.3%" height="245.2%" filterUnits="objectBoundingBox" id="filter-5">
            <feOffset dx="0" dy="2" in="SourceAlpha" result="shadowOffsetOuter1"></feOffset>
            <feGaussianBlur stdDeviation="2" in="shadowOffsetOuter1" result="shadowBlurOuter1"></feGaussianBlur>
            <feColorMatrix values="0 0 0 0 1   0 0 0 0 0.696829698   0 0 0 0 0.362404726  0 0 0 0.6 0" type="matrix" in="shadowBlurOuter1"></feColorMatrix>
        </filter>
        <path d="M15,22.5 C14.1127232,22.5 13.3928571,21.7801339 13.3928571,20.8928571 C13.3928571,20.0055804 14.1127232,19.2857143 15,19.2857143 C15.8872768,19.2857143 16.6071429,20.0055804 16.6071429,20.8928571 C16.6071429,21.7801339 15.8872768,22.5 15,22.5 Z" id="path-6"></path>
        <filter x="-217.8%" y="-155.6%" width="535.6%" height="535.6%" filterUnits="objectBoundingBox" id="filter-7">
            <feOffset dx="0" dy="2" in="SourceAlpha" result="shadowOffsetOuter1"></feOffset>
            <feGaussianBlur stdDeviation="2" in="shadowOffsetOuter1" result="shadowBlurOuter1"></feGaussianBlur>
            <feColorMatrix values="0 0 0 0 1   0 0 0 0 0.696829698   0 0 0 0 0.362404726  0 0 0 0.6 0" type="matrix" in="shadowBlurOuter1"></feColorMatrix>
        </filter>
    </defs>
    <g id="MessageBox消息弹窗" stroke="none" stroke-width="1" fill="none" fill-rule="evenodd">
        <g transform="translate(-106.000000, -2282.000000)" id="编组-22">
            <g transform="translate(90.000000, 233.000000)">
                <g id="编组-17" transform="translate(0.000000, 2014.000000)">
                    <g id="矩形" transform="translate(0.000000, 4.000000)">
                        <g id="椭圆形" transform="translate(24.000000, 36.000000)">
                            <mask id="mask-2" fill="white">
                                <use xlink:href="#path-1"></use>
                            </mask>
                            <g id="蒙版">
                                <use fill="black" fill-opacity="1" filter="url(#filter-3)" xlink:href="#path-1"></use>
                                <use fill="#FE9439" fill-rule="evenodd" xlink:href="#path-1"></use>
                            </g>
                            <g id="路径">
                                <use fill="black" fill-opacity="1" filter="url(#filter-5)" xlink:href="#path-4"></use>
                                <use fill="#FFFFFF" fill-rule="evenodd" xlink:href="#path-4"></use>
                            </g>
                            <g id="路径">
                                <use fill="black" fill-opacity="1" filter="url(#filter-7)" xlink:href="#path-6"></use>
                                <use fill="#FFFFFF" fill-rule="evenodd" xlink:href="#path-6"></use>
                            </g>
                        </g>
                    </g>
                </g>
            </g>
        </g>
    </g>
</svg>