<?xml version="1.0" encoding="UTF-8"?>
<svg width="20px" height="20px" viewBox="0 0 20 20" version="1.1" xmlns="http://www.w3.org/2000/svg" xmlns:xlink="http://www.w3.org/1999/xlink">
    <!-- Generator: Sketch 53.2 (72643) - https://sketchapp.com -->
    <title>分组 12</title>
    <desc>Created with Sketch.</desc>
    <g id="Page-1" stroke="none" stroke-width="1" fill="none" fill-rule="evenodd">
        <g id="启动台" transform="translate(-20.000000, -193.000000)" fill-rule="nonzero">
            <g id="分组-12" transform="translate(20.000000, 193.000000)">
                <circle id="椭圆形" fill="#F49730" cx="10" cy="10" r="10"></circle>
                <g id="客户" transform="translate(4.000000, 3.000000)" fill="#FFFFFF">
                    <rect id="矩形" opacity="0" x="0" y="0" width="12" height="12"></rect>
                    <path d="M2.85333334,6.73066666 C2.81866667,6.83573333 2.8,6.94826666 2.8,7.06506666 L2.8,8.1312 C2.8,8.72030373 3.27756293,9.19786666 3.86666666,9.19786666 L4.93333334,9.19786666 C5.52243707,9.19786666 6,8.72030373 6,8.1312 L6,7.06506666 C6,6.94773332 5.98133334,6.83573333 5.94666666,6.73013334 C7.53813332,7.15573334 8.66666666,8.21973334 8.66666666,9.46453334 L8.66666666,10.2666667 C8.66666667,10.5495643 8.55428604,10.8208751 8.35424723,11.0209139 C8.15420843,11.2209527 7.88289759,11.3333333 7.6,11.3333333 L1.2,11.3333333 C0.91710241,11.3333333 0.645791568,11.2209527 0.445752765,11.0209139 C0.245713962,10.8208751 0.133333334,10.5495643 0.133333337,10.2666667 L0.133333337,9.46453334 C0.133333337,8.21973334 1.26186667,7.15573334 2.85333334,6.73013334 L2.85333334,6.73066666 Z M10.1205333,10.2757333 C10.2166141,10.1121191 10.2670766,9.92573919 10.2666667,9.736 L10.2666667,8.93333334 C10.2666667,7.76 9.20106666,6.74666668 7.66186666,6.27786666 C8.27786666,5.6912 8.66666666,4.8288 8.66666666,3.86666666 C8.66666666,3.28586666 8.5248,2.74133333 8.27733334,2.272 C9.38826666,2.3552 10.2666667,3.39573334 10.2666667,4.66666666 C10.2666667,5.496 9.89333332,6.2272 9.32426666,6.65813334 C10.8021333,6.97813334 11.8666667,7.87573334 11.8666667,8.93333334 L11.8666667,9.7424 C11.8666667,10.0369519 11.6278852,10.2757333 11.3333333,10.2757333 L10.1205333,10.2757333 L10.1205333,10.2757333 Z M4.4,7.06506666 C4.69455187,7.06506666 4.93333334,7.30384813 4.93333334,7.5984 L4.93333334,8.13173334 C4.93333616,8.32227687 4.83168402,8.49834756 4.66666895,8.59362014 C4.50165388,8.68889273 4.29834612,8.68889273 4.13333105,8.59362014 C3.96831598,8.49834756 3.86666384,8.32227687 3.86666666,8.13173334 L3.86666666,7.5984 C3.86666666,7.4569512 3.92285698,7.32129578 4.02287638,7.22127638 C4.12289578,7.12125698 4.2585512,7.06506666 4.4,7.06506666 L4.4,7.06506666 Z M4.4,6.53173334 C2.92746666,6.53173334 1.73333334,5.21866667 1.73333334,3.59946666 C1.73333334,1.97973334 2.92746666,0.666666662 4.4,0.666666662 C5.87253334,0.666666662 7.06666666,1.97973332 7.06666666,3.59946666 C7.06666666,5.21866666 5.87253333,6.53173332 4.4,6.53173334 L4.4,6.53173334 Z" id="形状"></path>
                </g>
            </g>
        </g>
    </g>
</svg>