<?xml version="1.0" encoding="UTF-8"?>
<svg width="20px" height="20px" viewBox="0 0 20 20" version="1.1" xmlns="http://www.w3.org/2000/svg" xmlns:xlink="http://www.w3.org/1999/xlink">
    <!-- Generator: Sketch 53.2 (72643) - https://sketchapp.com -->
    <title>分组 15</title>
    <desc>Created with Sketch.</desc>
    <g id="Page-1" stroke="none" stroke-width="1" fill="none" fill-rule="evenodd">
        <g id="启动台" transform="translate(-20.000000, -675.000000)" fill-rule="nonzero">
            <g id="分组-15" transform="translate(20.000000, 675.000000)">
                <circle id="椭圆形-copy-4" fill="#59A1FF" cx="10" cy="10" r="10"></circle>
                <g id="快递配送" transform="translate(3.000000, 4.000000)" fill="#FFFFFF">
                    <rect id="矩形" opacity="0" x="0" y="0" width="14" height="14"></rect>
                    <path d="M6.78359375,1.69296875 L4.65279018,0.42734375 L0.85859375,2.42823661 L2.44832589,4.05680804 L6.78359375,1.69296875 L6.78359375,1.69296875 L6.78359375,1.69296875 Z M6.78359375,6.43939732 L2.44832589,4.07689732 L0.885379464,5.92645089 L4.96484375,8.34386161 L6.78359375,6.43939732 L6.78359375,6.43939732 L6.78359375,6.43939732 Z M6.82912946,6.43939732 L8.71350446,8.33180804 L12.8572545,5.97600446 L11.1643973,4.07689732 L6.82912946,6.43939732 L6.82912946,6.43939732 L6.82912946,6.43939732 Z M8.76841518,9.06037946 L6.80636161,7.16662946 L5.01439732,9.06707589 L2.51127232,7.51082589 L2.51127232,8.98671875 L6.84520089,11.5032366 L11.219308,9.02287946 L11.2126116,7.51082589 L8.76841518,9.06037946 L8.76841518,9.06037946 L8.76841518,9.06037946 Z M12.8585937,2.42823661 L8.95993304,0.42734375 L6.82779018,1.69296875 L11.163058,4.05546875 L12.8585937,2.42823661 L12.8585937,2.42823661 L12.8585937,2.42823661 Z" id="形状"></path>
                </g>
            </g>
        </g>
    </g>
</svg>