<?xml version="1.0" encoding="UTF-8"?>
<svg width="20px" height="20px" viewBox="0 0 20 20" version="1.1" xmlns="http://www.w3.org/2000/svg" xmlns:xlink="http://www.w3.org/1999/xlink">
    <!-- Generator: Sketch 53.2 (72643) - https://sketchapp.com -->
    <title>分组 14</title>
    <desc>Created with Sketch.</desc>
    <g id="Page-1" stroke="none" stroke-width="1" fill="none" fill-rule="evenodd">
        <g id="启动台" transform="translate(-20.000000, -365.000000)" fill-rule="nonzero">
            <g id="分组-14" transform="translate(20.000000, 365.000000)">
                <circle id="椭圆形-copy-2" fill="#51BD78" cx="10" cy="10" r="10"></circle>
                <g id="订单管理" transform="translate(4.000000, 4.000000)" fill="#FFFFFF">
                    <rect id="矩形" opacity="0" x="0" y="0" width="12" height="12"></rect>
                    <path d="M10.3699219,11.2230469 L2.73164062,11.2230469 C2.45976563,11.2230469 2.23828125,11.0015625 2.23828125,10.7296875 L2.23828125,9.72304687 L2.98828125,9.72304687 L2.98828125,10.4730469 L10.1132812,10.4730469 L10.1132812,2.62617187 L9.44179687,2.62265625 L9.44648438,1.87265625 L10.3722656,1.87734375 C10.6429687,1.87851562 10.8644531,2.09882812 10.8644531,2.37070312 L10.8644531,10.7296875 C10.8632812,11.0015625 10.6417969,11.2230469 10.3699219,11.2230469 Z" id="路径"></path>
                    <path d="M9.06796875,0.75234375 L1.5421875,0.75234375 C1.3359375,0.75234375 1.1671875,0.92109375 1.1671875,1.12734375 L1.1671875,9.34804687 C1.1671875,9.55429688 1.3359375,9.72304687 1.5421875,9.72304687 L9.06796875,9.72304687 C9.27421875,9.72304687 9.44296875,9.55429688 9.44296875,9.34804687 L9.44296875,1.12734375 C9.44296875,0.92109375 9.27421875,0.75234375 9.06796875,0.75234375 L9.06796875,0.75234375 Z M8.46914062,8.0671875 C8.46914062,8.2734375 8.30039063,8.4421875 8.09414062,8.4421875 L2.51601562,8.4421875 C2.30976562,8.4421875 2.14101562,8.2734375 2.14101562,8.0671875 C2.14101562,7.8609375 2.30976562,7.6921875 2.51601562,7.6921875 L8.09414062,7.6921875 C8.30039063,7.6921875 8.46914062,7.8609375 8.46914062,8.0671875 Z M8.46914062,6.253125 C8.46914062,6.459375 8.30039063,6.628125 8.09414062,6.628125 L2.51601562,6.628125 C2.30976562,6.628125 2.14101562,6.459375 2.14101562,6.253125 C2.14101562,6.046875 2.30976562,5.878125 2.51601562,5.878125 L8.09414062,5.878125 C8.30039063,5.878125 8.46914062,6.046875 8.46914062,6.253125 Z M8.46914062,4.43789063 C8.46914062,4.64414063 8.30039063,4.81289063 8.09414062,4.81289063 L2.51601562,4.81289063 C2.30976562,4.81289063 2.14101562,4.64414063 2.14101562,4.43789063 C2.14101562,4.23164063 2.30976562,4.06289063 2.51601562,4.06289063 L8.09414062,4.06289063 C8.30039063,4.06289063 8.46914062,4.23164063 8.46914062,4.43789063 Z M8.46914062,2.71289063 C8.46914062,2.86992188 8.34140625,2.99765625 8.184375,2.99765625 L5.09648437,2.99765625 C4.93945312,2.99765625 4.81171875,2.86992188 4.81171875,2.71289063 L4.81171875,2.53359375 C4.81171875,2.3765625 4.93945312,2.24882813 5.09648437,2.24882813 L8.184375,2.24882813 C8.34140625,2.24882813 8.46914062,2.3765625 8.46914062,2.53359375 L8.46914062,2.71289063 Z" id="形状"></path>
                </g>
            </g>
        </g>
    </g>
</svg>