<?xml version="1.0" encoding="UTF-8"?>
<svg width="16px" height="16px" viewBox="0 0 16 16" version="1.1" xmlns="http://www.w3.org/2000/svg" xmlns:xlink="http://www.w3.org/1999/xlink">
    <!-- Generator: Sketch 53.2 (72643) - https://sketchapp.com -->
    <title>画板</title>
    <desc>Created with Sketch.</desc>
    <defs>
        <rect id="path-1" x="0" y="0" width="16" height="16"></rect>
    </defs>
    <g id="画板" stroke="none" stroke-width="1" fill="none" fill-rule="evenodd">
        <g id="合并形状-copy-6">
            <mask id="mask-2" fill="white">
                <use xlink:href="#path-1"></use>
            </mask>
            <g id="Mask" fill-rule="nonzero"></g>
            <path d="M8,7.18335436 L11.0142215,4.16913285 C11.239732,3.94362238 11.6053567,3.94362238 11.8308671,4.16913285 C12.0563776,4.39464332 12.0563776,4.76026803 11.8308671,4.98577849 L8.81664564,8 L11.8308671,11.0142215 C12.0563776,11.239732 12.0563776,11.6053567 11.8308671,11.8308671 C11.6053567,12.0563776 11.239732,12.0563776 11.0142215,11.8308671 L8,8.81664564 L4.98577849,11.8308671 C4.76026803,12.0563776 4.39464332,12.0563776 4.16913285,11.8308671 C3.94362238,11.6053567 3.94362238,11.239732 4.16913285,11.0142215 L7.18335436,8 L4.16913285,4.98577849 C3.94362238,4.76026803 3.94362238,4.39464332 4.16913285,4.16913285 C4.39464332,3.94362238 4.76026803,3.94362238 4.98577849,4.16913285 L8,7.18335436 Z" id="合并形状-copy-3" fill-opacity="0.4" fill="#000000" fill-rule="nonzero" mask="url(#mask-2)"></path>
        </g>
    </g>
</svg>