<?xml version="1.0" encoding="UTF-8"?>
<svg width="16px" height="16px" viewBox="0 0 16 16" version="1.1" xmlns="http://www.w3.org/2000/svg" xmlns:xlink="http://www.w3.org/1999/xlink">
    <title>业务公共</title>
    <g id="页面-1" stroke="none" stroke-width="1" fill="none" fill-rule="evenodd">
        <g id="关键应用图标（定稿）" transform="translate(-44.000000, -263.000000)">
            <g id="业务公共" transform="translate(44.000000, 261.000000)">
                <g transform="translate(0.000000, 2.000000)">
                    <polygon id="矩形" points="0 0 16 0 16 16 0 16"></polygon>
                    <g id="编组-50">
                        <path d="M4.16483473,8 L5.33516527,8 C5.44505537,8 5.5,8.05494505 5.5,8.16483473 L5.5,9.33516527 C5.5,9.44505537 5.44505495,9.5 5.33516527,9.5 L4.16483473,9.5 C4.05494463,9.5 4,9.44505495 4,9.33516527 L4,8.16483473 C4,8.05494463 4.05494505,8 4.16483473,8 Z" id="路径备份-8" stroke="#2987FE" stroke-width="0.8" fill-rule="nonzero" transform="translate(4.750000, 8.750000) rotate(45.000000) translate(-4.750000, -8.750000) "></path>
                        <circle id="椭圆形备份-13" stroke="#2987FE" stroke-width="0.8" cx="11.5" cy="12" r="1"></circle>
                        <rect id="矩形备份-76" fill="#2987FE" x="8" y="8" width="5" height="1" rx="0.5"></rect>
                        <rect id="矩形备份-77" fill="#2987FE" x="3.5" y="11.5" width="5" height="1" rx="0.5"></rect>
                        <g id="gonggongmobanku备份-7" fill="#2987FE" fill-rule="nonzero">
                            <path d="M16,5.903 L16,14.5 C16,15.327 15.3269579,16 14.4999062,16 L1.50009376,16 C0.672042003,16 0,15.327 0,14.5 L0,5.843 C0,5.213 0.230014376,4.283 0.526032877,3.725 L1.89211826,1.15 C2.23413963,0.504 3.07219201,0 3.80223764,0 L12.208763,0 C12.9388087,0 13.775861,0.508 14.1138821,1.156 L15.4819676,3.787 C15.7719857,4.345 16,5.275 16,5.903 Z M1.41008813,4.193 C1.33708357,4.331 1.27007938,4.513 1.21007563,4.705 L14.7749234,4.705 C14.7268567,4.54823131 14.6666715,4.39543742 14.5949122,4.248 L13.2268267,1.619 C13.0588162,1.295 12.5727858,0.999 12.208763,0.999 L3.80123758,0.999 C3.43621476,0.999 2.94618414,1.295 2.77517345,1.617 L1.41108819,4.192 L1.41108819,4.193 L1.41008813,4.193 Z M15.0009376,14.5 L15.0009376,5.904 C15.0009376,5.846 14.9899369,5.772 14.9849366,5.706 L1.01206325,5.706 C1.008063,5.75 1.0000625,5.802 1.0000625,5.842 L1.0000625,14.5 C1.0000625,14.7761424 1.22393412,15 1.50009376,15 L14.5009063,15 C14.7770659,15 15.0009376,14.7761424 15.0009376,14.5 L15.0009376,14.5 Z" id="形状"></path>
                        </g>
                    </g>
                </g>
            </g>
        </g>
    </g>
</svg>