<?xml version="1.0" encoding="UTF-8"?>
<svg width="16px" height="16px" viewBox="0 0 16 16" version="1.1" xmlns="http://www.w3.org/2000/svg" xmlns:xlink="http://www.w3.org/1999/xlink">
    <title>企业门户</title>
    <g id="页面-1" stroke="none" stroke-width="1" fill="none" fill-rule="evenodd">
        <g id="关键应用图标（定稿）" transform="translate(-44.000000, -189.000000)">
            <g id="企业门户" transform="translate(44.000000, 187.000000)">
                <g transform="translate(0.000000, 2.000000)">
                    <polygon id="矩形" points="0 0 16 0 16 16 0 16"></polygon>
                    <g id="编组-42备份" transform="translate(0.000000, 1.000000)" fill="#2987FE">
                        <path d="M14,0 C15.1045695,0 16,0.8954305 16,2 L16,12 C16,13.1045695 15.1045695,14 14,14 L2,14 C0.8954305,14 0,13.1045695 0,12 L0,2 C0,0.8954305 0.8954305,0 2,0 L14,0 Z M14,1 L2,1 C1.48716416,1 1.06449284,1.38604019 1.00672773,1.88337887 L1,2 L1,12 C1,12.5128358 1.38604019,12.9355072 1.88337887,12.9932723 L2,13 L14,13 C14.5128358,13 14.9355072,12.6139598 14.9932723,12.1166211 L15,12 L15,2 C15,1.48716416 14.6139598,1.06449284 14.1166211,1.00672773 L14,1 Z" id="矩形" fill-rule="nonzero"></path>
                        <polygon id="矩形" fill-rule="nonzero" points="16 4 16 5 1 5 1 4"></polygon>
                        <path d="M9.5,7 C9.77614237,7 10,7.22385763 10,7.5 C10,7.77614237 9.77614237,8 9.5,8 L3.5,8 C3.22385763,8 3,7.77614237 3,7.5 C3,7.22385763 3.22385763,7 3.5,7 L9.5,7 Z" id="矩形备份-62" fill-rule="nonzero"></path>
                        <path d="M6.5,9 C6.77614237,9 7,9.22385763 7,9.5 C7,9.77614237 6.77614237,10 6.5,10 L3.5,10 C3.22385763,10 3,9.77614237 3,9.5 C3,9.22385763 3.22385763,9 3.5,9 L6.5,9 Z" id="矩形备份-63" fill-rule="nonzero"></path>
                        <rect id="矩形" x="13" y="2" width="1" height="1" rx="0.5"></rect>
                        <rect id="矩形备份-60" x="11" y="2" width="1" height="1" rx="0.5"></rect>
                        <rect id="矩形备份-61" x="9" y="2" width="1" height="1" rx="0.5"></rect>
                    </g>
                </g>
            </g>
        </g>
    </g>
</svg>