<?xml version="1.0" encoding="UTF-8"?>
<svg width="16px" height="16px" viewBox="0 0 16 16" version="1.1" xmlns="http://www.w3.org/2000/svg" xmlns:xlink="http://www.w3.org/1999/xlink">
    <title>系统公共</title>
    <g id="页面-1" stroke="none" stroke-width="1" fill="none" fill-rule="evenodd">
        <g id="关键应用图标（定稿）" transform="translate(-44.000000, -78.000000)">
            <g id="系统公共" transform="translate(44.000000, 75.000000)">
                <g transform="translate(0.000000, 3.000000)">
                    <rect id="矩形" x="0" y="0" width="16" height="16"></rect>
                    <g id="编组-40备份-2" transform="translate(0.939525, 0.500000)" fill-rule="nonzero">
                        <g id="zcgl.svg备份" stroke="#2987FE" stroke-linecap="round" stroke-width="0.95">
                            <path d="M13,5.89178062 L13,4.47592741 L13,3.36589433 L7.39184667,0.232817192 C6.83619506,-0.0776057305 6.16380494,-0.0776057305 5.60815333,0.232817192 L0,3.36589433 L0,11.1049391 C0,12.1515524 0.831471179,13 1.85714286,13 L2.32086182,13 L3.25,13 L4.63971357,13" id="路径"></path>
                        </g>
                        <g id="xitong" transform="translate(5.528036, 6.349994)" fill="#2987FE" stroke="#2987FE" stroke-width="0.2">
                            <path d="M8.99986761,4.73203433 L8.99189716,4.28443958 C8.98798104,4.06508527 8.89883171,3.86039081 8.74086001,3.70804634 C8.58289754,3.55571109 8.37543529,3.47389407 8.15552439,3.47787212 L7.93942825,3.48171204 C7.86617377,3.24351726 7.76905398,3.01381267 7.64907326,2.79499246 L7.8379777,2.62101736 C7.99941401,2.47233785 8.09324425,2.26975212 8.10220065,2.05054515 C8.11114784,1.83133819 8.0341523,1.62178166 7.88538579,1.46044976 L7.58182656,1.13124795 C7.274729,0.798233838 6.75374676,0.77696234 6.42050794,1.08387972 L6.16743441,1.3169546 C5.9615294,1.2047037 5.74594927,1.11255481 5.52285941,1.0414288 L5.52285941,0.821328598 C5.52285941,0.3684482 5.15417279,0 4.70099932,0 L4.25305042,0 C3.79987696,0 3.43119034,0.368448191 3.43119034,0.821328598 L3.43119034,0.992789792 C3.19055625,1.05723047 2.95750562,1.14576964 2.73454475,1.25747725 L2.57950324,1.11469115 C2.41806692,0.966020851 2.20834716,0.88908431 1.98902598,0.898016504 C1.76967717,0.906957903 1.56695113,1.00073668 1.41818462,1.16205938 L1.11461618,1.49125198 C0.807509399,1.82428451 0.828776241,2.34491142 1.16202428,2.65181959 L1.20047597,2.68722605 C1.04698248,2.9460109 0.926531827,3.22084607 0.840533813,3.50860069 C0.62241972,3.5056724 0.416173782,3.58741575 0.259141962,3.73883937 C0.101170266,3.89117463 0.0120209344,4.0958783 0.00811402749,4.3152234 L0.000134358711,4.76280895 C-0.00378175883,4.98215404 0.0780236917,5.18990572 0.230466746,5.34776604 C0.382900581,5.50563558 0.58773672,5.59471804 0.80722376,5.59863164 L0.829310676,5.5990276 C0.909171892,5.87696601 1.02120979,6.14355963 1.16411594,6.39570519 L1.11499397,6.44889315 C0.966116892,6.61012377 0.88897392,6.81963425 0.897792101,7.03884122 C0.906601072,7.2580574 1.00030232,7.46070759 1.16162805,7.60948839 L1.49084017,7.91308152 C1.64859993,8.0585657 1.8484603,8.13043759 2.04787837,8.13042838 C2.26943864,8.13040996 2.49044606,8.04163137 2.65218644,7.86646838 L2.66496681,7.8526373 C2.91451122,7.98441931 3.17705715,8.0866054 3.44962835,8.15804449 L3.44962835,8.1786714 C3.44962835,8.63156101 3.81831497,9 4.27148844,9 L4.71943734,9 C5.17262002,9 5.54129742,8.63155181 5.54129742,8.1786714 L5.54129742,8.09854874 C5.7998443,8.01470588 6.04749055,7.90281409 6.2817022,7.76405207 L6.34784317,7.83567534 C6.49671104,7.99690595 6.69950158,8.0905466 6.91885961,8.09934988 C7.13830979,8.10827286 7.34787291,8.03106928 7.50918943,7.88229769 L7.83840156,7.57870455 C7.99973651,7.42993296 8.09343775,7.22726435 8.10224672,7.00805739 C8.11105569,6.78884121 8.03392194,6.57933073 7.88504486,6.41810932 L7.71204448,6.23074514 C7.81792716,6.0195311 7.9030498,5.79915466 7.96652781,5.57187189 L8.19282428,5.56783859 C8.64587796,5.55979042 9.00793943,5.18484106 8.99986761,4.73203433 Z M8.33292926,4.90699474 C8.29143681,4.94710671 8.23525661,4.96845188 8.1775376,4.96947402 L7.725175,4.97753141 C7.58553074,4.98001768 7.46614896,5.07864931 7.43744611,5.21524734 C7.37003355,5.53601422 7.25241172,5.84274743 7.08786094,6.12693837 C7.02214383,6.24042322 7.03800182,6.38343032 7.12696687,6.47977826 L7.44484528,6.82403587 C7.485232,6.86776676 7.50614869,6.92459206 7.50377137,6.98405097 C7.50137563,7.04350988 7.47596231,7.09847507 7.43220312,7.13883567 L7.102991,7.44242881 C7.05922259,7.4827802 7.00218545,7.50373861 6.94286313,7.50130759 C6.88336574,7.49891339 6.82836499,7.47351651 6.78797826,7.42978562 L6.55162887,7.17381855 C6.45041789,7.06421047 6.28389523,7.045812 6.16116862,7.1306678 C5.85780289,7.34041769 5.52351363,7.49291871 5.16757053,7.58394416 C5.0350398,7.61783123 4.94234292,7.73716343 4.94234292,7.87387197 L4.94234292,8.17868982 C4.94234292,8.30173303 4.84253253,8.40146966 4.71941892,8.40146966 L4.27147923,8.40146966 C4.1483564,8.40146966 4.04855522,8.30172382 4.04855522,8.17868982 L4.04855522,7.91916829 C4.04855522,7.77559025 3.94652416,7.65224317 3.80541482,7.62524401 C3.43559484,7.55446793 3.08513431,7.41811852 2.76374521,7.21996205 C2.6417834,7.14476591 2.48360899,7.16645179 2.3864247,7.27170429 L2.21201451,7.46058785 C2.12865183,7.55086742 1.98733977,7.55653982 1.89701099,7.47323105 L1.56779887,7.16963792 C1.52403968,7.12928652 1.49862635,7.07431212 1.49623062,7.01485321 C1.49384409,6.95539429 1.51476078,6.898569 1.5551475,6.85483811 L1.75731147,6.63589819 C1.85033084,6.53515783 1.862973,6.38413937 1.78798621,6.26935615 C1.58164813,5.95347895 1.43630016,5.60715864 1.35598744,5.23999042 C1.32635392,5.10452503 1.20749736,5.00714575 1.06877455,5.00466868 L0.81788484,5.00020259 C0.694983155,4.99802019 0.596776075,4.89632215 0.598889581,4.77349995 L0.606856631,4.33059229 C0.60788864,4.2727909 0.629312126,4.21652731 0.669569848,4.17500645 C0.713024968,4.13018896 0.771637773,4.10611809 0.833798116,4.1071218 L1.06482158,4.11123797 C1.20652985,4.11376109 1.33059255,4.01666727 1.36211502,3.87857747 C1.44996512,3.49371063 1.60885826,3.13333824 1.83437152,2.80746068 C1.91929144,2.68473977 1.90079813,2.51826035 1.79100855,2.41716086 L1.56789104,2.21167447 C1.47749776,2.12842094 1.47172954,1.98720948 1.55502774,1.89687467 L1.85859618,1.56768206 C1.89894604,1.52392354 1.95393759,1.49848061 2.01343498,1.49605879 C2.07292315,1.49364618 2.12980365,1.5145033 2.17359048,1.55483628 L2.48564539,1.84223176 C2.5820741,1.93103798 2.72510925,1.94682124 2.83859382,1.88116505 C3.13429316,1.71010904 3.4539131,1.58992965 3.78858014,1.52396037 C3.9289339,1.49629821 4.03009881,1.37330105 4.03009881,1.2303584 L4.03009878,0.821328598 C4.03009878,0.698294602 4.12990917,0.598548755 4.25302278,0.598548755 L4.70097168,0.598548755 C4.82408529,0.598548755 4.92389569,0.698294602 4.92389569,0.821328598 L4.92389569,1.26738554 C4.92389569,1.40472026 5.01743107,1.5244208 5.15074503,1.55771852 C5.46820878,1.63700321 5.77003571,1.76578327 6.04782226,1.94047664 C6.16228355,2.01245903 6.31081049,1.99883974 6.4102523,1.90726178 L6.82635622,1.52404324 C6.91674029,1.44078971 7.05805234,1.44654499 7.14135974,1.53688902 L7.44491897,1.86609083 C7.48527805,1.90984936 7.50615788,1.96669307 7.50373449,2.02614277 C7.50131111,2.08559247 7.47586093,2.14054845 7.43207409,2.18088144 L7.06494471,2.51899702 C6.9581498,2.61735239 6.93736211,2.77811338 7.01564766,2.90036466 C7.20392552,3.19441784 7.34006829,3.51527681 7.42031651,3.85403698 C7.4527512,3.99097572 7.57627025,4.08683561 7.71705709,4.0843217 L8.16618543,4.07632878 C8.22566439,4.07524218 8.28211181,4.09744373 8.32494955,4.13877122 C8.36779652,4.18008951 8.39197511,4.23561641 8.39304398,4.29510294 L8.40108682,4.74270691 C8.40213863,4.80483628 8.3778771,4.86354931 8.33292926,4.90699474 Z" id="形状"></path>
                            <path d="M4.49544447,3.22389407 C3.77650925,3.22389407 3.19160671,3.80841836 3.19160671,4.52688866 C3.19160671,5.24535896 3.77650924,5.82988325 4.49544447,5.82988325 C5.2143797,5.82988325 5.79928224,5.24535896 5.79928224,4.52688866 C5.79928224,3.80841836 5.21437969,3.22389407 4.49544447,3.22389407 Z M4.49544447,5.23133449 C4.1067626,5.23133449 3.79054279,4.91532838 3.79054279,4.52688866 C3.79054279,4.13845814 4.10676261,3.82244283 4.49544447,3.82244283 C4.88413556,3.82244283 5.20034616,4.13845815 5.20034616,4.52688866 C5.20034616,4.91532837 4.88412634,5.23133449 4.49544447,5.23133449 Z" id="形状"></path>
                        </g>
                        <path d="M2.5,6 L4.5,6 C4.77614237,6 5,6.22385763 5,6.5 C5,6.77614237 4.77614237,7 4.5,7 L2.5,7 C2.22385763,7 2,6.77614237 2,6.5 C2,6.22385763 2.22385763,6 2.5,6 Z M2.5,8 L4.5,8 C4.77614237,8 5,8.22385763 5,8.5 C5,8.77614237 4.77614237,9 4.5,9 L2.5,9 C2.22385763,9 2,8.77614237 2,8.5 C2,8.22385763 2.22385763,8 2.5,8 Z M2.5,4 L7.5,4 C7.77614237,4 8,4.22385763 8,4.5 C8,4.77614237 7.77614237,5 7.5,5 L2.5,5 C2.22385763,5 2,4.77614237 2,4.5 C2,4.22385763 2.22385763,4 2.5,4 Z" id="形状" fill="#2987FE"></path>
                    </g>
                </g>
            </g>
        </g>
    </g>
</svg>