<?xml version="1.0" encoding="UTF-8"?>
<svg width="16px" height="16px" viewBox="0 0 16 16" version="1.1" xmlns="http://www.w3.org/2000/svg" xmlns:xlink="http://www.w3.org/1999/xlink">
    <title>3</title>
    <g id="3" stroke="none" stroke-width="1" fill="none" fill-rule="evenodd">
        <polygon id="矩形" points="0 0 16 0 16 16 0 16"></polygon>
        <path d="M10.4603622,1 C10.7971653,1 11.1113433,1.1695423 11.2962266,1.45106399 L12.846782,3.8120933 C12.9470118,3.96471312 13.0871146,4.08697808 13.2518961,4.16562844 L14.4307503,4.7282966 C14.778546,4.89429979 15,5.24538627 15,5.63076776 L15,10.3691916 C15,10.7545941 14.7785221,11.1056958 14.4306979,11.2716878 L13.2519418,11.8342251 C13.0871313,11.9128775 12.9470048,12.0351586 12.8467635,12.1878032 L11.2962245,14.548918 C11.1113431,14.8304501 10.797159,15 10.4603484,15 L5.40825648,15 C5.06133379,15 4.7391981,14.8201928 4.55709629,14.524906 L3.14938987,12.2422428 C3.0517356,12.0838917 2.91184379,11.9559219 2.74544327,11.8727216 L1.5527864,11.2763932 C1.21400238,11.1070012 1,10.7607381 1,10.381966 L1,5.61803399 C1,5.23926193 1.21400238,4.89299881 1.5527864,4.7236068 L2.74544327,4.12727836 C2.91184379,4.0440781 3.0517356,3.91610826 3.14938987,3.75775719 L4.55709629,1.47509398 C4.7391981,1.1798072 5.06133379,1 5.40825648,1 L10.4603622,1 Z M7.5,2 L5.40825648,2 L4.00055006,4.28266322 C3.83779294,4.54658166 3.61637258,4.76830396 3.35449363,4.93117692 L3.19265687,5.02170555 L2,5.61803399 L2,7.5 L2.63385712,7.4998705 C2.78834779,7.23289446 3.06273149,7.04397042 3.38337887,7.00672773 L3.5,7 C4.05228475,7 4.5,7.44771525 4.5,8 C4.5,8.55228475 4.05228475,9 3.5,9 C3.13031897,9 2.80749049,8.79940038 2.63442774,8.5011143 L2,8.5 L2,10.381966 L3.19265687,10.9782944 C3.46999107,11.1169615 3.71050761,11.3178086 3.89600183,11.5641825 L4.00055006,11.7173368 L5.40825648,14 L7.5,14 L7.5,2 Z M13.3655723,8.5011143 C13.1925095,8.79940038 12.869681,9 12.5,9 C11.9477153,9 11.5,8.55228475 11.5,8 C11.5,7.44771525 11.9477153,7 12.5,7 C12.8700877,7 13.1932197,7.20104123 13.3661429,7.4998705 L14,7.5 L14,5.63076776 L12.8211458,5.0680996 C12.54651,4.93701567 12.3061501,4.74535589 12.1176522,4.50846721 L12.0109176,4.36102931 L10.4603622,2 L8.5,2 L8.5,14 L10.4603484,14 L12.0108873,11.6388852 C12.1779562,11.3844775 12.4004212,11.1722414 12.6606882,11.0175299 L12.8212439,10.9317289 L14,10.3691916 L14,8.5 Z M5.79772325,4.09819443 L5.86502478,4.1583029 L6.9999983,5.37076292 L6.9999983,6.72598149 L6.002,7.726 L6.002,8.317 L6.96507889,9.31122765 L7.00604488,10.7203294 L5.85666497,11.8727562 C5.66166146,12.0682766 5.34507925,12.0686957 5.1495588,11.8736922 C4.97576286,11.7003557 4.95612109,11.4309571 5.09085907,11.2359104 L5.14862281,11.166586 L5.994,10.318 L5.977,9.728 L5.00264389,8.72207431 L5.00264389,7.31300412 L5.9999983,6.311 L5.9999983,5.766 L5.13497522,4.8416971 C4.96722936,4.66249922 4.9568431,4.39258525 5.09819443,4.20227675 L5.1583029,4.13497522 C5.33750078,3.96722936 5.60741475,3.9568431 5.79772325,4.09819443 Z M10.2083199,4.09819443 C10.3986284,3.9568431 10.6685424,3.96722936 10.8477403,4.13497522 L10.8477403,4.13497522 L10.9078487,4.20227675 C11.0492001,4.39258525 11.0388138,4.66249922 10.871068,4.8416971 L10.871068,4.8416971 L10.0060449,5.766 L10.0060449,6.311 L11.0033993,7.31300412 L11.0033993,8.72207431 L10.0290432,9.728 L10.0120432,10.318 L10.8574204,11.166586 L10.9151841,11.2359104 C11.0499221,11.4309571 11.0302803,11.7003557 10.8564844,11.8736922 C10.6609639,12.0686957 10.3443817,12.0682766 10.1493782,11.8727562 L10.1493782,11.8727562 L8.9999983,10.7203294 L9.04096428,9.31122765 L10.0040432,8.317 L10.0040432,7.726 L9.00604488,6.72598149 L9.00604488,5.37076292 L10.1410184,4.1583029 Z" id="形状结合" fill="#2987FE" fill-rule="nonzero"></path>
    </g>
</svg>