<?xml version="1.0" encoding="UTF-8"?>
<svg width="20px" height="20px" viewBox="0 0 20 20" version="1.1" xmlns="http://www.w3.org/2000/svg" xmlns:xlink="http://www.w3.org/1999/xlink">
    <title>附件1</title>
    <g id="页面-1" stroke="none" stroke-width="1" fill="none" fill-rule="evenodd">
        <g id="输入框" transform="translate(-1137, -1650)">
            <g id="编组-8" transform="translate(357, 1638)">
                <g id="附件1" transform="translate(780, 12)">
                    <path d="M10.0184817,4.74238037 C10.1675241,5.24912456 10.6444598,5.57701787 11.151204,5.57701787 L15.9801782,5.57701787 C15.9801782,4.92123126 15.4436255,4.38467858 14.7878389,4.38467858 L9.89924779,4.38467858 L10.0184817,4.74238037 L10.0184817,4.74238037 Z M9.54154601,3.19233929 L14.7878389,3.19233929 C16.0994121,3.19233929 17.1725175,4.26544465 17.1725175,5.57701787 L17.1725175,6.05395358 C17.7388786,6.50108082 18.1263889,7.18667591 18.1263889,7.96169645 L18.1263889,15.1157322 C18.1263889,16.4273054 17.0532835,17.5004108 15.7417103,17.5004108 L4.38467858,17.5004108 C3.07310536,17.5004108 2,16.4273054 2,15.1157322 L2,4.38467858 C2,3.07310536 3.07310536,2 4.38467858,2 L7.45495225,2 C8.31939823,2 9.12422725,2.47693572 9.54154601,3.19233929 Z M7.45495225,3.19233929 L4.38467858,3.19233929 C3.72889197,3.19233929 3.19233929,3.72889197 3.19233929,4.38467858 L3.19233929,15.1157322 C3.19233929,15.7715188 3.72889197,16.3080715 4.38467858,16.3080715 L15.7119018,16.3080715 C16.3676884,16.3080715 16.9042411,15.7715188 16.9042411,15.1157322 L16.9042411,7.96169645 C16.9042411,7.30590984 16.3676884,6.76935716 15.7119018,6.76935716 L11.210821,6.76935716 C10.1675241,6.76935716 9.24346118,6.08376207 8.94537636,5.10008215 L8.58767457,4.02697679 C8.43863216,3.52023259 7.99150493,3.19233929 7.45495225,3.19233929 Z M5.57701787,13.3272232 L10.346375,13.3272232 C10.6742683,13.3272232 10.9425447,13.5954996 10.9425447,13.9233929 C10.9425447,14.2512862 10.6742683,14.5195625 10.346375,14.5195625 L5.57701787,14.5195625 C5.24912456,14.5195625 4.98084822,14.2512862 4.98084822,13.9233929 C4.98084822,13.5954996 5.24912456,13.3272232 5.57701787,13.3272232 Z" id="形状" fill="#8A98B6" fill-rule="nonzero"></path>
                    <rect id="矩形" x="0" y="0" width="20" height="20"></rect>
                </g>
            </g>
        </g>
    </g>
</svg>