<?xml version="1.0" encoding="UTF-8"?>
<svg width="16px" height="16px" viewBox="0 0 16 16" version="1.1" xmlns="http://www.w3.org/2000/svg" xmlns:xlink="http://www.w3.org/1999/xlink">
    <title>复制</title>
    <g id="页面-1" stroke="none" stroke-width="1" fill="none" fill-rule="evenodd">
        <g id="对话气泡" transform="translate(-514, -2313)">
            <g id="编组-3" transform="translate(322, 2130)">
                <g id="编组-8" transform="translate(80, 122)">
                    <g id="相关操作" transform="translate(16, 60)">
                        <g id="复制" transform="translate(96, 0)">
                            <g id="复制" transform="translate(0, 1)">
                                <g id="编组" transform="translate(0.0886, 0.5)" fill="#8791AB" fill-rule="nonzero">
                                    <path d="M14.1186222,0 C15.038018,0 15.7984286,0.71288488 15.7984286,1.61226939 L15.7984286,10.3920802 C15.7984286,11.2914647 15.038018,12.0043496 14.1186222,12.0043496 L12.724,12.004 L12.7247444,13.2736592 C12.7247444,14.1730437 11.9643338,14.8859286 11.044938,14.8859286 L1.67980639,14.8859286 C0.760410539,14.8859286 0,14.1730437 0,13.2736592 L0,4.49384833 C0,3.59446383 0.760410539,2.88157895 1.67980639,2.88157895 L3.073,2.881 L3.07368421,1.61226939 C3.07368421,0.71288488 3.83409475,0 4.7534906,0 L14.1186222,0 Z M11.044938,4.08000752 L1.67980639,4.08000752 C1.40561382,4.08000752 1.19842857,4.27424369 1.19842857,4.49384833 L1.19842857,13.2736592 C1.19842857,13.4932638 1.40561382,13.6875 1.67980639,13.6875 L11.044938,13.6875 C11.3191305,13.6875 11.5263158,13.4932638 11.5263158,13.2736592 L11.5263158,4.49384833 C11.5263158,4.27424369 11.3191305,4.08000752 11.044938,4.08000752 Z M14.1186222,1.19842857 L4.7534906,1.19842857 C4.47929804,1.19842857 4.27211278,1.39266475 4.27211278,1.61226939 L4.272,2.881 L11.044938,2.88157895 C11.9643338,2.88157895 12.7247444,3.59446383 12.7247444,4.49384833 L12.724,10.805 L14.1186222,10.8059211 C14.3928147,10.8059211 14.6,10.6116849 14.6,10.3920802 L14.6,1.61226939 C14.6,1.39266475 14.3928147,1.19842857 14.1186222,1.19842857 Z" id="形状结合"></path>
                                </g>
                                <rect id="矩形" x="0" y="0" width="16" height="16"></rect>
                            </g>
                        </g>
                    </g>
                </g>
            </g>
        </g>
    </g>
</svg>