<?xml version="1.0" encoding="UTF-8"?>
<svg width="20px" height="20px" viewBox="0 0 20 20" version="1.1" xmlns="http://www.w3.org/2000/svg" xmlns:xlink="http://www.w3.org/1999/xlink">
    <title>编组 2</title>
    <g id="页面-1" stroke="none" stroke-width="1" fill="none" fill-rule="evenodd">
        <g id="快捷指令" transform="translate(-381, -690)">
            <g id="编组-7" transform="translate(321, 609)">
                <g id="编组-2" transform="translate(60, 81)">
                    <rect id="矩形" fill="#E6F1FF" x="0" y="0" width="20" height="20" rx="2"></rect>
                    <g id="填报" transform="translate(3.6364, 2.7273)" fill="#2A87FF" fill-rule="nonzero">
                        <path d="M8.59318474,2.58821692 L2.83246162,2.58821692 C2.55126831,2.58821692 2.32322643,2.82075077 2.32322643,3.10748301 C2.32322643,3.39421525 2.55126831,3.6267491 2.83246162,3.6267491 L8.59318474,3.6267491 C8.87437804,3.6267491 9.10241993,3.39421525 9.10241993,3.10748301 C9.10241993,2.82075077 8.87437804,2.58821692 8.59318474,2.58821692 Z M7.0298327,5.46446425 L2.83246162,5.46446425 C2.55126831,5.46446425 2.32322643,5.69699809 2.32322643,5.98373034 C2.32322643,6.27046258 2.55126831,6.50299643 2.83246162,6.50299643 L7.0298327,6.50299643 C7.311026,6.50299643 7.53906789,6.27046258 7.53906789,5.98373034 C7.53906789,5.69699809 7.311026,5.46446425 7.0298327,5.46446425 Z M4.2766208,8.34071158 L2.83246162,8.34071158 C2.55126831,8.34071158 2.32322643,8.57324542 2.32322643,8.85997767 C2.32322643,9.14670991 2.55126831,9.37924376 2.83246162,9.37924376 L4.2766208,9.37924376 C4.55781411,9.37924376 4.78585599,9.14670991 4.78585599,8.85997767 C4.78585599,8.57324542 4.55781411,8.34071158 4.2766208,8.34071158 Z M4.93958137,14.5394505 L1.78232317,14.5394505 C0.799499252,14.5394505 0,13.7242028 0,12.7220192 L0,1.81743132 C0,0.815247762 0.799499252,0 1.78232317,0 L9.64332318,0 C10.6261471,0 11.4256464,0.815247762 11.4256464,1.81743132 L11.4256464,5.74778881 C11.4256464,6.03452105 11.1976045,6.2670549 10.9164112,6.2670549 C10.6352179,6.2670549 10.407176,6.03452105 10.407176,5.74778881 L10.407176,1.81743132 C10.407176,1.3879009 10.0645562,1.03853218 9.64332318,1.03853218 L1.78232317,1.03853218 C1.36109019,1.03853218 1.01847038,1.3879009 1.01847038,1.81743132 L1.01847038,12.7220192 C1.01847038,13.1515496 1.36109019,13.5009184 1.78232317,13.5009184 L4.93958137,13.5009184 C5.22077467,13.5009184 5.44881656,13.7334522 5.44881656,14.0201844 C5.44881656,14.3069167 5.22077467,14.5394505 4.93958137,14.5394505 Z M11.7556944,7.54428721 C11.8037535,7.54428721 11.8740916,7.55743113 11.9356772,7.62039215 L12.5432585,8.2399415 C12.6048441,8.30274024 12.6178933,8.37446387 12.6178933,8.42346961 C12.6178933,8.47247535 12.6050032,8.54419898 12.5432585,8.60699772 L7.92035774,13.3211225 L6.85144124,13.4243266 L6.95265174,12.3343546 L11.5757116,7.62022988 C11.6372972,7.55743113 11.7076353,7.54428721 11.7556944,7.54428721 M11.7556944,6.50575503 C11.429943,6.50575503 11.1040325,6.63248841 10.8554621,6.88595517 L6.04939581,11.7868534 C5.98399092,11.8535467 5.95025409,11.9458787 5.9569378,12.0398334 L5.75212977,14.2452538 C5.76358756,14.4059018 5.88882759,14.5337711 6.04653137,14.5454545 L8.20934871,14.3366122 C8.21714637,14.3372613 8.2247849,14.3374236 8.23242343,14.3374236 C8.31644724,14.3374236 8.39760659,14.303509 8.45744173,14.242333 L13.263508,9.3414347 C13.7606489,8.83450117 13.7606489,8.01260032 13.263508,7.50550452 L12.6559268,6.88595517 C12.4073563,6.63248841 12.0814458,6.50575503 11.7556944,6.50575503 Z M10.5516715,7.65479353 L9.83142193,8.38906823 L11.8569049,10.4544491 L12.5771544,9.7201744 L10.5516715,7.65479353 Z" id="形状"></path>
                    </g>
                </g>
            </g>
        </g>
    </g>
</svg>