<?xml version="1.0" encoding="UTF-8"?>
<svg width="18px" height="18px" viewBox="0 0 18 18" version="1.1" xmlns="http://www.w3.org/2000/svg" xmlns:xlink="http://www.w3.org/1999/xlink">
    <title>编组 7</title>
    <defs>
        <linearGradient x1="50%" y1="0%" x2="50%" y2="100%" id="linearGradient-1">
            <stop stop-color="#0D7FE6" offset="0%"></stop>
            <stop stop-color="#1EBBC6" offset="58.0673923%"></stop>
            <stop stop-color="#2AE7AF" offset="100%"></stop>
        </linearGradient>
        <path d="M7.55915932,0 L13.7556941,3.41136535 L13.7556941,11.284674 L13.3483936,11.690778 L7.386,8.406 L7.38699821,14.9818613 L6.43606745,14.9818613 L0.817648054,11.8789694 L0,10.332184 L0,3.84230019 L1.11160458,3.1505903 L6.167,6.164 L6.16702601,0.0484363034 L7.55915932,0 Z M6.22734637,8.44496623 L1.7439756,11.0288454 L6.22734637,13.5008368 L6.22734637,8.44496623 Z M12.540835,4.77769015 L8.0314841,7.40118228 L12.540835,9.89639007 L12.540835,4.77769015 Z M1.21847977,4.6422718 L1.21847977,9.89639007 L5.74466316,7.33704011 L1.21847977,4.6422718 Z M7.38699821,1.29872452 L7.38699821,6.38587585 L11.9618229,3.74647178 L7.38699821,1.29872452 Z" id="path-2"></path>
        <linearGradient x1="81.0966666%" y1="38.5584607%" x2="28.8545509%" y2="61.9626707%" id="linearGradient-4">
            <stop stop-color="#FFFFFF" offset="0%"></stop>
            <stop stop-color="#FFFFFF" stop-opacity="0" offset="100%"></stop>
        </linearGradient>
        <filter x="0.0%" y="0.0%" width="100.0%" height="100.0%" filterUnits="objectBoundingBox" id="filter-5">
            <feGaussianBlur stdDeviation="0" in="SourceGraphic"></feGaussianBlur>
        </filter>
        <linearGradient x1="44.8152906%" y1="77.6521765%" x2="44.8152906%" y2="3.26462903%" id="linearGradient-6">
            <stop stop-color="#FFFFFF" offset="0%"></stop>
            <stop stop-color="#FFFFFF" stop-opacity="0" offset="100%"></stop>
        </linearGradient>
        <filter x="0.0%" y="0.0%" width="100.0%" height="100.0%" filterUnits="objectBoundingBox" id="filter-7">
            <feGaussianBlur stdDeviation="0" in="SourceGraphic"></feGaussianBlur>
        </filter>
        <linearGradient x1="3.93796935%" y1="32.607826%" x2="78.9687461%" y2="60.0462823%" id="linearGradient-8">
            <stop stop-color="#FFFFFF" offset="0%"></stop>
            <stop stop-color="#FFFFFF" stop-opacity="0" offset="100%"></stop>
        </linearGradient>
        <filter x="0.0%" y="0.0%" width="100.0%" height="100.0%" filterUnits="objectBoundingBox" id="filter-9">
            <feGaussianBlur stdDeviation="0" in="SourceGraphic"></feGaussianBlur>
        </filter>
        <linearGradient x1="56.0769337%" y1="45.0797149%" x2="24.9463054%" y2="71.1433818%" id="linearGradient-10">
            <stop stop-color="#159BD7" offset="0%"></stop>
            <stop stop-color="#FFFFFF" stop-opacity="0" offset="100%"></stop>
        </linearGradient>
        <linearGradient x1="10.434388%" y1="68.063656%" x2="86.6988821%" y2="30.8651063%" id="linearGradient-11">
            <stop stop-color="#21C6C1" offset="0%"></stop>
            <stop stop-color="#FFFFFF" stop-opacity="0" offset="100%"></stop>
        </linearGradient>
        <linearGradient x1="50%" y1="0%" x2="50%" y2="100%" id="linearGradient-12">
            <stop stop-color="#0D7FE6" offset="0%"></stop>
            <stop stop-color="#2AE7AF" offset="100%"></stop>
        </linearGradient>
    </defs>
    <g id="页面-1" stroke="none" stroke-width="1" fill="none" fill-rule="evenodd">
        <g id="输入框" transform="translate(-383, -2915)">
            <g id="编组-3" transform="translate(353, 2900)">
                <g id="编组-12" transform="translate(16, 0)">
                    <g id="编组-7" transform="translate(14, 15)">
                        <rect id="矩形" x="0" y="0" width="18" height="18"></rect>
                        <g id="编组-35" transform="translate(0.2571, 0.2571)">
                            <rect id="矩形" x="0" y="0" width="17.4857143" height="17.4857143"></rect>
                            <g id="编组-19备份-17" transform="translate(1.0286, 0.5143)">
                                <path d="M8.37444647,0.834547606 L14.5709813,4.24591296 L14.5709813,12.1192216 L14.1636807,12.5253256 L8.20128715,9.24054761 L8.20228536,15.8164089 L7.25135461,15.8164089 L1.63293521,12.713517 L0.815287151,11.1667316 L0.815287151,4.67684779 L1.92689173,3.98513791 L6.98228715,6.99854761 L6.98231316,0.882983909 L8.37444647,0.834547606 Z M7.04263352,9.27951383 L2.55926275,11.8633931 L7.04263352,14.3353844 L7.04263352,9.27951383 Z M13.3561221,5.61223775 L8.84677126,8.23572989 L13.3561221,10.7309377 L13.3561221,5.61223775 Z M2.03376692,5.47681941 L2.03376692,10.7309377 L6.55995031,8.17158771 L2.03376692,5.47681941 Z M8.20228536,2.13327213 L8.20228536,7.22042346 L12.77711,4.58101939 L8.20228536,2.13327213 Z" id="形状结合" fill="url(#linearGradient-1)"></path>
                                <g id="路径-2-+-路径-3-+-路径-4蒙版" transform="translate(0.8153, 0.8345)">
                                    <mask id="mask-3" fill="white">
                                        <use xlink:href="#path-2"></use>
                                    </mask>
                                    <use id="蒙版" fill="url(#linearGradient-1)" xlink:href="#path-2"></use>
                                    <polygon id="路径-2" fill="url(#linearGradient-4)" filter="url(#filter-5)" mask="url(#mask-3)" points="4.25315881 6.97898081 6.77390576 6.97898081 7.02656062 8.27871177 2.85827337 11.0934106 1.11764364 8.72438079"></polygon>
                                    <polygon id="路径-3" fill="url(#linearGradient-6)" filter="url(#filter-7)" mask="url(#mask-3)" points="7.02656062 6.72375166 8.13485635 4.53274022 8.34127598 1.90699543 5.4451985 1.76583085 5.65253089 5.06118714 6.77390576 6.72375166"></polygon>
                                    <polygon id="路径-4" fill="url(#linearGradient-8)" filter="url(#filter-9)" mask="url(#mask-3)" points="10.0650382 7.40118228 7.32091739 7.49951705 7.32091739 8.25868082 8.54200343 10.0061721 10.9306691 10.9000701 12.5091187 8.51626021"></polygon>
                                </g>
                                <path d="M8.37444647,0.834547606 L14.5709813,4.24591296 L14.5709813,12.1192216 L14.1636807,12.5253256 L6.98231316,8.56885311 L6.98231316,0.882983909 L8.37444647,0.834547606 Z M8.20228536,2.13327213 L8.20228536,7.22042346 L8.49131316,7.05254761 L8.49185956,7.71336245 L9.03131316,8.12754761 L8.84677126,8.23572989 L13.3561221,10.7309377 L13.3553132,5.61654761 L13.6305018,5.15381301 L12.77711,4.58101939 L8.20228536,2.13327213 Z" id="形状结合" fill="url(#linearGradient-10)" fill-rule="nonzero"></path>
                                <polygon id="路径" fill="url(#linearGradient-11)" fill-rule="nonzero" points="6.7778308 8.05322127 7.08945008 9.24101764 2.55926275 11.8633931 2.19155022 10.6380421"></polygon>
                                <g id="编组-21" fill="url(#linearGradient-12)">
                                    <path d="M7.62936495,9.94195975 C8.65711289,9.94195975 9.49026721,9.10880543 9.49026721,8.08105749 C9.49026721,7.05330955 8.65711289,6.22015523 7.62936495,6.22015523 C6.60161701,6.22015523 5.7684627,7.05330955 5.7684627,8.08105749 C5.7684627,9.10880543 6.60161701,9.94195975 7.62936495,9.94195975 Z M13.9785177,6.03107309 C14.7793603,6.03107309 15.4285714,5.38186193 15.4285714,4.58101939 C15.4285714,3.78017684 14.7793603,3.13096568 13.9785177,3.13096568 C13.1776752,3.13096568 12.528464,3.78017684 12.528464,4.58101939 C12.528464,5.38186193 13.1776752,6.03107309 13.9785177,6.03107309 Z M7.62936495,16.4714598 C8.4302075,16.4714598 9.07941866,15.8222486 9.07941866,15.0214061 C9.07941866,14.2205635 8.4302075,13.5713524 7.62936495,13.5713524 C6.8285224,13.5713524 6.17931125,14.2205635 6.17931125,15.0214061 C6.17931125,15.8222486 6.8285224,16.4714598 7.62936495,16.4714598 Z M1.45005371,13.0387617 C2.25089625,13.0387617 2.90010741,12.3895505 2.90010741,11.588708 C2.90010741,10.7878654 2.25089625,10.1386543 1.45005371,10.1386543 C0.649211158,10.1386543 0,10.7878654 0,11.588708 C0,12.3895505 0.649211158,13.0387617 1.45005371,13.0387617 Z M7.62936495,2.51342642 C8.32342849,2.51342642 8.88607816,1.95077675 8.88607816,1.25671321 C8.88607816,0.56264967 8.32342849,0 7.62936495,0 C6.93530141,0 6.37265174,0.56264967 6.37265174,1.25671321 C6.37265174,1.95077675 6.93530141,2.51342642 7.62936495,2.51342642 Z M13.9785177,12.9913309 C14.6725813,12.9913309 15.2352309,12.4286812 15.2352309,11.7346177 C15.2352309,11.0405541 14.6725813,10.4779045 13.9785177,10.4779045 C13.2844542,10.4779045 12.7218045,11.0405541 12.7218045,11.7346177 C12.7218045,12.4286812 13.2844542,12.9913309 13.9785177,12.9913309 Z M1.45005371,5.50262617 C2.14411725,5.50262617 2.70676692,4.9399765 2.70676692,4.24591296 C2.70676692,3.55184942 2.14411725,2.98919975 1.45005371,2.98919975 C0.755990164,2.98919975 0.193340494,3.55184942 0.193340494,4.24591296 C0.193340494,4.9399765 0.755990164,5.50262617 1.45005371,5.50262617 Z" id="形状结合"></path>
                                </g>
                            </g>
                        </g>
                    </g>
                </g>
            </g>
        </g>
    </g>
</svg>