<?xml version="1.0" encoding="UTF-8"?>
<svg width="16px" height="16px" viewBox="0 0 16 16" version="1.1" xmlns="http://www.w3.org/2000/svg" xmlns:xlink="http://www.w3.org/1999/xlink">
    <title>集成平台</title>
    <g id="页面-1" stroke="none" stroke-width="1" fill="none" fill-rule="evenodd">
        <g id="关键应用图标（定稿）" transform="translate(-44.000000, -151.000000)">
            <g id="集成平台" transform="translate(43.997166, 149.000000)">
                <g transform="translate(0.000000, 2.000000)">
                    <polygon id="矩形" points="0.00283409398 0 16.0028341 0 16.0028341 16 0.00283409398 16"></polygon>
                    <g id="编组备份" transform="translate(0.000000, 0.440175)" fill="#2987FE">
                        <polygon id="矩形备份" points="5.28964714 2.15301944 7.49880454 5.44273456 7.33504402 5.5536816 5.12588661 2.26396649"></polygon>
                        <polygon id="矩形" transform="translate(6.731621, 4.308237) rotate(-37.000000) translate(-6.731621, -4.308237) " points="6.46235614 1.07705936 7.00088581 1.07705936 7.00088581 7.53941549 6.46235614 7.53941549"></polygon>
                        <polygon id="矩形备份-4" transform="translate(5.680963, 8.190211) rotate(-90.000000) translate(-5.680963, -8.190211) " points="5.41169863 4.95903294 5.9502283 4.95903294 5.9502283 11.4213891 5.41169863 11.4213891"></polygon>
                        <polygon id="矩形备份-2" transform="translate(11.265761, 4.925224) rotate(42.000000) translate(-11.265761, -4.925224) " points="10.9964959 1.69404637 11.5350256 1.69404637 11.5350256 8.15640251 10.9964959 8.15640251"></polygon>
                        <polygon id="矩形备份-5" transform="translate(11.265761, 9.233462) rotate(134.000000) translate(-11.265761, -9.233462) " points="10.9964959 6.0022838 11.5350256 6.0022838 11.5350256 12.4646399 10.9964959 12.4646399"></polygon>
                        <polygon id="矩形备份-3" transform="translate(7.376194, 10.937842) rotate(33.000000) translate(-7.376194, -10.937842) " points="7.10692956 7.70666356 7.64545924 7.70666356 7.64545924 14.1690197 7.10692956 14.1690197"></polygon>
                        <polygon id="矩形备份-92" transform="translate(7.579306, 10.718473) rotate(-59.000000) translate(-7.579306, -10.718473) " points="5.42769208 10.5673455 9.73342428 10.6712252 9.73091905 10.8696007 5.42518686 10.765721"></polygon>
                        <polygon id="矩形备份-93" points="10.748745 5.16023157 13.5905813 2.40374837 13.7277977 2.54646947 10.8859615 5.30295267"></polygon>
                        <polygon id="矩形备份-94" transform="translate(12.238271, 10.315707) scale(1, -1) translate(-12.238271, -10.315707) " points="10.748745 11.6225877 13.5905813 8.86610451 13.7277977 9.0088256 10.8859615 11.7653088"></polygon>
                        <path d="M8.88888889,4.46811342 C9.5687655,4.46811342 10.1841775,4.74507795 10.6296864,5.19255992 C11.0759932,5.64084332 11.3518519,6.26019286 11.3518519,6.94419848 C11.3518519,7.62820409 11.0759932,8.24755364 10.6296864,8.69583704 C10.1841775,9.14331901 9.5687655,9.42028354 8.88888889,9.42028354 C8.20901228,9.42028354 7.59360031,9.14331901 7.14809137,8.69583704 C6.70178454,8.24755364 6.42592593,7.62820409 6.42592593,6.94419848 C6.42592593,6.26019286 6.70178454,5.64084332 7.14809137,5.19255992 C7.59360031,4.74507795 8.20901228,4.46811342 8.88888889,4.46811342 Z" id="椭圆形备份" stroke="#2987FE"></path>
                        <path d="M4.54320988,0.5 C4.84125999,0.5 5.11099295,0.621513358 5.3062795,0.817664771 C5.50236395,1.01461762 5.62345679,1.28675724 5.62345679,1.58724537 C5.62345679,1.88773349 5.50236395,2.15987311 5.3062795,2.35682596 C5.11099295,2.55297738 4.84125999,2.67449073 4.54320988,2.67449073 C4.24515976,2.67449073 3.9754268,2.55297738 3.78014026,2.35682596 C3.58405581,2.15987311 3.46296296,1.88773349 3.46296296,1.58724537 C3.46296296,1.28675724 3.58405581,1.01461762 3.78014026,0.817664771 C3.9754268,0.621513358 4.24515976,0.5 4.54320988,0.5 Z" id="椭圆形备份-26" stroke="#2987FE"></path>
                        <path d="M1.58024691,6.9906998 C1.87829703,6.9906998 2.14802999,7.11221316 2.34331653,7.30836457 C2.53940098,7.50531742 2.66049383,7.77745705 2.66049383,8.07794517 C2.66049383,8.37843329 2.53940098,8.65057292 2.34331653,8.84752577 C2.14802999,9.04367718 1.87829703,9.16519054 1.58024691,9.16519054 C1.2821968,9.16519054 1.01246384,9.04367718 0.817177293,8.84752577 C0.621092845,8.65057292 0.5,8.37843329 0.5,8.07794517 C0.5,7.77745705 0.621092845,7.50531742 0.817177293,7.30836457 C1.01246384,7.11221316 1.2821968,6.9906998 1.58024691,6.9906998 Z" id="椭圆形备份-27" stroke="#2987FE"></path>
                        <path d="M5.97998884,12.4043403 C6.27803895,12.4043403 6.54777191,12.5258536 6.74305846,12.722005 C6.93914291,12.9189579 7.06023575,13.1910975 7.06023575,13.4915856 C7.06023575,13.7920737 6.93914291,14.0642134 6.74305846,14.2611662 C6.54777191,14.4573176 6.27803895,14.578831 5.97998884,14.578831 C5.68193873,14.578831 5.41220577,14.4573176 5.21691922,14.2611662 C5.02083477,14.0642134 4.89974193,13.7920737 4.89974193,13.4915856 C4.89974193,13.1910975 5.02083477,12.9189579 5.21691922,12.722005 C5.41220577,12.5258536 5.68193873,12.4043403 5.97998884,12.4043403 Z" id="椭圆形备份-28" stroke="#2987FE"></path>
                        <path d="M14.4197531,11.4123119 C14.7178032,11.4123119 14.9875362,11.5338253 15.1828227,11.7299767 C15.3789072,11.9269295 15.5,12.1990691 15.5,12.4995573 C15.5,12.8000454 15.3789072,13.072185 15.1828227,13.2691379 C14.9875362,13.4652893 14.7178032,13.5868026 14.4197531,13.5868026 C14.121703,13.5868026 13.85197,13.4652893 13.6566835,13.2691379 C13.460599,13.072185 13.3395062,12.8000454 13.3395062,12.4995573 C13.3395062,12.1990691 13.460599,11.9269295 13.6566835,11.7299767 C13.85197,11.5338253 14.121703,11.4123119 14.4197531,11.4123119 Z" id="椭圆形备份-29" stroke="#2987FE"></path>
                        <path d="M14.4197531,0.5 C14.7178032,0.5 14.9875362,0.621513358 15.1828227,0.817664771 C15.3789072,1.01461762 15.5,1.28675724 15.5,1.58724537 C15.5,1.88773349 15.3789072,2.15987311 15.1828227,2.35682596 C14.9875362,2.55297738 14.7178032,2.67449073 14.4197531,2.67449073 C14.121703,2.67449073 13.85197,2.55297738 13.6566835,2.35682596 C13.460599,2.15987311 13.3395062,1.88773349 13.3395062,1.58724537 C13.3395062,1.28675724 13.460599,1.01461762 13.6566835,0.817664771 C13.85197,0.621513358 14.121703,0.5 14.4197531,0.5 Z" id="椭圆形备份-30" stroke="#2987FE"></path>
                    </g>
                </g>
            </g>
        </g>
    </g>
</svg>