<?xml version="1.0" encoding="UTF-8"?>
<svg width="20px" height="20px" viewBox="0 0 20 20" version="1.1" xmlns="http://www.w3.org/2000/svg" xmlns:xlink="http://www.w3.org/1999/xlink">
    <title>任务池</title>
    <g id="页面-1" stroke="none" stroke-width="1" fill="none" fill-rule="evenodd">
        <g id="快捷指令" transform="translate(-381, -762)">
            <g id="编组-7" transform="translate(321, 609)">
                <g id="编组-11" transform="translate(60, 153)">
                    <rect id="矩形" fill="#E6F1FF" x="0" y="0" width="20" height="20" rx="2"></rect>
                    <g id="月亮星星" transform="translate(2.7273, 2.7273)">
                        <rect id="矩形" x="0" y="0" width="14.5454545" height="14.5454545"></rect>
                        <g id="编组-9" transform="translate(0.4609, 0)">
                            <path d="M3.16079146,11.3277791 C3.30456118,11.640483 3.53201776,11.9025693 3.81419266,12.0825428 L3.86676517,12.1151629 C3.88394919,12.1249461 3.89031487,12.1474815 3.88098335,12.165497 C3.87771762,12.1718019 3.87277905,12.1769796 3.86676517,12.1804033 L3.81419266,12.2130235 C3.53201776,12.3941218 3.30456118,12.6562081 3.16079146,12.9677872 L3.1275313,13.0454007 C3.1146564,13.0768961 3.07174006,13.0768961 3.05886516,13.0454007 L3.025605,12.9677872 C2.88183528,12.6550833 2.6543787,12.392997 2.3722038,12.2130235 L2.31963129,12.1804033 C2.30244727,12.1706202 2.29608159,12.1480848 2.30541311,12.1300693 C2.30867884,12.1237643 2.31361741,12.1185867 2.31963129,12.1151629 L2.3722038,12.0825428 C2.6543787,11.9014445 2.88183528,11.6393581 3.025605,11.3277791 L3.05886516,11.2501655 C3.07174006,11.2186702 3.11358349,11.2186702 3.1275313,11.2501655 L3.16079146,11.3277791 Z" id="路径" fill="#2A87FF" fill-rule="nonzero"></path>
                            <path d="M11.1821769,0.0371195249 C11.2036351,-0.012373175 11.2701554,-0.012373175 11.2916136,0.0371195249 L11.345259,0.15972644 C11.5748614,0.656903107 11.9353586,1.07421655 12.3849072,1.36217408 L12.4685941,1.41391645 C12.5072188,1.43641313 12.5072188,1.4949045 12.4685941,1.51852602 L12.3849072,1.57026839 C11.9353586,1.85822591 11.5737885,2.27553936 11.345259,2.77271602 C11.3270196,2.81321005 11.3087801,2.85482891 11.2916136,2.89532294 C11.2701554,2.94481564 11.2036351,2.94481564 11.1821769,2.89532294 L11.1285315,2.77271602 C10.8989291,2.27553936 10.5384319,1.85822591 10.0888833,1.57026839 L10.0051964,1.51852602 C9.96657174,1.49602934 9.96657174,1.43753796 10.0051964,1.41391645 L10.0888833,1.36217408 C10.5384319,1.07421655 10.900002,0.656903107 11.1285315,0.15972644 L11.1821769,0.0371195249 Z" id="路径" fill="#2A87FF" fill-rule="nonzero"></path>
                            <g id="沟通_communication" transform="translate(0, 1.2169)" stroke="#2A87FF">
                                <polygon id="路径" stroke-linecap="round" stroke-linejoin="round" points="9.86114012 11.0714238 5.80622027 11.0714238 5.80622027 7.01387316 7.97988759 7.01387316 7.97988759 4.63547462 13.6105421 4.63547462 13.6105421 11.0714238 12.0429583 11.0714238 12.0429583 12.8633462"></polygon>
                                <path d="M10.4043325,9.34005542 L10.4043325,7.33184514 L10.4043325,7.33184514 C10.4043325,7.0859633 10.1997808,6.88476476 9.9497844,6.88476476 L9.72251036,6.88476476 C9.47251395,6.88476476 9.26796229,7.0859633 9.26796229,7.33186162 L9.26796229,9.34006379 C9.26796229,9.46557915 9.16621199,9.56732945 9.04069663,9.56732945 C8.91518128,9.56732945 8.81343098,9.46557915 8.81343098,9.34006379 L8.81343098,7.33184514 L8.81343098,7.33184514 C8.81343098,6.84004848 9.22251754,6.43768438 9.72251036,6.43768438 L9.9497844,6.43768438 C10.449794,6.43768438 10.8588805,6.84004848 10.8588805,7.33184514 L10.8588805,9.34005542 C10.8588805,9.4655754 10.7571265,9.56732945 10.6316065,9.56732945 C10.5060865,9.56732945 10.4043325,9.4655754 10.4043325,9.34005542 Z" id="路径" stroke-width="0.2" fill="#2A87FF" fill-rule="nonzero"></path>
                                <polygon id="路径" stroke-width="0.2" fill="#2A87FF" fill-rule="nonzero" points="9.04068825 8.00250692 10.6315898 8.00250692 10.6315898 8.4495873 9.04068825 8.4495873"></polygon>
                                <polygon id="路径" stroke-linecap="round" stroke-linejoin="round" points="-2.83502558e-14 0 7.97988759 -3.99741523e-15 7.97988759 7.01648221 3.63025664 7.01648221 1.47839901 9.00137887 1.47839901 7.01648221 0 7.01648221"></polygon>
                                <path d="M4.09404575,5.04788745 L3.63949768,5.04788745 C3.1394881,5.04788745 2.73040153,4.64550687 2.73040153,4.15369372 L2.73040153,2.81241962 C2.73040153,2.32060648 3.1394881,1.9182259 3.63949768,1.9182259 L4.09404575,1.9182259 C4.59403858,1.9182259 5.00312881,2.32060648 5.00312881,2.81241962 L5.00312881,4.15369372 C5.00312881,4.64550687 4.59403858,5.04788745 4.09404575,5.04788745 Z M3.63949768,2.36530628 C3.38948451,2.36530628 3.18494961,2.56650481 3.18494961,2.81240314 L3.18494961,4.15367724 C3.18494961,4.39959205 3.38950127,4.6007741 3.63949768,4.6007741 L4.09404575,4.6007741 C4.34404217,4.6007741 4.54858597,4.39957557 4.54858597,4.15367724 L4.54858597,2.81240314 C4.54858597,2.56648833 4.34404217,2.36530628 4.09404575,2.36530628 L3.63949768,2.36530628 Z" id="形状" stroke-width="0.2" fill="#2A87FF" fill-rule="nonzero"></path>
                                <path d="M4.31222078,4.1320196 C4.40138939,4.0443127 4.5444163,4.0443127 4.6335849,4.1320196 L5.22812213,4.71681084 C5.31547238,4.80272919 5.31663316,4.94319115 5.23071481,5.0305414 C5.22989559,5.03137427 5.22906981,5.03220066 5.22823754,5.03302048 C5.13915271,5.12077301 4.99614148,5.1208252 4.90699262,5.03313772 L4.31222078,4.44811573 C4.22493325,4.36225906 4.2237733,4.22189795 4.30962997,4.13461041 C4.31048642,4.13373968 4.31135006,4.13287605 4.31222078,4.1320196 Z" id="路径" stroke-width="0.2" fill="#2A87FF" fill-rule="nonzero"></path>
                            </g>
                        </g>
                    </g>
                </g>
            </g>
        </g>
    </g>
</svg>