<?xml version="1.0" encoding="UTF-8"?>
<svg width="16px" height="16px" viewBox="0 0 16 16" version="1.1" xmlns="http://www.w3.org/2000/svg" xmlns:xlink="http://www.w3.org/1999/xlink">
    <title>刷新</title>
    <g id="页面-1" stroke="none" stroke-width="1" fill="none" fill-rule="evenodd">
        <g id="对话气泡" transform="translate(-418, -2313)">
            <g id="编组-3" transform="translate(322, 2130)">
                <g id="编组-8" transform="translate(80, 122)">
                    <g id="相关操作" transform="translate(16, 60)">
                        <g id="刷新" transform="translate(0, 1)">
                            <g id="编组" transform="translate(0.4, 0.7)" fill="#8791AB" fill-rule="nonzero">
                                <path d="M7.35,0 C9.32537114,0 11.1781494,0.783662648 12.5472266,2.15277343 C12.7538906,2.35943745 13.0448511,2.66806548 13.4007694,3.05551018 C13.4286004,3.08581765 13.4286004,3.08581765 13.4564026,3.11613716 C13.6326313,3.30838927 13.8161131,3.51042002 14.0007418,3.71511617 L14,1.8 C14,1.50176624 14.2175896,1.25435325 14.5026769,1.20785299 L14.6,1.2 C14.9313708,1.2 15.2,1.46862915 15.2,1.8 L15.2,5.08125 C15.2,5.41262085 14.9313708,5.68125 14.6,5.68125 L11.1,5.68125 C10.7686292,5.68125 10.5,5.41262085 10.5,5.08125 C10.5,4.74987915 10.7686292,4.48125 11.1,4.48125 L13.076,4.481 L13.0654133,4.4698123 C12.8977806,4.28416637 12.7316339,4.10135417 12.5718121,3.92700067 C12.5444353,3.89714508 12.5444353,3.89714508 12.5170491,3.86732203 C12.1717937,3.49148462 11.8903795,3.19298259 11.6986932,3.00129636 C10.5524258,1.85500078 9.00383698,1.2 7.35,1.2 C3.95345835,1.2 1.2,3.95345835 1.2,7.35 C1.2,10.7465417 3.95345835,13.5 7.35,13.5 C9.00384332,13.5 10.5524302,12.8450018 11.6986919,11.6987049 C11.9330029,11.4643868 12.3129019,11.4643809 12.5472201,11.6986919 C12.7815382,11.9330029 12.7815441,12.3129019 12.5472331,12.5472201 C11.1781555,13.9163397 9.32537763,14.7 7.35,14.7 C3.29071665,14.7 0,11.4092833 0,7.35 C0,3.29071665 3.29071665,0 7.35,0 Z" id="形状结合"></path>
                            </g>
                            <rect id="矩形" x="0" y="0" width="16" height="16"></rect>
                        </g>
                    </g>
                </g>
            </g>
        </g>
    </g>
</svg>