<?xml version="1.0" encoding="UTF-8"?>
<svg width="20px" height="20px" viewBox="0 0 20 20" version="1.1" xmlns="http://www.w3.org/2000/svg" xmlns:xlink="http://www.w3.org/1999/xlink">
    <title>语音 2</title>
    <g id="页面-1" stroke="none" stroke-width="1" fill="none" fill-rule="evenodd">
        <g id="输入框" transform="translate(-1158, -1170)">
            <g id="编组-10" transform="translate(357, 680)">
                <g id="编组-14备份" transform="translate(0, 414)">
                    <g id="语音-2" transform="translate(801, 76)">
                        <rect id="矩形" x="0" y="0" width="20" height="20"></rect>
                        <path d="M10.0714243,3.21428487 L10.0714242,3.21428487 C8.73016307,3.21428487 7.64285445,4.30159349 7.64285445,5.64285462 C7.64285445,5.64285462 7.64285445,5.64285462 7.64285445,5.64285462 L7.64285445,10.4999941 L7.64285445,10.4999945 C7.64285445,11.8412556 8.73016307,12.9285642 10.0714242,12.9285642 C11.4126853,12.9285642 12.4999939,11.8412556 12.4999939,10.4999945 L12.4999939,5.64285498 L12.4999939,5.64285498 C12.4999939,4.30159386 11.4126853,3.21428487 10.0714242,3.21428487 L10.0714243,3.21428487 Z M10.0714243,2 L10.0714241,2 C12.0833234,2 13.7142788,3.63096103 13.7142788,5.64285462 L13.7142788,10.5 L13.7142788,10.5 C13.7142788,12.5118934 12.0833177,14.1428487 10.0714241,14.1428487 C8.05952487,14.1428487 6.42856953,12.5118877 6.42856953,10.5 L6.42856953,5.64285462 L6.42856953,5.64285517 C6.42856953,3.63095589 8.05953056,2 10.0714241,2 L10.0714243,2 Z M9.46428187,17.7857033 L9.46428187,16.5714185 L9.46428193,16.5714185 C6.44921259,16.5647406 4.00667857,14.1222059 4,11.1071365 L4,10.4999941 L4,10.4999942 C4,10.1646789 4.27182716,9.89285176 4.60714244,9.89285176 C4.94245772,9.89285176 5.21428487,10.1646789 5.21428487,10.4999942 C5.21428487,10.4999942 5.21428487,10.4999942 5.21428487,10.4999942 L5.21428487,11.1071366 L5.21428486,11.1071425 C5.2075721,13.4476386 7.0994754,15.350423 9.43995827,15.3571396 C9.44806514,15.3571628 9.45617206,15.3571628 9.46427887,15.3571395 L10.6785637,15.3571395 L10.6785636,15.3571395 C13.0190597,15.3638523 14.9218441,13.4719509 14.9285607,11.1314661 C14.9285839,11.1233612 14.9285839,11.1152563 14.9285606,11.1071514 L14.9285606,10.5000089 L14.9285606,10.500009 C14.9285606,10.1646938 15.2003878,9.89285176 15.5357031,9.89285176 C15.8710184,9.89285176 16.1428456,10.1646938 16.1428456,10.500009 C16.1428456,10.500009 16.1428456,10.500009 16.1428456,10.500009 L16.1428456,11.1071515 L16.1428456,11.1071294 C16.1361799,14.1221987 13.6936519,16.5647517 10.6785826,16.5714303 L10.6785826,17.7857151 L11.8928675,17.7857151 L11.8928675,17.7857151 C12.2281827,17.7857151 12.5,18.0575423 12.5,18.3928518 C12.5,18.7281728 12.2281827,19 11.8928675,19 L8.25001284,19 L8.25001281,19 C7.91469753,19 7.64287038,18.7281728 7.64287038,18.3928518 C7.64287039,18.0575423 7.91469753,17.7857151 8.25001281,17.7857151 L9.46428187,17.7857033 Z" id="形状" fill="#8A98B6" fill-rule="nonzero"></path>
                    </g>
                </g>
            </g>
        </g>
    </g>
</svg>