<?xml version="1.0" encoding="UTF-8"?>
<svg width="20px" height="20px" viewBox="0 0 20 20" version="1.1" xmlns="http://www.w3.org/2000/svg" xmlns:xlink="http://www.w3.org/1999/xlink">
    <title>任务池</title>
    <g id="页面-1" stroke="none" stroke-width="1" fill="none" fill-rule="evenodd">
        <g id="快捷指令" transform="translate(-381, -726)">
            <g id="编组-7" transform="translate(321, 609)">
                <g id="编组-3" transform="translate(60, 117)">
                    <rect id="矩形" fill="#E6F1FF" x="0" y="0" width="20" height="20" rx="2"></rect>
                    <path d="M4.28397689,3.7650755 C4.01641836,3.74885984 3.78129117,3.95155569 3.7650755,4.22722205 L3.7650755,15.7160231 C3.74885984,15.9835816 3.95155569,16.2187088 4.22722205,16.2349245 L15.7160231,16.2349245 C15.9835816,16.2511402 16.2187088,16.0484443 16.2349245,15.7727779 L16.2349245,4.28397689 C16.2511402,4.01641836 16.0484443,3.78129117 15.7727779,3.7650755 L15.7160231,3.7650755 L4.28397689,3.7650755 Z M4.28397689,2.72727273 L15.7160231,2.72727273 C16.5673457,2.75159623 17.2565116,3.4326543 17.2727273,4.28397689 L17.2727273,15.7160231 C17.2484038,16.5673457 16.5673457,17.2565116 15.7160231,17.2727273 L4.28397689,17.2727273 C3.4326543,17.2484038 2.7434884,16.5673457 2.72727273,15.7160231 L2.72727273,4.28397689 C2.7434884,3.4326543 3.4326543,2.75159623 4.28397689,2.72727273 Z M10.5189014,6.88659167 L13.6323097,6.88659167 C13.8998682,6.870376 14.1349954,7.07307186 14.1512111,7.34873822 L14.1512111,7.40549306 C14.1674268,7.67305159 13.9647309,7.90817878 13.6890646,7.92439445 L10.5189014,7.92439445 C10.2513429,7.94061011 10.0162157,7.73791426 10,7.4622479 L10,7.40549306 C9.98378433,7.13793453 10.1864802,6.90280734 10.4621465,6.88659167 L10.5189014,6.88659167 L10.5189014,6.88659167 Z M7.39738522,13.1215162 C7.68115942,13.1215162 7.91628661,12.886389 7.91628661,12.6026148 C7.91628661,12.3188406 7.68115942,12.0837134 7.39738522,12.0837134 C7.11361103,12.0837134 6.87848384,12.3188406 6.87848384,12.6026148 C6.87848384,12.886389 7.11361103,13.1215162 7.39738522,13.1215162 Z M7.39738522,14.1593189 C6.5379548,14.1593189 5.84068106,13.4620452 5.84068106,12.6026148 C5.84068106,11.7431844 6.5379548,11.0459106 7.39738522,11.0459106 C8.25681565,11.0459106 8.95408939,11.7431844 8.95408939,12.6026148 C8.95408939,13.4620452 8.26492348,14.1593189 7.39738522,14.1593189 Z M7.30009121,7.8189926 L6.15688659,6.67578798 C5.9460829,6.48119996 5.62176953,6.48930779 5.42718151,6.70011148 C5.24070133,6.8946995 5.24070133,7.2027972 5.42718151,7.40549306 L6.87848384,8.85679538 C6.99199351,8.96219722 7.13793453,9.03516773 7.29198338,9.06759907 C7.43792439,9.08381474 7.58386541,9.04327557 7.70548292,8.96219722 L9.88649032,6.78118982 C10.0891862,6.57849397 10.0891862,6.2541806 9.88649032,6.05148475 C9.68379447,5.84878889 9.3594811,5.84878889 9.15678524,6.05148475 L7.30009121,7.8189926 Z M10.5189014,12.0756056 L13.6323097,12.0756056 C13.9160839,12.0756056 14.1512111,12.3107327 14.1512111,12.5945069 C14.1512111,12.8782811 13.9160839,13.1134083 13.6323097,13.1134083 L10.5189014,13.1134083 C10.2351272,13.1134083 10,12.8782811 10,12.5945069 C10,12.3107327 10.2351272,12.0756056 10.5189014,12.0756056 L10.5189014,12.0756056 Z" id="形状" fill="#2A87FF" fill-rule="nonzero"></path>
                </g>
            </g>
        </g>
    </g>
</svg>