<?xml version="1.0" encoding="UTF-8"?>
<svg width="16px" height="16px" viewBox="0 0 16 16" version="1.1" xmlns="http://www.w3.org/2000/svg" xmlns:xlink="http://www.w3.org/1999/xlink">
    <title>icon_协同</title>
    <defs>
        <rect id="path-1" x="0" y="0" width="16" height="16"></rect>
    </defs>
    <g id="框架" stroke="none" stroke-width="1" fill="none" fill-rule="evenodd">
        <g id="1.0-首页-左侧导航240px" transform="translate(-24.000000, -250.000000)">
            <g id="功能" transform="translate(12.000000, 120.000000)">
                <g id="赛博协同" transform="translate(12.000000, 128.000000)">
                    <g id="icon_协同" transform="translate(0.000000, 2.000000)">
                        <mask id="mask-2" fill="white">
                            <use xlink:href="#path-1"></use>
                        </mask>
                        <g id="矩形"></g>
                        <g id="编组" mask="url(#mask-2)" stroke="#1A1A1A">
                            <g transform="translate(0.303430, 0.500000)">
                                <path d="M12.3750842,9.56814835 C12.8694881,9.43567321 13.4144297,9.49180682 13.8927223,9.76794919 C14.3710149,10.0440916 14.6920988,10.487958 14.8245739,10.9823619 C14.9570491,11.4767659 14.9009155,12.0217074 14.6247731,12.5 C14.3486307,12.9782926 13.9047643,13.2993765 13.4103604,13.4318517 C12.9159564,13.5643268 12.3710149,13.5081932 11.8927223,13.2320508 C11.4144297,12.9559084 11.0933458,12.512042 10.9608706,12.0176381 C10.8283955,11.5232341 10.8845291,10.9782926 11.1606715,10.5 C11.4368139,10.0217074 11.8806802,9.70062349 12.3750842,9.56814835 Z M1.50041744,9.76794919 C1.97871006,9.49180682 2.52365158,9.43567321 3.01805553,9.56814835 C3.51245948,9.70062349 3.95632587,10.0217074 4.23246825,10.5 C4.50861062,10.9782926 4.56474423,11.5232341 4.43226909,12.0176381 C4.29979395,12.512042 3.97871006,12.9559084 3.50041744,13.2320508 C3.02212481,13.5081932 2.4771833,13.5643268 1.98277935,13.4318517 C1.4883754,13.2993765 1.04450901,12.9782926 0.768366631,12.5 C0.492224256,12.0217074 0.436090646,11.4767659 0.568565786,10.9823619 C0.701040925,10.487958 1.02212481,10.0440916 1.50041744,9.76794919 Z M7.69656986,0.5 C8.24885461,0.5 8.74885461,0.723857625 9.11078342,1.08578644 C9.47271224,1.44771525 9.69656986,1.94771525 9.69656986,2.5 C9.69656986,3.05228475 9.47271224,3.55228475 9.11078342,3.91421356 C8.74885461,4.27614237 8.24885461,4.5 7.69656986,4.5 C7.14428511,4.5 6.64428511,4.27614237 6.2823563,3.91421356 C5.92042749,3.55228475 5.69656986,3.05228475 5.69656986,2.5 C5.69656986,1.94771525 5.92042749,1.44771525 6.2823563,1.08578644 C6.64428511,0.723857625 7.14428511,0.5 7.69656986,0.5 Z" id="形状结合"></path>
                                <path d="M13.6052293,9.54872693 C13.6652594,9.20819143 13.6965699,8.85775219 13.6965699,8.5 C13.6965699,5.86636626 11.9997518,3.62904562 9.63971697,2.82163952 M5.72887722,2.83009677 C3.38163173,3.64457839 1.69656986,5.87550555 1.69656986,8.5 C1.69656986,8.87154302 1.73034077,9.23519841 1.79498047,9.58806408 M3.79835028,13.0612751 C4.84692781,13.958274 6.20848539,14.5 7.69656986,14.5 C9.1909502,14.5 10.5577307,13.9536803 11.6080818,13.0498708" id="形状"></path>
                            </g>
                        </g>
                    </g>
                </g>
            </g>
        </g>
    </g>
</svg>