<?xml version="1.0" encoding="UTF-8"?>
<svg width="20px" height="20px" viewBox="0 0 20 20" version="1.1" xmlns="http://www.w3.org/2000/svg" xmlns:xlink="http://www.w3.org/1999/xlink">
    <title>icon_主题皮肤</title>
    <defs>
        <rect id="path-1" x="0" y="0" width="20" height="20"></rect>
    </defs>
    <g id="框架" stroke="none" stroke-width="1" fill="none" fill-rule="evenodd">
        <g id="1.7-个人中心" transform="translate(-260.000000, -499.000000)">
            <g id="个人信息弹窗" transform="translate(240.000000, 290.000000)">
                <g id="主题" transform="translate(20.000000, 205.000000)">
                    <g id="icon_主题皮肤" transform="translate(0.000000, 4.000000)">
                        <mask id="mask-2" fill="white">
                            <use xlink:href="#path-1"></use>
                        </mask>
                        <g id="矩形"></g>
                        <path d="M17.7209575,2.55061176 C17.7820165,2.55467517 17.840236,2.57894004 17.8839772,2.62126539 C17.9251906,2.66114418 17.95,2.71478647 17.95,2.77162858 L17.95,2.77162858 L17.95,7.19091789 C17.95,7.24776019 17.9251906,7.30140252 17.8839739,7.34128448 C17.8358599,7.38784113 17.7702217,7.41253982 17.7025586,7.41253982 L17.7025586,7.41253982 L15.793284,7.41253982 L15.793284,17.2283809 C15.793284,17.2852226 15.7684746,17.3388646 15.7272598,17.3787448 C15.6791449,17.4253021 15.6135064,17.4500009 15.5458426,17.4500009 L15.5458426,17.4500009 L4.45415778,17.4500009 C4.38649385,17.4500009 4.32085505,17.4253023 4.27273706,17.378742 C4.23152436,17.3388641 4.20671642,17.285222 4.20671642,17.2283809 L4.20671642,17.2283809 L4.20671642,7.41253982 L2.29744136,7.41253982 C2.22977685,7.41253982 2.1641379,7.38784003 2.11602257,7.34128252 C2.07480901,7.30140334 2.05,7.24776049 2.05,7.19091789 L2.05,7.19091789 L2.05,2.77162858 C2.05,2.71478617 2.07480895,2.66114337 2.11602244,2.62126428 L2.11602244,2.62126428 L6.98439291,2.55000093 C7.69360266,3.43912345 7.97593409,3.81741953 8.34019852,4.09589568 C8.7992828,4.44686058 9.37774995,4.65443017 10,4.65443017 C10.6222502,4.65443017 11.2007171,4.44686062 11.6598011,4.09589584 C12.0219378,3.8190462 12.3097564,3.45312821 12.4879782,3.02889535 L12.4879782,3.02889535 Z" id="路径" stroke="#1A1A1A" stroke-width="1.1" mask="url(#mask-2)"></path>
                    </g>
                </g>
            </g>
        </g>
    </g>
</svg>