<?xml version="1.0" encoding="UTF-8"?>
<svg width="16px" height="16px" viewBox="0 0 16 16" version="1.1" xmlns="http://www.w3.org/2000/svg" xmlns:xlink="http://www.w3.org/1999/xlink">
    <title>翻译</title>
    <g id="页面-1" stroke="none" stroke-width="1" fill="none" fill-rule="evenodd">
        <g id="对话气泡" transform="translate(-502, -1394)">
            <g id="编组-3" transform="translate(322, 1188)">
                <g id="编组-8" transform="translate(28, 124)">
                    <g id="相关操作" transform="translate(68, 81)">
                        <g id="翻译" transform="translate(84, 1)">
                            <rect id="矩形" x="0" y="0" width="16" height="16"></rect>
                            <g id="编组" transform="translate(0, 0.5)" fill="#8791AB" fill-rule="nonzero">
                                <path d="M3.30581704,6.797007 L3.30581704,9.16051171 C3.30581704,9.22230268 3.35216027,9.26864591 3.41395124,9.26864591 L4.23268163,9.26864591 C4.2944726,9.26864591 4.34081583,9.22230268 4.34081583,9.16051171 L4.34081583,6.797007 L7.53849867,6.797007 C7.60028965,6.797007 7.64663287,6.75066377 7.64663287,6.6888728 L7.64663287,1.74559498 C7.64663287,1.68380401 7.60028965,1.63746078 7.53849867,1.63746078 L4.32536809,1.63746078 L4.32536809,0.108134202 C4.32536809,0.0463432295 4.27902486,0 4.21723389,0 L3.3985035,0 C3.33671253,0 3.2903693,0.0463432295 3.2903693,0.108134202 L3.2903693,1.65290852 L0.108134202,1.65290852 C0.0463432295,1.65290852 0,1.69925175 0,1.76104272 L0,6.70432054 C0,6.76611151 0.0463432295,6.81245474 0.108134202,6.81245474 L3.30581704,6.81245474 L3.30581704,6.797007 Z M4.32536809,2.68790731 L6.59618634,2.68790731 L6.59618634,5.77745595 L4.32536809,5.77745595 L4.32536809,2.68790731 Z M2,8.38 C2.27614237,8.38 2.5,8.60385763 2.5,8.88 L2.5,11.6492308 C2.5,12.392691 3.10269361,12.9953846 3.84615385,12.9953846 L6.61538462,12.9953846 C6.89152699,12.9953846 7.11538462,13.2192422 7.11538462,13.4953846 C7.11538462,13.771527 6.89152699,13.9953846 6.61538462,13.9953846 L3.84615385,13.9953846 C2.55040886,13.9953846 1.5,12.9449758 1.5,11.6492308 L1.5,8.88 C1.5,8.60385763 1.72385763,8.38 2,8.38 Z M3.30581704,2.68790731 L3.30581704,5.77745595 L1.03499879,5.77745595 L1.03499879,2.68790731 L3.30581704,2.68790731 Z M9.09872073,15.0461019 C9.14506396,15.0461019 9.17595945,15.0152064 9.19140719,14.9843109 L10.164615,12.5744629 L13.9493121,12.5744629 L14.9070722,14.9843109 C14.9225199,15.0306541 14.9534154,15.0461019 14.9997586,15.0461019 L15.9266232,15.0461019 C15.9575187,15.0306541 15.9729664,14.9997586 15.9884142,14.9843109 C16.0038619,14.9688631 16.0038619,14.9379677 15.9884142,14.9070722 L12.6980449,6.64252957 C12.6671494,6.61163408 12.6362539,6.59618634 12.6053584,6.59618634 L11.5085687,6.59618634 C11.4622254,6.59618634 11.43133,6.62708182 11.4158822,6.65797731 L8.12551291,14.8916244 L8.12551291,14.9225199 C8.12551291,14.9843109 8.17185614,15.0306541 8.23364712,15.0306541 L9.09872073,15.0306541 L9.09872073,15.0461019 Z M12.0492397,7.83200579 L13.532223,11.5394642 L10.5662563,11.5394642 L12.0492397,7.83200579 Z M12.6538462,1 C13.9495911,1 15,2.05040886 15,3.34615385 L15,6.11538462 C15,6.39152699 14.7761424,6.61538462 14.5,6.61538462 C14.2238576,6.61538462 14,6.39152699 14,6.11538462 L14,3.34615385 C14,2.60269361 13.3973064,2 12.6538462,2 L9.88461538,2 C9.60847301,2 9.38461538,1.77614237 9.38461538,1.5 C9.38461538,1.22385763 9.60847301,1 9.88461538,1 L12.6538462,1 Z" id="形状"></path>
                            </g>
                        </g>
                    </g>
                </g>
            </g>
        </g>
    </g>
</svg>