<?xml version="1.0" encoding="UTF-8"?>
<svg width="14px" height="14px" viewBox="0 0 14 14" version="1.1" xmlns="http://www.w3.org/2000/svg" xmlns:xlink="http://www.w3.org/1999/xlink">
    <title>点赞</title>
    <g id="页面-1" stroke="none" stroke-width="1" fill="none" fill-rule="evenodd">
        <g id="文档撰写类部件" transform="translate(-722, -1657)" fill="#666666" fill-rule="nonzero">
            <g id="编组-20" transform="translate(422, 1214)">
                <g id="编组-19" transform="translate(0, 46)">
                    <g id="编组-17备份" transform="translate(286, 390)">
                        <g id="点赞" transform="translate(14, 7)">
                            <path d="M11.9822675,4.7 L9.68566626,4.7 C9.68566626,4.7 9.98522294,3.7 10.1849274,1.9 C10.2847796,1 9.58581403,0.1 8.58729173,0 L8.38758727,0 C7.58876944,0 7.08950829,0.5 6.7899516,1.2 L6.19083822,2.7 C5.69157708,3.7 5.29216816,4.3 4.99261147,4.5 C4.59320255,4.7 3.09541911,4.7 2.99556688,4.7 L0.998522294,4.7 C0.399408918,4.7 0,5.1 0,5.6 L0,13.1 C0,13.6 0.399408918,14 0.998522294,14 L11.0835975,14 C12.5813809,14 12.9807898,13 13.1804943,11.6 L13.9793121,6.8 C14.0791644,5.7 13.8794599,4.7 11.9822675,4.7 Z M2.99556688,13.1 L0.998522294,13.1 L0.998522294,5.6 L2.99556688,5.6 L2.99556688,13.1 L2.99556688,13.1 Z M12.9807898,6.7 L12.181972,11.5 C11.9822675,12.4 11.9822675,13.1 10.9837452,13.1 L3.99408918,13.1 L3.99408918,5.6 C4.69305478,5.6 5.0924637,5.5 5.39202039,5.3 C5.89128154,5.1 6.39054268,4.3 7.08950829,3 C7.48891721,2 7.68862167,1.5 7.7884739,1.4 C7.88832613,1.1 8.08803058,0.9 8.4874395,0.9 L8.58729173,0.9 C9.08655288,0.9 9.28625734,1.4 9.28625734,1.7 C9.08655288,3.3 8.78699619,4.3 8.78699619,4.3 L8.38758727,5.6 L12.181972,5.6 C12.4815287,5.6 12.6812331,5.6 12.8809376,5.8 C13.0806421,6 12.9807898,6.4 12.9807898,6.7 L12.9807898,6.7 Z" id="形状"></path>
                        </g>
                    </g>
                </g>
            </g>
        </g>
    </g>
</svg>