<?xml version="1.0" encoding="UTF-8"?>
<svg width="16px" height="16px" viewBox="0 0 16 16" version="1.1" xmlns="http://www.w3.org/2000/svg" xmlns:xlink="http://www.w3.org/1999/xlink">
    <title>语音播放</title>
    <g id="页面-1" stroke="none" stroke-width="1" fill="none" fill-rule="evenodd">
        <g id="对话气泡" transform="translate(-474, -1704)">
            <g id="编组-3" transform="translate(322, 1498)">
                <g id="编组-8" transform="translate(80, 146)">
                    <g id="相关操作" transform="translate(16, 60)">
                        <g id="语音播放" transform="translate(56, 0)">
                            <path d="M8,1.3 C8.32727985,1.3 8.59259259,1.56862915 8.59259259,1.9 L8.59259259,14.0875 C8.59259259,14.4188708 8.32727985,14.6875 8,14.6875 C6.68682205,14.6875 5.46686161,14.0368931 4.3599935,12.9717308 C3.98371313,12.6096284 3.64691203,12.2233722 3.3529213,11.8367977 C3.31733071,11.7899988 3.28381894,11.7451587 3.25242058,11.7024683 L3.16839506,11.586 L1.33333333,11.5861536 C0.654927819,11.5861536 0.0766576441,11.0963402 0.00702389372,10.4420294 L4.54747351e-13,10.3090703 L4.54747351e-13,5.62761458 C4.54747351e-13,4.9078301 0.609700785,4.35053125 1.33333333,4.35053125 L3.17037037,4.35 L3.25521657,4.2363113 L3.35582953,4.10403449 C3.6500385,3.72351166 3.98706246,3.34333283 4.36354919,2.98696803 C5.4701403,1.93952046 6.68928806,1.3 8,1.3 Z M7.40740741,2.564 L7.38431096,2.56801441 C6.63255049,2.73247126 5.88608194,3.188529 5.17293229,3.86356322 C4.84443638,4.17450213 4.54764958,4.50929156 4.2890663,4.84373699 C4.135533,5.04231329 4.03073099,5.19371114 3.98018176,5.27375448 C3.87128206,5.44619421 3.68307668,5.55053125 3.48092593,5.55053125 L1.33333333,5.55053125 C1.23875821,5.55053125 1.18518519,5.59949983 1.18518519,5.62761458 L1.18518519,10.3090703 C1.18518519,10.3371851 1.23875821,10.3861536 1.33333333,10.3861536 L3.48092593,10.3861536 C3.68464995,10.3861536 3.87409128,10.4921092 3.98255303,10.6667163 C4.03327117,10.7483649 4.13825214,10.9025476 4.29197453,11.1046804 C4.55077605,11.4449839 4.84778571,11.7856057 5.17648798,12.1019228 C5.88941998,12.7879922 6.63534019,13.2513344 7.38567949,13.4184064 L7.40740741,13.422 L7.40740741,2.564 Z M12.1804224,1.70760826 C14.5302873,3.03634765 16,5.39446272 16,7.99375 C16,10.6347149 14.4826457,13.0248973 12.0721808,14.3400217 C11.7840675,14.4972132 11.4246498,14.3881607 11.2693989,14.096446 C11.1141479,13.8047314 11.2218541,13.440821 11.5099674,13.2836294 C13.5491517,12.1710718 14.8148148,10.177361 14.8148148,7.99375 C14.8148148,5.8448799 13.5894379,3.87879511 11.6025405,2.75529695 C11.316801,2.59372454 11.2145267,2.22821112 11.3741043,1.93889987 C11.533682,1.64958863 11.8946829,1.54603585 12.1804224,1.70760826 Z M11.3348815,4.47975949 C11.5983899,4.69484349 11.8373583,4.93590544 12.0474062,5.19877859 C12.6850915,5.99684832 13.037037,6.97020111 13.037037,7.99375 C13.037037,9.00850587 12.6911043,9.97405826 12.0633958,10.7686005 C11.8495019,11.0392981 11.6050994,11.2871794 11.3348822,11.5077399 C11.0800867,11.7157128 10.7070202,11.6751737 10.5016149,11.4171932 C10.2962095,11.1592128 10.3362482,10.7814829 10.5910437,10.5735101 C10.7945923,10.4073667 10.9780397,10.2213081 11.1379072,10.0189848 C11.6001878,9.43383823 11.8518519,8.7314044 11.8518519,7.99375 C11.8518519,7.24966914 11.5957793,6.54146598 11.1260039,5.95353731 C10.9689549,5.75699171 10.7895605,5.57602567 10.5910444,5.41399051 C10.3362486,5.206018 10.2962094,4.82828824 10.5016143,4.57030747 C10.7070193,4.3123267 11.0800857,4.27178699 11.3348815,4.47975949 Z" id="形状结合" fill="#8791AB" fill-rule="nonzero"></path>
                            <rect id="矩形" x="0" y="0" width="16" height="16"></rect>
                        </g>
                    </g>
                </g>
            </g>
        </g>
    </g>
</svg>