<?xml version="1.0" encoding="UTF-8"?>
<svg width="26px" height="27px" viewBox="0 0 26 27" version="1.1" xmlns="http://www.w3.org/2000/svg" xmlns:xlink="http://www.w3.org/1999/xlink">
    <title>zrzj_三角标题</title>
    <defs>
        <linearGradient x1="-13.0902767%" y1="-27.0115494%" x2="63.1140357%" y2="69.3192155%" id="linearGradient-1">
            <stop stop-color="#0BFEEC" offset="0%"></stop>
            <stop stop-color="#2081FF" offset="100%"></stop>
        </linearGradient>
        <filter x="-30.2%" y="-27.8%" width="166.6%" height="156.3%" filterUnits="objectBoundingBox" id="filter-2">
            <feGaussianBlur stdDeviation="0.689684211" in="SourceGraphic"></feGaussianBlur>
        </filter>
        <linearGradient x1="-25.435922%" y1="-53.7363885%" x2="63.1140357%" y2="69.3192155%" id="linearGradient-3">
            <stop stop-color="#02FFEC" offset="0%"></stop>
            <stop stop-color="#2797FD" offset="74.2416489%"></stop>
            <stop stop-color="#83B9FF" offset="100%"></stop>
        </linearGradient>
    </defs>
    <g id="元工具" stroke="none" stroke-width="1" fill="none" fill-rule="evenodd">
        <g id="3.工具管理" transform="translate(-464.000000, -146.000000)">
            <g id="icon_三角" transform="translate(464.000000, 146.000000)">
                <rect id="矩形" x="0" y="0" width="26" height="26"></rect>
                <path d="M10.6931204,21.265761 L23.7620763,14.0863463 C24.1597781,13.8678693 24.3050685,13.3683577 24.0865915,12.9706558 C24.0262689,12.8608482 23.9416327,12.7662904 23.8391557,12.694214 L13.0357711,5.09573139 C12.6646195,4.83468458 12.1521214,4.92394216 11.8910746,5.29509378 C11.8181433,5.39878616 11.7701962,5.51794876 11.7509856,5.64325651 L9.48541427,20.4211537 C9.41665242,20.8696744 9.72450776,21.2890147 10.1730284,21.3577765 C10.3517947,21.3851829 10.5346089,21.352839 10.6931204,21.265761 Z" id="路径-2" fill="url(#linearGradient-1)" opacity="0.949999988"></path>
                <path d="M10.3762533,19.2071565 L18.4670109,14.7625089 C18.8581113,14.5476584 19.0022708,14.0540896 18.789,13.6600921 C18.729257,13.5497227 18.6449087,13.4548229 18.5425902,13.3828579 L11.9391564,8.73838036" id="路径" stroke="#000D24" stroke-width="2.06905263" opacity="0.0799999982" filter="url(#filter-2)"></path>
                <path d="M4.71016583,21.9478597 L17.7791217,14.7684451 C18.1768236,14.5499681 18.322114,14.0504564 18.103637,13.6527546 C18.0433143,13.542947 17.9586781,13.4483892 17.8562012,13.3763128 L7.05281656,5.77783016 C6.68166494,5.51678334 6.16916684,5.60604093 5.90812003,5.97719255 C5.83518874,6.08088493 5.7872417,6.20004753 5.76803101,6.32535528 L3.50245973,21.1032525 C3.43369788,21.5517731 3.74155322,21.9711135 4.19007387,22.0398753 C4.36884011,22.0672816 4.55165436,22.0349378 4.71016583,21.9478597 Z" id="路径-2" fill-opacity="0.42" fill="url(#linearGradient-3)" opacity="0.65"></path>
                <path d="M9.69916995,19.2071565 L17.7899276,14.7625089 C18.181028,14.5476584 18.3251874,14.0540896 18.1119167,13.6600921 C18.0521737,13.5497227 17.9678254,13.4548229 17.8655069,13.3828579 L11.2620731,8.73838036" id="路径" stroke="#ABD0FF" stroke-width="0.684210526" opacity="0.349999994"></path>
            </g>
        </g>
    </g>
</svg>