<?xml version="1.0" encoding="UTF-8"?>
<svg width="16px" height="16px" viewBox="0 0 16 16" version="1.1" xmlns="http://www.w3.org/2000/svg" xmlns:xlink="http://www.w3.org/1999/xlink">
    <title>云+消息</title>
    <defs>
        <filter id="filter-1">
            <feColorMatrix in="SourceGraphic" type="matrix" values="0 0 0 0 0.156448 0 0 0 0 0.156448 0 0 0 0 0.156448 0 0 0 1.000000 0"></feColorMatrix>
        </filter>
    </defs>
    <g id="元工具" stroke="none" stroke-width="1" fill="none" fill-rule="evenodd" opacity="0.8">
        <g id="7.模版库" transform="translate(-1242.000000, -23.000000)">
            <g id="右侧背景" transform="translate(180.000000, 0.000000)">
                <g id="top" transform="translate(24.000000, 20.000000)">
                    <g id="编组-10" transform="translate(0.000000, -6.000000)">
                        <g id="编组-41" transform="translate(0.000000, 6.000000)">
                            <g id="编组-6" transform="translate(924.000000, 1.000000)" filter="url(#filter-1)">
                                <g transform="translate(0.000000, 2.000000)">
                                    <g id="云+消息" transform="translate(114.000000, 0.000000)" fill="#FFFFFF">
                                        <rect id="矩形" opacity="0" x="0" y="0" width="16" height="16"></rect>
                                        <path d="M2.16256462,2.83977516 C5.0124846,-0.384462271 9.9365563,-0.687917485 13.1608014,2.1620025 C16.3850388,5.01192248 16.688494,9.93599418 13.8385737,13.1602396 L13.5012407,13.5183431 L15.0314647,14.9202337 C15.1251623,15.0057167 15.1792481,15.1262049 15.1808525,15.253028 C15.1840551,15.506139 14.9814639,15.7139214 14.7283529,15.7171235 L8.12912168,15.7913736 L8.00001169,15.7916791 C6.09939663,15.7916791 4.26438633,15.0967323 2.84033728,13.8380119 C-0.383900151,10.9880919 -0.687355365,6.06402023 2.16256462,2.83977516 Z M12.498527,2.91126388 C9.68808982,0.427109967 5.39598329,0.691615243 2.91182522,3.50205044 C0.427672087,6.31248672 0.692177363,10.6045932 3.50261142,13.0887503 C4.66640318,14.1174286 6.14495934,14.7140499 7.68820699,14.7846116 L7.99764498,14.7916819 L13.348,14.734 L12.0554014,13.5499689 L12.7941339,12.8112364 C12.8587834,12.7465868 12.9622581,12.636741 13.0893123,12.4979652 C15.5734665,9.68752775 15.3089613,5.39542121 12.498527,2.91126388 Z" id="路径" fill-rule="nonzero"></path>
                                        <circle id="椭圆形" cx="8" cy="8" r="1"></circle>
                                        <circle id="椭圆形备份-4" cx="5" cy="8" r="1"></circle>
                                        <circle id="椭圆形备份-3" cx="11" cy="8" r="1"></circle>
                                    </g>
                                </g>
                            </g>
                        </g>
                    </g>
                </g>
            </g>
        </g>
    </g>
</svg>