<?xml version="1.0" encoding="UTF-8"?>
<svg width="16px" height="16px" viewBox="0 0 16 16" version="1.1" xmlns="http://www.w3.org/2000/svg" xmlns:xlink="http://www.w3.org/1999/xlink">
    <title>任务中心</title>
    <defs>
        <filter id="filter-1">
            <feColorMatrix in="SourceGraphic" type="matrix" values="0 0 0 0 0.156448 0 0 0 0 0.156448 0 0 0 0 0.156448 0 0 0 1.000000 0"></feColorMatrix>
        </filter>
    </defs>
    <g id="元工具" stroke="none" stroke-width="1" fill="none" fill-rule="evenodd" opacity="0.8">
        <g id="7.模版库" transform="translate(-1280.000000, -23.000000)">
            <g id="右侧背景" transform="translate(180.000000, 0.000000)">
                <g id="top" transform="translate(24.000000, 20.000000)">
                    <g id="编组-10" transform="translate(0.000000, -6.000000)">
                        <g id="编组-41" transform="translate(0.000000, 6.000000)">
                            <g id="编组-6" transform="translate(924.000000, 1.000000)" filter="url(#filter-1)">
                                <g transform="translate(0.000000, 2.000000)">
                                    <g id="任务中心" transform="translate(152.000000, 0.000000)" fill="#FFFFFF">
                                        <rect id="矩形" fill-opacity="0" x="0" y="0" width="16" height="16"></rect>
                                        <path d="M8,0 C12.418278,0 16,3.581722 16,8 C16,12.418278 12.418278,16 8,16 C3.581722,16 0,12.418278 0,8 C0,3.581722 3.581722,0 8,0 Z M8,1.14285714 C4.21290457,1.14285714 1.14285714,4.21290457 1.14285714,8 C1.14285714,11.7870954 4.21290457,14.8571429 8,14.8571429 C11.7870954,14.8571429 14.8571429,11.7870954 14.8571429,8 C14.8571429,4.21290457 11.7870954,1.14285714 8,1.14285714 Z M11.8114064,5.74720691 C12.0196675,5.93514818 12.0574498,6.24152874 11.914778,6.47184503 L11.8527978,6.55426823 L8.09157926,10.7202235 C7.68116996,11.1337715 7.03303133,11.1679317 6.58337383,10.8210422 L6.47534691,10.7263803 L4.1689097,8.43744868 C3.9449045,8.21514364 3.94352624,7.85333771 4.16583127,7.62933251 C4.36343574,7.43021677 4.67126315,7.4070038 4.8945557,7.56043551 L4.97394744,7.62625407 L7.28038465,9.91518572 L11.0043451,5.78859825 C11.215779,5.55430451 11.5771127,5.53577298 11.8114064,5.74720691 Z" id="形状结合" fill-rule="nonzero"></path>
                                    </g>
                                </g>
                            </g>
                        </g>
                    </g>
                </g>
            </g>
        </g>
    </g>
</svg>