<?xml version="1.0" encoding="UTF-8"?>
<svg width="16px" height="16px" viewBox="0 0 16 16" version="1.1" xmlns="http://www.w3.org/2000/svg" xmlns:xlink="http://www.w3.org/1999/xlink">
    <title>反馈</title>
    <defs>
        <filter id="filter-1">
            <feColorMatrix in="SourceGraphic" type="matrix" values="0 0 0 0 0.156448 0 0 0 0 0.156448 0 0 0 0 0.156448 0 0 0 1.000000 0"></feColorMatrix>
        </filter>
    </defs>
    <g id="元工具" stroke="none" stroke-width="1" fill="none" fill-rule="evenodd" opacity="0.799967448">
        <g id="7.模版库" transform="translate(-1318.000000, -23.000000)">
            <g id="右侧背景" transform="translate(180.000000, 0.000000)">
                <g id="top" transform="translate(24.000000, 20.000000)">
                    <g id="编组-10" transform="translate(0.000000, -6.000000)">
                        <g id="编组-41" transform="translate(0.000000, 6.000000)">
                            <g id="编组-6" transform="translate(924.000000, 1.000000)" filter="url(#filter-1)">
                                <g transform="translate(0.000000, 2.000000)">
                                    <g id="反馈" transform="translate(190.000000, 0.000000)" fill-rule="nonzero" stroke="#FFFFFF" stroke-width="0.941176471">
                                        <path d="M10.8907563,0.470588235 C11.952916,0.470588235 12.9158693,0.868839042 13.6124603,1.51666867 C14.2963023,2.1526417 14.7226891,3.03021122 14.7226891,4.00134454 C14.7226891,4.97387605 14.2964665,5.85220524 13.6127033,6.48861778 C12.9161105,7.13697154 11.9530479,7.53532773 10.8907563,7.53532773 C10.6109558,7.53532773 10.3399056,7.50503368 10.0775496,7.45372421 C9.44168926,7.65987626 9.16786152,7.7755557 8.80410509,7.86004212 C8.92155618,7.55888364 8.97667227,7.25865257 8.97667227,6.98729412 C8.16056915,6.28599783 7.75698502,5.91545849 7.48839606,5.49743584 C7.18952116,5.03227721 7.05882353,4.5110137 7.05882353,4.00242017 C7.05882353,3.0308208 7.48515555,2.15299807 8.16897122,1.51687854 C8.86556283,0.868874199 9.82855262,0.470588235 10.8907563,0.470588235 Z" id="路径"></path>
                                        <path d="M5.1918804,13.0451322 C6.4773732,13.0451322 7.5050314,13.3443098 8.28329888,13.8575446 C8.93555734,14.2876818 9.40784235,14.8667906 9.71112068,15.5294118 L9.71112068,15.5294118 L0.674287392,15.5294118 C0.976702175,14.8667679 1.44835586,14.2876369 2.10029867,13.8575035 C2.87819245,13.3442711 3.90587533,13.0451322 5.1918804,13.0451322 Z M5.1918804,7.47058824 C5.70322092,7.47058824 6.16630606,7.67805673 6.50159825,8.01317076 C6.83687554,8.3482699 7.04443028,8.81106403 7.04443028,9.32190372 C7.04443028,9.83344434 6.83681697,10.2969372 6.50138998,10.6325424 C6.16614667,10.9679638 5.70315019,11.175688 5.1918804,11.175688 C4.68061061,11.175688 4.21761413,10.9679638 3.88237083,10.6325424 C3.54694383,10.2969372 3.33933052,9.83344434 3.33933052,9.32190372 C3.33933052,8.81106403 3.54688526,8.3482699 3.88216255,8.01317076 C4.21745474,7.67805673 4.68053988,7.47058824 5.1918804,7.47058824 Z" id="形状"></path>
                                    </g>
                                </g>
                            </g>
                        </g>
                    </g>
                </g>
            </g>
        </g>
    </g>
</svg>