<?xml version="1.0" encoding="UTF-8"?>
<svg width="16px" height="16px" viewBox="0 0 16 16" version="1.1" xmlns="http://www.w3.org/2000/svg" xmlns:xlink="http://www.w3.org/1999/xlink">
    <title>消息中心</title>
    <defs>
        <filter id="filter-1">
            <feColorMatrix in="SourceGraphic" type="matrix" values="0 0 0 0 0.156448 0 0 0 0 0.156448 0 0 0 0 0.156448 0 0 0 1.000000 0"></feColorMatrix>
        </filter>
    </defs>
    <g id="元工具" stroke="none" stroke-width="1" fill="none" fill-rule="evenodd" opacity="0.8">
        <g id="7.模版库" transform="translate(-1204.000000, -23.000000)">
            <g id="右侧背景" transform="translate(180.000000, 0.000000)">
                <g id="top" transform="translate(24.000000, 20.000000)">
                    <g id="编组-10" transform="translate(0.000000, -6.000000)">
                        <g id="编组-41" transform="translate(0.000000, 6.000000)">
                            <g id="编组-6" transform="translate(924.000000, 1.000000)" filter="url(#filter-1)">
                                <g transform="translate(0.000000, 2.000000)">
                                    <g id="消息中心" transform="translate(76.000000, 0.000000)">
                                        <rect id="矩形" stroke="#979797" fill="#D8D8D8" opacity="0" x="0.5" y="0.5" width="15" height="15"></rect>
                                        <path d="M13.8928571,2 C14.7804576,2 15.5,2.67157288 15.5,3.5 L15.5,12.5 C15.5,13.3284271 14.7804576,14 13.8928571,14 L2.10714286,14 C1.21954237,14 0.5,13.3284271 0.5,12.5 L0.5,3.5 C0.5,2.67157288 1.21954237,2 2.10714286,2 L13.8928571,2 Z M14.428,5.082 L9.35007471,8.91900087 C8.57267287,9.50632355 7.48052029,9.53810497 6.66940406,9.01715761 L6.5111045,8.90559925 L1.571,5.095 L1.57142857,12.5 C1.57142857,12.7454599 1.76093767,12.9496084 2.01084754,12.9919443 L2.10714286,13 L13.8928571,13 C14.1558499,13 14.3745804,12.8231248 14.4199404,12.5898756 L14.4285714,12.5 L14.428,5.082 Z M13.8928571,3 L2.10714286,3 C1.84415012,3 1.6254196,3.17687516 1.58005965,3.41012437 L1.57142857,3.5 L1.571,3.738 L7.22523619,8.09900316 C7.59905281,8.3873096 8.12367458,8.41583538 8.52747683,8.18329827 L8.6447213,8.10570396 L14.428,3.735 L14.4285714,3.5 C14.4285714,3.25454011 14.2390623,3.05039163 13.9891525,3.00805567 L13.8928571,3 Z" id="形状结合" fill="#FFFFFF" fill-rule="nonzero"></path>
                                    </g>
                                </g>
                            </g>
                        </g>
                    </g>
                </g>
            </g>
        </g>
    </g>
</svg>