<?xml version="1.0" encoding="UTF-8"?>
<svg width="242px" height="168px" viewBox="0 0 242 168" version="1.1" xmlns="http://www.w3.org/2000/svg" xmlns:xlink="http://www.w3.org/1999/xlink">
    <title>编组 27</title>
    <defs>
        <rect id="path-1" x="0" y="0" width="240.45" height="166.95" rx="9.45"></rect>
        <rect id="path-3" x="17.85" y="35.7" width="89.25" height="115.5" rx="4.2"></rect>
        <filter x="-17.4%" y="-13.4%" width="139.2%" height="130.3%" filterUnits="objectBoundingBox" id="filter-4">
            <feOffset dx="2" dy="2" in="SourceAlpha" result="shadowOffsetOuter1"></feOffset>
            <feGaussianBlur stdDeviation="5.5" in="shadowOffsetOuter1" result="shadowBlurOuter1"></feGaussianBlur>
            <feColorMatrix values="0 0 0 0 0.179229112   0 0 0 0 0.180967889   0 0 0 0 0.302111639  0 0 0 0.115767045 0" type="matrix" in="shadowBlurOuter1"></feColorMatrix>
        </filter>
        <rect id="path-5" x="54.6" y="50.4" width="43.05" height="14.7"></rect>
        <mask id="mask-6" maskContentUnits="userSpaceOnUse" maskUnits="objectBoundingBox" x="0" y="0" width="43.05" height="14.7" fill="white">
            <use xlink:href="#path-5"></use>
        </mask>
        <rect id="path-7" x="54.6" y="71.4" width="43.05" height="14.7"></rect>
        <mask id="mask-8" maskContentUnits="userSpaceOnUse" maskUnits="objectBoundingBox" x="0" y="0" width="43.05" height="14.7" fill="white">
            <use xlink:href="#path-7"></use>
        </mask>
        <rect id="path-9" x="54.6" y="93.45" width="43.05" height="22.05"></rect>
        <mask id="mask-10" maskContentUnits="userSpaceOnUse" maskUnits="objectBoundingBox" x="0" y="0" width="43.05" height="22.05" fill="white">
            <use xlink:href="#path-9"></use>
        </mask>
        <linearGradient x1="65.4368149%" y1="32.2645275%" x2="26.3943454%" y2="92.2252819%" id="linearGradient-11">
            <stop stop-color="#5DA5FC" offset="0%"></stop>
            <stop stop-color="#2870F6" offset="100%"></stop>
        </linearGradient>
        <linearGradient x1="57.7420636%" y1="26.4067865%" x2="47.5118531%" y2="100%" id="linearGradient-12">
            <stop stop-color="#DFEBFE" offset="0%"></stop>
            <stop stop-color="#C7DAFB" offset="100%"></stop>
        </linearGradient>
        <path d="M38.9003364,58.3176866 C41.6725935,50.5524116 42.7447573,43.5099362 42.1168279,37.1902602 C41.1749338,27.7107464 37.0026431,15.981006 33.7440701,8.25964896 C29.9043875,-0.108612555 27.1558144,-1.55877627 21.9922423,8.25964896 C18.6799041,15.3696226 14.3895811,27.8493975 13.2603413,37.1902602 C12.6806252,43.2655625 13.4771238,49.1366188 16.7544812,58.3176866 L27.5433526,58.3176866 L38.9003364,58.3176866 Z" id="path-13"></path>
        <filter x="-8.6%" y="-4.4%" width="117.1%" height="108.8%" filterUnits="objectBoundingBox" id="filter-14">
            <feGaussianBlur stdDeviation="1.5" in="SourceAlpha" result="shadowBlurInner1"></feGaussianBlur>
            <feOffset dx="0" dy="2" in="shadowBlurInner1" result="shadowOffsetInner1"></feOffset>
            <feComposite in="shadowOffsetInner1" in2="SourceAlpha" operator="arithmetic" k2="-1" k3="1" result="shadowInnerInner1"></feComposite>
            <feColorMatrix values="0 0 0 0 1   0 0 0 0 1   0 0 0 0 1  0 0 0 0.492351399 0" type="matrix" in="shadowInnerInner1"></feColorMatrix>
        </filter>
        <polygon id="path-15" points="-4.47641924e-14 15.6526057 22.054298 15.6526057 16.4810136 -8.26640812e-16 6.66420077 0 -4.47641924e-14 10.0972522"></polygon>
        <linearGradient x1="50%" y1="-6.21061031%" x2="50%" y2="26.2562343%" id="linearGradient-17">
            <stop stop-color="#9ACBFA" offset="0%"></stop>
            <stop stop-color="#8DB7F9" offset="100%"></stop>
            <stop stop-color="#8CB6F9" offset="100%"></stop>
        </linearGradient>
        <path d="M21.2626822,58.3176866 C24.0349392,50.5524116 25.107103,43.5099362 24.4791736,37.1902602 C23.5372796,27.7107464 19.3649888,15.981006 16.1064159,8.25964896 C12.2667333,-0.108612555 9.51816013,-1.55877627 4.35458802,8.25964896 C1.04224981,15.3696226 -3.24807313,27.8493975 -4.37731293,37.1902602 C-4.95702904,43.2655625 -4.16053042,49.1366188 -0.883173027,58.3176866 L9.90569833,58.3176866 L21.2626822,58.3176866 Z" id="path-18"></path>
        <filter x="-5.1%" y="-2.6%" width="110.3%" height="105.3%" filterUnits="objectBoundingBox" id="filter-19">
            <feGaussianBlur stdDeviation="1.5" in="SourceAlpha" result="shadowBlurInner1"></feGaussianBlur>
            <feOffset dx="0" dy="0" in="shadowBlurInner1" result="shadowOffsetInner1"></feOffset>
            <feComposite in="shadowOffsetInner1" in2="SourceAlpha" operator="arithmetic" k2="-1" k3="1" result="shadowInnerInner1"></feComposite>
            <feColorMatrix values="0 0 0 0 1   0 0 0 0 1   0 0 0 0 1  0 0 0 0.264614292 0" type="matrix" in="shadowInnerInner1"></feColorMatrix>
        </filter>
        <linearGradient x1="50%" y1="1.1805185e-14%" x2="50%" y2="100%" id="linearGradient-20">
            <stop stop-color="#FFE08F" offset="0%"></stop>
            <stop stop-color="#EA934A" offset="100%"></stop>
        </linearGradient>
        <path d="M27.6885808,60.7579729 L16.5882204,60.7579729 C16.5597008,64.7724628 17.3242052,66.9602578 18.8817338,67.3213579 C20.5137551,67.5710978 21.0162651,64.8868357 23.8985657,66.7820066 C25.4897645,68.01505 26.4320994,72.7893741 27.856508,72.7893741 C29.2809167,72.7893741 30.3621941,68.6122279 31.5,67.3213579 C32.5527842,65.9125622 34.1638465,65.6608547 35.719355,66.7820066 C37.2748634,67.9031585 39.1255649,66.9747563 39.1255649,60.7579729 C36.1522543,60.7412718 32.3399263,60.7412718 27.6885808,60.7579729 Z" id="path-21"></path>
        <filter x="-4.4%" y="-8.3%" width="108.9%" height="116.6%" filterUnits="objectBoundingBox" id="filter-22">
            <feGaussianBlur stdDeviation="1" in="SourceAlpha" result="shadowBlurInner1"></feGaussianBlur>
            <feOffset dx="0" dy="0" in="shadowBlurInner1" result="shadowOffsetInner1"></feOffset>
            <feComposite in="shadowOffsetInner1" in2="SourceAlpha" operator="arithmetic" k2="-1" k3="1" result="shadowInnerInner1"></feComposite>
            <feColorMatrix values="0 0 0 0 1   0 0 0 0 0.990339177   0 0 0 0 0.990339177  0 0 0 0.30231097 0" type="matrix" in="shadowInnerInner1"></feColorMatrix>
        </filter>
        <linearGradient x1="26.2935511%" y1="89.0937183%" x2="90.5606506%" y2="13.0588199%" id="linearGradient-23">
            <stop stop-color="#458CF9" offset="0%"></stop>
            <stop stop-color="#57A0F9" offset="100%"></stop>
        </linearGradient>
    </defs>
    <g id="场景应用" stroke="none" stroke-width="1" fill="none" fill-rule="evenodd">
        <g id="12.质量保障" transform="translate(-466.000000, -289.000000)">
            <g id="编组-15" transform="translate(384.000000, 261.000000)">
                <g id="编组-27" transform="translate(82.500000, 28.500000)">
                    <g id="矩形备份-12">
                        <mask id="mask-2" fill="white">
                            <use xlink:href="#path-1"></use>
                        </mask>
                        <use id="蒙版" fill="#F0F1F3" xlink:href="#path-1"></use>
                        <rect id="矩形" fill="#D7D9DF" mask="url(#mask-2)" x="0" y="0" width="240.45" height="25.2"></rect>
                        <circle id="椭圆形" fill="#FFFFFF" mask="url(#mask-2)" cx="16.8" cy="13.65" r="4.2"></circle>
                        <circle id="椭圆形备份-5" fill="#FFFFFF" mask="url(#mask-2)" cx="31.5" cy="13.65" r="4.2"></circle>
                        <circle id="椭圆形备份-7" fill="#FFFFFF" mask="url(#mask-2)" cx="46.2" cy="13.65" r="4.2"></circle>
                        <path d="M239.925,25.725 L239.925,157.5 C239.925,159.964571 238.926035,162.195821 237.310928,163.810928 C235.695821,165.426035 233.464571,166.425 231,166.425 L231,166.425 L135.975,166.425 L135.975,25.725 L239.925,25.725 Z" id="矩形" stroke="#0091FF" stroke-width="1.05" fill="#FFFFFF" mask="url(#mask-2)"></path>
                    </g>
                    <g id="矩形备份-13">
                        <use fill="black" fill-opacity="1" filter="url(#filter-4)" xlink:href="#path-3"></use>
                        <use fill="#FFFFFF" fill-rule="evenodd" xlink:href="#path-3"></use>
                    </g>
                    <circle id="椭圆形备份-9" stroke="#F2F5FB" stroke-width="6.3" fill="#2469F7" cx="134.4" cy="86.1" r="22.05"></circle>
                    <rect id="矩形备份-14" fill="#D8D8D8" x="29.4" y="50.4" width="13.65" height="9.45" rx="1.05"></rect>
                    <use id="矩形备份-15" stroke="#E0E4E8" mask="url(#mask-6)" stroke-width="2.1" fill="#F6F8FA" stroke-dasharray="2.099999964237213,2.099999964237213" xlink:href="#path-5"></use>
                    <use id="矩形备份-16" stroke="#E0E4E8" mask="url(#mask-8)" stroke-width="2.1" fill="#F6F8FA" stroke-dasharray="2.099999964237213,2.099999964237213" xlink:href="#path-7"></use>
                    <use id="矩形备份-17" stroke="#E0E4E8" mask="url(#mask-10)" stroke-width="2.1" fill="#F6F8FA" stroke-dasharray="2.099999964237213,2.099999964237213" xlink:href="#path-9"></use>
                    <rect id="矩形备份-18" fill="#E0E4E8" x="29.4" y="74.55" width="13.65" height="9.45" rx="1.05"></rect>
                    <rect id="矩形备份-19" fill="#E0E4E8" x="29.4" y="98.7" width="13.65" height="9.45" rx="1.05"></rect>
                    <rect id="矩形备份-20" fill="#0091FF" x="29.4" y="126" width="27.3" height="13.65" rx="1.05"></rect>
                    <rect id="矩形备份-21" fill="#E0E4E8" x="65.1" y="126" width="27.3" height="13.65" rx="1.05"></rect>
                    <g id="箭头_向右备份" transform="translate(124.950000, 77.700000)" fill-rule="nonzero">
                        <rect id="矩形" fill="#000000" opacity="0" x="0" y="0" width="18.9" height="18.9"></rect>
                        <path d="M14.805,8.925 L1.05,8.925 C0.470101011,8.925 4.44036621e-16,9.39510101 0,9.975 C5.86070908e-16,10.554899 0.470101011,11.025 1.05,11.025 L14.805,11.025 L14.805,11.025 L12.285,13.545 C11.8790707,13.9509293 11.8790707,14.6090707 12.285,15.015 C12.6909293,15.4209293 13.3490707,15.4209293 13.755,15.015 L18.795,9.97500001 L18.795,9.97500001 L13.8532262,4.9417119 C13.4547109,4.53581662 12.8026072,4.52983402 12.3967119,4.92834938 C12.3944644,4.93055598 12.3922271,4.93277287 12.39,4.935 C11.9821363,5.34286364 11.9767302,6.00245456 12.3778537,6.41694881 L14.805,8.925 L14.805,8.925 Z" id="路径" fill="#FFFFFF"></path>
                    </g>
                    <g id="火箭备份" transform="translate(164.850000, 54.600000)">
                        <path d="M14.1788309,34.8126695 L4.83001982,51.9197033 C3.71765344,53.9551803 4.4659824,56.5070115 6.50145935,57.6193779 C7.47286264,58.1502394 8.61456891,58.2761289 9.67829878,57.9696699 L23.8985657,53.8728328 L23.8985657,53.8728328 L14.1788309,34.8126695 Z" id="路径-3" fill="url(#linearGradient-11)"></path>
                        <path d="M45.6788309,34.8126695 L36.3300198,51.9197033 C35.2176534,53.9551803 35.9659824,56.5070115 38.0014593,57.6193779 C38.9728626,58.1502394 40.1145689,58.2761289 41.1782988,57.9696699 L55.3985657,53.8728328 L55.3985657,53.8728328 L45.6788309,34.8126695 Z" id="路径-3备份" fill="url(#linearGradient-11)" transform="translate(43.449283, 47.785321) scale(-1, 1) translate(-43.449283, -47.785321) "></path>
                        <g id="路径">
                            <use fill="url(#linearGradient-12)" fill-rule="evenodd" xlink:href="#path-13"></use>
                            <use fill="black" fill-opacity="1" filter="url(#filter-14)" xlink:href="#path-13"></use>
                        </g>
                        <g id="路径" transform="translate(17.637654, 0.000000)">
                            <mask id="mask-16" fill="white">
                                <use xlink:href="#path-15"></use>
                            </mask>
                            <g id="蒙版"></g>
                            <g mask="url(#mask-16)">
                                <use fill="url(#linearGradient-17)" fill-rule="evenodd" xlink:href="#path-18"></use>
                                <use fill="black" fill-opacity="1" filter="url(#filter-19)" xlink:href="#path-18"></use>
                            </g>
                        </g>
                        <g id="路径-5">
                            <use fill="url(#linearGradient-20)" fill-rule="evenodd" xlink:href="#path-21"></use>
                            <use fill="black" fill-opacity="1" filter="url(#filter-22)" xlink:href="#path-21"></use>
                        </g>
                        <g id="编组-5" transform="translate(22.323566, 23.525169)">
                            <circle id="椭圆形备份-8" fill="#FFFFFF" cx="6.0375" cy="6.0375" r="5.25"></circle>
                            <path d="M6.0375,0 C2.70308082,0 0,2.70308082 0,6.0375 C0,9.37191918 2.70308082,12.075 6.0375,12.075 C9.37191918,12.075 12.075,9.37191918 12.075,6.0375 C12.075,2.70308082 9.37191918,0 6.0375,0 Z M6.0375,1.575 C8.5020707,1.575 10.5,3.5729293 10.5,6.0375 C10.5,8.5020707 8.5020707,10.5 6.0375,10.5 C3.5729293,10.5 1.575,8.5020707 1.575,6.0375 C1.575,3.5729293 3.5729293,1.575 6.0375,1.575 Z" id="椭圆形备份-8" fill="url(#linearGradient-23)" fill-rule="nonzero"></path>
                        </g>
                    </g>
                </g>
            </g>
        </g>
    </g>
</svg>