<?xml version="1.0" encoding="UTF-8"?>
<svg width="242px" height="168px" viewBox="0 0 242 168" version="1.1" xmlns="http://www.w3.org/2000/svg" xmlns:xlink="http://www.w3.org/1999/xlink">
    <title>编组 31</title>
    <defs>
        <rect id="path-1" x="0" y="0" width="240.45" height="166.95" rx="9.45"></rect>
        <rect id="path-3" x="17.85" y="35.7" width="106.05" height="115.5" rx="4.2"></rect>
        <filter x="-14.6%" y="-13.4%" width="133.0%" height="130.3%" filterUnits="objectBoundingBox" id="filter-4">
            <feOffset dx="2" dy="2" in="SourceAlpha" result="shadowOffsetOuter1"></feOffset>
            <feGaussianBlur stdDeviation="5.5" in="shadowOffsetOuter1" result="shadowBlurOuter1"></feGaussianBlur>
            <feColorMatrix values="0 0 0 0 0.179229112   0 0 0 0 0.180967889   0 0 0 0 0.302111639  0 0 0 0.115767045 0" type="matrix" in="shadowBlurOuter1"></feColorMatrix>
        </filter>
        <rect id="path-5" x="132.3" y="35.7" width="91.35" height="115.5" rx="4.2"></rect>
        <filter x="-17.0%" y="-13.4%" width="138.3%" height="130.3%" filterUnits="objectBoundingBox" id="filter-6">
            <feOffset dx="2" dy="2" in="SourceAlpha" result="shadowOffsetOuter1"></feOffset>
            <feGaussianBlur stdDeviation="5.5" in="shadowOffsetOuter1" result="shadowBlurOuter1"></feGaussianBlur>
            <feColorMatrix values="0 0 0 0 0.179229112   0 0 0 0 0.180967889   0 0 0 0 0.302111639  0 0 0 0.115767045 0" type="matrix" in="shadowBlurOuter1"></feColorMatrix>
        </filter>
    </defs>
    <g id="场景应用" stroke="none" stroke-width="1" fill="none" fill-rule="evenodd">
        <g id="12.质量保障" transform="translate(-910.000000, -289.000000)">
            <g id="编组-15" transform="translate(384.000000, 261.000000)">
                <g id="编组-31" transform="translate(526.650000, 28.500000)">
                    <mask id="mask-2" fill="white">
                        <use xlink:href="#path-1"></use>
                    </mask>
                    <use id="蒙版" fill="#F0F1F3" xlink:href="#path-1"></use>
                    <rect id="矩形" fill="#D7D9DF" mask="url(#mask-2)" x="0" y="0" width="240.45" height="25.2"></rect>
                    <circle id="椭圆形" fill="#FFFFFF" mask="url(#mask-2)" cx="16.8" cy="13.65" r="4.2"></circle>
                    <circle id="椭圆形备份-5" fill="#FFFFFF" mask="url(#mask-2)" cx="31.5" cy="13.65" r="4.2"></circle>
                    <circle id="椭圆形备份-7" fill="#FFFFFF" mask="url(#mask-2)" cx="46.2" cy="13.65" r="4.2"></circle>
                    <g id="矩形备份-13" mask="url(#mask-2)">
                        <use fill="black" fill-opacity="1" filter="url(#filter-4)" xlink:href="#path-3"></use>
                        <use fill="#FFFFFF" fill-rule="evenodd" xlink:href="#path-3"></use>
                    </g>
                    <g id="矩形备份-27" mask="url(#mask-2)">
                        <use fill="black" fill-opacity="1" filter="url(#filter-6)" xlink:href="#path-5"></use>
                        <use fill="#FFFFFF" fill-rule="evenodd" xlink:href="#path-5"></use>
                    </g>
                    <rect id="矩形备份-14" fill="#F7B500" mask="url(#mask-2)" x="27.3" y="50.4" width="21" height="21" rx="1.05"></rect>
                    <rect id="矩形备份-36" fill="#00BBB7" mask="url(#mask-2)" x="27.3" y="85.05" width="21" height="21" rx="1.05"></rect>
                    <rect id="矩形备份-37" fill="#00C2EF" mask="url(#mask-2)" x="27.3" y="122.85" width="21" height="21" rx="1.05"></rect>
                    <rect id="矩形备份-28" fill="#D8D8D8" mask="url(#mask-2)" x="149.1" y="50.4" width="15.75" height="10.5" rx="1.05"></rect>
                    <rect id="矩形备份-32" fill="#D8D8D8" opacity="0.523460751" mask="url(#mask-2)" x="173.25" y="50.4" width="37.8" height="7.35" rx="1.05"></rect>
                    <path d="M54.6,50.4 L107.1,50.4 L107.1,64.05 L54.6,64.05 L54.6,50.4 Z" id="矩形备份-15" fill="#E0E4E8" opacity="0.499953497" mask="url(#mask-2)"></path>
                    <path d="M54.6,86.1 L107.1,86.1 L107.1,100.8 L54.6,100.8 L54.6,86.1 Z" id="矩形备份-16" fill="#E0E4E8" opacity="0.499953497" mask="url(#mask-2)"></path>
                    <path d="M54.6,122.85 L107.1,122.85 L107.1,136.5 L54.6,136.5 L54.6,122.85 Z" id="矩形备份-17" fill="#E0E4E8" opacity="0.499953497" mask="url(#mask-2)"></path>
                    <rect id="矩形备份-29" fill="#E0E4E8" mask="url(#mask-2)" x="149.1" y="75.6" width="15.75" height="10.5" rx="1.05"></rect>
                    <rect id="矩形备份-33" fill="#E0E4E8" opacity="0.523460751" mask="url(#mask-2)" x="173.25" y="75.6" width="37.8" height="7.35" rx="1.05"></rect>
                    <rect id="矩形备份-30" fill="#E0E4E8" mask="url(#mask-2)" x="149.1" y="100.8" width="15.75" height="10.5" rx="1.05"></rect>
                    <rect id="矩形备份-34" fill="#E0E4E8" opacity="0.523460751" mask="url(#mask-2)" x="173.25" y="100.8" width="37.8" height="7.35" rx="1.05"></rect>
                    <rect id="矩形备份-31" fill="#2469F7" mask="url(#mask-2)" x="149.1" y="126" width="15.75" height="10.5" rx="1.05"></rect>
                    <rect id="矩形备份-35" fill="#E0E4E8" opacity="0.523460751" mask="url(#mask-2)" x="173.25" y="126" width="37.8" height="7.35" rx="1.05"></rect>
                    <g id="编组-29" mask="url(#mask-2)">
                        <g transform="translate(115.500000, 67.200000)">
                            <circle id="椭圆形备份-9" stroke="#F2F5FB" stroke-width="6.3" fill="#2469F7" cx="18.9" cy="18.9" r="22.05"></circle>
                            <g id="向上关联" stroke="none" stroke-width="1" fill="none" transform="translate(8.400000, 10.500000)">
                                <rect id="矩形" fill="#000000" fill-rule="nonzero" opacity="0" x="0" y="0" width="16.8" height="16.8"></rect>
                                <path d="M9.2904,12.2556 L8.106,11.0712 L4.5444,14.6328 C3.88795435,15.2892457 2.82364565,15.2892457 2.1672,14.6328 C1.51075435,13.9763543 1.51075435,12.9120457 2.1672,12.2556 L6.3672,8.106 C7.02246292,7.45462436 8.08073708,7.45462436 8.736,8.106 L9.9288,6.9132 C9.29857066,6.28226914 8.44337507,5.92775683 7.5516,5.92775683 C6.65982493,5.92775683 5.80462934,6.28226914 5.1744,6.9132 L0.9828,11.0712 C-0.220038366,12.3987146 -0.16986703,14.4364444 1.09684427,15.7031557 C2.36355556,16.969867 4.40128545,17.0200384 5.7288,15.8172 L9.2904,12.2556 Z M11.0712,0.9828 L7.5096,4.5444 L8.694,5.7288 L12.2556,2.1672 C12.6802459,1.74255412 13.2991807,1.57671103 13.8792578,1.73214221 C14.4593349,1.88757338 14.9124266,2.34066515 15.0678578,2.92074221 C15.223289,3.50081926 15.0574459,4.11975412 14.6328,4.5444 L10.4328,8.694 C9.77753708,9.34537564 8.71926292,9.34537564 8.064,8.694 L6.9132,9.8868 C7.54342934,10.5177309 8.39862493,10.8722432 9.2904,10.8722432 C10.1821751,10.8722432 11.0373707,10.5177309 11.6676,9.8868 L15.8172,5.7288 C17.0200384,4.40128545 16.969867,2.36355556 15.7031557,1.09684427 C14.4364444,-0.16986703 12.3987146,-0.220038366 11.0712,0.9828 Z M15.3804,8.6436 L9.5004,14.5236 C9.24958421,14.8580211 9.28284106,15.3259805 9.5784303,15.6215697 C9.87401955,15.9171589 10.3419789,15.9504158 10.6764,15.6996 L15.12,11.2476 L15.12,12.6 C15.12,12.9001031 15.2801031,13.1774098 15.54,13.3274614 C15.7998969,13.4775129 16.1201031,13.4775129 16.38,13.3274614 C16.6398969,13.1774098 16.8,12.9001031 16.8,12.6 L16.8,9.24 C16.7930792,8.90905142 16.5924396,8.61302581 16.2876,8.484 C16.0830925,8.39998486 15.8537075,8.39998486 15.6492,8.484 C15.5504028,8.51991188 15.4592241,8.5740492 15.3804,8.6436 L15.3804,8.6436 Z" id="形状" fill="#FFFFFF" fill-rule="nonzero"></path>
                            </g>
                        </g>
                    </g>
                </g>
            </g>
        </g>
    </g>
</svg>