<?xml version="1.0" encoding="UTF-8"?>
<svg width="17px" height="16px" viewBox="0 0 17 16" version="1.1" xmlns="http://www.w3.org/2000/svg" xmlns:xlink="http://www.w3.org/1999/xlink">
    <title>编辑</title>
    <g id="元工具" stroke="none" stroke-width="1" fill="none" fill-rule="evenodd">
        <g id="3.工具管理" transform="translate(-665.000000, -323.000000)">
            <g id="编组-5" transform="translate(464.000000, 193.000000)">
                <g id="编组-7" transform="translate(170.000000, 130.000000)">
                    <g id="编辑" transform="translate(31.881528, 0.000000)">
                        <rect id="矩形" x="0" y="0" width="15.9407639" height="16"></rect>
                        <g id="编组" transform="translate(1.992595, 1.522593)" fill="#67686F" fill-rule="nonzero">
                            <path d="M9.54497357,0 C9.97770669,0 10.3914776,0.178254463 10.6895766,0.493100342 L12.0279148,1.88516323 C12.6614668,2.54273691 12.6614668,3.60763794 12.0279148,4.26629493 L3.78634159,12.8353358 C3.68691075,12.9399054 3.54936095,12.9993539 3.40534691,13 L0.53979206,13 C0.236621851,12.9940706 -0.0046745173,12.7431582 6.87479811e-05,12.4388416 L6.87479811e-05,9.45971866 C6.87479811e-05,9.31130417 0.0573427122,9.16830627 0.15771808,9.06322448 L8.40037059,0.494183659 C8.69846951,0.178254463 9.11224045,0 9.54497357,0 Z M9.54497357,1.12188481 C9.40076207,1.12188481 9.26285799,1.18123566 9.16343924,1.2860887 L7.92547637,2.5730698 L10.0279626,4.75920436 L11.2659254,3.47222326 C11.4764415,3.25012057 11.4764415,2.90133759 11.2659254,2.6792349 L9.9275872,1.2860887 C9.82708915,1.18123566 9.68918507,1.12188481 9.54497357,1.12188481 Z M7.16240772,3.36714147 L1.07944457,9.6926319 L1.07944457,11.8776831 L3.18193077,11.8776831 L9.26489391,5.55219271 L7.16240772,3.36714147 Z M9.32857291,9.79554706 C9.32375885,10.0998637 9.56505522,10.3507761 9.86822543,10.3567055 L12.4121474,10.3567055 C12.7153176,10.3507761 12.956614,10.0998637 12.9517999,9.79554706 C12.9560136,9.49165034 12.7148902,9.24140186 12.4121474,9.23547195 L9.86822543,9.23547195 C9.5654826,9.24140186 9.32435919,9.49165034 9.32857291,9.79554706 Z M7.31782764,11.8776831 C7.01465743,11.8836125 6.77336106,12.1345249 6.77817513,12.4388416 C6.77336106,12.7431582 7.01465743,12.9940706 7.31782764,13 L12.4056715,13 C12.7088418,12.9940706 12.9501381,12.7431582 12.9453241,12.4388416 C12.9501381,12.1345249 12.7088418,11.8836125 12.4056715,11.8776831 L7.31782764,11.8776831 Z" id="形状"></path>
                        </g>
                    </g>
                </g>
            </g>
        </g>
    </g>
</svg>