<?xml version="1.0" encoding="UTF-8"?>
<svg width="17px" height="16px" viewBox="0 0 17 16" version="1.1" xmlns="http://www.w3.org/2000/svg" xmlns:xlink="http://www.w3.org/1999/xlink">
    <title>计划管理</title>
    <g id="智慧楼宇" stroke="none" stroke-width="1" fill="none" fill-rule="evenodd" opacity="0.849999964">
        <g id="8.智慧楼宇-保存为模版" transform="translate(-24.000000, -248.000000)">
            <g id="编组-37" transform="translate(12.996990, 92.000000)">
                <g transform="translate(11.330852, 3.000000)" id="icon">
                    <g transform="translate(0.000000, 15.000000)">
                        <g id="计划管理" transform="translate(0.000000, 138.000000)">
                            <rect id="矩形" stroke="#979797" stroke-width="0.9" fill="#D8D8D8" opacity="0" x="0.45" y="0.45" width="15.0962956" height="15.1"></rect>
                            <path d="M13.2187493,0.666666667 C13.5255742,0.666666667 13.803352,0.791032014 14.0044235,0.992103576 C14.1767706,1.16445063 14.292762,1.39315327 14.3223852,1.64819875 L14.3298604,1.77777778 L14.3298604,13.2222222 C14.3298604,13.5290471 14.2054951,13.8068249 14.0044235,14.0078964 C13.8320765,14.1802435 13.6033738,14.2962349 13.3483283,14.3258581 L13.2187493,14.3333333 L1.77777778,14.3333333 C1.47095292,14.3333333 1.19317514,14.208968 0.992103576,14.0078964 C0.819756523,13.8355494 0.703765056,13.6068467 0.674141924,13.3518013 L0.666666667,13.2222222 L0.666666667,1.77777778 C0.666666667,1.47095292 0.791032014,1.19317514 0.992103576,0.992103576 C1.16445063,0.819756523 1.39315327,0.703765056 1.64819875,0.674141924 L1.77777778,0.666666667 L13.2187493,0.666666667 Z M4.35730125,7.66992679 C3.90061843,7.66992679 3.48709774,7.85509542 3.18776082,8.15450166 C2.88847977,8.45385202 2.70336207,8.86738396 2.70336207,9.3240946 C2.70336207,9.78080525 2.88847977,10.1943372 3.18776082,10.4936875 C3.48709774,10.7930938 3.90061843,10.9782624 4.35730125,10.9782624 C4.81398407,10.9782624 5.22750476,10.7930938 5.52684169,10.4936875 C5.82612274,10.1943372 6.01124044,9.78080525 6.01124044,9.3240946 C6.01124044,8.86738396 5.82612274,8.45385202 5.52684169,8.15450166 C5.22750476,7.85509542 4.81398407,7.66992679 4.35730125,7.66992679 Z M11.0797562,8.09522424 L7.26529019,9.27960062 L7.66066471,10.552965 L11.4751307,9.36858859 L11.0797562,8.09522424 Z M6.89625054,1.87897091 L4.258713,4.85974742 L0.810301428,5.46803453 L5.629391,7.25212965 L6.89625054,1.87897091 Z M11.0665663,4.09947042 L7.51453406,5.28384679 L7.93628826,6.54871879 L11.4883205,5.36434241 L11.0665663,4.09947042 Z" id="形状结合" stroke="#FFFFFF" stroke-width="1.33333333" fill="#FFFFFF"></path>
                            <g id="编组-11" transform="translate(3.182279, 4.136839)"></g>
                        </g>
                    </g>
                </g>
            </g>
        </g>
    </g>
</svg>