<?xml version="1.0" encoding="UTF-8"?>
<svg width="16px" height="16px" viewBox="0 0 16 16" version="1.1" xmlns="http://www.w3.org/2000/svg" xmlns:xlink="http://www.w3.org/1999/xlink">
    <title>error</title>
    <g id="页面-1" stroke="none" stroke-width="1" fill="none" fill-rule="evenodd">
        <g id="error" fill="#FF6060" fill-rule="nonzero">
            <path d="M8,0 C12.418278,0 16,3.581722 16,8 C16,12.418278 12.418278,16 8,16 C3.581722,16 0,12.418278 0,8 C0,3.581722 3.581722,0 8,0 Z M4.42775108,4.41082534 C4.12039062,4.71817521 4.12039062,5.21656041 4.42775108,5.52392086 L6.87747508,7.97363164 L4.42775108,10.4234482 C4.14833248,10.7029269 4.12293079,11.1401593 4.351546,11.4483284 L4.42775111,11.5366204 C4.54572519,11.6548706 4.69750231,11.7316177 4.86039739,11.7574636 L4.98429886,11.7671577 C5.19309417,11.7673965 5.39337902,11.684433 5.54084662,11.5366204 L7.99057063,9.08681711 L10.440374,11.5366072 C10.5583481,11.6548574 10.7101252,11.7316045 10.8730203,11.7574571 L10.9969217,11.7671577 C11.2057197,11.7674014 11.4060125,11.6844351 11.5534695,11.5366072 C11.86083,11.2291807 11.86083,10.7308722 11.5534695,10.423435 L9.10375871,7.97364493 L11.5535541,5.52392086 C11.860904,5.21648372 11.860904,4.71817521 11.5535541,4.41082534 C11.2461169,4.10346488 10.7478838,4.10346488 10.4403713,4.41082534 L7.99066051,6.86045679 L5.54092328,4.41082534 C5.23349673,4.10346488 4.7352649,4.10346488 4.42775108,4.41082534 Z" id="形状结合"></path>
        </g>
    </g>
</svg>