<?xml version="1.0" encoding="UTF-8"?>
<svg width="16px" height="16px" viewBox="0 0 16 16" version="1.1" xmlns="http://www.w3.org/2000/svg" xmlns:xlink="http://www.w3.org/1999/xlink">
    <title>准备</title>
    <g id="页面-1" stroke="none" stroke-width="1" fill="none" fill-rule="evenodd">
        <g id="准备" fill="#FFCB05" fill-rule="nonzero">
            <g id="形状结合">
                <path d="M8,0 C12.418278,0 16,3.581722 16,8 C16,12.418278 12.418278,16 8,16 C3.581722,16 0,12.418278 0,8 C0,3.581722 3.581722,0 8,0 Z M11.4085522,6.70094438 L11.3144201,6.70773677 C10.9770889,6.75796752 10.744348,7.07214855 10.7945788,7.40947975 L10.7945788,7.40947975 L10.8675565,7.86851218 L10.8870021,8.06991369 L10.889039,8.15615616 C10.889039,9.65889903 9.65889903,10.889039 8.15615616,10.889039 C8.08447144,10.889039 8.01536074,10.8851295 7.94274665,10.8772501 L7.94274665,10.8772501 L7.86556641,10.8680874 L7.46361811,10.7956143 L7.36850617,10.7852884 L7.26945542,10.7909516 C7.0109347,10.8252307 6.80149829,11.0095428 6.7411639,11.2626684 C6.66145479,11.5970782 6.86793053,11.932788 7.20234038,12.0124971 L7.20234038,12.0124971 L7.4203256,12.0610547 L7.62855227,12.0999756 C7.82852562,12.1333326 8.00390261,12.15 8.15615616,12.15 C10.353113,12.15 12.15,10.353113 12.15,8.15615616 C12.15,7.89682003 12.1016071,7.56981264 12.0055418,7.17315333 C11.9303066,6.86255118 11.630519,6.66066764 11.3144201,6.70773677 Z M7.84384384,3.85 C5.64688702,3.85 3.85,5.64688702 3.85,7.84384384 C3.85,8.10317997 3.89839288,8.43018736 3.99445695,8.82684148 C4.06969341,9.13744882 4.36948095,9.33933236 4.68557987,9.29226323 C5.02291107,9.24203248 5.25565197,8.92785145 5.20542122,8.59052025 L5.20542122,8.59052025 L5.13244347,8.13148782 L5.11299788,7.93008631 L5.11096096,7.84384384 C5.11096096,6.34110097 6.34110097,5.11096096 7.84384384,5.11096096 C7.91552856,5.11096096 7.98463926,5.11487055 8.05725335,5.12274989 L8.05725335,5.12274989 L8.13443359,5.13191262 L8.53638189,5.20438572 L8.63149383,5.21471156 L8.73054458,5.20904836 C8.9890653,5.17476934 9.19850171,4.99045718 9.2588361,4.73733164 C9.33854521,4.4029218 9.13206947,4.06721205 8.79765962,3.98750293 L8.79765962,3.98750293 L8.5796744,3.93894533 L8.37144773,3.90002438 C8.17147438,3.86666742 7.99609739,3.85 7.84384384,3.85 Z"></path>
            </g>
        </g>
    </g>
</svg>