<?xml version="1.0" encoding="UTF-8"?>
<svg width="16px" height="16px" viewBox="0 0 16 16" version="1.1" xmlns="http://www.w3.org/2000/svg" xmlns:xlink="http://www.w3.org/1999/xlink">
    <!-- Generator: Sketch 64 (93537) - https://sketch.com -->
    <title>未启用</title>
    <desc>Created with Sketch.</desc>
    <g id="页面-1" stroke="none" stroke-width="1" fill="none" fill-rule="evenodd">
        <g id="单任务列表展示页面" transform="translate(-732.000000, -319.000000)" fill="#59A1FF" fill-rule="nonzero">
            <g id="列表" transform="translate(226.000000, 266.000000)">
                <g id="未启用" transform="translate(506.000000, 53.000000)">
                    <path d="M0,8.00000121 L0,8.00000121 C0,3.58172413 3.58172292,1.20796705e-06 8,1.20796705e-06 C12.4182957,1.20796705e-06 16.0000186,3.58172413 16.0000186,8.00000121 C16.0000186,8.00000121 16.0000186,8.00000121 16.0000186,8.00000121 L16.0000186,8.00000121 C16.0000186,12.4182969 12.4182957,16.0000198 8,16.0000198 C3.58172292,16.0000198 0,12.4182969 0,8.00000121 L0,8.00000121 Z M7.08700825,10.9570127 L7.08700825,5.04300587 C7.08700825,4.45300518 6.63500772,4.00000465 6.04300703,4.00000465 C5.45300635,4.00000465 5.00000582,4.48700522 5.00000582,5.04300587 L5.00000582,10.9570127 C5.00000582,11.5470134 5.45200634,12.0000047 6.04300703,12.0000047 C6.63500772,12.0000047 7.08700825,11.5130134 7.08700825,10.9570127 Z M11.2610131,10.9570127 L11.2610131,5.04300587 C11.2610131,4.45300518 10.8090126,4.00000465 10.2170119,4.00000465 C9.6270112,4.00000465 9.17401068,4.48700522 9.17401068,5.04300587 L9.17401068,10.9570127 C9.17401068,11.5470134 9.6260112,12.0000047 10.2170119,12.0000047 C10.8090126,12.0000047 11.2610131,11.5130134 11.2610131,10.9570127 Z" id="形状"></path>
                </g>
            </g>
        </g>
    </g>
</svg>